<?xml version="1.0" encoding="utf-8"?>
<svg xmlns="http://www.w3.org/2000/svg" xmlns:xlink="http://www.w3.org/1999/xlink" width="600" height="400" viewBox="0 0 2400 1600">
<defs>
  <clipPath id="clip070">
    <rect x="0" y="0" width="2400" height="1600"/>
  </clipPath>
</defs>
<path clip-path="url(#clip070)" d="
M0 1600 L2400 1600 L2400 0 L0 0  Z
  " fill="#ffffff" fill-rule="evenodd" fill-opacity="1"/>
<defs>
  <clipPath id="clip071">
    <rect x="480" y="0" width="1681" height="1600"/>
  </clipPath>
</defs>
<path clip-path="url(#clip070)" d="
M272.297 1410.9 L2352.76 1410.9 L2352.76 47.2441 L272.297 47.2441  Z
  " fill="#ffffff" fill-rule="evenodd" fill-opacity="1"/>
<defs>
  <clipPath id="clip072">
    <rect x="272" y="47" width="2081" height="1365"/>
  </clipPath>
</defs>
<polyline clip-path="url(#clip072)" style="stroke:#000000; stroke-linecap:round; stroke-linejoin:round; stroke-width:2; stroke-opacity:0.1; fill:none" points="
  347.678,1410.9 347.678,47.2441 
  "/>
<polyline clip-path="url(#clip072)" style="stroke:#000000; stroke-linecap:round; stroke-linejoin:round; stroke-width:2; stroke-opacity:0.1; fill:none" points="
  669.294,1410.9 669.294,47.2441 
  "/>
<polyline clip-path="url(#clip072)" style="stroke:#000000; stroke-linecap:round; stroke-linejoin:round; stroke-width:2; stroke-opacity:0.1; fill:none" points="
  990.91,1410.9 990.91,47.2441 
  "/>
<polyline clip-path="url(#clip072)" style="stroke:#000000; stroke-linecap:round; stroke-linejoin:round; stroke-width:2; stroke-opacity:0.1; fill:none" points="
  1312.53,1410.9 1312.53,47.2441 
  "/>
<polyline clip-path="url(#clip072)" style="stroke:#000000; stroke-linecap:round; stroke-linejoin:round; stroke-width:2; stroke-opacity:0.1; fill:none" points="
  1634.14,1410.9 1634.14,47.2441 
  "/>
<polyline clip-path="url(#clip072)" style="stroke:#000000; stroke-linecap:round; stroke-linejoin:round; stroke-width:2; stroke-opacity:0.1; fill:none" points="
  1955.76,1410.9 1955.76,47.2441 
  "/>
<polyline clip-path="url(#clip072)" style="stroke:#000000; stroke-linecap:round; stroke-linejoin:round; stroke-width:2; stroke-opacity:0.1; fill:none" points="
  2277.37,1410.9 2277.37,47.2441 
  "/>
<polyline clip-path="url(#clip070)" style="stroke:#000000; stroke-linecap:round; stroke-linejoin:round; stroke-width:4; stroke-opacity:1; fill:none" points="
  272.297,1410.9 2352.76,1410.9 
  "/>
<polyline clip-path="url(#clip070)" style="stroke:#000000; stroke-linecap:round; stroke-linejoin:round; stroke-width:4; stroke-opacity:1; fill:none" points="
  347.678,1410.9 347.678,1392 
  "/>
<polyline clip-path="url(#clip070)" style="stroke:#000000; stroke-linecap:round; stroke-linejoin:round; stroke-width:4; stroke-opacity:1; fill:none" points="
  669.294,1410.9 669.294,1392 
  "/>
<polyline clip-path="url(#clip070)" style="stroke:#000000; stroke-linecap:round; stroke-linejoin:round; stroke-width:4; stroke-opacity:1; fill:none" points="
  990.91,1410.9 990.91,1392 
  "/>
<polyline clip-path="url(#clip070)" style="stroke:#000000; stroke-linecap:round; stroke-linejoin:round; stroke-width:4; stroke-opacity:1; fill:none" points="
  1312.53,1410.9 1312.53,1392 
  "/>
<polyline clip-path="url(#clip070)" style="stroke:#000000; stroke-linecap:round; stroke-linejoin:round; stroke-width:4; stroke-opacity:1; fill:none" points="
  1634.14,1410.9 1634.14,1392 
  "/>
<polyline clip-path="url(#clip070)" style="stroke:#000000; stroke-linecap:round; stroke-linejoin:round; stroke-width:4; stroke-opacity:1; fill:none" points="
  1955.76,1410.9 1955.76,1392 
  "/>
<polyline clip-path="url(#clip070)" style="stroke:#000000; stroke-linecap:round; stroke-linejoin:round; stroke-width:4; stroke-opacity:1; fill:none" points="
  2277.37,1410.9 2277.37,1392 
  "/>
<path clip-path="url(#clip070)" d="M286.66 1456.47 L316.335 1456.47 L316.335 1460.4 L286.66 1460.4 L286.66 1456.47 Z" fill="#000000" fill-rule="evenodd" fill-opacity="1" /><path clip-path="url(#clip070)" d="M327.238 1469.36 L334.877 1469.36 L334.877 1443 L326.567 1444.66 L326.567 1440.4 L334.831 1438.74 L339.506 1438.74 L339.506 1469.36 L347.145 1469.36 L347.145 1473.3 L327.238 1473.3 L327.238 1469.36 Z" fill="#000000" fill-rule="evenodd" fill-opacity="1" /><path clip-path="url(#clip070)" d="M356.636 1438.74 L374.992 1438.74 L374.992 1442.67 L360.918 1442.67 L360.918 1451.14 Q361.937 1450.8 362.955 1450.63 Q363.974 1450.45 364.992 1450.45 Q370.779 1450.45 374.159 1453.62 Q377.539 1456.79 377.539 1462.21 Q377.539 1467.79 374.066 1470.89 Q370.594 1473.97 364.275 1473.97 Q362.099 1473.97 359.83 1473.6 Q357.585 1473.23 355.178 1472.49 L355.178 1467.79 Q357.261 1468.92 359.483 1469.48 Q361.705 1470.03 364.182 1470.03 Q368.187 1470.03 370.525 1467.93 Q372.863 1465.82 372.863 1462.21 Q372.863 1458.6 370.525 1456.49 Q368.187 1454.38 364.182 1454.38 Q362.307 1454.38 360.432 1454.8 Q358.58 1455.22 356.636 1456.1 L356.636 1438.74 Z" fill="#000000" fill-rule="evenodd" fill-opacity="1" /><path clip-path="url(#clip070)" d="M396.752 1441.82 Q393.14 1441.82 391.312 1445.38 Q389.506 1448.92 389.506 1456.05 Q389.506 1463.16 391.312 1466.72 Q393.14 1470.26 396.752 1470.26 Q400.386 1470.26 402.191 1466.72 Q404.02 1463.16 404.02 1456.05 Q404.02 1448.92 402.191 1445.38 Q400.386 1441.82 396.752 1441.82 M396.752 1438.11 Q402.562 1438.11 405.617 1442.72 Q408.696 1447.3 408.696 1456.05 Q408.696 1464.78 405.617 1469.38 Q402.562 1473.97 396.752 1473.97 Q390.941 1473.97 387.863 1469.38 Q384.807 1464.78 384.807 1456.05 Q384.807 1447.3 387.863 1442.72 Q390.941 1438.11 396.752 1438.11 Z" fill="#000000" fill-rule="evenodd" fill-opacity="1" /><path clip-path="url(#clip070)" d="M608.276 1456.47 L637.951 1456.47 L637.951 1460.4 L608.276 1460.4 L608.276 1456.47 Z" fill="#000000" fill-rule="evenodd" fill-opacity="1" /><path clip-path="url(#clip070)" d="M648.854 1469.36 L656.493 1469.36 L656.493 1443 L648.183 1444.66 L648.183 1440.4 L656.447 1438.74 L661.123 1438.74 L661.123 1469.36 L668.761 1469.36 L668.761 1473.3 L648.854 1473.3 L648.854 1469.36 Z" fill="#000000" fill-rule="evenodd" fill-opacity="1" /><path clip-path="url(#clip070)" d="M688.206 1441.82 Q684.595 1441.82 682.766 1445.38 Q680.96 1448.92 680.96 1456.05 Q680.96 1463.16 682.766 1466.72 Q684.595 1470.26 688.206 1470.26 Q691.84 1470.26 693.646 1466.72 Q695.474 1463.16 695.474 1456.05 Q695.474 1448.92 693.646 1445.38 Q691.84 1441.82 688.206 1441.82 M688.206 1438.11 Q694.016 1438.11 697.072 1442.72 Q700.15 1447.3 700.15 1456.05 Q700.15 1464.78 697.072 1469.38 Q694.016 1473.97 688.206 1473.97 Q682.396 1473.97 679.317 1469.38 Q676.261 1464.78 676.261 1456.05 Q676.261 1447.3 679.317 1442.72 Q682.396 1438.11 688.206 1438.11 Z" fill="#000000" fill-rule="evenodd" fill-opacity="1" /><path clip-path="url(#clip070)" d="M718.368 1441.82 Q714.757 1441.82 712.928 1445.38 Q711.122 1448.92 711.122 1456.05 Q711.122 1463.16 712.928 1466.72 Q714.757 1470.26 718.368 1470.26 Q722.002 1470.26 723.807 1466.72 Q725.636 1463.16 725.636 1456.05 Q725.636 1448.92 723.807 1445.38 Q722.002 1441.82 718.368 1441.82 M718.368 1438.11 Q724.178 1438.11 727.233 1442.72 Q730.312 1447.3 730.312 1456.05 Q730.312 1464.78 727.233 1469.38 Q724.178 1473.97 718.368 1473.97 Q712.558 1473.97 709.479 1469.38 Q706.423 1464.78 706.423 1456.05 Q706.423 1447.3 709.479 1442.72 Q712.558 1438.11 718.368 1438.11 Z" fill="#000000" fill-rule="evenodd" fill-opacity="1" /><path clip-path="url(#clip070)" d="M944.973 1456.47 L974.649 1456.47 L974.649 1460.4 L944.973 1460.4 L944.973 1456.47 Z" fill="#000000" fill-rule="evenodd" fill-opacity="1" /><path clip-path="url(#clip070)" d="M984.787 1438.74 L1003.14 1438.74 L1003.14 1442.67 L989.07 1442.67 L989.07 1451.14 Q990.088 1450.8 991.107 1450.63 Q992.125 1450.45 993.144 1450.45 Q998.931 1450.45 1002.31 1453.62 Q1005.69 1456.79 1005.69 1462.21 Q1005.69 1467.79 1002.22 1470.89 Q998.746 1473.97 992.426 1473.97 Q990.25 1473.97 987.982 1473.6 Q985.736 1473.23 983.329 1472.49 L983.329 1467.79 Q985.412 1468.92 987.635 1469.48 Q989.857 1470.03 992.334 1470.03 Q996.338 1470.03 998.676 1467.93 Q1001.01 1465.82 1001.01 1462.21 Q1001.01 1458.6 998.676 1456.49 Q996.338 1454.38 992.334 1454.38 Q990.459 1454.38 988.584 1454.8 Q986.732 1455.22 984.787 1456.1 L984.787 1438.74 Z" fill="#000000" fill-rule="evenodd" fill-opacity="1" /><path clip-path="url(#clip070)" d="M1024.9 1441.82 Q1021.29 1441.82 1019.46 1445.38 Q1017.66 1448.92 1017.66 1456.05 Q1017.66 1463.16 1019.46 1466.72 Q1021.29 1470.26 1024.9 1470.26 Q1028.54 1470.26 1030.34 1466.72 Q1032.17 1463.16 1032.17 1456.05 Q1032.17 1448.92 1030.34 1445.38 Q1028.54 1441.82 1024.9 1441.82 M1024.9 1438.11 Q1030.71 1438.11 1033.77 1442.72 Q1036.85 1447.3 1036.85 1456.05 Q1036.85 1464.78 1033.77 1469.38 Q1030.71 1473.97 1024.9 1473.97 Q1019.09 1473.97 1016.01 1469.38 Q1012.96 1464.78 1012.96 1456.05 Q1012.96 1447.3 1016.01 1442.72 Q1019.09 1438.11 1024.9 1438.11 Z" fill="#000000" fill-rule="evenodd" fill-opacity="1" /><path clip-path="url(#clip070)" d="M1312.53 1441.82 Q1308.92 1441.82 1307.09 1445.38 Q1305.28 1448.92 1305.28 1456.05 Q1305.28 1463.16 1307.09 1466.72 Q1308.92 1470.26 1312.53 1470.26 Q1316.16 1470.26 1317.97 1466.72 Q1319.79 1463.16 1319.79 1456.05 Q1319.79 1448.92 1317.97 1445.38 Q1316.16 1441.82 1312.53 1441.82 M1312.53 1438.11 Q1318.34 1438.11 1321.39 1442.72 Q1324.47 1447.3 1324.47 1456.05 Q1324.47 1464.78 1321.39 1469.38 Q1318.34 1473.97 1312.53 1473.97 Q1306.72 1473.97 1303.64 1469.38 Q1300.58 1464.78 1300.58 1456.05 Q1300.58 1447.3 1303.64 1442.72 Q1306.72 1438.11 1312.53 1438.11 Z" fill="#000000" fill-rule="evenodd" fill-opacity="1" /><path clip-path="url(#clip070)" d="M1608.84 1438.74 L1627.2 1438.74 L1627.2 1442.67 L1613.12 1442.67 L1613.12 1451.14 Q1614.14 1450.8 1615.16 1450.63 Q1616.18 1450.45 1617.2 1450.45 Q1622.99 1450.45 1626.36 1453.62 Q1629.74 1456.79 1629.74 1462.21 Q1629.74 1467.79 1626.27 1470.89 Q1622.8 1473.97 1616.48 1473.97 Q1614.3 1473.97 1612.04 1473.6 Q1609.79 1473.23 1607.38 1472.49 L1607.38 1467.79 Q1609.47 1468.92 1611.69 1469.48 Q1613.91 1470.03 1616.39 1470.03 Q1620.39 1470.03 1622.73 1467.93 Q1625.07 1465.82 1625.07 1462.21 Q1625.07 1458.6 1622.73 1456.49 Q1620.39 1454.38 1616.39 1454.38 Q1614.51 1454.38 1612.64 1454.8 Q1610.79 1455.22 1608.84 1456.1 L1608.84 1438.74 Z" fill="#000000" fill-rule="evenodd" fill-opacity="1" /><path clip-path="url(#clip070)" d="M1648.96 1441.82 Q1645.35 1441.82 1643.52 1445.38 Q1641.71 1448.92 1641.71 1456.05 Q1641.71 1463.16 1643.52 1466.72 Q1645.35 1470.26 1648.96 1470.26 Q1652.59 1470.26 1654.4 1466.72 Q1656.23 1463.16 1656.23 1456.05 Q1656.23 1448.92 1654.4 1445.38 Q1652.59 1441.82 1648.96 1441.82 M1648.96 1438.11 Q1654.77 1438.11 1657.82 1442.72 Q1660.9 1447.3 1660.9 1456.05 Q1660.9 1464.78 1657.82 1469.38 Q1654.77 1473.97 1648.96 1473.97 Q1643.15 1473.97 1640.07 1469.38 Q1637.01 1464.78 1637.01 1456.05 Q1637.01 1447.3 1640.07 1442.72 Q1643.15 1438.11 1648.96 1438.11 Z" fill="#000000" fill-rule="evenodd" fill-opacity="1" /><path clip-path="url(#clip070)" d="M1915.37 1469.36 L1923 1469.36 L1923 1443 L1914.69 1444.66 L1914.69 1440.4 L1922.96 1438.74 L1927.63 1438.74 L1927.63 1469.36 L1935.27 1469.36 L1935.27 1473.3 L1915.37 1473.3 L1915.37 1469.36 Z" fill="#000000" fill-rule="evenodd" fill-opacity="1" /><path clip-path="url(#clip070)" d="M1954.72 1441.82 Q1951.11 1441.82 1949.28 1445.38 Q1947.47 1448.92 1947.47 1456.05 Q1947.47 1463.16 1949.28 1466.72 Q1951.11 1470.26 1954.72 1470.26 Q1958.35 1470.26 1960.16 1466.72 Q1961.99 1463.16 1961.99 1456.05 Q1961.99 1448.92 1960.16 1445.38 Q1958.35 1441.82 1954.72 1441.82 M1954.72 1438.11 Q1960.53 1438.11 1963.58 1442.72 Q1966.66 1447.3 1966.66 1456.05 Q1966.66 1464.78 1963.58 1469.38 Q1960.53 1473.97 1954.72 1473.97 Q1948.91 1473.97 1945.83 1469.38 Q1942.77 1464.78 1942.77 1456.05 Q1942.77 1447.3 1945.83 1442.72 Q1948.91 1438.11 1954.72 1438.11 Z" fill="#000000" fill-rule="evenodd" fill-opacity="1" /><path clip-path="url(#clip070)" d="M1984.88 1441.82 Q1981.27 1441.82 1979.44 1445.38 Q1977.63 1448.92 1977.63 1456.05 Q1977.63 1463.16 1979.44 1466.72 Q1981.27 1470.26 1984.88 1470.26 Q1988.51 1470.26 1990.32 1466.72 Q1992.15 1463.16 1992.15 1456.05 Q1992.15 1448.92 1990.32 1445.38 Q1988.51 1441.82 1984.88 1441.82 M1984.88 1438.11 Q1990.69 1438.11 1993.74 1442.72 Q1996.82 1447.3 1996.82 1456.05 Q1996.82 1464.78 1993.74 1469.38 Q1990.69 1473.97 1984.88 1473.97 Q1979.07 1473.97 1975.99 1469.38 Q1972.93 1464.78 1972.93 1456.05 Q1972.93 1447.3 1975.99 1442.72 Q1979.07 1438.11 1984.88 1438.11 Z" fill="#000000" fill-rule="evenodd" fill-opacity="1" /><path clip-path="url(#clip070)" d="M2236.98 1469.36 L2244.62 1469.36 L2244.62 1443 L2236.31 1444.66 L2236.31 1440.4 L2244.57 1438.74 L2249.25 1438.74 L2249.25 1469.36 L2256.89 1469.36 L2256.89 1473.3 L2236.98 1473.3 L2236.98 1469.36 Z" fill="#000000" fill-rule="evenodd" fill-opacity="1" /><path clip-path="url(#clip070)" d="M2266.38 1438.74 L2284.74 1438.74 L2284.74 1442.67 L2270.66 1442.67 L2270.66 1451.14 Q2271.68 1450.8 2272.7 1450.63 Q2273.72 1450.45 2274.74 1450.45 Q2280.52 1450.45 2283.9 1453.62 Q2287.28 1456.79 2287.28 1462.21 Q2287.28 1467.79 2283.81 1470.89 Q2280.34 1473.97 2274.02 1473.97 Q2271.84 1473.97 2269.57 1473.6 Q2267.33 1473.23 2264.92 1472.49 L2264.92 1467.79 Q2267 1468.92 2269.23 1469.48 Q2271.45 1470.03 2273.93 1470.03 Q2277.93 1470.03 2280.27 1467.93 Q2282.61 1465.82 2282.61 1462.21 Q2282.61 1458.6 2280.27 1456.49 Q2277.93 1454.38 2273.93 1454.38 Q2272.05 1454.38 2270.18 1454.8 Q2268.32 1455.22 2266.38 1456.1 L2266.38 1438.74 Z" fill="#000000" fill-rule="evenodd" fill-opacity="1" /><path clip-path="url(#clip070)" d="M2306.49 1441.82 Q2302.88 1441.82 2301.06 1445.38 Q2299.25 1448.92 2299.25 1456.05 Q2299.25 1463.16 2301.06 1466.72 Q2302.88 1470.26 2306.49 1470.26 Q2310.13 1470.26 2311.93 1466.72 Q2313.76 1463.16 2313.76 1456.05 Q2313.76 1448.92 2311.93 1445.38 Q2310.13 1441.82 2306.49 1441.82 M2306.49 1438.11 Q2312.31 1438.11 2315.36 1442.72 Q2318.44 1447.3 2318.44 1456.05 Q2318.44 1464.78 2315.36 1469.38 Q2312.31 1473.97 2306.49 1473.97 Q2300.68 1473.97 2297.61 1469.38 Q2294.55 1464.78 2294.55 1456.05 Q2294.55 1447.3 2297.61 1442.72 Q2300.68 1438.11 2306.49 1438.11 Z" fill="#000000" fill-rule="evenodd" fill-opacity="1" /><path clip-path="url(#clip070)" d="M1255.11 1533.48 Q1257.18 1534.18 1259.12 1536.47 Q1261.09 1538.76 1263.06 1542.77 L1269.59 1555.76 L1262.68 1555.76 L1256.6 1543.57 Q1254.25 1538.8 1252.02 1537.24 Q1249.82 1535.68 1246 1535.68 L1239 1535.68 L1239 1555.76 L1232.57 1555.76 L1232.57 1508.24 L1247.09 1508.24 Q1255.23 1508.24 1259.25 1511.65 Q1263.26 1515.05 1263.26 1521.93 Q1263.26 1526.41 1261.15 1529.37 Q1259.09 1532.33 1255.11 1533.48 M1239 1513.52 L1239 1530.39 L1247.09 1530.39 Q1251.73 1530.39 1254.09 1528.26 Q1256.48 1526.1 1256.48 1521.93 Q1256.48 1517.76 1254.09 1515.66 Q1251.73 1513.52 1247.09 1513.52 L1239 1513.52 Z" fill="#000000" fill-rule="evenodd" fill-opacity="1" /><path clip-path="url(#clip070)" d="M1305.17 1536.47 L1305.17 1539.34 L1278.25 1539.34 Q1278.63 1545.38 1281.88 1548.57 Q1285.15 1551.72 1290.98 1551.72 Q1294.35 1551.72 1297.5 1550.89 Q1300.69 1550.06 1303.81 1548.41 L1303.81 1553.95 Q1300.65 1555.28 1297.34 1555.98 Q1294.03 1556.68 1290.63 1556.68 Q1282.1 1556.68 1277.1 1551.72 Q1272.14 1546.75 1272.14 1538.29 Q1272.14 1529.53 1276.85 1524.41 Q1281.59 1519.25 1289.61 1519.25 Q1296.8 1519.25 1300.97 1523.9 Q1305.17 1528.52 1305.17 1536.47 M1299.32 1534.75 Q1299.25 1529.95 1296.61 1527.08 Q1294 1524.22 1289.67 1524.22 Q1284.77 1524.22 1281.81 1526.99 Q1278.88 1529.76 1278.44 1534.79 L1299.32 1534.75 Z" fill="#000000" fill-rule="evenodd" fill-opacity="1" /><path clip-path="url(#clip070)" d="M1328.85 1506.3 Q1324.59 1513.62 1322.52 1520.78 Q1320.45 1527.94 1320.45 1535.29 Q1320.45 1542.65 1322.52 1549.87 Q1324.62 1557.07 1328.85 1564.35 L1323.76 1564.35 Q1318.99 1556.87 1316.6 1549.65 Q1314.24 1542.42 1314.24 1535.29 Q1314.24 1528.2 1316.6 1521 Q1318.96 1513.81 1323.76 1506.3 L1328.85 1506.3 Z" fill="#000000" fill-rule="evenodd" fill-opacity="1" /><path clip-path="url(#clip070)" d="M1369.85 1520.11 L1356.96 1537.46 L1370.52 1555.76 L1363.61 1555.76 L1353.23 1541.76 L1342.86 1555.76 L1335.95 1555.76 L1349.8 1537.11 L1337.13 1520.11 L1344.04 1520.11 L1353.49 1532.81 L1362.94 1520.11 L1369.85 1520.11 Z" fill="#000000" fill-rule="evenodd" fill-opacity="1" /><path clip-path="url(#clip070)" d="M1377.87 1506.3 L1382.96 1506.3 Q1387.74 1513.81 1390.09 1521 Q1392.48 1528.2 1392.48 1535.29 Q1392.48 1542.42 1390.09 1549.65 Q1387.74 1556.87 1382.96 1564.35 L1377.87 1564.35 Q1382.1 1557.07 1384.17 1549.87 Q1386.27 1542.65 1386.27 1535.29 Q1386.27 1527.94 1384.17 1520.78 Q1382.1 1513.62 1377.87 1506.3 Z" fill="#000000" fill-rule="evenodd" fill-opacity="1" /><polyline clip-path="url(#clip072)" style="stroke:#000000; stroke-linecap:round; stroke-linejoin:round; stroke-width:2; stroke-opacity:0.1; fill:none" points="
  272.297,1372.3 2352.76,1372.3 
  "/>
<polyline clip-path="url(#clip072)" style="stroke:#000000; stroke-linecap:round; stroke-linejoin:round; stroke-width:2; stroke-opacity:0.1; fill:none" points="
  272.297,1050.69 2352.76,1050.69 
  "/>
<polyline clip-path="url(#clip072)" style="stroke:#000000; stroke-linecap:round; stroke-linejoin:round; stroke-width:2; stroke-opacity:0.1; fill:none" points="
  272.297,729.07 2352.76,729.07 
  "/>
<polyline clip-path="url(#clip072)" style="stroke:#000000; stroke-linecap:round; stroke-linejoin:round; stroke-width:2; stroke-opacity:0.1; fill:none" points="
  272.297,407.454 2352.76,407.454 
  "/>
<polyline clip-path="url(#clip072)" style="stroke:#000000; stroke-linecap:round; stroke-linejoin:round; stroke-width:2; stroke-opacity:0.1; fill:none" points="
  272.297,85.838 2352.76,85.838 
  "/>
<polyline clip-path="url(#clip070)" style="stroke:#000000; stroke-linecap:round; stroke-linejoin:round; stroke-width:4; stroke-opacity:1; fill:none" points="
  272.297,1410.9 272.297,47.2441 
  "/>
<polyline clip-path="url(#clip070)" style="stroke:#000000; stroke-linecap:round; stroke-linejoin:round; stroke-width:4; stroke-opacity:1; fill:none" points="
  272.297,1372.3 291.194,1372.3 
  "/>
<polyline clip-path="url(#clip070)" style="stroke:#000000; stroke-linecap:round; stroke-linejoin:round; stroke-width:4; stroke-opacity:1; fill:none" points="
  272.297,1050.69 291.194,1050.69 
  "/>
<polyline clip-path="url(#clip070)" style="stroke:#000000; stroke-linecap:round; stroke-linejoin:round; stroke-width:4; stroke-opacity:1; fill:none" points="
  272.297,729.07 291.194,729.07 
  "/>
<polyline clip-path="url(#clip070)" style="stroke:#000000; stroke-linecap:round; stroke-linejoin:round; stroke-width:4; stroke-opacity:1; fill:none" points="
  272.297,407.454 291.194,407.454 
  "/>
<polyline clip-path="url(#clip070)" style="stroke:#000000; stroke-linecap:round; stroke-linejoin:round; stroke-width:4; stroke-opacity:1; fill:none" points="
  272.297,85.838 291.194,85.838 
  "/>
<path clip-path="url(#clip070)" d="M114.26 1372.75 L143.936 1372.75 L143.936 1376.69 L114.26 1376.69 L114.26 1372.75 Z" fill="#000000" fill-rule="evenodd" fill-opacity="1" /><path clip-path="url(#clip070)" d="M154.839 1385.65 L162.477 1385.65 L162.477 1359.28 L154.167 1360.95 L154.167 1356.69 L162.431 1355.02 L167.107 1355.02 L167.107 1385.65 L174.746 1385.65 L174.746 1389.58 L154.839 1389.58 L154.839 1385.65 Z" fill="#000000" fill-rule="evenodd" fill-opacity="1" /><path clip-path="url(#clip070)" d="M194.19 1358.1 Q190.579 1358.1 188.75 1361.67 Q186.945 1365.21 186.945 1372.34 Q186.945 1379.44 188.75 1383.01 Q190.579 1386.55 194.19 1386.55 Q197.825 1386.55 199.63 1383.01 Q201.459 1379.44 201.459 1372.34 Q201.459 1365.21 199.63 1361.67 Q197.825 1358.1 194.19 1358.1 M194.19 1354.4 Q200 1354.4 203.056 1359 Q206.135 1363.59 206.135 1372.34 Q206.135 1381.06 203.056 1385.67 Q200 1390.25 194.19 1390.25 Q188.38 1390.25 185.301 1385.67 Q182.246 1381.06 182.246 1372.34 Q182.246 1363.59 185.301 1359 Q188.38 1354.4 194.19 1354.4 Z" fill="#000000" fill-rule="evenodd" fill-opacity="1" /><path clip-path="url(#clip070)" d="M224.352 1358.1 Q220.741 1358.1 218.912 1361.67 Q217.107 1365.21 217.107 1372.34 Q217.107 1379.44 218.912 1383.01 Q220.741 1386.55 224.352 1386.55 Q227.986 1386.55 229.792 1383.01 Q231.621 1379.44 231.621 1372.34 Q231.621 1365.21 229.792 1361.67 Q227.986 1358.1 224.352 1358.1 M224.352 1354.4 Q230.162 1354.4 233.218 1359 Q236.297 1363.59 236.297 1372.34 Q236.297 1381.06 233.218 1385.67 Q230.162 1390.25 224.352 1390.25 Q218.542 1390.25 215.463 1385.67 Q212.408 1381.06 212.408 1372.34 Q212.408 1363.59 215.463 1359 Q218.542 1354.4 224.352 1354.4 Z" fill="#000000" fill-rule="evenodd" fill-opacity="1" /><path clip-path="url(#clip070)" d="M144.422 1051.14 L174.098 1051.14 L174.098 1055.07 L144.422 1055.07 L144.422 1051.14 Z" fill="#000000" fill-rule="evenodd" fill-opacity="1" /><path clip-path="url(#clip070)" d="M184.237 1033.41 L202.593 1033.41 L202.593 1037.34 L188.519 1037.34 L188.519 1045.81 Q189.538 1045.47 190.556 1045.3 Q191.575 1045.12 192.593 1045.12 Q198.38 1045.12 201.76 1048.29 Q205.139 1051.46 205.139 1056.88 Q205.139 1062.46 201.667 1065.56 Q198.195 1068.64 191.875 1068.64 Q189.7 1068.64 187.431 1068.27 Q185.186 1067.9 182.778 1067.16 L182.778 1062.46 Q184.862 1063.59 187.084 1064.15 Q189.306 1064.7 191.783 1064.7 Q195.787 1064.7 198.125 1062.6 Q200.463 1060.49 200.463 1056.88 Q200.463 1053.27 198.125 1051.16 Q195.787 1049.05 191.783 1049.05 Q189.908 1049.05 188.033 1049.47 Q186.181 1049.89 184.237 1050.77 L184.237 1033.41 Z" fill="#000000" fill-rule="evenodd" fill-opacity="1" /><path clip-path="url(#clip070)" d="M224.352 1036.49 Q220.741 1036.49 218.912 1040.05 Q217.107 1043.59 217.107 1050.72 Q217.107 1057.83 218.912 1061.39 Q220.741 1064.93 224.352 1064.93 Q227.986 1064.93 229.792 1061.39 Q231.621 1057.83 231.621 1050.72 Q231.621 1043.59 229.792 1040.05 Q227.986 1036.49 224.352 1036.49 M224.352 1032.78 Q230.162 1032.78 233.218 1037.39 Q236.297 1041.97 236.297 1050.72 Q236.297 1059.45 233.218 1064.05 Q230.162 1068.64 224.352 1068.64 Q218.542 1068.64 215.463 1064.05 Q212.408 1059.45 212.408 1050.72 Q212.408 1041.97 215.463 1037.39 Q218.542 1032.78 224.352 1032.78 Z" fill="#000000" fill-rule="evenodd" fill-opacity="1" /><path clip-path="url(#clip070)" d="M224.352 714.869 Q220.741 714.869 218.912 718.434 Q217.107 721.975 217.107 729.105 Q217.107 736.212 218.912 739.776 Q220.741 743.318 224.352 743.318 Q227.986 743.318 229.792 739.776 Q231.621 736.212 231.621 729.105 Q231.621 721.975 229.792 718.434 Q227.986 714.869 224.352 714.869 M224.352 711.165 Q230.162 711.165 233.218 715.772 Q236.297 720.355 236.297 729.105 Q236.297 737.832 233.218 742.438 Q230.162 747.022 224.352 747.022 Q218.542 747.022 215.463 742.438 Q212.408 737.832 212.408 729.105 Q212.408 720.355 215.463 715.772 Q218.542 711.165 224.352 711.165 Z" fill="#000000" fill-rule="evenodd" fill-opacity="1" /><path clip-path="url(#clip070)" d="M184.237 390.174 L202.593 390.174 L202.593 394.109 L188.519 394.109 L188.519 402.582 Q189.538 402.234 190.556 402.072 Q191.575 401.887 192.593 401.887 Q198.38 401.887 201.76 405.058 Q205.139 408.23 205.139 413.646 Q205.139 419.225 201.667 422.327 Q198.195 425.405 191.875 425.405 Q189.7 425.405 187.431 425.035 Q185.186 424.665 182.778 423.924 L182.778 419.225 Q184.862 420.359 187.084 420.915 Q189.306 421.47 191.783 421.47 Q195.787 421.47 198.125 419.364 Q200.463 417.257 200.463 413.646 Q200.463 410.035 198.125 407.929 Q195.787 405.822 191.783 405.822 Q189.908 405.822 188.033 406.239 Q186.181 406.656 184.237 407.535 L184.237 390.174 Z" fill="#000000" fill-rule="evenodd" fill-opacity="1" /><path clip-path="url(#clip070)" d="M224.352 393.253 Q220.741 393.253 218.912 396.818 Q217.107 400.359 217.107 407.489 Q217.107 414.595 218.912 418.16 Q220.741 421.702 224.352 421.702 Q227.986 421.702 229.792 418.16 Q231.621 414.595 231.621 407.489 Q231.621 400.359 229.792 396.818 Q227.986 393.253 224.352 393.253 M224.352 389.549 Q230.162 389.549 233.218 394.156 Q236.297 398.739 236.297 407.489 Q236.297 416.216 233.218 420.822 Q230.162 425.405 224.352 425.405 Q218.542 425.405 215.463 420.822 Q212.408 416.216 212.408 407.489 Q212.408 398.739 215.463 394.156 Q218.542 389.549 224.352 389.549 Z" fill="#000000" fill-rule="evenodd" fill-opacity="1" /><path clip-path="url(#clip070)" d="M154.839 99.1829 L162.477 99.1829 L162.477 72.8173 L154.167 74.4839 L154.167 70.2247 L162.431 68.558 L167.107 68.558 L167.107 99.1829 L174.746 99.1829 L174.746 103.118 L154.839 103.118 L154.839 99.1829 Z" fill="#000000" fill-rule="evenodd" fill-opacity="1" /><path clip-path="url(#clip070)" d="M194.19 71.6367 Q190.579 71.6367 188.75 75.2015 Q186.945 78.7432 186.945 85.8728 Q186.945 92.9792 188.75 96.544 Q190.579 100.086 194.19 100.086 Q197.825 100.086 199.63 96.544 Q201.459 92.9792 201.459 85.8728 Q201.459 78.7432 199.63 75.2015 Q197.825 71.6367 194.19 71.6367 M194.19 67.933 Q200 67.933 203.056 72.5395 Q206.135 77.1228 206.135 85.8728 Q206.135 94.5996 203.056 99.206 Q200 103.789 194.19 103.789 Q188.38 103.789 185.301 99.206 Q182.246 94.5996 182.246 85.8728 Q182.246 77.1228 185.301 72.5395 Q188.38 67.933 194.19 67.933 Z" fill="#000000" fill-rule="evenodd" fill-opacity="1" /><path clip-path="url(#clip070)" d="M224.352 71.6367 Q220.741 71.6367 218.912 75.2015 Q217.107 78.7432 217.107 85.8728 Q217.107 92.9792 218.912 96.544 Q220.741 100.086 224.352 100.086 Q227.986 100.086 229.792 96.544 Q231.621 92.9792 231.621 85.8728 Q231.621 78.7432 229.792 75.2015 Q227.986 71.6367 224.352 71.6367 M224.352 67.933 Q230.162 67.933 233.218 72.5395 Q236.297 77.1228 236.297 85.8728 Q236.297 94.5996 233.218 99.206 Q230.162 103.789 224.352 103.789 Q218.542 103.789 215.463 99.206 Q212.408 94.5996 212.408 85.8728 Q212.408 77.1228 215.463 72.5395 Q218.542 67.933 224.352 67.933 Z" fill="#000000" fill-rule="evenodd" fill-opacity="1" /><path clip-path="url(#clip070)" d="M16.4842 809.151 L16.4842 802.722 L64.0042 802.722 L64.0042 809.151 L16.4842 809.151 Z" fill="#000000" fill-rule="evenodd" fill-opacity="1" /><path clip-path="url(#clip070)" d="M35.1993 762.427 Q31.2526 760.231 29.3747 757.175 Q27.4968 754.119 27.4968 749.982 Q27.4968 744.412 31.4117 741.388 Q35.2948 738.364 42.4881 738.364 L64.0042 738.364 L64.0042 744.253 L42.679 744.253 Q37.5546 744.253 35.072 746.067 Q32.5894 747.881 32.5894 751.605 Q32.5894 756.156 35.6131 758.798 Q38.6368 761.44 43.8567 761.44 L64.0042 761.44 L64.0042 767.328 L42.679 767.328 Q37.5228 767.328 35.072 769.142 Q32.5894 770.957 32.5894 774.744 Q32.5894 779.232 35.6449 781.874 Q38.6686 784.516 43.8567 784.516 L64.0042 784.516 L64.0042 790.404 L28.3562 790.404 L28.3562 784.516 L33.8944 784.516 Q30.616 782.51 29.0564 779.71 Q27.4968 776.909 27.4968 773.057 Q27.4968 769.174 29.4702 766.469 Q31.4436 763.732 35.1993 762.427 Z" fill="#000000" fill-rule="evenodd" fill-opacity="1" /><path clip-path="url(#clip070)" d="M14.5426 712.615 Q21.8632 716.88 29.0246 718.949 Q36.186 721.018 43.5384 721.018 Q50.8908 721.018 58.1159 718.949 Q65.3091 716.848 72.5979 712.615 L72.5979 717.708 Q65.1182 722.482 57.8931 724.869 Q50.668 727.224 43.5384 727.224 Q36.4406 727.224 29.2474 724.869 Q22.0542 722.514 14.5426 717.708 L14.5426 712.615 Z" fill="#000000" fill-rule="evenodd" fill-opacity="1" /><path clip-path="url(#clip070)" d="M28.3562 671.62 L45.7028 684.51 L64.0042 670.951 L64.0042 677.858 L49.9996 688.234 L64.0042 698.61 L64.0042 705.517 L45.3526 691.672 L28.3562 704.34 L28.3562 697.433 L41.0558 687.98 L28.3562 678.527 L28.3562 671.62 Z" fill="#000000" fill-rule="evenodd" fill-opacity="1" /><path clip-path="url(#clip070)" d="M14.5426 663.599 L14.5426 658.507 Q22.0542 653.732 29.2474 651.377 Q36.4406 648.99 43.5384 648.99 Q50.668 648.99 57.8931 651.377 Q65.1182 653.732 72.5979 658.507 L72.5979 663.599 Q65.3091 659.366 58.1159 657.297 Q50.8908 655.196 43.5384 655.196 Q36.186 655.196 29.0246 657.297 Q21.8632 659.366 14.5426 663.599 Z" fill="#000000" fill-rule="evenodd" fill-opacity="1" /><circle clip-path="url(#clip072)" cx="1312.53" cy="1038.95" r="10.8" fill="#009af9" fill-rule="evenodd" fill-opacity="1" stroke="#000000" stroke-opacity="1" stroke-width="3.2"/>
<circle clip-path="url(#clip072)" cx="1312.53" cy="419.191" r="10.8" fill="#009af9" fill-rule="evenodd" fill-opacity="1" stroke="#000000" stroke-opacity="1" stroke-width="3.2"/>
<circle clip-path="url(#clip072)" cx="1312.53" cy="1002.95" r="10.8" fill="#009af9" fill-rule="evenodd" fill-opacity="1" stroke="#000000" stroke-opacity="1" stroke-width="3.2"/>
<circle clip-path="url(#clip072)" cx="1312.53" cy="455.195" r="10.8" fill="#009af9" fill-rule="evenodd" fill-opacity="1" stroke="#000000" stroke-opacity="1" stroke-width="3.2"/>
<circle clip-path="url(#clip072)" cx="1312.53" cy="1002.95" r="10.8" fill="#009af9" fill-rule="evenodd" fill-opacity="1" stroke="#000000" stroke-opacity="1" stroke-width="3.2"/>
<circle clip-path="url(#clip072)" cx="1312.53" cy="455.195" r="10.8" fill="#009af9" fill-rule="evenodd" fill-opacity="1" stroke="#000000" stroke-opacity="1" stroke-width="3.2"/>
<circle clip-path="url(#clip072)" cx="1312.53" cy="927.84" r="10.8" fill="#009af9" fill-rule="evenodd" fill-opacity="1" stroke="#000000" stroke-opacity="1" stroke-width="3.2"/>
<circle clip-path="url(#clip072)" cx="1312.53" cy="530.301" r="10.8" fill="#009af9" fill-rule="evenodd" fill-opacity="1" stroke="#000000" stroke-opacity="1" stroke-width="3.2"/>
<circle clip-path="url(#clip072)" cx="1312.53" cy="1272.17" r="10.8" fill="#009af9" fill-rule="evenodd" fill-opacity="1" stroke="#000000" stroke-opacity="1" stroke-width="3.2"/>
<circle clip-path="url(#clip072)" cx="1312.53" cy="185.971" r="10.8" fill="#009af9" fill-rule="evenodd" fill-opacity="1" stroke="#000000" stroke-opacity="1" stroke-width="3.2"/>
<circle clip-path="url(#clip072)" cx="1312.53" cy="1371.03" r="10.8" fill="#009af9" fill-rule="evenodd" fill-opacity="1" stroke="#000000" stroke-opacity="1" stroke-width="3.2"/>
<circle clip-path="url(#clip072)" cx="1312.53" cy="87.1073" r="10.8" fill="#009af9" fill-rule="evenodd" fill-opacity="1" stroke="#000000" stroke-opacity="1" stroke-width="3.2"/>
<circle clip-path="url(#clip072)" cx="1312.53" cy="1352.09" r="10.8" fill="#009af9" fill-rule="evenodd" fill-opacity="1" stroke="#000000" stroke-opacity="1" stroke-width="3.2"/>
<circle clip-path="url(#clip072)" cx="1312.53" cy="106.046" r="10.8" fill="#009af9" fill-rule="evenodd" fill-opacity="1" stroke="#000000" stroke-opacity="1" stroke-width="3.2"/>
<circle clip-path="url(#clip072)" cx="1312.53" cy="729.07" r="10.8" fill="#009af9" fill-rule="evenodd" fill-opacity="1" stroke="#000000" stroke-opacity="1" stroke-width="3.2"/>
<circle clip-path="url(#clip072)" cx="1312.53" cy="1371.03" r="10.8" fill="#009af9" fill-rule="evenodd" fill-opacity="1" stroke="#000000" stroke-opacity="1" stroke-width="3.2"/>
<circle clip-path="url(#clip072)" cx="1312.53" cy="87.1073" r="10.8" fill="#009af9" fill-rule="evenodd" fill-opacity="1" stroke="#000000" stroke-opacity="1" stroke-width="3.2"/>
<circle clip-path="url(#clip072)" cx="1312.53" cy="1224.69" r="10.8" fill="#009af9" fill-rule="evenodd" fill-opacity="1" stroke="#000000" stroke-opacity="1" stroke-width="3.2"/>
<circle clip-path="url(#clip072)" cx="1312.53" cy="233.451" r="10.8" fill="#009af9" fill-rule="evenodd" fill-opacity="1" stroke="#000000" stroke-opacity="1" stroke-width="3.2"/>
<circle clip-path="url(#clip072)" cx="1312.53" cy="769.459" r="10.8" fill="#009af9" fill-rule="evenodd" fill-opacity="1" stroke="#000000" stroke-opacity="1" stroke-width="3.2"/>
<circle clip-path="url(#clip072)" cx="1312.53" cy="688.681" r="10.8" fill="#009af9" fill-rule="evenodd" fill-opacity="1" stroke="#000000" stroke-opacity="1" stroke-width="3.2"/>
<circle clip-path="url(#clip072)" cx="1312.53" cy="1292.74" r="10.8" fill="#009af9" fill-rule="evenodd" fill-opacity="1" stroke="#000000" stroke-opacity="1" stroke-width="3.2"/>
<circle clip-path="url(#clip072)" cx="1312.53" cy="165.402" r="10.8" fill="#009af9" fill-rule="evenodd" fill-opacity="1" stroke="#000000" stroke-opacity="1" stroke-width="3.2"/>
<circle clip-path="url(#clip072)" cx="1312.53" cy="927.84" r="10.8" fill="#009af9" fill-rule="evenodd" fill-opacity="1" stroke="#000000" stroke-opacity="1" stroke-width="3.2"/>
<circle clip-path="url(#clip072)" cx="1312.53" cy="530.301" r="10.8" fill="#009af9" fill-rule="evenodd" fill-opacity="1" stroke="#000000" stroke-opacity="1" stroke-width="3.2"/>
<circle clip-path="url(#clip072)" cx="1312.53" cy="1224.69" r="10.8" fill="#009af9" fill-rule="evenodd" fill-opacity="1" stroke="#000000" stroke-opacity="1" stroke-width="3.2"/>
<circle clip-path="url(#clip072)" cx="1312.53" cy="233.451" r="10.8" fill="#009af9" fill-rule="evenodd" fill-opacity="1" stroke="#000000" stroke-opacity="1" stroke-width="3.2"/>
<circle clip-path="url(#clip072)" cx="1312.53" cy="1372.3" r="10.8" fill="#009af9" fill-rule="evenodd" fill-opacity="1" stroke="#000000" stroke-opacity="1" stroke-width="3.2"/>
<circle clip-path="url(#clip072)" cx="1312.53" cy="1360.91" r="10.8" fill="#009af9" fill-rule="evenodd" fill-opacity="1" stroke="#000000" stroke-opacity="1" stroke-width="3.2"/>
<circle clip-path="url(#clip072)" cx="1312.53" cy="1340.82" r="10.8" fill="#009af9" fill-rule="evenodd" fill-opacity="1" stroke="#000000" stroke-opacity="1" stroke-width="3.2"/>
<circle clip-path="url(#clip072)" cx="1312.53" cy="1311.08" r="10.8" fill="#009af9" fill-rule="evenodd" fill-opacity="1" stroke="#000000" stroke-opacity="1" stroke-width="3.2"/>
<circle clip-path="url(#clip072)" cx="1312.53" cy="1197.97" r="10.8" fill="#009af9" fill-rule="evenodd" fill-opacity="1" stroke="#000000" stroke-opacity="1" stroke-width="3.2"/>
<circle clip-path="url(#clip072)" cx="1312.53" cy="1169.39" r="10.8" fill="#009af9" fill-rule="evenodd" fill-opacity="1" stroke="#000000" stroke-opacity="1" stroke-width="3.2"/>
<circle clip-path="url(#clip072)" cx="1312.53" cy="809.689" r="10.8" fill="#009af9" fill-rule="evenodd" fill-opacity="1" stroke="#000000" stroke-opacity="1" stroke-width="3.2"/>
<circle clip-path="url(#clip072)" cx="1312.53" cy="648.452" r="10.8" fill="#009af9" fill-rule="evenodd" fill-opacity="1" stroke="#000000" stroke-opacity="1" stroke-width="3.2"/>
<circle clip-path="url(#clip072)" cx="1312.53" cy="288.748" r="10.8" fill="#009af9" fill-rule="evenodd" fill-opacity="1" stroke="#000000" stroke-opacity="1" stroke-width="3.2"/>
<circle clip-path="url(#clip072)" cx="1312.53" cy="260.174" r="10.8" fill="#009af9" fill-rule="evenodd" fill-opacity="1" stroke="#000000" stroke-opacity="1" stroke-width="3.2"/>
<circle clip-path="url(#clip072)" cx="1312.53" cy="147.056" r="10.8" fill="#009af9" fill-rule="evenodd" fill-opacity="1" stroke="#000000" stroke-opacity="1" stroke-width="3.2"/>
<circle clip-path="url(#clip072)" cx="1312.53" cy="117.32" r="10.8" fill="#009af9" fill-rule="evenodd" fill-opacity="1" stroke="#000000" stroke-opacity="1" stroke-width="3.2"/>
<circle clip-path="url(#clip072)" cx="1312.53" cy="97.2314" r="10.8" fill="#009af9" fill-rule="evenodd" fill-opacity="1" stroke="#000000" stroke-opacity="1" stroke-width="3.2"/>
<circle clip-path="url(#clip072)" cx="1312.53" cy="85.838" r="10.8" fill="#009af9" fill-rule="evenodd" fill-opacity="1" stroke="#000000" stroke-opacity="1" stroke-width="3.2"/>
<circle clip-path="url(#clip072)" cx="1312.53" cy="1107.15" r="10.8" fill="#009af9" fill-rule="evenodd" fill-opacity="1" stroke="#000000" stroke-opacity="1" stroke-width="3.2"/>
<circle clip-path="url(#clip072)" cx="1312.53" cy="350.988" r="10.8" fill="#009af9" fill-rule="evenodd" fill-opacity="1" stroke="#000000" stroke-opacity="1" stroke-width="3.2"/>
<circle clip-path="url(#clip072)" cx="1312.53" cy="769.459" r="10.8" fill="#009af9" fill-rule="evenodd" fill-opacity="1" stroke="#000000" stroke-opacity="1" stroke-width="3.2"/>
<circle clip-path="url(#clip072)" cx="1312.53" cy="688.681" r="10.8" fill="#009af9" fill-rule="evenodd" fill-opacity="1" stroke="#000000" stroke-opacity="1" stroke-width="3.2"/>
<circle clip-path="url(#clip072)" cx="1312.53" cy="849.6" r="10.8" fill="#009af9" fill-rule="evenodd" fill-opacity="1" stroke="#000000" stroke-opacity="1" stroke-width="3.2"/>
<circle clip-path="url(#clip072)" cx="1312.53" cy="608.541" r="10.8" fill="#009af9" fill-rule="evenodd" fill-opacity="1" stroke="#000000" stroke-opacity="1" stroke-width="3.2"/>
<circle clip-path="url(#clip072)" cx="1312.53" cy="849.6" r="10.8" fill="#009af9" fill-rule="evenodd" fill-opacity="1" stroke="#000000" stroke-opacity="1" stroke-width="3.2"/>
<circle clip-path="url(#clip072)" cx="1312.53" cy="608.541" r="10.8" fill="#009af9" fill-rule="evenodd" fill-opacity="1" stroke="#000000" stroke-opacity="1" stroke-width="3.2"/>
<circle clip-path="url(#clip072)" cx="1312.53" cy="1292.74" r="10.8" fill="#009af9" fill-rule="evenodd" fill-opacity="1" stroke="#000000" stroke-opacity="1" stroke-width="3.2"/>
<circle clip-path="url(#clip072)" cx="1312.53" cy="165.402" r="10.8" fill="#009af9" fill-rule="evenodd" fill-opacity="1" stroke="#000000" stroke-opacity="1" stroke-width="3.2"/>
<circle clip-path="url(#clip072)" cx="1312.53" cy="1340.82" r="10.8" fill="#009af9" fill-rule="evenodd" fill-opacity="1" stroke="#000000" stroke-opacity="1" stroke-width="3.2"/>
<circle clip-path="url(#clip072)" cx="1312.53" cy="117.32" r="10.8" fill="#009af9" fill-rule="evenodd" fill-opacity="1" stroke="#000000" stroke-opacity="1" stroke-width="3.2"/>
<circle clip-path="url(#clip072)" cx="1312.53" cy="1352.09" r="10.8" fill="#009af9" fill-rule="evenodd" fill-opacity="1" stroke="#000000" stroke-opacity="1" stroke-width="3.2"/>
<circle clip-path="url(#clip072)" cx="1312.53" cy="106.046" r="10.8" fill="#009af9" fill-rule="evenodd" fill-opacity="1" stroke="#000000" stroke-opacity="1" stroke-width="3.2"/>
<circle clip-path="url(#clip072)" cx="1312.53" cy="889.036" r="10.8" fill="#009af9" fill-rule="evenodd" fill-opacity="1" stroke="#000000" stroke-opacity="1" stroke-width="3.2"/>
<circle clip-path="url(#clip072)" cx="1312.53" cy="569.105" r="10.8" fill="#009af9" fill-rule="evenodd" fill-opacity="1" stroke="#000000" stroke-opacity="1" stroke-width="3.2"/>
<circle clip-path="url(#clip072)" cx="1312.53" cy="1360.91" r="10.8" fill="#009af9" fill-rule="evenodd" fill-opacity="1" stroke="#000000" stroke-opacity="1" stroke-width="3.2"/>
<circle clip-path="url(#clip072)" cx="1312.53" cy="97.2314" r="10.8" fill="#009af9" fill-rule="evenodd" fill-opacity="1" stroke="#000000" stroke-opacity="1" stroke-width="3.2"/>
<circle clip-path="url(#clip072)" cx="1312.53" cy="965.86" r="10.8" fill="#009af9" fill-rule="evenodd" fill-opacity="1" stroke="#000000" stroke-opacity="1" stroke-width="3.2"/>
<circle clip-path="url(#clip072)" cx="1312.53" cy="492.281" r="10.8" fill="#009af9" fill-rule="evenodd" fill-opacity="1" stroke="#000000" stroke-opacity="1" stroke-width="3.2"/>
<circle clip-path="url(#clip072)" cx="1312.53" cy="1107.15" r="10.8" fill="#009af9" fill-rule="evenodd" fill-opacity="1" stroke="#000000" stroke-opacity="1" stroke-width="3.2"/>
<circle clip-path="url(#clip072)" cx="1312.53" cy="350.988" r="10.8" fill="#009af9" fill-rule="evenodd" fill-opacity="1" stroke="#000000" stroke-opacity="1" stroke-width="3.2"/>
<circle clip-path="url(#clip072)" cx="1312.53" cy="1272.17" r="10.8" fill="#009af9" fill-rule="evenodd" fill-opacity="1" stroke="#000000" stroke-opacity="1" stroke-width="3.2"/>
<circle clip-path="url(#clip072)" cx="1312.53" cy="185.971" r="10.8" fill="#009af9" fill-rule="evenodd" fill-opacity="1" stroke="#000000" stroke-opacity="1" stroke-width="3.2"/>
<circle clip-path="url(#clip072)" cx="1312.53" cy="1169.39" r="10.8" fill="#009af9" fill-rule="evenodd" fill-opacity="1" stroke="#000000" stroke-opacity="1" stroke-width="3.2"/>
<circle clip-path="url(#clip072)" cx="1312.53" cy="288.748" r="10.8" fill="#009af9" fill-rule="evenodd" fill-opacity="1" stroke="#000000" stroke-opacity="1" stroke-width="3.2"/>
<circle clip-path="url(#clip072)" cx="1312.53" cy="1073.73" r="10.8" fill="#009af9" fill-rule="evenodd" fill-opacity="1" stroke="#000000" stroke-opacity="1" stroke-width="3.2"/>
<circle clip-path="url(#clip072)" cx="1312.53" cy="384.409" r="10.8" fill="#009af9" fill-rule="evenodd" fill-opacity="1" stroke="#000000" stroke-opacity="1" stroke-width="3.2"/>
<circle clip-path="url(#clip072)" cx="1312.53" cy="889.036" r="10.8" fill="#009af9" fill-rule="evenodd" fill-opacity="1" stroke="#000000" stroke-opacity="1" stroke-width="3.2"/>
<circle clip-path="url(#clip072)" cx="1312.53" cy="569.105" r="10.8" fill="#009af9" fill-rule="evenodd" fill-opacity="1" stroke="#000000" stroke-opacity="1" stroke-width="3.2"/>
<circle clip-path="url(#clip072)" cx="1312.53" cy="729.07" r="10.8" fill="#009af9" fill-rule="evenodd" fill-opacity="1" stroke="#000000" stroke-opacity="1" stroke-width="3.2"/>
<circle clip-path="url(#clip072)" cx="1312.53" cy="1249.46" r="10.8" fill="#009af9" fill-rule="evenodd" fill-opacity="1" stroke="#000000" stroke-opacity="1" stroke-width="3.2"/>
<circle clip-path="url(#clip072)" cx="1312.53" cy="208.684" r="10.8" fill="#009af9" fill-rule="evenodd" fill-opacity="1" stroke="#000000" stroke-opacity="1" stroke-width="3.2"/>
<circle clip-path="url(#clip072)" cx="1312.53" cy="809.689" r="10.8" fill="#009af9" fill-rule="evenodd" fill-opacity="1" stroke="#000000" stroke-opacity="1" stroke-width="3.2"/>
<circle clip-path="url(#clip072)" cx="1312.53" cy="648.452" r="10.8" fill="#009af9" fill-rule="evenodd" fill-opacity="1" stroke="#000000" stroke-opacity="1" stroke-width="3.2"/>
<circle clip-path="url(#clip072)" cx="1312.53" cy="965.86" r="10.8" fill="#009af9" fill-rule="evenodd" fill-opacity="1" stroke="#000000" stroke-opacity="1" stroke-width="3.2"/>
<circle clip-path="url(#clip072)" cx="1312.53" cy="492.281" r="10.8" fill="#009af9" fill-rule="evenodd" fill-opacity="1" stroke="#000000" stroke-opacity="1" stroke-width="3.2"/>
<circle clip-path="url(#clip072)" cx="1312.53" cy="1197.97" r="10.8" fill="#009af9" fill-rule="evenodd" fill-opacity="1" stroke="#000000" stroke-opacity="1" stroke-width="3.2"/>
<circle clip-path="url(#clip072)" cx="1312.53" cy="260.174" r="10.8" fill="#009af9" fill-rule="evenodd" fill-opacity="1" stroke="#000000" stroke-opacity="1" stroke-width="3.2"/>
<circle clip-path="url(#clip072)" cx="1312.53" cy="1073.73" r="10.8" fill="#009af9" fill-rule="evenodd" fill-opacity="1" stroke="#000000" stroke-opacity="1" stroke-width="3.2"/>
<circle clip-path="url(#clip072)" cx="1312.53" cy="384.409" r="10.8" fill="#009af9" fill-rule="evenodd" fill-opacity="1" stroke="#000000" stroke-opacity="1" stroke-width="3.2"/>
<circle clip-path="url(#clip072)" cx="1312.53" cy="1367.23" r="10.8" fill="#009af9" fill-rule="evenodd" fill-opacity="1" stroke="#000000" stroke-opacity="1" stroke-width="3.2"/>
<circle clip-path="url(#clip072)" cx="1312.53" cy="90.9101" r="10.8" fill="#009af9" fill-rule="evenodd" fill-opacity="1" stroke="#000000" stroke-opacity="1" stroke-width="3.2"/>
<circle clip-path="url(#clip072)" cx="1312.53" cy="1038.95" r="10.8" fill="#009af9" fill-rule="evenodd" fill-opacity="1" stroke="#000000" stroke-opacity="1" stroke-width="3.2"/>
<circle clip-path="url(#clip072)" cx="1312.53" cy="419.191" r="10.8" fill="#009af9" fill-rule="evenodd" fill-opacity="1" stroke="#000000" stroke-opacity="1" stroke-width="3.2"/>
<circle clip-path="url(#clip072)" cx="1312.53" cy="1139.08" r="10.8" fill="#009af9" fill-rule="evenodd" fill-opacity="1" stroke="#000000" stroke-opacity="1" stroke-width="3.2"/>
<circle clip-path="url(#clip072)" cx="1312.53" cy="319.059" r="10.8" fill="#009af9" fill-rule="evenodd" fill-opacity="1" stroke="#000000" stroke-opacity="1" stroke-width="3.2"/>
<circle clip-path="url(#clip072)" cx="1312.53" cy="1249.46" r="10.8" fill="#009af9" fill-rule="evenodd" fill-opacity="1" stroke="#000000" stroke-opacity="1" stroke-width="3.2"/>
<circle clip-path="url(#clip072)" cx="1312.53" cy="208.684" r="10.8" fill="#009af9" fill-rule="evenodd" fill-opacity="1" stroke="#000000" stroke-opacity="1" stroke-width="3.2"/>
<circle clip-path="url(#clip072)" cx="1312.53" cy="1139.08" r="10.8" fill="#009af9" fill-rule="evenodd" fill-opacity="1" stroke="#000000" stroke-opacity="1" stroke-width="3.2"/>
<circle clip-path="url(#clip072)" cx="1312.53" cy="319.059" r="10.8" fill="#009af9" fill-rule="evenodd" fill-opacity="1" stroke="#000000" stroke-opacity="1" stroke-width="3.2"/>
<circle clip-path="url(#clip072)" cx="1312.53" cy="1367.23" r="10.8" fill="#009af9" fill-rule="evenodd" fill-opacity="1" stroke="#000000" stroke-opacity="1" stroke-width="3.2"/>
<circle clip-path="url(#clip072)" cx="1312.53" cy="90.9101" r="10.8" fill="#009af9" fill-rule="evenodd" fill-opacity="1" stroke="#000000" stroke-opacity="1" stroke-width="3.2"/>
<circle clip-path="url(#clip072)" cx="1312.53" cy="1311.08" r="10.8" fill="#009af9" fill-rule="evenodd" fill-opacity="1" stroke="#000000" stroke-opacity="1" stroke-width="3.2"/>
<circle clip-path="url(#clip072)" cx="1312.53" cy="147.056" r="10.8" fill="#009af9" fill-rule="evenodd" fill-opacity="1" stroke="#000000" stroke-opacity="1" stroke-width="3.2"/>
<circle clip-path="url(#clip072)" cx="1312.53" cy="1327.13" r="10.8" fill="#009af9" fill-rule="evenodd" fill-opacity="1" stroke="#000000" stroke-opacity="1" stroke-width="3.2"/>
<circle clip-path="url(#clip072)" cx="1312.53" cy="131.008" r="10.8" fill="#009af9" fill-rule="evenodd" fill-opacity="1" stroke="#000000" stroke-opacity="1" stroke-width="3.2"/>
<circle clip-path="url(#clip072)" cx="1312.53" cy="1327.13" r="10.8" fill="#009af9" fill-rule="evenodd" fill-opacity="1" stroke="#000000" stroke-opacity="1" stroke-width="3.2"/>
<circle clip-path="url(#clip072)" cx="1312.53" cy="131.008" r="10.8" fill="#009af9" fill-rule="evenodd" fill-opacity="1" stroke="#000000" stroke-opacity="1" stroke-width="3.2"/>
</svg>
