<?xml version="1.0" encoding="utf-8"?>
<svg xmlns="http://www.w3.org/2000/svg" xmlns:xlink="http://www.w3.org/1999/xlink" width="600" height="400" viewBox="0 0 2400 1600">
<defs>
  <clipPath id="clip030">
    <rect x="0" y="0" width="2400" height="1600"/>
  </clipPath>
</defs>
<path clip-path="url(#clip030)" d="
M0 1600 L2400 1600 L2400 0 L0 0  Z
  " fill="#ffffff" fill-rule="evenodd" fill-opacity="1"/>
<defs>
  <clipPath id="clip031">
    <rect x="480" y="0" width="1681" height="1600"/>
  </clipPath>
</defs>
<path clip-path="url(#clip030)" d="
M148.057 1486.45 L2352.76 1486.45 L2352.76 47.2441 L148.057 47.2441  Z
  " fill="#ffffff" fill-rule="evenodd" fill-opacity="1"/>
<defs>
  <clipPath id="clip032">
    <rect x="148" y="47" width="2206" height="1440"/>
  </clipPath>
</defs>
<polyline clip-path="url(#clip032)" style="stroke:#000000; stroke-linecap:round; stroke-linejoin:round; stroke-width:2; stroke-opacity:0.1; fill:none" points="
  210.454,1486.45 210.454,47.2441 
  "/>
<polyline clip-path="url(#clip032)" style="stroke:#000000; stroke-linecap:round; stroke-linejoin:round; stroke-width:2; stroke-opacity:0.1; fill:none" points="
  735.682,1486.45 735.682,47.2441 
  "/>
<polyline clip-path="url(#clip032)" style="stroke:#000000; stroke-linecap:round; stroke-linejoin:round; stroke-width:2; stroke-opacity:0.1; fill:none" points="
  1260.91,1486.45 1260.91,47.2441 
  "/>
<polyline clip-path="url(#clip032)" style="stroke:#000000; stroke-linecap:round; stroke-linejoin:round; stroke-width:2; stroke-opacity:0.1; fill:none" points="
  1786.14,1486.45 1786.14,47.2441 
  "/>
<polyline clip-path="url(#clip032)" style="stroke:#000000; stroke-linecap:round; stroke-linejoin:round; stroke-width:2; stroke-opacity:0.1; fill:none" points="
  2311.37,1486.45 2311.37,47.2441 
  "/>
<polyline clip-path="url(#clip030)" style="stroke:#000000; stroke-linecap:round; stroke-linejoin:round; stroke-width:4; stroke-opacity:1; fill:none" points="
  148.057,1486.45 2352.76,1486.45 
  "/>
<polyline clip-path="url(#clip030)" style="stroke:#000000; stroke-linecap:round; stroke-linejoin:round; stroke-width:4; stroke-opacity:1; fill:none" points="
  210.454,1486.45 210.454,1467.55 
  "/>
<polyline clip-path="url(#clip030)" style="stroke:#000000; stroke-linecap:round; stroke-linejoin:round; stroke-width:4; stroke-opacity:1; fill:none" points="
  735.682,1486.45 735.682,1467.55 
  "/>
<polyline clip-path="url(#clip030)" style="stroke:#000000; stroke-linecap:round; stroke-linejoin:round; stroke-width:4; stroke-opacity:1; fill:none" points="
  1260.91,1486.45 1260.91,1467.55 
  "/>
<polyline clip-path="url(#clip030)" style="stroke:#000000; stroke-linecap:round; stroke-linejoin:round; stroke-width:4; stroke-opacity:1; fill:none" points="
  1786.14,1486.45 1786.14,1467.55 
  "/>
<polyline clip-path="url(#clip030)" style="stroke:#000000; stroke-linecap:round; stroke-linejoin:round; stroke-width:4; stroke-opacity:1; fill:none" points="
  2311.37,1486.45 2311.37,1467.55 
  "/>
<path clip-path="url(#clip030)" d="M172.757 1517.37 Q169.146 1517.37 167.317 1520.93 Q165.512 1524.47 165.512 1531.6 Q165.512 1538.71 167.317 1542.27 Q169.146 1545.82 172.757 1545.82 Q176.391 1545.82 178.197 1542.27 Q180.026 1538.71 180.026 1531.6 Q180.026 1524.47 178.197 1520.93 Q176.391 1517.37 172.757 1517.37 M172.757 1513.66 Q178.567 1513.66 181.623 1518.27 Q184.702 1522.85 184.702 1531.6 Q184.702 1540.33 181.623 1544.94 Q178.567 1549.52 172.757 1549.52 Q166.947 1549.52 163.868 1544.94 Q160.813 1540.33 160.813 1531.6 Q160.813 1522.85 163.868 1518.27 Q166.947 1513.66 172.757 1513.66 Z" fill="#000000" fill-rule="evenodd" fill-opacity="1" /><path clip-path="url(#clip030)" d="M192.919 1542.97 L197.803 1542.97 L197.803 1548.85 L192.919 1548.85 L192.919 1542.97 Z" fill="#000000" fill-rule="evenodd" fill-opacity="1" /><path clip-path="url(#clip030)" d="M217.988 1517.37 Q214.377 1517.37 212.549 1520.93 Q210.743 1524.47 210.743 1531.6 Q210.743 1538.71 212.549 1542.27 Q214.377 1545.82 217.988 1545.82 Q221.623 1545.82 223.428 1542.27 Q225.257 1538.71 225.257 1531.6 Q225.257 1524.47 223.428 1520.93 Q221.623 1517.37 217.988 1517.37 M217.988 1513.66 Q223.799 1513.66 226.854 1518.27 Q229.933 1522.85 229.933 1531.6 Q229.933 1540.33 226.854 1544.94 Q223.799 1549.52 217.988 1549.52 Q212.178 1549.52 209.1 1544.94 Q206.044 1540.33 206.044 1531.6 Q206.044 1522.85 209.1 1518.27 Q212.178 1513.66 217.988 1513.66 Z" fill="#000000" fill-rule="evenodd" fill-opacity="1" /><path clip-path="url(#clip030)" d="M248.15 1517.37 Q244.539 1517.37 242.711 1520.93 Q240.905 1524.47 240.905 1531.6 Q240.905 1538.71 242.711 1542.27 Q244.539 1545.82 248.15 1545.82 Q251.785 1545.82 253.59 1542.27 Q255.419 1538.71 255.419 1531.6 Q255.419 1524.47 253.59 1520.93 Q251.785 1517.37 248.15 1517.37 M248.15 1513.66 Q253.96 1513.66 257.016 1518.27 Q260.095 1522.85 260.095 1531.6 Q260.095 1540.33 257.016 1544.94 Q253.96 1549.52 248.15 1549.52 Q242.34 1549.52 239.261 1544.94 Q236.206 1540.33 236.206 1531.6 Q236.206 1522.85 239.261 1518.27 Q242.34 1513.66 248.15 1513.66 Z" fill="#000000" fill-rule="evenodd" fill-opacity="1" /><path clip-path="url(#clip030)" d="M698.483 1517.37 Q694.872 1517.37 693.044 1520.93 Q691.238 1524.47 691.238 1531.6 Q691.238 1538.71 693.044 1542.27 Q694.872 1545.82 698.483 1545.82 Q702.118 1545.82 703.923 1542.27 Q705.752 1538.71 705.752 1531.6 Q705.752 1524.47 703.923 1520.93 Q702.118 1517.37 698.483 1517.37 M698.483 1513.66 Q704.294 1513.66 707.349 1518.27 Q710.428 1522.85 710.428 1531.6 Q710.428 1540.33 707.349 1544.94 Q704.294 1549.52 698.483 1549.52 Q692.673 1549.52 689.595 1544.94 Q686.539 1540.33 686.539 1531.6 Q686.539 1522.85 689.595 1518.27 Q692.673 1513.66 698.483 1513.66 Z" fill="#000000" fill-rule="evenodd" fill-opacity="1" /><path clip-path="url(#clip030)" d="M718.645 1542.97 L723.53 1542.97 L723.53 1548.85 L718.645 1548.85 L718.645 1542.97 Z" fill="#000000" fill-rule="evenodd" fill-opacity="1" /><path clip-path="url(#clip030)" d="M737.742 1544.91 L754.062 1544.91 L754.062 1548.85 L732.118 1548.85 L732.118 1544.91 Q734.78 1542.16 739.363 1537.53 Q743.969 1532.88 745.15 1531.53 Q747.395 1529.01 748.275 1527.27 Q749.178 1525.51 749.178 1523.82 Q749.178 1521.07 747.233 1519.33 Q745.312 1517.6 742.21 1517.6 Q740.011 1517.6 737.557 1518.36 Q735.127 1519.13 732.349 1520.68 L732.349 1515.95 Q735.173 1514.82 737.627 1514.24 Q740.08 1513.66 742.117 1513.66 Q747.488 1513.66 750.682 1516.35 Q753.877 1519.03 753.877 1523.52 Q753.877 1525.65 753.066 1527.57 Q752.279 1529.47 750.173 1532.07 Q749.594 1532.74 746.492 1535.95 Q743.391 1539.15 737.742 1544.91 Z" fill="#000000" fill-rule="evenodd" fill-opacity="1" /><path clip-path="url(#clip030)" d="M763.923 1514.29 L782.279 1514.29 L782.279 1518.22 L768.205 1518.22 L768.205 1526.7 Q769.224 1526.35 770.242 1526.19 Q771.261 1526 772.279 1526 Q778.066 1526 781.446 1529.17 Q784.826 1532.34 784.826 1537.76 Q784.826 1543.34 781.353 1546.44 Q777.881 1549.52 771.562 1549.52 Q769.386 1549.52 767.117 1549.15 Q764.872 1548.78 762.465 1548.04 L762.465 1543.34 Q764.548 1544.47 766.77 1545.03 Q768.992 1545.58 771.469 1545.58 Q775.474 1545.58 777.812 1543.48 Q780.15 1541.37 780.15 1537.76 Q780.15 1534.15 777.812 1532.04 Q775.474 1529.94 771.469 1529.94 Q769.594 1529.94 767.719 1530.35 Q765.867 1530.77 763.923 1531.65 L763.923 1514.29 Z" fill="#000000" fill-rule="evenodd" fill-opacity="1" /><path clip-path="url(#clip030)" d="M1223.21 1517.37 Q1219.6 1517.37 1217.77 1520.93 Q1215.97 1524.47 1215.97 1531.6 Q1215.97 1538.71 1217.77 1542.27 Q1219.6 1545.82 1223.21 1545.82 Q1226.85 1545.82 1228.65 1542.27 Q1230.48 1538.71 1230.48 1531.6 Q1230.48 1524.47 1228.65 1520.93 Q1226.85 1517.37 1223.21 1517.37 M1223.21 1513.66 Q1229.02 1513.66 1232.08 1518.27 Q1235.16 1522.85 1235.16 1531.6 Q1235.16 1540.33 1232.08 1544.94 Q1229.02 1549.52 1223.21 1549.52 Q1217.4 1549.52 1214.33 1544.94 Q1211.27 1540.33 1211.27 1531.6 Q1211.27 1522.85 1214.33 1518.27 Q1217.4 1513.66 1223.21 1513.66 Z" fill="#000000" fill-rule="evenodd" fill-opacity="1" /><path clip-path="url(#clip030)" d="M1243.38 1542.97 L1248.26 1542.97 L1248.26 1548.85 L1243.38 1548.85 L1243.38 1542.97 Z" fill="#000000" fill-rule="evenodd" fill-opacity="1" /><path clip-path="url(#clip030)" d="M1258.49 1514.29 L1276.85 1514.29 L1276.85 1518.22 L1262.77 1518.22 L1262.77 1526.7 Q1263.79 1526.35 1264.81 1526.19 Q1265.83 1526 1266.85 1526 Q1272.64 1526 1276.01 1529.17 Q1279.39 1532.34 1279.39 1537.76 Q1279.39 1543.34 1275.92 1546.44 Q1272.45 1549.52 1266.13 1549.52 Q1263.95 1549.52 1261.69 1549.15 Q1259.44 1548.78 1257.03 1548.04 L1257.03 1543.34 Q1259.12 1544.47 1261.34 1545.03 Q1263.56 1545.58 1266.04 1545.58 Q1270.04 1545.58 1272.38 1543.48 Q1274.72 1541.37 1274.72 1537.76 Q1274.72 1534.15 1272.38 1532.04 Q1270.04 1529.94 1266.04 1529.94 Q1264.16 1529.94 1262.29 1530.35 Q1260.44 1530.77 1258.49 1531.65 L1258.49 1514.29 Z" fill="#000000" fill-rule="evenodd" fill-opacity="1" /><path clip-path="url(#clip030)" d="M1298.61 1517.37 Q1295 1517.37 1293.17 1520.93 Q1291.36 1524.47 1291.36 1531.6 Q1291.36 1538.71 1293.17 1542.27 Q1295 1545.82 1298.61 1545.82 Q1302.24 1545.82 1304.05 1542.27 Q1305.88 1538.71 1305.88 1531.6 Q1305.88 1524.47 1304.05 1520.93 Q1302.24 1517.37 1298.61 1517.37 M1298.61 1513.66 Q1304.42 1513.66 1307.47 1518.27 Q1310.55 1522.85 1310.55 1531.6 Q1310.55 1540.33 1307.47 1544.94 Q1304.42 1549.52 1298.61 1549.52 Q1292.8 1549.52 1289.72 1544.94 Q1286.66 1540.33 1286.66 1531.6 Q1286.66 1522.85 1289.72 1518.27 Q1292.8 1513.66 1298.61 1513.66 Z" fill="#000000" fill-rule="evenodd" fill-opacity="1" /><path clip-path="url(#clip030)" d="M1748.94 1517.37 Q1745.33 1517.37 1743.5 1520.93 Q1741.7 1524.47 1741.7 1531.6 Q1741.7 1538.71 1743.5 1542.27 Q1745.33 1545.82 1748.94 1545.82 Q1752.57 1545.82 1754.38 1542.27 Q1756.21 1538.71 1756.21 1531.6 Q1756.21 1524.47 1754.38 1520.93 Q1752.57 1517.37 1748.94 1517.37 M1748.94 1513.66 Q1754.75 1513.66 1757.81 1518.27 Q1760.88 1522.85 1760.88 1531.6 Q1760.88 1540.33 1757.81 1544.94 Q1754.75 1549.52 1748.94 1549.52 Q1743.13 1549.52 1740.05 1544.94 Q1737 1540.33 1737 1531.6 Q1737 1522.85 1740.05 1518.27 Q1743.13 1513.66 1748.94 1513.66 Z" fill="#000000" fill-rule="evenodd" fill-opacity="1" /><path clip-path="url(#clip030)" d="M1769.1 1542.97 L1773.99 1542.97 L1773.99 1548.85 L1769.1 1548.85 L1769.1 1542.97 Z" fill="#000000" fill-rule="evenodd" fill-opacity="1" /><path clip-path="url(#clip030)" d="M1782.99 1514.29 L1805.21 1514.29 L1805.21 1516.28 L1792.67 1548.85 L1787.78 1548.85 L1799.59 1518.22 L1782.99 1518.22 L1782.99 1514.29 Z" fill="#000000" fill-rule="evenodd" fill-opacity="1" /><path clip-path="url(#clip030)" d="M1814.38 1514.29 L1832.74 1514.29 L1832.74 1518.22 L1818.66 1518.22 L1818.66 1526.7 Q1819.68 1526.35 1820.7 1526.19 Q1821.72 1526 1822.74 1526 Q1828.52 1526 1831.9 1529.17 Q1835.28 1532.34 1835.28 1537.76 Q1835.28 1543.34 1831.81 1546.44 Q1828.34 1549.52 1822.02 1549.52 Q1819.84 1549.52 1817.57 1549.15 Q1815.33 1548.78 1812.92 1548.04 L1812.92 1543.34 Q1815 1544.47 1817.23 1545.03 Q1819.45 1545.58 1821.93 1545.58 Q1825.93 1545.58 1828.27 1543.48 Q1830.61 1541.37 1830.61 1537.76 Q1830.61 1534.15 1828.27 1532.04 Q1825.93 1529.94 1821.93 1529.94 Q1820.05 1529.94 1818.18 1530.35 Q1816.32 1530.77 1814.38 1531.65 L1814.38 1514.29 Z" fill="#000000" fill-rule="evenodd" fill-opacity="1" /><path clip-path="url(#clip030)" d="M2263.44 1544.91 L2271.08 1544.91 L2271.08 1518.55 L2262.77 1520.21 L2262.77 1515.95 L2271.03 1514.29 L2275.71 1514.29 L2275.71 1544.91 L2283.35 1544.91 L2283.35 1548.85 L2263.44 1548.85 L2263.44 1544.91 Z" fill="#000000" fill-rule="evenodd" fill-opacity="1" /><path clip-path="url(#clip030)" d="M2292.79 1542.97 L2297.68 1542.97 L2297.68 1548.85 L2292.79 1548.85 L2292.79 1542.97 Z" fill="#000000" fill-rule="evenodd" fill-opacity="1" /><path clip-path="url(#clip030)" d="M2317.86 1517.37 Q2314.25 1517.37 2312.42 1520.93 Q2310.62 1524.47 2310.62 1531.6 Q2310.62 1538.71 2312.42 1542.27 Q2314.25 1545.82 2317.86 1545.82 Q2321.5 1545.82 2323.3 1542.27 Q2325.13 1538.71 2325.13 1531.6 Q2325.13 1524.47 2323.3 1520.93 Q2321.5 1517.37 2317.86 1517.37 M2317.86 1513.66 Q2323.67 1513.66 2326.73 1518.27 Q2329.81 1522.85 2329.81 1531.6 Q2329.81 1540.33 2326.73 1544.94 Q2323.67 1549.52 2317.86 1549.52 Q2312.05 1549.52 2308.97 1544.94 Q2305.92 1540.33 2305.92 1531.6 Q2305.92 1522.85 2308.97 1518.27 Q2312.05 1513.66 2317.86 1513.66 Z" fill="#000000" fill-rule="evenodd" fill-opacity="1" /><path clip-path="url(#clip030)" d="M2348.02 1517.37 Q2344.41 1517.37 2342.58 1520.93 Q2340.78 1524.47 2340.78 1531.6 Q2340.78 1538.71 2342.58 1542.27 Q2344.41 1545.82 2348.02 1545.82 Q2351.66 1545.82 2353.46 1542.27 Q2355.29 1538.71 2355.29 1531.6 Q2355.29 1524.47 2353.46 1520.93 Q2351.66 1517.37 2348.02 1517.37 M2348.02 1513.66 Q2353.83 1513.66 2356.89 1518.27 Q2359.97 1522.85 2359.97 1531.6 Q2359.97 1540.33 2356.89 1544.94 Q2353.83 1549.52 2348.02 1549.52 Q2342.21 1549.52 2339.13 1544.94 Q2336.08 1540.33 2336.08 1531.6 Q2336.08 1522.85 2339.13 1518.27 Q2342.21 1513.66 2348.02 1513.66 Z" fill="#000000" fill-rule="evenodd" fill-opacity="1" /><polyline clip-path="url(#clip032)" style="stroke:#000000; stroke-linecap:round; stroke-linejoin:round; stroke-width:2; stroke-opacity:0.1; fill:none" points="
  148.057,1288.03 2352.76,1288.03 
  "/>
<polyline clip-path="url(#clip032)" style="stroke:#000000; stroke-linecap:round; stroke-linejoin:round; stroke-width:2; stroke-opacity:0.1; fill:none" points="
  148.057,1035.81 2352.76,1035.81 
  "/>
<polyline clip-path="url(#clip032)" style="stroke:#000000; stroke-linecap:round; stroke-linejoin:round; stroke-width:2; stroke-opacity:0.1; fill:none" points="
  148.057,783.593 2352.76,783.593 
  "/>
<polyline clip-path="url(#clip032)" style="stroke:#000000; stroke-linecap:round; stroke-linejoin:round; stroke-width:2; stroke-opacity:0.1; fill:none" points="
  148.057,531.374 2352.76,531.374 
  "/>
<polyline clip-path="url(#clip032)" style="stroke:#000000; stroke-linecap:round; stroke-linejoin:round; stroke-width:2; stroke-opacity:0.1; fill:none" points="
  148.057,279.155 2352.76,279.155 
  "/>
<polyline clip-path="url(#clip030)" style="stroke:#000000; stroke-linecap:round; stroke-linejoin:round; stroke-width:4; stroke-opacity:1; fill:none" points="
  148.057,1486.45 148.057,47.2441 
  "/>
<polyline clip-path="url(#clip030)" style="stroke:#000000; stroke-linecap:round; stroke-linejoin:round; stroke-width:4; stroke-opacity:1; fill:none" points="
  148.057,1288.03 166.954,1288.03 
  "/>
<polyline clip-path="url(#clip030)" style="stroke:#000000; stroke-linecap:round; stroke-linejoin:round; stroke-width:4; stroke-opacity:1; fill:none" points="
  148.057,1035.81 166.954,1035.81 
  "/>
<polyline clip-path="url(#clip030)" style="stroke:#000000; stroke-linecap:round; stroke-linejoin:round; stroke-width:4; stroke-opacity:1; fill:none" points="
  148.057,783.593 166.954,783.593 
  "/>
<polyline clip-path="url(#clip030)" style="stroke:#000000; stroke-linecap:round; stroke-linejoin:round; stroke-width:4; stroke-opacity:1; fill:none" points="
  148.057,531.374 166.954,531.374 
  "/>
<polyline clip-path="url(#clip030)" style="stroke:#000000; stroke-linecap:round; stroke-linejoin:round; stroke-width:4; stroke-opacity:1; fill:none" points="
  148.057,279.155 166.954,279.155 
  "/>
<path clip-path="url(#clip030)" d="M50.9921 1288.48 L80.6679 1288.48 L80.6679 1292.42 L50.9921 1292.42 L50.9921 1288.48 Z" fill="#000000" fill-rule="evenodd" fill-opacity="1" /><path clip-path="url(#clip030)" d="M104.927 1286.68 Q108.283 1287.39 110.158 1289.66 Q112.057 1291.93 112.057 1295.26 Q112.057 1300.38 108.538 1303.18 Q105.02 1305.98 98.5382 1305.98 Q96.3623 1305.98 94.0475 1305.54 Q91.7558 1305.13 89.3021 1304.27 L89.3021 1299.76 Q91.2465 1300.89 93.5613 1301.47 Q95.8761 1302.05 98.3993 1302.05 Q102.797 1302.05 105.089 1300.31 Q107.404 1298.57 107.404 1295.26 Q107.404 1292.21 105.251 1290.5 Q103.121 1288.76 99.3021 1288.76 L95.2743 1288.76 L95.2743 1284.92 L99.4872 1284.92 Q102.936 1284.92 104.765 1283.55 Q106.594 1282.16 106.594 1279.57 Q106.594 1276.91 104.696 1275.5 Q102.821 1274.06 99.3021 1274.06 Q97.3808 1274.06 95.1817 1274.48 Q92.9826 1274.89 90.3438 1275.77 L90.3438 1271.61 Q93.0058 1270.87 95.3206 1270.5 Q97.6585 1270.13 99.7187 1270.13 Q105.043 1270.13 108.145 1272.56 Q111.246 1274.96 111.246 1279.08 Q111.246 1281.95 109.603 1283.95 Q107.959 1285.91 104.927 1286.68 Z" fill="#000000" fill-rule="evenodd" fill-opacity="1" /><path clip-path="url(#clip030)" d="M100.112 1021.61 Q96.5011 1021.61 94.6724 1025.18 Q92.8669 1028.72 92.8669 1035.85 Q92.8669 1042.95 94.6724 1046.52 Q96.5011 1050.06 100.112 1050.06 Q103.746 1050.06 105.552 1046.52 Q107.381 1042.95 107.381 1035.85 Q107.381 1028.72 105.552 1025.18 Q103.746 1021.61 100.112 1021.61 M100.112 1017.91 Q105.922 1017.91 108.978 1022.51 Q112.057 1027.1 112.057 1035.85 Q112.057 1044.57 108.978 1049.18 Q105.922 1053.76 100.112 1053.76 Q94.3021 1053.76 91.2234 1049.18 Q88.1679 1044.57 88.1679 1035.85 Q88.1679 1027.1 91.2234 1022.51 Q94.3021 1017.91 100.112 1017.91 Z" fill="#000000" fill-rule="evenodd" fill-opacity="1" /><path clip-path="url(#clip030)" d="M104.927 782.239 Q108.283 782.956 110.158 785.225 Q112.057 787.493 112.057 790.827 Q112.057 795.942 108.538 798.743 Q105.02 801.544 98.5382 801.544 Q96.3623 801.544 94.0475 801.104 Q91.7558 800.688 89.3021 799.831 L89.3021 795.317 Q91.2465 796.452 93.5613 797.03 Q95.8761 797.609 98.3993 797.609 Q102.797 797.609 105.089 795.873 Q107.404 794.137 107.404 790.827 Q107.404 787.771 105.251 786.058 Q103.121 784.322 99.3021 784.322 L95.2743 784.322 L95.2743 780.479 L99.4872 780.479 Q102.936 780.479 104.765 779.114 Q106.594 777.725 106.594 775.132 Q106.594 772.47 104.696 771.058 Q102.821 769.623 99.3021 769.623 Q97.3808 769.623 95.1817 770.04 Q92.9826 770.456 90.3438 771.336 L90.3438 767.169 Q93.0058 766.429 95.3206 766.058 Q97.6585 765.688 99.7187 765.688 Q105.043 765.688 108.145 768.118 Q111.246 770.526 111.246 774.646 Q111.246 777.517 109.603 779.507 Q107.959 781.475 104.927 782.239 Z" fill="#000000" fill-rule="evenodd" fill-opacity="1" /><path clip-path="url(#clip030)" d="M100.529 529.511 Q97.3808 529.511 95.5289 531.663 Q93.7002 533.816 93.7002 537.566 Q93.7002 541.293 95.5289 543.469 Q97.3808 545.622 100.529 545.622 Q103.677 545.622 105.506 543.469 Q107.358 541.293 107.358 537.566 Q107.358 533.816 105.506 531.663 Q103.677 529.511 100.529 529.511 M109.811 514.858 L109.811 519.117 Q108.052 518.284 106.246 517.844 Q104.464 517.404 102.705 517.404 Q98.0752 517.404 95.6215 520.529 Q93.191 523.654 92.8438 529.974 Q94.2095 527.96 96.2697 526.895 Q98.3298 525.807 100.807 525.807 Q106.015 525.807 109.024 528.978 Q112.057 532.126 112.057 537.566 Q112.057 542.89 108.908 546.108 Q105.76 549.325 100.529 549.325 Q94.5336 549.325 91.3623 544.742 Q88.191 540.136 88.191 531.409 Q88.191 523.214 92.0799 518.353 Q95.9687 513.469 102.52 513.469 Q104.279 513.469 106.061 513.816 Q107.867 514.163 109.811 514.858 Z" fill="#000000" fill-rule="evenodd" fill-opacity="1" /><path clip-path="url(#clip030)" d="M90.4364 295.717 L90.4364 291.458 Q92.1956 292.292 94.0012 292.731 Q95.8067 293.171 97.5428 293.171 Q102.172 293.171 104.603 290.069 Q107.057 286.944 107.404 280.602 Q106.061 282.593 104.001 283.657 Q101.941 284.722 99.4409 284.722 Q94.2558 284.722 91.2234 281.597 Q88.2141 278.449 88.2141 273.009 Q88.2141 267.685 91.3623 264.468 Q94.5104 261.25 99.7419 261.25 Q105.737 261.25 108.885 265.857 Q112.057 270.44 112.057 279.19 Q112.057 287.361 108.168 292.245 Q104.302 297.106 97.7511 297.106 Q95.9919 297.106 94.1863 296.759 Q92.3808 296.412 90.4364 295.717 M99.7419 281.065 Q102.89 281.065 104.719 278.912 Q106.571 276.759 106.571 273.009 Q106.571 269.282 104.719 267.13 Q102.89 264.954 99.7419 264.954 Q96.5937 264.954 94.7419 267.13 Q92.9132 269.282 92.9132 273.009 Q92.9132 276.759 94.7419 278.912 Q96.5937 281.065 99.7419 281.065 Z" fill="#000000" fill-rule="evenodd" fill-opacity="1" /><polyline clip-path="url(#clip032)" style="stroke:#009af9; stroke-linecap:round; stroke-linejoin:round; stroke-width:4; stroke-opacity:1; fill:none" points="
  210.454,730.84 231.463,695.71 252.472,866.472 273.481,980.94 294.49,972.186 315.499,1047.4 336.509,1132.68 357.518,1141.57 378.527,1287.42 399.536,1445.72 
  420.545,1230.83 441.554,985.313 462.563,1222.82 483.573,1382.91 504.582,915.175 525.591,636.968 546.6,1119.32 567.609,1340.67 588.618,746.635 609.627,485.709 
  630.637,1065.41 651.646,1299.09 672.655,742.183 693.664,537.942 714.673,1076.82 735.682,1334.26 756.691,957.344 777.701,794.086 798.71,1161.78 819.719,1392.75 
  840.728,1176.32 861.737,982.944 882.746,1092.73 903.755,1192.96 924.765,1049.22 945.774,877.412 966.783,890.525 987.792,972.603 1008.8,972.895 1029.81,953.803 
  1050.82,993.808 1071.83,1021.91 1092.84,981.787 1113.85,969.902 1134.86,1064.54 1155.87,1137.02 1176.87,1060.06 1197.88,1008.14 1218.89,1155.3 1239.9,1226.78 
  1260.91,976.951 1281.92,800.087 1302.93,1014.21 1323.94,1129.14 1344.95,831.018 1365.96,726.854 1386.97,1078.53 1407.97,1176.12 1428.98,860.407 1449.99,899.331 
  1471,1267.59 1492.01,1137.52 1513.02,732.532 1534.03,907.799 1555.04,1243.81 1576.05,908.03 1597.06,529.887 1618.07,911.262 1639.08,1241.07 1660.08,757.263 
  1681.09,403.093 1702.1,886.085 1723.11,1189.71 1744.12,684.909 1765.13,409.565 1786.14,887.469 1807.15,1081.43 1828.16,547.804 1849.17,256.522 1870.18,575.871 
  1891.19,678.902 1912.19,321.637 1933.2,201.279 1954.21,452.574 1975.22,498.803 1996.23,278.353 2017.24,235.103 2038.25,351.713 2059.26,281.053 2080.27,113.342 
  2101.28,154.464 2122.29,273.92 2143.29,191.527 2164.3,87.9763 2185.31,252.247 2206.32,457.357 2227.33,392.182 2248.34,316.685 2269.35,541.039 2290.36,774.418 
  
  "/>
<circle clip-path="url(#clip032)" cx="210.454" cy="730.84" r="7.2" fill="#009af9" fill-rule="evenodd" fill-opacity="1" stroke="#000000" stroke-opacity="1" stroke-width="3.2"/>
<circle clip-path="url(#clip032)" cx="231.463" cy="695.71" r="7.2" fill="#009af9" fill-rule="evenodd" fill-opacity="1" stroke="#000000" stroke-opacity="1" stroke-width="3.2"/>
<circle clip-path="url(#clip032)" cx="252.472" cy="866.472" r="7.2" fill="#009af9" fill-rule="evenodd" fill-opacity="1" stroke="#000000" stroke-opacity="1" stroke-width="3.2"/>
<circle clip-path="url(#clip032)" cx="273.481" cy="980.94" r="7.2" fill="#009af9" fill-rule="evenodd" fill-opacity="1" stroke="#000000" stroke-opacity="1" stroke-width="3.2"/>
<circle clip-path="url(#clip032)" cx="294.49" cy="972.186" r="7.2" fill="#009af9" fill-rule="evenodd" fill-opacity="1" stroke="#000000" stroke-opacity="1" stroke-width="3.2"/>
<circle clip-path="url(#clip032)" cx="315.499" cy="1047.4" r="7.2" fill="#009af9" fill-rule="evenodd" fill-opacity="1" stroke="#000000" stroke-opacity="1" stroke-width="3.2"/>
<circle clip-path="url(#clip032)" cx="336.509" cy="1132.68" r="7.2" fill="#009af9" fill-rule="evenodd" fill-opacity="1" stroke="#000000" stroke-opacity="1" stroke-width="3.2"/>
<circle clip-path="url(#clip032)" cx="357.518" cy="1141.57" r="7.2" fill="#009af9" fill-rule="evenodd" fill-opacity="1" stroke="#000000" stroke-opacity="1" stroke-width="3.2"/>
<circle clip-path="url(#clip032)" cx="378.527" cy="1287.42" r="7.2" fill="#009af9" fill-rule="evenodd" fill-opacity="1" stroke="#000000" stroke-opacity="1" stroke-width="3.2"/>
<circle clip-path="url(#clip032)" cx="399.536" cy="1445.72" r="7.2" fill="#009af9" fill-rule="evenodd" fill-opacity="1" stroke="#000000" stroke-opacity="1" stroke-width="3.2"/>
<circle clip-path="url(#clip032)" cx="420.545" cy="1230.83" r="7.2" fill="#009af9" fill-rule="evenodd" fill-opacity="1" stroke="#000000" stroke-opacity="1" stroke-width="3.2"/>
<circle clip-path="url(#clip032)" cx="441.554" cy="985.313" r="7.2" fill="#009af9" fill-rule="evenodd" fill-opacity="1" stroke="#000000" stroke-opacity="1" stroke-width="3.2"/>
<circle clip-path="url(#clip032)" cx="462.563" cy="1222.82" r="7.2" fill="#009af9" fill-rule="evenodd" fill-opacity="1" stroke="#000000" stroke-opacity="1" stroke-width="3.2"/>
<circle clip-path="url(#clip032)" cx="483.573" cy="1382.91" r="7.2" fill="#009af9" fill-rule="evenodd" fill-opacity="1" stroke="#000000" stroke-opacity="1" stroke-width="3.2"/>
<circle clip-path="url(#clip032)" cx="504.582" cy="915.175" r="7.2" fill="#009af9" fill-rule="evenodd" fill-opacity="1" stroke="#000000" stroke-opacity="1" stroke-width="3.2"/>
<circle clip-path="url(#clip032)" cx="525.591" cy="636.968" r="7.2" fill="#009af9" fill-rule="evenodd" fill-opacity="1" stroke="#000000" stroke-opacity="1" stroke-width="3.2"/>
<circle clip-path="url(#clip032)" cx="546.6" cy="1119.32" r="7.2" fill="#009af9" fill-rule="evenodd" fill-opacity="1" stroke="#000000" stroke-opacity="1" stroke-width="3.2"/>
<circle clip-path="url(#clip032)" cx="567.609" cy="1340.67" r="7.2" fill="#009af9" fill-rule="evenodd" fill-opacity="1" stroke="#000000" stroke-opacity="1" stroke-width="3.2"/>
<circle clip-path="url(#clip032)" cx="588.618" cy="746.635" r="7.2" fill="#009af9" fill-rule="evenodd" fill-opacity="1" stroke="#000000" stroke-opacity="1" stroke-width="3.2"/>
<circle clip-path="url(#clip032)" cx="609.627" cy="485.709" r="7.2" fill="#009af9" fill-rule="evenodd" fill-opacity="1" stroke="#000000" stroke-opacity="1" stroke-width="3.2"/>
<circle clip-path="url(#clip032)" cx="630.637" cy="1065.41" r="7.2" fill="#009af9" fill-rule="evenodd" fill-opacity="1" stroke="#000000" stroke-opacity="1" stroke-width="3.2"/>
<circle clip-path="url(#clip032)" cx="651.646" cy="1299.09" r="7.2" fill="#009af9" fill-rule="evenodd" fill-opacity="1" stroke="#000000" stroke-opacity="1" stroke-width="3.2"/>
<circle clip-path="url(#clip032)" cx="672.655" cy="742.183" r="7.2" fill="#009af9" fill-rule="evenodd" fill-opacity="1" stroke="#000000" stroke-opacity="1" stroke-width="3.2"/>
<circle clip-path="url(#clip032)" cx="693.664" cy="537.942" r="7.2" fill="#009af9" fill-rule="evenodd" fill-opacity="1" stroke="#000000" stroke-opacity="1" stroke-width="3.2"/>
<circle clip-path="url(#clip032)" cx="714.673" cy="1076.82" r="7.2" fill="#009af9" fill-rule="evenodd" fill-opacity="1" stroke="#000000" stroke-opacity="1" stroke-width="3.2"/>
<circle clip-path="url(#clip032)" cx="735.682" cy="1334.26" r="7.2" fill="#009af9" fill-rule="evenodd" fill-opacity="1" stroke="#000000" stroke-opacity="1" stroke-width="3.2"/>
<circle clip-path="url(#clip032)" cx="756.691" cy="957.344" r="7.2" fill="#009af9" fill-rule="evenodd" fill-opacity="1" stroke="#000000" stroke-opacity="1" stroke-width="3.2"/>
<circle clip-path="url(#clip032)" cx="777.701" cy="794.086" r="7.2" fill="#009af9" fill-rule="evenodd" fill-opacity="1" stroke="#000000" stroke-opacity="1" stroke-width="3.2"/>
<circle clip-path="url(#clip032)" cx="798.71" cy="1161.78" r="7.2" fill="#009af9" fill-rule="evenodd" fill-opacity="1" stroke="#000000" stroke-opacity="1" stroke-width="3.2"/>
<circle clip-path="url(#clip032)" cx="819.719" cy="1392.75" r="7.2" fill="#009af9" fill-rule="evenodd" fill-opacity="1" stroke="#000000" stroke-opacity="1" stroke-width="3.2"/>
<circle clip-path="url(#clip032)" cx="840.728" cy="1176.32" r="7.2" fill="#009af9" fill-rule="evenodd" fill-opacity="1" stroke="#000000" stroke-opacity="1" stroke-width="3.2"/>
<circle clip-path="url(#clip032)" cx="861.737" cy="982.944" r="7.2" fill="#009af9" fill-rule="evenodd" fill-opacity="1" stroke="#000000" stroke-opacity="1" stroke-width="3.2"/>
<circle clip-path="url(#clip032)" cx="882.746" cy="1092.73" r="7.2" fill="#009af9" fill-rule="evenodd" fill-opacity="1" stroke="#000000" stroke-opacity="1" stroke-width="3.2"/>
<circle clip-path="url(#clip032)" cx="903.755" cy="1192.96" r="7.2" fill="#009af9" fill-rule="evenodd" fill-opacity="1" stroke="#000000" stroke-opacity="1" stroke-width="3.2"/>
<circle clip-path="url(#clip032)" cx="924.765" cy="1049.22" r="7.2" fill="#009af9" fill-rule="evenodd" fill-opacity="1" stroke="#000000" stroke-opacity="1" stroke-width="3.2"/>
<circle clip-path="url(#clip032)" cx="945.774" cy="877.412" r="7.2" fill="#009af9" fill-rule="evenodd" fill-opacity="1" stroke="#000000" stroke-opacity="1" stroke-width="3.2"/>
<circle clip-path="url(#clip032)" cx="966.783" cy="890.525" r="7.2" fill="#009af9" fill-rule="evenodd" fill-opacity="1" stroke="#000000" stroke-opacity="1" stroke-width="3.2"/>
<circle clip-path="url(#clip032)" cx="987.792" cy="972.603" r="7.2" fill="#009af9" fill-rule="evenodd" fill-opacity="1" stroke="#000000" stroke-opacity="1" stroke-width="3.2"/>
<circle clip-path="url(#clip032)" cx="1008.8" cy="972.895" r="7.2" fill="#009af9" fill-rule="evenodd" fill-opacity="1" stroke="#000000" stroke-opacity="1" stroke-width="3.2"/>
<circle clip-path="url(#clip032)" cx="1029.81" cy="953.803" r="7.2" fill="#009af9" fill-rule="evenodd" fill-opacity="1" stroke="#000000" stroke-opacity="1" stroke-width="3.2"/>
<circle clip-path="url(#clip032)" cx="1050.82" cy="993.808" r="7.2" fill="#009af9" fill-rule="evenodd" fill-opacity="1" stroke="#000000" stroke-opacity="1" stroke-width="3.2"/>
<circle clip-path="url(#clip032)" cx="1071.83" cy="1021.91" r="7.2" fill="#009af9" fill-rule="evenodd" fill-opacity="1" stroke="#000000" stroke-opacity="1" stroke-width="3.2"/>
<circle clip-path="url(#clip032)" cx="1092.84" cy="981.787" r="7.2" fill="#009af9" fill-rule="evenodd" fill-opacity="1" stroke="#000000" stroke-opacity="1" stroke-width="3.2"/>
<circle clip-path="url(#clip032)" cx="1113.85" cy="969.902" r="7.2" fill="#009af9" fill-rule="evenodd" fill-opacity="1" stroke="#000000" stroke-opacity="1" stroke-width="3.2"/>
<circle clip-path="url(#clip032)" cx="1134.86" cy="1064.54" r="7.2" fill="#009af9" fill-rule="evenodd" fill-opacity="1" stroke="#000000" stroke-opacity="1" stroke-width="3.2"/>
<circle clip-path="url(#clip032)" cx="1155.87" cy="1137.02" r="7.2" fill="#009af9" fill-rule="evenodd" fill-opacity="1" stroke="#000000" stroke-opacity="1" stroke-width="3.2"/>
<circle clip-path="url(#clip032)" cx="1176.87" cy="1060.06" r="7.2" fill="#009af9" fill-rule="evenodd" fill-opacity="1" stroke="#000000" stroke-opacity="1" stroke-width="3.2"/>
<circle clip-path="url(#clip032)" cx="1197.88" cy="1008.14" r="7.2" fill="#009af9" fill-rule="evenodd" fill-opacity="1" stroke="#000000" stroke-opacity="1" stroke-width="3.2"/>
<circle clip-path="url(#clip032)" cx="1218.89" cy="1155.3" r="7.2" fill="#009af9" fill-rule="evenodd" fill-opacity="1" stroke="#000000" stroke-opacity="1" stroke-width="3.2"/>
<circle clip-path="url(#clip032)" cx="1239.9" cy="1226.78" r="7.2" fill="#009af9" fill-rule="evenodd" fill-opacity="1" stroke="#000000" stroke-opacity="1" stroke-width="3.2"/>
<circle clip-path="url(#clip032)" cx="1260.91" cy="976.951" r="7.2" fill="#009af9" fill-rule="evenodd" fill-opacity="1" stroke="#000000" stroke-opacity="1" stroke-width="3.2"/>
<circle clip-path="url(#clip032)" cx="1281.92" cy="800.087" r="7.2" fill="#009af9" fill-rule="evenodd" fill-opacity="1" stroke="#000000" stroke-opacity="1" stroke-width="3.2"/>
<circle clip-path="url(#clip032)" cx="1302.93" cy="1014.21" r="7.2" fill="#009af9" fill-rule="evenodd" fill-opacity="1" stroke="#000000" stroke-opacity="1" stroke-width="3.2"/>
<circle clip-path="url(#clip032)" cx="1323.94" cy="1129.14" r="7.2" fill="#009af9" fill-rule="evenodd" fill-opacity="1" stroke="#000000" stroke-opacity="1" stroke-width="3.2"/>
<circle clip-path="url(#clip032)" cx="1344.95" cy="831.018" r="7.2" fill="#009af9" fill-rule="evenodd" fill-opacity="1" stroke="#000000" stroke-opacity="1" stroke-width="3.2"/>
<circle clip-path="url(#clip032)" cx="1365.96" cy="726.854" r="7.2" fill="#009af9" fill-rule="evenodd" fill-opacity="1" stroke="#000000" stroke-opacity="1" stroke-width="3.2"/>
<circle clip-path="url(#clip032)" cx="1386.97" cy="1078.53" r="7.2" fill="#009af9" fill-rule="evenodd" fill-opacity="1" stroke="#000000" stroke-opacity="1" stroke-width="3.2"/>
<circle clip-path="url(#clip032)" cx="1407.97" cy="1176.12" r="7.2" fill="#009af9" fill-rule="evenodd" fill-opacity="1" stroke="#000000" stroke-opacity="1" stroke-width="3.2"/>
<circle clip-path="url(#clip032)" cx="1428.98" cy="860.407" r="7.2" fill="#009af9" fill-rule="evenodd" fill-opacity="1" stroke="#000000" stroke-opacity="1" stroke-width="3.2"/>
<circle clip-path="url(#clip032)" cx="1449.99" cy="899.331" r="7.2" fill="#009af9" fill-rule="evenodd" fill-opacity="1" stroke="#000000" stroke-opacity="1" stroke-width="3.2"/>
<circle clip-path="url(#clip032)" cx="1471" cy="1267.59" r="7.2" fill="#009af9" fill-rule="evenodd" fill-opacity="1" stroke="#000000" stroke-opacity="1" stroke-width="3.2"/>
<circle clip-path="url(#clip032)" cx="1492.01" cy="1137.52" r="7.2" fill="#009af9" fill-rule="evenodd" fill-opacity="1" stroke="#000000" stroke-opacity="1" stroke-width="3.2"/>
<circle clip-path="url(#clip032)" cx="1513.02" cy="732.532" r="7.2" fill="#009af9" fill-rule="evenodd" fill-opacity="1" stroke="#000000" stroke-opacity="1" stroke-width="3.2"/>
<circle clip-path="url(#clip032)" cx="1534.03" cy="907.799" r="7.2" fill="#009af9" fill-rule="evenodd" fill-opacity="1" stroke="#000000" stroke-opacity="1" stroke-width="3.2"/>
<circle clip-path="url(#clip032)" cx="1555.04" cy="1243.81" r="7.2" fill="#009af9" fill-rule="evenodd" fill-opacity="1" stroke="#000000" stroke-opacity="1" stroke-width="3.2"/>
<circle clip-path="url(#clip032)" cx="1576.05" cy="908.03" r="7.2" fill="#009af9" fill-rule="evenodd" fill-opacity="1" stroke="#000000" stroke-opacity="1" stroke-width="3.2"/>
<circle clip-path="url(#clip032)" cx="1597.06" cy="529.887" r="7.2" fill="#009af9" fill-rule="evenodd" fill-opacity="1" stroke="#000000" stroke-opacity="1" stroke-width="3.2"/>
<circle clip-path="url(#clip032)" cx="1618.07" cy="911.262" r="7.2" fill="#009af9" fill-rule="evenodd" fill-opacity="1" stroke="#000000" stroke-opacity="1" stroke-width="3.2"/>
<circle clip-path="url(#clip032)" cx="1639.08" cy="1241.07" r="7.2" fill="#009af9" fill-rule="evenodd" fill-opacity="1" stroke="#000000" stroke-opacity="1" stroke-width="3.2"/>
<circle clip-path="url(#clip032)" cx="1660.08" cy="757.263" r="7.2" fill="#009af9" fill-rule="evenodd" fill-opacity="1" stroke="#000000" stroke-opacity="1" stroke-width="3.2"/>
<circle clip-path="url(#clip032)" cx="1681.09" cy="403.093" r="7.2" fill="#009af9" fill-rule="evenodd" fill-opacity="1" stroke="#000000" stroke-opacity="1" stroke-width="3.2"/>
<circle clip-path="url(#clip032)" cx="1702.1" cy="886.085" r="7.2" fill="#009af9" fill-rule="evenodd" fill-opacity="1" stroke="#000000" stroke-opacity="1" stroke-width="3.2"/>
<circle clip-path="url(#clip032)" cx="1723.11" cy="1189.71" r="7.2" fill="#009af9" fill-rule="evenodd" fill-opacity="1" stroke="#000000" stroke-opacity="1" stroke-width="3.2"/>
<circle clip-path="url(#clip032)" cx="1744.12" cy="684.909" r="7.2" fill="#009af9" fill-rule="evenodd" fill-opacity="1" stroke="#000000" stroke-opacity="1" stroke-width="3.2"/>
<circle clip-path="url(#clip032)" cx="1765.13" cy="409.565" r="7.2" fill="#009af9" fill-rule="evenodd" fill-opacity="1" stroke="#000000" stroke-opacity="1" stroke-width="3.2"/>
<circle clip-path="url(#clip032)" cx="1786.14" cy="887.469" r="7.2" fill="#009af9" fill-rule="evenodd" fill-opacity="1" stroke="#000000" stroke-opacity="1" stroke-width="3.2"/>
<circle clip-path="url(#clip032)" cx="1807.15" cy="1081.43" r="7.2" fill="#009af9" fill-rule="evenodd" fill-opacity="1" stroke="#000000" stroke-opacity="1" stroke-width="3.2"/>
<circle clip-path="url(#clip032)" cx="1828.16" cy="547.804" r="7.2" fill="#009af9" fill-rule="evenodd" fill-opacity="1" stroke="#000000" stroke-opacity="1" stroke-width="3.2"/>
<circle clip-path="url(#clip032)" cx="1849.17" cy="256.522" r="7.2" fill="#009af9" fill-rule="evenodd" fill-opacity="1" stroke="#000000" stroke-opacity="1" stroke-width="3.2"/>
<circle clip-path="url(#clip032)" cx="1870.18" cy="575.871" r="7.2" fill="#009af9" fill-rule="evenodd" fill-opacity="1" stroke="#000000" stroke-opacity="1" stroke-width="3.2"/>
<circle clip-path="url(#clip032)" cx="1891.19" cy="678.902" r="7.2" fill="#009af9" fill-rule="evenodd" fill-opacity="1" stroke="#000000" stroke-opacity="1" stroke-width="3.2"/>
<circle clip-path="url(#clip032)" cx="1912.19" cy="321.637" r="7.2" fill="#009af9" fill-rule="evenodd" fill-opacity="1" stroke="#000000" stroke-opacity="1" stroke-width="3.2"/>
<circle clip-path="url(#clip032)" cx="1933.2" cy="201.279" r="7.2" fill="#009af9" fill-rule="evenodd" fill-opacity="1" stroke="#000000" stroke-opacity="1" stroke-width="3.2"/>
<circle clip-path="url(#clip032)" cx="1954.21" cy="452.574" r="7.2" fill="#009af9" fill-rule="evenodd" fill-opacity="1" stroke="#000000" stroke-opacity="1" stroke-width="3.2"/>
<circle clip-path="url(#clip032)" cx="1975.22" cy="498.803" r="7.2" fill="#009af9" fill-rule="evenodd" fill-opacity="1" stroke="#000000" stroke-opacity="1" stroke-width="3.2"/>
<circle clip-path="url(#clip032)" cx="1996.23" cy="278.353" r="7.2" fill="#009af9" fill-rule="evenodd" fill-opacity="1" stroke="#000000" stroke-opacity="1" stroke-width="3.2"/>
<circle clip-path="url(#clip032)" cx="2017.24" cy="235.103" r="7.2" fill="#009af9" fill-rule="evenodd" fill-opacity="1" stroke="#000000" stroke-opacity="1" stroke-width="3.2"/>
<circle clip-path="url(#clip032)" cx="2038.25" cy="351.713" r="7.2" fill="#009af9" fill-rule="evenodd" fill-opacity="1" stroke="#000000" stroke-opacity="1" stroke-width="3.2"/>
<circle clip-path="url(#clip032)" cx="2059.26" cy="281.053" r="7.2" fill="#009af9" fill-rule="evenodd" fill-opacity="1" stroke="#000000" stroke-opacity="1" stroke-width="3.2"/>
<circle clip-path="url(#clip032)" cx="2080.27" cy="113.342" r="7.2" fill="#009af9" fill-rule="evenodd" fill-opacity="1" stroke="#000000" stroke-opacity="1" stroke-width="3.2"/>
<circle clip-path="url(#clip032)" cx="2101.28" cy="154.464" r="7.2" fill="#009af9" fill-rule="evenodd" fill-opacity="1" stroke="#000000" stroke-opacity="1" stroke-width="3.2"/>
<circle clip-path="url(#clip032)" cx="2122.29" cy="273.92" r="7.2" fill="#009af9" fill-rule="evenodd" fill-opacity="1" stroke="#000000" stroke-opacity="1" stroke-width="3.2"/>
<circle clip-path="url(#clip032)" cx="2143.29" cy="191.527" r="7.2" fill="#009af9" fill-rule="evenodd" fill-opacity="1" stroke="#000000" stroke-opacity="1" stroke-width="3.2"/>
<circle clip-path="url(#clip032)" cx="2164.3" cy="87.9763" r="7.2" fill="#009af9" fill-rule="evenodd" fill-opacity="1" stroke="#000000" stroke-opacity="1" stroke-width="3.2"/>
<circle clip-path="url(#clip032)" cx="2185.31" cy="252.247" r="7.2" fill="#009af9" fill-rule="evenodd" fill-opacity="1" stroke="#000000" stroke-opacity="1" stroke-width="3.2"/>
<circle clip-path="url(#clip032)" cx="2206.32" cy="457.357" r="7.2" fill="#009af9" fill-rule="evenodd" fill-opacity="1" stroke="#000000" stroke-opacity="1" stroke-width="3.2"/>
<circle clip-path="url(#clip032)" cx="2227.33" cy="392.182" r="7.2" fill="#009af9" fill-rule="evenodd" fill-opacity="1" stroke="#000000" stroke-opacity="1" stroke-width="3.2"/>
<circle clip-path="url(#clip032)" cx="2248.34" cy="316.685" r="7.2" fill="#009af9" fill-rule="evenodd" fill-opacity="1" stroke="#000000" stroke-opacity="1" stroke-width="3.2"/>
<circle clip-path="url(#clip032)" cx="2269.35" cy="541.039" r="7.2" fill="#009af9" fill-rule="evenodd" fill-opacity="1" stroke="#000000" stroke-opacity="1" stroke-width="3.2"/>
<circle clip-path="url(#clip032)" cx="2290.36" cy="774.418" r="7.2" fill="#009af9" fill-rule="evenodd" fill-opacity="1" stroke="#000000" stroke-opacity="1" stroke-width="3.2"/>
<path clip-path="url(#clip030)" d="
M1981.87 198.898 L2279.27 198.898 L2279.27 95.2176 L1981.87 95.2176  Z
  " fill="#ffffff" fill-rule="evenodd" fill-opacity="1"/>
<polyline clip-path="url(#clip030)" style="stroke:#000000; stroke-linecap:round; stroke-linejoin:round; stroke-width:4; stroke-opacity:1; fill:none" points="
  1981.87,198.898 2279.27,198.898 2279.27,95.2176 1981.87,95.2176 1981.87,198.898 
  "/>
<polyline clip-path="url(#clip030)" style="stroke:#009af9; stroke-linecap:round; stroke-linejoin:round; stroke-width:4; stroke-opacity:1; fill:none" points="
  2006.37,147.058 2153.35,147.058 
  "/>
<circle clip-path="url(#clip030)" cx="2079.86" cy="147.058" r="20.4139" fill="#009af9" fill-rule="evenodd" fill-opacity="1" stroke="#000000" stroke-opacity="1" stroke-width="10.24"/>
<path clip-path="url(#clip030)" d="M2191.68 166.745 Q2189.88 171.375 2188.17 172.787 Q2186.45 174.199 2183.58 174.199 L2180.18 174.199 L2180.18 170.634 L2182.68 170.634 Q2184.44 170.634 2185.41 169.8 Q2186.38 168.967 2187.56 165.865 L2188.33 163.921 L2177.84 138.412 L2182.36 138.412 L2190.46 158.689 L2198.56 138.412 L2203.07 138.412 L2191.68 166.745 Z" fill="#000000" fill-rule="evenodd" fill-opacity="1" /><path clip-path="url(#clip030)" d="M2210.37 160.402 L2218 160.402 L2218 134.037 L2209.69 135.703 L2209.69 131.444 L2217.96 129.778 L2222.63 129.778 L2222.63 160.402 L2230.27 160.402 L2230.27 164.338 L2210.37 164.338 L2210.37 160.402 Z" fill="#000000" fill-rule="evenodd" fill-opacity="1" /></svg>
