<?xml version="1.0" encoding="utf-8"?>
<svg xmlns="http://www.w3.org/2000/svg" xmlns:xlink="http://www.w3.org/1999/xlink" width="600" height="400" viewBox="0 0 2400 1600">
<defs>
  <clipPath id="clip750">
    <rect x="0" y="0" width="2400" height="1600"/>
  </clipPath>
</defs>
<path clip-path="url(#clip750)" d="
M0 1600 L2400 1600 L2400 0 L0 0  Z
  " fill="#ffffff" fill-rule="evenodd" fill-opacity="1"/>
<defs>
  <clipPath id="clip751">
    <rect x="480" y="0" width="1681" height="1600"/>
  </clipPath>
</defs>
<path clip-path="url(#clip750)" d="
M186.274 1486.45 L2352.76 1486.45 L2352.76 47.2441 L186.274 47.2441  Z
  " fill="#ffffff" fill-rule="evenodd" fill-opacity="1"/>
<defs>
  <clipPath id="clip752">
    <rect x="186" y="47" width="2167" height="1440"/>
  </clipPath>
</defs>
<polyline clip-path="url(#clip752)" style="stroke:#000000; stroke-linecap:round; stroke-linejoin:round; stroke-width:2; stroke-opacity:0.1; fill:none" points="
  247.59,1486.45 247.59,47.2441 
  "/>
<polyline clip-path="url(#clip752)" style="stroke:#000000; stroke-linecap:round; stroke-linejoin:round; stroke-width:2; stroke-opacity:0.1; fill:none" points="
  758.552,1486.45 758.552,47.2441 
  "/>
<polyline clip-path="url(#clip752)" style="stroke:#000000; stroke-linecap:round; stroke-linejoin:round; stroke-width:2; stroke-opacity:0.1; fill:none" points="
  1269.51,1486.45 1269.51,47.2441 
  "/>
<polyline clip-path="url(#clip752)" style="stroke:#000000; stroke-linecap:round; stroke-linejoin:round; stroke-width:2; stroke-opacity:0.1; fill:none" points="
  1780.48,1486.45 1780.48,47.2441 
  "/>
<polyline clip-path="url(#clip752)" style="stroke:#000000; stroke-linecap:round; stroke-linejoin:round; stroke-width:2; stroke-opacity:0.1; fill:none" points="
  2291.44,1486.45 2291.44,47.2441 
  "/>
<polyline clip-path="url(#clip750)" style="stroke:#000000; stroke-linecap:round; stroke-linejoin:round; stroke-width:4; stroke-opacity:1; fill:none" points="
  186.274,1486.45 2352.76,1486.45 
  "/>
<polyline clip-path="url(#clip750)" style="stroke:#000000; stroke-linecap:round; stroke-linejoin:round; stroke-width:4; stroke-opacity:1; fill:none" points="
  247.59,1486.45 247.59,1467.55 
  "/>
<polyline clip-path="url(#clip750)" style="stroke:#000000; stroke-linecap:round; stroke-linejoin:round; stroke-width:4; stroke-opacity:1; fill:none" points="
  758.552,1486.45 758.552,1467.55 
  "/>
<polyline clip-path="url(#clip750)" style="stroke:#000000; stroke-linecap:round; stroke-linejoin:round; stroke-width:4; stroke-opacity:1; fill:none" points="
  1269.51,1486.45 1269.51,1467.55 
  "/>
<polyline clip-path="url(#clip750)" style="stroke:#000000; stroke-linecap:round; stroke-linejoin:round; stroke-width:4; stroke-opacity:1; fill:none" points="
  1780.48,1486.45 1780.48,1467.55 
  "/>
<polyline clip-path="url(#clip750)" style="stroke:#000000; stroke-linecap:round; stroke-linejoin:round; stroke-width:4; stroke-opacity:1; fill:none" points="
  2291.44,1486.45 2291.44,1467.55 
  "/>
<path clip-path="url(#clip750)" d="M194.118 1532.02 L223.793 1532.02 L223.793 1535.95 L194.118 1535.95 L194.118 1532.02 Z" fill="#000000" fill-rule="evenodd" fill-opacity="1" /><path clip-path="url(#clip750)" d="M234.696 1544.91 L242.335 1544.91 L242.335 1518.55 L234.025 1520.21 L234.025 1515.95 L242.289 1514.29 L246.965 1514.29 L246.965 1544.91 L254.603 1544.91 L254.603 1548.85 L234.696 1548.85 L234.696 1544.91 Z" fill="#000000" fill-rule="evenodd" fill-opacity="1" /><path clip-path="url(#clip750)" d="M264.048 1542.97 L268.932 1542.97 L268.932 1548.85 L264.048 1548.85 L264.048 1542.97 Z" fill="#000000" fill-rule="evenodd" fill-opacity="1" /><path clip-path="url(#clip750)" d="M289.117 1517.37 Q285.506 1517.37 283.677 1520.93 Q281.872 1524.47 281.872 1531.6 Q281.872 1538.71 283.677 1542.27 Q285.506 1545.82 289.117 1545.82 Q292.751 1545.82 294.557 1542.27 Q296.386 1538.71 296.386 1531.6 Q296.386 1524.47 294.557 1520.93 Q292.751 1517.37 289.117 1517.37 M289.117 1513.66 Q294.927 1513.66 297.983 1518.27 Q301.061 1522.85 301.061 1531.6 Q301.061 1540.33 297.983 1544.94 Q294.927 1549.52 289.117 1549.52 Q283.307 1549.52 280.228 1544.94 Q277.173 1540.33 277.173 1531.6 Q277.173 1522.85 280.228 1518.27 Q283.307 1513.66 289.117 1513.66 Z" fill="#000000" fill-rule="evenodd" fill-opacity="1" /><path clip-path="url(#clip750)" d="M705.578 1532.02 L735.254 1532.02 L735.254 1535.95 L705.578 1535.95 L705.578 1532.02 Z" fill="#000000" fill-rule="evenodd" fill-opacity="1" /><path clip-path="url(#clip750)" d="M755.346 1517.37 Q751.735 1517.37 749.906 1520.93 Q748.101 1524.47 748.101 1531.6 Q748.101 1538.71 749.906 1542.27 Q751.735 1545.82 755.346 1545.82 Q758.98 1545.82 760.786 1542.27 Q762.615 1538.71 762.615 1531.6 Q762.615 1524.47 760.786 1520.93 Q758.98 1517.37 755.346 1517.37 M755.346 1513.66 Q761.156 1513.66 764.212 1518.27 Q767.291 1522.85 767.291 1531.6 Q767.291 1540.33 764.212 1544.94 Q761.156 1549.52 755.346 1549.52 Q749.536 1549.52 746.457 1544.94 Q743.402 1540.33 743.402 1531.6 Q743.402 1522.85 746.457 1518.27 Q749.536 1513.66 755.346 1513.66 Z" fill="#000000" fill-rule="evenodd" fill-opacity="1" /><path clip-path="url(#clip750)" d="M775.508 1542.97 L780.392 1542.97 L780.392 1548.85 L775.508 1548.85 L775.508 1542.97 Z" fill="#000000" fill-rule="evenodd" fill-opacity="1" /><path clip-path="url(#clip750)" d="M790.624 1514.29 L808.98 1514.29 L808.98 1518.22 L794.906 1518.22 L794.906 1526.7 Q795.925 1526.35 796.943 1526.19 Q797.962 1526 798.98 1526 Q804.767 1526 808.147 1529.17 Q811.526 1532.34 811.526 1537.76 Q811.526 1543.34 808.054 1546.44 Q804.582 1549.52 798.263 1549.52 Q796.087 1549.52 793.818 1549.15 Q791.573 1548.78 789.166 1548.04 L789.166 1543.34 Q791.249 1544.47 793.471 1545.03 Q795.693 1545.58 798.17 1545.58 Q802.175 1545.58 804.513 1543.48 Q806.851 1541.37 806.851 1537.76 Q806.851 1534.15 804.513 1532.04 Q802.175 1529.94 798.17 1529.94 Q796.295 1529.94 794.42 1530.35 Q792.568 1530.77 790.624 1531.65 L790.624 1514.29 Z" fill="#000000" fill-rule="evenodd" fill-opacity="1" /><path clip-path="url(#clip750)" d="M1246.9 1517.37 Q1243.29 1517.37 1241.46 1520.93 Q1239.65 1524.47 1239.65 1531.6 Q1239.65 1538.71 1241.46 1542.27 Q1243.29 1545.82 1246.9 1545.82 Q1250.53 1545.82 1252.34 1542.27 Q1254.17 1538.71 1254.17 1531.6 Q1254.17 1524.47 1252.34 1520.93 Q1250.53 1517.37 1246.9 1517.37 M1246.9 1513.66 Q1252.71 1513.66 1255.77 1518.27 Q1258.84 1522.85 1258.84 1531.6 Q1258.84 1540.33 1255.77 1544.94 Q1252.71 1549.52 1246.9 1549.52 Q1241.09 1549.52 1238.01 1544.94 Q1234.95 1540.33 1234.95 1531.6 Q1234.95 1522.85 1238.01 1518.27 Q1241.09 1513.66 1246.9 1513.66 Z" fill="#000000" fill-rule="evenodd" fill-opacity="1" /><path clip-path="url(#clip750)" d="M1267.06 1542.97 L1271.95 1542.97 L1271.95 1548.85 L1267.06 1548.85 L1267.06 1542.97 Z" fill="#000000" fill-rule="evenodd" fill-opacity="1" /><path clip-path="url(#clip750)" d="M1292.13 1517.37 Q1288.52 1517.37 1286.69 1520.93 Q1284.89 1524.47 1284.89 1531.6 Q1284.89 1538.71 1286.69 1542.27 Q1288.52 1545.82 1292.13 1545.82 Q1295.76 1545.82 1297.57 1542.27 Q1299.4 1538.71 1299.4 1531.6 Q1299.4 1524.47 1297.57 1520.93 Q1295.76 1517.37 1292.13 1517.37 M1292.13 1513.66 Q1297.94 1513.66 1301 1518.27 Q1304.07 1522.85 1304.07 1531.6 Q1304.07 1540.33 1301 1544.94 Q1297.94 1549.52 1292.13 1549.52 Q1286.32 1549.52 1283.24 1544.94 Q1280.19 1540.33 1280.19 1531.6 Q1280.19 1522.85 1283.24 1518.27 Q1286.32 1513.66 1292.13 1513.66 Z" fill="#000000" fill-rule="evenodd" fill-opacity="1" /><path clip-path="url(#clip750)" d="M1758.36 1517.37 Q1754.75 1517.37 1752.92 1520.93 Q1751.11 1524.47 1751.11 1531.6 Q1751.11 1538.71 1752.92 1542.27 Q1754.75 1545.82 1758.36 1545.82 Q1761.99 1545.82 1763.8 1542.27 Q1765.63 1538.71 1765.63 1531.6 Q1765.63 1524.47 1763.8 1520.93 Q1761.99 1517.37 1758.36 1517.37 M1758.36 1513.66 Q1764.17 1513.66 1767.23 1518.27 Q1770.3 1522.85 1770.3 1531.6 Q1770.3 1540.33 1767.23 1544.94 Q1764.17 1549.52 1758.36 1549.52 Q1752.55 1549.52 1749.47 1544.94 Q1746.42 1540.33 1746.42 1531.6 Q1746.42 1522.85 1749.47 1518.27 Q1752.55 1513.66 1758.36 1513.66 Z" fill="#000000" fill-rule="evenodd" fill-opacity="1" /><path clip-path="url(#clip750)" d="M1778.52 1542.97 L1783.41 1542.97 L1783.41 1548.85 L1778.52 1548.85 L1778.52 1542.97 Z" fill="#000000" fill-rule="evenodd" fill-opacity="1" /><path clip-path="url(#clip750)" d="M1793.64 1514.29 L1811.99 1514.29 L1811.99 1518.22 L1797.92 1518.22 L1797.92 1526.7 Q1798.94 1526.35 1799.96 1526.19 Q1800.98 1526 1801.99 1526 Q1807.78 1526 1811.16 1529.17 Q1814.54 1532.34 1814.54 1537.76 Q1814.54 1543.34 1811.07 1546.44 Q1807.6 1549.52 1801.28 1549.52 Q1799.1 1549.52 1796.83 1549.15 Q1794.59 1548.78 1792.18 1548.04 L1792.18 1543.34 Q1794.26 1544.47 1796.48 1545.03 Q1798.71 1545.58 1801.18 1545.58 Q1805.19 1545.58 1807.53 1543.48 Q1809.86 1541.37 1809.86 1537.76 Q1809.86 1534.15 1807.53 1532.04 Q1805.19 1529.94 1801.18 1529.94 Q1799.31 1529.94 1797.43 1530.35 Q1795.58 1530.77 1793.64 1531.65 L1793.64 1514.29 Z" fill="#000000" fill-rule="evenodd" fill-opacity="1" /><path clip-path="url(#clip750)" d="M2258.59 1544.91 L2266.23 1544.91 L2266.23 1518.55 L2257.92 1520.21 L2257.92 1515.95 L2266.19 1514.29 L2270.86 1514.29 L2270.86 1544.91 L2278.5 1544.91 L2278.5 1548.85 L2258.59 1548.85 L2258.59 1544.91 Z" fill="#000000" fill-rule="evenodd" fill-opacity="1" /><path clip-path="url(#clip750)" d="M2287.95 1542.97 L2292.83 1542.97 L2292.83 1548.85 L2287.95 1548.85 L2287.95 1542.97 Z" fill="#000000" fill-rule="evenodd" fill-opacity="1" /><path clip-path="url(#clip750)" d="M2313.01 1517.37 Q2309.4 1517.37 2307.57 1520.93 Q2305.77 1524.47 2305.77 1531.6 Q2305.77 1538.71 2307.57 1542.27 Q2309.4 1545.82 2313.01 1545.82 Q2316.65 1545.82 2318.45 1542.27 Q2320.28 1538.71 2320.28 1531.6 Q2320.28 1524.47 2318.45 1520.93 Q2316.65 1517.37 2313.01 1517.37 M2313.01 1513.66 Q2318.82 1513.66 2321.88 1518.27 Q2324.96 1522.85 2324.96 1531.6 Q2324.96 1540.33 2321.88 1544.94 Q2318.82 1549.52 2313.01 1549.52 Q2307.2 1549.52 2304.13 1544.94 Q2301.07 1540.33 2301.07 1531.6 Q2301.07 1522.85 2304.13 1518.27 Q2307.2 1513.66 2313.01 1513.66 Z" fill="#000000" fill-rule="evenodd" fill-opacity="1" /><polyline clip-path="url(#clip752)" style="stroke:#000000; stroke-linecap:round; stroke-linejoin:round; stroke-width:2; stroke-opacity:0.1; fill:none" points="
  186.274,1277.81 2352.76,1277.81 
  "/>
<polyline clip-path="url(#clip752)" style="stroke:#000000; stroke-linecap:round; stroke-linejoin:round; stroke-width:2; stroke-opacity:0.1; fill:none" points="
  186.274,1022.33 2352.76,1022.33 
  "/>
<polyline clip-path="url(#clip752)" style="stroke:#000000; stroke-linecap:round; stroke-linejoin:round; stroke-width:2; stroke-opacity:0.1; fill:none" points="
  186.274,766.846 2352.76,766.846 
  "/>
<polyline clip-path="url(#clip752)" style="stroke:#000000; stroke-linecap:round; stroke-linejoin:round; stroke-width:2; stroke-opacity:0.1; fill:none" points="
  186.274,511.365 2352.76,511.365 
  "/>
<polyline clip-path="url(#clip752)" style="stroke:#000000; stroke-linecap:round; stroke-linejoin:round; stroke-width:2; stroke-opacity:0.1; fill:none" points="
  186.274,255.883 2352.76,255.883 
  "/>
<polyline clip-path="url(#clip750)" style="stroke:#000000; stroke-linecap:round; stroke-linejoin:round; stroke-width:4; stroke-opacity:1; fill:none" points="
  186.274,1486.45 186.274,47.2441 
  "/>
<polyline clip-path="url(#clip750)" style="stroke:#000000; stroke-linecap:round; stroke-linejoin:round; stroke-width:4; stroke-opacity:1; fill:none" points="
  186.274,1277.81 205.172,1277.81 
  "/>
<polyline clip-path="url(#clip750)" style="stroke:#000000; stroke-linecap:round; stroke-linejoin:round; stroke-width:4; stroke-opacity:1; fill:none" points="
  186.274,1022.33 205.172,1022.33 
  "/>
<polyline clip-path="url(#clip750)" style="stroke:#000000; stroke-linecap:round; stroke-linejoin:round; stroke-width:4; stroke-opacity:1; fill:none" points="
  186.274,766.846 205.172,766.846 
  "/>
<polyline clip-path="url(#clip750)" style="stroke:#000000; stroke-linecap:round; stroke-linejoin:round; stroke-width:4; stroke-opacity:1; fill:none" points="
  186.274,511.365 205.172,511.365 
  "/>
<polyline clip-path="url(#clip750)" style="stroke:#000000; stroke-linecap:round; stroke-linejoin:round; stroke-width:4; stroke-opacity:1; fill:none" points="
  186.274,255.883 205.172,255.883 
  "/>
<path clip-path="url(#clip750)" d="M62.9365 1263.61 Q59.3254 1263.61 57.4967 1267.17 Q55.6912 1270.71 55.6912 1277.84 Q55.6912 1284.95 57.4967 1288.51 Q59.3254 1292.06 62.9365 1292.06 Q66.5707 1292.06 68.3763 1288.51 Q70.205 1284.95 70.205 1277.84 Q70.205 1270.71 68.3763 1267.17 Q66.5707 1263.61 62.9365 1263.61 M62.9365 1259.9 Q68.7467 1259.9 71.8022 1264.51 Q74.8809 1269.09 74.8809 1277.84 Q74.8809 1286.57 71.8022 1291.18 Q68.7467 1295.76 62.9365 1295.76 Q57.1264 1295.76 54.0477 1291.18 Q50.9921 1286.57 50.9921 1277.84 Q50.9921 1269.09 54.0477 1264.51 Q57.1264 1259.9 62.9365 1259.9 Z" fill="#000000" fill-rule="evenodd" fill-opacity="1" /><path clip-path="url(#clip750)" d="M83.0984 1289.21 L87.9827 1289.21 L87.9827 1295.09 L83.0984 1295.09 L83.0984 1289.21 Z" fill="#000000" fill-rule="evenodd" fill-opacity="1" /><path clip-path="url(#clip750)" d="M108.168 1263.61 Q104.557 1263.61 102.728 1267.17 Q100.922 1270.71 100.922 1277.84 Q100.922 1284.95 102.728 1288.51 Q104.557 1292.06 108.168 1292.06 Q111.802 1292.06 113.608 1288.51 Q115.436 1284.95 115.436 1277.84 Q115.436 1270.71 113.608 1267.17 Q111.802 1263.61 108.168 1263.61 M108.168 1259.9 Q113.978 1259.9 117.033 1264.51 Q120.112 1269.09 120.112 1277.84 Q120.112 1286.57 117.033 1291.18 Q113.978 1295.76 108.168 1295.76 Q102.358 1295.76 99.2789 1291.18 Q96.2234 1286.57 96.2234 1277.84 Q96.2234 1269.09 99.2789 1264.51 Q102.358 1259.9 108.168 1259.9 Z" fill="#000000" fill-rule="evenodd" fill-opacity="1" /><path clip-path="url(#clip750)" d="M138.33 1263.61 Q134.719 1263.61 132.89 1267.17 Q131.084 1270.71 131.084 1277.84 Q131.084 1284.95 132.89 1288.51 Q134.719 1292.06 138.33 1292.06 Q141.964 1292.06 143.769 1288.51 Q145.598 1284.95 145.598 1277.84 Q145.598 1270.71 143.769 1267.17 Q141.964 1263.61 138.33 1263.61 M138.33 1259.9 Q144.14 1259.9 147.195 1264.51 Q150.274 1269.09 150.274 1277.84 Q150.274 1286.57 147.195 1291.18 Q144.14 1295.76 138.33 1295.76 Q132.519 1295.76 129.441 1291.18 Q126.385 1286.57 126.385 1277.84 Q126.385 1269.09 129.441 1264.51 Q132.519 1259.9 138.33 1259.9 Z" fill="#000000" fill-rule="evenodd" fill-opacity="1" /><path clip-path="url(#clip750)" d="M63.9319 1008.13 Q60.3208 1008.13 58.4921 1011.69 Q56.6865 1015.23 56.6865 1022.36 Q56.6865 1029.47 58.4921 1033.03 Q60.3208 1036.57 63.9319 1036.57 Q67.5661 1036.57 69.3717 1033.03 Q71.2004 1029.47 71.2004 1022.36 Q71.2004 1015.23 69.3717 1011.69 Q67.5661 1008.13 63.9319 1008.13 M63.9319 1004.42 Q69.742 1004.42 72.7976 1009.03 Q75.8763 1013.61 75.8763 1022.36 Q75.8763 1031.09 72.7976 1035.7 Q69.742 1040.28 63.9319 1040.28 Q58.1217 1040.28 55.043 1035.7 Q51.9875 1031.09 51.9875 1022.36 Q51.9875 1013.61 55.043 1009.03 Q58.1217 1004.42 63.9319 1004.42 Z" fill="#000000" fill-rule="evenodd" fill-opacity="1" /><path clip-path="url(#clip750)" d="M84.0938 1033.73 L88.978 1033.73 L88.978 1039.61 L84.0938 1039.61 L84.0938 1033.73 Z" fill="#000000" fill-rule="evenodd" fill-opacity="1" /><path clip-path="url(#clip750)" d="M103.191 1035.67 L119.51 1035.67 L119.51 1039.61 L97.566 1039.61 L97.566 1035.67 Q100.228 1032.92 104.811 1028.29 Q109.418 1023.64 110.598 1022.29 Q112.844 1019.77 113.723 1018.03 Q114.626 1016.27 114.626 1014.58 Q114.626 1011.83 112.682 1010.09 Q110.76 1008.36 107.658 1008.36 Q105.459 1008.36 103.006 1009.12 Q100.575 1009.89 97.7974 1011.44 L97.7974 1006.71 Q100.621 1005.58 103.075 1005 Q105.529 1004.42 107.566 1004.42 Q112.936 1004.42 116.131 1007.11 Q119.325 1009.79 119.325 1014.28 Q119.325 1016.41 118.515 1018.33 Q117.728 1020.23 115.621 1022.83 Q115.043 1023.5 111.941 1026.71 Q108.839 1029.91 103.191 1035.67 Z" fill="#000000" fill-rule="evenodd" fill-opacity="1" /><path clip-path="url(#clip750)" d="M129.371 1005.05 L147.728 1005.05 L147.728 1008.98 L133.654 1008.98 L133.654 1017.45 Q134.672 1017.11 135.691 1016.95 Q136.709 1016.76 137.728 1016.76 Q143.515 1016.76 146.894 1019.93 Q150.274 1023.1 150.274 1028.52 Q150.274 1034.1 146.802 1037.2 Q143.33 1040.28 137.01 1040.28 Q134.834 1040.28 132.566 1039.91 Q130.32 1039.54 127.913 1038.8 L127.913 1034.1 Q129.996 1035.23 132.219 1035.79 Q134.441 1036.34 136.918 1036.34 Q140.922 1036.34 143.26 1034.24 Q145.598 1032.13 145.598 1028.52 Q145.598 1024.91 143.26 1022.8 Q140.922 1020.7 136.918 1020.7 Q135.043 1020.7 133.168 1021.11 Q131.316 1021.53 129.371 1022.41 L129.371 1005.05 Z" fill="#000000" fill-rule="evenodd" fill-opacity="1" /><path clip-path="url(#clip750)" d="M62.9365 752.645 Q59.3254 752.645 57.4967 756.209 Q55.6912 759.751 55.6912 766.881 Q55.6912 773.987 57.4967 777.552 Q59.3254 781.094 62.9365 781.094 Q66.5707 781.094 68.3763 777.552 Q70.205 773.987 70.205 766.881 Q70.205 759.751 68.3763 756.209 Q66.5707 752.645 62.9365 752.645 M62.9365 748.941 Q68.7467 748.941 71.8022 753.547 Q74.8809 758.131 74.8809 766.881 Q74.8809 775.608 71.8022 780.214 Q68.7467 784.797 62.9365 784.797 Q57.1264 784.797 54.0477 780.214 Q50.9921 775.608 50.9921 766.881 Q50.9921 758.131 54.0477 753.547 Q57.1264 748.941 62.9365 748.941 Z" fill="#000000" fill-rule="evenodd" fill-opacity="1" /><path clip-path="url(#clip750)" d="M83.0984 778.246 L87.9827 778.246 L87.9827 784.126 L83.0984 784.126 L83.0984 778.246 Z" fill="#000000" fill-rule="evenodd" fill-opacity="1" /><path clip-path="url(#clip750)" d="M98.2141 749.566 L116.57 749.566 L116.57 753.501 L102.496 753.501 L102.496 761.973 Q103.515 761.626 104.534 761.464 Q105.552 761.279 106.571 761.279 Q112.358 761.279 115.737 764.45 Q119.117 767.621 119.117 773.038 Q119.117 778.617 115.645 781.719 Q112.172 784.797 105.853 784.797 Q103.677 784.797 101.409 784.427 Q99.1632 784.057 96.7558 783.316 L96.7558 778.617 Q98.8391 779.751 101.061 780.307 Q103.284 780.862 105.76 780.862 Q109.765 780.862 112.103 778.756 Q114.441 776.649 114.441 773.038 Q114.441 769.427 112.103 767.321 Q109.765 765.214 105.76 765.214 Q103.885 765.214 102.01 765.631 Q100.159 766.047 98.2141 766.927 L98.2141 749.566 Z" fill="#000000" fill-rule="evenodd" fill-opacity="1" /><path clip-path="url(#clip750)" d="M138.33 752.645 Q134.719 752.645 132.89 756.209 Q131.084 759.751 131.084 766.881 Q131.084 773.987 132.89 777.552 Q134.719 781.094 138.33 781.094 Q141.964 781.094 143.769 777.552 Q145.598 773.987 145.598 766.881 Q145.598 759.751 143.769 756.209 Q141.964 752.645 138.33 752.645 M138.33 748.941 Q144.14 748.941 147.195 753.547 Q150.274 758.131 150.274 766.881 Q150.274 775.608 147.195 780.214 Q144.14 784.797 138.33 784.797 Q132.519 784.797 129.441 780.214 Q126.385 775.608 126.385 766.881 Q126.385 758.131 129.441 753.547 Q132.519 748.941 138.33 748.941 Z" fill="#000000" fill-rule="evenodd" fill-opacity="1" /><path clip-path="url(#clip750)" d="M63.9319 497.163 Q60.3208 497.163 58.4921 500.728 Q56.6865 504.27 56.6865 511.399 Q56.6865 518.506 58.4921 522.071 Q60.3208 525.612 63.9319 525.612 Q67.5661 525.612 69.3717 522.071 Q71.2004 518.506 71.2004 511.399 Q71.2004 504.27 69.3717 500.728 Q67.5661 497.163 63.9319 497.163 M63.9319 493.46 Q69.742 493.46 72.7976 498.066 Q75.8763 502.649 75.8763 511.399 Q75.8763 520.126 72.7976 524.733 Q69.742 529.316 63.9319 529.316 Q58.1217 529.316 55.043 524.733 Q51.9875 520.126 51.9875 511.399 Q51.9875 502.649 55.043 498.066 Q58.1217 493.46 63.9319 493.46 Z" fill="#000000" fill-rule="evenodd" fill-opacity="1" /><path clip-path="url(#clip750)" d="M84.0938 522.765 L88.978 522.765 L88.978 528.645 L84.0938 528.645 L84.0938 522.765 Z" fill="#000000" fill-rule="evenodd" fill-opacity="1" /><path clip-path="url(#clip750)" d="M97.9826 494.085 L120.205 494.085 L120.205 496.075 L107.658 528.645 L102.774 528.645 L114.58 498.02 L97.9826 498.02 L97.9826 494.085 Z" fill="#000000" fill-rule="evenodd" fill-opacity="1" /><path clip-path="url(#clip750)" d="M129.371 494.085 L147.728 494.085 L147.728 498.02 L133.654 498.02 L133.654 506.492 Q134.672 506.145 135.691 505.983 Q136.709 505.798 137.728 505.798 Q143.515 505.798 146.894 508.969 Q150.274 512.14 150.274 517.557 Q150.274 523.135 146.802 526.237 Q143.33 529.316 137.01 529.316 Q134.834 529.316 132.566 528.946 Q130.32 528.575 127.913 527.834 L127.913 523.135 Q129.996 524.27 132.219 524.825 Q134.441 525.381 136.918 525.381 Q140.922 525.381 143.26 523.274 Q145.598 521.168 145.598 517.557 Q145.598 513.946 143.26 511.839 Q140.922 509.733 136.918 509.733 Q135.043 509.733 133.168 510.149 Q131.316 510.566 129.371 511.446 L129.371 494.085 Z" fill="#000000" fill-rule="evenodd" fill-opacity="1" /><path clip-path="url(#clip750)" d="M53.7467 269.228 L61.3856 269.228 L61.3856 242.863 L53.0754 244.529 L53.0754 240.27 L61.3393 238.603 L66.0152 238.603 L66.0152 269.228 L73.654 269.228 L73.654 273.163 L53.7467 273.163 L53.7467 269.228 Z" fill="#000000" fill-rule="evenodd" fill-opacity="1" /><path clip-path="url(#clip750)" d="M83.0984 267.284 L87.9827 267.284 L87.9827 273.163 L83.0984 273.163 L83.0984 267.284 Z" fill="#000000" fill-rule="evenodd" fill-opacity="1" /><path clip-path="url(#clip750)" d="M108.168 241.682 Q104.557 241.682 102.728 245.247 Q100.922 248.788 100.922 255.918 Q100.922 263.024 102.728 266.589 Q104.557 270.131 108.168 270.131 Q111.802 270.131 113.608 266.589 Q115.436 263.024 115.436 255.918 Q115.436 248.788 113.608 245.247 Q111.802 241.682 108.168 241.682 M108.168 237.978 Q113.978 237.978 117.033 242.585 Q120.112 247.168 120.112 255.918 Q120.112 264.645 117.033 269.251 Q113.978 273.835 108.168 273.835 Q102.358 273.835 99.2789 269.251 Q96.2234 264.645 96.2234 255.918 Q96.2234 247.168 99.2789 242.585 Q102.358 237.978 108.168 237.978 Z" fill="#000000" fill-rule="evenodd" fill-opacity="1" /><path clip-path="url(#clip750)" d="M138.33 241.682 Q134.719 241.682 132.89 245.247 Q131.084 248.788 131.084 255.918 Q131.084 263.024 132.89 266.589 Q134.719 270.131 138.33 270.131 Q141.964 270.131 143.769 266.589 Q145.598 263.024 145.598 255.918 Q145.598 248.788 143.769 245.247 Q141.964 241.682 138.33 241.682 M138.33 237.978 Q144.14 237.978 147.195 242.585 Q150.274 247.168 150.274 255.918 Q150.274 264.645 147.195 269.251 Q144.14 273.835 138.33 273.835 Q132.519 273.835 129.441 269.251 Q126.385 264.645 126.385 255.918 Q126.385 247.168 129.441 242.585 Q132.519 237.978 138.33 237.978 Z" fill="#000000" fill-rule="evenodd" fill-opacity="1" /><polyline clip-path="url(#clip752)" style="stroke:#009af9; stroke-linecap:round; stroke-linejoin:round; stroke-width:8; stroke-opacity:1; fill:none" points="
  247.59,1277.81 2291.44,1277.81 
  "/>
<polyline clip-path="url(#clip752)" style="stroke:#e26f46; stroke-linecap:round; stroke-linejoin:round; stroke-width:4; stroke-opacity:1; fill:none" points="
  2291.44,1277.81 2291.31,1261.68 2290.93,1245.55 2290.29,1229.43 2289.4,1213.32 2288.26,1197.23 2286.86,1181.16 2285.21,1165.11 2283.3,1149.09 2281.14,1133.1 
  2278.73,1117.15 2276.07,1101.24 2273.16,1085.37 2269.99,1069.55 2266.58,1053.78 2262.92,1038.07 2259.01,1022.42 2254.86,1006.83 2250.46,991.307 2245.81,975.857 
  2240.92,960.482 2235.79,945.187 2230.42,929.975 2224.81,914.849 2218.96,899.814 2212.88,884.872 2206.56,870.029 2200,855.288 2193.22,840.651 2186.2,826.124 
  2178.96,811.709 2171.48,797.411 2163.79,783.232 2155.87,769.176 2147.73,755.248 2139.37,741.449 2130.8,727.784 2122.01,714.256 2113,700.869 2103.79,687.625 
  2094.37,674.529 2084.74,661.582 2074.91,648.79 2064.88,636.154 2054.65,623.678 2044.23,611.365 2033.61,599.218 2022.81,587.241 2011.81,575.435 2000.63,563.805 
  1989.27,552.352 1977.73,541.08 1966.01,529.992 1954.12,519.09 1942.05,508.377 1929.82,497.857 1917.43,487.53 1904.87,477.4 1892.16,467.47 1879.29,457.742 
  1866.27,448.218 1853.09,438.901 1839.78,429.793 1826.32,420.896 1812.72,412.213 1798.99,403.746 1785.13,395.496 1771.14,387.467 1757.02,379.659 1742.78,372.075 
  1728.42,364.717 1713.95,357.586 1699.37,350.685 1684.68,344.015 1669.89,337.577 1654.99,331.374 1640,325.407 1624.92,319.677 1609.75,314.186 1594.5,308.935 
  1579.16,303.925 1563.75,299.158 1548.27,294.635 1532.71,290.357 1517.09,286.326 1501.41,282.541 1485.67,279.004 1469.87,275.716 1454.03,272.678 1438.14,269.891 
  1422.2,267.355 1406.23,265.07 1390.23,263.038 1374.2,261.259 1358.14,259.733 1342.05,258.461 1325.95,257.443 1309.84,256.679 1293.71,256.17 1277.58,255.915 
  1261.45,255.915 1245.32,256.17 1229.19,256.679 1213.08,257.443 1196.98,258.461 1180.89,259.733 1164.83,261.259 1148.8,263.038 1132.8,265.07 1116.83,267.355 
  1100.89,269.891 1085,272.678 1069.16,275.716 1053.36,279.004 1037.62,282.541 1021.94,286.326 1006.32,290.357 990.765,294.635 975.279,299.158 959.866,303.925 
  944.531,308.935 929.276,314.186 914.107,319.677 899.026,325.407 884.037,331.374 869.145,337.577 854.352,344.015 839.662,350.685 825.08,357.586 810.609,364.717 
  796.252,372.075 782.012,379.659 767.895,387.467 753.902,395.496 740.038,403.746 726.306,412.213 712.709,420.896 699.251,429.793 685.935,438.901 672.765,448.218 
  659.743,457.742 646.873,467.47 634.158,477.4 621.602,487.53 609.207,497.857 596.977,508.377 584.914,519.09 573.022,529.992 561.304,541.08 549.762,552.352 
  538.4,563.805 527.219,575.435 516.224,587.241 505.416,599.218 494.799,611.365 484.375,623.678 474.147,636.154 464.116,648.79 454.287,661.582 444.661,674.529 
  435.24,687.625 426.027,700.869 417.024,714.256 408.234,727.784 399.659,741.449 391.3,755.248 383.16,769.176 375.241,783.232 367.545,797.411 360.074,811.709 
  352.829,826.124 345.813,840.651 339.027,855.288 332.473,870.029 326.153,884.872 320.067,899.814 314.218,914.849 308.608,929.975 303.236,945.187 298.106,960.482 
  293.218,975.857 288.572,991.307 284.172,1006.83 280.017,1022.42 276.109,1038.07 272.448,1053.78 269.035,1069.55 265.872,1085.37 262.96,1101.24 260.298,1117.15 
  257.887,1133.1 255.729,1149.09 253.823,1165.11 252.171,1181.16 250.772,1197.23 249.626,1213.32 248.735,1229.43 248.099,1245.55 247.717,1261.68 247.59,1277.81 
  
  "/>
<polyline clip-path="url(#clip752)" style="stroke:#000000; stroke-linecap:round; stroke-linejoin:round; stroke-width:4; stroke-opacity:1; fill:none" stroke-dasharray="16, 10" points="
  2291.44,1277.81 2291.44,1277.81 
  "/>
<circle clip-path="url(#clip752)" cx="2291.44" cy="1277.81" r="14.4" fill="#000000" fill-rule="evenodd" fill-opacity="1" stroke="none"/>
<circle clip-path="url(#clip752)" cx="2291.44" cy="1277.81" r="14.4" fill="#000000" fill-rule="evenodd" fill-opacity="1" stroke="none"/>
<polyline clip-path="url(#clip752)" style="stroke:#000000; stroke-linecap:round; stroke-linejoin:round; stroke-width:4; stroke-opacity:1; fill:none" stroke-dasharray="16, 10" points="
  2241.42,1277.81 2241.42,962.016 
  "/>
<circle clip-path="url(#clip752)" cx="2241.42" cy="1277.81" r="14.4" fill="#000000" fill-rule="evenodd" fill-opacity="1" stroke="none"/>
<circle clip-path="url(#clip752)" cx="2241.42" cy="962.016" r="14.4" fill="#000000" fill-rule="evenodd" fill-opacity="1" stroke="none"/>
<polyline clip-path="url(#clip752)" style="stroke:#000000; stroke-linecap:round; stroke-linejoin:round; stroke-width:4; stroke-opacity:1; fill:none" stroke-dasharray="16, 10" points="
  2096.27,1277.81 2096.27,677.136 
  "/>
<circle clip-path="url(#clip752)" cx="2096.27" cy="1277.81" r="14.4" fill="#000000" fill-rule="evenodd" fill-opacity="1" stroke="none"/>
<circle clip-path="url(#clip752)" cx="2096.27" cy="677.136" r="14.4" fill="#000000" fill-rule="evenodd" fill-opacity="1" stroke="none"/>
<polyline clip-path="url(#clip752)" style="stroke:#000000; stroke-linecap:round; stroke-linejoin:round; stroke-width:4; stroke-opacity:1; fill:none" stroke-dasharray="16, 10" points="
  1870.19,1277.81 1870.19,451.054 
  "/>
<circle clip-path="url(#clip752)" cx="1870.19" cy="1277.81" r="14.4" fill="#000000" fill-rule="evenodd" fill-opacity="1" stroke="none"/>
<circle clip-path="url(#clip752)" cx="1870.19" cy="451.054" r="14.4" fill="#000000" fill-rule="evenodd" fill-opacity="1" stroke="none"/>
<polyline clip-path="url(#clip752)" style="stroke:#000000; stroke-linecap:round; stroke-linejoin:round; stroke-width:4; stroke-opacity:1; fill:none" stroke-dasharray="16, 10" points="
  1585.31,1277.81 1585.31,305.9 
  "/>
<circle clip-path="url(#clip752)" cx="1585.31" cy="1277.81" r="14.4" fill="#000000" fill-rule="evenodd" fill-opacity="1" stroke="none"/>
<circle clip-path="url(#clip752)" cx="1585.31" cy="305.9" r="14.4" fill="#000000" fill-rule="evenodd" fill-opacity="1" stroke="none"/>
<polyline clip-path="url(#clip752)" style="stroke:#000000; stroke-linecap:round; stroke-linejoin:round; stroke-width:4; stroke-opacity:1; fill:none" stroke-dasharray="16, 10" points="
  1269.51,1277.81 1269.51,255.883 
  "/>
<circle clip-path="url(#clip752)" cx="1269.51" cy="1277.81" r="14.4" fill="#000000" fill-rule="evenodd" fill-opacity="1" stroke="none"/>
<circle clip-path="url(#clip752)" cx="1269.51" cy="255.883" r="14.4" fill="#000000" fill-rule="evenodd" fill-opacity="1" stroke="none"/>
<polyline clip-path="url(#clip752)" style="stroke:#000000; stroke-linecap:round; stroke-linejoin:round; stroke-width:4; stroke-opacity:1; fill:none" stroke-dasharray="16, 10" points="
  953.723,1277.81 953.723,305.9 
  "/>
<circle clip-path="url(#clip752)" cx="953.723" cy="1277.81" r="14.4" fill="#000000" fill-rule="evenodd" fill-opacity="1" stroke="none"/>
<circle clip-path="url(#clip752)" cx="953.723" cy="305.9" r="14.4" fill="#000000" fill-rule="evenodd" fill-opacity="1" stroke="none"/>
<polyline clip-path="url(#clip752)" style="stroke:#000000; stroke-linecap:round; stroke-linejoin:round; stroke-width:4; stroke-opacity:1; fill:none" stroke-dasharray="16, 10" points="
  668.842,1277.81 668.842,451.054 
  "/>
<circle clip-path="url(#clip752)" cx="668.842" cy="1277.81" r="14.4" fill="#000000" fill-rule="evenodd" fill-opacity="1" stroke="none"/>
<circle clip-path="url(#clip752)" cx="668.842" cy="451.054" r="14.4" fill="#000000" fill-rule="evenodd" fill-opacity="1" stroke="none"/>
<polyline clip-path="url(#clip752)" style="stroke:#000000; stroke-linecap:round; stroke-linejoin:round; stroke-width:4; stroke-opacity:1; fill:none" stroke-dasharray="16, 10" points="
  442.76,1277.81 442.76,677.136 
  "/>
<circle clip-path="url(#clip752)" cx="442.76" cy="1277.81" r="14.4" fill="#000000" fill-rule="evenodd" fill-opacity="1" stroke="none"/>
<circle clip-path="url(#clip752)" cx="442.76" cy="677.136" r="14.4" fill="#000000" fill-rule="evenodd" fill-opacity="1" stroke="none"/>
<polyline clip-path="url(#clip752)" style="stroke:#000000; stroke-linecap:round; stroke-linejoin:round; stroke-width:4; stroke-opacity:1; fill:none" stroke-dasharray="16, 10" points="
  297.606,1277.81 297.606,962.016 
  "/>
<circle clip-path="url(#clip752)" cx="297.606" cy="1277.81" r="14.4" fill="#000000" fill-rule="evenodd" fill-opacity="1" stroke="none"/>
<circle clip-path="url(#clip752)" cx="297.606" cy="962.016" r="14.4" fill="#000000" fill-rule="evenodd" fill-opacity="1" stroke="none"/>
<polyline clip-path="url(#clip752)" style="stroke:#000000; stroke-linecap:round; stroke-linejoin:round; stroke-width:4; stroke-opacity:1; fill:none" stroke-dasharray="16, 10" points="
  247.59,1277.81 247.59,1277.81 
  "/>
<circle clip-path="url(#clip752)" cx="247.59" cy="1277.81" r="14.4" fill="#000000" fill-rule="evenodd" fill-opacity="1" stroke="none"/>
<circle clip-path="url(#clip752)" cx="247.59" cy="1277.81" r="14.4" fill="#000000" fill-rule="evenodd" fill-opacity="1" stroke="none"/>
</svg>
