<?xml version="1.0" encoding="utf-8"?>
<svg xmlns="http://www.w3.org/2000/svg" xmlns:xlink="http://www.w3.org/1999/xlink" width="600" height="400" viewBox="0 0 2400 1600">
<defs>
  <clipPath id="clip670">
    <rect x="0" y="0" width="2400" height="1600"/>
  </clipPath>
</defs>
<path clip-path="url(#clip670)" d="
M0 1600 L2400 1600 L2400 0 L0 0  Z
  " fill="#ffffff" fill-rule="evenodd" fill-opacity="1"/>
<defs>
  <clipPath id="clip671">
    <rect x="480" y="0" width="1681" height="1600"/>
  </clipPath>
</defs>
<path clip-path="url(#clip670)" d="
M147.478 1486.45 L2352.76 1486.45 L2352.76 47.2441 L147.478 47.2441  Z
  " fill="#ffffff" fill-rule="evenodd" fill-opacity="1"/>
<defs>
  <clipPath id="clip672">
    <rect x="147" y="47" width="2206" height="1440"/>
  </clipPath>
</defs>
<polyline clip-path="url(#clip672)" style="stroke:#000000; stroke-linecap:round; stroke-linejoin:round; stroke-width:2; stroke-opacity:0.1; fill:none" points="
  209.891,1486.45 209.891,47.2441 
  "/>
<polyline clip-path="url(#clip672)" style="stroke:#000000; stroke-linecap:round; stroke-linejoin:round; stroke-width:2; stroke-opacity:0.1; fill:none" points="
  903.375,1486.45 903.375,47.2441 
  "/>
<polyline clip-path="url(#clip672)" style="stroke:#000000; stroke-linecap:round; stroke-linejoin:round; stroke-width:2; stroke-opacity:0.1; fill:none" points="
  1596.86,1486.45 1596.86,47.2441 
  "/>
<polyline clip-path="url(#clip672)" style="stroke:#000000; stroke-linecap:round; stroke-linejoin:round; stroke-width:2; stroke-opacity:0.1; fill:none" points="
  2290.34,1486.45 2290.34,47.2441 
  "/>
<polyline clip-path="url(#clip670)" style="stroke:#000000; stroke-linecap:round; stroke-linejoin:round; stroke-width:4; stroke-opacity:1; fill:none" points="
  147.478,1486.45 2352.76,1486.45 
  "/>
<polyline clip-path="url(#clip670)" style="stroke:#000000; stroke-linecap:round; stroke-linejoin:round; stroke-width:4; stroke-opacity:1; fill:none" points="
  209.891,1486.45 209.891,1467.55 
  "/>
<polyline clip-path="url(#clip670)" style="stroke:#000000; stroke-linecap:round; stroke-linejoin:round; stroke-width:4; stroke-opacity:1; fill:none" points="
  903.375,1486.45 903.375,1467.55 
  "/>
<polyline clip-path="url(#clip670)" style="stroke:#000000; stroke-linecap:round; stroke-linejoin:round; stroke-width:4; stroke-opacity:1; fill:none" points="
  1596.86,1486.45 1596.86,1467.55 
  "/>
<polyline clip-path="url(#clip670)" style="stroke:#000000; stroke-linecap:round; stroke-linejoin:round; stroke-width:4; stroke-opacity:1; fill:none" points="
  2290.34,1486.45 2290.34,1467.55 
  "/>
<path clip-path="url(#clip670)" d="M209.891 1517.37 Q206.28 1517.37 204.452 1520.93 Q202.646 1524.47 202.646 1531.6 Q202.646 1538.71 204.452 1542.27 Q206.28 1545.82 209.891 1545.82 Q213.526 1545.82 215.331 1542.27 Q217.16 1538.71 217.16 1531.6 Q217.16 1524.47 215.331 1520.93 Q213.526 1517.37 209.891 1517.37 M209.891 1513.66 Q215.702 1513.66 218.757 1518.27 Q221.836 1522.85 221.836 1531.6 Q221.836 1540.33 218.757 1544.94 Q215.702 1549.52 209.891 1549.52 Q204.081 1549.52 201.003 1544.94 Q197.947 1540.33 197.947 1531.6 Q197.947 1522.85 201.003 1518.27 Q204.081 1513.66 209.891 1513.66 Z" fill="#000000" fill-rule="evenodd" fill-opacity="1" /><path clip-path="url(#clip670)" d="M893.757 1544.91 L901.396 1544.91 L901.396 1518.55 L893.086 1520.21 L893.086 1515.95 L901.35 1514.29 L906.026 1514.29 L906.026 1544.91 L913.664 1544.91 L913.664 1548.85 L893.757 1548.85 L893.757 1544.91 Z" fill="#000000" fill-rule="evenodd" fill-opacity="1" /><path clip-path="url(#clip670)" d="M1591.51 1544.91 L1607.83 1544.91 L1607.83 1548.85 L1585.89 1548.85 L1585.89 1544.91 Q1588.55 1542.16 1593.13 1537.53 Q1597.74 1532.88 1598.92 1531.53 Q1601.16 1529.01 1602.04 1527.27 Q1602.95 1525.51 1602.95 1523.82 Q1602.95 1521.07 1601 1519.33 Q1599.08 1517.6 1595.98 1517.6 Q1593.78 1517.6 1591.33 1518.36 Q1588.9 1519.13 1586.12 1520.68 L1586.12 1515.95 Q1588.94 1514.82 1591.4 1514.24 Q1593.85 1513.66 1595.89 1513.66 Q1601.26 1513.66 1604.45 1516.35 Q1607.65 1519.03 1607.65 1523.52 Q1607.65 1525.65 1606.84 1527.57 Q1606.05 1529.47 1603.94 1532.07 Q1603.36 1532.74 1600.26 1535.95 Q1597.16 1539.15 1591.51 1544.91 Z" fill="#000000" fill-rule="evenodd" fill-opacity="1" /><path clip-path="url(#clip670)" d="M2294.59 1530.21 Q2297.95 1530.93 2299.82 1533.2 Q2301.72 1535.47 2301.72 1538.8 Q2301.72 1543.92 2298.2 1546.72 Q2294.68 1549.52 2288.2 1549.52 Q2286.03 1549.52 2283.71 1549.08 Q2281.42 1548.66 2278.97 1547.81 L2278.97 1543.29 Q2280.91 1544.43 2283.22 1545.01 Q2285.54 1545.58 2288.06 1545.58 Q2292.46 1545.58 2294.75 1543.85 Q2297.07 1542.11 2297.07 1538.8 Q2297.07 1535.75 2294.91 1534.03 Q2292.78 1532.3 2288.97 1532.3 L2284.94 1532.3 L2284.94 1528.45 L2289.15 1528.45 Q2292.6 1528.45 2294.43 1527.09 Q2296.26 1525.7 2296.26 1523.11 Q2296.26 1520.45 2294.36 1519.03 Q2292.48 1517.6 2288.97 1517.6 Q2287.04 1517.6 2284.84 1518.01 Q2282.65 1518.43 2280.01 1519.31 L2280.01 1515.14 Q2282.67 1514.4 2284.98 1514.03 Q2287.32 1513.66 2289.38 1513.66 Q2294.71 1513.66 2297.81 1516.09 Q2300.91 1518.5 2300.91 1522.62 Q2300.91 1525.49 2299.27 1527.48 Q2297.62 1529.45 2294.59 1530.21 Z" fill="#000000" fill-rule="evenodd" fill-opacity="1" /><polyline clip-path="url(#clip672)" style="stroke:#000000; stroke-linecap:round; stroke-linejoin:round; stroke-width:2; stroke-opacity:0.1; fill:none" points="
  147.478,1443.04 2352.76,1443.04 
  "/>
<polyline clip-path="url(#clip672)" style="stroke:#000000; stroke-linecap:round; stroke-linejoin:round; stroke-width:2; stroke-opacity:0.1; fill:none" points="
  147.478,1000.35 2352.76,1000.35 
  "/>
<polyline clip-path="url(#clip672)" style="stroke:#000000; stroke-linecap:round; stroke-linejoin:round; stroke-width:2; stroke-opacity:0.1; fill:none" points="
  147.478,557.664 2352.76,557.664 
  "/>
<polyline clip-path="url(#clip672)" style="stroke:#000000; stroke-linecap:round; stroke-linejoin:round; stroke-width:2; stroke-opacity:0.1; fill:none" points="
  147.478,114.976 2352.76,114.976 
  "/>
<polyline clip-path="url(#clip670)" style="stroke:#000000; stroke-linecap:round; stroke-linejoin:round; stroke-width:4; stroke-opacity:1; fill:none" points="
  147.478,1486.45 147.478,47.2441 
  "/>
<polyline clip-path="url(#clip670)" style="stroke:#000000; stroke-linecap:round; stroke-linejoin:round; stroke-width:4; stroke-opacity:1; fill:none" points="
  147.478,1443.04 166.376,1443.04 
  "/>
<polyline clip-path="url(#clip670)" style="stroke:#000000; stroke-linecap:round; stroke-linejoin:round; stroke-width:4; stroke-opacity:1; fill:none" points="
  147.478,1000.35 166.376,1000.35 
  "/>
<polyline clip-path="url(#clip670)" style="stroke:#000000; stroke-linecap:round; stroke-linejoin:round; stroke-width:4; stroke-opacity:1; fill:none" points="
  147.478,557.664 166.376,557.664 
  "/>
<polyline clip-path="url(#clip670)" style="stroke:#000000; stroke-linecap:round; stroke-linejoin:round; stroke-width:4; stroke-opacity:1; fill:none" points="
  147.478,114.976 166.376,114.976 
  "/>
<path clip-path="url(#clip670)" d="M50.9921 1443.49 L80.6679 1443.49 L80.6679 1447.43 L50.9921 1447.43 L50.9921 1443.49 Z" fill="#000000" fill-rule="evenodd" fill-opacity="1" /><path clip-path="url(#clip670)" d="M91.5706 1456.38 L99.2095 1456.38 L99.2095 1430.02 L90.8993 1431.69 L90.8993 1427.43 L99.1632 1425.76 L103.839 1425.76 L103.839 1456.38 L111.478 1456.38 L111.478 1460.32 L91.5706 1460.32 L91.5706 1456.38 Z" fill="#000000" fill-rule="evenodd" fill-opacity="1" /><path clip-path="url(#clip670)" d="M99.5335 986.15 Q95.9224 986.15 94.0937 989.715 Q92.2882 993.257 92.2882 1000.39 Q92.2882 1007.49 94.0937 1011.06 Q95.9224 1014.6 99.5335 1014.6 Q103.168 1014.6 104.973 1011.06 Q106.802 1007.49 106.802 1000.39 Q106.802 993.257 104.973 989.715 Q103.168 986.15 99.5335 986.15 M99.5335 982.447 Q105.344 982.447 108.399 987.053 Q111.478 991.636 111.478 1000.39 Q111.478 1009.11 108.399 1013.72 Q105.344 1018.3 99.5335 1018.3 Q93.7234 1018.3 90.6447 1013.72 Q87.5892 1009.11 87.5892 1000.39 Q87.5892 991.636 90.6447 987.053 Q93.7234 982.447 99.5335 982.447 Z" fill="#000000" fill-rule="evenodd" fill-opacity="1" /><path clip-path="url(#clip670)" d="M91.5706 571.009 L99.2095 571.009 L99.2095 544.643 L90.8993 546.31 L90.8993 542.051 L99.1632 540.384 L103.839 540.384 L103.839 571.009 L111.478 571.009 L111.478 574.944 L91.5706 574.944 L91.5706 571.009 Z" fill="#000000" fill-rule="evenodd" fill-opacity="1" /><path clip-path="url(#clip670)" d="M95.1586 128.321 L111.478 128.321 L111.478 132.256 L89.5336 132.256 L89.5336 128.321 Q92.1956 125.566 96.7789 120.937 Q101.385 116.284 102.566 114.941 Q104.811 112.418 105.691 110.682 Q106.594 108.923 106.594 107.233 Q106.594 104.479 104.649 102.742 Q102.728 101.006 99.6261 101.006 Q97.4271 101.006 94.9734 101.77 Q92.5428 102.534 89.7651 104.085 L89.7651 99.3629 Q92.5891 98.2286 95.0428 97.6499 Q97.4965 97.0712 99.5335 97.0712 Q104.904 97.0712 108.098 99.7564 Q111.293 102.442 111.293 106.932 Q111.293 109.062 110.483 110.983 Q109.696 112.881 107.589 115.474 Q107.01 116.145 103.909 119.363 Q100.807 122.557 95.1586 128.321 Z" fill="#000000" fill-rule="evenodd" fill-opacity="1" /><polyline clip-path="url(#clip672)" style="stroke:#009af9; stroke-linecap:round; stroke-linejoin:round; stroke-width:4; stroke-opacity:1; fill:none" points="
  209.891,627.843 211.585,635.036 213.278,641.942 214.971,648.568 216.664,654.921 218.357,661.008 220.05,666.833 221.743,672.404 223.436,677.727 227.35,689.113 
  231.264,699.275 235.178,708.282 239.092,716.201 243.005,723.096 246.919,729.027 250.833,734.052 254.747,738.229 262.574,744.249 270.402,747.49 278.23,748.322 
  286.057,747.083 293.885,744.08 301.712,739.592 309.54,733.872 317.368,727.149 333.023,711.494 348.678,694.024 367.494,672.166 386.311,650.711 405.127,630.674 
  423.943,612.723 439.852,599.474 455.761,588.124 471.67,578.71 487.579,571.208 504.861,565.138 522.142,561.108 539.424,558.96 556.705,558.531 572.637,559.521 
  588.569,561.721 604.502,565.029 620.434,569.36 637.514,575.066 654.595,581.819 671.676,589.59 688.757,598.376 708.547,609.853 728.337,622.782 748.127,637.258 
  767.917,653.391 785.503,669.219 803.09,686.538 820.677,705.431 838.264,725.969 853.686,745.38 869.108,766.125 884.53,788.219 899.953,811.657 916.767,838.719 
  933.581,867.304 950.395,897.33 967.21,928.69 1001.04,995.226 1034.87,1065.06 1072.27,1143.73 1109.67,1220.76 1127.46,1255.77 1145.26,1289.14 1163.05,1320.43 
  1180.84,1349.2 1190.09,1363.02 1199.34,1375.97 1208.59,1388 1217.84,1399.06 1227.09,1409.07 1236.35,1417.99 1245.6,1425.76 1254.85,1432.33 1262.63,1436.89 
  1270.42,1440.53 1278.21,1443.24 1285.99,1444.97 1293.78,1445.72 1301.57,1445.45 1309.35,1444.14 1317.14,1441.78 1326.65,1437.46 1336.16,1431.51 1345.66,1423.92 
  1355.17,1414.67 1364.68,1403.76 1374.18,1391.17 1383.69,1376.91 1393.2,1360.99 1401.91,1344.94 1410.62,1327.52 1419.32,1308.75 1428.03,1288.63 1436.74,1267.2 
  1445.45,1244.5 1454.16,1220.55 1462.87,1195.39 1470.91,1171.12 1478.96,1145.9 1487,1119.77 1495.04,1092.78 1503.09,1064.96 1511.13,1036.37 1519.17,1007.06 
  1527.22,977.1 1543.51,914.618 1559.81,850.2 1576.1,784.416 1592.4,717.874 1610.66,643.195 1628.92,569.32 1647.19,497.233 1665.45,427.938 1673.72,397.734 
  1682,368.406 1690.27,340.048 1698.55,312.753 1706.82,286.613 1715.1,261.719 1723.37,238.159 1731.64,216.02 1741.12,192.527 1750.59,171.13 1760.06,151.947 
  1769.54,135.087 1779.01,120.655 1788.49,108.749 1797.96,99.4561 1807.43,92.8563 1816.21,89.2079 1824.98,87.9763 1833.75,89.2011 1842.52,92.9135 1851.29,99.1355 
  1860.06,107.88 1868.84,119.149 1877.61,132.935 1886.26,148.973 1894.9,167.411 1903.55,188.21 1912.2,211.318 1920.85,236.673 1929.5,264.201 1938.14,293.814 
  1946.79,325.413 1955.19,357.886 1963.58,392.011 1971.98,427.661 1980.38,464.698 1997.17,542.316 2013.96,623.516 2031.18,708.86 2048.39,794.474 2057,836.741 
  2065.61,878.28 2074.21,918.801 2082.82,958.001 2092.25,999.062 2101.68,1037.73 2111.11,1073.58 2120.54,1106.14 2125.26,1121.04 2129.97,1134.95 2134.69,1147.8 
  2139.4,1159.54 2144.12,1170.09 2148.83,1179.41 2153.55,1187.43 2158.27,1194.09 2165.11,1201.21 2171.96,1205.14 2175.39,1205.84 2178.81,1205.67 2182.24,1204.61 
  2185.66,1202.63 2189.09,1199.71 2192.51,1195.82 2195.94,1190.95 2199.36,1185.06 2202.79,1178.13 2206.21,1170.15 2209.64,1161.08 2213.06,1150.9 2216.49,1139.6 
  2219.91,1127.15 2223.34,1113.53 2226.76,1098.71 2230.19,1082.68 2233.61,1065.41 2237.04,1046.88 2240.46,1027.07 2243.89,1005.97 2247.31,983.547 2250.73,959.789 
  2254.16,934.674 2257.58,908.186 2261.01,880.306 2264.43,851.018 2267.86,820.305 2270.67,794.026 2273.48,766.769 2276.29,738.525 2279.1,709.287 2281.91,679.046 
  2284.72,647.797 2287.53,615.533 2290.34,582.246 
  "/>
<polyline clip-path="url(#clip672)" style="stroke:#000000; stroke-linecap:round; stroke-linejoin:round; stroke-width:4; stroke-opacity:1; fill:none" points="
  209.891,627.843 216.664,625.513 223.436,623.198 286.057,602.646 348.678,584.387 386.311,575.041 423.943,567.315 455.761,562.327 487.579,559.022 504.861,558.03 
  522.142,557.665 539.424,557.975 556.705,559.013 572.637,560.66 588.569,563.014 604.502,566.118 620.434,570.018 637.514,575.135 654.595,581.275 671.676,588.497 
  688.757,596.856 708.547,608.039 728.337,620.91 748.127,635.55 767.917,652.037 785.503,668.294 803.09,686.105 820.677,705.505 838.264,726.521 853.686,746.291 
  869.108,767.32 884.53,789.6 899.953,813.119 916.767,840.141 933.581,868.558 950.395,898.303 967.21,929.291 984.124,961.607 1001.04,994.937 1017.95,1029.12 
  1034.87,1063.97 1072.27,1142.24 1109.67,1219.72 1127.46,1255.25 1145.26,1289.3 1163.05,1321.38 1180.84,1350.95 1190.09,1365.14 1199.34,1378.42 1208.59,1390.71 
  1217.84,1401.91 1227.09,1411.94 1236.35,1420.73 1245.6,1428.18 1254.85,1434.21 1262.63,1438.13 1270.42,1440.93 1278.21,1442.58 1285.99,1443.03 1293.78,1442.23 
  1301.57,1440.14 1309.35,1436.74 1317.14,1431.97 1326.65,1424.27 1336.16,1414.46 1345.66,1402.49 1355.17,1388.35 1364.68,1372.02 1374.18,1353.49 1383.69,1332.8 
  1393.2,1309.96 1401.91,1287.2 1410.62,1262.74 1419.32,1236.64 1428.03,1208.98 1436.74,1179.87 1445.45,1149.41 1454.16,1117.73 1462.87,1084.97 1478.96,1022.21 
  1495.04,957.521 1511.13,892.274 1527.22,828.012 1535.36,796.377 1543.51,765.663 1551.66,736.111 1559.81,707.968 1567.95,681.485 1576.1,656.912 1580.18,645.42 
  1584.25,634.5 1588.32,624.182 1592.4,614.497 1596.96,604.431 1601.53,595.239 1606.1,586.962 1610.66,579.637 1615.23,573.304 1619.79,567.997 1624.36,563.752 
  1628.92,560.601 1633.49,558.574 1638.05,557.7 1642.62,558.002 1647.19,559.506 1651.75,562.228 1656.32,566.188 1660.88,571.397 1665.45,577.865 1669.59,584.818 
  1673.72,592.812 1677.86,601.844 1682,611.912 1686.13,623.007 1690.27,635.12 1694.41,648.237 1698.55,662.342 1702.68,677.414 1706.82,693.43 1710.96,710.363 
  1715.1,728.182 1719.23,746.854 1723.37,766.341 1727.51,786.601 1731.64,807.588 1736.38,832.45 1741.12,858.122 1745.85,884.522 1750.59,911.557 1760.06,967.14 
  1769.54,1024.03 1779.01,1081.3 1788.49,1137.94 1793.22,1165.71 1797.96,1192.92 1802.7,1219.43 1807.43,1245.12 1811.82,1268.04 1816.21,1290.01 1820.59,1310.93 
  1824.98,1330.68 1829.36,1349.17 1833.75,1366.27 1838.13,1381.9 1842.52,1395.95 1846.91,1408.33 1851.29,1418.95 1855.68,1427.73 1860.06,1434.59 1864.45,1439.47 
  1868.84,1442.29 1873.22,1443.01 1877.61,1441.59 1881.93,1438.05 1886.26,1432.36 1890.58,1424.53 1894.9,1414.54 1899.23,1402.4 1903.55,1388.14 1907.88,1371.8 
  1912.2,1353.41 1916.52,1333.05 1920.85,1310.77 1925.17,1286.68 1929.5,1260.86 1933.82,1233.44 1938.14,1204.53 1942.47,1174.28 1946.79,1142.84 1955.19,1079 
  1963.58,1012.62 1971.98,945.154 1980.38,878.178 1984.57,845.394 1988.77,813.361 1992.97,782.296 1997.17,752.414 2001.37,723.928 2005.57,697.051 2009.76,671.987 
  2013.96,648.939 2016.11,637.97 2018.27,627.605 2020.42,617.87 2022.57,608.787 2024.72,600.38 2026.87,592.671 2029.03,585.679 2031.18,579.424 2033.33,573.925 
  2035.48,569.2 2037.63,565.264 2039.78,562.133 2041.94,559.819 2044.09,558.335 2046.24,557.692 2048.39,557.899 2050.54,558.962 2052.7,560.889 2054.85,563.683 
  2057,567.347 2059.15,571.882 2061.3,577.286 2063.45,583.557 2065.61,590.691 2067.76,598.68 2069.91,607.516 2072.06,617.189 2074.21,627.685 2076.37,638.992 
  2078.52,651.092 2080.67,663.967 2082.82,677.597 2085.18,693.37 2087.54,709.99 2089.89,727.422 2092.25,745.628 2094.61,764.568 2096.97,784.198 2099.32,804.474 
  2101.68,825.345 2106.4,868.67 2111.11,913.738 2115.83,960.079 2120.54,1007.19 2125.26,1054.54 2129.97,1101.59 2134.69,1147.76 2139.4,1192.49 2141.76,1214.13 
  2144.12,1235.19 2146.48,1255.61 2148.83,1275.31 2151.19,1294.22 2153.55,1312.28 2155.91,1329.42 2158.27,1345.57 2159.98,1356.66 2161.69,1367.16 2163.4,1377.07 
  2165.11,1386.36 2166.83,1395.01 2168.54,1403 2170.25,1410.31 2171.96,1416.93 2173.68,1422.83 2175.39,1428.01 2177.1,1432.44 2178.81,1436.12 2180.53,1439.02 
  2182.24,1441.15 2183.95,1442.49 2185.66,1443.03 2187.38,1442.76 2189.09,1441.69 2190.8,1439.8 2192.51,1437.09 2194.23,1433.57 2195.94,1429.23 2197.65,1424.07 
  2199.36,1418.1 2201.08,1411.33 2202.79,1403.76 2204.5,1395.39 2206.21,1386.25 2207.92,1376.34 2209.64,1365.67 2211.35,1354.27 2213.06,1342.14 2214.77,1329.31 
  2216.49,1315.8 2218.2,1301.62 2219.91,1286.81 2221.62,1271.38 2223.34,1255.37 2225.05,1238.81 2226.76,1221.71 2230.19,1186.07 2233.61,1148.71 2237.04,1109.92 
  2240.46,1070.02 2247.31,988.176 2254.16,905.956 2257.58,865.615 2261.01,826.284 2264.43,788.334 2267.86,752.137 2270.67,723.996 2273.48,697.475 2276.29,672.76 
  2279.1,650.032 2280.51,639.467 2281.91,629.463 2283.32,620.038 2284.72,611.212 2286.13,603.003 2287.53,595.428 2288.94,588.504 2290.34,582.246 
  "/>
<circle clip-path="url(#clip672)" cx="209.891" cy="627.843" r="14.4" fill="#3da44d" fill-rule="evenodd" fill-opacity="1" stroke="#000000" stroke-opacity="1" stroke-width="3.2"/>
<circle clip-path="url(#clip672)" cx="990.338" cy="973.743" r="14.4" fill="#3da44d" fill-rule="evenodd" fill-opacity="1" stroke="#000000" stroke-opacity="1" stroke-width="3.2"/>
<circle clip-path="url(#clip672)" cx="549.784" cy="558.507" r="14.4" fill="#3da44d" fill-rule="evenodd" fill-opacity="1" stroke="#000000" stroke-opacity="1" stroke-width="3.2"/>
<circle clip-path="url(#clip672)" cx="1273.58" cy="1441.75" r="14.4" fill="#3da44d" fill-rule="evenodd" fill-opacity="1" stroke="#000000" stroke-opacity="1" stroke-width="3.2"/>
<circle clip-path="url(#clip672)" cx="818.08" cy="702.538" r="14.4" fill="#3da44d" fill-rule="evenodd" fill-opacity="1" stroke="#000000" stroke-opacity="1" stroke-width="3.2"/>
<circle clip-path="url(#clip672)" cx="1631.42" cy="559.353" r="14.4" fill="#3da44d" fill-rule="evenodd" fill-opacity="1" stroke="#000000" stroke-opacity="1" stroke-width="3.2"/>
<circle clip-path="url(#clip672)" cx="1141.2" cy="1281.7" r="14.4" fill="#3da44d" fill-rule="evenodd" fill-opacity="1" stroke="#000000" stroke-opacity="1" stroke-width="3.2"/>
<circle clip-path="url(#clip672)" cx="639.41" cy="575.765" r="14.4" fill="#3da44d" fill-rule="evenodd" fill-opacity="1" stroke="#000000" stroke-opacity="1" stroke-width="3.2"/>
<circle clip-path="url(#clip672)" cx="2248.19" cy="977.568" r="14.4" fill="#3da44d" fill-rule="evenodd" fill-opacity="1" stroke="#000000" stroke-opacity="1" stroke-width="3.2"/>
<circle clip-path="url(#clip672)" cx="2290.34" cy="582.246" r="14.4" fill="#3da44d" fill-rule="evenodd" fill-opacity="1" stroke="#000000" stroke-opacity="1" stroke-width="3.2"/>
<path clip-path="url(#clip670)" d="
M220.987 1438.47 L718.216 1438.47 L718.216 1231.11 L220.987 1231.11  Z
  " fill="#ffffff" fill-rule="evenodd" fill-opacity="1"/>
<polyline clip-path="url(#clip670)" style="stroke:#000000; stroke-linecap:round; stroke-linejoin:round; stroke-width:4; stroke-opacity:1; fill:none" points="
  220.987,1438.47 718.216,1438.47 718.216,1231.11 220.987,1231.11 220.987,1438.47 
  "/>
<polyline clip-path="url(#clip670)" style="stroke:#009af9; stroke-linecap:round; stroke-linejoin:round; stroke-width:4; stroke-opacity:1; fill:none" points="
  245.49,1282.95 392.509,1282.95 
  "/>
<path clip-path="url(#clip670)" d="M421.294 1296.35 L421.294 1310.1 L417.012 1310.1 L417.012 1274.31 L421.294 1274.31 L421.294 1278.24 Q422.637 1275.93 424.674 1274.82 Q426.734 1273.68 429.581 1273.68 Q434.303 1273.68 437.243 1277.43 Q440.206 1281.18 440.206 1287.29 Q440.206 1293.41 437.243 1297.16 Q434.303 1300.91 429.581 1300.91 Q426.734 1300.91 424.674 1299.79 Q422.637 1298.66 421.294 1296.35 M435.785 1287.29 Q435.785 1282.6 433.841 1279.93 Q431.919 1277.25 428.54 1277.25 Q425.16 1277.25 423.216 1279.93 Q421.294 1282.6 421.294 1287.29 Q421.294 1291.99 423.216 1294.68 Q425.16 1297.34 428.54 1297.34 Q431.919 1297.34 433.841 1294.68 Q435.785 1291.99 435.785 1287.29 Z" fill="#000000" fill-rule="evenodd" fill-opacity="1" /><path clip-path="url(#clip670)" d="M457.313 1277.29 Q453.887 1277.29 451.896 1279.98 Q449.905 1282.64 449.905 1287.29 Q449.905 1291.95 451.873 1294.63 Q453.864 1297.29 457.313 1297.29 Q460.715 1297.29 462.706 1294.61 Q464.697 1291.92 464.697 1287.29 Q464.697 1282.69 462.706 1280 Q460.715 1277.29 457.313 1277.29 M457.313 1273.68 Q462.868 1273.68 466.039 1277.29 Q469.211 1280.91 469.211 1287.29 Q469.211 1293.66 466.039 1297.29 Q462.868 1300.91 457.313 1300.91 Q451.734 1300.91 448.563 1297.29 Q445.415 1293.66 445.415 1287.29 Q445.415 1280.91 448.563 1277.29 Q451.734 1273.68 457.313 1273.68 Z" fill="#000000" fill-rule="evenodd" fill-opacity="1" /><path clip-path="url(#clip670)" d="M476.271 1264.22 L480.53 1264.22 L480.53 1300.23 L476.271 1300.23 L476.271 1264.22 Z" fill="#000000" fill-rule="evenodd" fill-opacity="1" /><path clip-path="url(#clip670)" d="M500.229 1302.64 Q498.423 1307.27 496.711 1308.68 Q494.998 1310.1 492.127 1310.1 L488.724 1310.1 L488.724 1306.53 L491.224 1306.53 Q492.984 1306.53 493.956 1305.7 Q494.928 1304.86 496.109 1301.76 L496.873 1299.82 L486.387 1274.31 L490.9 1274.31 L499.002 1294.59 L507.104 1274.31 L511.618 1274.31 L500.229 1302.64 Z" fill="#000000" fill-rule="evenodd" fill-opacity="1" /><path clip-path="url(#clip670)" d="M539.048 1284.59 L539.048 1300.23 L534.789 1300.23 L534.789 1284.73 Q534.789 1281.04 533.354 1279.22 Q531.919 1277.39 529.048 1277.39 Q525.599 1277.39 523.609 1279.59 Q521.618 1281.79 521.618 1285.58 L521.618 1300.23 L517.335 1300.23 L517.335 1274.31 L521.618 1274.31 L521.618 1278.34 Q523.146 1276 525.206 1274.84 Q527.289 1273.68 529.997 1273.68 Q534.465 1273.68 536.757 1276.46 Q539.048 1279.22 539.048 1284.59 Z" fill="#000000" fill-rule="evenodd" fill-opacity="1" /><path clip-path="url(#clip670)" d="M557.59 1277.29 Q554.164 1277.29 552.173 1279.98 Q550.182 1282.64 550.182 1287.29 Q550.182 1291.95 552.15 1294.63 Q554.141 1297.29 557.59 1297.29 Q560.993 1297.29 562.983 1294.61 Q564.974 1291.92 564.974 1287.29 Q564.974 1282.69 562.983 1280 Q560.993 1277.29 557.59 1277.29 M557.59 1273.68 Q563.145 1273.68 566.317 1277.29 Q569.488 1280.91 569.488 1287.29 Q569.488 1293.66 566.317 1297.29 Q563.145 1300.91 557.59 1300.91 Q552.011 1300.91 548.84 1297.29 Q545.692 1293.66 545.692 1287.29 Q545.692 1280.91 548.84 1277.29 Q552.011 1273.68 557.59 1273.68 Z" fill="#000000" fill-rule="evenodd" fill-opacity="1" /><path clip-path="url(#clip670)" d="M596.733 1279.29 Q598.33 1276.42 600.553 1275.05 Q602.775 1273.68 605.784 1273.68 Q609.835 1273.68 612.034 1276.53 Q614.233 1279.35 614.233 1284.59 L614.233 1300.23 L609.951 1300.23 L609.951 1284.73 Q609.951 1281 608.631 1279.19 Q607.312 1277.39 604.603 1277.39 Q601.293 1277.39 599.372 1279.59 Q597.451 1281.79 597.451 1285.58 L597.451 1300.23 L593.168 1300.23 L593.168 1284.73 Q593.168 1280.98 591.849 1279.19 Q590.529 1277.39 587.775 1277.39 Q584.511 1277.39 582.59 1279.61 Q580.668 1281.81 580.668 1285.58 L580.668 1300.23 L576.386 1300.23 L576.386 1274.31 L580.668 1274.31 L580.668 1278.34 Q582.127 1275.95 584.164 1274.82 Q586.201 1273.68 589.002 1273.68 Q591.826 1273.68 593.793 1275.12 Q595.784 1276.55 596.733 1279.29 Z" fill="#000000" fill-rule="evenodd" fill-opacity="1" /><path clip-path="url(#clip670)" d="M622.728 1274.31 L626.988 1274.31 L626.988 1300.23 L622.728 1300.23 L622.728 1274.31 M622.728 1264.22 L626.988 1264.22 L626.988 1269.61 L622.728 1269.61 L622.728 1264.22 Z" fill="#000000" fill-rule="evenodd" fill-opacity="1" /><path clip-path="url(#clip670)" d="M647.682 1287.2 Q642.52 1287.2 640.529 1288.38 Q638.538 1289.56 638.538 1292.41 Q638.538 1294.68 640.02 1296.02 Q641.525 1297.34 644.094 1297.34 Q647.636 1297.34 649.765 1294.84 Q651.918 1292.32 651.918 1288.15 L651.918 1287.2 L647.682 1287.2 M656.177 1285.44 L656.177 1300.23 L651.918 1300.23 L651.918 1296.3 Q650.46 1298.66 648.284 1299.79 Q646.108 1300.91 642.96 1300.91 Q638.978 1300.91 636.617 1298.68 Q634.279 1296.44 634.279 1292.69 Q634.279 1288.31 637.196 1286.09 Q640.136 1283.87 645.946 1283.87 L651.918 1283.87 L651.918 1283.45 Q651.918 1280.51 649.974 1278.92 Q648.052 1277.29 644.557 1277.29 Q642.335 1277.29 640.228 1277.83 Q638.122 1278.36 636.177 1279.42 L636.177 1275.49 Q638.515 1274.59 640.714 1274.15 Q642.913 1273.68 644.997 1273.68 Q650.622 1273.68 653.4 1276.6 Q656.177 1279.52 656.177 1285.44 Z" fill="#000000" fill-rule="evenodd" fill-opacity="1" /><path clip-path="url(#clip670)" d="M664.95 1264.22 L669.21 1264.22 L669.21 1300.23 L664.95 1300.23 L664.95 1264.22 Z" fill="#000000" fill-rule="evenodd" fill-opacity="1" /><polyline clip-path="url(#clip670)" style="stroke:#000000; stroke-linecap:round; stroke-linejoin:round; stroke-width:4; stroke-opacity:1; fill:none" points="
  245.49,1334.79 392.509,1334.79 
  "/>
<path clip-path="url(#clip670)" d="M433.516 1316.06 L433.516 1319.6 L429.442 1319.6 Q427.151 1319.6 426.248 1320.52 Q425.368 1321.45 425.368 1323.86 L425.368 1326.15 L432.382 1326.15 L432.382 1329.46 L425.368 1329.46 L425.368 1352.07 L421.086 1352.07 L421.086 1329.46 L417.012 1329.46 L417.012 1326.15 L421.086 1326.15 L421.086 1324.34 Q421.086 1320.01 423.1 1318.05 Q425.114 1316.06 429.489 1316.06 L433.516 1316.06 Z" fill="#000000" fill-rule="evenodd" fill-opacity="1" /><path clip-path="url(#clip670)" d="M436.641 1341.84 L436.641 1326.15 L440.901 1326.15 L440.901 1341.68 Q440.901 1345.36 442.336 1347.21 Q443.771 1349.04 446.641 1349.04 Q450.09 1349.04 452.081 1346.84 Q454.095 1344.64 454.095 1340.85 L454.095 1326.15 L458.354 1326.15 L458.354 1352.07 L454.095 1352.07 L454.095 1348.09 Q452.544 1350.45 450.484 1351.61 Q448.447 1352.75 445.739 1352.75 Q441.271 1352.75 438.956 1349.97 Q436.641 1347.19 436.641 1341.84 M447.359 1325.52 L447.359 1325.52 Z" fill="#000000" fill-rule="evenodd" fill-opacity="1" /><path clip-path="url(#clip670)" d="M488.678 1336.43 L488.678 1352.07 L484.419 1352.07 L484.419 1336.57 Q484.419 1332.88 482.984 1331.06 Q481.549 1329.23 478.678 1329.23 Q475.229 1329.23 473.238 1331.43 Q471.248 1333.63 471.248 1337.42 L471.248 1352.07 L466.965 1352.07 L466.965 1326.15 L471.248 1326.15 L471.248 1330.18 Q472.775 1327.84 474.836 1326.68 Q476.919 1325.52 479.627 1325.52 Q484.095 1325.52 486.387 1328.3 Q488.678 1331.06 488.678 1336.43 Z" fill="#000000" fill-rule="evenodd" fill-opacity="1" /><path clip-path="url(#clip670)" d="M515.831 1327.14 L515.831 1331.13 Q514.025 1330.13 512.197 1329.64 Q510.391 1329.13 508.539 1329.13 Q504.396 1329.13 502.104 1331.77 Q499.812 1334.39 499.812 1339.13 Q499.812 1343.88 502.104 1346.52 Q504.396 1349.13 508.539 1349.13 Q510.391 1349.13 512.197 1348.65 Q514.025 1348.14 515.831 1347.14 L515.831 1351.08 Q514.048 1351.91 512.127 1352.33 Q510.229 1352.75 508.076 1352.75 Q502.22 1352.75 498.771 1349.07 Q495.322 1345.38 495.322 1339.13 Q495.322 1332.79 498.794 1329.16 Q502.289 1325.52 508.354 1325.52 Q510.322 1325.52 512.197 1325.94 Q514.072 1326.33 515.831 1327.14 Z" fill="#000000" fill-rule="evenodd" fill-opacity="1" /><path clip-path="url(#clip670)" d="M527.451 1318.79 L527.451 1326.15 L536.224 1326.15 L536.224 1329.46 L527.451 1329.46 L527.451 1343.53 Q527.451 1346.7 528.308 1347.61 Q529.187 1348.51 531.849 1348.51 L536.224 1348.51 L536.224 1352.07 L531.849 1352.07 Q526.919 1352.07 525.044 1350.25 Q523.169 1348.39 523.169 1343.53 L523.169 1329.46 L520.044 1329.46 L520.044 1326.15 L523.169 1326.15 L523.169 1318.79 L527.451 1318.79 Z" fill="#000000" fill-rule="evenodd" fill-opacity="1" /><path clip-path="url(#clip670)" d="M541.826 1326.15 L546.085 1326.15 L546.085 1352.07 L541.826 1352.07 L541.826 1326.15 M541.826 1316.06 L546.085 1316.06 L546.085 1321.45 L541.826 1321.45 L541.826 1316.06 Z" fill="#000000" fill-rule="evenodd" fill-opacity="1" /><path clip-path="url(#clip670)" d="M565.044 1329.13 Q561.618 1329.13 559.627 1331.82 Q557.636 1334.48 557.636 1339.13 Q557.636 1343.79 559.604 1346.47 Q561.594 1349.13 565.044 1349.13 Q568.446 1349.13 570.437 1346.45 Q572.428 1343.76 572.428 1339.13 Q572.428 1334.53 570.437 1331.84 Q568.446 1329.13 565.044 1329.13 M565.044 1325.52 Q570.599 1325.52 573.77 1329.13 Q576.942 1332.75 576.942 1339.13 Q576.942 1345.5 573.77 1349.13 Q570.599 1352.75 565.044 1352.75 Q559.465 1352.75 556.294 1349.13 Q553.145 1345.5 553.145 1339.13 Q553.145 1332.75 556.294 1329.13 Q559.465 1325.52 565.044 1325.52 Z" fill="#000000" fill-rule="evenodd" fill-opacity="1" /><path clip-path="url(#clip670)" d="M605.553 1336.43 L605.553 1352.07 L601.293 1352.07 L601.293 1336.57 Q601.293 1332.88 599.858 1331.06 Q598.423 1329.23 595.553 1329.23 Q592.104 1329.23 590.113 1331.43 Q588.122 1333.63 588.122 1337.42 L588.122 1352.07 L583.84 1352.07 L583.84 1326.15 L588.122 1326.15 L588.122 1330.18 Q589.65 1327.84 591.71 1326.68 Q593.793 1325.52 596.502 1325.52 Q600.969 1325.52 603.261 1328.3 Q605.553 1331.06 605.553 1336.43 Z" fill="#000000" fill-rule="evenodd" fill-opacity="1" /><circle clip-path="url(#clip670)" cx="319" cy="1386.63" r="23.04" fill="#3da44d" fill-rule="evenodd" fill-opacity="1" stroke="#000000" stroke-opacity="1" stroke-width="5.12"/>
<path clip-path="url(#clip670)" d="M435.924 1381.92 L435.924 1367.9 L440.183 1367.9 L440.183 1403.91 L435.924 1403.91 L435.924 1400.03 Q434.581 1402.34 432.521 1403.47 Q430.484 1404.59 427.614 1404.59 Q422.915 1404.59 419.952 1400.84 Q417.012 1397.09 417.012 1390.97 Q417.012 1384.86 419.952 1381.11 Q422.915 1377.36 427.614 1377.36 Q430.484 1377.36 432.521 1378.5 Q434.581 1379.61 435.924 1381.92 M421.41 1390.97 Q421.41 1395.67 423.331 1398.36 Q425.276 1401.02 428.655 1401.02 Q432.035 1401.02 433.979 1398.36 Q435.924 1395.67 435.924 1390.97 Q435.924 1386.28 433.979 1383.61 Q432.035 1380.93 428.655 1380.93 Q425.276 1380.93 423.331 1383.61 Q421.41 1386.28 421.41 1390.97 Z" fill="#000000" fill-rule="evenodd" fill-opacity="1" /><path clip-path="url(#clip670)" d="M460.739 1390.88 Q455.576 1390.88 453.586 1392.06 Q451.595 1393.24 451.595 1396.09 Q451.595 1398.36 453.077 1399.7 Q454.581 1401.02 457.151 1401.02 Q460.692 1401.02 462.822 1398.52 Q464.975 1396 464.975 1391.83 L464.975 1390.88 L460.739 1390.88 M469.234 1389.12 L469.234 1403.91 L464.975 1403.91 L464.975 1399.98 Q463.516 1402.34 461.34 1403.47 Q459.164 1404.59 456.016 1404.59 Q452.035 1404.59 449.674 1402.36 Q447.336 1400.12 447.336 1396.37 Q447.336 1391.99 450.252 1389.77 Q453.192 1387.55 459.002 1387.55 L464.975 1387.55 L464.975 1387.13 Q464.975 1384.19 463.03 1382.6 Q461.109 1380.97 457.614 1380.97 Q455.391 1380.97 453.285 1381.51 Q451.178 1382.04 449.234 1383.1 L449.234 1379.17 Q451.572 1378.27 453.771 1377.83 Q455.97 1377.36 458.053 1377.36 Q463.678 1377.36 466.456 1380.28 Q469.234 1383.2 469.234 1389.12 Z" fill="#000000" fill-rule="evenodd" fill-opacity="1" /><path clip-path="url(#clip670)" d="M482.22 1370.63 L482.22 1377.99 L490.993 1377.99 L490.993 1381.3 L482.22 1381.3 L482.22 1395.37 Q482.22 1398.54 483.076 1399.45 Q483.956 1400.35 486.618 1400.35 L490.993 1400.35 L490.993 1403.91 L486.618 1403.91 Q481.687 1403.91 479.812 1402.09 Q477.937 1400.23 477.937 1395.37 L477.937 1381.3 L474.813 1381.3 L474.813 1377.99 L477.937 1377.99 L477.937 1370.63 L482.22 1370.63 Z" fill="#000000" fill-rule="evenodd" fill-opacity="1" /><path clip-path="url(#clip670)" d="M508.377 1390.88 Q503.215 1390.88 501.224 1392.06 Q499.234 1393.24 499.234 1396.09 Q499.234 1398.36 500.715 1399.7 Q502.22 1401.02 504.789 1401.02 Q508.331 1401.02 510.46 1398.52 Q512.613 1396 512.613 1391.83 L512.613 1390.88 L508.377 1390.88 M516.872 1389.12 L516.872 1403.91 L512.613 1403.91 L512.613 1399.98 Q511.155 1402.34 508.979 1403.47 Q506.803 1404.59 503.655 1404.59 Q499.673 1404.59 497.312 1402.36 Q494.974 1400.12 494.974 1396.37 Q494.974 1391.99 497.891 1389.77 Q500.831 1387.55 506.641 1387.55 L512.613 1387.55 L512.613 1387.13 Q512.613 1384.19 510.669 1382.6 Q508.748 1380.97 505.252 1380.97 Q503.03 1380.97 500.923 1381.51 Q498.817 1382.04 496.873 1383.1 L496.873 1379.17 Q499.211 1378.27 501.41 1377.83 Q503.609 1377.36 505.692 1377.36 Q511.317 1377.36 514.095 1380.28 Q516.872 1383.2 516.872 1389.12 Z" fill="#000000" fill-rule="evenodd" fill-opacity="1" /></svg>
