<?xml version="1.0" encoding="utf-8"?>
<svg xmlns="http://www.w3.org/2000/svg" xmlns:xlink="http://www.w3.org/1999/xlink" width="600" height="400" viewBox="0 0 2400 1600">
<defs>
  <clipPath id="clip520">
    <rect x="0" y="0" width="2400" height="1600"/>
  </clipPath>
</defs>
<path clip-path="url(#clip520)" d="
M0 1600 L2400 1600 L2400 0 L0 0  Z
  " fill="#ffffff" fill-rule="evenodd" fill-opacity="1"/>
<defs>
  <clipPath id="clip521">
    <rect x="480" y="0" width="1681" height="1600"/>
  </clipPath>
</defs>
<path clip-path="url(#clip520)" d="
M209.029 1486.45 L2352.76 1486.45 L2352.76 47.2441 L209.029 47.2441  Z
  " fill="#ffffff" fill-rule="evenodd" fill-opacity="1"/>
<defs>
  <clipPath id="clip522">
    <rect x="209" y="47" width="2145" height="1440"/>
  </clipPath>
</defs>
<polyline clip-path="url(#clip522)" style="stroke:#000000; stroke-linecap:round; stroke-linejoin:round; stroke-width:2; stroke-opacity:0.1; fill:none" points="
  269.7,1486.45 269.7,47.2441 
  "/>
<polyline clip-path="url(#clip522)" style="stroke:#000000; stroke-linecap:round; stroke-linejoin:round; stroke-width:2; stroke-opacity:0.1; fill:none" points="
  943.828,1486.45 943.828,47.2441 
  "/>
<polyline clip-path="url(#clip522)" style="stroke:#000000; stroke-linecap:round; stroke-linejoin:round; stroke-width:2; stroke-opacity:0.1; fill:none" points="
  1617.96,1486.45 1617.96,47.2441 
  "/>
<polyline clip-path="url(#clip522)" style="stroke:#000000; stroke-linecap:round; stroke-linejoin:round; stroke-width:2; stroke-opacity:0.1; fill:none" points="
  2292.08,1486.45 2292.08,47.2441 
  "/>
<polyline clip-path="url(#clip520)" style="stroke:#000000; stroke-linecap:round; stroke-linejoin:round; stroke-width:4; stroke-opacity:1; fill:none" points="
  209.029,1486.45 2352.76,1486.45 
  "/>
<polyline clip-path="url(#clip520)" style="stroke:#000000; stroke-linecap:round; stroke-linejoin:round; stroke-width:4; stroke-opacity:1; fill:none" points="
  269.7,1486.45 269.7,1467.55 
  "/>
<polyline clip-path="url(#clip520)" style="stroke:#000000; stroke-linecap:round; stroke-linejoin:round; stroke-width:4; stroke-opacity:1; fill:none" points="
  943.828,1486.45 943.828,1467.55 
  "/>
<polyline clip-path="url(#clip520)" style="stroke:#000000; stroke-linecap:round; stroke-linejoin:round; stroke-width:4; stroke-opacity:1; fill:none" points="
  1617.96,1486.45 1617.96,1467.55 
  "/>
<polyline clip-path="url(#clip520)" style="stroke:#000000; stroke-linecap:round; stroke-linejoin:round; stroke-width:4; stroke-opacity:1; fill:none" points="
  2292.08,1486.45 2292.08,1467.55 
  "/>
<path clip-path="url(#clip520)" d="M269.7 1517.37 Q266.089 1517.37 264.26 1520.93 Q262.455 1524.47 262.455 1531.6 Q262.455 1538.71 264.26 1542.27 Q266.089 1545.82 269.7 1545.82 Q273.334 1545.82 275.14 1542.27 Q276.969 1538.71 276.969 1531.6 Q276.969 1524.47 275.14 1520.93 Q273.334 1517.37 269.7 1517.37 M269.7 1513.66 Q275.51 1513.66 278.566 1518.27 Q281.644 1522.85 281.644 1531.6 Q281.644 1540.33 278.566 1544.94 Q275.51 1549.52 269.7 1549.52 Q263.89 1549.52 260.811 1544.94 Q257.756 1540.33 257.756 1531.6 Q257.756 1522.85 260.811 1518.27 Q263.89 1513.66 269.7 1513.66 Z" fill="#000000" fill-rule="evenodd" fill-opacity="1" /><path clip-path="url(#clip520)" d="M934.21 1544.91 L941.849 1544.91 L941.849 1518.55 L933.539 1520.21 L933.539 1515.95 L941.803 1514.29 L946.479 1514.29 L946.479 1544.91 L954.117 1544.91 L954.117 1548.85 L934.21 1548.85 L934.21 1544.91 Z" fill="#000000" fill-rule="evenodd" fill-opacity="1" /><path clip-path="url(#clip520)" d="M1612.61 1544.91 L1628.93 1544.91 L1628.93 1548.85 L1606.98 1548.85 L1606.98 1544.91 Q1609.65 1542.16 1614.23 1537.53 Q1618.84 1532.88 1620.02 1531.53 Q1622.26 1529.01 1623.14 1527.27 Q1624.04 1525.51 1624.04 1523.82 Q1624.04 1521.07 1622.1 1519.33 Q1620.18 1517.6 1617.08 1517.6 Q1614.88 1517.6 1612.42 1518.36 Q1609.99 1519.13 1607.22 1520.68 L1607.22 1515.95 Q1610.04 1514.82 1612.49 1514.24 Q1614.95 1513.66 1616.98 1513.66 Q1622.35 1513.66 1625.55 1516.35 Q1628.74 1519.03 1628.74 1523.52 Q1628.74 1525.65 1627.93 1527.57 Q1627.15 1529.47 1625.04 1532.07 Q1624.46 1532.74 1621.36 1535.95 Q1618.26 1539.15 1612.61 1544.91 Z" fill="#000000" fill-rule="evenodd" fill-opacity="1" /><path clip-path="url(#clip520)" d="M2296.33 1530.21 Q2299.69 1530.93 2301.56 1533.2 Q2303.46 1535.47 2303.46 1538.8 Q2303.46 1543.92 2299.94 1546.72 Q2296.42 1549.52 2289.94 1549.52 Q2287.77 1549.52 2285.45 1549.08 Q2283.16 1548.66 2280.71 1547.81 L2280.71 1543.29 Q2282.65 1544.43 2284.97 1545.01 Q2287.28 1545.58 2289.8 1545.58 Q2294.2 1545.58 2296.49 1543.85 Q2298.81 1542.11 2298.81 1538.8 Q2298.81 1535.75 2296.66 1534.03 Q2294.53 1532.3 2290.71 1532.3 L2286.68 1532.3 L2286.68 1528.45 L2290.89 1528.45 Q2294.34 1528.45 2296.17 1527.09 Q2298 1525.7 2298 1523.11 Q2298 1520.45 2296.1 1519.03 Q2294.23 1517.6 2290.71 1517.6 Q2288.79 1517.6 2286.59 1518.01 Q2284.39 1518.43 2281.75 1519.31 L2281.75 1515.14 Q2284.41 1514.4 2286.73 1514.03 Q2289.06 1513.66 2291.12 1513.66 Q2296.45 1513.66 2299.55 1516.09 Q2302.65 1518.5 2302.65 1522.62 Q2302.65 1525.49 2301.01 1527.48 Q2299.36 1529.45 2296.33 1530.21 Z" fill="#000000" fill-rule="evenodd" fill-opacity="1" /><polyline clip-path="url(#clip522)" style="stroke:#000000; stroke-linecap:round; stroke-linejoin:round; stroke-width:2; stroke-opacity:0.1; fill:none" points="
  209.029,1261.38 2352.76,1261.38 
  "/>
<polyline clip-path="url(#clip522)" style="stroke:#000000; stroke-linecap:round; stroke-linejoin:round; stroke-width:2; stroke-opacity:0.1; fill:none" points="
  209.029,1006.69 2352.76,1006.69 
  "/>
<polyline clip-path="url(#clip522)" style="stroke:#000000; stroke-linecap:round; stroke-linejoin:round; stroke-width:2; stroke-opacity:0.1; fill:none" points="
  209.029,752.005 2352.76,752.005 
  "/>
<polyline clip-path="url(#clip522)" style="stroke:#000000; stroke-linecap:round; stroke-linejoin:round; stroke-width:2; stroke-opacity:0.1; fill:none" points="
  209.029,497.319 2352.76,497.319 
  "/>
<polyline clip-path="url(#clip522)" style="stroke:#000000; stroke-linecap:round; stroke-linejoin:round; stroke-width:2; stroke-opacity:0.1; fill:none" points="
  209.029,242.632 2352.76,242.632 
  "/>
<polyline clip-path="url(#clip520)" style="stroke:#000000; stroke-linecap:round; stroke-linejoin:round; stroke-width:4; stroke-opacity:1; fill:none" points="
  209.029,1486.45 209.029,47.2441 
  "/>
<polyline clip-path="url(#clip520)" style="stroke:#000000; stroke-linecap:round; stroke-linejoin:round; stroke-width:4; stroke-opacity:1; fill:none" points="
  209.029,1261.38 227.926,1261.38 
  "/>
<polyline clip-path="url(#clip520)" style="stroke:#000000; stroke-linecap:round; stroke-linejoin:round; stroke-width:4; stroke-opacity:1; fill:none" points="
  209.029,1006.69 227.926,1006.69 
  "/>
<polyline clip-path="url(#clip520)" style="stroke:#000000; stroke-linecap:round; stroke-linejoin:round; stroke-width:4; stroke-opacity:1; fill:none" points="
  209.029,752.005 227.926,752.005 
  "/>
<polyline clip-path="url(#clip520)" style="stroke:#000000; stroke-linecap:round; stroke-linejoin:round; stroke-width:4; stroke-opacity:1; fill:none" points="
  209.029,497.319 227.926,497.319 
  "/>
<polyline clip-path="url(#clip520)" style="stroke:#000000; stroke-linecap:round; stroke-linejoin:round; stroke-width:4; stroke-opacity:1; fill:none" points="
  209.029,242.632 227.926,242.632 
  "/>
<path clip-path="url(#clip520)" d="M50.9921 1261.83 L80.6679 1261.83 L80.6679 1265.77 L50.9921 1265.77 L50.9921 1261.83 Z" fill="#000000" fill-rule="evenodd" fill-opacity="1" /><path clip-path="url(#clip520)" d="M91.5706 1274.72 L99.2095 1274.72 L99.2095 1248.36 L90.8993 1250.02 L90.8993 1245.77 L99.1632 1244.1 L103.839 1244.1 L103.839 1274.72 L111.478 1274.72 L111.478 1278.66 L91.5706 1278.66 L91.5706 1274.72 Z" fill="#000000" fill-rule="evenodd" fill-opacity="1" /><path clip-path="url(#clip520)" d="M130.922 1247.18 Q127.311 1247.18 125.482 1250.74 Q123.677 1254.28 123.677 1261.41 Q123.677 1268.52 125.482 1272.08 Q127.311 1275.63 130.922 1275.63 Q134.556 1275.63 136.362 1272.08 Q138.191 1268.52 138.191 1261.41 Q138.191 1254.28 136.362 1250.74 Q134.556 1247.18 130.922 1247.18 M130.922 1243.47 Q136.732 1243.47 139.788 1248.08 Q142.867 1252.66 142.867 1261.41 Q142.867 1270.14 139.788 1274.75 Q136.732 1279.33 130.922 1279.33 Q125.112 1279.33 122.033 1274.75 Q118.978 1270.14 118.978 1261.41 Q118.978 1252.66 122.033 1248.08 Q125.112 1243.47 130.922 1243.47 Z" fill="#000000" fill-rule="evenodd" fill-opacity="1" /><path clip-path="url(#clip520)" d="M161.084 1247.18 Q157.473 1247.18 155.644 1250.74 Q153.839 1254.28 153.839 1261.41 Q153.839 1268.52 155.644 1272.08 Q157.473 1275.63 161.084 1275.63 Q164.718 1275.63 166.524 1272.08 Q168.353 1268.52 168.353 1261.41 Q168.353 1254.28 166.524 1250.74 Q164.718 1247.18 161.084 1247.18 M161.084 1243.47 Q166.894 1243.47 169.95 1248.08 Q173.029 1252.66 173.029 1261.41 Q173.029 1270.14 169.95 1274.75 Q166.894 1279.33 161.084 1279.33 Q155.274 1279.33 152.195 1274.75 Q149.14 1270.14 149.14 1261.41 Q149.14 1252.66 152.195 1248.08 Q155.274 1243.47 161.084 1243.47 Z" fill="#000000" fill-rule="evenodd" fill-opacity="1" /><path clip-path="url(#clip520)" d="M161.084 992.491 Q157.473 992.491 155.644 996.055 Q153.839 999.597 153.839 1006.73 Q153.839 1013.83 155.644 1017.4 Q157.473 1020.94 161.084 1020.94 Q164.718 1020.94 166.524 1017.4 Q168.353 1013.83 168.353 1006.73 Q168.353 999.597 166.524 996.055 Q164.718 992.491 161.084 992.491 M161.084 988.787 Q166.894 988.787 169.95 993.393 Q173.029 997.977 173.029 1006.73 Q173.029 1015.45 169.95 1020.06 Q166.894 1024.64 161.084 1024.64 Q155.274 1024.64 152.195 1020.06 Q149.14 1015.45 149.14 1006.73 Q149.14 997.977 152.195 993.393 Q155.274 988.787 161.084 988.787 Z" fill="#000000" fill-rule="evenodd" fill-opacity="1" /><path clip-path="url(#clip520)" d="M91.5706 765.35 L99.2095 765.35 L99.2095 738.984 L90.8993 740.651 L90.8993 736.392 L99.1632 734.725 L103.839 734.725 L103.839 765.35 L111.478 765.35 L111.478 769.285 L91.5706 769.285 L91.5706 765.35 Z" fill="#000000" fill-rule="evenodd" fill-opacity="1" /><path clip-path="url(#clip520)" d="M130.922 737.804 Q127.311 737.804 125.482 741.369 Q123.677 744.91 123.677 752.04 Q123.677 759.146 125.482 762.711 Q127.311 766.253 130.922 766.253 Q134.556 766.253 136.362 762.711 Q138.191 759.146 138.191 752.04 Q138.191 744.91 136.362 741.369 Q134.556 737.804 130.922 737.804 M130.922 734.1 Q136.732 734.1 139.788 738.707 Q142.867 743.29 142.867 752.04 Q142.867 760.767 139.788 765.373 Q136.732 769.957 130.922 769.957 Q125.112 769.957 122.033 765.373 Q118.978 760.767 118.978 752.04 Q118.978 743.29 122.033 738.707 Q125.112 734.1 130.922 734.1 Z" fill="#000000" fill-rule="evenodd" fill-opacity="1" /><path clip-path="url(#clip520)" d="M161.084 737.804 Q157.473 737.804 155.644 741.369 Q153.839 744.91 153.839 752.04 Q153.839 759.146 155.644 762.711 Q157.473 766.253 161.084 766.253 Q164.718 766.253 166.524 762.711 Q168.353 759.146 168.353 752.04 Q168.353 744.91 166.524 741.369 Q164.718 737.804 161.084 737.804 M161.084 734.1 Q166.894 734.1 169.95 738.707 Q173.029 743.29 173.029 752.04 Q173.029 760.767 169.95 765.373 Q166.894 769.957 161.084 769.957 Q155.274 769.957 152.195 765.373 Q149.14 760.767 149.14 752.04 Q149.14 743.29 152.195 738.707 Q155.274 734.1 161.084 734.1 Z" fill="#000000" fill-rule="evenodd" fill-opacity="1" /><path clip-path="url(#clip520)" d="M94.7882 510.663 L111.108 510.663 L111.108 514.599 L89.1632 514.599 L89.1632 510.663 Q91.8252 507.909 96.4085 503.279 Q101.015 498.626 102.196 497.284 Q104.441 494.761 105.321 493.025 Q106.223 491.265 106.223 489.576 Q106.223 486.821 104.279 485.085 Q102.358 483.349 99.2558 483.349 Q97.0567 483.349 94.603 484.113 Q92.1725 484.876 89.3947 486.427 L89.3947 481.705 Q92.2188 480.571 94.6724 479.992 Q97.1261 479.414 99.1632 479.414 Q104.534 479.414 107.728 482.099 Q110.922 484.784 110.922 489.275 Q110.922 491.404 110.112 493.325 Q109.325 495.224 107.219 497.816 Q106.64 498.487 103.538 501.705 Q100.436 504.899 94.7882 510.663 Z" fill="#000000" fill-rule="evenodd" fill-opacity="1" /><path clip-path="url(#clip520)" d="M130.922 483.117 Q127.311 483.117 125.482 486.682 Q123.677 490.224 123.677 497.353 Q123.677 504.46 125.482 508.024 Q127.311 511.566 130.922 511.566 Q134.556 511.566 136.362 508.024 Q138.191 504.46 138.191 497.353 Q138.191 490.224 136.362 486.682 Q134.556 483.117 130.922 483.117 M130.922 479.414 Q136.732 479.414 139.788 484.02 Q142.867 488.603 142.867 497.353 Q142.867 506.08 139.788 510.687 Q136.732 515.27 130.922 515.27 Q125.112 515.27 122.033 510.687 Q118.978 506.08 118.978 497.353 Q118.978 488.603 122.033 484.02 Q125.112 479.414 130.922 479.414 Z" fill="#000000" fill-rule="evenodd" fill-opacity="1" /><path clip-path="url(#clip520)" d="M161.084 483.117 Q157.473 483.117 155.644 486.682 Q153.839 490.224 153.839 497.353 Q153.839 504.46 155.644 508.024 Q157.473 511.566 161.084 511.566 Q164.718 511.566 166.524 508.024 Q168.353 504.46 168.353 497.353 Q168.353 490.224 166.524 486.682 Q164.718 483.117 161.084 483.117 M161.084 479.414 Q166.894 479.414 169.95 484.02 Q173.029 488.603 173.029 497.353 Q173.029 506.08 169.95 510.687 Q166.894 515.27 161.084 515.27 Q155.274 515.27 152.195 510.687 Q149.14 506.08 149.14 497.353 Q149.14 488.603 152.195 484.02 Q155.274 479.414 161.084 479.414 Z" fill="#000000" fill-rule="evenodd" fill-opacity="1" /><path clip-path="url(#clip520)" d="M104.927 241.278 Q108.283 241.995 110.158 244.264 Q112.057 246.532 112.057 249.866 Q112.057 254.981 108.538 257.782 Q105.02 260.583 98.5382 260.583 Q96.3623 260.583 94.0475 260.143 Q91.7558 259.727 89.3021 258.87 L89.3021 254.356 Q91.2465 255.491 93.5613 256.069 Q95.8761 256.648 98.3993 256.648 Q102.797 256.648 105.089 254.912 Q107.404 253.176 107.404 249.866 Q107.404 246.81 105.251 245.097 Q103.121 243.361 99.3021 243.361 L95.2743 243.361 L95.2743 239.518 L99.4872 239.518 Q102.936 239.518 104.765 238.153 Q106.594 236.764 106.594 234.171 Q106.594 231.509 104.696 230.097 Q102.821 228.662 99.3021 228.662 Q97.3808 228.662 95.1817 229.079 Q92.9826 229.495 90.3438 230.375 L90.3438 226.208 Q93.0058 225.468 95.3206 225.097 Q97.6585 224.727 99.7187 224.727 Q105.043 224.727 108.145 227.157 Q111.246 229.565 111.246 233.685 Q111.246 236.555 109.603 238.546 Q107.959 240.514 104.927 241.278 Z" fill="#000000" fill-rule="evenodd" fill-opacity="1" /><path clip-path="url(#clip520)" d="M130.922 228.43 Q127.311 228.43 125.482 231.995 Q123.677 235.537 123.677 242.667 Q123.677 249.773 125.482 253.338 Q127.311 256.879 130.922 256.879 Q134.556 256.879 136.362 253.338 Q138.191 249.773 138.191 242.667 Q138.191 235.537 136.362 231.995 Q134.556 228.43 130.922 228.43 M130.922 224.727 Q136.732 224.727 139.788 229.333 Q142.867 233.917 142.867 242.667 Q142.867 251.393 139.788 256 Q136.732 260.583 130.922 260.583 Q125.112 260.583 122.033 256 Q118.978 251.393 118.978 242.667 Q118.978 233.917 122.033 229.333 Q125.112 224.727 130.922 224.727 Z" fill="#000000" fill-rule="evenodd" fill-opacity="1" /><path clip-path="url(#clip520)" d="M161.084 228.43 Q157.473 228.43 155.644 231.995 Q153.839 235.537 153.839 242.667 Q153.839 249.773 155.644 253.338 Q157.473 256.879 161.084 256.879 Q164.718 256.879 166.524 253.338 Q168.353 249.773 168.353 242.667 Q168.353 235.537 166.524 231.995 Q164.718 228.43 161.084 228.43 M161.084 224.727 Q166.894 224.727 169.95 229.333 Q173.029 233.917 173.029 242.667 Q173.029 251.393 169.95 256 Q166.894 260.583 161.084 260.583 Q155.274 260.583 152.195 256 Q149.14 251.393 149.14 242.667 Q149.14 233.917 152.195 229.333 Q155.274 224.727 161.084 224.727 Z" fill="#000000" fill-rule="evenodd" fill-opacity="1" /><polyline clip-path="url(#clip522)" style="stroke:#009af9; stroke-linecap:round; stroke-linejoin:round; stroke-width:4; stroke-opacity:1; fill:none" points="
  269.7,1004.55 271.346,1005.89 272.992,1006.74 274.638,1007.13 276.283,1007.06 277.929,1006.55 279.575,1005.6 281.221,1004.24 282.867,1002.48 286.671,996.903 
  290.476,989.372 294.281,980.025 298.085,968.996 301.89,956.416 305.694,942.41 309.499,927.101 313.303,910.603 317.108,893.029 320.913,874.485 324.717,855.075 
  328.522,834.897 336.131,792.613 343.74,748.341 358.958,656.369 374.177,563.494 381.786,517.899 389.395,473.401 397.004,430.346 404.613,389.04 409.186,365.171 
  413.759,342.082 418.332,319.822 422.904,298.432 427.477,277.951 432.05,258.414 436.623,239.852 441.195,222.292 445.768,205.757 450.341,190.268 454.914,175.843 
  459.487,162.494 464.059,150.233 468.632,139.068 473.205,129.005 477.778,120.047 485.51,107.412 493.243,97.9248 500.975,91.5554 508.707,88.2589 516.44,87.9763 
  524.172,90.6355 531.905,96.1531 539.637,104.435 548.037,116.444 556.436,131.452 564.836,149.306 573.236,169.847 581.635,192.909 590.035,218.32 598.435,245.905 
  606.834,275.485 614.578,304.369 622.322,334.654 630.065,366.2 637.809,398.865 653.296,467 668.784,537.965 701.992,694.845 735.2,850.501 744.819,894.175 
  754.438,936.895 764.057,978.503 773.675,1018.85 783.294,1057.82 792.913,1095.27 802.532,1131.11 812.15,1165.24 820.698,1194.07 829.246,1221.43 837.794,1247.28 
  846.342,1271.59 854.89,1294.32 863.438,1315.46 871.986,1334.98 880.534,1352.88 888.03,1367.24 895.526,1380.35 903.022,1392.22 910.518,1402.86 918.014,1412.28 
  925.509,1420.48 933.005,1427.49 940.501,1433.34 948.674,1438.4 956.846,1442.12 965.019,1444.55 973.191,1445.72 981.363,1445.66 989.536,1444.43 997.708,1442.06 
  1005.88,1438.61 1014.1,1434.1 1022.32,1428.58 1030.54,1422.13 1038.77,1414.78 1046.99,1406.6 1055.21,1397.63 1063.43,1387.94 1071.65,1377.59 1089.83,1352.6 
  1108.01,1325.24 1126.19,1296.09 1144.36,1265.74 1178.96,1206.61 1213.55,1148.55 1231.54,1119.78 1249.52,1092.44 1267.51,1066.81 1285.49,1043.14 1300.63,1024.87 
  1315.77,1008.22 1330.91,993.243 1346.05,979.977 1364.53,966.122 1383.01,954.824 1401.5,946.023 1419.98,939.616 1436.91,935.73 1453.84,933.608 1470.77,933.103 
  1487.71,934.05 1518.98,939.026 1550.26,947.197 1581.94,957.525 1613.62,968.753 1649.13,981.116 1684.63,992.088 1716.81,1000.1 1748.98,1005.91 1785.82,1009.72 
  1822.65,1010.77 1856.76,1009.8 1890.87,1007.65 1958.12,1002.86 2023.42,1001.23 2056.89,1002.2 2090.36,1004.14 2127.02,1006.7 2163.69,1008.71 2216.96,1008.67 
  2270.23,1005.21 2281.16,1004.6 2292.08,1004.29 
  "/>
<polyline clip-path="url(#clip522)" style="stroke:#000000; stroke-linecap:round; stroke-linejoin:round; stroke-width:4; stroke-opacity:1; fill:none" points="
  269.7,1004.55 276.283,1004.54 282.867,1004.52 343.74,1004.4 404.613,1004.3 441.195,1004.25 477.778,1004.2 508.707,1004.17 539.637,1004.15 556.436,1004.15 
  573.236,1004.15 590.035,1004.15 606.834,1004.15 622.322,1004.16 637.809,1004.18 653.296,1004.19 668.784,1004.22 685.388,1004.25 701.992,1004.28 718.596,1004.32 
  735.2,1004.37 754.438,1004.43 773.675,1004.51 792.913,1004.59 812.15,1004.69 829.246,1004.78 846.342,1004.88 863.438,1005 880.534,1005.12 895.526,1005.23 
  910.518,1005.35 925.509,1005.48 940.501,1005.61 956.846,1005.77 973.191,1005.93 989.536,1006.1 1005.88,1006.28 1022.32,1006.47 1038.77,1006.66 1055.21,1006.86 
  1071.65,1007.06 1108.01,1007.51 1144.36,1007.95 1161.66,1008.16 1178.96,1008.35 1196.25,1008.54 1213.55,1008.71 1222.54,1008.79 1231.54,1008.87 1240.53,1008.94 
  1249.52,1009 1258.51,1009.06 1267.51,1009.11 1276.5,1009.15 1285.49,1009.19 1293.06,1009.21 1300.63,1009.23 1308.2,1009.24 1315.77,1009.24 1323.34,1009.23 
  1330.91,1009.22 1338.48,1009.2 1346.05,1009.18 1355.29,1009.13 1364.53,1009.07 1373.77,1009.01 1383.01,1008.92 1392.25,1008.83 1401.5,1008.72 1410.74,1008.6 
  1419.98,1008.47 1428.45,1008.34 1436.91,1008.2 1445.38,1008.05 1453.84,1007.89 1462.31,1007.72 1470.77,1007.55 1479.24,1007.37 1487.71,1007.18 1503.34,1006.82 
  1518.98,1006.45 1534.62,1006.07 1550.26,1005.7 1558.18,1005.52 1566.1,1005.34 1574.02,1005.17 1581.94,1005.01 1589.86,1004.86 1597.78,1004.72 1601.74,1004.65 
  1605.7,1004.59 1609.66,1004.53 1613.62,1004.47 1618.06,1004.41 1622.5,1004.36 1626.93,1004.31 1631.37,1004.27 1635.81,1004.24 1640.25,1004.2 1644.69,1004.18 
  1649.13,1004.16 1653.56,1004.15 1658,1004.15 1662.44,1004.15 1666.88,1004.16 1671.32,1004.17 1675.76,1004.19 1680.19,1004.22 1684.63,1004.26 1688.65,1004.3 
  1692.68,1004.35 1696.7,1004.4 1700.72,1004.46 1704.74,1004.52 1708.76,1004.59 1712.78,1004.67 1716.81,1004.75 1720.83,1004.83 1724.85,1004.93 1728.87,1005.02 
  1732.89,1005.13 1736.91,1005.23 1740.94,1005.35 1744.96,1005.46 1748.98,1005.58 1753.58,1005.73 1758.19,1005.87 1762.79,1006.03 1767.4,1006.18 1776.61,1006.5 
  1785.82,1006.83 1795.03,1007.16 1804.24,1007.48 1808.84,1007.64 1813.44,1007.8 1818.05,1007.95 1822.65,1008.1 1826.92,1008.23 1831.18,1008.36 1835.44,1008.48 
  1839.71,1008.59 1843.97,1008.7 1848.23,1008.8 1852.5,1008.89 1856.76,1008.97 1861.02,1009.04 1865.29,1009.1 1869.55,1009.15 1873.82,1009.19 1878.08,1009.22 
  1882.34,1009.23 1886.61,1009.24 1890.87,1009.23 1895.07,1009.21 1899.28,1009.18 1903.48,1009.13 1907.68,1009.07 1911.89,1009.01 1916.09,1008.92 1920.29,1008.83 
  1924.5,1008.72 1928.7,1008.61 1932.9,1008.48 1937.11,1008.34 1941.31,1008.19 1945.51,1008.03 1949.72,1007.87 1953.92,1007.69 1958.12,1007.51 1966.28,1007.14 
  1974.45,1006.76 1982.61,1006.37 1990.77,1005.99 1994.85,1005.8 1998.93,1005.62 2003.01,1005.44 2007.09,1005.27 2011.18,1005.1 2015.26,1004.95 2019.34,1004.8 
  2023.42,1004.67 2025.51,1004.61 2027.6,1004.55 2029.69,1004.49 2031.79,1004.44 2033.88,1004.39 2035.97,1004.35 2038.06,1004.31 2040.15,1004.27 2042.24,1004.24 
  2044.34,1004.21 2046.43,1004.19 2048.52,1004.17 2050.61,1004.16 2052.7,1004.15 2054.8,1004.15 2056.89,1004.15 2058.98,1004.15 2061.07,1004.16 2063.16,1004.18 
  2065.25,1004.2 2067.35,1004.23 2069.44,1004.26 2071.53,1004.29 2073.62,1004.34 2075.71,1004.38 2077.8,1004.43 2079.9,1004.49 2081.99,1004.55 2084.08,1004.61 
  2086.17,1004.68 2088.26,1004.76 2090.36,1004.84 2092.65,1004.93 2094.94,1005.02 2097.23,1005.12 2099.52,1005.23 2101.81,1005.34 2104.11,1005.45 2106.4,1005.57 
  2108.69,1005.69 2113.27,1005.93 2117.86,1006.19 2122.44,1006.46 2127.02,1006.73 2131.61,1007 2136.19,1007.27 2140.78,1007.54 2145.36,1007.8 2147.65,1007.92 
  2149.94,1008.04 2152.23,1008.16 2154.53,1008.27 2156.82,1008.38 2159.11,1008.49 2161.4,1008.59 2163.69,1008.68 2165.36,1008.74 2167.02,1008.8 2168.69,1008.86 
  2170.35,1008.91 2172.02,1008.96 2173.68,1009.01 2175.35,1009.05 2177.01,1009.09 2178.67,1009.12 2180.34,1009.15 2182,1009.18 2183.67,1009.2 2185.33,1009.22 
  2187,1009.23 2188.66,1009.24 2190.33,1009.24 2191.99,1009.24 2193.66,1009.23 2195.32,1009.22 2196.99,1009.2 2198.65,1009.18 2200.31,1009.16 2201.98,1009.13 
  2203.64,1009.1 2205.31,1009.06 2206.97,1009.01 2208.64,1008.96 2210.3,1008.91 2211.97,1008.86 2213.63,1008.79 2215.3,1008.73 2216.96,1008.66 2218.63,1008.58 
  2220.29,1008.51 2221.95,1008.43 2223.62,1008.34 2225.28,1008.25 2226.95,1008.16 2228.61,1008.06 2230.28,1007.97 2233.61,1007.76 2236.94,1007.55 2240.27,1007.32 
  2243.59,1007.09 2250.25,1006.62 2256.91,1006.15 2260.24,1005.92 2263.57,1005.69 2266.9,1005.47 2270.23,1005.26 2272.96,1005.1 2275.69,1004.95 2278.42,1004.81 
  2281.16,1004.68 2282.52,1004.62 2283.89,1004.56 2285.25,1004.5 2286.62,1004.45 2287.99,1004.41 2289.35,1004.36 2290.72,1004.32 2292.08,1004.29 
  "/>
<circle clip-path="url(#clip522)" cx="269.7" cy="1004.55" r="14.4" fill="#3da44d" fill-rule="evenodd" fill-opacity="1" stroke="#000000" stroke-opacity="1" stroke-width="3.2"/>
<circle clip-path="url(#clip522)" cx="2177.56" cy="1009.1" r="14.4" fill="#3da44d" fill-rule="evenodd" fill-opacity="1" stroke="#000000" stroke-opacity="1" stroke-width="3.2"/>
<circle clip-path="url(#clip522)" cx="2209.05" cy="1008.95" r="14.4" fill="#3da44d" fill-rule="evenodd" fill-opacity="1" stroke="#000000" stroke-opacity="1" stroke-width="3.2"/>
<circle clip-path="url(#clip522)" cx="1868.7" cy="1009.14" r="14.4" fill="#3da44d" fill-rule="evenodd" fill-opacity="1" stroke="#000000" stroke-opacity="1" stroke-width="3.2"/>
<circle clip-path="url(#clip522)" cx="280.916" cy="1004.53" r="14.4" fill="#3da44d" fill-rule="evenodd" fill-opacity="1" stroke="#000000" stroke-opacity="1" stroke-width="3.2"/>
<circle clip-path="url(#clip522)" cx="770.216" cy="1004.49" r="14.4" fill="#3da44d" fill-rule="evenodd" fill-opacity="1" stroke="#000000" stroke-opacity="1" stroke-width="3.2"/>
<circle clip-path="url(#clip522)" cx="1746.21" cy="1005.5" r="14.4" fill="#3da44d" fill-rule="evenodd" fill-opacity="1" stroke="#000000" stroke-opacity="1" stroke-width="3.2"/>
<circle clip-path="url(#clip522)" cx="1314.8" cy="1009.24" r="14.4" fill="#3da44d" fill-rule="evenodd" fill-opacity="1" stroke="#000000" stroke-opacity="1" stroke-width="3.2"/>
<circle clip-path="url(#clip522)" cx="2258.7" cy="1006.02" r="14.4" fill="#3da44d" fill-rule="evenodd" fill-opacity="1" stroke="#000000" stroke-opacity="1" stroke-width="3.2"/>
<circle clip-path="url(#clip522)" cx="2292.08" cy="1004.29" r="14.4" fill="#3da44d" fill-rule="evenodd" fill-opacity="1" stroke="#000000" stroke-opacity="1" stroke-width="3.2"/>
<path clip-path="url(#clip520)" d="
M280.486 1438.47 L770.876 1438.47 L770.876 1231.11 L280.486 1231.11  Z
  " fill="#ffffff" fill-rule="evenodd" fill-opacity="1"/>
<polyline clip-path="url(#clip520)" style="stroke:#000000; stroke-linecap:round; stroke-linejoin:round; stroke-width:4; stroke-opacity:1; fill:none" points="
  280.486,1438.47 770.876,1438.47 770.876,1231.11 280.486,1231.11 280.486,1438.47 
  "/>
<polyline clip-path="url(#clip520)" style="stroke:#009af9; stroke-linecap:round; stroke-linejoin:round; stroke-width:4; stroke-opacity:1; fill:none" points="
  304.305,1282.95 447.22,1282.95 
  "/>
<path clip-path="url(#clip520)" d="M475.322 1296.35 L475.322 1310.1 L471.04 1310.1 L471.04 1274.31 L475.322 1274.31 L475.322 1278.24 Q476.665 1275.93 478.702 1274.82 Q480.762 1273.68 483.609 1273.68 Q488.331 1273.68 491.271 1277.43 Q494.234 1281.18 494.234 1287.29 Q494.234 1293.41 491.271 1297.16 Q488.331 1300.91 483.609 1300.91 Q480.762 1300.91 478.702 1299.79 Q476.665 1298.66 475.322 1296.35 M489.813 1287.29 Q489.813 1282.6 487.868 1279.93 Q485.947 1277.25 482.567 1277.25 Q479.188 1277.25 477.243 1279.93 Q475.322 1282.6 475.322 1287.29 Q475.322 1291.99 477.243 1294.68 Q479.188 1297.34 482.567 1297.34 Q485.947 1297.34 487.868 1294.68 Q489.813 1291.99 489.813 1287.29 Z" fill="#000000" fill-rule="evenodd" fill-opacity="1" /><path clip-path="url(#clip520)" d="M511.34 1277.29 Q507.914 1277.29 505.924 1279.98 Q503.933 1282.64 503.933 1287.29 Q503.933 1291.95 505.901 1294.63 Q507.891 1297.29 511.34 1297.29 Q514.743 1297.29 516.734 1294.61 Q518.725 1291.92 518.725 1287.29 Q518.725 1282.69 516.734 1280 Q514.743 1277.29 511.34 1277.29 M511.34 1273.68 Q516.896 1273.68 520.067 1277.29 Q523.238 1280.91 523.238 1287.29 Q523.238 1293.66 520.067 1297.29 Q516.896 1300.91 511.34 1300.91 Q505.762 1300.91 502.59 1297.29 Q499.442 1293.66 499.442 1287.29 Q499.442 1280.91 502.59 1277.29 Q505.762 1273.68 511.34 1273.68 Z" fill="#000000" fill-rule="evenodd" fill-opacity="1" /><path clip-path="url(#clip520)" d="M530.299 1264.22 L534.558 1264.22 L534.558 1300.23 L530.299 1300.23 L530.299 1264.22 Z" fill="#000000" fill-rule="evenodd" fill-opacity="1" /><path clip-path="url(#clip520)" d="M554.257 1302.64 Q552.451 1307.27 550.738 1308.68 Q549.025 1310.1 546.155 1310.1 L542.752 1310.1 L542.752 1306.53 L545.252 1306.53 Q547.011 1306.53 547.984 1305.7 Q548.956 1304.86 550.136 1301.76 L550.9 1299.82 L540.414 1274.31 L544.928 1274.31 L553.03 1294.59 L561.132 1274.31 L565.646 1274.31 L554.257 1302.64 Z" fill="#000000" fill-rule="evenodd" fill-opacity="1" /><path clip-path="url(#clip520)" d="M593.076 1284.59 L593.076 1300.23 L588.817 1300.23 L588.817 1284.73 Q588.817 1281.04 587.382 1279.22 Q585.946 1277.39 583.076 1277.39 Q579.627 1277.39 577.636 1279.59 Q575.646 1281.79 575.646 1285.58 L575.646 1300.23 L571.363 1300.23 L571.363 1274.31 L575.646 1274.31 L575.646 1278.34 Q577.173 1276 579.234 1274.84 Q581.317 1273.68 584.025 1273.68 Q588.493 1273.68 590.784 1276.46 Q593.076 1279.22 593.076 1284.59 Z" fill="#000000" fill-rule="evenodd" fill-opacity="1" /><path clip-path="url(#clip520)" d="M611.618 1277.29 Q608.192 1277.29 606.201 1279.98 Q604.21 1282.64 604.21 1287.29 Q604.21 1291.95 606.178 1294.63 Q608.169 1297.29 611.618 1297.29 Q615.02 1297.29 617.011 1294.61 Q619.002 1291.92 619.002 1287.29 Q619.002 1282.69 617.011 1280 Q615.02 1277.29 611.618 1277.29 M611.618 1273.68 Q617.173 1273.68 620.344 1277.29 Q623.516 1280.91 623.516 1287.29 Q623.516 1293.66 620.344 1297.29 Q617.173 1300.91 611.618 1300.91 Q606.039 1300.91 602.868 1297.29 Q599.72 1293.66 599.72 1287.29 Q599.72 1280.91 602.868 1277.29 Q606.039 1273.68 611.618 1273.68 Z" fill="#000000" fill-rule="evenodd" fill-opacity="1" /><path clip-path="url(#clip520)" d="M650.761 1279.29 Q652.358 1276.42 654.58 1275.05 Q656.803 1273.68 659.812 1273.68 Q663.863 1273.68 666.062 1276.53 Q668.261 1279.35 668.261 1284.59 L668.261 1300.23 L663.978 1300.23 L663.978 1284.73 Q663.978 1281 662.659 1279.19 Q661.34 1277.39 658.631 1277.39 Q655.321 1277.39 653.4 1279.59 Q651.478 1281.79 651.478 1285.58 L651.478 1300.23 L647.196 1300.23 L647.196 1284.73 Q647.196 1280.98 645.877 1279.19 Q644.557 1277.39 641.803 1277.39 Q638.539 1277.39 636.617 1279.61 Q634.696 1281.81 634.696 1285.58 L634.696 1300.23 L630.414 1300.23 L630.414 1274.31 L634.696 1274.31 L634.696 1278.34 Q636.154 1275.95 638.192 1274.82 Q640.229 1273.68 643.029 1273.68 Q645.854 1273.68 647.821 1275.12 Q649.812 1276.55 650.761 1279.29 Z" fill="#000000" fill-rule="evenodd" fill-opacity="1" /><path clip-path="url(#clip520)" d="M676.756 1274.31 L681.015 1274.31 L681.015 1300.23 L676.756 1300.23 L676.756 1274.31 M676.756 1264.22 L681.015 1264.22 L681.015 1269.61 L676.756 1269.61 L676.756 1264.22 Z" fill="#000000" fill-rule="evenodd" fill-opacity="1" /><path clip-path="url(#clip520)" d="M701.71 1287.2 Q696.548 1287.2 694.557 1288.38 Q692.566 1289.56 692.566 1292.41 Q692.566 1294.68 694.048 1296.02 Q695.552 1297.34 698.122 1297.34 Q701.663 1297.34 703.793 1294.84 Q705.946 1292.32 705.946 1288.15 L705.946 1287.2 L701.71 1287.2 M710.205 1285.44 L710.205 1300.23 L705.946 1300.23 L705.946 1296.3 Q704.487 1298.66 702.312 1299.79 Q700.136 1300.91 696.987 1300.91 Q693.006 1300.91 690.645 1298.68 Q688.307 1296.44 688.307 1292.69 Q688.307 1288.31 691.224 1286.09 Q694.163 1283.87 699.974 1283.87 L705.946 1283.87 L705.946 1283.45 Q705.946 1280.51 704.001 1278.92 Q702.08 1277.29 698.585 1277.29 Q696.363 1277.29 694.256 1277.83 Q692.15 1278.36 690.205 1279.42 L690.205 1275.49 Q692.543 1274.59 694.742 1274.15 Q696.941 1273.68 699.025 1273.68 Q704.649 1273.68 707.427 1276.6 Q710.205 1279.52 710.205 1285.44 Z" fill="#000000" fill-rule="evenodd" fill-opacity="1" /><path clip-path="url(#clip520)" d="M718.978 1264.22 L723.237 1264.22 L723.237 1300.23 L718.978 1300.23 L718.978 1264.22 Z" fill="#000000" fill-rule="evenodd" fill-opacity="1" /><polyline clip-path="url(#clip520)" style="stroke:#000000; stroke-linecap:round; stroke-linejoin:round; stroke-width:4; stroke-opacity:1; fill:none" points="
  304.305,1334.79 447.22,1334.79 
  "/>
<path clip-path="url(#clip520)" d="M487.544 1316.06 L487.544 1319.6 L483.47 1319.6 Q481.178 1319.6 480.276 1320.52 Q479.396 1321.45 479.396 1323.86 L479.396 1326.15 L486.41 1326.15 L486.41 1329.46 L479.396 1329.46 L479.396 1352.07 L475.114 1352.07 L475.114 1329.46 L471.04 1329.46 L471.04 1326.15 L475.114 1326.15 L475.114 1324.34 Q475.114 1320.01 477.128 1318.05 Q479.141 1316.06 483.516 1316.06 L487.544 1316.06 Z" fill="#000000" fill-rule="evenodd" fill-opacity="1" /><path clip-path="url(#clip520)" d="M490.669 1341.84 L490.669 1326.15 L494.928 1326.15 L494.928 1341.68 Q494.928 1345.36 496.364 1347.21 Q497.799 1349.04 500.669 1349.04 Q504.118 1349.04 506.109 1346.84 Q508.123 1344.64 508.123 1340.85 L508.123 1326.15 L512.382 1326.15 L512.382 1352.07 L508.123 1352.07 L508.123 1348.09 Q506.572 1350.45 504.512 1351.61 Q502.475 1352.75 499.766 1352.75 Q495.299 1352.75 492.984 1349.97 Q490.669 1347.19 490.669 1341.84 M501.387 1325.52 L501.387 1325.52 Z" fill="#000000" fill-rule="evenodd" fill-opacity="1" /><path clip-path="url(#clip520)" d="M542.706 1336.43 L542.706 1352.07 L538.447 1352.07 L538.447 1336.57 Q538.447 1332.88 537.012 1331.06 Q535.576 1329.23 532.706 1329.23 Q529.257 1329.23 527.266 1331.43 Q525.275 1333.63 525.275 1337.42 L525.275 1352.07 L520.993 1352.07 L520.993 1326.15 L525.275 1326.15 L525.275 1330.18 Q526.803 1327.84 528.863 1326.68 Q530.947 1325.52 533.655 1325.52 Q538.123 1325.52 540.414 1328.3 Q542.706 1331.06 542.706 1336.43 Z" fill="#000000" fill-rule="evenodd" fill-opacity="1" /><path clip-path="url(#clip520)" d="M569.859 1327.14 L569.859 1331.13 Q568.053 1330.13 566.224 1329.64 Q564.419 1329.13 562.567 1329.13 Q558.423 1329.13 556.132 1331.77 Q553.84 1334.39 553.84 1339.13 Q553.84 1343.88 556.132 1346.52 Q558.423 1349.13 562.567 1349.13 Q564.419 1349.13 566.224 1348.65 Q568.053 1348.14 569.859 1347.14 L569.859 1351.08 Q568.076 1351.91 566.155 1352.33 Q564.257 1352.75 562.104 1352.75 Q556.248 1352.75 552.798 1349.07 Q549.349 1345.38 549.349 1339.13 Q549.349 1332.79 552.822 1329.16 Q556.317 1325.52 562.382 1325.52 Q564.349 1325.52 566.224 1325.94 Q568.099 1326.33 569.859 1327.14 Z" fill="#000000" fill-rule="evenodd" fill-opacity="1" /><path clip-path="url(#clip520)" d="M581.479 1318.79 L581.479 1326.15 L590.252 1326.15 L590.252 1329.46 L581.479 1329.46 L581.479 1343.53 Q581.479 1346.7 582.335 1347.61 Q583.215 1348.51 585.877 1348.51 L590.252 1348.51 L590.252 1352.07 L585.877 1352.07 Q580.946 1352.07 579.071 1350.25 Q577.196 1348.39 577.196 1343.53 L577.196 1329.46 L574.071 1329.46 L574.071 1326.15 L577.196 1326.15 L577.196 1318.79 L581.479 1318.79 Z" fill="#000000" fill-rule="evenodd" fill-opacity="1" /><path clip-path="url(#clip520)" d="M595.854 1326.15 L600.113 1326.15 L600.113 1352.07 L595.854 1352.07 L595.854 1326.15 M595.854 1316.06 L600.113 1316.06 L600.113 1321.45 L595.854 1321.45 L595.854 1316.06 Z" fill="#000000" fill-rule="evenodd" fill-opacity="1" /><path clip-path="url(#clip520)" d="M619.071 1329.13 Q615.645 1329.13 613.655 1331.82 Q611.664 1334.48 611.664 1339.13 Q611.664 1343.79 613.631 1346.47 Q615.622 1349.13 619.071 1349.13 Q622.474 1349.13 624.465 1346.45 Q626.455 1343.76 626.455 1339.13 Q626.455 1334.53 624.465 1331.84 Q622.474 1329.13 619.071 1329.13 M619.071 1325.52 Q624.627 1325.52 627.798 1329.13 Q630.969 1332.75 630.969 1339.13 Q630.969 1345.5 627.798 1349.13 Q624.627 1352.75 619.071 1352.75 Q613.493 1352.75 610.321 1349.13 Q607.173 1345.5 607.173 1339.13 Q607.173 1332.75 610.321 1329.13 Q613.493 1325.52 619.071 1325.52 Z" fill="#000000" fill-rule="evenodd" fill-opacity="1" /><path clip-path="url(#clip520)" d="M659.58 1336.43 L659.58 1352.07 L655.321 1352.07 L655.321 1336.57 Q655.321 1332.88 653.886 1331.06 Q652.451 1329.23 649.58 1329.23 Q646.131 1329.23 644.141 1331.43 Q642.15 1333.63 642.15 1337.42 L642.15 1352.07 L637.867 1352.07 L637.867 1326.15 L642.15 1326.15 L642.15 1330.18 Q643.678 1327.84 645.738 1326.68 Q647.821 1325.52 650.529 1325.52 Q654.997 1325.52 657.289 1328.3 Q659.58 1331.06 659.58 1336.43 Z" fill="#000000" fill-rule="evenodd" fill-opacity="1" /><circle clip-path="url(#clip520)" cx="375.763" cy="1386.63" r="23.04" fill="#3da44d" fill-rule="evenodd" fill-opacity="1" stroke="#000000" stroke-opacity="1" stroke-width="5.12"/>
<path clip-path="url(#clip520)" d="M489.952 1381.92 L489.952 1367.9 L494.211 1367.9 L494.211 1403.91 L489.952 1403.91 L489.952 1400.03 Q488.609 1402.34 486.549 1403.47 Q484.512 1404.59 481.641 1404.59 Q476.942 1404.59 473.979 1400.84 Q471.04 1397.09 471.04 1390.97 Q471.04 1384.86 473.979 1381.11 Q476.942 1377.36 481.641 1377.36 Q484.512 1377.36 486.549 1378.5 Q488.609 1379.61 489.952 1381.92 M475.438 1390.97 Q475.438 1395.67 477.359 1398.36 Q479.303 1401.02 482.683 1401.02 Q486.063 1401.02 488.007 1398.36 Q489.952 1395.67 489.952 1390.97 Q489.952 1386.28 488.007 1383.61 Q486.063 1380.93 482.683 1380.93 Q479.303 1380.93 477.359 1383.61 Q475.438 1386.28 475.438 1390.97 Z" fill="#000000" fill-rule="evenodd" fill-opacity="1" /><path clip-path="url(#clip520)" d="M514.766 1390.88 Q509.604 1390.88 507.614 1392.06 Q505.623 1393.24 505.623 1396.09 Q505.623 1398.36 507.104 1399.7 Q508.609 1401.02 511.178 1401.02 Q514.72 1401.02 516.85 1398.52 Q519.002 1396 519.002 1391.83 L519.002 1390.88 L514.766 1390.88 M523.262 1389.12 L523.262 1403.91 L519.002 1403.91 L519.002 1399.98 Q517.544 1402.34 515.368 1403.47 Q513.192 1404.59 510.044 1404.59 Q506.063 1404.59 503.701 1402.36 Q501.364 1400.12 501.364 1396.37 Q501.364 1391.99 504.28 1389.77 Q507.22 1387.55 513.03 1387.55 L519.002 1387.55 L519.002 1387.13 Q519.002 1384.19 517.058 1382.6 Q515.137 1380.97 511.641 1380.97 Q509.419 1380.97 507.313 1381.51 Q505.206 1382.04 503.262 1383.1 L503.262 1379.17 Q505.6 1378.27 507.799 1377.83 Q509.998 1377.36 512.081 1377.36 Q517.706 1377.36 520.484 1380.28 Q523.262 1383.2 523.262 1389.12 Z" fill="#000000" fill-rule="evenodd" fill-opacity="1" /><path clip-path="url(#clip520)" d="M536.248 1370.63 L536.248 1377.99 L545.021 1377.99 L545.021 1381.3 L536.248 1381.3 L536.248 1395.37 Q536.248 1398.54 537.104 1399.45 Q537.984 1400.35 540.646 1400.35 L545.021 1400.35 L545.021 1403.91 L540.646 1403.91 Q535.715 1403.91 533.84 1402.09 Q531.965 1400.23 531.965 1395.37 L531.965 1381.3 L528.84 1381.3 L528.84 1377.99 L531.965 1377.99 L531.965 1370.63 L536.248 1370.63 Z" fill="#000000" fill-rule="evenodd" fill-opacity="1" /><path clip-path="url(#clip520)" d="M562.405 1390.88 Q557.243 1390.88 555.252 1392.06 Q553.261 1393.24 553.261 1396.09 Q553.261 1398.36 554.743 1399.7 Q556.248 1401.02 558.817 1401.02 Q562.359 1401.02 564.488 1398.52 Q566.641 1396 566.641 1391.83 L566.641 1390.88 L562.405 1390.88 M570.9 1389.12 L570.9 1403.91 L566.641 1403.91 L566.641 1399.98 Q565.183 1402.34 563.007 1403.47 Q560.831 1404.59 557.683 1404.59 Q553.701 1404.59 551.34 1402.36 Q549.002 1400.12 549.002 1396.37 Q549.002 1391.99 551.919 1389.77 Q554.859 1387.55 560.669 1387.55 L566.641 1387.55 L566.641 1387.13 Q566.641 1384.19 564.697 1382.6 Q562.775 1380.97 559.28 1380.97 Q557.058 1380.97 554.951 1381.51 Q552.845 1382.04 550.9 1383.1 L550.9 1379.17 Q553.238 1378.27 555.437 1377.83 Q557.636 1377.36 559.72 1377.36 Q565.345 1377.36 568.122 1380.28 Q570.9 1383.2 570.9 1389.12 Z" fill="#000000" fill-rule="evenodd" fill-opacity="1" /></svg>
