<?xml version="1.0" encoding="utf-8"?>
<svg xmlns="http://www.w3.org/2000/svg" xmlns:xlink="http://www.w3.org/1999/xlink" width="600" height="400" viewBox="0 0 2400 1600">
<defs>
  <clipPath id="clip620">
    <rect x="0" y="0" width="2400" height="1600"/>
  </clipPath>
</defs>
<path clip-path="url(#clip620)" d="
M0 1600 L2400 1600 L2400 0 L0 0  Z
  " fill="#ffffff" fill-rule="evenodd" fill-opacity="1"/>
<defs>
  <clipPath id="clip621">
    <rect x="480" y="0" width="1681" height="1600"/>
  </clipPath>
</defs>
<path clip-path="url(#clip620)" d="
M178.867 1486.45 L2352.76 1486.45 L2352.76 47.2441 L178.867 47.2441  Z
  " fill="#ffffff" fill-rule="evenodd" fill-opacity="1"/>
<defs>
  <clipPath id="clip622">
    <rect x="178" y="47" width="2175" height="1440"/>
  </clipPath>
</defs>
<polyline clip-path="url(#clip622)" style="stroke:#000000; stroke-linecap:round; stroke-linejoin:round; stroke-width:2; stroke-opacity:0.1; fill:none" points="
  240.392,1486.45 240.392,47.2441 
  "/>
<polyline clip-path="url(#clip622)" style="stroke:#000000; stroke-linecap:round; stroke-linejoin:round; stroke-width:2; stroke-opacity:0.1; fill:none" points="
  924.005,1486.45 924.005,47.2441 
  "/>
<polyline clip-path="url(#clip622)" style="stroke:#000000; stroke-linecap:round; stroke-linejoin:round; stroke-width:2; stroke-opacity:0.1; fill:none" points="
  1607.62,1486.45 1607.62,47.2441 
  "/>
<polyline clip-path="url(#clip622)" style="stroke:#000000; stroke-linecap:round; stroke-linejoin:round; stroke-width:2; stroke-opacity:0.1; fill:none" points="
  2291.23,1486.45 2291.23,47.2441 
  "/>
<polyline clip-path="url(#clip620)" style="stroke:#000000; stroke-linecap:round; stroke-linejoin:round; stroke-width:4; stroke-opacity:1; fill:none" points="
  178.867,1486.45 2352.76,1486.45 
  "/>
<polyline clip-path="url(#clip620)" style="stroke:#000000; stroke-linecap:round; stroke-linejoin:round; stroke-width:4; stroke-opacity:1; fill:none" points="
  240.392,1486.45 240.392,1467.55 
  "/>
<polyline clip-path="url(#clip620)" style="stroke:#000000; stroke-linecap:round; stroke-linejoin:round; stroke-width:4; stroke-opacity:1; fill:none" points="
  924.005,1486.45 924.005,1467.55 
  "/>
<polyline clip-path="url(#clip620)" style="stroke:#000000; stroke-linecap:round; stroke-linejoin:round; stroke-width:4; stroke-opacity:1; fill:none" points="
  1607.62,1486.45 1607.62,1467.55 
  "/>
<polyline clip-path="url(#clip620)" style="stroke:#000000; stroke-linecap:round; stroke-linejoin:round; stroke-width:4; stroke-opacity:1; fill:none" points="
  2291.23,1486.45 2291.23,1467.55 
  "/>
<path clip-path="url(#clip620)" d="M240.392 1517.37 Q236.781 1517.37 234.952 1520.93 Q233.146 1524.47 233.146 1531.6 Q233.146 1538.71 234.952 1542.27 Q236.781 1545.82 240.392 1545.82 Q244.026 1545.82 245.832 1542.27 Q247.66 1538.71 247.66 1531.6 Q247.66 1524.47 245.832 1520.93 Q244.026 1517.37 240.392 1517.37 M240.392 1513.66 Q246.202 1513.66 249.257 1518.27 Q252.336 1522.85 252.336 1531.6 Q252.336 1540.33 249.257 1544.94 Q246.202 1549.52 240.392 1549.52 Q234.582 1549.52 231.503 1544.94 Q228.447 1540.33 228.447 1531.6 Q228.447 1522.85 231.503 1518.27 Q234.582 1513.66 240.392 1513.66 Z" fill="#000000" fill-rule="evenodd" fill-opacity="1" /><path clip-path="url(#clip620)" d="M914.387 1544.91 L922.026 1544.91 L922.026 1518.55 L913.715 1520.21 L913.715 1515.95 L921.979 1514.29 L926.655 1514.29 L926.655 1544.91 L934.294 1544.91 L934.294 1548.85 L914.387 1548.85 L914.387 1544.91 Z" fill="#000000" fill-rule="evenodd" fill-opacity="1" /><path clip-path="url(#clip620)" d="M1602.27 1544.91 L1618.59 1544.91 L1618.59 1548.85 L1596.65 1548.85 L1596.65 1544.91 Q1599.31 1542.16 1603.89 1537.53 Q1608.5 1532.88 1609.68 1531.53 Q1611.92 1529.01 1612.8 1527.27 Q1613.71 1525.51 1613.71 1523.82 Q1613.71 1521.07 1611.76 1519.33 Q1609.84 1517.6 1606.74 1517.6 Q1604.54 1517.6 1602.09 1518.36 Q1599.65 1519.13 1596.88 1520.68 L1596.88 1515.95 Q1599.7 1514.82 1602.15 1514.24 Q1604.61 1513.66 1606.65 1513.66 Q1612.02 1513.66 1615.21 1516.35 Q1618.4 1519.03 1618.4 1523.52 Q1618.4 1525.65 1617.59 1527.57 Q1616.81 1529.47 1614.7 1532.07 Q1614.12 1532.74 1611.02 1535.95 Q1607.92 1539.15 1602.27 1544.91 Z" fill="#000000" fill-rule="evenodd" fill-opacity="1" /><path clip-path="url(#clip620)" d="M2295.48 1530.21 Q2298.83 1530.93 2300.71 1533.2 Q2302.61 1535.47 2302.61 1538.8 Q2302.61 1543.92 2299.09 1546.72 Q2295.57 1549.52 2289.09 1549.52 Q2286.91 1549.52 2284.6 1549.08 Q2282.31 1548.66 2279.85 1547.81 L2279.85 1543.29 Q2281.8 1544.43 2284.11 1545.01 Q2286.43 1545.58 2288.95 1545.58 Q2293.35 1545.58 2295.64 1543.85 Q2297.96 1542.11 2297.96 1538.8 Q2297.96 1535.75 2295.8 1534.03 Q2293.67 1532.3 2289.85 1532.3 L2285.83 1532.3 L2285.83 1528.45 L2290.04 1528.45 Q2293.49 1528.45 2295.32 1527.09 Q2297.15 1525.7 2297.15 1523.11 Q2297.15 1520.45 2295.25 1519.03 Q2293.37 1517.6 2289.85 1517.6 Q2287.93 1517.6 2285.73 1518.01 Q2283.53 1518.43 2280.9 1519.31 L2280.9 1515.14 Q2283.56 1514.4 2285.87 1514.03 Q2288.21 1513.66 2290.27 1513.66 Q2295.59 1513.66 2298.7 1516.09 Q2301.8 1518.5 2301.8 1522.62 Q2301.8 1525.49 2300.15 1527.48 Q2298.51 1529.45 2295.48 1530.21 Z" fill="#000000" fill-rule="evenodd" fill-opacity="1" /><polyline clip-path="url(#clip622)" style="stroke:#000000; stroke-linecap:round; stroke-linejoin:round; stroke-width:2; stroke-opacity:0.1; fill:none" points="
  178.867,1438.93 2352.76,1438.93 
  "/>
<polyline clip-path="url(#clip622)" style="stroke:#000000; stroke-linecap:round; stroke-linejoin:round; stroke-width:2; stroke-opacity:0.1; fill:none" points="
  178.867,1003.76 2352.76,1003.76 
  "/>
<polyline clip-path="url(#clip622)" style="stroke:#000000; stroke-linecap:round; stroke-linejoin:round; stroke-width:2; stroke-opacity:0.1; fill:none" points="
  178.867,568.596 2352.76,568.596 
  "/>
<polyline clip-path="url(#clip622)" style="stroke:#000000; stroke-linecap:round; stroke-linejoin:round; stroke-width:2; stroke-opacity:0.1; fill:none" points="
  178.867,133.431 2352.76,133.431 
  "/>
<polyline clip-path="url(#clip620)" style="stroke:#000000; stroke-linecap:round; stroke-linejoin:round; stroke-width:4; stroke-opacity:1; fill:none" points="
  178.867,1486.45 178.867,47.2441 
  "/>
<polyline clip-path="url(#clip620)" style="stroke:#000000; stroke-linecap:round; stroke-linejoin:round; stroke-width:4; stroke-opacity:1; fill:none" points="
  178.867,1438.93 197.764,1438.93 
  "/>
<polyline clip-path="url(#clip620)" style="stroke:#000000; stroke-linecap:round; stroke-linejoin:round; stroke-width:4; stroke-opacity:1; fill:none" points="
  178.867,1003.76 197.764,1003.76 
  "/>
<polyline clip-path="url(#clip620)" style="stroke:#000000; stroke-linecap:round; stroke-linejoin:round; stroke-width:4; stroke-opacity:1; fill:none" points="
  178.867,568.596 197.764,568.596 
  "/>
<polyline clip-path="url(#clip620)" style="stroke:#000000; stroke-linecap:round; stroke-linejoin:round; stroke-width:4; stroke-opacity:1; fill:none" points="
  178.867,133.431 197.764,133.431 
  "/>
<path clip-path="url(#clip620)" d="M50.9921 1439.38 L80.6679 1439.38 L80.6679 1443.31 L50.9921 1443.31 L50.9921 1439.38 Z" fill="#000000" fill-rule="evenodd" fill-opacity="1" /><path clip-path="url(#clip620)" d="M104.927 1437.57 Q108.283 1438.29 110.158 1440.56 Q112.057 1442.83 112.057 1446.16 Q112.057 1451.28 108.538 1454.08 Q105.02 1456.88 98.5382 1456.88 Q96.3623 1456.88 94.0475 1456.44 Q91.7558 1456.02 89.3021 1455.17 L89.3021 1450.65 Q91.2465 1451.79 93.5613 1452.36 Q95.8761 1452.94 98.3993 1452.94 Q102.797 1452.94 105.089 1451.21 Q107.404 1449.47 107.404 1446.16 Q107.404 1443.11 105.251 1441.39 Q103.121 1439.66 99.3021 1439.66 L95.2743 1439.66 L95.2743 1435.81 L99.4872 1435.81 Q102.936 1435.81 104.765 1434.45 Q106.594 1433.06 106.594 1430.47 Q106.594 1427.8 104.696 1426.39 Q102.821 1424.96 99.3021 1424.96 Q97.3808 1424.96 95.1817 1425.37 Q92.9826 1425.79 90.3438 1426.67 L90.3438 1422.5 Q93.0058 1421.76 95.3206 1421.39 Q97.6585 1421.02 99.7187 1421.02 Q105.043 1421.02 108.145 1423.45 Q111.246 1425.86 111.246 1429.98 Q111.246 1432.85 109.603 1434.84 Q107.959 1436.81 104.927 1437.57 Z" fill="#000000" fill-rule="evenodd" fill-opacity="1" /><path clip-path="url(#clip620)" d="M130.922 1424.73 Q127.311 1424.73 125.482 1428.29 Q123.677 1431.83 123.677 1438.96 Q123.677 1446.07 125.482 1449.63 Q127.311 1453.18 130.922 1453.18 Q134.556 1453.18 136.362 1449.63 Q138.191 1446.07 138.191 1438.96 Q138.191 1431.83 136.362 1428.29 Q134.556 1424.73 130.922 1424.73 M130.922 1421.02 Q136.732 1421.02 139.788 1425.63 Q142.867 1430.21 142.867 1438.96 Q142.867 1447.69 139.788 1452.3 Q136.732 1456.88 130.922 1456.88 Q125.112 1456.88 122.033 1452.3 Q118.978 1447.69 118.978 1438.96 Q118.978 1430.21 122.033 1425.63 Q125.112 1421.02 130.922 1421.02 Z" fill="#000000" fill-rule="evenodd" fill-opacity="1" /><path clip-path="url(#clip620)" d="M50.9921 1004.21 L80.6679 1004.21 L80.6679 1008.15 L50.9921 1008.15 L50.9921 1004.21 Z" fill="#000000" fill-rule="evenodd" fill-opacity="1" /><path clip-path="url(#clip620)" d="M94.7882 1017.11 L111.108 1017.11 L111.108 1021.04 L89.1632 1021.04 L89.1632 1017.11 Q91.8252 1014.35 96.4085 1009.72 Q101.015 1005.07 102.196 1003.73 Q104.441 1001.2 105.321 999.468 Q106.223 997.709 106.223 996.019 Q106.223 993.264 104.279 991.528 Q102.358 989.792 99.2558 989.792 Q97.0567 989.792 94.603 990.556 Q92.1725 991.32 89.3947 992.871 L89.3947 988.148 Q92.2188 987.014 94.6724 986.435 Q97.1261 985.857 99.1632 985.857 Q104.534 985.857 107.728 988.542 Q110.922 991.227 110.922 995.718 Q110.922 997.847 110.112 999.769 Q109.325 1001.67 107.219 1004.26 Q106.64 1004.93 103.538 1008.15 Q100.436 1011.34 94.7882 1017.11 Z" fill="#000000" fill-rule="evenodd" fill-opacity="1" /><path clip-path="url(#clip620)" d="M130.922 989.56 Q127.311 989.56 125.482 993.125 Q123.677 996.667 123.677 1003.8 Q123.677 1010.9 125.482 1014.47 Q127.311 1018.01 130.922 1018.01 Q134.556 1018.01 136.362 1014.47 Q138.191 1010.9 138.191 1003.8 Q138.191 996.667 136.362 993.125 Q134.556 989.56 130.922 989.56 M130.922 985.857 Q136.732 985.857 139.788 990.463 Q142.867 995.047 142.867 1003.8 Q142.867 1012.52 139.788 1017.13 Q136.732 1021.71 130.922 1021.71 Q125.112 1021.71 122.033 1017.13 Q118.978 1012.52 118.978 1003.8 Q118.978 995.047 122.033 990.463 Q125.112 985.857 130.922 985.857 Z" fill="#000000" fill-rule="evenodd" fill-opacity="1" /><path clip-path="url(#clip620)" d="M50.9921 569.048 L80.6679 569.048 L80.6679 572.983 L50.9921 572.983 L50.9921 569.048 Z" fill="#000000" fill-rule="evenodd" fill-opacity="1" /><path clip-path="url(#clip620)" d="M91.5706 581.941 L99.2095 581.941 L99.2095 555.575 L90.8993 557.242 L90.8993 552.983 L99.1632 551.316 L103.839 551.316 L103.839 581.941 L111.478 581.941 L111.478 585.876 L91.5706 585.876 L91.5706 581.941 Z" fill="#000000" fill-rule="evenodd" fill-opacity="1" /><path clip-path="url(#clip620)" d="M130.922 554.395 Q127.311 554.395 125.482 557.96 Q123.677 561.501 123.677 568.631 Q123.677 575.737 125.482 579.302 Q127.311 582.844 130.922 582.844 Q134.556 582.844 136.362 579.302 Q138.191 575.737 138.191 568.631 Q138.191 561.501 136.362 557.96 Q134.556 554.395 130.922 554.395 M130.922 550.691 Q136.732 550.691 139.788 555.298 Q142.867 559.881 142.867 568.631 Q142.867 577.358 139.788 581.964 Q136.732 586.547 130.922 586.547 Q125.112 586.547 122.033 581.964 Q118.978 577.358 118.978 568.631 Q118.978 559.881 122.033 555.298 Q125.112 550.691 130.922 550.691 Z" fill="#000000" fill-rule="evenodd" fill-opacity="1" /><path clip-path="url(#clip620)" d="M130.922 119.229 Q127.311 119.229 125.482 122.794 Q123.677 126.336 123.677 133.465 Q123.677 140.572 125.482 144.137 Q127.311 147.678 130.922 147.678 Q134.556 147.678 136.362 144.137 Q138.191 140.572 138.191 133.465 Q138.191 126.336 136.362 122.794 Q134.556 119.229 130.922 119.229 M130.922 115.526 Q136.732 115.526 139.788 120.132 Q142.867 124.715 142.867 133.465 Q142.867 142.192 139.788 146.799 Q136.732 151.382 130.922 151.382 Q125.112 151.382 122.033 146.799 Q118.978 142.192 118.978 133.465 Q118.978 124.715 122.033 120.132 Q125.112 115.526 130.922 115.526 Z" fill="#000000" fill-rule="evenodd" fill-opacity="1" /><polyline clip-path="url(#clip622)" style="stroke:#009af9; stroke-linecap:round; stroke-linejoin:round; stroke-width:4; stroke-opacity:1; fill:none" points="
  240.392,96.8126 253.744,96.2597 377.203,92.6216 451.397,90.9191 514.127,90.0522 582.269,90.0438 645.091,91.1366 712.442,93.7606 790.474,99.1714 859.821,106.621 
  920.631,115.464 986.931,127.481 1053.62,141.396 1127.36,157.134 1197.52,169.726 1234,174.256 1270.47,176.788 1301.18,177.055 1331.88,175.398 1369.37,170.577 
  1406.86,162.639 1441.2,152.817 1475.54,140.988 1507.25,128.887 1538.97,116.472 1571.09,104.648 1603.22,94.9341 1621.22,91.0095 1639.23,88.5753 1657.23,87.9763 
  1675.23,89.5779 1691.54,93.2499 1707.86,99.3379 1724.17,108.143 1740.48,119.967 1749.82,128.213 1759.16,137.602 1768.5,148.192 1777.84,160.034 1787.18,173.18 
  1796.52,187.681 1805.86,203.582 1815.2,220.929 1823.84,238.314 1832.49,257.001 1841.14,277.016 1849.78,298.381 1858.43,321.113 1867.08,345.225 1875.72,370.725 
  1884.37,397.614 1892.9,425.479 1901.42,454.681 1909.94,485.201 1918.47,517.015 1926.99,550.09 1935.52,584.384 1944.04,619.845 1952.57,656.413 1969.12,730.301 
  1985.68,807.423 2002.23,886.936 2018.78,967.787 2035.75,1050.71 2052.72,1132 2061.21,1171.42 2069.69,1209.65 2078.18,1246.39 2086.66,1281.3 2095.96,1317.03 
  2105.26,1349.61 2109.9,1364.56 2114.55,1378.51 2119.2,1391.39 2123.85,1403.12 2128.5,1413.62 2133.14,1422.8 2137.79,1430.57 2142.44,1436.84 2147.09,1441.53 
  2151.74,1444.52 2156.39,1445.72 2161.03,1445.01 2164.41,1443.25 2167.79,1440.39 2171.16,1436.38 2174.54,1431.18 2177.91,1424.74 2181.29,1417.01 2184.67,1407.95 
  2188.04,1397.51 2191.42,1385.63 2194.79,1372.27 2198.17,1357.36 2201.55,1340.86 2204.92,1322.71 2208.3,1302.85 2211.67,1281.22 2215.05,1257.77 2218.43,1232.43 
  2221.8,1205.13 2225.18,1175.83 2228.55,1144.44 2231.93,1110.91 2235.31,1075.16 2238.68,1037.13 2242.06,996.74 2245.43,953.922 2248.81,908.6 2252.19,860.699 
  2255.56,810.141 2258.94,756.846 2262.32,700.734 2265.69,641.722 2269.07,579.725 2270.45,553.404 2271.84,526.56 2273.22,499.187 2274.61,471.279 2277.38,413.832 
  2280.15,354.169 2282.92,292.24 2285.69,227.992 2288.46,161.374 2291.23,92.3304 
  "/>
<polyline clip-path="url(#clip622)" style="stroke:#000000; stroke-linecap:round; stroke-linejoin:round; stroke-width:4; stroke-opacity:1; fill:none" points="
  240.392,96.8126 247.068,96.5837 253.744,96.356 315.474,94.3357 377.203,92.5409 414.3,91.6222 451.397,90.8627 482.762,90.3723 514.127,90.0475 531.163,89.95 
  548.198,89.9141 565.234,89.9446 582.269,90.0466 597.975,90.2085 613.68,90.4399 629.385,90.7451 645.091,91.1284 661.928,91.6314 678.766,92.235 695.604,92.9449 
  712.442,93.7666 731.95,94.8659 751.458,96.1311 770.966,97.5703 790.474,99.191 807.811,100.789 825.147,102.54 842.484,104.447 859.821,106.513 875.023,108.456 
  890.226,110.523 905.428,112.714 920.631,115.025 937.206,117.682 953.781,120.475 970.356,123.399 986.931,126.445 1003.6,129.622 1020.28,132.898 1036.95,136.259 
  1053.62,139.684 1090.49,147.379 1127.36,154.995 1144.9,158.487 1162.44,161.835 1179.98,164.988 1197.52,167.895 1206.64,169.29 1215.76,170.595 1224.88,171.803 
  1234,172.904 1243.12,173.89 1252.24,174.754 1261.35,175.487 1270.47,176.079 1278.15,176.464 1285.83,176.74 1293.5,176.902 1301.18,176.946 1308.85,176.867 
  1316.53,176.662 1324.21,176.327 1331.88,175.859 1341.25,175.102 1350.63,174.138 1360,172.961 1369.37,171.571 1378.74,169.966 1388.11,168.145 1397.48,166.11 
  1406.86,163.865 1415.44,161.628 1424.03,159.223 1432.61,156.658 1441.2,153.939 1449.78,151.077 1458.37,148.083 1466.95,144.968 1475.54,141.749 1491.39,135.579 
  1507.25,129.22 1523.11,122.806 1538.97,116.489 1547,113.38 1555.03,110.36 1563.06,107.455 1571.09,104.689 1579.13,102.086 1587.16,99.6701 1591.17,98.5405 
  1595.19,97.467 1599.2,96.4528 1603.22,95.5007 1607.72,94.5113 1612.22,93.6077 1616.72,92.794 1621.22,92.074 1625.72,91.4514 1630.22,90.9298 1634.73,90.5125 
  1639.23,90.2027 1643.73,90.0035 1648.23,89.9175 1652.73,89.9473 1657.23,90.095 1661.73,90.3627 1666.23,90.7519 1670.73,91.2639 1675.23,91.8997 1679.31,92.5833 
  1683.39,93.3691 1687.47,94.257 1691.54,95.2466 1695.62,96.3373 1699.7,97.528 1703.78,98.8174 1707.86,100.204 1711.94,101.686 1716.01,103.26 1720.09,104.924 
  1724.17,106.676 1728.25,108.512 1732.33,110.427 1736.41,112.419 1740.48,114.482 1745.15,116.926 1749.82,119.449 1754.49,122.044 1759.16,124.702 1768.5,130.166 
  1777.84,135.758 1787.18,141.387 1796.52,146.956 1801.19,149.685 1805.86,152.36 1810.53,154.966 1815.2,157.491 1819.52,159.744 1823.84,161.904 1828.17,163.96 
  1832.49,165.902 1836.81,167.719 1841.14,169.401 1845.46,170.937 1849.78,172.318 1854.11,173.535 1858.43,174.58 1862.75,175.443 1867.08,176.117 1871.4,176.596 
  1875.72,176.874 1880.05,176.944 1884.37,176.804 1888.63,176.456 1892.9,175.898 1897.16,175.127 1901.42,174.145 1905.68,172.952 1909.94,171.551 1914.21,169.944 
  1918.47,168.137 1922.73,166.135 1926.99,163.945 1931.26,161.577 1935.52,159.039 1939.78,156.343 1944.04,153.501 1948.31,150.528 1952.57,147.437 1960.85,141.162 
  1969.12,134.637 1977.4,128.005 1985.68,121.421 1989.82,118.198 1993.95,115.049 1998.09,111.996 2002.23,109.058 2006.37,106.258 2010.51,103.616 2014.65,101.152 
  2018.78,98.8864 2020.91,97.8081 2023.03,96.7893 2025.15,95.8323 2027.27,94.9395 2029.39,94.1131 2031.51,93.3552 2033.63,92.6679 2035.75,92.053 2037.88,91.5125 
  2040,91.048 2042.12,90.6611 2044.24,90.3533 2046.36,90.1259 2048.48,89.98 2050.6,89.9168 2052.72,89.9371 2054.85,90.0416 2056.97,90.231 2059.09,90.5057 
  2061.21,90.8659 2063.33,91.3116 2065.45,91.8429 2067.57,92.4594 2069.69,93.1606 2071.82,93.9459 2073.94,94.8145 2076.06,95.7653 2078.18,96.7972 2080.3,97.9086 
  2082.42,99.0981 2084.54,100.364 2086.66,101.704 2088.99,103.254 2091.31,104.888 2093.64,106.601 2095.96,108.391 2098.28,110.253 2100.61,112.183 2102.93,114.176 
  2105.26,116.227 2109.9,120.486 2114.55,124.916 2119.2,129.472 2123.85,134.103 2128.5,138.757 2133.14,143.382 2137.79,147.921 2142.44,152.318 2144.76,154.445 
  2147.09,156.516 2149.41,158.523 2151.74,160.459 2154.06,162.318 2156.39,164.094 2158.71,165.778 2161.03,167.366 2162.72,168.456 2164.41,169.488 2166.1,170.462 
  2167.79,171.375 2169.47,172.226 2171.16,173.011 2172.85,173.73 2174.54,174.38 2176.23,174.961 2177.91,175.47 2179.6,175.905 2181.29,176.267 2182.98,176.552 
  2184.67,176.761 2186.35,176.893 2188.04,176.946 2189.73,176.92 2191.42,176.814 2193.11,176.628 2194.79,176.362 2196.48,176.016 2198.17,175.589 2199.86,175.082 
  2201.55,174.496 2203.23,173.83 2204.92,173.086 2206.61,172.263 2208.3,171.365 2209.99,170.39 2211.67,169.342 2213.36,168.221 2215.05,167.029 2216.74,165.767 
  2218.43,164.439 2220.11,163.046 2221.8,161.589 2223.49,160.073 2225.18,158.499 2226.87,156.871 2228.55,155.19 2231.93,151.686 2235.31,148.014 2238.68,144.201 
  2242.06,140.279 2248.81,132.234 2255.56,124.151 2258.94,120.186 2262.32,116.32 2265.69,112.589 2269.07,109.031 2271.84,106.265 2274.61,103.658 2277.38,101.228 
  2280.15,98.9939 2281.53,97.9553 2282.92,96.9719 2284.3,96.0454 2285.69,95.1778 2287.08,94.3709 2288.46,93.6263 2289.85,92.9456 2291.23,92.3304 
  "/>
<circle clip-path="url(#clip622)" cx="240.392" cy="96.8126" r="14.4" fill="#3da44d" fill-rule="evenodd" fill-opacity="1" stroke="#000000" stroke-opacity="1" stroke-width="3.2"/>
<circle clip-path="url(#clip622)" cx="813.452" cy="101.342" r="14.4" fill="#3da44d" fill-rule="evenodd" fill-opacity="1" stroke="#000000" stroke-opacity="1" stroke-width="3.2"/>
<circle clip-path="url(#clip622)" cx="1564.93" cy="106.797" r="14.4" fill="#3da44d" fill-rule="evenodd" fill-opacity="1" stroke="#000000" stroke-opacity="1" stroke-width="3.2"/>
<circle clip-path="url(#clip622)" cx="332.342" cy="93.8181" r="14.4" fill="#3da44d" fill-rule="evenodd" fill-opacity="1" stroke="#000000" stroke-opacity="1" stroke-width="3.2"/>
<circle clip-path="url(#clip622)" cx="1306.8" cy="176.901" r="14.4" fill="#3da44d" fill-rule="evenodd" fill-opacity="1" stroke="#000000" stroke-opacity="1" stroke-width="3.2"/>
<circle clip-path="url(#clip622)" cx="596.051" cy="90.1851" r="14.4" fill="#3da44d" fill-rule="evenodd" fill-opacity="1" stroke="#000000" stroke-opacity="1" stroke-width="3.2"/>
<circle clip-path="url(#clip622)" cx="696.713" cy="92.9955" r="14.4" fill="#3da44d" fill-rule="evenodd" fill-opacity="1" stroke="#000000" stroke-opacity="1" stroke-width="3.2"/>
<circle clip-path="url(#clip622)" cx="1542.25" cy="115.211" r="14.4" fill="#3da44d" fill-rule="evenodd" fill-opacity="1" stroke="#000000" stroke-opacity="1" stroke-width="3.2"/>
<circle clip-path="url(#clip622)" cx="524.945" cy="89.9787" r="14.4" fill="#3da44d" fill-rule="evenodd" fill-opacity="1" stroke="#000000" stroke-opacity="1" stroke-width="3.2"/>
<circle clip-path="url(#clip622)" cx="2291.23" cy="92.3304" r="14.4" fill="#3da44d" fill-rule="evenodd" fill-opacity="1" stroke="#000000" stroke-opacity="1" stroke-width="3.2"/>
<path clip-path="url(#clip620)" d="
M251.33 1438.47 L745.071 1438.47 L745.071 1231.11 L251.33 1231.11  Z
  " fill="#ffffff" fill-rule="evenodd" fill-opacity="1"/>
<polyline clip-path="url(#clip620)" style="stroke:#000000; stroke-linecap:round; stroke-linejoin:round; stroke-width:4; stroke-opacity:1; fill:none" points="
  251.33,1438.47 745.071,1438.47 745.071,1231.11 251.33,1231.11 251.33,1438.47 
  "/>
<polyline clip-path="url(#clip620)" style="stroke:#009af9; stroke-linecap:round; stroke-linejoin:round; stroke-width:4; stroke-opacity:1; fill:none" points="
  275.484,1282.95 420.41,1282.95 
  "/>
<path clip-path="url(#clip620)" d="M448.847 1296.35 L448.847 1310.1 L444.564 1310.1 L444.564 1274.31 L448.847 1274.31 L448.847 1278.24 Q450.189 1275.93 452.226 1274.82 Q454.286 1273.68 457.134 1273.68 Q461.856 1273.68 464.796 1277.43 Q467.759 1281.18 467.759 1287.29 Q467.759 1293.41 464.796 1297.16 Q461.856 1300.91 457.134 1300.91 Q454.286 1300.91 452.226 1299.79 Q450.189 1298.66 448.847 1296.35 M463.337 1287.29 Q463.337 1282.6 461.393 1279.93 Q459.472 1277.25 456.092 1277.25 Q452.712 1277.25 450.768 1279.93 Q448.847 1282.6 448.847 1287.29 Q448.847 1291.99 450.768 1294.68 Q452.712 1297.34 456.092 1297.34 Q459.472 1297.34 461.393 1294.68 Q463.337 1291.99 463.337 1287.29 Z" fill="#000000" fill-rule="evenodd" fill-opacity="1" /><path clip-path="url(#clip620)" d="M484.865 1277.29 Q481.439 1277.29 479.448 1279.98 Q477.458 1282.64 477.458 1287.29 Q477.458 1291.95 479.425 1294.63 Q481.416 1297.29 484.865 1297.29 Q488.268 1297.29 490.258 1294.61 Q492.249 1291.92 492.249 1287.29 Q492.249 1282.69 490.258 1280 Q488.268 1277.29 484.865 1277.29 M484.865 1273.68 Q490.42 1273.68 493.592 1277.29 Q496.763 1280.91 496.763 1287.29 Q496.763 1293.66 493.592 1297.29 Q490.42 1300.91 484.865 1300.91 Q479.286 1300.91 476.115 1297.29 Q472.967 1293.66 472.967 1287.29 Q472.967 1280.91 476.115 1277.29 Q479.286 1273.68 484.865 1273.68 Z" fill="#000000" fill-rule="evenodd" fill-opacity="1" /><path clip-path="url(#clip620)" d="M503.823 1264.22 L508.082 1264.22 L508.082 1300.23 L503.823 1300.23 L503.823 1264.22 Z" fill="#000000" fill-rule="evenodd" fill-opacity="1" /><path clip-path="url(#clip620)" d="M527.781 1302.64 Q525.976 1307.27 524.263 1308.68 Q522.55 1310.1 519.68 1310.1 L516.277 1310.1 L516.277 1306.53 L518.777 1306.53 Q520.536 1306.53 521.508 1305.7 Q522.48 1304.86 523.661 1301.76 L524.425 1299.82 L513.939 1274.31 L518.453 1274.31 L526.555 1294.59 L534.656 1274.31 L539.17 1274.31 L527.781 1302.64 Z" fill="#000000" fill-rule="evenodd" fill-opacity="1" /><path clip-path="url(#clip620)" d="M566.601 1284.59 L566.601 1300.23 L562.341 1300.23 L562.341 1284.73 Q562.341 1281.04 560.906 1279.22 Q559.471 1277.39 556.601 1277.39 Q553.152 1277.39 551.161 1279.59 Q549.17 1281.79 549.17 1285.58 L549.17 1300.23 L544.888 1300.23 L544.888 1274.31 L549.17 1274.31 L549.17 1278.34 Q550.698 1276 552.758 1274.84 Q554.841 1273.68 557.55 1273.68 Q562.017 1273.68 564.309 1276.46 Q566.601 1279.22 566.601 1284.59 Z" fill="#000000" fill-rule="evenodd" fill-opacity="1" /><path clip-path="url(#clip620)" d="M585.142 1277.29 Q581.716 1277.29 579.726 1279.98 Q577.735 1282.64 577.735 1287.29 Q577.735 1291.95 579.702 1294.63 Q581.693 1297.29 585.142 1297.29 Q588.545 1297.29 590.536 1294.61 Q592.526 1291.92 592.526 1287.29 Q592.526 1282.69 590.536 1280 Q588.545 1277.29 585.142 1277.29 M585.142 1273.68 Q590.698 1273.68 593.869 1277.29 Q597.04 1280.91 597.04 1287.29 Q597.04 1293.66 593.869 1297.29 Q590.698 1300.91 585.142 1300.91 Q579.563 1300.91 576.392 1297.29 Q573.244 1293.66 573.244 1287.29 Q573.244 1280.91 576.392 1277.29 Q579.563 1273.68 585.142 1273.68 Z" fill="#000000" fill-rule="evenodd" fill-opacity="1" /><path clip-path="url(#clip620)" d="M624.285 1279.29 Q625.883 1276.42 628.105 1275.05 Q630.327 1273.68 633.336 1273.68 Q637.387 1273.68 639.586 1276.53 Q641.785 1279.35 641.785 1284.59 L641.785 1300.23 L637.503 1300.23 L637.503 1284.73 Q637.503 1281 636.184 1279.19 Q634.864 1277.39 632.156 1277.39 Q628.846 1277.39 626.924 1279.59 Q625.003 1281.79 625.003 1285.58 L625.003 1300.23 L620.721 1300.23 L620.721 1284.73 Q620.721 1280.98 619.401 1279.19 Q618.082 1277.39 615.327 1277.39 Q612.063 1277.39 610.142 1279.61 Q608.221 1281.81 608.221 1285.58 L608.221 1300.23 L603.938 1300.23 L603.938 1274.31 L608.221 1274.31 L608.221 1278.34 Q609.679 1275.95 611.716 1274.82 Q613.753 1273.68 616.554 1273.68 Q619.378 1273.68 621.346 1275.12 Q623.336 1276.55 624.285 1279.29 Z" fill="#000000" fill-rule="evenodd" fill-opacity="1" /><path clip-path="url(#clip620)" d="M650.281 1274.31 L654.54 1274.31 L654.54 1300.23 L650.281 1300.23 L650.281 1274.31 M650.281 1264.22 L654.54 1264.22 L654.54 1269.61 L650.281 1269.61 L650.281 1264.22 Z" fill="#000000" fill-rule="evenodd" fill-opacity="1" /><path clip-path="url(#clip620)" d="M675.234 1287.2 Q670.072 1287.2 668.082 1288.38 Q666.091 1289.56 666.091 1292.41 Q666.091 1294.68 667.572 1296.02 Q669.077 1297.34 671.646 1297.34 Q675.188 1297.34 677.318 1294.84 Q679.47 1292.32 679.47 1288.15 L679.47 1287.2 L675.234 1287.2 M683.73 1285.44 L683.73 1300.23 L679.47 1300.23 L679.47 1296.3 Q678.012 1298.66 675.836 1299.79 Q673.66 1300.91 670.512 1300.91 Q666.531 1300.91 664.17 1298.68 Q661.832 1296.44 661.832 1292.69 Q661.832 1288.31 664.748 1286.09 Q667.688 1283.87 673.498 1283.87 L679.47 1283.87 L679.47 1283.45 Q679.47 1280.51 677.526 1278.92 Q675.605 1277.29 672.109 1277.29 Q669.887 1277.29 667.781 1277.83 Q665.674 1278.36 663.73 1279.42 L663.73 1275.49 Q666.068 1274.59 668.267 1274.15 Q670.466 1273.68 672.549 1273.68 Q678.174 1273.68 680.952 1276.6 Q683.73 1279.52 683.73 1285.44 Z" fill="#000000" fill-rule="evenodd" fill-opacity="1" /><path clip-path="url(#clip620)" d="M692.503 1264.22 L696.762 1264.22 L696.762 1300.23 L692.503 1300.23 L692.503 1264.22 Z" fill="#000000" fill-rule="evenodd" fill-opacity="1" /><polyline clip-path="url(#clip620)" style="stroke:#000000; stroke-linecap:round; stroke-linejoin:round; stroke-width:4; stroke-opacity:1; fill:none" points="
  275.484,1334.79 420.41,1334.79 
  "/>
<path clip-path="url(#clip620)" d="M461.069 1316.06 L461.069 1319.6 L456.995 1319.6 Q454.703 1319.6 453.8 1320.52 Q452.921 1321.45 452.921 1323.86 L452.921 1326.15 L459.934 1326.15 L459.934 1329.46 L452.921 1329.46 L452.921 1352.07 L448.638 1352.07 L448.638 1329.46 L444.564 1329.46 L444.564 1326.15 L448.638 1326.15 L448.638 1324.34 Q448.638 1320.01 450.652 1318.05 Q452.666 1316.06 457.041 1316.06 L461.069 1316.06 Z" fill="#000000" fill-rule="evenodd" fill-opacity="1" /><path clip-path="url(#clip620)" d="M464.194 1341.84 L464.194 1326.15 L468.453 1326.15 L468.453 1341.68 Q468.453 1345.36 469.888 1347.21 Q471.323 1349.04 474.194 1349.04 Q477.643 1349.04 479.633 1346.84 Q481.647 1344.64 481.647 1340.85 L481.647 1326.15 L485.907 1326.15 L485.907 1352.07 L481.647 1352.07 L481.647 1348.09 Q480.096 1350.45 478.036 1351.61 Q475.999 1352.75 473.291 1352.75 Q468.823 1352.75 466.509 1349.97 Q464.194 1347.19 464.194 1341.84 M474.911 1325.52 L474.911 1325.52 Z" fill="#000000" fill-rule="evenodd" fill-opacity="1" /><path clip-path="url(#clip620)" d="M516.23 1336.43 L516.23 1352.07 L511.971 1352.07 L511.971 1336.57 Q511.971 1332.88 510.536 1331.06 Q509.101 1329.23 506.231 1329.23 Q502.781 1329.23 500.791 1331.43 Q498.8 1333.63 498.8 1337.42 L498.8 1352.07 L494.518 1352.07 L494.518 1326.15 L498.8 1326.15 L498.8 1330.18 Q500.328 1327.84 502.388 1326.68 Q504.471 1325.52 507.18 1325.52 Q511.647 1325.52 513.939 1328.3 Q516.23 1331.06 516.23 1336.43 Z" fill="#000000" fill-rule="evenodd" fill-opacity="1" /><path clip-path="url(#clip620)" d="M543.383 1327.14 L543.383 1331.13 Q541.578 1330.13 539.749 1329.64 Q537.943 1329.13 536.091 1329.13 Q531.948 1329.13 529.656 1331.77 Q527.365 1334.39 527.365 1339.13 Q527.365 1343.88 529.656 1346.52 Q531.948 1349.13 536.091 1349.13 Q537.943 1349.13 539.749 1348.65 Q541.578 1348.14 543.383 1347.14 L543.383 1351.08 Q541.601 1351.91 539.679 1352.33 Q537.781 1352.75 535.629 1352.75 Q529.772 1352.75 526.323 1349.07 Q522.874 1345.38 522.874 1339.13 Q522.874 1332.79 526.346 1329.16 Q529.842 1325.52 535.906 1325.52 Q537.874 1325.52 539.749 1325.94 Q541.624 1326.33 543.383 1327.14 Z" fill="#000000" fill-rule="evenodd" fill-opacity="1" /><path clip-path="url(#clip620)" d="M555.003 1318.79 L555.003 1326.15 L563.777 1326.15 L563.777 1329.46 L555.003 1329.46 L555.003 1343.53 Q555.003 1346.7 555.86 1347.61 Q556.74 1348.51 559.402 1348.51 L563.777 1348.51 L563.777 1352.07 L559.402 1352.07 Q554.471 1352.07 552.596 1350.25 Q550.721 1348.39 550.721 1343.53 L550.721 1329.46 L547.596 1329.46 L547.596 1326.15 L550.721 1326.15 L550.721 1318.79 L555.003 1318.79 Z" fill="#000000" fill-rule="evenodd" fill-opacity="1" /><path clip-path="url(#clip620)" d="M569.378 1326.15 L573.638 1326.15 L573.638 1352.07 L569.378 1352.07 L569.378 1326.15 M569.378 1316.06 L573.638 1316.06 L573.638 1321.45 L569.378 1321.45 L569.378 1316.06 Z" fill="#000000" fill-rule="evenodd" fill-opacity="1" /><path clip-path="url(#clip620)" d="M592.596 1329.13 Q589.17 1329.13 587.179 1331.82 Q585.188 1334.48 585.188 1339.13 Q585.188 1343.79 587.156 1346.47 Q589.147 1349.13 592.596 1349.13 Q595.999 1349.13 597.989 1346.45 Q599.98 1343.76 599.98 1339.13 Q599.98 1334.53 597.989 1331.84 Q595.999 1329.13 592.596 1329.13 M592.596 1325.52 Q598.151 1325.52 601.323 1329.13 Q604.494 1332.75 604.494 1339.13 Q604.494 1345.5 601.323 1349.13 Q598.151 1352.75 592.596 1352.75 Q587.017 1352.75 583.846 1349.13 Q580.698 1345.5 580.698 1339.13 Q580.698 1332.75 583.846 1329.13 Q587.017 1325.52 592.596 1325.52 Z" fill="#000000" fill-rule="evenodd" fill-opacity="1" /><path clip-path="url(#clip620)" d="M633.105 1336.43 L633.105 1352.07 L628.846 1352.07 L628.846 1336.57 Q628.846 1332.88 627.41 1331.06 Q625.975 1329.23 623.105 1329.23 Q619.656 1329.23 617.665 1331.43 Q615.674 1333.63 615.674 1337.42 L615.674 1352.07 L611.392 1352.07 L611.392 1326.15 L615.674 1326.15 L615.674 1330.18 Q617.202 1327.84 619.262 1326.68 Q621.346 1325.52 624.054 1325.52 Q628.522 1325.52 630.813 1328.3 Q633.105 1331.06 633.105 1336.43 Z" fill="#000000" fill-rule="evenodd" fill-opacity="1" /><circle clip-path="url(#clip620)" cx="347.947" cy="1386.63" r="23.04" fill="#3da44d" fill-rule="evenodd" fill-opacity="1" stroke="#000000" stroke-opacity="1" stroke-width="5.12"/>
<path clip-path="url(#clip620)" d="M463.476 1381.92 L463.476 1367.9 L467.735 1367.9 L467.735 1403.91 L463.476 1403.91 L463.476 1400.03 Q462.134 1402.34 460.073 1403.47 Q458.036 1404.59 455.166 1404.59 Q450.467 1404.59 447.504 1400.84 Q444.564 1397.09 444.564 1390.97 Q444.564 1384.86 447.504 1381.11 Q450.467 1377.36 455.166 1377.36 Q458.036 1377.36 460.073 1378.5 Q462.134 1379.61 463.476 1381.92 M448.962 1390.97 Q448.962 1395.67 450.884 1398.36 Q452.828 1401.02 456.208 1401.02 Q459.587 1401.02 461.532 1398.36 Q463.476 1395.67 463.476 1390.97 Q463.476 1386.28 461.532 1383.61 Q459.587 1380.93 456.208 1380.93 Q452.828 1380.93 450.884 1383.61 Q448.962 1386.28 448.962 1390.97 Z" fill="#000000" fill-rule="evenodd" fill-opacity="1" /><path clip-path="url(#clip620)" d="M488.291 1390.88 Q483.129 1390.88 481.138 1392.06 Q479.147 1393.24 479.147 1396.09 Q479.147 1398.36 480.629 1399.7 Q482.133 1401.02 484.703 1401.02 Q488.245 1401.02 490.374 1398.52 Q492.527 1396 492.527 1391.83 L492.527 1390.88 L488.291 1390.88 M496.786 1389.12 L496.786 1403.91 L492.527 1403.91 L492.527 1399.98 Q491.069 1402.34 488.893 1403.47 Q486.717 1404.59 483.569 1404.59 Q479.587 1404.59 477.226 1402.36 Q474.888 1400.12 474.888 1396.37 Q474.888 1391.99 477.805 1389.77 Q480.745 1387.55 486.555 1387.55 L492.527 1387.55 L492.527 1387.13 Q492.527 1384.19 490.582 1382.6 Q488.661 1380.97 485.166 1380.97 Q482.944 1380.97 480.837 1381.51 Q478.731 1382.04 476.786 1383.1 L476.786 1379.17 Q479.124 1378.27 481.323 1377.83 Q483.522 1377.36 485.606 1377.36 Q491.231 1377.36 494.008 1380.28 Q496.786 1383.2 496.786 1389.12 Z" fill="#000000" fill-rule="evenodd" fill-opacity="1" /><path clip-path="url(#clip620)" d="M509.772 1370.63 L509.772 1377.99 L518.545 1377.99 L518.545 1381.3 L509.772 1381.3 L509.772 1395.37 Q509.772 1398.54 510.629 1399.45 Q511.508 1400.35 514.17 1400.35 L518.545 1400.35 L518.545 1403.91 L514.17 1403.91 Q509.24 1403.91 507.365 1402.09 Q505.49 1400.23 505.49 1395.37 L505.49 1381.3 L502.365 1381.3 L502.365 1377.99 L505.49 1377.99 L505.49 1370.63 L509.772 1370.63 Z" fill="#000000" fill-rule="evenodd" fill-opacity="1" /><path clip-path="url(#clip620)" d="M535.929 1390.88 Q530.767 1390.88 528.777 1392.06 Q526.786 1393.24 526.786 1396.09 Q526.786 1398.36 528.267 1399.7 Q529.772 1401.02 532.342 1401.02 Q535.883 1401.02 538.013 1398.52 Q540.166 1396 540.166 1391.83 L540.166 1390.88 L535.929 1390.88 M544.425 1389.12 L544.425 1403.91 L540.166 1403.91 L540.166 1399.98 Q538.707 1402.34 536.531 1403.47 Q534.355 1404.59 531.207 1404.59 Q527.226 1404.59 524.865 1402.36 Q522.527 1400.12 522.527 1396.37 Q522.527 1391.99 525.443 1389.77 Q528.383 1387.55 534.193 1387.55 L540.166 1387.55 L540.166 1387.13 Q540.166 1384.19 538.221 1382.6 Q536.3 1380.97 532.804 1380.97 Q530.582 1380.97 528.476 1381.51 Q526.369 1382.04 524.425 1383.1 L524.425 1379.17 Q526.763 1378.27 528.962 1377.83 Q531.161 1377.36 533.244 1377.36 Q538.869 1377.36 541.647 1380.28 Q544.425 1383.2 544.425 1389.12 Z" fill="#000000" fill-rule="evenodd" fill-opacity="1" /></svg>
