<?xml version="1.0" encoding="utf-8"?>
<svg xmlns="http://www.w3.org/2000/svg" xmlns:xlink="http://www.w3.org/1999/xlink" width="600" height="400" viewBox="0 0 2400 1600">
<defs>
  <clipPath id="clip320">
    <rect x="0" y="0" width="2400" height="1600"/>
  </clipPath>
</defs>
<path clip-path="url(#clip320)" d="
M0 1600 L2400 1600 L2400 0 L0 0  Z
  " fill="#ffffff" fill-rule="evenodd" fill-opacity="1"/>
<defs>
  <clipPath id="clip321">
    <rect x="480" y="0" width="1681" height="1600"/>
  </clipPath>
</defs>
<path clip-path="url(#clip320)" d="
M180.66 1487.47 L2352.76 1487.47 L2352.76 47.2441 L180.66 47.2441  Z
  " fill="#ffffff" fill-rule="evenodd" fill-opacity="1"/>
<defs>
  <clipPath id="clip322">
    <rect x="180" y="47" width="2173" height="1441"/>
  </clipPath>
</defs>
<polyline clip-path="url(#clip322)" style="stroke:#000000; stroke-linecap:butt; stroke-linejoin:round; stroke-width:2; stroke-opacity:0.1; fill:none" points="
  242.135,1487.47 242.135,47.2441 
  "/>
<polyline clip-path="url(#clip322)" style="stroke:#000000; stroke-linecap:butt; stroke-linejoin:round; stroke-width:2; stroke-opacity:0.1; fill:none" points="
  754.421,1487.47 754.421,47.2441 
  "/>
<polyline clip-path="url(#clip322)" style="stroke:#000000; stroke-linecap:butt; stroke-linejoin:round; stroke-width:2; stroke-opacity:0.1; fill:none" points="
  1266.71,1487.47 1266.71,47.2441 
  "/>
<polyline clip-path="url(#clip322)" style="stroke:#000000; stroke-linecap:butt; stroke-linejoin:round; stroke-width:2; stroke-opacity:0.1; fill:none" points="
  1778.99,1487.47 1778.99,47.2441 
  "/>
<polyline clip-path="url(#clip322)" style="stroke:#000000; stroke-linecap:butt; stroke-linejoin:round; stroke-width:2; stroke-opacity:0.1; fill:none" points="
  2291.28,1487.47 2291.28,47.2441 
  "/>
<polyline clip-path="url(#clip320)" style="stroke:#000000; stroke-linecap:butt; stroke-linejoin:round; stroke-width:4; stroke-opacity:1; fill:none" points="
  180.66,1487.47 2352.76,1487.47 
  "/>
<polyline clip-path="url(#clip320)" style="stroke:#000000; stroke-linecap:butt; stroke-linejoin:round; stroke-width:4; stroke-opacity:1; fill:none" points="
  242.135,1487.47 242.135,1468.58 
  "/>
<polyline clip-path="url(#clip320)" style="stroke:#000000; stroke-linecap:butt; stroke-linejoin:round; stroke-width:4; stroke-opacity:1; fill:none" points="
  754.421,1487.47 754.421,1468.58 
  "/>
<polyline clip-path="url(#clip320)" style="stroke:#000000; stroke-linecap:butt; stroke-linejoin:round; stroke-width:4; stroke-opacity:1; fill:none" points="
  1266.71,1487.47 1266.71,1468.58 
  "/>
<polyline clip-path="url(#clip320)" style="stroke:#000000; stroke-linecap:butt; stroke-linejoin:round; stroke-width:4; stroke-opacity:1; fill:none" points="
  1778.99,1487.47 1778.99,1468.58 
  "/>
<polyline clip-path="url(#clip320)" style="stroke:#000000; stroke-linecap:butt; stroke-linejoin:round; stroke-width:4; stroke-opacity:1; fill:none" points="
  2291.28,1487.47 2291.28,1468.58 
  "/>
<g clip-path="url(#clip320)">
<text style="fill:#000000; fill-opacity:1; font-family:Arial,Helvetica Neue,Helvetica,sans-serif; font-size:48px; text-anchor:middle;" transform="rotate(0, 242.135, 1549.32)" x="242.135" y="1549.32">−1.0</text>
</g>
<g clip-path="url(#clip320)">
<text style="fill:#000000; fill-opacity:1; font-family:Arial,Helvetica Neue,Helvetica,sans-serif; font-size:48px; text-anchor:middle;" transform="rotate(0, 754.421, 1549.32)" x="754.421" y="1549.32">−0.5</text>
</g>
<g clip-path="url(#clip320)">
<text style="fill:#000000; fill-opacity:1; font-family:Arial,Helvetica Neue,Helvetica,sans-serif; font-size:48px; text-anchor:middle;" transform="rotate(0, 1266.71, 1549.32)" x="1266.71" y="1549.32">0.0</text>
</g>
<g clip-path="url(#clip320)">
<text style="fill:#000000; fill-opacity:1; font-family:Arial,Helvetica Neue,Helvetica,sans-serif; font-size:48px; text-anchor:middle;" transform="rotate(0, 1778.99, 1549.32)" x="1778.99" y="1549.32">0.5</text>
</g>
<g clip-path="url(#clip320)">
<text style="fill:#000000; fill-opacity:1; font-family:Arial,Helvetica Neue,Helvetica,sans-serif; font-size:48px; text-anchor:middle;" transform="rotate(0, 2291.28, 1549.32)" x="2291.28" y="1549.32">1.0</text>
</g>
<polyline clip-path="url(#clip322)" style="stroke:#000000; stroke-linecap:butt; stroke-linejoin:round; stroke-width:2; stroke-opacity:0.1; fill:none" points="
  180.66,1442 2352.76,1442 
  "/>
<polyline clip-path="url(#clip322)" style="stroke:#000000; stroke-linecap:butt; stroke-linejoin:round; stroke-width:2; stroke-opacity:0.1; fill:none" points="
  180.66,1237.09 2352.76,1237.09 
  "/>
<polyline clip-path="url(#clip322)" style="stroke:#000000; stroke-linecap:butt; stroke-linejoin:round; stroke-width:2; stroke-opacity:0.1; fill:none" points="
  180.66,1032.17 2352.76,1032.17 
  "/>
<polyline clip-path="url(#clip322)" style="stroke:#000000; stroke-linecap:butt; stroke-linejoin:round; stroke-width:2; stroke-opacity:0.1; fill:none" points="
  180.66,827.256 2352.76,827.256 
  "/>
<polyline clip-path="url(#clip322)" style="stroke:#000000; stroke-linecap:butt; stroke-linejoin:round; stroke-width:2; stroke-opacity:0.1; fill:none" points="
  180.66,622.341 2352.76,622.341 
  "/>
<polyline clip-path="url(#clip322)" style="stroke:#000000; stroke-linecap:butt; stroke-linejoin:round; stroke-width:2; stroke-opacity:0.1; fill:none" points="
  180.66,417.427 2352.76,417.427 
  "/>
<polyline clip-path="url(#clip322)" style="stroke:#000000; stroke-linecap:butt; stroke-linejoin:round; stroke-width:2; stroke-opacity:0.1; fill:none" points="
  180.66,212.512 2352.76,212.512 
  "/>
<polyline clip-path="url(#clip320)" style="stroke:#000000; stroke-linecap:butt; stroke-linejoin:round; stroke-width:4; stroke-opacity:1; fill:none" points="
  180.66,1487.47 180.66,47.2441 
  "/>
<polyline clip-path="url(#clip320)" style="stroke:#000000; stroke-linecap:butt; stroke-linejoin:round; stroke-width:4; stroke-opacity:1; fill:none" points="
  180.66,1442 199.558,1442 
  "/>
<polyline clip-path="url(#clip320)" style="stroke:#000000; stroke-linecap:butt; stroke-linejoin:round; stroke-width:4; stroke-opacity:1; fill:none" points="
  180.66,1237.09 199.558,1237.09 
  "/>
<polyline clip-path="url(#clip320)" style="stroke:#000000; stroke-linecap:butt; stroke-linejoin:round; stroke-width:4; stroke-opacity:1; fill:none" points="
  180.66,1032.17 199.558,1032.17 
  "/>
<polyline clip-path="url(#clip320)" style="stroke:#000000; stroke-linecap:butt; stroke-linejoin:round; stroke-width:4; stroke-opacity:1; fill:none" points="
  180.66,827.256 199.558,827.256 
  "/>
<polyline clip-path="url(#clip320)" style="stroke:#000000; stroke-linecap:butt; stroke-linejoin:round; stroke-width:4; stroke-opacity:1; fill:none" points="
  180.66,622.341 199.558,622.341 
  "/>
<polyline clip-path="url(#clip320)" style="stroke:#000000; stroke-linecap:butt; stroke-linejoin:round; stroke-width:4; stroke-opacity:1; fill:none" points="
  180.66,417.427 199.558,417.427 
  "/>
<polyline clip-path="url(#clip320)" style="stroke:#000000; stroke-linecap:butt; stroke-linejoin:round; stroke-width:4; stroke-opacity:1; fill:none" points="
  180.66,212.512 199.558,212.512 
  "/>
<g clip-path="url(#clip320)">
<text style="fill:#000000; fill-opacity:1; font-family:Arial,Helvetica Neue,Helvetica,sans-serif; font-size:48px; text-anchor:middle;" transform="rotate(0, 97.8262, 1459.5)" x="97.8262" y="1459.5">−1.0</text>
</g>
<g clip-path="url(#clip320)">
<text style="fill:#000000; fill-opacity:1; font-family:Arial,Helvetica Neue,Helvetica,sans-serif; font-size:48px; text-anchor:middle;" transform="rotate(0, 97.8262, 1254.59)" x="97.8262" y="1254.59">−0.8</text>
</g>
<g clip-path="url(#clip320)">
<text style="fill:#000000; fill-opacity:1; font-family:Arial,Helvetica Neue,Helvetica,sans-serif; font-size:48px; text-anchor:middle;" transform="rotate(0, 97.8262, 1049.67)" x="97.8262" y="1049.67">−0.6</text>
</g>
<g clip-path="url(#clip320)">
<text style="fill:#000000; fill-opacity:1; font-family:Arial,Helvetica Neue,Helvetica,sans-serif; font-size:48px; text-anchor:middle;" transform="rotate(0, 97.8262, 844.756)" x="97.8262" y="844.756">−0.4</text>
</g>
<g clip-path="url(#clip320)">
<text style="fill:#000000; fill-opacity:1; font-family:Arial,Helvetica Neue,Helvetica,sans-serif; font-size:48px; text-anchor:middle;" transform="rotate(0, 97.8262, 639.841)" x="97.8262" y="639.841">−0.2</text>
</g>
<g clip-path="url(#clip320)">
<text style="fill:#000000; fill-opacity:1; font-family:Arial,Helvetica Neue,Helvetica,sans-serif; font-size:48px; text-anchor:middle;" transform="rotate(0, 111.207, 434.927)" x="111.207" y="434.927">0.0</text>
</g>
<g clip-path="url(#clip320)">
<text style="fill:#000000; fill-opacity:1; font-family:Arial,Helvetica Neue,Helvetica,sans-serif; font-size:48px; text-anchor:middle;" transform="rotate(0, 111.207, 230.012)" x="111.207" y="230.012">0.2</text>
</g>
<polyline clip-path="url(#clip322)" style="stroke:#009af9; stroke-linecap:butt; stroke-linejoin:round; stroke-width:8; stroke-opacity:1; fill:none" points="
  242.135,1430.31 252.38,1430.16 262.626,1429.71 272.872,1428.96 283.118,1427.92 293.363,1426.6 303.609,1425 313.855,1423.13 324.101,1420.99 334.346,1418.59 
  344.592,1415.93 354.838,1413.01 365.084,1409.85 375.329,1406.45 385.575,1402.82 395.821,1398.95 406.066,1394.86 416.312,1390.54 426.558,1386.02 436.804,1381.28 
  447.049,1376.34 457.295,1371.21 467.541,1365.88 477.787,1360.36 488.032,1354.66 498.278,1348.78 508.524,1342.73 518.77,1336.51 529.015,1330.13 539.261,1323.59 
  549.507,1316.9 559.752,1310.06 569.998,1303.08 580.244,1295.96 590.49,1288.71 600.735,1281.33 610.981,1273.82 621.227,1266.2 631.473,1258.46 641.718,1250.61 
  651.964,1242.66 662.21,1234.6 672.456,1226.45 682.701,1218.2 692.947,1209.87 703.193,1201.45 713.438,1192.95 723.684,1184.37 733.93,1175.72 744.176,1167 
  754.421,1158.21 764.667,1149.37 774.913,1140.46 785.159,1131.5 795.404,1122.49 805.65,1113.43 815.896,1104.33 826.142,1095.19 836.387,1086.01 846.633,1076.79 
  856.879,1067.54 867.124,1058.27 877.37,1048.97 887.616,1039.64 897.862,1030.3 908.107,1020.93 918.353,1011.56 928.599,1002.17 938.845,992.772 949.09,983.368 
  959.336,973.959 969.582,964.547 979.828,955.136 990.073,945.728 1000.32,936.324 1010.56,926.926 1020.81,917.538 1031.06,908.16 1041.3,898.795 1051.55,889.445 
  1061.79,880.111 1072.04,870.795 1082.28,861.499 1092.53,852.225 1102.78,842.974 1113.02,833.748 1123.27,824.549 1133.51,815.377 1143.76,806.234 1154.01,797.122 
  1164.25,788.042 1174.5,778.995 1184.74,769.983 1194.99,761.006 1205.23,752.067 1215.48,743.165 1225.73,734.302 1235.97,725.479 1246.22,716.697 1256.46,707.957 
  1266.71,699.26 1276.95,690.606 1287.2,681.997 1297.45,673.434 1307.69,664.917 1317.94,656.446 1328.18,648.023 1338.43,639.649 1348.67,631.323 1358.92,623.047 
  1369.17,614.821 1379.41,606.645 1389.66,598.521 1399.9,590.448 1410.15,582.428 1420.39,574.46 1430.64,566.545 1440.89,558.684 1451.13,550.876 1461.38,543.123 
  1471.62,535.424 1481.87,527.78 1492.11,520.191 1502.36,512.658 1512.61,505.18 1522.85,497.758 1533.1,490.392 1543.34,483.083 1553.59,475.83 1563.83,468.634 
  1574.08,461.495 1584.33,454.413 1594.57,447.388 1604.82,440.42 1615.06,433.51 1625.31,426.657 1635.55,419.862 1645.8,413.125 1656.05,406.446 1666.29,399.824 
  1676.54,393.26 1686.78,386.754 1697.03,380.307 1707.27,373.917 1717.52,367.585 1727.77,361.311 1738.01,355.095 1748.26,348.938 1758.5,342.838 1768.75,336.796 
  1778.99,330.812 1789.24,324.887 1799.49,319.019 1809.73,313.209 1819.98,307.457 1830.22,301.763 1840.47,296.127 1850.71,290.548 1860.96,285.027 1871.21,279.564 
  1881.45,274.159 1891.7,268.811 1901.94,263.52 1912.19,258.287 1922.44,253.111 1932.68,247.993 1942.93,242.932 1953.17,237.928 1963.42,232.981 1973.66,228.091 
  1983.91,223.258 1994.16,218.482 2004.4,213.763 2014.65,209.101 2024.89,204.495 2035.14,199.946 2045.38,195.453 2055.63,191.017 2065.88,186.638 2076.12,182.314 
  2086.37,178.047 2096.61,173.837 2106.86,169.682 2117.1,165.583 2127.35,161.54 2137.6,157.553 2147.84,153.622 2158.09,149.747 2168.33,145.927 2178.58,142.163 
  2188.82,138.455 2199.07,134.802 2209.32,131.204 2219.56,127.662 2229.81,124.174 2240.05,120.742 2250.3,117.365 2260.54,114.043 2270.79,110.776 2281.04,107.564 
  2291.28,104.406 
  "/>
</svg>
