<?xml version="1.0" encoding="utf-8"?>
<svg xmlns="http://www.w3.org/2000/svg" xmlns:xlink="http://www.w3.org/1999/xlink" width="600" height="400" viewBox="0 0 2400 1600">
<defs>
  <clipPath id="clip040">
    <rect x="0" y="0" width="2400" height="1600"/>
  </clipPath>
</defs>
<path clip-path="url(#clip040)" d="
M0 1600 L2400 1600 L2400 0 L0 0  Z
  " fill="#ffffff" fill-rule="evenodd" fill-opacity="1"/>
<defs>
  <clipPath id="clip041">
    <rect x="480" y="0" width="1681" height="1600"/>
  </clipPath>
</defs>
<path clip-path="url(#clip040)" d="
M156.112 1486.45 L2208.5 1486.45 L2208.5 47.2441 L156.112 47.2441  Z
  " fill="#ffffff" fill-rule="evenodd" fill-opacity="1"/>
<defs>
  <clipPath id="clip042">
    <rect x="156" y="47" width="2053" height="1440"/>
  </clipPath>
</defs>
<polyline clip-path="url(#clip042)" style="stroke:#000000; stroke-linecap:round; stroke-linejoin:round; stroke-width:2; stroke-opacity:0.1; fill:none" points="
  214.199,1486.45 214.199,47.2441 
  "/>
<polyline clip-path="url(#clip042)" style="stroke:#000000; stroke-linecap:round; stroke-linejoin:round; stroke-width:2; stroke-opacity:0.1; fill:none" points="
  698.253,1486.45 698.253,47.2441 
  "/>
<polyline clip-path="url(#clip042)" style="stroke:#000000; stroke-linecap:round; stroke-linejoin:round; stroke-width:2; stroke-opacity:0.1; fill:none" points="
  1182.31,1486.45 1182.31,47.2441 
  "/>
<polyline clip-path="url(#clip042)" style="stroke:#000000; stroke-linecap:round; stroke-linejoin:round; stroke-width:2; stroke-opacity:0.1; fill:none" points="
  1666.36,1486.45 1666.36,47.2441 
  "/>
<polyline clip-path="url(#clip042)" style="stroke:#000000; stroke-linecap:round; stroke-linejoin:round; stroke-width:2; stroke-opacity:0.1; fill:none" points="
  2150.42,1486.45 2150.42,47.2441 
  "/>
<polyline clip-path="url(#clip040)" style="stroke:#000000; stroke-linecap:round; stroke-linejoin:round; stroke-width:4; stroke-opacity:1; fill:none" points="
  156.112,1486.45 2208.5,1486.45 
  "/>
<polyline clip-path="url(#clip040)" style="stroke:#000000; stroke-linecap:round; stroke-linejoin:round; stroke-width:4; stroke-opacity:1; fill:none" points="
  214.199,1486.45 214.199,1467.55 
  "/>
<polyline clip-path="url(#clip040)" style="stroke:#000000; stroke-linecap:round; stroke-linejoin:round; stroke-width:4; stroke-opacity:1; fill:none" points="
  698.253,1486.45 698.253,1467.55 
  "/>
<polyline clip-path="url(#clip040)" style="stroke:#000000; stroke-linecap:round; stroke-linejoin:round; stroke-width:4; stroke-opacity:1; fill:none" points="
  1182.31,1486.45 1182.31,1467.55 
  "/>
<polyline clip-path="url(#clip040)" style="stroke:#000000; stroke-linecap:round; stroke-linejoin:round; stroke-width:4; stroke-opacity:1; fill:none" points="
  1666.36,1486.45 1666.36,1467.55 
  "/>
<polyline clip-path="url(#clip040)" style="stroke:#000000; stroke-linecap:round; stroke-linejoin:round; stroke-width:4; stroke-opacity:1; fill:none" points="
  2150.42,1486.45 2150.42,1467.55 
  "/>
<path clip-path="url(#clip040)" d="M176.502 1517.37 Q172.891 1517.37 171.062 1520.93 Q169.257 1524.47 169.257 1531.6 Q169.257 1538.71 171.062 1542.27 Q172.891 1545.82 176.502 1545.82 Q180.136 1545.82 181.942 1542.27 Q183.771 1538.71 183.771 1531.6 Q183.771 1524.47 181.942 1520.93 Q180.136 1517.37 176.502 1517.37 M176.502 1513.66 Q182.312 1513.66 185.368 1518.27 Q188.447 1522.85 188.447 1531.6 Q188.447 1540.33 185.368 1544.94 Q182.312 1549.52 176.502 1549.52 Q170.692 1549.52 167.613 1544.94 Q164.558 1540.33 164.558 1531.6 Q164.558 1522.85 167.613 1518.27 Q170.692 1513.66 176.502 1513.66 Z" fill="#000000" fill-rule="evenodd" fill-opacity="1" /><path clip-path="url(#clip040)" d="M196.664 1542.97 L201.548 1542.97 L201.548 1548.85 L196.664 1548.85 L196.664 1542.97 Z" fill="#000000" fill-rule="evenodd" fill-opacity="1" /><path clip-path="url(#clip040)" d="M221.733 1517.37 Q218.122 1517.37 216.294 1520.93 Q214.488 1524.47 214.488 1531.6 Q214.488 1538.71 216.294 1542.27 Q218.122 1545.82 221.733 1545.82 Q225.368 1545.82 227.173 1542.27 Q229.002 1538.71 229.002 1531.6 Q229.002 1524.47 227.173 1520.93 Q225.368 1517.37 221.733 1517.37 M221.733 1513.66 Q227.544 1513.66 230.599 1518.27 Q233.678 1522.85 233.678 1531.6 Q233.678 1540.33 230.599 1544.94 Q227.544 1549.52 221.733 1549.52 Q215.923 1549.52 212.845 1544.94 Q209.789 1540.33 209.789 1531.6 Q209.789 1522.85 212.845 1518.27 Q215.923 1513.66 221.733 1513.66 Z" fill="#000000" fill-rule="evenodd" fill-opacity="1" /><path clip-path="url(#clip040)" d="M251.895 1517.37 Q248.284 1517.37 246.455 1520.93 Q244.65 1524.47 244.65 1531.6 Q244.65 1538.71 246.455 1542.27 Q248.284 1545.82 251.895 1545.82 Q255.529 1545.82 257.335 1542.27 Q259.164 1538.71 259.164 1531.6 Q259.164 1524.47 257.335 1520.93 Q255.529 1517.37 251.895 1517.37 M251.895 1513.66 Q257.705 1513.66 260.761 1518.27 Q263.84 1522.85 263.84 1531.6 Q263.84 1540.33 260.761 1544.94 Q257.705 1549.52 251.895 1549.52 Q246.085 1549.52 243.006 1544.94 Q239.951 1540.33 239.951 1531.6 Q239.951 1522.85 243.006 1518.27 Q246.085 1513.66 251.895 1513.66 Z" fill="#000000" fill-rule="evenodd" fill-opacity="1" /><path clip-path="url(#clip040)" d="M661.054 1517.37 Q657.443 1517.37 655.615 1520.93 Q653.809 1524.47 653.809 1531.6 Q653.809 1538.71 655.615 1542.27 Q657.443 1545.82 661.054 1545.82 Q664.689 1545.82 666.494 1542.27 Q668.323 1538.71 668.323 1531.6 Q668.323 1524.47 666.494 1520.93 Q664.689 1517.37 661.054 1517.37 M661.054 1513.66 Q666.865 1513.66 669.92 1518.27 Q672.999 1522.85 672.999 1531.6 Q672.999 1540.33 669.92 1544.94 Q666.865 1549.52 661.054 1549.52 Q655.244 1549.52 652.166 1544.94 Q649.11 1540.33 649.11 1531.6 Q649.11 1522.85 652.166 1518.27 Q655.244 1513.66 661.054 1513.66 Z" fill="#000000" fill-rule="evenodd" fill-opacity="1" /><path clip-path="url(#clip040)" d="M681.216 1542.97 L686.101 1542.97 L686.101 1548.85 L681.216 1548.85 L681.216 1542.97 Z" fill="#000000" fill-rule="evenodd" fill-opacity="1" /><path clip-path="url(#clip040)" d="M700.314 1544.91 L716.633 1544.91 L716.633 1548.85 L694.689 1548.85 L694.689 1544.91 Q697.351 1542.16 701.934 1537.53 Q706.54 1532.88 707.721 1531.53 Q709.966 1529.01 710.846 1527.27 Q711.749 1525.51 711.749 1523.82 Q711.749 1521.07 709.804 1519.33 Q707.883 1517.6 704.781 1517.6 Q702.582 1517.6 700.128 1518.36 Q697.698 1519.13 694.92 1520.68 L694.92 1515.95 Q697.744 1514.82 700.198 1514.24 Q702.651 1513.66 704.689 1513.66 Q710.059 1513.66 713.253 1516.35 Q716.448 1519.03 716.448 1523.52 Q716.448 1525.65 715.638 1527.57 Q714.85 1529.47 712.744 1532.07 Q712.165 1532.74 709.063 1535.95 Q705.962 1539.15 700.314 1544.91 Z" fill="#000000" fill-rule="evenodd" fill-opacity="1" /><path clip-path="url(#clip040)" d="M726.494 1514.29 L744.85 1514.29 L744.85 1518.22 L730.776 1518.22 L730.776 1526.7 Q731.795 1526.35 732.813 1526.19 Q733.832 1526 734.85 1526 Q740.637 1526 744.017 1529.17 Q747.397 1532.34 747.397 1537.76 Q747.397 1543.34 743.924 1546.44 Q740.452 1549.52 734.133 1549.52 Q731.957 1549.52 729.688 1549.15 Q727.443 1548.78 725.036 1548.04 L725.036 1543.34 Q727.119 1544.47 729.341 1545.03 Q731.563 1545.58 734.04 1545.58 Q738.045 1545.58 740.383 1543.48 Q742.721 1541.37 742.721 1537.76 Q742.721 1534.15 740.383 1532.04 Q738.045 1529.94 734.04 1529.94 Q732.165 1529.94 730.29 1530.35 Q728.438 1530.77 726.494 1531.65 L726.494 1514.29 Z" fill="#000000" fill-rule="evenodd" fill-opacity="1" /><path clip-path="url(#clip040)" d="M1144.61 1517.37 Q1141 1517.37 1139.17 1520.93 Q1137.37 1524.47 1137.37 1531.6 Q1137.37 1538.71 1139.17 1542.27 Q1141 1545.82 1144.61 1545.82 Q1148.25 1545.82 1150.05 1542.27 Q1151.88 1538.71 1151.88 1531.6 Q1151.88 1524.47 1150.05 1520.93 Q1148.25 1517.37 1144.61 1517.37 M1144.61 1513.66 Q1150.42 1513.66 1153.48 1518.27 Q1156.56 1522.85 1156.56 1531.6 Q1156.56 1540.33 1153.48 1544.94 Q1150.42 1549.52 1144.61 1549.52 Q1138.8 1549.52 1135.72 1544.94 Q1132.67 1540.33 1132.67 1531.6 Q1132.67 1522.85 1135.72 1518.27 Q1138.8 1513.66 1144.61 1513.66 Z" fill="#000000" fill-rule="evenodd" fill-opacity="1" /><path clip-path="url(#clip040)" d="M1164.77 1542.97 L1169.66 1542.97 L1169.66 1548.85 L1164.77 1548.85 L1164.77 1542.97 Z" fill="#000000" fill-rule="evenodd" fill-opacity="1" /><path clip-path="url(#clip040)" d="M1179.89 1514.29 L1198.25 1514.29 L1198.25 1518.22 L1184.17 1518.22 L1184.17 1526.7 Q1185.19 1526.35 1186.21 1526.19 Q1187.23 1526 1188.25 1526 Q1194.03 1526 1197.41 1529.17 Q1200.79 1532.34 1200.79 1537.76 Q1200.79 1543.34 1197.32 1546.44 Q1193.85 1549.52 1187.53 1549.52 Q1185.35 1549.52 1183.08 1549.15 Q1180.84 1548.78 1178.43 1548.04 L1178.43 1543.34 Q1180.51 1544.47 1182.74 1545.03 Q1184.96 1545.58 1187.44 1545.58 Q1191.44 1545.58 1193.78 1543.48 Q1196.12 1541.37 1196.12 1537.76 Q1196.12 1534.15 1193.78 1532.04 Q1191.44 1529.94 1187.44 1529.94 Q1185.56 1529.94 1183.69 1530.35 Q1181.83 1530.77 1179.89 1531.65 L1179.89 1514.29 Z" fill="#000000" fill-rule="evenodd" fill-opacity="1" /><path clip-path="url(#clip040)" d="M1220 1517.37 Q1216.39 1517.37 1214.56 1520.93 Q1212.76 1524.47 1212.76 1531.6 Q1212.76 1538.71 1214.56 1542.27 Q1216.39 1545.82 1220 1545.82 Q1223.64 1545.82 1225.44 1542.27 Q1227.27 1538.71 1227.27 1531.6 Q1227.27 1524.47 1225.44 1520.93 Q1223.64 1517.37 1220 1517.37 M1220 1513.66 Q1225.81 1513.66 1228.87 1518.27 Q1231.95 1522.85 1231.95 1531.6 Q1231.95 1540.33 1228.87 1544.94 Q1225.81 1549.52 1220 1549.52 Q1214.19 1549.52 1211.12 1544.94 Q1208.06 1540.33 1208.06 1531.6 Q1208.06 1522.85 1211.12 1518.27 Q1214.19 1513.66 1220 1513.66 Z" fill="#000000" fill-rule="evenodd" fill-opacity="1" /><path clip-path="url(#clip040)" d="M1629.16 1517.37 Q1625.55 1517.37 1623.72 1520.93 Q1621.92 1524.47 1621.92 1531.6 Q1621.92 1538.71 1623.72 1542.27 Q1625.55 1545.82 1629.16 1545.82 Q1632.8 1545.82 1634.6 1542.27 Q1636.43 1538.71 1636.43 1531.6 Q1636.43 1524.47 1634.6 1520.93 Q1632.8 1517.37 1629.16 1517.37 M1629.16 1513.66 Q1634.97 1513.66 1638.03 1518.27 Q1641.11 1522.85 1641.11 1531.6 Q1641.11 1540.33 1638.03 1544.94 Q1634.97 1549.52 1629.16 1549.52 Q1623.35 1549.52 1620.27 1544.94 Q1617.22 1540.33 1617.22 1531.6 Q1617.22 1522.85 1620.27 1518.27 Q1623.35 1513.66 1629.16 1513.66 Z" fill="#000000" fill-rule="evenodd" fill-opacity="1" /><path clip-path="url(#clip040)" d="M1649.33 1542.97 L1654.21 1542.97 L1654.21 1548.85 L1649.33 1548.85 L1649.33 1542.97 Z" fill="#000000" fill-rule="evenodd" fill-opacity="1" /><path clip-path="url(#clip040)" d="M1663.21 1514.29 L1685.44 1514.29 L1685.44 1516.28 L1672.89 1548.85 L1668.01 1548.85 L1679.81 1518.22 L1663.21 1518.22 L1663.21 1514.29 Z" fill="#000000" fill-rule="evenodd" fill-opacity="1" /><path clip-path="url(#clip040)" d="M1694.6 1514.29 L1712.96 1514.29 L1712.96 1518.22 L1698.89 1518.22 L1698.89 1526.7 Q1699.9 1526.35 1700.92 1526.19 Q1701.94 1526 1702.96 1526 Q1708.75 1526 1712.13 1529.17 Q1715.51 1532.34 1715.51 1537.76 Q1715.51 1543.34 1712.03 1546.44 Q1708.56 1549.52 1702.24 1549.52 Q1700.07 1549.52 1697.8 1549.15 Q1695.55 1548.78 1693.14 1548.04 L1693.14 1543.34 Q1695.23 1544.47 1697.45 1545.03 Q1699.67 1545.58 1702.15 1545.58 Q1706.15 1545.58 1708.49 1543.48 Q1710.83 1541.37 1710.83 1537.76 Q1710.83 1534.15 1708.49 1532.04 Q1706.15 1529.94 1702.15 1529.94 Q1700.27 1529.94 1698.4 1530.35 Q1696.55 1530.77 1694.6 1531.65 L1694.6 1514.29 Z" fill="#000000" fill-rule="evenodd" fill-opacity="1" /><path clip-path="url(#clip040)" d="M2102.49 1544.91 L2110.13 1544.91 L2110.13 1518.55 L2101.82 1520.21 L2101.82 1515.95 L2110.08 1514.29 L2114.76 1514.29 L2114.76 1544.91 L2122.4 1544.91 L2122.4 1548.85 L2102.49 1548.85 L2102.49 1544.91 Z" fill="#000000" fill-rule="evenodd" fill-opacity="1" /><path clip-path="url(#clip040)" d="M2131.84 1542.97 L2136.73 1542.97 L2136.73 1548.85 L2131.84 1548.85 L2131.84 1542.97 Z" fill="#000000" fill-rule="evenodd" fill-opacity="1" /><path clip-path="url(#clip040)" d="M2156.91 1517.37 Q2153.3 1517.37 2151.47 1520.93 Q2149.67 1524.47 2149.67 1531.6 Q2149.67 1538.71 2151.47 1542.27 Q2153.3 1545.82 2156.91 1545.82 Q2160.54 1545.82 2162.35 1542.27 Q2164.18 1538.71 2164.18 1531.6 Q2164.18 1524.47 2162.35 1520.93 Q2160.54 1517.37 2156.91 1517.37 M2156.91 1513.66 Q2162.72 1513.66 2165.78 1518.27 Q2168.85 1522.85 2168.85 1531.6 Q2168.85 1540.33 2165.78 1544.94 Q2162.72 1549.52 2156.91 1549.52 Q2151.1 1549.52 2148.02 1544.94 Q2144.97 1540.33 2144.97 1531.6 Q2144.97 1522.85 2148.02 1518.27 Q2151.1 1513.66 2156.91 1513.66 Z" fill="#000000" fill-rule="evenodd" fill-opacity="1" /><path clip-path="url(#clip040)" d="M2187.07 1517.37 Q2183.46 1517.37 2181.63 1520.93 Q2179.83 1524.47 2179.83 1531.6 Q2179.83 1538.71 2181.63 1542.27 Q2183.46 1545.82 2187.07 1545.82 Q2190.71 1545.82 2192.51 1542.27 Q2194.34 1538.71 2194.34 1531.6 Q2194.34 1524.47 2192.51 1520.93 Q2190.71 1517.37 2187.07 1517.37 M2187.07 1513.66 Q2192.88 1513.66 2195.94 1518.27 Q2199.02 1522.85 2199.02 1531.6 Q2199.02 1540.33 2195.94 1544.94 Q2192.88 1549.52 2187.07 1549.52 Q2181.26 1549.52 2178.18 1544.94 Q2175.13 1540.33 2175.13 1531.6 Q2175.13 1522.85 2178.18 1518.27 Q2181.26 1513.66 2187.07 1513.66 Z" fill="#000000" fill-rule="evenodd" fill-opacity="1" /><polyline clip-path="url(#clip042)" style="stroke:#000000; stroke-linecap:round; stroke-linejoin:round; stroke-width:2; stroke-opacity:0.1; fill:none" points="
  156.112,1445.72 2208.5,1445.72 
  "/>
<polyline clip-path="url(#clip042)" style="stroke:#000000; stroke-linecap:round; stroke-linejoin:round; stroke-width:2; stroke-opacity:0.1; fill:none" points="
  156.112,1185.69 2208.5,1185.69 
  "/>
<polyline clip-path="url(#clip042)" style="stroke:#000000; stroke-linecap:round; stroke-linejoin:round; stroke-width:2; stroke-opacity:0.1; fill:none" points="
  156.112,925.655 2208.5,925.655 
  "/>
<polyline clip-path="url(#clip042)" style="stroke:#000000; stroke-linecap:round; stroke-linejoin:round; stroke-width:2; stroke-opacity:0.1; fill:none" points="
  156.112,665.624 2208.5,665.624 
  "/>
<polyline clip-path="url(#clip042)" style="stroke:#000000; stroke-linecap:round; stroke-linejoin:round; stroke-width:2; stroke-opacity:0.1; fill:none" points="
  156.112,405.594 2208.5,405.594 
  "/>
<polyline clip-path="url(#clip042)" style="stroke:#000000; stroke-linecap:round; stroke-linejoin:round; stroke-width:2; stroke-opacity:0.1; fill:none" points="
  156.112,145.563 2208.5,145.563 
  "/>
<polyline clip-path="url(#clip040)" style="stroke:#000000; stroke-linecap:round; stroke-linejoin:round; stroke-width:4; stroke-opacity:1; fill:none" points="
  156.112,1486.45 156.112,47.2441 
  "/>
<polyline clip-path="url(#clip040)" style="stroke:#000000; stroke-linecap:round; stroke-linejoin:round; stroke-width:4; stroke-opacity:1; fill:none" points="
  156.112,1445.72 175.01,1445.72 
  "/>
<polyline clip-path="url(#clip040)" style="stroke:#000000; stroke-linecap:round; stroke-linejoin:round; stroke-width:4; stroke-opacity:1; fill:none" points="
  156.112,1185.69 175.01,1185.69 
  "/>
<polyline clip-path="url(#clip040)" style="stroke:#000000; stroke-linecap:round; stroke-linejoin:round; stroke-width:4; stroke-opacity:1; fill:none" points="
  156.112,925.655 175.01,925.655 
  "/>
<polyline clip-path="url(#clip040)" style="stroke:#000000; stroke-linecap:round; stroke-linejoin:round; stroke-width:4; stroke-opacity:1; fill:none" points="
  156.112,665.624 175.01,665.624 
  "/>
<polyline clip-path="url(#clip040)" style="stroke:#000000; stroke-linecap:round; stroke-linejoin:round; stroke-width:4; stroke-opacity:1; fill:none" points="
  156.112,405.594 175.01,405.594 
  "/>
<polyline clip-path="url(#clip040)" style="stroke:#000000; stroke-linecap:round; stroke-linejoin:round; stroke-width:4; stroke-opacity:1; fill:none" points="
  156.112,145.563 175.01,145.563 
  "/>
<path clip-path="url(#clip040)" d="M62.9365 1431.51 Q59.3254 1431.51 57.4967 1435.08 Q55.6912 1438.62 55.6912 1445.75 Q55.6912 1452.86 57.4967 1456.42 Q59.3254 1459.96 62.9365 1459.96 Q66.5707 1459.96 68.3763 1456.42 Q70.205 1452.86 70.205 1445.75 Q70.205 1438.62 68.3763 1435.08 Q66.5707 1431.51 62.9365 1431.51 M62.9365 1427.81 Q68.7467 1427.81 71.8022 1432.42 Q74.8809 1437 74.8809 1445.75 Q74.8809 1454.48 71.8022 1459.08 Q68.7467 1463.67 62.9365 1463.67 Q57.1264 1463.67 54.0477 1459.08 Q50.9921 1454.48 50.9921 1445.75 Q50.9921 1437 54.0477 1432.42 Q57.1264 1427.81 62.9365 1427.81 Z" fill="#000000" fill-rule="evenodd" fill-opacity="1" /><path clip-path="url(#clip040)" d="M83.0984 1457.12 L87.9827 1457.12 L87.9827 1463 L83.0984 1463 L83.0984 1457.12 Z" fill="#000000" fill-rule="evenodd" fill-opacity="1" /><path clip-path="url(#clip040)" d="M108.168 1431.51 Q104.557 1431.51 102.728 1435.08 Q100.922 1438.62 100.922 1445.75 Q100.922 1452.86 102.728 1456.42 Q104.557 1459.96 108.168 1459.96 Q111.802 1459.96 113.608 1456.42 Q115.436 1452.86 115.436 1445.75 Q115.436 1438.62 113.608 1435.08 Q111.802 1431.51 108.168 1431.51 M108.168 1427.81 Q113.978 1427.81 117.033 1432.42 Q120.112 1437 120.112 1445.75 Q120.112 1454.48 117.033 1459.08 Q113.978 1463.67 108.168 1463.67 Q102.358 1463.67 99.2789 1459.08 Q96.2234 1454.48 96.2234 1445.75 Q96.2234 1437 99.2789 1432.42 Q102.358 1427.81 108.168 1427.81 Z" fill="#000000" fill-rule="evenodd" fill-opacity="1" /><path clip-path="url(#clip040)" d="M63.9319 1171.48 Q60.3208 1171.48 58.4921 1175.05 Q56.6865 1178.59 56.6865 1185.72 Q56.6865 1192.83 58.4921 1196.39 Q60.3208 1199.93 63.9319 1199.93 Q67.5661 1199.93 69.3717 1196.39 Q71.2004 1192.83 71.2004 1185.72 Q71.2004 1178.59 69.3717 1175.05 Q67.5661 1171.48 63.9319 1171.48 M63.9319 1167.78 Q69.742 1167.78 72.7976 1172.39 Q75.8763 1176.97 75.8763 1185.72 Q75.8763 1194.45 72.7976 1199.05 Q69.742 1203.64 63.9319 1203.64 Q58.1217 1203.64 55.043 1199.05 Q51.9875 1194.45 51.9875 1185.72 Q51.9875 1176.97 55.043 1172.39 Q58.1217 1167.78 63.9319 1167.78 Z" fill="#000000" fill-rule="evenodd" fill-opacity="1" /><path clip-path="url(#clip040)" d="M84.0938 1197.09 L88.978 1197.09 L88.978 1202.97 L84.0938 1202.97 L84.0938 1197.09 Z" fill="#000000" fill-rule="evenodd" fill-opacity="1" /><path clip-path="url(#clip040)" d="M99.2095 1168.41 L117.566 1168.41 L117.566 1172.34 L103.492 1172.34 L103.492 1180.81 Q104.51 1180.47 105.529 1180.3 Q106.547 1180.12 107.566 1180.12 Q113.353 1180.12 116.733 1183.29 Q120.112 1186.46 120.112 1191.88 Q120.112 1197.46 116.64 1200.56 Q113.168 1203.64 106.848 1203.64 Q104.672 1203.64 102.404 1203.27 Q100.159 1202.9 97.7511 1202.16 L97.7511 1197.46 Q99.8345 1198.59 102.057 1199.15 Q104.279 1199.7 106.756 1199.7 Q110.76 1199.7 113.098 1197.59 Q115.436 1195.49 115.436 1191.88 Q115.436 1188.27 113.098 1186.16 Q110.76 1184.05 106.756 1184.05 Q104.881 1184.05 103.006 1184.47 Q101.154 1184.89 99.2095 1185.77 L99.2095 1168.41 Z" fill="#000000" fill-rule="evenodd" fill-opacity="1" /><path clip-path="url(#clip040)" d="M53.7467 939 L61.3856 939 L61.3856 912.634 L53.0754 914.301 L53.0754 910.041 L61.3393 908.375 L66.0152 908.375 L66.0152 939 L73.654 939 L73.654 942.935 L53.7467 942.935 L53.7467 939 Z" fill="#000000" fill-rule="evenodd" fill-opacity="1" /><path clip-path="url(#clip040)" d="M83.0984 937.055 L87.9827 937.055 L87.9827 942.935 L83.0984 942.935 L83.0984 937.055 Z" fill="#000000" fill-rule="evenodd" fill-opacity="1" /><path clip-path="url(#clip040)" d="M108.168 911.453 Q104.557 911.453 102.728 915.018 Q100.922 918.56 100.922 925.689 Q100.922 932.796 102.728 936.361 Q104.557 939.902 108.168 939.902 Q111.802 939.902 113.608 936.361 Q115.436 932.796 115.436 925.689 Q115.436 918.56 113.608 915.018 Q111.802 911.453 108.168 911.453 M108.168 907.75 Q113.978 907.75 117.033 912.356 Q120.112 916.939 120.112 925.689 Q120.112 934.416 117.033 939.023 Q113.978 943.606 108.168 943.606 Q102.358 943.606 99.2789 939.023 Q96.2234 934.416 96.2234 925.689 Q96.2234 916.939 99.2789 912.356 Q102.358 907.75 108.168 907.75 Z" fill="#000000" fill-rule="evenodd" fill-opacity="1" /><path clip-path="url(#clip040)" d="M54.7421 678.969 L62.381 678.969 L62.381 652.603 L54.0708 654.27 L54.0708 650.011 L62.3347 648.344 L67.0106 648.344 L67.0106 678.969 L74.6494 678.969 L74.6494 682.904 L54.7421 682.904 L54.7421 678.969 Z" fill="#000000" fill-rule="evenodd" fill-opacity="1" /><path clip-path="url(#clip040)" d="M84.0938 677.025 L88.978 677.025 L88.978 682.904 L84.0938 682.904 L84.0938 677.025 Z" fill="#000000" fill-rule="evenodd" fill-opacity="1" /><path clip-path="url(#clip040)" d="M99.2095 648.344 L117.566 648.344 L117.566 652.279 L103.492 652.279 L103.492 660.752 Q104.51 660.404 105.529 660.242 Q106.547 660.057 107.566 660.057 Q113.353 660.057 116.733 663.228 Q120.112 666.4 120.112 671.816 Q120.112 677.395 116.64 680.497 Q113.168 683.576 106.848 683.576 Q104.672 683.576 102.404 683.205 Q100.159 682.835 97.7511 682.094 L97.7511 677.395 Q99.8345 678.529 102.057 679.085 Q104.279 679.64 106.756 679.64 Q110.76 679.64 113.098 677.534 Q115.436 675.427 115.436 671.816 Q115.436 668.205 113.098 666.099 Q110.76 663.992 106.756 663.992 Q104.881 663.992 103.006 664.409 Q101.154 664.826 99.2095 665.705 L99.2095 648.344 Z" fill="#000000" fill-rule="evenodd" fill-opacity="1" /><path clip-path="url(#clip040)" d="M56.9643 418.939 L73.2837 418.939 L73.2837 422.874 L51.3393 422.874 L51.3393 418.939 Q54.0014 416.184 58.5847 411.554 Q63.1911 406.902 64.3717 405.559 Q66.617 403.036 67.4967 401.3 Q68.3994 399.541 68.3994 397.851 Q68.3994 395.096 66.455 393.36 Q64.5337 391.624 61.4319 391.624 Q59.2328 391.624 56.7791 392.388 Q54.3486 393.152 51.5708 394.703 L51.5708 389.98 Q54.3949 388.846 56.8486 388.267 Q59.3023 387.689 61.3393 387.689 Q66.7096 387.689 69.9041 390.374 Q73.0985 393.059 73.0985 397.55 Q73.0985 399.679 72.2883 401.601 Q71.5013 403.499 69.3948 406.091 Q68.8161 406.763 65.7143 409.98 Q62.6124 413.175 56.9643 418.939 Z" fill="#000000" fill-rule="evenodd" fill-opacity="1" /><path clip-path="url(#clip040)" d="M83.0984 416.994 L87.9827 416.994 L87.9827 422.874 L83.0984 422.874 L83.0984 416.994 Z" fill="#000000" fill-rule="evenodd" fill-opacity="1" /><path clip-path="url(#clip040)" d="M108.168 391.392 Q104.557 391.392 102.728 394.957 Q100.922 398.499 100.922 405.628 Q100.922 412.735 102.728 416.3 Q104.557 419.841 108.168 419.841 Q111.802 419.841 113.608 416.3 Q115.436 412.735 115.436 405.628 Q115.436 398.499 113.608 394.957 Q111.802 391.392 108.168 391.392 M108.168 387.689 Q113.978 387.689 117.033 392.295 Q120.112 396.879 120.112 405.628 Q120.112 414.355 117.033 418.962 Q113.978 423.545 108.168 423.545 Q102.358 423.545 99.2789 418.962 Q96.2234 414.355 96.2234 405.628 Q96.2234 396.879 99.2789 392.295 Q102.358 387.689 108.168 387.689 Z" fill="#000000" fill-rule="evenodd" fill-opacity="1" /><path clip-path="url(#clip040)" d="M57.9597 158.908 L74.279 158.908 L74.279 162.843 L52.3347 162.843 L52.3347 158.908 Q54.9967 156.154 59.58 151.524 Q64.1865 146.871 65.367 145.529 Q67.6124 143.005 68.492 141.269 Q69.3948 139.51 69.3948 137.82 Q69.3948 135.066 67.4504 133.33 Q65.5291 131.593 62.4272 131.593 Q60.2282 131.593 57.7745 132.357 Q55.344 133.121 52.5662 134.672 L52.5662 129.95 Q55.3903 128.816 57.8439 128.237 Q60.2976 127.658 62.3347 127.658 Q67.705 127.658 70.8994 130.343 Q74.0939 133.029 74.0939 137.519 Q74.0939 139.649 73.2837 141.57 Q72.4966 143.468 70.3902 146.061 Q69.8115 146.732 66.7096 149.95 Q63.6078 153.144 57.9597 158.908 Z" fill="#000000" fill-rule="evenodd" fill-opacity="1" /><path clip-path="url(#clip040)" d="M84.0938 156.964 L88.978 156.964 L88.978 162.843 L84.0938 162.843 L84.0938 156.964 Z" fill="#000000" fill-rule="evenodd" fill-opacity="1" /><path clip-path="url(#clip040)" d="M99.2095 128.283 L117.566 128.283 L117.566 132.218 L103.492 132.218 L103.492 140.691 Q104.51 140.343 105.529 140.181 Q106.547 139.996 107.566 139.996 Q113.353 139.996 116.733 143.167 Q120.112 146.339 120.112 151.755 Q120.112 157.334 116.64 160.436 Q113.168 163.515 106.848 163.515 Q104.672 163.515 102.404 163.144 Q100.159 162.774 97.7511 162.033 L97.7511 157.334 Q99.8345 158.468 102.057 159.024 Q104.279 159.579 106.756 159.579 Q110.76 159.579 113.098 157.473 Q115.436 155.366 115.436 151.755 Q115.436 148.144 113.098 146.038 Q110.76 143.931 106.756 143.931 Q104.881 143.931 103.006 144.348 Q101.154 144.765 99.2095 145.644 L99.2095 128.283 Z" fill="#000000" fill-rule="evenodd" fill-opacity="1" /><polyline clip-path="url(#clip042)" style="stroke:#440154; stroke-linecap:round; stroke-linejoin:round; stroke-width:4; stroke-opacity:1; fill:none" points="
  214.199,1445.72 233.561,1437.55 252.923,1429.38 272.285,1421.22 291.647,1413.06 311.01,1404.91 330.372,1396.77 349.734,1388.65 369.096,1380.53 388.458,1372.44 
  407.821,1364.36 427.183,1356.3 446.545,1348.27 465.907,1340.25 485.269,1332.27 504.631,1324.31 523.994,1316.38 543.356,1308.49 562.718,1300.62 582.08,1292.8 
  601.442,1285.01 620.805,1277.26 640.167,1269.55 659.529,1261.89 678.891,1254.27 698.253,1246.7 717.616,1239.17 736.978,1231.7 756.34,1224.28 775.702,1216.92 
  795.064,1209.61 814.426,1202.36 833.789,1195.17 853.151,1188.05 872.513,1180.98 891.875,1173.98 911.237,1167.05 930.6,1160.19 949.962,1153.4 969.324,1146.68 
  988.686,1140.03 1008.05,1133.46 1027.41,1126.97 1046.77,1120.55 1066.13,1114.22 1085.5,1107.96 1104.86,1101.79 1124.22,1095.71 1143.58,1089.71 1162.95,1083.8 
  1182.31,1077.98 1201.67,1072.25 1221.03,1066.61 1240.39,1061.06 1259.76,1055.61 1279.12,1050.26 1298.48,1045 1317.84,1039.84 1337.21,1034.79 1356.57,1029.83 
  1375.93,1024.98 1395.29,1020.23 1414.65,1015.58 1434.02,1011.04 1453.38,1006.61 1472.74,1002.29 1492.1,998.077 1511.47,993.974 1530.83,989.983 1550.19,986.104 
  1569.55,982.338 1588.91,978.687 1608.28,975.15 1627.64,971.73 1647,968.427 1666.36,965.242 1685.72,962.175 1705.09,959.228 1724.45,956.4 1743.81,953.694 
  1763.17,951.108 1782.54,948.645 1801.9,946.304 1821.26,944.087 1840.62,941.993 1859.98,940.024 1879.35,938.179 1898.71,936.46 1918.07,934.866 1937.43,933.399 
  1956.8,932.058 1976.16,930.843 1995.52,929.756 2014.88,928.795 2034.24,927.963 2053.61,927.258 2072.97,926.681 2092.33,926.232 2111.69,925.911 2131.06,925.719 
  2150.42,925.655 
  "/>
<polyline clip-path="url(#clip042)" style="stroke:#472877; stroke-linecap:round; stroke-linejoin:round; stroke-width:4; stroke-opacity:1; fill:none" points="
  214.199,1445.72 233.561,1436.13 252.923,1426.59 272.285,1417.11 291.647,1407.69 311.01,1398.31 330.372,1389 349.734,1379.73 369.096,1370.53 388.458,1361.38 
  407.821,1352.3 427.183,1343.27 446.545,1334.3 465.907,1325.39 485.269,1316.54 504.631,1307.76 523.994,1299.04 543.356,1290.38 562.718,1281.79 582.08,1273.26 
  601.442,1264.8 620.805,1256.41 640.167,1248.09 659.529,1239.84 678.891,1231.65 698.253,1223.54 717.616,1215.5 736.978,1207.53 756.34,1199.64 775.702,1191.82 
  795.064,1184.08 814.426,1176.42 833.789,1168.83 853.151,1161.32 872.513,1153.89 891.875,1146.55 911.237,1139.28 930.6,1132.1 949.962,1125.01 969.324,1118 
  988.686,1111.07 1008.05,1104.23 1027.41,1097.48 1046.77,1090.82 1066.13,1084.25 1085.5,1077.78 1104.86,1071.39 1124.22,1065.1 1143.58,1058.9 1162.95,1052.8 
  1182.31,1046.8 1201.67,1040.89 1221.03,1035.09 1240.39,1029.38 1259.76,1023.77 1279.12,1018.27 1298.48,1012.87 1317.84,1007.58 1337.21,1002.38 1356.57,997.3 
  1375.93,992.323 1395.29,987.454 1414.65,982.694 1434.02,978.045 1453.38,973.507 1472.74,969.081 1492.1,964.768 1511.47,960.569 1530.83,956.484 1550.19,952.516 
  1569.55,948.664 1588.91,944.93 1608.28,941.314 1627.64,937.817 1647,934.44 1666.36,931.183 1685.72,928.048 1705.09,925.035 1724.45,922.145 1743.81,919.379 
  1763.17,916.737 1782.54,914.219 1801.9,911.827 1821.26,909.561 1840.62,907.421 1859.98,905.408 1879.35,903.523 1898.71,901.766 1918.07,900.137 1937.43,898.637 
  1956.8,897.267 1976.16,896.025 1995.52,894.914 2014.88,893.933 2034.24,893.082 2053.61,892.361 2072.97,891.772 2092.33,891.313 2111.69,890.985 2131.06,890.788 
  2150.42,890.723 
  "/>
<polyline clip-path="url(#clip042)" style="stroke:#3e4a89; stroke-linecap:round; stroke-linejoin:round; stroke-width:4; stroke-opacity:1; fill:none" points="
  214.199,1445.72 233.561,1435.53 252.923,1425.39 272.285,1415.31 291.647,1405.28 311.01,1395.31 330.372,1385.4 349.734,1375.54 369.096,1365.73 388.458,1355.99 
  407.821,1346.3 427.183,1336.68 446.545,1327.12 465.907,1317.61 485.269,1308.17 504.631,1298.8 523.994,1289.48 543.356,1280.24 562.718,1271.06 582.08,1261.95 
  601.442,1252.9 620.805,1243.93 640.167,1235.02 659.529,1226.19 678.891,1217.43 698.253,1208.74 717.616,1200.13 736.978,1191.59 756.34,1183.13 775.702,1174.75 
  795.064,1166.44 814.426,1158.22 833.789,1150.08 853.151,1142.02 872.513,1134.04 891.875,1126.15 911.237,1118.34 930.6,1110.63 949.962,1103 969.324,1095.45 
  988.686,1088 1008.05,1080.64 1027.41,1073.38 1046.77,1066.21 1066.13,1059.13 1085.5,1052.15 1104.86,1045.27 1124.22,1038.49 1143.58,1031.81 1162.95,1025.22 
  1182.31,1018.75 1201.67,1012.37 1221.03,1006.1 1240.39,999.941 1259.76,993.887 1279.12,987.941 1298.48,982.105 1317.84,976.38 1337.21,970.768 1356.57,965.269 
  1375.93,959.885 1395.29,954.617 1414.65,949.466 1434.02,944.433 1453.38,939.519 1472.74,934.725 1492.1,930.053 1511.47,925.504 1530.83,921.078 1550.19,916.777 
  1569.55,912.601 1588.91,908.552 1608.28,904.63 1627.64,900.837 1647,897.173 1666.36,893.64 1685.72,890.238 1705.09,886.968 1724.45,883.83 1743.81,880.827 
  1763.17,877.957 1782.54,875.223 1801.9,872.625 1821.26,870.163 1840.62,867.839 1859.98,865.652 1879.35,863.604 1898.71,861.694 1918.07,859.924 1937.43,858.294 
  1956.8,856.804 1976.16,855.454 1995.52,854.246 2014.88,853.179 2034.24,852.254 2053.61,851.471 2072.97,850.829 2092.33,850.331 2111.69,849.974 2131.06,849.76 
  2150.42,849.689 
  "/>
<polyline clip-path="url(#clip042)" style="stroke:#30678d; stroke-linecap:round; stroke-linejoin:round; stroke-width:4; stroke-opacity:1; fill:none" points="
  214.199,1445.72 233.561,1434.91 252.923,1424.16 272.285,1413.45 291.647,1402.81 311.01,1392.22 330.372,1381.68 349.734,1371.21 369.096,1360.79 388.458,1350.42 
  407.821,1340.12 427.183,1329.88 446.545,1319.7 465.907,1309.58 485.269,1299.53 504.631,1289.54 523.994,1279.62 543.356,1269.76 562.718,1259.97 582.08,1250.25 
  601.442,1240.59 620.805,1231.01 640.167,1221.5 659.529,1212.07 678.891,1202.71 698.253,1193.42 717.616,1184.21 736.978,1175.08 756.34,1166.02 775.702,1157.05 
  795.064,1148.16 814.426,1139.35 833.789,1130.63 853.151,1121.99 872.513,1113.43 891.875,1104.97 911.237,1096.59 930.6,1088.31 949.962,1080.11 969.324,1072.01 
  988.686,1064.01 1008.05,1056.1 1027.41,1048.28 1046.77,1040.57 1066.13,1032.95 1085.5,1025.44 1104.86,1018.03 1124.22,1010.73 1143.58,1003.53 1162.95,996.434 
  1182.31,989.45 1201.67,982.575 1221.03,975.812 1240.39,969.162 1259.76,962.625 1279.12,956.204 1298.48,949.9 1317.84,943.714 1337.21,937.648 1356.57,931.702 
  1375.93,925.879 1395.29,920.18 1414.65,914.605 1434.02,909.157 1453.38,903.837 1472.74,898.645 1492.1,893.583 1511.47,888.653 1530.83,883.856 1550.19,879.193 
  1569.55,874.664 1588.91,870.272 1608.28,866.017 1627.64,861.901 1647,857.924 1666.36,854.088 1685.72,850.393 1705.09,846.841 1724.45,843.433 1743.81,840.17 
  1763.17,837.052 1782.54,834.08 1801.9,831.255 1821.26,828.579 1840.62,826.051 1859.98,823.673 1879.35,821.445 1898.71,819.367 1918.07,817.441 1937.43,815.667 
  1956.8,814.046 1976.16,812.578 1995.52,811.263 2014.88,810.101 2034.24,809.094 2053.61,808.241 2072.97,807.543 2092.33,807 2111.69,806.612 2131.06,806.379 
  2150.42,806.302 
  "/>
<polyline clip-path="url(#clip042)" style="stroke:#25828e; stroke-linecap:round; stroke-linejoin:round; stroke-width:4; stroke-opacity:1; fill:none" points="
  214.199,1445.72 233.561,1434.24 252.923,1422.81 272.285,1411.44 291.647,1400.12 311.01,1388.86 330.372,1377.66 349.734,1366.51 369.096,1355.42 388.458,1344.39 
  407.821,1333.42 427.183,1322.51 446.545,1311.66 465.907,1300.88 485.269,1290.15 504.631,1279.5 523.994,1268.91 543.356,1258.39 562.718,1247.93 582.08,1237.55 
  601.442,1227.24 620.805,1217 640.167,1206.83 659.529,1196.74 678.891,1186.72 698.253,1176.78 717.616,1166.92 736.978,1157.14 756.34,1147.44 775.702,1137.82 
  795.064,1128.29 814.426,1118.84 833.789,1109.47 853.151,1100.2 872.513,1091.02 891.875,1081.92 911.237,1072.92 930.6,1064.01 949.962,1055.2 969.324,1046.49 
  988.686,1037.87 1008.05,1029.35 1027.41,1020.94 1046.77,1012.63 1066.13,1004.42 1085.5,996.322 1104.86,988.33 1124.22,980.448 1143.58,972.676 1162.95,965.018 
  1182.31,957.474 1201.67,950.046 1221.03,942.735 1240.39,935.544 1259.76,928.474 1279.12,921.526 1298.48,914.702 1317.84,908.004 1337.21,901.434 1356.57,894.992 
  1375.93,888.681 1395.29,882.501 1414.65,876.456 1434.02,870.545 1453.38,864.771 1472.74,859.136 1492.1,853.64 1511.47,848.285 1530.83,843.073 1550.19,838.005 
  1569.55,833.082 1588.91,828.306 1608.28,823.678 1627.64,819.2 1647,814.872 1666.36,810.697 1685.72,806.675 1705.09,802.807 1724.45,799.095 1743.81,795.539 
  1763.17,792.142 1782.54,788.903 1801.9,785.824 1821.26,782.906 1840.62,780.15 1859.98,777.557 1879.35,775.126 1898.71,772.86 1918.07,770.759 1937.43,768.823 
  1956.8,767.054 1976.16,765.451 1995.52,764.016 2014.88,762.748 2034.24,761.649 2053.61,760.718 2072.97,759.956 2092.33,759.363 2111.69,758.939 2131.06,758.685 
  2150.42,758.6 
  "/>
<polyline clip-path="url(#clip042)" style="stroke:#1e9d88; stroke-linecap:round; stroke-linejoin:round; stroke-width:4; stroke-opacity:1; fill:none" points="
  214.199,1445.72 233.561,1433.48 252.923,1421.29 272.285,1409.15 291.647,1397.08 311.01,1385.05 330.372,1373.08 349.734,1361.17 369.096,1349.32 388.458,1337.53 
  407.821,1325.8 427.183,1314.13 446.545,1302.52 465.907,1290.97 485.269,1279.49 504.631,1268.08 523.994,1256.73 543.356,1245.45 562.718,1234.24 582.08,1223.1 
  601.442,1212.04 620.805,1201.04 640.167,1190.12 659.529,1179.28 678.891,1168.51 698.253,1157.83 717.616,1147.22 736.978,1136.7 756.34,1126.25 775.702,1115.9 
  795.064,1105.62 814.426,1095.44 833.789,1085.35 853.151,1075.34 872.513,1065.43 891.875,1055.61 911.237,1045.89 930.6,1036.27 949.962,1026.74 969.324,1017.32 
  988.686,1008 1008.05,998.783 1027.41,989.673 1046.77,980.671 1066.13,971.778 1085.5,962.997 1104.86,954.33 1124.22,945.777 1143.58,937.342 1162.95,929.026 
  1182.31,920.831 1201.67,912.758 1221.03,904.811 1240.39,896.989 1259.76,889.296 1279.12,881.733 1298.48,874.303 1317.84,867.006 1337.21,859.845 1356.57,852.822 
  1375.93,845.939 1395.29,839.197 1414.65,832.598 1434.02,826.145 1453.38,819.838 1472.74,813.68 1492.1,807.673 1511.47,801.818 1530.83,796.117 1550.19,790.572 
  1569.55,785.184 1588.91,779.955 1608.28,774.887 1627.64,769.981 1647,765.238 1666.36,760.661 1685.72,756.251 1705.09,752.01 1724.45,747.937 1743.81,744.036 
  1763.17,740.307 1782.54,736.752 1801.9,733.371 1821.26,730.166 1840.62,727.139 1859.98,724.289 1879.35,721.619 1898.71,719.128 1918.07,716.818 1937.43,714.69 
  1956.8,712.745 1976.16,710.982 1995.52,709.404 2014.88,708.01 2034.24,706.8 2053.61,705.776 2072.97,704.938 2092.33,704.286 2111.69,703.819 2131.06,703.54 
  2150.42,703.446 
  "/>
<polyline clip-path="url(#clip042)" style="stroke:#35b778; stroke-linecap:round; stroke-linejoin:round; stroke-width:4; stroke-opacity:1; fill:none" points="
  214.199,1445.72 233.561,1432.56 252.923,1419.45 272.285,1406.4 291.647,1393.4 311.01,1380.46 330.372,1367.57 349.734,1354.74 369.096,1341.97 388.458,1329.26 
  407.821,1316.61 427.183,1304.02 446.545,1291.49 465.907,1279.03 485.269,1266.63 504.631,1254.3 523.994,1242.04 543.356,1229.84 562.718,1217.72 582.08,1205.66 
  601.442,1193.68 620.805,1181.77 640.167,1169.94 659.529,1158.18 678.891,1146.51 698.253,1134.91 717.616,1123.4 736.978,1111.97 756.34,1100.62 775.702,1089.36 
  795.064,1078.19 814.426,1067.11 833.789,1056.12 853.151,1045.22 872.513,1034.42 891.875,1023.72 911.237,1013.11 930.6,1002.61 949.962,992.209 969.324,981.914 
  988.686,971.725 1008.05,961.645 1027.41,951.677 1046.77,941.821 1066.13,932.081 1085.5,922.458 1104.86,912.954 1124.22,903.572 1143.58,894.313 1162.95,885.181 
  1182.31,876.176 1201.67,867.302 1221.03,858.56 1240.39,849.953 1259.76,841.483 1279.12,833.152 1298.48,824.962 1317.84,816.916 1337.21,809.016 1356.57,801.265 
  1375.93,793.663 1395.29,786.215 1414.65,778.921 1434.02,771.784 1453.38,764.806 1472.74,757.99 1492.1,751.338 1511.47,744.851 1530.83,738.533 1550.19,732.384 
  1569.55,726.407 1588.91,720.604 1608.28,714.977 1627.64,709.529 1647,704.26 1666.36,699.173 1685.72,694.27 1705.09,689.552 1724.45,685.021 1743.81,680.679 
  1763.17,676.528 1782.54,672.568 1801.9,668.802 1821.26,665.231 1840.62,661.857 1859.98,658.68 1879.35,655.702 1898.71,652.924 1918.07,650.348 1937.43,647.973 
  1956.8,645.802 1976.16,643.835 1995.52,642.073 2014.88,640.517 2034.24,639.166 2053.61,638.023 2072.97,637.087 2092.33,636.358 2111.69,635.837 2131.06,635.525 
  2150.42,635.421 
  "/>
<polyline clip-path="url(#clip042)" style="stroke:#6ccd59; stroke-linecap:round; stroke-linejoin:round; stroke-width:4; stroke-opacity:1; fill:none" points="
  214.199,1445.72 233.561,1431.36 252.923,1417.05 272.285,1402.8 291.647,1388.6 311.01,1374.46 330.372,1360.37 349.734,1346.34 369.096,1332.37 388.458,1318.46 
  407.821,1304.61 427.183,1290.81 446.545,1277.09 465.907,1263.42 485.269,1249.82 504.631,1236.28 523.994,1222.82 543.356,1209.42 562.718,1196.09 582.08,1182.83 
  601.442,1169.64 620.805,1156.53 640.167,1143.5 659.529,1130.54 678.891,1117.66 698.253,1104.86 717.616,1092.15 736.978,1079.52 756.34,1066.97 775.702,1054.51 
  795.064,1042.14 814.426,1029.87 833.789,1017.69 853.151,1005.6 872.513,993.61 891.875,981.721 911.237,969.934 930.6,958.251 949.962,946.675 969.324,935.207 
  988.686,923.851 1008.05,912.608 1027.41,901.481 1046.77,890.473 1066.13,879.585 1085.5,868.821 1104.86,858.182 1124.22,847.672 1143.58,837.293 1162.95,827.048 
  1182.31,816.939 1201.67,806.969 1221.03,797.141 1240.39,787.457 1259.76,777.92 1279.12,768.534 1298.48,759.3 1317.84,750.222 1337.21,741.302 1356.57,732.543 
  1375.93,723.948 1395.29,715.52 1414.65,707.262 1434.02,699.176 1453.38,691.265 1472.74,683.532 1492.1,675.98 1511.47,668.611 1530.83,661.429 1550.19,654.435 
  1569.55,647.633 1588.91,641.025 1608.28,634.614 1627.64,628.402 1647,622.392 1666.36,616.586 1685.72,610.987 1705.09,605.596 1724.45,600.417 1743.81,595.452 
  1763.17,590.702 1782.54,586.17 1801.9,581.857 1821.26,577.767 1840.62,573.899 1859.98,570.257 1879.35,566.842 1898.71,563.656 1918.07,560.699 1937.43,557.974 
  1956.8,555.481 1976.16,553.222 1995.52,551.198 2014.88,549.41 2034.24,547.858 2053.61,546.544 2072.97,545.468 2092.33,544.63 2111.69,544.032 2131.06,543.673 
  2150.42,543.553 
  "/>
<polyline clip-path="url(#clip042)" style="stroke:#b4dd2b; stroke-linecap:round; stroke-linejoin:round; stroke-width:4; stroke-opacity:1; fill:none" points="
  214.199,1445.72 233.561,1429.59 252.923,1413.51 272.285,1397.49 291.647,1381.52 311.01,1365.61 330.372,1349.75 349.734,1333.94 369.096,1318.2 388.458,1302.51 
  407.821,1286.87 427.183,1271.3 446.545,1255.79 465.907,1240.34 485.269,1224.95 504.631,1209.63 523.994,1194.37 543.356,1179.17 562.718,1164.05 582.08,1148.99 
  601.442,1134.01 620.805,1119.09 640.167,1104.25 659.529,1089.48 678.891,1074.8 698.253,1060.19 717.616,1045.66 736.978,1031.21 756.34,1016.85 775.702,1002.57 
  795.064,988.381 814.426,974.284 833.789,960.28 853.151,946.372 872.513,932.561 891.875,918.851 911.237,905.243 930.6,891.741 949.962,878.347 969.324,865.064 
  988.686,851.894 1008.05,838.841 1027.41,825.907 1046.77,813.095 1066.13,800.41 1085.5,787.852 1104.86,775.427 1124.22,763.137 1143.58,750.985 1162.95,738.975 
  1182.31,727.111 1201.67,715.395 1221.03,703.832 1240.39,692.424 1259.76,681.176 1279.12,670.092 1298.48,659.174 1317.84,648.427 1337.21,637.855 1356.57,627.461 
  1375.93,617.249 1395.29,607.223 1414.65,597.387 1434.02,587.746 1453.38,578.302 1472.74,569.059 1492.1,560.023 1511.47,551.195 1530.83,542.582 1550.19,534.185 
  1569.55,526.01 1588.91,518.059 1608.28,510.338 1627.64,502.848 1647,495.595 1666.36,488.581 1685.72,481.811 1705.09,475.287 1724.45,469.014 1743.81,462.994 
  1763.17,457.23 1782.54,451.727 1801.9,446.486 1821.26,441.511 1840.62,436.804 1859.98,432.369 1879.35,428.207 1898.71,424.322 1918.07,420.715 1937.43,417.388 
  1956.8,414.344 1976.16,411.584 1995.52,409.111 2014.88,406.924 2034.24,405.027 2053.61,403.419 2072.97,402.103 2092.33,401.078 2111.69,400.345 2131.06,399.906 
  2150.42,399.759 
  "/>
<polyline clip-path="url(#clip042)" style="stroke:#fde724; stroke-linecap:round; stroke-linejoin:round; stroke-width:4; stroke-opacity:1; fill:none" points="
  214.199,1445.72 233.561,1426.28 252.923,1406.9 272.285,1387.56 291.647,1368.28 311.01,1349.05 330.372,1329.87 349.734,1310.73 369.096,1291.65 388.458,1272.62 
  407.821,1253.64 427.183,1234.7 446.545,1215.82 465.907,1196.99 485.269,1178.21 504.631,1159.48 523.994,1140.8 543.356,1122.17 562.718,1103.6 582.08,1085.08 
  601.442,1066.62 620.805,1048.21 640.167,1029.86 659.529,1011.57 678.891,993.336 698.253,975.166 717.616,957.058 736.978,939.015 756.34,921.039 775.702,903.131 
  795.064,885.294 814.426,867.529 833.789,849.84 853.151,832.228 872.513,814.696 891.875,797.248 911.237,779.885 930.6,762.611 949.962,745.429 969.324,728.343 
  988.686,711.356 1008.05,694.471 1027.41,677.693 1046.77,661.026 1066.13,644.473 1085.5,628.039 1104.86,611.728 1124.22,595.546 1143.58,579.496 1162.95,563.584 
  1182.31,547.815 1201.67,532.195 1221.03,516.729 1240.39,501.422 1259.76,486.28 1279.12,471.31 1298.48,456.517 1317.84,441.907 1337.21,427.488 1356.57,413.266 
  1375.93,399.248 1395.29,385.439 1414.65,371.848 1434.02,358.482 1453.38,345.348 1472.74,332.452 1492.1,319.803 1511.47,307.408 1530.83,295.275 1550.19,283.411 
  1569.55,271.823 1588.91,260.521 1608.28,249.51 1627.64,238.8 1647,228.398 1666.36,218.311 1685.72,208.547 1705.09,199.113 1724.45,190.018 1743.81,181.268 
  1763.17,172.87 1782.54,164.832 1801.9,157.16 1821.26,149.861 1840.62,142.942 1859.98,136.409 1879.35,130.267 1898.71,124.523 1918.07,119.181 1937.43,114.247 
  1956.8,109.726 1976.16,105.621 1995.52,101.938 2014.88,98.6792 2034.24,95.8482 2053.61,93.4479 2072.97,91.4807 2092.33,89.9486 2111.69,88.8532 2131.06,88.1955 
  2150.42,87.9763 
  "/>
<path clip-path="url(#clip040)" d="
M1828.23 665.458 L2140.09 665.458 L2140.09 95.2176 L1828.23 95.2176  Z
  " fill="#ffffff" fill-rule="evenodd" fill-opacity="1"/>
<polyline clip-path="url(#clip040)" style="stroke:#000000; stroke-linecap:round; stroke-linejoin:round; stroke-width:4; stroke-opacity:1; fill:none" points="
  1828.23,665.458 2140.09,665.458 2140.09,95.2176 1828.23,95.2176 1828.23,665.458 
  "/>
<polyline clip-path="url(#clip040)" style="stroke:#440154; stroke-linecap:round; stroke-linejoin:round; stroke-width:4; stroke-opacity:1; fill:none" points="
  1851.03,147.058 1987.86,147.058 
  "/>
<path clip-path="url(#clip040)" d="M2024.51 166.745 Q2022.7 171.375 2020.99 172.787 Q2019.27 174.199 2016.4 174.199 L2013 174.199 L2013 170.634 L2015.5 170.634 Q2017.26 170.634 2018.23 169.8 Q2019.2 168.967 2020.39 165.865 L2021.15 163.921 L2010.66 138.412 L2015.18 138.412 L2023.28 158.689 L2031.38 138.412 L2035.89 138.412 L2024.51 166.745 Z" fill="#000000" fill-rule="evenodd" fill-opacity="1" /><path clip-path="url(#clip040)" d="M2043.19 160.402 L2050.82 160.402 L2050.82 134.037 L2042.51 135.703 L2042.51 131.444 L2050.78 129.778 L2055.45 129.778 L2055.45 160.402 L2063.09 160.402 L2063.09 164.338 L2043.19 164.338 L2043.19 160.402 Z" fill="#000000" fill-rule="evenodd" fill-opacity="1" /><polyline clip-path="url(#clip040)" style="stroke:#472877; stroke-linecap:round; stroke-linejoin:round; stroke-width:4; stroke-opacity:1; fill:none" points="
  1851.03,198.898 1987.86,198.898 
  "/>
<path clip-path="url(#clip040)" d="M2024.51 218.585 Q2022.7 223.215 2020.99 224.627 Q2019.27 226.039 2016.4 226.039 L2013 226.039 L2013 222.474 L2015.5 222.474 Q2017.26 222.474 2018.23 221.64 Q2019.2 220.807 2020.39 217.705 L2021.15 215.761 L2010.66 190.252 L2015.18 190.252 L2023.28 210.529 L2031.38 190.252 L2035.89 190.252 L2024.51 218.585 Z" fill="#000000" fill-rule="evenodd" fill-opacity="1" /><path clip-path="url(#clip040)" d="M2046.4 212.242 L2062.72 212.242 L2062.72 216.178 L2040.78 216.178 L2040.78 212.242 Q2043.44 209.488 2048.02 204.858 Q2052.63 200.205 2053.81 198.863 Q2056.06 196.34 2056.94 194.604 Q2057.84 192.844 2057.84 191.155 Q2057.84 188.4 2055.89 186.664 Q2053.97 184.928 2050.87 184.928 Q2048.67 184.928 2046.22 185.692 Q2043.79 186.455 2041.01 188.006 L2041.01 183.284 Q2043.83 182.15 2046.29 181.571 Q2048.74 180.993 2050.78 180.993 Q2056.15 180.993 2059.34 183.678 Q2062.54 186.363 2062.54 190.854 Q2062.54 192.983 2061.73 194.905 Q2060.94 196.803 2058.83 199.395 Q2058.26 200.067 2055.15 203.284 Q2052.05 206.479 2046.4 212.242 Z" fill="#000000" fill-rule="evenodd" fill-opacity="1" /><polyline clip-path="url(#clip040)" style="stroke:#3e4a89; stroke-linecap:round; stroke-linejoin:round; stroke-width:4; stroke-opacity:1; fill:none" points="
  1851.03,250.738 1987.86,250.738 
  "/>
<path clip-path="url(#clip040)" d="M2024.51 270.425 Q2022.7 275.055 2020.99 276.467 Q2019.27 277.879 2016.4 277.879 L2013 277.879 L2013 274.314 L2015.5 274.314 Q2017.26 274.314 2018.23 273.48 Q2019.2 272.647 2020.39 269.545 L2021.15 267.601 L2010.66 242.092 L2015.18 242.092 L2023.28 262.369 L2031.38 242.092 L2035.89 242.092 L2024.51 270.425 Z" fill="#000000" fill-rule="evenodd" fill-opacity="1" /><path clip-path="url(#clip040)" d="M2056.54 249.383 Q2059.9 250.101 2061.77 252.369 Q2063.67 254.638 2063.67 257.971 Q2063.67 263.087 2060.15 265.888 Q2056.64 268.689 2050.15 268.689 Q2047.98 268.689 2045.66 268.249 Q2043.37 267.832 2040.92 266.976 L2040.92 262.462 Q2042.86 263.596 2045.18 264.175 Q2047.49 264.754 2050.01 264.754 Q2054.41 264.754 2056.7 263.018 Q2059.02 261.281 2059.02 257.971 Q2059.02 254.916 2056.87 253.203 Q2054.74 251.467 2050.92 251.467 L2046.89 251.467 L2046.89 247.624 L2051.1 247.624 Q2054.55 247.624 2056.38 246.258 Q2058.21 244.87 2058.21 242.277 Q2058.21 239.615 2056.31 238.203 Q2054.44 236.768 2050.92 236.768 Q2049 236.768 2046.8 237.184 Q2044.6 237.601 2041.96 238.481 L2041.96 234.314 Q2044.62 233.573 2046.94 233.203 Q2049.27 232.833 2051.33 232.833 Q2056.66 232.833 2059.76 235.263 Q2062.86 237.67 2062.86 241.791 Q2062.86 244.661 2061.22 246.652 Q2059.57 248.62 2056.54 249.383 Z" fill="#000000" fill-rule="evenodd" fill-opacity="1" /><polyline clip-path="url(#clip040)" style="stroke:#30678d; stroke-linecap:round; stroke-linejoin:round; stroke-width:4; stroke-opacity:1; fill:none" points="
  1851.03,302.578 1987.86,302.578 
  "/>
<path clip-path="url(#clip040)" d="M2024.51 322.265 Q2022.7 326.895 2020.99 328.307 Q2019.27 329.719 2016.4 329.719 L2013 329.719 L2013 326.154 L2015.5 326.154 Q2017.26 326.154 2018.23 325.32 Q2019.2 324.487 2020.39 321.385 L2021.15 319.441 L2010.66 293.932 L2015.18 293.932 L2023.28 314.209 L2031.38 293.932 L2035.89 293.932 L2024.51 322.265 Z" fill="#000000" fill-rule="evenodd" fill-opacity="1" /><path clip-path="url(#clip040)" d="M2055.22 289.372 L2043.42 307.821 L2055.22 307.821 L2055.22 289.372 M2054 285.298 L2059.88 285.298 L2059.88 307.821 L2064.81 307.821 L2064.81 311.709 L2059.88 311.709 L2059.88 319.858 L2055.22 319.858 L2055.22 311.709 L2039.62 311.709 L2039.62 307.196 L2054 285.298 Z" fill="#000000" fill-rule="evenodd" fill-opacity="1" /><polyline clip-path="url(#clip040)" style="stroke:#25828e; stroke-linecap:round; stroke-linejoin:round; stroke-width:4; stroke-opacity:1; fill:none" points="
  1851.03,354.418 1987.86,354.418 
  "/>
<path clip-path="url(#clip040)" d="M2024.51 374.105 Q2022.7 378.735 2020.99 380.147 Q2019.27 381.559 2016.4 381.559 L2013 381.559 L2013 377.994 L2015.5 377.994 Q2017.26 377.994 2018.23 377.16 Q2019.2 376.327 2020.39 373.225 L2021.15 371.281 L2010.66 345.772 L2015.18 345.772 L2023.28 366.049 L2031.38 345.772 L2035.89 345.772 L2024.51 374.105 Z" fill="#000000" fill-rule="evenodd" fill-opacity="1" /><path clip-path="url(#clip040)" d="M2042.42 337.138 L2060.78 337.138 L2060.78 341.073 L2046.7 341.073 L2046.7 349.545 Q2047.72 349.198 2048.74 349.036 Q2049.76 348.85 2050.78 348.85 Q2056.57 348.85 2059.95 352.022 Q2063.32 355.193 2063.32 360.61 Q2063.32 366.188 2059.85 369.29 Q2056.38 372.369 2050.06 372.369 Q2047.89 372.369 2045.62 371.998 Q2043.37 371.628 2040.96 370.887 L2040.96 366.188 Q2043.05 367.323 2045.27 367.878 Q2047.49 368.434 2049.97 368.434 Q2053.97 368.434 2056.31 366.327 Q2058.65 364.221 2058.65 360.61 Q2058.65 356.999 2056.31 354.892 Q2053.97 352.786 2049.97 352.786 Q2048.09 352.786 2046.22 353.202 Q2044.37 353.619 2042.42 354.499 L2042.42 337.138 Z" fill="#000000" fill-rule="evenodd" fill-opacity="1" /><polyline clip-path="url(#clip040)" style="stroke:#1e9d88; stroke-linecap:round; stroke-linejoin:round; stroke-width:4; stroke-opacity:1; fill:none" points="
  1851.03,406.258 1987.86,406.258 
  "/>
<path clip-path="url(#clip040)" d="M2024.51 425.945 Q2022.7 430.575 2020.99 431.987 Q2019.27 433.399 2016.4 433.399 L2013 433.399 L2013 429.834 L2015.5 429.834 Q2017.26 429.834 2018.23 429 Q2019.2 428.167 2020.39 425.065 L2021.15 423.121 L2010.66 397.612 L2015.18 397.612 L2023.28 417.889 L2031.38 397.612 L2035.89 397.612 L2024.51 425.945 Z" fill="#000000" fill-rule="evenodd" fill-opacity="1" /><path clip-path="url(#clip040)" d="M2052.95 404.394 Q2049.81 404.394 2047.95 406.547 Q2046.13 408.7 2046.13 412.45 Q2046.13 416.176 2047.95 418.352 Q2049.81 420.505 2052.95 420.505 Q2056.1 420.505 2057.93 418.352 Q2059.78 416.176 2059.78 412.45 Q2059.78 408.7 2057.93 406.547 Q2056.1 404.394 2052.95 404.394 M2062.24 389.741 L2062.24 394.001 Q2060.48 393.167 2058.67 392.728 Q2056.89 392.288 2055.13 392.288 Q2050.5 392.288 2048.05 395.413 Q2045.62 398.538 2045.27 404.857 Q2046.64 402.843 2048.7 401.778 Q2050.76 400.69 2053.23 400.69 Q2058.44 400.69 2061.45 403.862 Q2064.48 407.01 2064.48 412.45 Q2064.48 417.774 2061.33 420.991 Q2058.19 424.209 2052.95 424.209 Q2046.96 424.209 2043.79 419.626 Q2040.62 415.019 2040.62 406.292 Q2040.62 398.098 2044.51 393.237 Q2048.39 388.353 2054.95 388.353 Q2056.7 388.353 2058.49 388.7 Q2060.29 389.047 2062.24 389.741 Z" fill="#000000" fill-rule="evenodd" fill-opacity="1" /><polyline clip-path="url(#clip040)" style="stroke:#35b778; stroke-linecap:round; stroke-linejoin:round; stroke-width:4; stroke-opacity:1; fill:none" points="
  1851.03,458.098 1987.86,458.098 
  "/>
<path clip-path="url(#clip040)" d="M2024.51 477.785 Q2022.7 482.415 2020.99 483.827 Q2019.27 485.239 2016.4 485.239 L2013 485.239 L2013 481.674 L2015.5 481.674 Q2017.26 481.674 2018.23 480.84 Q2019.2 480.007 2020.39 476.905 L2021.15 474.961 L2010.66 449.452 L2015.18 449.452 L2023.28 469.729 L2031.38 449.452 L2035.89 449.452 L2024.51 477.785 Z" fill="#000000" fill-rule="evenodd" fill-opacity="1" /><path clip-path="url(#clip040)" d="M2041.2 440.818 L2063.42 440.818 L2063.42 442.808 L2050.87 475.378 L2045.99 475.378 L2057.79 444.753 L2041.2 444.753 L2041.2 440.818 Z" fill="#000000" fill-rule="evenodd" fill-opacity="1" /><polyline clip-path="url(#clip040)" style="stroke:#6ccd59; stroke-linecap:round; stroke-linejoin:round; stroke-width:4; stroke-opacity:1; fill:none" points="
  1851.03,509.938 1987.86,509.938 
  "/>
<path clip-path="url(#clip040)" d="M2024.51 529.625 Q2022.7 534.255 2020.99 535.667 Q2019.27 537.079 2016.4 537.079 L2013 537.079 L2013 533.514 L2015.5 533.514 Q2017.26 533.514 2018.23 532.68 Q2019.2 531.847 2020.39 528.745 L2021.15 526.801 L2010.66 501.292 L2015.18 501.292 L2023.28 521.569 L2031.38 501.292 L2035.89 501.292 L2024.51 529.625 Z" fill="#000000" fill-rule="evenodd" fill-opacity="1" /><path clip-path="url(#clip040)" d="M2052.38 510.806 Q2049.04 510.806 2047.12 512.588 Q2045.22 514.37 2045.22 517.495 Q2045.22 520.62 2047.12 522.403 Q2049.04 524.185 2052.38 524.185 Q2055.71 524.185 2057.63 522.403 Q2059.55 520.597 2059.55 517.495 Q2059.55 514.37 2057.63 512.588 Q2055.73 510.806 2052.38 510.806 M2047.7 508.815 Q2044.69 508.074 2043 506.014 Q2041.33 503.954 2041.33 500.991 Q2041.33 496.847 2044.27 494.44 Q2047.24 492.033 2052.38 492.033 Q2057.54 492.033 2060.48 494.44 Q2063.42 496.847 2063.42 500.991 Q2063.42 503.954 2061.73 506.014 Q2060.06 508.074 2057.07 508.815 Q2060.45 509.602 2062.33 511.894 Q2064.23 514.185 2064.23 517.495 Q2064.23 522.519 2061.15 525.204 Q2058.09 527.889 2052.38 527.889 Q2046.66 527.889 2043.58 525.204 Q2040.52 522.519 2040.52 517.495 Q2040.52 514.185 2042.42 511.894 Q2044.32 509.602 2047.7 508.815 M2045.99 501.431 Q2045.99 504.116 2047.65 505.62 Q2049.34 507.125 2052.38 507.125 Q2055.39 507.125 2057.07 505.62 Q2058.79 504.116 2058.79 501.431 Q2058.79 498.745 2057.07 497.241 Q2055.39 495.736 2052.38 495.736 Q2049.34 495.736 2047.65 497.241 Q2045.99 498.745 2045.99 501.431 Z" fill="#000000" fill-rule="evenodd" fill-opacity="1" /><polyline clip-path="url(#clip040)" style="stroke:#b4dd2b; stroke-linecap:round; stroke-linejoin:round; stroke-width:4; stroke-opacity:1; fill:none" points="
  1851.03,561.778 1987.86,561.778 
  "/>
<path clip-path="url(#clip040)" d="M2024.51 581.465 Q2022.7 586.095 2020.99 587.507 Q2019.27 588.919 2016.4 588.919 L2013 588.919 L2013 585.354 L2015.5 585.354 Q2017.26 585.354 2018.23 584.52 Q2019.2 583.687 2020.39 580.585 L2021.15 578.641 L2010.66 553.132 L2015.18 553.132 L2023.28 573.409 L2031.38 553.132 L2035.89 553.132 L2024.51 581.465 Z" fill="#000000" fill-rule="evenodd" fill-opacity="1" /><path clip-path="url(#clip040)" d="M2042.51 578.34 L2042.51 574.081 Q2044.27 574.914 2046.08 575.354 Q2047.89 575.794 2049.62 575.794 Q2054.25 575.794 2056.68 572.692 Q2059.14 569.567 2059.48 563.224 Q2058.14 565.215 2056.08 566.28 Q2054.02 567.345 2051.52 567.345 Q2046.33 567.345 2043.3 564.22 Q2040.29 561.072 2040.29 555.632 Q2040.29 550.308 2043.44 547.09 Q2046.59 543.873 2051.82 543.873 Q2057.82 543.873 2060.96 548.479 Q2064.14 553.062 2064.14 561.812 Q2064.14 569.984 2060.25 574.868 Q2056.38 579.729 2049.83 579.729 Q2048.07 579.729 2046.26 579.382 Q2044.46 579.034 2042.51 578.34 M2051.82 563.687 Q2054.97 563.687 2056.8 561.534 Q2058.65 559.382 2058.65 555.632 Q2058.65 551.905 2056.8 549.752 Q2054.97 547.576 2051.82 547.576 Q2048.67 547.576 2046.82 549.752 Q2044.99 551.905 2044.99 555.632 Q2044.99 559.382 2046.82 561.534 Q2048.67 563.687 2051.82 563.687 Z" fill="#000000" fill-rule="evenodd" fill-opacity="1" /><polyline clip-path="url(#clip040)" style="stroke:#fde724; stroke-linecap:round; stroke-linejoin:round; stroke-width:4; stroke-opacity:1; fill:none" points="
  1851.03,613.618 1987.86,613.618 
  "/>
<path clip-path="url(#clip040)" d="M2024.51 633.305 Q2022.7 637.935 2020.99 639.347 Q2019.27 640.759 2016.4 640.759 L2013 640.759 L2013 637.194 L2015.5 637.194 Q2017.26 637.194 2018.23 636.36 Q2019.2 635.527 2020.39 632.425 L2021.15 630.481 L2010.66 604.972 L2015.18 604.972 L2023.28 625.249 L2031.38 604.972 L2035.89 604.972 L2024.51 633.305 Z" fill="#000000" fill-rule="evenodd" fill-opacity="1" /><path clip-path="url(#clip040)" d="M2043.19 626.962 L2050.82 626.962 L2050.82 600.597 L2042.51 602.263 L2042.51 598.004 L2050.78 596.338 L2055.45 596.338 L2055.45 626.962 L2063.09 626.962 L2063.09 630.898 L2043.19 630.898 L2043.19 626.962 Z" fill="#000000" fill-rule="evenodd" fill-opacity="1" /><path clip-path="url(#clip040)" d="M2082.54 599.416 Q2078.93 599.416 2077.1 602.981 Q2075.29 606.523 2075.29 613.652 Q2075.29 620.759 2077.1 624.324 Q2078.93 627.865 2082.54 627.865 Q2086.17 627.865 2087.98 624.324 Q2089.81 620.759 2089.81 613.652 Q2089.81 606.523 2087.98 602.981 Q2086.17 599.416 2082.54 599.416 M2082.54 595.713 Q2088.35 595.713 2091.4 600.319 Q2094.48 604.902 2094.48 613.652 Q2094.48 622.379 2091.4 626.986 Q2088.35 631.569 2082.54 631.569 Q2076.73 631.569 2073.65 626.986 Q2070.59 622.379 2070.59 613.652 Q2070.59 604.902 2073.65 600.319 Q2076.73 595.713 2082.54 595.713 Z" fill="#000000" fill-rule="evenodd" fill-opacity="1" /><path clip-path="url(#clip040)" d="M2177.19 909.648 L2177.19 917.009 L2185.96 917.009 L2185.96 920.319 L2177.19 920.319 L2177.19 934.393 Q2177.19 937.564 2178.04 938.467 Q2178.92 939.37 2181.59 939.37 L2185.96 939.37 L2185.96 942.935 L2181.59 942.935 Q2176.65 942.935 2174.78 941.106 Q2172.9 939.254 2172.9 934.393 L2172.9 920.319 L2169.78 920.319 L2169.78 917.009 L2172.9 917.009 L2172.9 909.648 L2177.19 909.648 Z" fill="#000000" fill-rule="evenodd" fill-opacity="1" /><path clip-path="url(#clip040)" d="M2207.19 921.407 L2236.86 921.407 L2236.86 925.296 L2207.19 925.296 L2207.19 921.407 M2207.19 930.851 L2236.86 930.851 L2236.86 934.787 L2207.19 934.787 L2207.19 930.851 Z" fill="#000000" fill-rule="evenodd" fill-opacity="1" /><path clip-path="url(#clip040)" d="M2272.02 911.453 Q2268.41 911.453 2266.58 915.018 Q2264.78 918.56 2264.78 925.689 Q2264.78 932.796 2266.58 936.361 Q2268.41 939.902 2272.02 939.902 Q2275.66 939.902 2277.46 936.361 Q2279.29 932.796 2279.29 925.689 Q2279.29 918.56 2277.46 915.018 Q2275.66 911.453 2272.02 911.453 M2272.02 907.75 Q2277.83 907.75 2280.89 912.356 Q2283.97 916.939 2283.97 925.689 Q2283.97 934.416 2280.89 939.023 Q2277.83 943.606 2272.02 943.606 Q2266.21 943.606 2263.14 939.023 Q2260.08 934.416 2260.08 925.689 Q2260.08 916.939 2263.14 912.356 Q2266.21 907.75 2272.02 907.75 Z" fill="#000000" fill-rule="evenodd" fill-opacity="1" /><path clip-path="url(#clip040)" d="M2292.19 937.055 L2297.07 937.055 L2297.07 942.935 L2292.19 942.935 L2292.19 937.055 Z" fill="#000000" fill-rule="evenodd" fill-opacity="1" /><path clip-path="url(#clip040)" d="M2317.26 911.453 Q2313.64 911.453 2311.82 915.018 Q2310.01 918.56 2310.01 925.689 Q2310.01 932.796 2311.82 936.361 Q2313.64 939.902 2317.26 939.902 Q2320.89 939.902 2322.7 936.361 Q2324.52 932.796 2324.52 925.689 Q2324.52 918.56 2322.7 915.018 Q2320.89 911.453 2317.26 911.453 M2317.26 907.75 Q2323.07 907.75 2326.12 912.356 Q2329.2 916.939 2329.2 925.689 Q2329.2 934.416 2326.12 939.023 Q2323.07 943.606 2317.26 943.606 Q2311.45 943.606 2308.37 939.023 Q2305.31 934.416 2305.31 925.689 Q2305.31 916.939 2308.37 912.356 Q2311.45 907.75 2317.26 907.75 Z" fill="#000000" fill-rule="evenodd" fill-opacity="1" /><path clip-path="url(#clip040)" d="M2177.19 874.716 L2177.19 882.077 L2185.96 882.077 L2185.96 885.387 L2177.19 885.387 L2177.19 899.461 Q2177.19 902.632 2178.04 903.535 Q2178.92 904.438 2181.59 904.438 L2185.96 904.438 L2185.96 908.003 L2181.59 908.003 Q2176.65 908.003 2174.78 906.174 Q2172.9 904.322 2172.9 899.461 L2172.9 885.387 L2169.78 885.387 L2169.78 882.077 L2172.9 882.077 L2172.9 874.716 L2177.19 874.716 Z" fill="#000000" fill-rule="evenodd" fill-opacity="1" /><path clip-path="url(#clip040)" d="M2207.19 886.475 L2236.86 886.475 L2236.86 890.364 L2207.19 890.364 L2207.19 886.475 M2207.19 895.92 L2236.86 895.92 L2236.86 899.855 L2207.19 899.855 L2207.19 895.92 Z" fill="#000000" fill-rule="evenodd" fill-opacity="1" /><path clip-path="url(#clip040)" d="M2272.02 876.521 Q2268.41 876.521 2266.58 880.086 Q2264.78 883.628 2264.78 890.757 Q2264.78 897.864 2266.58 901.429 Q2268.41 904.97 2272.02 904.97 Q2275.66 904.97 2277.46 901.429 Q2279.29 897.864 2279.29 890.757 Q2279.29 883.628 2277.46 880.086 Q2275.66 876.521 2272.02 876.521 M2272.02 872.818 Q2277.83 872.818 2280.89 877.424 Q2283.97 882.008 2283.97 890.757 Q2283.97 899.484 2280.89 904.091 Q2277.83 908.674 2272.02 908.674 Q2266.21 908.674 2263.14 904.091 Q2260.08 899.484 2260.08 890.757 Q2260.08 882.008 2263.14 877.424 Q2266.21 872.818 2272.02 872.818 Z" fill="#000000" fill-rule="evenodd" fill-opacity="1" /><path clip-path="url(#clip040)" d="M2292.19 902.123 L2297.07 902.123 L2297.07 908.003 L2292.19 908.003 L2292.19 902.123 Z" fill="#000000" fill-rule="evenodd" fill-opacity="1" /><path clip-path="url(#clip040)" d="M2311.28 904.068 L2327.6 904.068 L2327.6 908.003 L2305.66 908.003 L2305.66 904.068 Q2308.32 901.313 2312.9 896.683 Q2317.51 892.031 2318.69 890.688 Q2320.94 888.165 2321.82 886.429 Q2322.72 884.67 2322.72 882.98 Q2322.72 880.225 2320.77 878.489 Q2318.85 876.753 2315.75 876.753 Q2313.55 876.753 2311.1 877.517 Q2308.67 878.281 2305.89 879.832 L2305.89 875.109 Q2308.71 873.975 2311.17 873.396 Q2313.62 872.818 2315.66 872.818 Q2321.03 872.818 2324.22 875.503 Q2327.42 878.188 2327.42 882.679 Q2327.42 884.808 2326.61 886.73 Q2325.82 888.628 2323.71 891.22 Q2323.14 891.892 2320.03 895.109 Q2316.93 898.304 2311.28 904.068 Z" fill="#000000" fill-rule="evenodd" fill-opacity="1" /><path clip-path="url(#clip040)" d="M2177.19 833.682 L2177.19 841.043 L2185.96 841.043 L2185.96 844.353 L2177.19 844.353 L2177.19 858.427 Q2177.19 861.599 2178.04 862.501 Q2178.92 863.404 2181.59 863.404 L2185.96 863.404 L2185.96 866.969 L2181.59 866.969 Q2176.65 866.969 2174.78 865.14 Q2172.9 863.288 2172.9 858.427 L2172.9 844.353 L2169.78 844.353 L2169.78 841.043 L2172.9 841.043 L2172.9 833.682 L2177.19 833.682 Z" fill="#000000" fill-rule="evenodd" fill-opacity="1" /><path clip-path="url(#clip040)" d="M2207.19 845.441 L2236.86 845.441 L2236.86 849.33 L2207.19 849.33 L2207.19 845.441 M2207.19 854.886 L2236.86 854.886 L2236.86 858.821 L2207.19 858.821 L2207.19 854.886 Z" fill="#000000" fill-rule="evenodd" fill-opacity="1" /><path clip-path="url(#clip040)" d="M2272.02 835.488 Q2268.41 835.488 2266.58 839.052 Q2264.78 842.594 2264.78 849.724 Q2264.78 856.83 2266.58 860.395 Q2268.41 863.937 2272.02 863.937 Q2275.66 863.937 2277.46 860.395 Q2279.29 856.83 2279.29 849.724 Q2279.29 842.594 2277.46 839.052 Q2275.66 835.488 2272.02 835.488 M2272.02 831.784 Q2277.83 831.784 2280.89 836.39 Q2283.97 840.974 2283.97 849.724 Q2283.97 858.45 2280.89 863.057 Q2277.83 867.64 2272.02 867.64 Q2266.21 867.64 2263.14 863.057 Q2260.08 858.45 2260.08 849.724 Q2260.08 840.974 2263.14 836.39 Q2266.21 831.784 2272.02 831.784 Z" fill="#000000" fill-rule="evenodd" fill-opacity="1" /><path clip-path="url(#clip040)" d="M2292.19 861.089 L2297.07 861.089 L2297.07 866.969 L2292.19 866.969 L2292.19 861.089 Z" fill="#000000" fill-rule="evenodd" fill-opacity="1" /><path clip-path="url(#clip040)" d="M2320.1 836.483 L2308.3 854.932 L2320.1 854.932 L2320.1 836.483 M2318.88 832.409 L2324.76 832.409 L2324.76 854.932 L2329.69 854.932 L2329.69 858.821 L2324.76 858.821 L2324.76 866.969 L2320.1 866.969 L2320.1 858.821 L2304.5 858.821 L2304.5 854.307 L2318.88 832.409 Z" fill="#000000" fill-rule="evenodd" fill-opacity="1" /><path clip-path="url(#clip040)" d="M2177.19 790.295 L2177.19 797.656 L2185.96 797.656 L2185.96 800.966 L2177.19 800.966 L2177.19 815.04 Q2177.19 818.211 2178.04 819.114 Q2178.92 820.017 2181.59 820.017 L2185.96 820.017 L2185.96 823.582 L2181.59 823.582 Q2176.65 823.582 2174.78 821.753 Q2172.9 819.901 2172.9 815.04 L2172.9 800.966 L2169.78 800.966 L2169.78 797.656 L2172.9 797.656 L2172.9 790.295 L2177.19 790.295 Z" fill="#000000" fill-rule="evenodd" fill-opacity="1" /><path clip-path="url(#clip040)" d="M2207.19 802.054 L2236.86 802.054 L2236.86 805.943 L2207.19 805.943 L2207.19 802.054 M2207.19 811.499 L2236.86 811.499 L2236.86 815.434 L2207.19 815.434 L2207.19 811.499 Z" fill="#000000" fill-rule="evenodd" fill-opacity="1" /><path clip-path="url(#clip040)" d="M2272.02 792.101 Q2268.41 792.101 2266.58 795.665 Q2264.78 799.207 2264.78 806.337 Q2264.78 813.443 2266.58 817.008 Q2268.41 820.549 2272.02 820.549 Q2275.66 820.549 2277.46 817.008 Q2279.29 813.443 2279.29 806.337 Q2279.29 799.207 2277.46 795.665 Q2275.66 792.101 2272.02 792.101 M2272.02 788.397 Q2277.83 788.397 2280.89 793.003 Q2283.97 797.587 2283.97 806.337 Q2283.97 815.063 2280.89 819.67 Q2277.83 824.253 2272.02 824.253 Q2266.21 824.253 2263.14 819.67 Q2260.08 815.063 2260.08 806.337 Q2260.08 797.587 2263.14 793.003 Q2266.21 788.397 2272.02 788.397 Z" fill="#000000" fill-rule="evenodd" fill-opacity="1" /><path clip-path="url(#clip040)" d="M2292.19 817.702 L2297.07 817.702 L2297.07 823.582 L2292.19 823.582 L2292.19 817.702 Z" fill="#000000" fill-rule="evenodd" fill-opacity="1" /><path clip-path="url(#clip040)" d="M2317.83 804.438 Q2314.69 804.438 2312.83 806.591 Q2311.01 808.744 2311.01 812.494 Q2311.01 816.221 2312.83 818.397 Q2314.69 820.549 2317.83 820.549 Q2320.98 820.549 2322.81 818.397 Q2324.66 816.221 2324.66 812.494 Q2324.66 808.744 2322.81 806.591 Q2320.98 804.438 2317.83 804.438 M2327.12 789.786 L2327.12 794.045 Q2325.36 793.212 2323.55 792.772 Q2321.77 792.332 2320.01 792.332 Q2315.38 792.332 2312.93 795.457 Q2310.5 798.582 2310.15 804.901 Q2311.51 802.887 2313.58 801.823 Q2315.64 800.735 2318.11 800.735 Q2323.32 800.735 2326.33 803.906 Q2329.36 807.054 2329.36 812.494 Q2329.36 817.818 2326.21 821.036 Q2323.07 824.253 2317.83 824.253 Q2311.84 824.253 2308.67 819.67 Q2305.5 815.063 2305.5 806.337 Q2305.5 798.142 2309.39 793.281 Q2313.27 788.397 2319.83 788.397 Q2321.58 788.397 2323.37 788.744 Q2325.17 789.091 2327.12 789.786 Z" fill="#000000" fill-rule="evenodd" fill-opacity="1" /><path clip-path="url(#clip040)" d="M2177.19 742.594 L2177.19 749.955 L2185.96 749.955 L2185.96 753.265 L2177.19 753.265 L2177.19 767.339 Q2177.19 770.51 2178.04 771.413 Q2178.92 772.316 2181.59 772.316 L2185.96 772.316 L2185.96 775.88 L2181.59 775.88 Q2176.65 775.88 2174.78 774.052 Q2172.9 772.2 2172.9 767.339 L2172.9 753.265 L2169.78 753.265 L2169.78 749.955 L2172.9 749.955 L2172.9 742.594 L2177.19 742.594 Z" fill="#000000" fill-rule="evenodd" fill-opacity="1" /><path clip-path="url(#clip040)" d="M2207.19 754.353 L2236.86 754.353 L2236.86 758.242 L2207.19 758.242 L2207.19 754.353 M2207.19 763.797 L2236.86 763.797 L2236.86 767.732 L2207.19 767.732 L2207.19 763.797 Z" fill="#000000" fill-rule="evenodd" fill-opacity="1" /><path clip-path="url(#clip040)" d="M2272.02 744.399 Q2268.41 744.399 2266.58 747.964 Q2264.78 751.506 2264.78 758.635 Q2264.78 765.742 2266.58 769.306 Q2268.41 772.848 2272.02 772.848 Q2275.66 772.848 2277.46 769.306 Q2279.29 765.742 2279.29 758.635 Q2279.29 751.506 2277.46 747.964 Q2275.66 744.399 2272.02 744.399 M2272.02 740.695 Q2277.83 740.695 2280.89 745.302 Q2283.97 749.885 2283.97 758.635 Q2283.97 767.362 2280.89 771.968 Q2277.83 776.552 2272.02 776.552 Q2266.21 776.552 2263.14 771.968 Q2260.08 767.362 2260.08 758.635 Q2260.08 749.885 2263.14 745.302 Q2266.21 740.695 2272.02 740.695 Z" fill="#000000" fill-rule="evenodd" fill-opacity="1" /><path clip-path="url(#clip040)" d="M2292.19 770.001 L2297.07 770.001 L2297.07 775.88 L2292.19 775.88 L2292.19 770.001 Z" fill="#000000" fill-rule="evenodd" fill-opacity="1" /><path clip-path="url(#clip040)" d="M2317.26 759.469 Q2313.92 759.469 2312 761.251 Q2310.1 763.033 2310.1 766.158 Q2310.1 769.283 2312 771.066 Q2313.92 772.848 2317.26 772.848 Q2320.59 772.848 2322.51 771.066 Q2324.43 769.26 2324.43 766.158 Q2324.43 763.033 2322.51 761.251 Q2320.61 759.469 2317.26 759.469 M2312.58 757.478 Q2309.57 756.737 2307.88 754.677 Q2306.21 752.617 2306.21 749.654 Q2306.21 745.51 2309.15 743.103 Q2312.12 740.695 2317.26 740.695 Q2322.42 740.695 2325.36 743.103 Q2328.3 745.51 2328.3 749.654 Q2328.3 752.617 2326.61 754.677 Q2324.94 756.737 2321.95 757.478 Q2325.33 758.265 2327.21 760.556 Q2329.11 762.848 2329.11 766.158 Q2329.11 771.181 2326.03 773.867 Q2322.97 776.552 2317.26 776.552 Q2311.54 776.552 2308.46 773.867 Q2305.4 771.181 2305.4 766.158 Q2305.4 762.848 2307.3 760.556 Q2309.2 758.265 2312.58 757.478 M2310.87 750.094 Q2310.87 752.779 2312.53 754.283 Q2314.22 755.788 2317.26 755.788 Q2320.26 755.788 2321.95 754.283 Q2323.67 752.779 2323.67 750.094 Q2323.67 747.408 2321.95 745.904 Q2320.26 744.399 2317.26 744.399 Q2314.22 744.399 2312.53 745.904 Q2310.87 747.408 2310.87 750.094 Z" fill="#000000" fill-rule="evenodd" fill-opacity="1" /><path clip-path="url(#clip040)" d="M2177.19 687.44 L2177.19 694.801 L2185.96 694.801 L2185.96 698.111 L2177.19 698.111 L2177.19 712.185 Q2177.19 715.356 2178.04 716.259 Q2178.92 717.162 2181.59 717.162 L2185.96 717.162 L2185.96 720.726 L2181.59 720.726 Q2176.65 720.726 2174.78 718.898 Q2172.9 717.046 2172.9 712.185 L2172.9 698.111 L2169.78 698.111 L2169.78 694.801 L2172.9 694.801 L2172.9 687.44 L2177.19 687.44 Z" fill="#000000" fill-rule="evenodd" fill-opacity="1" /><path clip-path="url(#clip040)" d="M2207.19 699.199 L2236.86 699.199 L2236.86 703.088 L2207.19 703.088 L2207.19 699.199 M2207.19 708.643 L2236.86 708.643 L2236.86 712.578 L2207.19 712.578 L2207.19 708.643 Z" fill="#000000" fill-rule="evenodd" fill-opacity="1" /><path clip-path="url(#clip040)" d="M2262.83 716.791 L2270.47 716.791 L2270.47 690.426 L2262.16 692.092 L2262.16 687.833 L2270.43 686.166 L2275.1 686.166 L2275.1 716.791 L2282.74 716.791 L2282.74 720.726 L2262.83 720.726 L2262.83 716.791 Z" fill="#000000" fill-rule="evenodd" fill-opacity="1" /><path clip-path="url(#clip040)" d="M2292.19 714.847 L2297.07 714.847 L2297.07 720.726 L2292.19 720.726 L2292.19 714.847 Z" fill="#000000" fill-rule="evenodd" fill-opacity="1" /><path clip-path="url(#clip040)" d="M2317.26 689.245 Q2313.64 689.245 2311.82 692.81 Q2310.01 696.352 2310.01 703.481 Q2310.01 710.588 2311.82 714.152 Q2313.64 717.694 2317.26 717.694 Q2320.89 717.694 2322.7 714.152 Q2324.52 710.588 2324.52 703.481 Q2324.52 696.352 2322.7 692.81 Q2320.89 689.245 2317.26 689.245 M2317.26 685.541 Q2323.07 685.541 2326.12 690.148 Q2329.2 694.731 2329.2 703.481 Q2329.2 712.208 2326.12 716.814 Q2323.07 721.398 2317.26 721.398 Q2311.45 721.398 2308.37 716.814 Q2305.31 712.208 2305.31 703.481 Q2305.31 694.731 2308.37 690.148 Q2311.45 685.541 2317.26 685.541 Z" fill="#000000" fill-rule="evenodd" fill-opacity="1" /><path clip-path="url(#clip040)" d="M2177.19 619.414 L2177.19 626.775 L2185.96 626.775 L2185.96 630.085 L2177.19 630.085 L2177.19 644.159 Q2177.19 647.331 2178.04 648.233 Q2178.92 649.136 2181.59 649.136 L2185.96 649.136 L2185.96 652.701 L2181.59 652.701 Q2176.65 652.701 2174.78 650.872 Q2172.9 649.02 2172.9 644.159 L2172.9 630.085 L2169.78 630.085 L2169.78 626.775 L2172.9 626.775 L2172.9 619.414 L2177.19 619.414 Z" fill="#000000" fill-rule="evenodd" fill-opacity="1" /><path clip-path="url(#clip040)" d="M2207.19 631.173 L2236.86 631.173 L2236.86 635.062 L2207.19 635.062 L2207.19 631.173 M2207.19 640.618 L2236.86 640.618 L2236.86 644.553 L2207.19 644.553 L2207.19 640.618 Z" fill="#000000" fill-rule="evenodd" fill-opacity="1" /><path clip-path="url(#clip040)" d="M2262.83 648.766 L2270.47 648.766 L2270.47 622.4 L2262.16 624.067 L2262.16 619.808 L2270.43 618.141 L2275.1 618.141 L2275.1 648.766 L2282.74 648.766 L2282.74 652.701 L2262.83 652.701 L2262.83 648.766 Z" fill="#000000" fill-rule="evenodd" fill-opacity="1" /><path clip-path="url(#clip040)" d="M2292.19 646.821 L2297.07 646.821 L2297.07 652.701 L2292.19 652.701 L2292.19 646.821 Z" fill="#000000" fill-rule="evenodd" fill-opacity="1" /><path clip-path="url(#clip040)" d="M2311.28 648.766 L2327.6 648.766 L2327.6 652.701 L2305.66 652.701 L2305.66 648.766 Q2308.32 646.011 2312.9 641.382 Q2317.51 636.729 2318.69 635.386 Q2320.94 632.863 2321.82 631.127 Q2322.72 629.368 2322.72 627.678 Q2322.72 624.923 2320.77 623.187 Q2318.85 621.451 2315.75 621.451 Q2313.55 621.451 2311.1 622.215 Q2308.67 622.979 2305.89 624.53 L2305.89 619.808 Q2308.71 618.673 2311.17 618.095 Q2313.62 617.516 2315.66 617.516 Q2321.03 617.516 2324.22 620.201 Q2327.42 622.886 2327.42 627.377 Q2327.42 629.507 2326.61 631.428 Q2325.82 633.326 2323.71 635.919 Q2323.14 636.59 2320.03 639.807 Q2316.93 643.002 2311.28 648.766 Z" fill="#000000" fill-rule="evenodd" fill-opacity="1" /><path clip-path="url(#clip040)" d="M2177.19 527.546 L2177.19 534.907 L2185.96 534.907 L2185.96 538.217 L2177.19 538.217 L2177.19 552.291 Q2177.19 555.463 2178.04 556.366 Q2178.92 557.268 2181.59 557.268 L2185.96 557.268 L2185.96 560.833 L2181.59 560.833 Q2176.65 560.833 2174.78 559.004 Q2172.9 557.153 2172.9 552.291 L2172.9 538.217 L2169.78 538.217 L2169.78 534.907 L2172.9 534.907 L2172.9 527.546 L2177.19 527.546 Z" fill="#000000" fill-rule="evenodd" fill-opacity="1" /><path clip-path="url(#clip040)" d="M2207.19 539.305 L2236.86 539.305 L2236.86 543.194 L2207.19 543.194 L2207.19 539.305 M2207.19 548.75 L2236.86 548.75 L2236.86 552.685 L2207.19 552.685 L2207.19 548.75 Z" fill="#000000" fill-rule="evenodd" fill-opacity="1" /><path clip-path="url(#clip040)" d="M2262.83 556.898 L2270.47 556.898 L2270.47 530.532 L2262.16 532.199 L2262.16 527.94 L2270.43 526.273 L2275.1 526.273 L2275.1 556.898 L2282.74 556.898 L2282.74 560.833 L2262.83 560.833 L2262.83 556.898 Z" fill="#000000" fill-rule="evenodd" fill-opacity="1" /><path clip-path="url(#clip040)" d="M2292.19 554.954 L2297.07 554.954 L2297.07 560.833 L2292.19 560.833 L2292.19 554.954 Z" fill="#000000" fill-rule="evenodd" fill-opacity="1" /><path clip-path="url(#clip040)" d="M2320.1 530.347 L2308.3 548.796 L2320.1 548.796 L2320.1 530.347 M2318.88 526.273 L2324.76 526.273 L2324.76 548.796 L2329.69 548.796 L2329.69 552.685 L2324.76 552.685 L2324.76 560.833 L2320.1 560.833 L2320.1 552.685 L2304.5 552.685 L2304.5 548.171 L2318.88 526.273 Z" fill="#000000" fill-rule="evenodd" fill-opacity="1" /><path clip-path="url(#clip040)" d="M2177.19 383.752 L2177.19 391.113 L2185.96 391.113 L2185.96 394.423 L2177.19 394.423 L2177.19 408.497 Q2177.19 411.669 2178.04 412.572 Q2178.92 413.474 2181.59 413.474 L2185.96 413.474 L2185.96 417.039 L2181.59 417.039 Q2176.65 417.039 2174.78 415.21 Q2172.9 413.359 2172.9 408.497 L2172.9 394.423 L2169.78 394.423 L2169.78 391.113 L2172.9 391.113 L2172.9 383.752 L2177.19 383.752 Z" fill="#000000" fill-rule="evenodd" fill-opacity="1" /><path clip-path="url(#clip040)" d="M2207.19 395.511 L2236.86 395.511 L2236.86 399.4 L2207.19 399.4 L2207.19 395.511 M2207.19 404.956 L2236.86 404.956 L2236.86 408.891 L2207.19 408.891 L2207.19 404.956 Z" fill="#000000" fill-rule="evenodd" fill-opacity="1" /><path clip-path="url(#clip040)" d="M2262.83 413.104 L2270.47 413.104 L2270.47 386.738 L2262.16 388.405 L2262.16 384.146 L2270.43 382.479 L2275.1 382.479 L2275.1 413.104 L2282.74 413.104 L2282.74 417.039 L2262.83 417.039 L2262.83 413.104 Z" fill="#000000" fill-rule="evenodd" fill-opacity="1" /><path clip-path="url(#clip040)" d="M2292.19 411.16 L2297.07 411.16 L2297.07 417.039 L2292.19 417.039 L2292.19 411.16 Z" fill="#000000" fill-rule="evenodd" fill-opacity="1" /><path clip-path="url(#clip040)" d="M2317.83 397.896 Q2314.69 397.896 2312.83 400.048 Q2311.01 402.201 2311.01 405.951 Q2311.01 409.678 2312.83 411.854 Q2314.69 414.007 2317.83 414.007 Q2320.98 414.007 2322.81 411.854 Q2324.66 409.678 2324.66 405.951 Q2324.66 402.201 2322.81 400.048 Q2320.98 397.896 2317.83 397.896 M2327.12 383.243 L2327.12 387.502 Q2325.36 386.669 2323.55 386.229 Q2321.77 385.789 2320.01 385.789 Q2315.38 385.789 2312.93 388.914 Q2310.5 392.039 2310.15 398.359 Q2311.51 396.345 2313.58 395.28 Q2315.64 394.192 2318.11 394.192 Q2323.32 394.192 2326.33 397.363 Q2329.36 400.511 2329.36 405.951 Q2329.36 411.275 2326.21 414.493 Q2323.07 417.71 2317.83 417.71 Q2311.84 417.71 2308.67 413.127 Q2305.5 408.521 2305.5 399.794 Q2305.5 391.599 2309.39 386.738 Q2313.27 381.854 2319.83 381.854 Q2321.58 381.854 2323.37 382.201 Q2325.17 382.549 2327.12 383.243 Z" fill="#000000" fill-rule="evenodd" fill-opacity="1" /><path clip-path="url(#clip040)" d="M2177.19 71.9694 L2177.19 79.3305 L2185.96 79.3305 L2185.96 82.6407 L2177.19 82.6407 L2177.19 96.7147 Q2177.19 99.8859 2178.04 100.789 Q2178.92 101.691 2181.59 101.691 L2185.96 101.691 L2185.96 105.256 L2181.59 105.256 Q2176.65 105.256 2174.78 103.428 Q2172.9 101.576 2172.9 96.7147 L2172.9 82.6407 L2169.78 82.6407 L2169.78 79.3305 L2172.9 79.3305 L2172.9 71.9694 L2177.19 71.9694 Z" fill="#000000" fill-rule="evenodd" fill-opacity="1" /><path clip-path="url(#clip040)" d="M2207.19 83.7286 L2236.86 83.7286 L2236.86 87.6175 L2207.19 87.6175 L2207.19 83.7286 M2207.19 93.173 L2236.86 93.173 L2236.86 97.1082 L2207.19 97.1082 L2207.19 93.173 Z" fill="#000000" fill-rule="evenodd" fill-opacity="1" /><path clip-path="url(#clip040)" d="M2262.83 101.321 L2270.47 101.321 L2270.47 74.9555 L2262.16 76.6222 L2262.16 72.3629 L2270.43 70.6963 L2275.1 70.6963 L2275.1 101.321 L2282.74 101.321 L2282.74 105.256 L2262.83 105.256 L2262.83 101.321 Z" fill="#000000" fill-rule="evenodd" fill-opacity="1" /><path clip-path="url(#clip040)" d="M2292.19 99.3767 L2297.07 99.3767 L2297.07 105.256 L2292.19 105.256 L2292.19 99.3767 Z" fill="#000000" fill-rule="evenodd" fill-opacity="1" /><path clip-path="url(#clip040)" d="M2317.26 88.8443 Q2313.92 88.8443 2312 90.6267 Q2310.1 92.4091 2310.1 95.5341 Q2310.1 98.6591 2312 100.441 Q2313.92 102.224 2317.26 102.224 Q2320.59 102.224 2322.51 100.441 Q2324.43 98.6359 2324.43 95.5341 Q2324.43 92.4091 2322.51 90.6267 Q2320.61 88.8443 2317.26 88.8443 M2312.58 86.8536 Q2309.57 86.1129 2307.88 84.0527 Q2306.21 81.9925 2306.21 79.0296 Q2306.21 74.8861 2309.15 72.4787 Q2312.12 70.0713 2317.26 70.0713 Q2322.42 70.0713 2325.36 72.4787 Q2328.3 74.8861 2328.3 79.0296 Q2328.3 81.9925 2326.61 84.0527 Q2324.94 86.1129 2321.95 86.8536 Q2325.33 87.6406 2327.21 89.9323 Q2329.11 92.2239 2329.11 95.5341 Q2329.11 100.557 2326.03 103.242 Q2322.97 105.928 2317.26 105.928 Q2311.54 105.928 2308.46 103.242 Q2305.4 100.557 2305.4 95.5341 Q2305.4 92.2239 2307.3 89.9323 Q2309.2 87.6406 2312.58 86.8536 M2310.87 79.4694 Q2310.87 82.1545 2312.53 83.6592 Q2314.22 85.1638 2317.26 85.1638 Q2320.26 85.1638 2321.95 83.6592 Q2323.67 82.1545 2323.67 79.4694 Q2323.67 76.7842 2321.95 75.2796 Q2320.26 73.775 2317.26 73.775 Q2314.22 73.775 2312.53 75.2796 Q2310.87 76.7842 2310.87 79.4694 Z" fill="#000000" fill-rule="evenodd" fill-opacity="1" /></svg>
