<?xml version="1.0" encoding="utf-8"?>
<svg xmlns="http://www.w3.org/2000/svg" xmlns:xlink="http://www.w3.org/1999/xlink" width="600" height="400" viewBox="0 0 2400 1600">
<defs>
  <clipPath id="clip190">
    <rect x="0" y="0" width="2400" height="1600"/>
  </clipPath>
</defs>
<path clip-path="url(#clip190)" d="
M0 1600 L2400 1600 L2400 0 L0 0  Z
  " fill="#ffffff" fill-rule="evenodd" fill-opacity="1"/>
<defs>
  <clipPath id="clip191">
    <rect x="480" y="0" width="1681" height="1600"/>
  </clipPath>
</defs>
<path clip-path="url(#clip190)" d="
M153.898 1487.47 L2208.5 1487.47 L2208.5 47.2441 L153.898 47.2441  Z
  " fill="#ffffff" fill-rule="evenodd" fill-opacity="1"/>
<defs>
  <clipPath id="clip192">
    <rect x="153" y="47" width="2056" height="1441"/>
  </clipPath>
</defs>
<polyline clip-path="url(#clip192)" style="stroke:#000000; stroke-linecap:butt; stroke-linejoin:round; stroke-width:2; stroke-opacity:0.1; fill:none" points="
  212.047,1487.47 212.047,47.2441 
  "/>
<polyline clip-path="url(#clip192)" style="stroke:#000000; stroke-linecap:butt; stroke-linejoin:round; stroke-width:2; stroke-opacity:0.1; fill:none" points="
  696.624,1487.47 696.624,47.2441 
  "/>
<polyline clip-path="url(#clip192)" style="stroke:#000000; stroke-linecap:butt; stroke-linejoin:round; stroke-width:2; stroke-opacity:0.1; fill:none" points="
  1181.2,1487.47 1181.2,47.2441 
  "/>
<polyline clip-path="url(#clip192)" style="stroke:#000000; stroke-linecap:butt; stroke-linejoin:round; stroke-width:2; stroke-opacity:0.1; fill:none" points="
  1665.78,1487.47 1665.78,47.2441 
  "/>
<polyline clip-path="url(#clip192)" style="stroke:#000000; stroke-linecap:butt; stroke-linejoin:round; stroke-width:2; stroke-opacity:0.1; fill:none" points="
  2150.35,1487.47 2150.35,47.2441 
  "/>
<polyline clip-path="url(#clip190)" style="stroke:#000000; stroke-linecap:butt; stroke-linejoin:round; stroke-width:4; stroke-opacity:1; fill:none" points="
  153.898,1487.47 2208.5,1487.47 
  "/>
<polyline clip-path="url(#clip190)" style="stroke:#000000; stroke-linecap:butt; stroke-linejoin:round; stroke-width:4; stroke-opacity:1; fill:none" points="
  212.047,1487.47 212.047,1468.58 
  "/>
<polyline clip-path="url(#clip190)" style="stroke:#000000; stroke-linecap:butt; stroke-linejoin:round; stroke-width:4; stroke-opacity:1; fill:none" points="
  696.624,1487.47 696.624,1468.58 
  "/>
<polyline clip-path="url(#clip190)" style="stroke:#000000; stroke-linecap:butt; stroke-linejoin:round; stroke-width:4; stroke-opacity:1; fill:none" points="
  1181.2,1487.47 1181.2,1468.58 
  "/>
<polyline clip-path="url(#clip190)" style="stroke:#000000; stroke-linecap:butt; stroke-linejoin:round; stroke-width:4; stroke-opacity:1; fill:none" points="
  1665.78,1487.47 1665.78,1468.58 
  "/>
<polyline clip-path="url(#clip190)" style="stroke:#000000; stroke-linecap:butt; stroke-linejoin:round; stroke-width:4; stroke-opacity:1; fill:none" points="
  2150.35,1487.47 2150.35,1468.58 
  "/>
<g clip-path="url(#clip190)">
<text style="fill:#000000; fill-opacity:1; font-family:Arial,Helvetica Neue,Helvetica,sans-serif; font-size:48px; text-anchor:middle;" transform="rotate(0, 212.047, 1549.32)" x="212.047" y="1549.32">0.00</text>
</g>
<g clip-path="url(#clip190)">
<text style="fill:#000000; fill-opacity:1; font-family:Arial,Helvetica Neue,Helvetica,sans-serif; font-size:48px; text-anchor:middle;" transform="rotate(0, 696.624, 1549.32)" x="696.624" y="1549.32">0.25</text>
</g>
<g clip-path="url(#clip190)">
<text style="fill:#000000; fill-opacity:1; font-family:Arial,Helvetica Neue,Helvetica,sans-serif; font-size:48px; text-anchor:middle;" transform="rotate(0, 1181.2, 1549.32)" x="1181.2" y="1549.32">0.50</text>
</g>
<g clip-path="url(#clip190)">
<text style="fill:#000000; fill-opacity:1; font-family:Arial,Helvetica Neue,Helvetica,sans-serif; font-size:48px; text-anchor:middle;" transform="rotate(0, 1665.78, 1549.32)" x="1665.78" y="1549.32">0.75</text>
</g>
<g clip-path="url(#clip190)">
<text style="fill:#000000; fill-opacity:1; font-family:Arial,Helvetica Neue,Helvetica,sans-serif; font-size:48px; text-anchor:middle;" transform="rotate(0, 2150.35, 1549.32)" x="2150.35" y="1549.32">1.00</text>
</g>
<polyline clip-path="url(#clip192)" style="stroke:#000000; stroke-linecap:butt; stroke-linejoin:round; stroke-width:2; stroke-opacity:0.1; fill:none" points="
  153.898,1446.71 2208.5,1446.71 
  "/>
<polyline clip-path="url(#clip192)" style="stroke:#000000; stroke-linecap:butt; stroke-linejoin:round; stroke-width:2; stroke-opacity:0.1; fill:none" points="
  153.898,1186.5 2208.5,1186.5 
  "/>
<polyline clip-path="url(#clip192)" style="stroke:#000000; stroke-linecap:butt; stroke-linejoin:round; stroke-width:2; stroke-opacity:0.1; fill:none" points="
  153.898,926.281 2208.5,926.281 
  "/>
<polyline clip-path="url(#clip192)" style="stroke:#000000; stroke-linecap:butt; stroke-linejoin:round; stroke-width:2; stroke-opacity:0.1; fill:none" points="
  153.898,666.065 2208.5,666.065 
  "/>
<polyline clip-path="url(#clip192)" style="stroke:#000000; stroke-linecap:butt; stroke-linejoin:round; stroke-width:2; stroke-opacity:0.1; fill:none" points="
  153.898,405.849 2208.5,405.849 
  "/>
<polyline clip-path="url(#clip192)" style="stroke:#000000; stroke-linecap:butt; stroke-linejoin:round; stroke-width:2; stroke-opacity:0.1; fill:none" points="
  153.898,145.633 2208.5,145.633 
  "/>
<polyline clip-path="url(#clip190)" style="stroke:#000000; stroke-linecap:butt; stroke-linejoin:round; stroke-width:4; stroke-opacity:1; fill:none" points="
  153.898,1487.47 153.898,47.2441 
  "/>
<polyline clip-path="url(#clip190)" style="stroke:#000000; stroke-linecap:butt; stroke-linejoin:round; stroke-width:4; stroke-opacity:1; fill:none" points="
  153.898,1446.71 172.796,1446.71 
  "/>
<polyline clip-path="url(#clip190)" style="stroke:#000000; stroke-linecap:butt; stroke-linejoin:round; stroke-width:4; stroke-opacity:1; fill:none" points="
  153.898,1186.5 172.796,1186.5 
  "/>
<polyline clip-path="url(#clip190)" style="stroke:#000000; stroke-linecap:butt; stroke-linejoin:round; stroke-width:4; stroke-opacity:1; fill:none" points="
  153.898,926.281 172.796,926.281 
  "/>
<polyline clip-path="url(#clip190)" style="stroke:#000000; stroke-linecap:butt; stroke-linejoin:round; stroke-width:4; stroke-opacity:1; fill:none" points="
  153.898,666.065 172.796,666.065 
  "/>
<polyline clip-path="url(#clip190)" style="stroke:#000000; stroke-linecap:butt; stroke-linejoin:round; stroke-width:4; stroke-opacity:1; fill:none" points="
  153.898,405.849 172.796,405.849 
  "/>
<polyline clip-path="url(#clip190)" style="stroke:#000000; stroke-linecap:butt; stroke-linejoin:round; stroke-width:4; stroke-opacity:1; fill:none" points="
  153.898,145.633 172.796,145.633 
  "/>
<g clip-path="url(#clip190)">
<text style="fill:#000000; fill-opacity:1; font-family:Arial,Helvetica Neue,Helvetica,sans-serif; font-size:48px; text-anchor:middle;" transform="rotate(0, 84.4451, 1464.21)" x="84.4451" y="1464.21">0.0</text>
</g>
<g clip-path="url(#clip190)">
<text style="fill:#000000; fill-opacity:1; font-family:Arial,Helvetica Neue,Helvetica,sans-serif; font-size:48px; text-anchor:middle;" transform="rotate(0, 84.4451, 1204)" x="84.4451" y="1204">0.5</text>
</g>
<g clip-path="url(#clip190)">
<text style="fill:#000000; fill-opacity:1; font-family:Arial,Helvetica Neue,Helvetica,sans-serif; font-size:48px; text-anchor:middle;" transform="rotate(0, 84.4451, 943.781)" x="84.4451" y="943.781">1.0</text>
</g>
<g clip-path="url(#clip190)">
<text style="fill:#000000; fill-opacity:1; font-family:Arial,Helvetica Neue,Helvetica,sans-serif; font-size:48px; text-anchor:middle;" transform="rotate(0, 84.4451, 683.565)" x="84.4451" y="683.565">1.5</text>
</g>
<g clip-path="url(#clip190)">
<text style="fill:#000000; fill-opacity:1; font-family:Arial,Helvetica Neue,Helvetica,sans-serif; font-size:48px; text-anchor:middle;" transform="rotate(0, 84.4451, 423.349)" x="84.4451" y="423.349">2.0</text>
</g>
<g clip-path="url(#clip190)">
<text style="fill:#000000; fill-opacity:1; font-family:Arial,Helvetica Neue,Helvetica,sans-serif; font-size:48px; text-anchor:middle;" transform="rotate(0, 84.4451, 163.133)" x="84.4451" y="163.133">2.5</text>
</g>
<polyline clip-path="url(#clip192)" style="stroke:#440154; stroke-linecap:butt; stroke-linejoin:round; stroke-width:8; stroke-opacity:1; fill:none" points="
  212.047,1446.71 231.43,1438.54 250.813,1430.37 270.196,1422.2 289.58,1414.04 308.963,1405.88 328.346,1397.74 347.729,1389.6 367.112,1381.49 386.495,1373.38 
  405.878,1365.3 425.261,1357.24 444.644,1349.19 464.027,1341.18 483.41,1333.18 502.793,1325.22 522.176,1317.29 541.559,1309.39 560.943,1301.52 580.326,1293.69 
  599.709,1285.89 619.092,1278.14 638.475,1270.42 657.858,1262.75 677.241,1255.13 696.624,1247.55 716.007,1240.03 735.39,1232.55 754.773,1225.12 774.156,1217.76 
  793.539,1210.44 812.923,1203.19 832.306,1195.99 851.689,1188.86 871.072,1181.79 890.455,1174.79 909.838,1167.85 929.221,1160.98 948.604,1154.19 967.987,1147.46 
  987.37,1140.81 1006.75,1134.24 1026.14,1127.74 1045.52,1121.32 1064.9,1114.98 1084.29,1108.72 1103.67,1102.55 1123.05,1096.46 1142.43,1090.45 1161.82,1084.54 
  1181.2,1078.71 1200.58,1072.98 1219.97,1067.33 1239.35,1061.79 1258.73,1056.33 1278.12,1050.97 1297.5,1045.71 1316.88,1040.55 1336.27,1035.49 1355.65,1030.53 
  1375.03,1025.68 1394.41,1020.92 1413.8,1016.27 1433.18,1011.73 1452.56,1007.3 1471.95,1002.97 1491.33,998.756 1510.71,994.65 1530.1,990.655 1549.48,986.774 
  1568.86,983.005 1588.25,979.351 1607.63,975.813 1627.01,972.39 1646.39,969.085 1665.78,965.897 1685.16,962.828 1704.54,959.878 1723.93,957.049 1743.31,954.34 
  1762.69,951.753 1782.08,949.288 1801.46,946.946 1820.84,944.727 1840.23,942.632 1859.61,940.661 1878.99,938.815 1898.37,937.095 1917.76,935.5 1937.14,934.031 
  1956.52,932.689 1975.91,931.473 1995.29,930.385 2014.67,929.424 2034.06,928.591 2053.44,927.886 2072.82,927.308 2092.21,926.859 2111.59,926.538 2130.97,926.346 
  2150.35,926.281 
  "/>
<polyline clip-path="url(#clip192)" style="stroke:#472877; stroke-linecap:butt; stroke-linejoin:round; stroke-width:8; stroke-opacity:1; fill:none" points="
  212.047,1446.71 231.43,1437.12 250.813,1427.58 270.196,1418.09 289.58,1408.66 308.963,1399.28 328.346,1389.95 347.729,1380.69 367.112,1371.47 386.495,1362.32 
  405.878,1353.23 425.261,1344.19 444.644,1335.22 464.027,1326.3 483.41,1317.45 502.793,1308.66 522.176,1299.93 541.559,1291.27 560.943,1282.67 580.326,1274.14 
  599.709,1265.67 619.092,1257.28 638.475,1248.95 657.858,1240.69 677.241,1232.5 696.624,1224.38 716.007,1216.33 735.39,1208.36 754.773,1200.46 774.156,1192.64 
  793.539,1184.89 812.923,1177.22 832.306,1169.63 851.689,1162.12 871.072,1154.68 890.455,1147.33 909.838,1140.06 929.221,1132.88 948.604,1125.78 967.987,1118.76 
  987.37,1111.83 1006.75,1104.99 1026.14,1098.23 1045.52,1091.57 1064.9,1084.99 1084.29,1078.51 1103.67,1072.12 1123.05,1065.83 1142.43,1059.63 1161.82,1053.52 
  1181.2,1047.51 1200.58,1041.6 1219.97,1035.79 1239.35,1030.08 1258.73,1024.47 1278.12,1018.96 1297.5,1013.56 1316.88,1008.26 1336.27,1003.07 1355.65,997.978 
  1375.03,992.997 1394.41,988.125 1413.8,983.362 1433.18,978.709 1452.56,974.168 1471.95,969.738 1491.33,965.422 1510.71,961.22 1530.1,957.133 1549.48,953.162 
  1568.86,949.307 1588.25,945.57 1607.63,941.951 1627.01,938.452 1646.39,935.073 1665.78,931.814 1685.16,928.677 1704.54,925.662 1723.93,922.77 1743.31,920.001 
  1762.69,917.357 1782.08,914.838 1801.46,912.444 1820.84,910.176 1840.23,908.035 1859.61,906.021 1878.99,904.134 1898.37,902.376 1917.76,900.746 1937.14,899.245 
  1956.52,897.873 1975.91,896.631 1995.29,895.519 2014.67,894.537 2034.06,893.685 2053.44,892.964 2072.82,892.374 2092.21,891.915 2111.59,891.587 2130.97,891.39 
  2150.35,891.325 
  "/>
<polyline clip-path="url(#clip192)" style="stroke:#3e4a89; stroke-linecap:butt; stroke-linejoin:round; stroke-width:8; stroke-opacity:1; fill:none" points="
  212.047,1446.71 231.43,1436.52 250.813,1426.38 270.196,1416.29 289.58,1406.25 308.963,1396.27 328.346,1386.35 347.729,1376.48 367.112,1366.67 386.495,1356.92 
  405.878,1347.23 425.261,1337.6 444.644,1328.03 464.027,1318.52 483.41,1309.07 502.793,1299.69 522.176,1290.37 541.559,1281.12 560.943,1271.93 580.326,1262.81 
  599.709,1253.76 619.092,1244.78 638.475,1235.87 657.858,1227.03 677.241,1218.26 696.624,1209.57 716.007,1200.95 735.39,1192.41 754.773,1183.94 774.156,1175.55 
  793.539,1167.24 812.923,1159.01 832.306,1150.87 851.689,1142.8 871.072,1134.82 890.455,1126.92 909.838,1119.11 929.221,1111.38 948.604,1103.75 967.987,1096.2 
  987.37,1088.75 1006.75,1081.38 1026.14,1074.11 1045.52,1066.93 1064.9,1059.85 1084.29,1052.87 1103.67,1045.98 1123.05,1039.19 1142.43,1032.51 1161.82,1025.92 
  1181.2,1019.44 1200.58,1013.06 1219.97,1006.79 1239.35,1000.62 1258.73,994.562 1278.12,988.612 1297.5,982.772 1316.88,977.043 1336.27,971.427 1355.65,965.924 
  1375.03,960.536 1394.41,955.264 1413.8,950.109 1433.18,945.073 1452.56,940.155 1471.95,935.359 1491.33,930.683 1510.71,926.131 1530.1,921.701 1549.48,917.397 
  1568.86,913.218 1588.25,909.166 1607.63,905.242 1627.01,901.446 1646.39,897.78 1665.78,894.244 1685.16,890.839 1704.54,887.567 1723.93,884.427 1743.31,881.421 
  1762.69,878.55 1782.08,875.814 1801.46,873.214 1820.84,870.751 1840.23,868.424 1859.61,866.236 1878.99,864.186 1898.37,862.275 1917.76,860.504 1937.14,858.872 
  1956.52,857.381 1975.91,856.031 1995.29,854.822 2014.67,853.754 2034.06,852.828 2053.44,852.044 2072.82,851.403 2092.21,850.904 2111.59,850.547 2130.97,850.333 
  2150.35,850.261 
  "/>
<polyline clip-path="url(#clip192)" style="stroke:#30678d; stroke-linecap:butt; stroke-linejoin:round; stroke-width:8; stroke-opacity:1; fill:none" points="
  212.047,1446.71 231.43,1435.9 250.813,1425.14 270.196,1414.43 289.58,1403.78 308.963,1393.18 328.346,1382.64 347.729,1372.15 367.112,1361.72 386.495,1351.35 
  405.878,1341.04 425.261,1330.8 444.644,1320.61 464.027,1310.48 483.41,1300.42 502.793,1290.43 522.176,1280.49 541.559,1270.63 560.943,1260.83 580.326,1251.1 
  599.709,1241.45 619.092,1231.86 638.475,1222.34 657.858,1212.9 677.241,1203.53 696.624,1194.24 716.007,1185.02 735.39,1175.88 754.773,1166.82 774.156,1157.84 
  793.539,1148.95 812.923,1140.13 832.306,1131.4 851.689,1122.75 871.072,1114.19 890.455,1105.72 909.838,1097.34 929.221,1089.05 948.604,1080.85 967.987,1072.74 
  987.37,1064.73 1006.75,1056.82 1026.14,1049 1045.52,1041.28 1064.9,1033.66 1084.29,1026.14 1103.67,1018.73 1123.05,1011.41 1142.43,1004.21 1161.82,997.112 
  1181.2,990.122 1200.58,983.243 1219.97,976.475 1239.35,969.819 1258.73,963.278 1278.12,956.853 1297.5,950.544 1316.88,944.354 1336.27,938.283 1355.65,932.333 
  1375.03,926.506 1394.41,920.802 1413.8,915.224 1433.18,909.772 1452.56,904.448 1471.95,899.252 1491.33,894.187 1510.71,889.254 1530.1,884.453 1549.48,879.786 
  1568.86,875.254 1588.25,870.859 1607.63,866.601 1627.01,862.482 1646.39,858.502 1665.78,854.663 1685.16,850.966 1704.54,847.412 1723.93,844.001 1743.31,840.735 
  1762.69,837.615 1782.08,834.641 1801.46,831.815 1820.84,829.136 1840.23,826.607 1859.61,824.227 1878.99,821.997 1898.37,819.918 1917.76,817.991 1937.14,816.216 
  1956.52,814.593 1975.91,813.124 1995.29,811.808 2014.67,810.646 2034.06,809.638 2053.44,808.784 2072.82,808.086 2092.21,807.542 2111.59,807.154 2130.97,806.921 
  2150.35,806.843 
  "/>
<polyline clip-path="url(#clip192)" style="stroke:#25828e; stroke-linecap:butt; stroke-linejoin:round; stroke-width:8; stroke-opacity:1; fill:none" points="
  212.047,1446.71 231.43,1435.23 250.813,1423.79 270.196,1412.42 289.58,1401.09 308.963,1389.82 328.346,1378.61 347.729,1367.45 367.112,1356.35 386.495,1345.31 
  405.878,1334.34 425.261,1323.42 444.644,1312.56 464.027,1301.77 483.41,1291.04 502.793,1280.38 522.176,1269.78 541.559,1259.25 560.943,1248.79 580.326,1238.4 
  599.709,1228.08 619.092,1217.83 638.475,1207.66 657.858,1197.56 677.241,1187.53 696.624,1177.59 716.007,1167.72 735.39,1157.93 754.773,1148.22 774.156,1138.6 
  793.539,1129.06 812.923,1119.6 832.306,1110.23 851.689,1100.95 871.072,1091.76 890.455,1082.66 909.838,1073.65 929.221,1064.74 948.604,1055.92 967.987,1047.2 
  987.37,1038.58 1006.75,1030.05 1026.14,1021.63 1045.52,1013.32 1064.9,1005.11 1084.29,996.999 1103.67,989.002 1123.05,981.113 1142.43,973.337 1161.82,965.673 
  1181.2,958.123 1200.58,950.69 1219.97,943.374 1239.35,936.178 1258.73,929.103 1278.12,922.15 1297.5,915.321 1316.88,908.619 1336.27,902.043 1355.65,895.597 
  1375.03,889.281 1394.41,883.097 1413.8,877.047 1433.18,871.133 1452.56,865.355 1471.95,859.715 1491.33,854.215 1510.71,848.856 1530.1,843.641 1549.48,838.569 
  1568.86,833.642 1588.25,828.863 1607.63,824.232 1627.01,819.751 1646.39,815.42 1665.78,811.241 1685.16,807.216 1704.54,803.346 1723.93,799.631 1743.31,796.073 
  1762.69,792.673 1782.08,789.432 1801.46,786.351 1820.84,783.431 1840.23,780.673 1859.61,778.078 1878.99,775.646 1898.37,773.378 1917.76,771.275 1937.14,769.338 
  1956.52,767.568 1975.91,765.964 1995.29,764.527 2014.67,763.259 2034.06,762.159 2053.44,761.227 2072.82,760.465 2092.21,759.871 2111.59,759.447 2130.97,759.193 
  2150.35,759.108 
  "/>
<polyline clip-path="url(#clip192)" style="stroke:#1e9d88; stroke-linecap:butt; stroke-linejoin:round; stroke-width:8; stroke-opacity:1; fill:none" points="
  212.047,1446.71 231.43,1434.46 250.813,1422.27 270.196,1410.13 289.58,1398.04 308.963,1386.01 328.346,1374.03 347.729,1362.11 367.112,1350.25 386.495,1338.45 
  405.878,1326.71 425.261,1315.03 444.644,1303.41 464.027,1291.86 483.41,1280.37 502.793,1268.95 522.176,1257.6 541.559,1246.31 560.943,1235.09 580.326,1223.94 
  599.709,1212.87 619.092,1201.87 638.475,1190.94 657.858,1180.09 677.241,1169.31 696.624,1158.62 716.007,1148.01 735.39,1137.47 754.773,1127.02 774.156,1116.66 
  793.539,1106.38 812.923,1096.19 832.306,1086.09 851.689,1076.08 871.072,1066.16 890.455,1056.33 909.838,1046.6 929.221,1036.97 948.604,1027.44 967.987,1018.01 
  987.37,1008.69 1006.75,999.462 1026.14,990.345 1045.52,981.337 1064.9,972.438 1084.29,963.651 1103.67,954.977 1123.05,946.419 1142.43,937.977 1161.82,929.655 
  1181.2,921.454 1200.58,913.376 1219.97,905.422 1239.35,897.595 1258.73,889.897 1278.12,882.329 1297.5,874.893 1316.88,867.591 1336.27,860.425 1355.65,853.397 
  1375.03,846.509 1394.41,839.762 1413.8,833.158 1433.18,826.7 1452.56,820.389 1471.95,814.227 1491.33,808.216 1510.71,802.356 1530.1,796.651 1549.48,791.102 
  1568.86,785.71 1588.25,780.478 1607.63,775.406 1627.01,770.496 1646.39,765.751 1665.78,761.17 1685.16,756.757 1704.54,752.512 1723.93,748.437 1743.31,744.533 
  1762.69,740.802 1782.08,737.244 1801.46,733.861 1820.84,730.654 1840.23,727.624 1859.61,724.772 1878.99,722.1 1898.37,719.607 1917.76,717.296 1937.14,715.166 
  1956.52,713.22 1975.91,711.456 1995.29,709.876 2014.67,708.481 2034.06,707.271 2053.44,706.246 2072.82,705.407 2092.21,704.754 2111.59,704.288 2130.97,704.008 
  2150.35,703.915 
  "/>
<polyline clip-path="url(#clip192)" style="stroke:#35b778; stroke-linecap:butt; stroke-linejoin:round; stroke-width:8; stroke-opacity:1; fill:none" points="
  212.047,1446.71 231.43,1433.54 250.813,1420.43 270.196,1407.37 289.58,1394.36 308.963,1381.41 328.346,1368.51 347.729,1355.67 367.112,1342.89 386.495,1330.17 
  405.878,1317.51 425.261,1304.92 444.644,1292.38 464.027,1279.91 483.41,1267.5 502.793,1255.16 522.176,1242.89 541.559,1230.68 560.943,1218.55 580.326,1206.49 
  599.709,1194.5 619.092,1182.58 638.475,1170.74 657.858,1158.98 677.241,1147.29 696.624,1135.69 716.007,1124.17 735.39,1112.73 754.773,1101.37 774.156,1090.1 
  793.539,1078.92 812.923,1067.84 832.306,1056.84 851.689,1045.93 871.072,1035.13 890.455,1024.41 909.838,1013.8 929.221,1003.29 948.604,992.883 967.987,982.58 
  987.37,972.385 1006.75,962.298 1026.14,952.322 1045.52,942.46 1064.9,932.712 1084.29,923.082 1103.67,913.572 1123.05,904.183 1142.43,894.918 1161.82,885.778 
  1181.2,876.767 1200.58,867.887 1219.97,859.139 1239.35,850.525 1258.73,842.049 1278.12,833.712 1297.5,825.517 1316.88,817.465 1336.27,809.56 1355.65,801.803 
  1375.03,794.196 1394.41,786.742 1413.8,779.443 1433.18,772.301 1452.56,765.318 1471.95,758.498 1491.33,751.84 1510.71,745.349 1530.1,739.026 1549.48,732.873 
  1568.86,726.891 1588.25,721.085 1607.63,715.454 1627.01,710.001 1646.39,704.729 1665.78,699.638 1685.16,694.731 1704.54,690.01 1723.93,685.476 1743.31,681.131 
  1762.69,676.977 1782.08,673.014 1801.46,669.246 1820.84,665.672 1840.23,662.295 1859.61,659.116 1878.99,656.136 1898.37,653.356 1917.76,650.778 1937.14,648.402 
  1956.52,646.229 1975.91,644.261 1995.29,642.498 2014.67,640.94 2034.06,639.589 2053.44,638.444 2072.82,637.508 2092.21,636.778 2111.59,636.257 2130.97,635.945 
  2150.35,635.841 
  "/>
<polyline clip-path="url(#clip192)" style="stroke:#6ccd59; stroke-linecap:butt; stroke-linejoin:round; stroke-width:8; stroke-opacity:1; fill:none" points="
  212.047,1446.71 231.43,1432.34 250.813,1418.03 270.196,1403.77 289.58,1389.56 308.963,1375.41 328.346,1361.31 347.729,1347.27 367.112,1333.29 386.495,1319.37 
  405.878,1305.5 425.261,1291.7 444.644,1277.96 464.027,1264.29 483.41,1250.68 502.793,1237.13 522.176,1223.65 541.559,1210.25 560.943,1196.91 580.326,1183.64 
  599.709,1170.44 619.092,1157.32 638.475,1144.28 657.858,1131.31 677.241,1118.42 696.624,1105.62 716.007,1092.89 735.39,1080.25 754.773,1067.7 774.156,1055.23 
  793.539,1042.85 812.923,1030.57 832.306,1018.38 851.689,1006.28 871.072,994.285 890.455,982.387 909.838,970.592 929.221,958.901 948.604,947.316 967.987,935.841 
  987.37,924.476 1006.75,913.226 1026.14,902.091 1045.52,891.074 1064.9,880.179 1084.29,869.407 1103.67,858.761 1123.05,848.243 1142.43,837.857 1161.82,827.604 
  1181.2,817.488 1200.58,807.511 1219.97,797.676 1239.35,787.985 1258.73,778.442 1278.12,769.048 1297.5,759.808 1316.88,750.723 1336.27,741.797 1355.65,733.032 
  1375.03,724.431 1394.41,715.997 1413.8,707.733 1433.18,699.641 1452.56,691.725 1471.95,683.986 1491.33,676.429 1510.71,669.055 1530.1,661.867 1549.48,654.868 
  1568.86,648.061 1588.25,641.449 1607.63,635.033 1627.01,628.816 1646.39,622.802 1665.78,616.992 1685.16,611.389 1704.54,605.995 1723.93,600.812 1743.31,595.843 
  1762.69,591.09 1782.08,586.554 1801.46,582.239 1820.84,578.145 1840.23,574.275 1859.61,570.631 1878.99,567.213 1898.37,564.024 1917.76,561.065 1937.14,558.338 
  1956.52,555.844 1975.91,553.583 1995.29,551.557 2014.67,549.768 2034.06,548.215 2053.44,546.9 2072.82,545.823 2092.21,544.985 2111.59,544.386 2130.97,544.027 
  2150.35,543.907 
  "/>
<polyline clip-path="url(#clip192)" style="stroke:#b4dd2b; stroke-linecap:butt; stroke-linejoin:round; stroke-width:8; stroke-opacity:1; fill:none" points="
  212.047,1446.71 231.43,1430.57 250.813,1414.49 270.196,1398.45 289.58,1382.47 308.963,1366.55 328.346,1350.68 347.729,1334.86 367.112,1319.1 386.495,1303.4 
  405.878,1287.76 425.261,1272.18 444.644,1256.65 464.027,1241.19 483.41,1225.79 502.793,1210.46 522.176,1195.19 541.559,1179.98 560.943,1164.85 580.326,1149.78 
  599.709,1134.78 619.092,1119.86 638.475,1105 657.858,1090.23 677.241,1075.53 696.624,1060.91 716.007,1046.37 735.39,1031.91 754.773,1017.54 774.156,1003.25 
  793.539,989.053 812.923,974.946 832.306,960.932 851.689,947.014 871.072,933.193 890.455,919.473 909.838,905.856 929.221,892.344 948.604,878.94 967.987,865.647 
  987.37,852.468 1006.75,839.405 1026.14,826.462 1045.52,813.642 1064.9,800.947 1084.29,788.381 1103.67,775.947 1123.05,763.648 1142.43,751.487 1161.82,739.469 
  1181.2,727.596 1200.58,715.872 1219.97,704.3 1239.35,692.884 1258.73,681.629 1278.12,670.536 1297.5,659.61 1316.88,648.856 1336.27,638.276 1355.65,627.874 
  1375.03,617.655 1394.41,607.623 1413.8,597.78 1433.18,588.131 1452.56,578.68 1471.95,569.432 1491.33,560.388 1510.71,551.555 1530.1,542.935 1549.48,534.533 
  1568.86,526.351 1588.25,518.395 1607.63,510.668 1627.01,503.173 1646.39,495.915 1665.78,488.896 1685.16,482.121 1704.54,475.593 1723.93,469.315 1743.31,463.29 
  1762.69,457.523 1782.08,452.015 1801.46,446.771 1820.84,441.792 1840.23,437.082 1859.61,432.644 1878.99,428.479 1898.37,424.591 1917.76,420.981 1937.14,417.652 
  1956.52,414.606 1975.91,411.844 1995.29,409.369 2014.67,407.181 2034.06,405.282 2053.44,403.673 2072.82,402.356 2092.21,401.33 2111.59,400.597 2130.97,400.157 
  2150.35,400.011 
  "/>
<polyline clip-path="url(#clip192)" style="stroke:#fde724; stroke-linecap:butt; stroke-linejoin:round; stroke-width:8; stroke-opacity:1; fill:none" points="
  212.047,1446.71 231.43,1427.26 250.813,1407.87 270.196,1388.52 289.58,1369.22 308.963,1349.98 328.346,1330.78 347.729,1311.64 367.112,1292.54 386.495,1273.49 
  405.878,1254.5 425.261,1235.55 444.644,1216.65 464.027,1197.81 483.41,1179.01 502.793,1160.27 522.176,1141.58 541.559,1122.94 560.943,1104.35 580.326,1085.82 
  599.709,1067.34 619.092,1048.92 638.475,1030.56 657.858,1012.26 677.241,994.011 696.624,975.828 716.007,957.707 735.39,939.652 754.773,921.662 774.156,903.742 
  793.539,885.892 812.923,868.115 832.306,850.413 851.689,832.788 871.072,815.244 890.455,797.783 909.838,780.408 929.221,763.122 948.604,745.928 967.987,728.829 
  987.37,711.83 1006.75,694.933 1026.14,678.143 1045.52,661.464 1064.9,644.899 1084.29,628.453 1103.67,612.131 1123.05,595.937 1142.43,579.876 1161.82,563.953 
  1181.2,548.173 1200.58,532.541 1219.97,517.064 1239.35,501.746 1258.73,486.593 1278.12,471.612 1297.5,456.809 1316.88,442.189 1336.27,427.76 1355.65,413.527 
  1375.03,399.499 1394.41,385.681 1413.8,372.08 1433.18,358.704 1452.56,345.56 1471.95,332.656 1491.33,319.997 1510.71,307.594 1530.1,295.452 1549.48,283.579 
  1568.86,271.984 1588.25,260.673 1607.63,249.655 1627.01,238.937 1646.39,228.527 1665.78,218.433 1685.16,208.662 1704.54,199.222 1723.93,190.12 1743.31,181.363 
  1762.69,172.96 1782.08,164.916 1801.46,157.239 1820.84,149.935 1840.23,143.011 1859.61,136.472 1878.99,130.326 1898.37,124.578 1917.76,119.232 1937.14,114.295 
  1956.52,109.77 1975.91,105.663 1995.29,101.977 2014.67,98.7159 2034.06,95.8829 2053.44,93.4809 2072.82,91.5123 2092.21,89.9791 2111.59,88.8829 2130.97,88.2247 
  2150.35,88.0053 
  "/>
<g clip-path="url(#clip190)">
<text style="fill:#000000; fill-opacity:1; font-family:Arial,Helvetica Neue,Helvetica,sans-serif; font-size:48px; text-anchor:start;" transform="rotate(0, 2169.74, 943.781)" x="2169.74" y="943.781">t = 0.0</text>
</g>
<g clip-path="url(#clip190)">
<text style="fill:#000000; fill-opacity:1; font-family:Arial,Helvetica Neue,Helvetica,sans-serif; font-size:48px; text-anchor:start;" transform="rotate(0, 2169.74, 908.825)" x="2169.74" y="908.825">t = 0.2</text>
</g>
<g clip-path="url(#clip190)">
<text style="fill:#000000; fill-opacity:1; font-family:Arial,Helvetica Neue,Helvetica,sans-serif; font-size:48px; text-anchor:start;" transform="rotate(0, 2169.74, 867.761)" x="2169.74" y="867.761">t = 0.4</text>
</g>
<g clip-path="url(#clip190)">
<text style="fill:#000000; fill-opacity:1; font-family:Arial,Helvetica Neue,Helvetica,sans-serif; font-size:48px; text-anchor:start;" transform="rotate(0, 2169.74, 824.343)" x="2169.74" y="824.343">t = 0.6</text>
</g>
<g clip-path="url(#clip190)">
<text style="fill:#000000; fill-opacity:1; font-family:Arial,Helvetica Neue,Helvetica,sans-serif; font-size:48px; text-anchor:start;" transform="rotate(0, 2169.74, 776.608)" x="2169.74" y="776.608">t = 0.8</text>
</g>
<g clip-path="url(#clip190)">
<text style="fill:#000000; fill-opacity:1; font-family:Arial,Helvetica Neue,Helvetica,sans-serif; font-size:48px; text-anchor:start;" transform="rotate(0, 2169.74, 721.415)" x="2169.74" y="721.415">t = 1.0</text>
</g>
<g clip-path="url(#clip190)">
<text style="fill:#000000; fill-opacity:1; font-family:Arial,Helvetica Neue,Helvetica,sans-serif; font-size:48px; text-anchor:start;" transform="rotate(0, 2169.74, 653.341)" x="2169.74" y="653.341">t = 1.2</text>
</g>
<g clip-path="url(#clip190)">
<text style="fill:#000000; fill-opacity:1; font-family:Arial,Helvetica Neue,Helvetica,sans-serif; font-size:48px; text-anchor:start;" transform="rotate(0, 2169.74, 561.407)" x="2169.74" y="561.407">t = 1.4</text>
</g>
<g clip-path="url(#clip190)">
<text style="fill:#000000; fill-opacity:1; font-family:Arial,Helvetica Neue,Helvetica,sans-serif; font-size:48px; text-anchor:start;" transform="rotate(0, 2169.74, 417.511)" x="2169.74" y="417.511">t = 1.6</text>
</g>
<g clip-path="url(#clip190)">
<text style="fill:#000000; fill-opacity:1; font-family:Arial,Helvetica Neue,Helvetica,sans-serif; font-size:48px; text-anchor:start;" transform="rotate(0, 2169.74, 105.505)" x="2169.74" y="105.505">t = 1.8</text>
</g>
</svg>
