<?xml version="1.0" encoding="utf-8"?>
<svg xmlns="http://www.w3.org/2000/svg" xmlns:xlink="http://www.w3.org/1999/xlink" width="600" height="400" viewBox="0 0 2400 1600">
<defs>
  <clipPath id="clip370">
    <rect x="0" y="0" width="2400" height="1600"/>
  </clipPath>
</defs>
<path clip-path="url(#clip370)" d="
M0 1600 L2400 1600 L2400 0 L0 0  Z
  " fill="#ffffff" fill-rule="evenodd" fill-opacity="1"/>
<defs>
  <clipPath id="clip371">
    <rect x="480" y="0" width="1681" height="1600"/>
  </clipPath>
</defs>
<path clip-path="url(#clip370)" d="
M180.66 1487.47 L2112.76 1487.47 L2112.76 47.2441 L180.66 47.2441  Z
  " fill="#ffffff" fill-rule="evenodd" fill-opacity="1"/>
<defs>
  <clipPath id="clip372">
    <rect x="180" y="47" width="1933" height="1441"/>
  </clipPath>
</defs>
<polyline clip-path="url(#clip372)" style="stroke:#000000; stroke-linecap:butt; stroke-linejoin:round; stroke-width:2; stroke-opacity:0.1; fill:none" points="
  180.66,1487.47 180.66,47.2441 
  "/>
<polyline clip-path="url(#clip372)" style="stroke:#000000; stroke-linecap:butt; stroke-linejoin:round; stroke-width:2; stroke-opacity:0.1; fill:none" points="
  663.684,1487.47 663.684,47.2441 
  "/>
<polyline clip-path="url(#clip372)" style="stroke:#000000; stroke-linecap:butt; stroke-linejoin:round; stroke-width:2; stroke-opacity:0.1; fill:none" points="
  1146.71,1487.47 1146.71,47.2441 
  "/>
<polyline clip-path="url(#clip372)" style="stroke:#000000; stroke-linecap:butt; stroke-linejoin:round; stroke-width:2; stroke-opacity:0.1; fill:none" points="
  1629.73,1487.47 1629.73,47.2441 
  "/>
<polyline clip-path="url(#clip372)" style="stroke:#000000; stroke-linecap:butt; stroke-linejoin:round; stroke-width:2; stroke-opacity:0.1; fill:none" points="
  2112.76,1487.47 2112.76,47.2441 
  "/>
<polyline clip-path="url(#clip370)" style="stroke:#000000; stroke-linecap:butt; stroke-linejoin:round; stroke-width:4; stroke-opacity:1; fill:none" points="
  180.66,1487.47 2112.76,1487.47 
  "/>
<polyline clip-path="url(#clip370)" style="stroke:#000000; stroke-linecap:butt; stroke-linejoin:round; stroke-width:4; stroke-opacity:1; fill:none" points="
  180.66,1487.47 180.66,1468.58 
  "/>
<polyline clip-path="url(#clip370)" style="stroke:#000000; stroke-linecap:butt; stroke-linejoin:round; stroke-width:4; stroke-opacity:1; fill:none" points="
  663.684,1487.47 663.684,1468.58 
  "/>
<polyline clip-path="url(#clip370)" style="stroke:#000000; stroke-linecap:butt; stroke-linejoin:round; stroke-width:4; stroke-opacity:1; fill:none" points="
  1146.71,1487.47 1146.71,1468.58 
  "/>
<polyline clip-path="url(#clip370)" style="stroke:#000000; stroke-linecap:butt; stroke-linejoin:round; stroke-width:4; stroke-opacity:1; fill:none" points="
  1629.73,1487.47 1629.73,1468.58 
  "/>
<polyline clip-path="url(#clip370)" style="stroke:#000000; stroke-linecap:butt; stroke-linejoin:round; stroke-width:4; stroke-opacity:1; fill:none" points="
  2112.76,1487.47 2112.76,1468.58 
  "/>
<g clip-path="url(#clip370)">
<text style="fill:#000000; fill-opacity:1; font-family:Arial,Helvetica Neue,Helvetica,sans-serif; font-size:48px; text-anchor:middle;" transform="rotate(0, 180.66, 1549.32)" x="180.66" y="1549.32">−1.0</text>
</g>
<g clip-path="url(#clip370)">
<text style="fill:#000000; fill-opacity:1; font-family:Arial,Helvetica Neue,Helvetica,sans-serif; font-size:48px; text-anchor:middle;" transform="rotate(0, 663.684, 1549.32)" x="663.684" y="1549.32">−0.5</text>
</g>
<g clip-path="url(#clip370)">
<text style="fill:#000000; fill-opacity:1; font-family:Arial,Helvetica Neue,Helvetica,sans-serif; font-size:48px; text-anchor:middle;" transform="rotate(0, 1146.71, 1549.32)" x="1146.71" y="1549.32">0.0</text>
</g>
<g clip-path="url(#clip370)">
<text style="fill:#000000; fill-opacity:1; font-family:Arial,Helvetica Neue,Helvetica,sans-serif; font-size:48px; text-anchor:middle;" transform="rotate(0, 1629.73, 1549.32)" x="1629.73" y="1549.32">0.5</text>
</g>
<g clip-path="url(#clip370)">
<text style="fill:#000000; fill-opacity:1; font-family:Arial,Helvetica Neue,Helvetica,sans-serif; font-size:48px; text-anchor:middle;" transform="rotate(0, 2112.76, 1549.32)" x="2112.76" y="1549.32">1.0</text>
</g>
<polyline clip-path="url(#clip372)" style="stroke:#000000; stroke-linecap:butt; stroke-linejoin:round; stroke-width:2; stroke-opacity:0.1; fill:none" points="
  180.66,1487.47 2112.76,1487.47 
  "/>
<polyline clip-path="url(#clip372)" style="stroke:#000000; stroke-linecap:butt; stroke-linejoin:round; stroke-width:2; stroke-opacity:0.1; fill:none" points="
  180.66,1127.42 2112.76,1127.42 
  "/>
<polyline clip-path="url(#clip372)" style="stroke:#000000; stroke-linecap:butt; stroke-linejoin:round; stroke-width:2; stroke-opacity:0.1; fill:none" points="
  180.66,767.359 2112.76,767.359 
  "/>
<polyline clip-path="url(#clip372)" style="stroke:#000000; stroke-linecap:butt; stroke-linejoin:round; stroke-width:2; stroke-opacity:0.1; fill:none" points="
  180.66,407.302 2112.76,407.302 
  "/>
<polyline clip-path="url(#clip372)" style="stroke:#000000; stroke-linecap:butt; stroke-linejoin:round; stroke-width:2; stroke-opacity:0.1; fill:none" points="
  180.66,47.2441 2112.76,47.2441 
  "/>
<polyline clip-path="url(#clip370)" style="stroke:#000000; stroke-linecap:butt; stroke-linejoin:round; stroke-width:4; stroke-opacity:1; fill:none" points="
  180.66,1487.47 180.66,47.2441 
  "/>
<polyline clip-path="url(#clip370)" style="stroke:#000000; stroke-linecap:butt; stroke-linejoin:round; stroke-width:4; stroke-opacity:1; fill:none" points="
  180.66,1487.47 197.47,1487.47 
  "/>
<polyline clip-path="url(#clip370)" style="stroke:#000000; stroke-linecap:butt; stroke-linejoin:round; stroke-width:4; stroke-opacity:1; fill:none" points="
  180.66,1127.42 197.47,1127.42 
  "/>
<polyline clip-path="url(#clip370)" style="stroke:#000000; stroke-linecap:butt; stroke-linejoin:round; stroke-width:4; stroke-opacity:1; fill:none" points="
  180.66,767.359 197.47,767.359 
  "/>
<polyline clip-path="url(#clip370)" style="stroke:#000000; stroke-linecap:butt; stroke-linejoin:round; stroke-width:4; stroke-opacity:1; fill:none" points="
  180.66,407.302 197.47,407.302 
  "/>
<polyline clip-path="url(#clip370)" style="stroke:#000000; stroke-linecap:butt; stroke-linejoin:round; stroke-width:4; stroke-opacity:1; fill:none" points="
  180.66,47.2441 197.47,47.2441 
  "/>
<g clip-path="url(#clip370)">
<text style="fill:#000000; fill-opacity:1; font-family:Arial,Helvetica Neue,Helvetica,sans-serif; font-size:48px; text-anchor:middle;" transform="rotate(0, 97.8262, 1504.97)" x="97.8262" y="1504.97">−1.0</text>
</g>
<g clip-path="url(#clip370)">
<text style="fill:#000000; fill-opacity:1; font-family:Arial,Helvetica Neue,Helvetica,sans-serif; font-size:48px; text-anchor:middle;" transform="rotate(0, 97.8262, 1144.92)" x="97.8262" y="1144.92">−0.5</text>
</g>
<g clip-path="url(#clip370)">
<text style="fill:#000000; fill-opacity:1; font-family:Arial,Helvetica Neue,Helvetica,sans-serif; font-size:48px; text-anchor:middle;" transform="rotate(0, 111.207, 784.859)" x="111.207" y="784.859">0.0</text>
</g>
<g clip-path="url(#clip370)">
<text style="fill:#000000; fill-opacity:1; font-family:Arial,Helvetica Neue,Helvetica,sans-serif; font-size:48px; text-anchor:middle;" transform="rotate(0, 111.207, 424.802)" x="111.207" y="424.802">0.5</text>
</g>
<g clip-path="url(#clip370)">
<text style="fill:#000000; fill-opacity:1; font-family:Arial,Helvetica Neue,Helvetica,sans-serif; font-size:48px; text-anchor:middle;" transform="rotate(0, 111.207, 64.7441)" x="111.207" y="64.7441">1.0</text>
</g>
<polyline clip-path="url(#clip372)" style="stroke:#801f6b; stroke-linecap:butt; stroke-linejoin:round; stroke-width:8; stroke-opacity:1; fill:none" points="
  247.284,1487.47 279.221,1397.46 301.416,1358.03 361.029,1307.45 422.172,1274.21 542.928,1264.54 663.684,1286.44 712.971,1307.45 784.44,1322.13 905.196,1362.8 
  958.273,1397.46 1025.95,1412.83 1146.71,1445.57 
  "/>
<polyline clip-path="url(#clip372)" style="stroke:#030212; stroke-linecap:butt; stroke-linejoin:round; stroke-width:8; stroke-opacity:1; fill:none" points="
  1146.71,1402.12 1132.87,1397.46 
  "/>
<polyline clip-path="url(#clip372)" style="stroke:#0f092d; stroke-linecap:butt; stroke-linejoin:round; stroke-width:8; stroke-opacity:1; fill:none" points="
  1114.43,1397.46 1092.52,1307.45 1071.52,1217.43 1059.14,1127.42 1061.31,1037.4 1078.45,947.388 1103.49,857.374 
  "/>
<polyline clip-path="url(#clip372)" style="stroke:#030212; stroke-linecap:butt; stroke-linejoin:round; stroke-width:8; stroke-opacity:1; fill:none" points="
  1128.19,857.374 1117.46,947.388 1110.11,1037.4 1109.18,1127.42 1114.48,1217.43 1123.49,1307.45 1132.87,1397.46 
  "/>
<polyline clip-path="url(#clip372)" style="stroke:#200c4a; stroke-linecap:butt; stroke-linejoin:round; stroke-width:8; stroke-opacity:1; fill:none" points="
  1095.98,1397.46 1061.56,1307.45 1028.56,1217.43 1025.95,1203.7 1005.14,1127.42 1008.59,1037.4 1025.95,997.514 1039.45,947.388 1078.8,857.374 
  "/>
<polyline clip-path="url(#clip372)" style="stroke:#34095f; stroke-linecap:butt; stroke-linejoin:round; stroke-width:8; stroke-opacity:1; fill:none" points="
  1054.11,857.374 1025.95,914.575 984.89,947.388 945.522,1037.4 943.355,1127.42 972.408,1217.43 1025.95,1295.05 1030.6,1307.45 1077.54,1397.46 
  "/>
<polyline clip-path="url(#clip372)" style="stroke:#480b6a; stroke-linecap:butt; stroke-linejoin:round; stroke-width:8; stroke-opacity:1; fill:none" points="
  1059.09,1397.46 1025.95,1336.35 982.142,1307.45 915.409,1217.43 905.196,1188.71 871.509,1127.42 871.878,1037.4 905.196,985.872 922.103,947.388 1025.95,864.402 
  1029.41,857.374 
  "/>
<polyline clip-path="url(#clip372)" style="stroke:#5b116e; stroke-linecap:butt; stroke-linejoin:round; stroke-width:8; stroke-opacity:1; fill:none" points="
  1025.95,842.279 959.22,857.374 905.196,901.291 826.845,947.388 784.44,1026.63 776.478,1037.4 782.812,1127.42 784.44,1129.28 832.662,1217.43 905.196,1273.68 
  930.598,1307.45 1025.95,1370.36 1040.65,1397.46 
  "/>
<polyline clip-path="url(#clip372)" style="stroke:#d74b3e; stroke-linecap:butt; stroke-linejoin:round; stroke-width:8; stroke-opacity:1; fill:none" points="
  913.524,1487.47 1025.95,1476.7 1146.71,1476.61 
  "/>
<polyline clip-path="url(#clip372)" style="stroke:#0f092d; stroke-linecap:butt; stroke-linejoin:round; stroke-width:8; stroke-opacity:1; fill:none" points="
  1146.71,1408.32 1114.43,1397.46 
  "/>
<polyline clip-path="url(#clip372)" style="stroke:#e55b30; stroke-linecap:butt; stroke-linejoin:round; stroke-width:8; stroke-opacity:1; fill:none" points="
  1046.77,1487.47 1146.71,1482.82 
  "/>
<polyline clip-path="url(#clip372)" style="stroke:#200c4a; stroke-linecap:butt; stroke-linejoin:round; stroke-width:8; stroke-opacity:1; fill:none" points="
  1146.71,1414.53 1095.98,1397.46 
  "/>
<polyline clip-path="url(#clip372)" style="stroke:#34095f; stroke-linecap:butt; stroke-linejoin:round; stroke-width:8; stroke-opacity:1; fill:none" points="
  1146.71,1420.74 1077.54,1397.46 
  "/>
<polyline clip-path="url(#clip372)" style="stroke:#480b6a; stroke-linecap:butt; stroke-linejoin:round; stroke-width:8; stroke-opacity:1; fill:none" points="
  1146.71,1426.95 1059.09,1397.46 
  "/>
<polyline clip-path="url(#clip372)" style="stroke:#5b116e; stroke-linecap:butt; stroke-linejoin:round; stroke-width:8; stroke-opacity:1; fill:none" points="
  1146.71,1433.16 1040.65,1397.46 
  "/>
<polyline clip-path="url(#clip372)" style="stroke:#6e186e; stroke-linecap:butt; stroke-linejoin:round; stroke-width:8; stroke-opacity:1; fill:none" points="
  1146.71,1439.36 1025.95,1400.06 1014.52,1397.46 905.196,1326.07 854.394,1307.45 784.44,1252.91 713.29,1217.43 663.684,1157.08 623.366,1127.42 600.848,1037.4 
  663.684,959.197 670.471,947.388 784.44,889.187 847.35,857.374 905.196,845.73 1025.95,824.726 
  "/>
<polyline clip-path="url(#clip372)" style="stroke:#801f6b; stroke-linecap:butt; stroke-linejoin:round; stroke-width:8; stroke-opacity:1; fill:none" points="
  1025.95,807.173 905.196,807.405 784.44,810.426 663.684,812.086 542.928,802.281 440.296,767.359 422.172,757.271 342.289,677.345 302.133,587.331 301.416,584.793 
  280.435,497.316 267.73,407.302 259.744,317.287 254.372,227.273 250.455,137.259 247.284,47.2441 
  "/>
<polyline clip-path="url(#clip372)" style="stroke:#932567; stroke-linecap:butt; stroke-linejoin:round; stroke-width:8; stroke-opacity:1; fill:none" points="
  380.532,47.2441 389.553,137.259 400.625,227.273 415.759,317.287 422.172,344.6 437.432,407.302 470.848,497.316 528.632,587.331 542.928,601.587 635.054,677.345 
  663.684,690.739 784.44,735.441 892.608,767.359 905.196,769.08 1025.95,789.619 
  "/>
<polyline clip-path="url(#clip372)" style="stroke:#a62c5f; stroke-linecap:butt; stroke-linejoin:round; stroke-width:8; stroke-opacity:1; fill:none" points="
  1025.95,772.066 999.482,767.359 905.196,712.112 824.452,677.345 784.44,643.094 709.702,587.331 663.684,526.973 639.975,497.316 594.028,407.302 564.338,317.287 
  543.461,227.273 542.928,224.327 527.214,137.259 513.78,47.2441 
  "/>
<polyline clip-path="url(#clip372)" style="stroke:#b83556; stroke-linecap:butt; stroke-linejoin:round; stroke-width:8; stroke-opacity:1; fill:none" points="
  647.028,47.2441 662.612,137.259 663.684,142.569 680.399,227.273 703.074,317.287 734.589,407.302 782.158,497.316 784.44,500.1 844.559,587.331 905.196,638.247 
  936.55,677.345 1025.95,732.12 
  "/>
<polyline clip-path="url(#clip372)" style="stroke:#b83556; stroke-linecap:butt; stroke-linejoin:round; stroke-width:8; stroke-opacity:1; fill:none" points="
  1045.67,767.359 1146.71,790.639 
  "/>
<polyline clip-path="url(#clip372)" style="stroke:#030212; stroke-linecap:butt; stroke-linejoin:round; stroke-width:8; stroke-opacity:1; fill:none" points="
  1146.71,852.718 1128.19,857.374 
  "/>
<polyline clip-path="url(#clip372)" style="stroke:#0f092d; stroke-linecap:butt; stroke-linejoin:round; stroke-width:8; stroke-opacity:1; fill:none" points="
  1146.71,846.51 1103.49,857.374 
  "/>
<polyline clip-path="url(#clip372)" style="stroke:#200c4a; stroke-linecap:butt; stroke-linejoin:round; stroke-width:8; stroke-opacity:1; fill:none" points="
  1146.71,840.302 1078.8,857.374 
  "/>
<polyline clip-path="url(#clip372)" style="stroke:#34095f; stroke-linecap:butt; stroke-linejoin:round; stroke-width:8; stroke-opacity:1; fill:none" points="
  1146.71,834.094 1054.11,857.374 
  "/>
<polyline clip-path="url(#clip372)" style="stroke:#480b6a; stroke-linecap:butt; stroke-linejoin:round; stroke-width:8; stroke-opacity:1; fill:none" points="
  1146.71,827.886 1029.41,857.374 
  "/>
<polyline clip-path="url(#clip372)" style="stroke:#5b116e; stroke-linecap:butt; stroke-linejoin:round; stroke-width:8; stroke-opacity:1; fill:none" points="
  1146.71,821.678 1025.95,842.279 
  "/>
<polyline clip-path="url(#clip372)" style="stroke:#6e186e; stroke-linecap:butt; stroke-linejoin:round; stroke-width:8; stroke-opacity:1; fill:none" points="
  1146.71,815.471 1025.95,824.726 
  "/>
<polyline clip-path="url(#clip372)" style="stroke:#801f6b; stroke-linecap:butt; stroke-linejoin:round; stroke-width:8; stroke-opacity:1; fill:none" points="
  1146.71,809.263 1025.95,807.173 
  "/>
<polyline clip-path="url(#clip372)" style="stroke:#932567; stroke-linecap:butt; stroke-linejoin:round; stroke-width:8; stroke-opacity:1; fill:none" points="
  1146.71,803.055 1025.95,789.619 
  "/>
<polyline clip-path="url(#clip372)" style="stroke:#a62c5f; stroke-linecap:butt; stroke-linejoin:round; stroke-width:8; stroke-opacity:1; fill:none" points="
  1146.71,796.847 1025.95,772.066 
  "/>
<polyline clip-path="url(#clip372)" style="stroke:#c83e4b; stroke-linecap:butt; stroke-linejoin:round; stroke-width:8; stroke-opacity:1; fill:none" points="
  1146.71,784.431 1072.61,767.359 
  "/>
<polyline clip-path="url(#clip372)" style="stroke:#d74b3e; stroke-linecap:butt; stroke-linejoin:round; stroke-width:8; stroke-opacity:1; fill:none" points="
  1099.56,767.359 1146.71,778.223 
  "/>
<polyline clip-path="url(#clip372)" style="stroke:#e55b30; stroke-linecap:butt; stroke-linejoin:round; stroke-width:8; stroke-opacity:1; fill:none" points="
  1146.71,772.015 1126.5,767.359 
  "/>
<polyline clip-path="url(#clip372)" style="stroke:#c83e4b; stroke-linecap:butt; stroke-linejoin:round; stroke-width:8; stroke-opacity:1; fill:none" points="
  1025.95,683.97 1015.14,677.345 946.296,587.331 905.196,507.466 898.138,497.316 858.831,407.302 831.535,317.287 811.263,227.273 794.98,137.259 784.44,72.2728 
  780.276,47.2441 
  "/>
<polyline clip-path="url(#clip372)" style="stroke:#d74b3e; stroke-linecap:butt; stroke-linejoin:round; stroke-width:8; stroke-opacity:1; fill:none" points="
  913.524,47.2441 924.544,137.259 936.467,227.273 950.99,317.287 969.893,407.302 995.434,497.316 1025.95,571.295 
  "/>
<polyline clip-path="url(#clip372)" style="stroke:#932567; stroke-linecap:butt; stroke-linejoin:round; stroke-width:8; stroke-opacity:1; fill:none" points="
  380.532,1487.47 422.172,1442.39 498.537,1397.46 542.928,1378.93 663.684,1361.98 784.44,1370.82 893.906,1397.46 905.196,1398.73 1025.95,1425.6 1146.71,1451.78 
  
  "/>
<polyline clip-path="url(#clip372)" style="stroke:#a62c5f; stroke-linecap:butt; stroke-linejoin:round; stroke-width:8; stroke-opacity:1; fill:none" points="
  1146.71,1457.99 1025.95,1438.38 905.196,1421.27 784.44,1413.87 663.684,1424.57 542.928,1468.5 513.78,1487.47 
  "/>
<polyline clip-path="url(#clip372)" style="stroke:#b83556; stroke-linecap:butt; stroke-linejoin:round; stroke-width:8; stroke-opacity:1; fill:none" points="
  647.028,1487.47 663.684,1480.48 784.44,1450.11 905.196,1443.81 1025.95,1451.15 1146.71,1464.2 
  "/>
<polyline clip-path="url(#clip372)" style="stroke:#c83e4b; stroke-linecap:butt; stroke-linejoin:round; stroke-width:8; stroke-opacity:1; fill:none" points="
  1146.71,1470.4 1025.95,1463.92 905.196,1466.35 784.44,1486.34 780.276,1487.47 
  "/>
<polyline clip-path="url(#clip372)" style="stroke:#e55b30; stroke-linecap:butt; stroke-linejoin:round; stroke-width:8; stroke-opacity:1; fill:none" points="
  1046.77,1487.47 1073.05,1480.29 1221.58,1407.21 1235.62,1397.46 1316.01,1307.45 1353.86,1217.43 1367.32,1127.42 1360.86,1037.4 1332.18,947.388 1266.44,857.374 
  1221.58,829.27 1162.46,767.359 
  "/>
<polyline clip-path="url(#clip372)" style="stroke:#d74b3e; stroke-linecap:butt; stroke-linejoin:round; stroke-width:8; stroke-opacity:1; fill:none" points="
  1117.39,767.359 1202.26,857.374 1221.58,888.911 1268.98,947.388 1301.53,1037.4 1308.13,1127.42 1291.59,1217.43 1245.83,1307.45 1221.58,1333.67 1162.54,1397.46 
  1073.05,1443.88 924.517,1485.82 
  "/>
<polyline clip-path="url(#clip372)" style="stroke:#932567; stroke-linecap:butt; stroke-linejoin:round; stroke-width:8; stroke-opacity:1; fill:none" points="
  924.517,1405.49 943.523,1397.46 1037.07,1307.45 1073.05,1231.88 1081.62,1217.43 1103.61,1127.42 1099.75,1037.4 1073.05,955.495 1070.96,947.388 1023.09,857.374 
  924.517,775.113 
  "/>
<polyline clip-path="url(#clip372)" style="stroke:#6e186e; stroke-linecap:butt; stroke-linejoin:round; stroke-width:8; stroke-opacity:1; fill:none" points="
  924.517,839.56 945.863,857.374 998.436,947.388 1021.47,1037.4 1023.66,1127.42 1005.04,1217.43 958.965,1307.45 924.517,1339.43 
  "/>
<polyline clip-path="url(#clip372)" style="stroke:#801f6b; stroke-linecap:butt; stroke-linejoin:round; stroke-width:8; stroke-opacity:1; fill:none" points="
  924.517,1375.7 998.02,1307.45 1042.33,1217.43 1060.44,1127.42 1057.83,1037.4 1034.7,947.388 984.478,857.374 924.517,807.337 
  "/>
<polyline clip-path="url(#clip372)" style="stroke:#ee6c22; stroke-linecap:butt; stroke-linejoin:round; stroke-width:8; stroke-opacity:1; fill:none" points="
  1207.52,767.359 1221.58,782.077 1341.77,857.374 1370.11,901 1402.25,947.388 1432.92,1037.4 1440.11,1127.42 1426.79,1217.43 1389.58,1307.45 1370.11,1334.78 
  1323.79,1397.46 1221.58,1468.39 1180.02,1487.47 
  "/>
<polyline clip-path="url(#clip372)" style="stroke:#f68012; stroke-linecap:butt; stroke-linejoin:round; stroke-width:8; stroke-opacity:1; fill:none" points="
  1313.27,1487.47 1370.11,1444.87 1418.33,1397.46 1474.61,1307.45 1503.47,1217.43 1513.57,1127.42 1507.33,1037.4 1482.63,947.388 1429.64,857.374 1370.11,803.912 
  1313.27,767.359 
  "/>
<polyline clip-path="url(#clip372)" style="stroke:#fa9506; stroke-linecap:butt; stroke-linejoin:round; stroke-width:8; stroke-opacity:1; fill:none" points="
  1446.52,767.359 1518.64,847.407 1525.95,857.374 1571.11,947.388 1593.87,1037.4 1599.94,1127.42 1590.97,1217.43 1565.73,1307.45 1520.03,1397.46 1518.64,1399.49 
  1446.52,1487.47 
  "/>
<polyline clip-path="url(#clip372)" style="stroke:#fbac10; stroke-linecap:butt; stroke-linejoin:round; stroke-width:8; stroke-opacity:1; fill:none" points="
  1579.76,1487.47 1631.28,1397.46 1663.39,1307.45 1667.17,1289.47 1682.83,1217.43 1689.91,1127.42 1684.62,1037.4 1667.17,952.477 1666.18,947.388 1634.45,857.374 
  1579.76,767.359 
  "/>
<polyline clip-path="url(#clip372)" style="stroke:#fac128; stroke-linecap:butt; stroke-linejoin:round; stroke-width:8; stroke-opacity:1; fill:none" points="
  1713.01,767.359 1748.66,857.374 1772.08,947.388 1784.98,1037.4 1788.76,1127.42 1783.97,1217.43 1770.35,1307.45 1747.02,1397.46 1713.01,1487.47 
  "/>
<polyline clip-path="url(#clip372)" style="stroke:#f5d948; stroke-linecap:butt; stroke-linejoin:round; stroke-width:8; stroke-opacity:1; fill:none" points="
  1846.26,1487.47 1866.58,1397.46 1881.36,1307.45 1890.3,1217.43 1893.48,1127.42 1890.86,1037.4 1882.25,947.388 1867.34,857.374 1846.26,767.359 
  "/>
<polyline clip-path="url(#clip372)" style="stroke:#a62c5f; stroke-linecap:butt; stroke-linejoin:round; stroke-width:8; stroke-opacity:1; fill:none" points="
  965.156,767.359 1061.71,857.374 1073.05,878.759 1116.89,947.388 1145.68,1037.4 1150.1,1127.42 1130.29,1217.43 1077.34,1307.45 1073.05,1311.38 991.048,1397.46 
  924.517,1425.57 
  "/>
<polyline clip-path="url(#clip372)" style="stroke:#b83556; stroke-linecap:butt; stroke-linejoin:round; stroke-width:8; stroke-opacity:1; fill:none" points="
  924.517,1445.65 1038.57,1397.46 1073.05,1361.27 1131.68,1307.45 1178.96,1217.43 1196.59,1127.42 1191.61,1037.4 1163.42,947.388 1106.77,857.374 1073.05,820.46 
  1018.67,767.359 
  "/>
<polyline clip-path="url(#clip372)" style="stroke:#c83e4b; stroke-linecap:butt; stroke-linejoin:round; stroke-width:8; stroke-opacity:1; fill:none" points="
  1072.19,767.359 1073.05,768.199 1154.52,857.374 1209.94,947.388 1221.58,985.05 1242.2,1037.4 1248.95,1127.42 1229.32,1217.43 1221.58,1231.8 1186.02,1307.45 
  1092.33,1397.46 1073.05,1407.46 924.517,1465.74 
  "/>
<polyline clip-path="url(#clip372)" style="stroke:#480b6a; stroke-linecap:butt; stroke-linejoin:round; stroke-width:8; stroke-opacity:1; fill:none" points="
  924.517,1228.69 930.475,1217.43 950.087,1127.42 948.763,1037.4 925.911,947.388 924.517,945.059 
  "/>
<polyline clip-path="url(#clip372)" style="stroke:#5b116e; stroke-linecap:butt; stroke-linejoin:round; stroke-width:8; stroke-opacity:1; fill:none" points="
  924.517,884.469 962.174,947.388 985.118,1037.4 986.872,1127.42 967.76,1217.43 924.517,1299.14 
  "/>
<defs>
  <clipPath id="clip373">
    <rect x="2160" y="47" width="73" height="1441"/>
  </clipPath>
</defs>
<polyline clip-path="url(#clip373)" style="stroke:#aaffaa; stroke-linecap:butt; stroke-linejoin:round; stroke-width:8; stroke-opacity:1; fill:none" points="
  2160.76,1967.55 2232.76,1967.55 
  "/>
<polyline clip-path="url(#clip373)" style="stroke:#004242; stroke-linecap:butt; stroke-linejoin:round; stroke-width:8; stroke-opacity:1; fill:none" points="
  2160.76,1901.33 2232.76,1901.33 
  "/>
<polyline clip-path="url(#clip373)" style="stroke:#008f8f; stroke-linecap:butt; stroke-linejoin:round; stroke-width:8; stroke-opacity:1; fill:none" points="
  2160.76,1835.12 2232.76,1835.12 
  "/>
<polyline clip-path="url(#clip373)" style="stroke:#00e3e3; stroke-linecap:butt; stroke-linejoin:round; stroke-width:8; stroke-opacity:1; fill:none" points="
  2160.76,1768.9 2232.76,1768.9 
  "/>
<polyline clip-path="url(#clip373)" style="stroke:#5dffff; stroke-linecap:butt; stroke-linejoin:round; stroke-width:8; stroke-opacity:1; fill:none" points="
  2160.76,1702.68 2232.76,1702.68 
  "/>
<polyline clip-path="url(#clip373)" style="stroke:#c3ffff; stroke-linecap:butt; stroke-linejoin:round; stroke-width:8; stroke-opacity:1; fill:none" points="
  2160.76,1636.46 2232.76,1636.46 
  "/>
<polyline clip-path="url(#clip373)" style="stroke:#cda161; stroke-linecap:butt; stroke-linejoin:round; stroke-width:8; stroke-opacity:1; fill:none" points="
  2160.76,1570.25 2232.76,1570.25 
  "/>
<polyline clip-path="url(#clip373)" style="stroke:#593314; stroke-linecap:butt; stroke-linejoin:round; stroke-width:8; stroke-opacity:1; fill:none" points="
  2160.76,1504.03 2232.76,1504.03 
  "/>
<polyline clip-path="url(#clip373)" style="stroke:#040314; stroke-linecap:butt; stroke-linejoin:round; stroke-width:8; stroke-opacity:1; fill:none" points="
  2160.76,1437.81 2232.76,1437.81 
  "/>
<polyline clip-path="url(#clip373)" style="stroke:#10092f; stroke-linecap:butt; stroke-linejoin:round; stroke-width:8; stroke-opacity:1; fill:none" points="
  2160.76,1371.59 2232.76,1371.59 
  "/>
<polyline clip-path="url(#clip373)" style="stroke:#200c4a; stroke-linecap:butt; stroke-linejoin:round; stroke-width:8; stroke-opacity:1; fill:none" points="
  2160.76,1305.38 2232.76,1305.38 
  "/>
<polyline clip-path="url(#clip373)" style="stroke:#350960; stroke-linecap:butt; stroke-linejoin:round; stroke-width:8; stroke-opacity:1; fill:none" points="
  2160.76,1239.16 2232.76,1239.16 
  "/>
<polyline clip-path="url(#clip373)" style="stroke:#4a0b6a; stroke-linecap:butt; stroke-linejoin:round; stroke-width:8; stroke-opacity:1; fill:none" points="
  2160.76,1172.94 2232.76,1172.94 
  "/>
<polyline clip-path="url(#clip373)" style="stroke:#5b116e; stroke-linecap:butt; stroke-linejoin:round; stroke-width:8; stroke-opacity:1; fill:none" points="
  2160.76,1106.72 2232.76,1106.72 
  "/>
<polyline clip-path="url(#clip373)" style="stroke:#6e186e; stroke-linecap:butt; stroke-linejoin:round; stroke-width:8; stroke-opacity:1; fill:none" points="
  2160.76,1040.51 2232.76,1040.51 
  "/>
<polyline clip-path="url(#clip373)" style="stroke:#811f6b; stroke-linecap:butt; stroke-linejoin:round; stroke-width:8; stroke-opacity:1; fill:none" points="
  2160.76,974.289 2232.76,974.289 
  "/>
<polyline clip-path="url(#clip373)" style="stroke:#952666; stroke-linecap:butt; stroke-linejoin:round; stroke-width:8; stroke-opacity:1; fill:none" points="
  2160.76,908.072 2232.76,908.072 
  "/>
<polyline clip-path="url(#clip373)" style="stroke:#a62c5f; stroke-linecap:butt; stroke-linejoin:round; stroke-width:8; stroke-opacity:1; fill:none" points="
  2160.76,841.854 2232.76,841.854 
  "/>
<polyline clip-path="url(#clip373)" style="stroke:#b83556; stroke-linecap:butt; stroke-linejoin:round; stroke-width:8; stroke-opacity:1; fill:none" points="
  2160.76,775.637 2232.76,775.637 
  "/>
<polyline clip-path="url(#clip373)" style="stroke:#c93f4a; stroke-linecap:butt; stroke-linejoin:round; stroke-width:8; stroke-opacity:1; fill:none" points="
  2160.76,709.419 2232.76,709.419 
  "/>
<polyline clip-path="url(#clip373)" style="stroke:#d74b3e; stroke-linecap:butt; stroke-linejoin:round; stroke-width:8; stroke-opacity:1; fill:none" points="
  2160.76,643.202 2232.76,643.202 
  "/>
<polyline clip-path="url(#clip373)" style="stroke:#e55b30; stroke-linecap:butt; stroke-linejoin:round; stroke-width:8; stroke-opacity:1; fill:none" points="
  2160.76,576.984 2232.76,576.984 
  "/>
<polyline clip-path="url(#clip373)" style="stroke:#ef6d21; stroke-linecap:butt; stroke-linejoin:round; stroke-width:8; stroke-opacity:1; fill:none" points="
  2160.76,510.767 2232.76,510.767 
  "/>
<polyline clip-path="url(#clip373)" style="stroke:#f68111; stroke-linecap:butt; stroke-linejoin:round; stroke-width:8; stroke-opacity:1; fill:none" points="
  2160.76,444.549 2232.76,444.549 
  "/>
<polyline clip-path="url(#clip373)" style="stroke:#fa9506; stroke-linecap:butt; stroke-linejoin:round; stroke-width:8; stroke-opacity:1; fill:none" points="
  2160.76,378.332 2232.76,378.332 
  "/>
<polyline clip-path="url(#clip373)" style="stroke:#fbac10; stroke-linecap:butt; stroke-linejoin:round; stroke-width:8; stroke-opacity:1; fill:none" points="
  2160.76,312.114 2232.76,312.114 
  "/>
<polyline clip-path="url(#clip373)" style="stroke:#f9c32a; stroke-linecap:butt; stroke-linejoin:round; stroke-width:8; stroke-opacity:1; fill:none" points="
  2160.76,245.897 2232.76,245.897 
  "/>
<polyline clip-path="url(#clip373)" style="stroke:#f4db4b; stroke-linecap:butt; stroke-linejoin:round; stroke-width:8; stroke-opacity:1; fill:none" points="
  2160.76,179.679 2232.76,179.679 
  "/>
<polyline clip-path="url(#clip373)" style="stroke:#f1ee74; stroke-linecap:butt; stroke-linejoin:round; stroke-width:8; stroke-opacity:1; fill:none" points="
  2160.76,113.462 2232.76,113.462 
  "/>
<polyline clip-path="url(#clip373)" style="stroke:#fcfea4; stroke-linecap:butt; stroke-linejoin:round; stroke-width:8; stroke-opacity:1; fill:none" points="
  2160.76,47.2441 2232.76,47.2441 
  "/>
<g clip-path="url(#clip370)">
<text style="fill:#000000; fill-opacity:1; font-family:Arial,Helvetica Neue,Helvetica,sans-serif; font-size:48px; text-anchor:start;" transform="rotate(0, 2268.76, 1501.13)" x="2268.76" y="1501.13">0</text>
</g>
<g clip-path="url(#clip370)">
<text style="fill:#000000; fill-opacity:1; font-family:Arial,Helvetica Neue,Helvetica,sans-serif; font-size:48px; text-anchor:start;" transform="rotate(0, 2268.76, 1261.09)" x="2268.76" y="1261.09">0.5</text>
</g>
<g clip-path="url(#clip370)">
<text style="fill:#000000; fill-opacity:1; font-family:Arial,Helvetica Neue,Helvetica,sans-serif; font-size:48px; text-anchor:start;" transform="rotate(0, 2268.76, 1021.05)" x="2268.76" y="1021.05">1.0</text>
</g>
<g clip-path="url(#clip370)">
<text style="fill:#000000; fill-opacity:1; font-family:Arial,Helvetica Neue,Helvetica,sans-serif; font-size:48px; text-anchor:start;" transform="rotate(0, 2268.76, 781.011)" x="2268.76" y="781.011">1.5</text>
</g>
<g clip-path="url(#clip370)">
<text style="fill:#000000; fill-opacity:1; font-family:Arial,Helvetica Neue,Helvetica,sans-serif; font-size:48px; text-anchor:start;" transform="rotate(0, 2268.76, 540.972)" x="2268.76" y="540.972">2.0</text>
</g>
<g clip-path="url(#clip370)">
<text style="fill:#000000; fill-opacity:1; font-family:Arial,Helvetica Neue,Helvetica,sans-serif; font-size:48px; text-anchor:start;" transform="rotate(0, 2268.76, 300.934)" x="2268.76" y="300.934">2.5</text>
</g>
<g clip-path="url(#clip370)">
<text style="fill:#000000; fill-opacity:1; font-family:Arial,Helvetica Neue,Helvetica,sans-serif; font-size:48px; text-anchor:start;" transform="rotate(0, 2268.76, 60.8953)" x="2268.76" y="60.8953">3.0</text>
</g>
<polyline clip-path="url(#clip370)" style="stroke:#000000; stroke-linecap:butt; stroke-linejoin:round; stroke-width:4; stroke-opacity:1; fill:none" points="
  2232.76,1487.47 2232.76,1487.47 2256.76,1487.47 2232.76,1487.47 2232.76,1247.44 2256.76,1247.44 2232.76,1247.44 2232.76,1007.4 2256.76,1007.4 2232.76,1007.4 
  2232.76,767.359 2256.76,767.359 2232.76,767.359 2232.76,527.321 2256.76,527.321 2232.76,527.321 2232.76,287.283 2256.76,287.283 2232.76,287.283 2232.76,47.2441 
  2256.76,47.2441 2232.76,47.2441 
  "/>
</svg>
