<?xml version="1.0" encoding="utf-8"?>
<svg xmlns="http://www.w3.org/2000/svg" xmlns:xlink="http://www.w3.org/1999/xlink" width="600" height="400" viewBox="0 0 2400 1600">
<defs>
  <clipPath id="clip500">
    <rect x="0" y="0" width="2400" height="1600"/>
  </clipPath>
</defs>
<path clip-path="url(#clip500)" d="
M0 1600 L2400 1600 L2400 0 L0 0  Z
  " fill="#ffffff" fill-rule="evenodd" fill-opacity="1"/>
<defs>
  <clipPath id="clip501">
    <rect x="480" y="0" width="1681" height="1600"/>
  </clipPath>
</defs>
<path clip-path="url(#clip500)" d="
M140.517 1487.47 L2352.76 1487.47 L2352.76 47.2441 L140.517 47.2441  Z
  " fill="#ffffff" fill-rule="evenodd" fill-opacity="1"/>
<defs>
  <clipPath id="clip502">
    <rect x="140" y="47" width="2213" height="1441"/>
  </clipPath>
</defs>
<polyline clip-path="url(#clip502)" style="stroke:#000000; stroke-linecap:butt; stroke-linejoin:round; stroke-width:2; stroke-opacity:0.1; fill:none" points="
  203.127,1487.47 203.127,47.2441 
  "/>
<polyline clip-path="url(#clip502)" style="stroke:#000000; stroke-linecap:butt; stroke-linejoin:round; stroke-width:2; stroke-opacity:0.1; fill:none" points="
  724.882,1487.47 724.882,47.2441 
  "/>
<polyline clip-path="url(#clip502)" style="stroke:#000000; stroke-linecap:butt; stroke-linejoin:round; stroke-width:2; stroke-opacity:0.1; fill:none" points="
  1246.64,1487.47 1246.64,47.2441 
  "/>
<polyline clip-path="url(#clip502)" style="stroke:#000000; stroke-linecap:butt; stroke-linejoin:round; stroke-width:2; stroke-opacity:0.1; fill:none" points="
  1768.39,1487.47 1768.39,47.2441 
  "/>
<polyline clip-path="url(#clip502)" style="stroke:#000000; stroke-linecap:butt; stroke-linejoin:round; stroke-width:2; stroke-opacity:0.1; fill:none" points="
  2290.15,1487.47 2290.15,47.2441 
  "/>
<polyline clip-path="url(#clip500)" style="stroke:#000000; stroke-linecap:butt; stroke-linejoin:round; stroke-width:4; stroke-opacity:1; fill:none" points="
  140.517,1487.47 2352.76,1487.47 
  "/>
<polyline clip-path="url(#clip500)" style="stroke:#000000; stroke-linecap:butt; stroke-linejoin:round; stroke-width:4; stroke-opacity:1; fill:none" points="
  203.127,1487.47 203.127,1468.58 
  "/>
<polyline clip-path="url(#clip500)" style="stroke:#000000; stroke-linecap:butt; stroke-linejoin:round; stroke-width:4; stroke-opacity:1; fill:none" points="
  724.882,1487.47 724.882,1468.58 
  "/>
<polyline clip-path="url(#clip500)" style="stroke:#000000; stroke-linecap:butt; stroke-linejoin:round; stroke-width:4; stroke-opacity:1; fill:none" points="
  1246.64,1487.47 1246.64,1468.58 
  "/>
<polyline clip-path="url(#clip500)" style="stroke:#000000; stroke-linecap:butt; stroke-linejoin:round; stroke-width:4; stroke-opacity:1; fill:none" points="
  1768.39,1487.47 1768.39,1468.58 
  "/>
<polyline clip-path="url(#clip500)" style="stroke:#000000; stroke-linecap:butt; stroke-linejoin:round; stroke-width:4; stroke-opacity:1; fill:none" points="
  2290.15,1487.47 2290.15,1468.58 
  "/>
<g clip-path="url(#clip500)">
<text style="fill:#000000; fill-opacity:1; font-family:Arial,Helvetica Neue,Helvetica,sans-serif; font-size:48px; text-anchor:middle;" transform="rotate(0, 203.127, 1549.32)" x="203.127" y="1549.32">0.00</text>
</g>
<g clip-path="url(#clip500)">
<text style="fill:#000000; fill-opacity:1; font-family:Arial,Helvetica Neue,Helvetica,sans-serif; font-size:48px; text-anchor:middle;" transform="rotate(0, 724.882, 1549.32)" x="724.882" y="1549.32">0.25</text>
</g>
<g clip-path="url(#clip500)">
<text style="fill:#000000; fill-opacity:1; font-family:Arial,Helvetica Neue,Helvetica,sans-serif; font-size:48px; text-anchor:middle;" transform="rotate(0, 1246.64, 1549.32)" x="1246.64" y="1549.32">0.50</text>
</g>
<g clip-path="url(#clip500)">
<text style="fill:#000000; fill-opacity:1; font-family:Arial,Helvetica Neue,Helvetica,sans-serif; font-size:48px; text-anchor:middle;" transform="rotate(0, 1768.39, 1549.32)" x="1768.39" y="1549.32">0.75</text>
</g>
<g clip-path="url(#clip500)">
<text style="fill:#000000; fill-opacity:1; font-family:Arial,Helvetica Neue,Helvetica,sans-serif; font-size:48px; text-anchor:middle;" transform="rotate(0, 2290.15, 1549.32)" x="2290.15" y="1549.32">1.00</text>
</g>
<polyline clip-path="url(#clip502)" style="stroke:#000000; stroke-linecap:butt; stroke-linejoin:round; stroke-width:2; stroke-opacity:0.1; fill:none" points="
  140.517,1446.71 2352.76,1446.71 
  "/>
<polyline clip-path="url(#clip502)" style="stroke:#000000; stroke-linecap:butt; stroke-linejoin:round; stroke-width:2; stroke-opacity:0.1; fill:none" points="
  140.517,1101.45 2352.76,1101.45 
  "/>
<polyline clip-path="url(#clip502)" style="stroke:#000000; stroke-linecap:butt; stroke-linejoin:round; stroke-width:2; stroke-opacity:0.1; fill:none" points="
  140.517,756.183 2352.76,756.183 
  "/>
<polyline clip-path="url(#clip502)" style="stroke:#000000; stroke-linecap:butt; stroke-linejoin:round; stroke-width:2; stroke-opacity:0.1; fill:none" points="
  140.517,410.918 2352.76,410.918 
  "/>
<polyline clip-path="url(#clip502)" style="stroke:#000000; stroke-linecap:butt; stroke-linejoin:round; stroke-width:2; stroke-opacity:0.1; fill:none" points="
  140.517,65.6533 2352.76,65.6533 
  "/>
<polyline clip-path="url(#clip500)" style="stroke:#000000; stroke-linecap:butt; stroke-linejoin:round; stroke-width:4; stroke-opacity:1; fill:none" points="
  140.517,1487.47 140.517,47.2441 
  "/>
<polyline clip-path="url(#clip500)" style="stroke:#000000; stroke-linecap:butt; stroke-linejoin:round; stroke-width:4; stroke-opacity:1; fill:none" points="
  140.517,1446.71 159.414,1446.71 
  "/>
<polyline clip-path="url(#clip500)" style="stroke:#000000; stroke-linecap:butt; stroke-linejoin:round; stroke-width:4; stroke-opacity:1; fill:none" points="
  140.517,1101.45 159.414,1101.45 
  "/>
<polyline clip-path="url(#clip500)" style="stroke:#000000; stroke-linecap:butt; stroke-linejoin:round; stroke-width:4; stroke-opacity:1; fill:none" points="
  140.517,756.183 159.414,756.183 
  "/>
<polyline clip-path="url(#clip500)" style="stroke:#000000; stroke-linecap:butt; stroke-linejoin:round; stroke-width:4; stroke-opacity:1; fill:none" points="
  140.517,410.918 159.414,410.918 
  "/>
<polyline clip-path="url(#clip500)" style="stroke:#000000; stroke-linecap:butt; stroke-linejoin:round; stroke-width:4; stroke-opacity:1; fill:none" points="
  140.517,65.6533 159.414,65.6533 
  "/>
<g clip-path="url(#clip500)">
<text style="fill:#000000; fill-opacity:1; font-family:Arial,Helvetica Neue,Helvetica,sans-serif; font-size:48px; text-anchor:middle;" transform="rotate(0, 77.7545, 1464.21)" x="77.7545" y="1464.21">−1</text>
</g>
<g clip-path="url(#clip500)">
<text style="fill:#000000; fill-opacity:1; font-family:Arial,Helvetica Neue,Helvetica,sans-serif; font-size:48px; text-anchor:middle;" transform="rotate(0, 91.1356, 1118.95)" x="91.1356" y="1118.95">0</text>
</g>
<g clip-path="url(#clip500)">
<text style="fill:#000000; fill-opacity:1; font-family:Arial,Helvetica Neue,Helvetica,sans-serif; font-size:48px; text-anchor:middle;" transform="rotate(0, 91.1356, 773.683)" x="91.1356" y="773.683">1</text>
</g>
<g clip-path="url(#clip500)">
<text style="fill:#000000; fill-opacity:1; font-family:Arial,Helvetica Neue,Helvetica,sans-serif; font-size:48px; text-anchor:middle;" transform="rotate(0, 91.1356, 428.418)" x="91.1356" y="428.418">2</text>
</g>
<g clip-path="url(#clip500)">
<text style="fill:#000000; fill-opacity:1; font-family:Arial,Helvetica Neue,Helvetica,sans-serif; font-size:48px; text-anchor:middle;" transform="rotate(0, 91.1356, 83.1533)" x="91.1356" y="83.1533">3</text>
</g>
<polyline clip-path="url(#clip502)" style="stroke:#009af9; stroke-linecap:butt; stroke-linejoin:round; stroke-width:8; stroke-opacity:1; fill:none" points="
  203.127,756.183 213.562,745.953 223.998,735.724 234.433,725.5 244.868,715.282 255.303,705.073 265.738,694.875 276.173,684.69 286.608,674.519 297.043,664.366 
  307.478,654.233 317.913,644.121 328.348,634.033 338.784,623.97 349.219,613.936 359.654,603.932 370.089,593.96 380.524,584.023 390.959,574.122 401.394,564.26 
  411.829,554.439 422.264,544.661 432.699,534.928 443.134,525.243 453.57,515.607 464.005,506.023 474.44,496.493 484.875,487.019 495.31,477.602 505.745,468.246 
  516.18,458.953 526.615,449.724 537.05,440.561 547.485,431.467 557.92,422.444 568.355,413.495 578.791,404.62 589.226,395.822 599.661,387.104 610.096,378.468 
  620.531,369.915 630.966,361.448 641.401,353.068 651.836,344.779 662.271,336.582 672.706,328.478 683.141,320.472 693.577,312.563 704.012,304.755 714.447,297.05 
  724.882,289.449 735.317,281.955 745.752,274.57 756.187,267.296 766.622,260.135 777.057,253.089 787.492,246.16 797.927,239.351 808.363,232.663 818.798,226.098 
  829.233,219.659 839.668,213.347 850.103,207.165 860.538,201.115 870.973,195.198 881.408,189.417 891.843,183.774 902.278,178.27 912.713,172.909 923.149,167.691 
  933.584,162.62 944.019,157.696 954.454,152.923 964.889,148.301 975.324,143.834 985.759,139.523 996.194,135.369 1006.63,131.376 1017.06,127.545 1027.5,123.878 
  1037.93,120.377 1048.37,117.044 1058.8,113.881 1069.24,110.89 1079.67,108.073 1090.11,105.433 1100.55,102.97 1110.98,100.687 1121.42,98.5856 1131.85,96.6684 
  1142.29,94.9369 1152.72,93.3931 1163.16,92.039 1173.59,90.8765 1184.03,89.9075 1194.46,89.134 1204.9,88.5578 1215.33,88.181 1225.77,88.0053 1236.2,88.0328 
  1246.64,88.2653 1257.07,88.7047 1267.51,89.3529 1277.94,90.2118 1288.38,91.2832 1298.81,92.5691 1309.25,94.0714 1319.68,95.7918 1330.12,97.7322 1340.55,99.8945 
  1350.99,102.281 1361.42,104.892 1371.86,107.731 1382.29,110.8 1392.73,114.099 1403.16,117.631 1413.6,121.398 1424.03,125.402 1434.47,129.644 1444.9,134.126 
  1455.34,138.849 1465.77,143.817 1476.21,149.03 1486.64,154.49 1497.08,160.199 1507.51,166.159 1517.95,172.372 1528.38,178.839 1538.82,185.562 1549.25,192.542 
  1559.69,199.782 1570.12,207.283 1580.56,215.047 1590.99,223.076 1601.43,231.371 1611.86,239.934 1622.3,248.767 1632.73,257.871 1643.17,267.248 1653.6,276.9 
  1664.04,286.828 1674.48,297.034 1684.91,307.52 1695.35,318.288 1705.78,329.338 1716.22,340.673 1726.65,352.294 1737.09,364.202 1747.52,376.401 1757.96,388.89 
  1768.39,401.672 1778.83,414.748 1789.26,428.119 1799.7,441.789 1810.13,455.757 1820.57,470.025 1831,484.595 1841.44,499.469 1851.87,514.648 1862.31,530.134 
  1872.74,545.927 1883.18,562.031 1893.61,578.445 1904.05,595.172 1914.48,612.213 1924.92,629.569 1935.35,647.243 1945.79,665.235 1956.22,683.547 1966.66,702.18 
  1977.09,721.137 1987.53,740.417 1997.96,760.023 2008.4,779.956 2018.83,800.218 2029.27,820.809 2039.7,841.732 2050.14,862.987 2060.57,884.577 2071.01,906.501 
  2081.44,928.763 2091.88,951.362 2102.31,974.301 2112.75,997.581 2123.18,1021.2 2133.62,1045.17 2144.05,1069.48 2154.49,1094.13 2164.92,1119.14 2175.36,1144.49 
  2185.79,1170.19 2196.23,1196.24 2206.66,1222.65 2217.1,1249.4 2227.53,1276.52 2237.97,1303.99 2248.41,1331.81 2258.84,1360 2269.28,1388.54 2279.71,1417.45 
  2290.15,1446.71 
  "/>
</svg>
