<?xml version="1.0" encoding="utf-8"?>
<svg xmlns="http://www.w3.org/2000/svg" xmlns:xlink="http://www.w3.org/1999/xlink" width="600" height="400" viewBox="0 0 2400 1600">
<defs>
  <clipPath id="clip640">
    <rect x="0" y="0" width="2400" height="1600"/>
  </clipPath>
</defs>
<path clip-path="url(#clip640)" d="
M0 1600 L2400 1600 L2400 0 L0 0  Z
  " fill="#ffffff" fill-rule="evenodd" fill-opacity="1"/>
<defs>
  <clipPath id="clip641">
    <rect x="480" y="0" width="1681" height="1600"/>
  </clipPath>
</defs>
<path clip-path="url(#clip640)" d="
M207.423 1487.47 L2352.76 1487.47 L2352.76 47.2441 L207.423 47.2441  Z
  " fill="#ffffff" fill-rule="evenodd" fill-opacity="1"/>
<defs>
  <clipPath id="clip642">
    <rect x="207" y="47" width="2146" height="1441"/>
  </clipPath>
</defs>
<polyline clip-path="url(#clip642)" style="stroke:#000000; stroke-linecap:butt; stroke-linejoin:round; stroke-width:2; stroke-opacity:0.1; fill:none" points="
  268.14,1487.47 268.14,47.2441 
  "/>
<polyline clip-path="url(#clip642)" style="stroke:#000000; stroke-linecap:butt; stroke-linejoin:round; stroke-width:2; stroke-opacity:0.1; fill:none" points="
  774.114,1487.47 774.114,47.2441 
  "/>
<polyline clip-path="url(#clip642)" style="stroke:#000000; stroke-linecap:butt; stroke-linejoin:round; stroke-width:2; stroke-opacity:0.1; fill:none" points="
  1280.09,1487.47 1280.09,47.2441 
  "/>
<polyline clip-path="url(#clip642)" style="stroke:#000000; stroke-linecap:butt; stroke-linejoin:round; stroke-width:2; stroke-opacity:0.1; fill:none" points="
  1786.06,1487.47 1786.06,47.2441 
  "/>
<polyline clip-path="url(#clip642)" style="stroke:#000000; stroke-linecap:butt; stroke-linejoin:round; stroke-width:2; stroke-opacity:0.1; fill:none" points="
  2292.04,1487.47 2292.04,47.2441 
  "/>
<polyline clip-path="url(#clip640)" style="stroke:#000000; stroke-linecap:butt; stroke-linejoin:round; stroke-width:4; stroke-opacity:1; fill:none" points="
  207.423,1487.47 2352.76,1487.47 
  "/>
<polyline clip-path="url(#clip640)" style="stroke:#000000; stroke-linecap:butt; stroke-linejoin:round; stroke-width:4; stroke-opacity:1; fill:none" points="
  268.14,1487.47 268.14,1468.58 
  "/>
<polyline clip-path="url(#clip640)" style="stroke:#000000; stroke-linecap:butt; stroke-linejoin:round; stroke-width:4; stroke-opacity:1; fill:none" points="
  774.114,1487.47 774.114,1468.58 
  "/>
<polyline clip-path="url(#clip640)" style="stroke:#000000; stroke-linecap:butt; stroke-linejoin:round; stroke-width:4; stroke-opacity:1; fill:none" points="
  1280.09,1487.47 1280.09,1468.58 
  "/>
<polyline clip-path="url(#clip640)" style="stroke:#000000; stroke-linecap:butt; stroke-linejoin:round; stroke-width:4; stroke-opacity:1; fill:none" points="
  1786.06,1487.47 1786.06,1468.58 
  "/>
<polyline clip-path="url(#clip640)" style="stroke:#000000; stroke-linecap:butt; stroke-linejoin:round; stroke-width:4; stroke-opacity:1; fill:none" points="
  2292.04,1487.47 2292.04,1468.58 
  "/>
<g clip-path="url(#clip640)">
<text style="fill:#000000; fill-opacity:1; font-family:Arial,Helvetica Neue,Helvetica,sans-serif; font-size:48px; text-anchor:middle;" transform="rotate(0, 268.14, 1549.32)" x="268.14" y="1549.32">0.00</text>
</g>
<g clip-path="url(#clip640)">
<text style="fill:#000000; fill-opacity:1; font-family:Arial,Helvetica Neue,Helvetica,sans-serif; font-size:48px; text-anchor:middle;" transform="rotate(0, 774.114, 1549.32)" x="774.114" y="1549.32">0.25</text>
</g>
<g clip-path="url(#clip640)">
<text style="fill:#000000; fill-opacity:1; font-family:Arial,Helvetica Neue,Helvetica,sans-serif; font-size:48px; text-anchor:middle;" transform="rotate(0, 1280.09, 1549.32)" x="1280.09" y="1549.32">0.50</text>
</g>
<g clip-path="url(#clip640)">
<text style="fill:#000000; fill-opacity:1; font-family:Arial,Helvetica Neue,Helvetica,sans-serif; font-size:48px; text-anchor:middle;" transform="rotate(0, 1786.06, 1549.32)" x="1786.06" y="1549.32">0.75</text>
</g>
<g clip-path="url(#clip640)">
<text style="fill:#000000; fill-opacity:1; font-family:Arial,Helvetica Neue,Helvetica,sans-serif; font-size:48px; text-anchor:middle;" transform="rotate(0, 2292.04, 1549.32)" x="2292.04" y="1549.32">1.00</text>
</g>
<polyline clip-path="url(#clip642)" style="stroke:#000000; stroke-linecap:butt; stroke-linejoin:round; stroke-width:2; stroke-opacity:0.1; fill:none" points="
  207.423,1446.71 2352.76,1446.71 
  "/>
<polyline clip-path="url(#clip642)" style="stroke:#000000; stroke-linecap:butt; stroke-linejoin:round; stroke-width:2; stroke-opacity:0.1; fill:none" points="
  207.423,1107.04 2352.76,1107.04 
  "/>
<polyline clip-path="url(#clip642)" style="stroke:#000000; stroke-linecap:butt; stroke-linejoin:round; stroke-width:2; stroke-opacity:0.1; fill:none" points="
  207.423,767.359 2352.76,767.359 
  "/>
<polyline clip-path="url(#clip642)" style="stroke:#000000; stroke-linecap:butt; stroke-linejoin:round; stroke-width:2; stroke-opacity:0.1; fill:none" points="
  207.423,427.682 2352.76,427.682 
  "/>
<polyline clip-path="url(#clip642)" style="stroke:#000000; stroke-linecap:butt; stroke-linejoin:round; stroke-width:2; stroke-opacity:0.1; fill:none" points="
  207.423,88.0053 2352.76,88.0053 
  "/>
<polyline clip-path="url(#clip640)" style="stroke:#000000; stroke-linecap:butt; stroke-linejoin:round; stroke-width:4; stroke-opacity:1; fill:none" points="
  207.423,1487.47 207.423,47.2441 
  "/>
<polyline clip-path="url(#clip640)" style="stroke:#000000; stroke-linecap:butt; stroke-linejoin:round; stroke-width:4; stroke-opacity:1; fill:none" points="
  207.423,1446.71 226.32,1446.71 
  "/>
<polyline clip-path="url(#clip640)" style="stroke:#000000; stroke-linecap:butt; stroke-linejoin:round; stroke-width:4; stroke-opacity:1; fill:none" points="
  207.423,1107.04 226.32,1107.04 
  "/>
<polyline clip-path="url(#clip640)" style="stroke:#000000; stroke-linecap:butt; stroke-linejoin:round; stroke-width:4; stroke-opacity:1; fill:none" points="
  207.423,767.359 226.32,767.359 
  "/>
<polyline clip-path="url(#clip640)" style="stroke:#000000; stroke-linecap:butt; stroke-linejoin:round; stroke-width:4; stroke-opacity:1; fill:none" points="
  207.423,427.682 226.32,427.682 
  "/>
<polyline clip-path="url(#clip640)" style="stroke:#000000; stroke-linecap:butt; stroke-linejoin:round; stroke-width:4; stroke-opacity:1; fill:none" points="
  207.423,88.0053 226.32,88.0053 
  "/>
<g clip-path="url(#clip640)">
<text style="fill:#000000; fill-opacity:1; font-family:Arial,Helvetica Neue,Helvetica,sans-serif; font-size:48px; text-anchor:middle;" transform="rotate(0, 111.207, 1464.21)" x="111.207" y="1464.21">−1.00</text>
</g>
<g clip-path="url(#clip640)">
<text style="fill:#000000; fill-opacity:1; font-family:Arial,Helvetica Neue,Helvetica,sans-serif; font-size:48px; text-anchor:middle;" transform="rotate(0, 111.207, 1124.54)" x="111.207" y="1124.54">−0.75</text>
</g>
<g clip-path="url(#clip640)">
<text style="fill:#000000; fill-opacity:1; font-family:Arial,Helvetica Neue,Helvetica,sans-serif; font-size:48px; text-anchor:middle;" transform="rotate(0, 111.207, 784.859)" x="111.207" y="784.859">−0.50</text>
</g>
<g clip-path="url(#clip640)">
<text style="fill:#000000; fill-opacity:1; font-family:Arial,Helvetica Neue,Helvetica,sans-serif; font-size:48px; text-anchor:middle;" transform="rotate(0, 111.207, 445.182)" x="111.207" y="445.182">−0.25</text>
</g>
<g clip-path="url(#clip640)">
<text style="fill:#000000; fill-opacity:1; font-family:Arial,Helvetica Neue,Helvetica,sans-serif; font-size:48px; text-anchor:middle;" transform="rotate(0, 124.589, 105.505)" x="124.589" y="105.505">0.00</text>
</g>
<polyline clip-path="url(#clip642)" style="stroke:#009af9; stroke-linecap:butt; stroke-linejoin:round; stroke-width:8; stroke-opacity:1; fill:none" points="
  268.14,88.0053 285.005,102.924 301.871,117.841 318.737,132.753 335.603,147.658 352.469,162.553 369.335,177.437 386.2,192.307 403.066,207.16 419.932,221.994 
  436.798,236.807 453.664,251.597 470.53,266.362 487.395,281.098 504.261,295.805 521.127,310.479 537.993,325.118 554.859,339.721 571.725,354.285 588.59,368.808 
  605.456,383.287 622.322,397.722 639.188,412.109 656.054,426.447 672.919,440.733 689.785,454.966 706.651,469.144 723.517,483.265 740.383,497.327 757.249,511.328 
  774.114,525.267 790.98,539.141 807.846,552.949 824.712,566.69 841.578,580.361 858.444,593.961 875.309,607.489 892.175,620.943 909.041,634.322 925.907,647.624 
  942.773,660.848 959.639,673.992 976.504,687.056 993.37,700.038 1010.24,712.937 1027.1,725.752 1043.97,738.481 1060.83,751.125 1077.7,763.681 1094.57,776.15 
  1111.43,788.53 1128.3,800.82 1145.16,813.02 1162.03,825.129 1178.89,837.147 1195.76,849.072 1212.63,860.905 1229.49,872.645 1246.36,884.292 1263.22,895.845 
  1280.09,907.304 1296.96,918.669 1313.82,929.939 1330.69,941.116 1347.55,952.198 1364.42,963.185 1381.28,974.079 1398.15,984.878 1415.02,995.584 1431.88,1006.2 
  1448.75,1016.71 1465.61,1027.14 1482.48,1037.47 1499.35,1047.72 1516.21,1057.87 1533.08,1067.93 1549.94,1077.89 1566.81,1087.78 1583.67,1097.57 1600.54,1107.27 
  1617.41,1116.89 1634.27,1126.42 1651.14,1135.87 1668,1145.23 1684.87,1154.51 1701.73,1163.71 1718.6,1172.83 1735.47,1181.87 1752.33,1190.83 1769.2,1199.72 
  1786.06,1208.53 1802.93,1217.26 1819.8,1225.93 1836.66,1234.53 1853.53,1243.05 1870.39,1251.51 1887.26,1259.91 1904.12,1268.24 1920.99,1276.5 1937.86,1284.71 
  1954.72,1292.86 1971.59,1300.96 1988.45,1308.99 2005.32,1316.98 2022.19,1324.92 2039.05,1332.8 2055.92,1340.64 2072.78,1348.44 2089.65,1356.19 2106.51,1363.9 
  2123.38,1371.58 2140.25,1379.22 2157.11,1386.82 2173.98,1394.4 2190.84,1401.94 2207.71,1409.46 2224.58,1416.95 2241.44,1424.42 2258.31,1431.87 2275.17,1439.3 
  2292.04,1446.71 
  "/>
</svg>
