<?xml version="1.0" encoding="utf-8"?>
<svg xmlns="http://www.w3.org/2000/svg" xmlns:xlink="http://www.w3.org/1999/xlink" width="600" height="400" viewBox="0 0 2400 1600">
<defs>
  <clipPath id="clip450">
    <rect x="0" y="0" width="2400" height="1600"/>
  </clipPath>
</defs>
<path clip-path="url(#clip450)" d="
M0 1600 L2400 1600 L2400 0 L0 0  Z
  " fill="#ffffff" fill-rule="evenodd" fill-opacity="1"/>
<defs>
  <clipPath id="clip451">
    <rect x="480" y="0" width="1681" height="1600"/>
  </clipPath>
</defs>
<path clip-path="url(#clip450)" d="
M633.014 1423.18 L1931.07 1423.18 L1931.07 47.2441 L633.014 47.2441  Z
  " fill="#ffffff" fill-rule="evenodd" fill-opacity="1"/>
<defs>
  <clipPath id="clip452">
    <rect x="633" y="47" width="1299" height="1377"/>
  </clipPath>
</defs>
<polyline clip-path="url(#clip452)" style="stroke:#000000; stroke-linecap:round; stroke-linejoin:round; stroke-width:2; stroke-opacity:0.1; fill:none" points="
  662.266,1423.18 662.266,47.2441 
  "/>
<polyline clip-path="url(#clip452)" style="stroke:#000000; stroke-linecap:round; stroke-linejoin:round; stroke-width:2; stroke-opacity:0.1; fill:none" points="
  868.857,1423.18 868.857,47.2441 
  "/>
<polyline clip-path="url(#clip452)" style="stroke:#000000; stroke-linecap:round; stroke-linejoin:round; stroke-width:2; stroke-opacity:0.1; fill:none" points="
  1075.45,1423.18 1075.45,47.2441 
  "/>
<polyline clip-path="url(#clip452)" style="stroke:#000000; stroke-linecap:round; stroke-linejoin:round; stroke-width:2; stroke-opacity:0.1; fill:none" points="
  1282.04,1423.18 1282.04,47.2441 
  "/>
<polyline clip-path="url(#clip452)" style="stroke:#000000; stroke-linecap:round; stroke-linejoin:round; stroke-width:2; stroke-opacity:0.1; fill:none" points="
  1488.63,1423.18 1488.63,47.2441 
  "/>
<polyline clip-path="url(#clip452)" style="stroke:#000000; stroke-linecap:round; stroke-linejoin:round; stroke-width:2; stroke-opacity:0.1; fill:none" points="
  1695.22,1423.18 1695.22,47.2441 
  "/>
<polyline clip-path="url(#clip452)" style="stroke:#000000; stroke-linecap:round; stroke-linejoin:round; stroke-width:2; stroke-opacity:0.1; fill:none" points="
  1901.81,1423.18 1901.81,47.2441 
  "/>
<polyline clip-path="url(#clip450)" style="stroke:#000000; stroke-linecap:round; stroke-linejoin:round; stroke-width:4; stroke-opacity:1; fill:none" points="
  633.014,1423.18 1931.07,1423.18 
  "/>
<polyline clip-path="url(#clip450)" style="stroke:#000000; stroke-linecap:round; stroke-linejoin:round; stroke-width:4; stroke-opacity:1; fill:none" points="
  662.266,1423.18 662.266,1404.28 
  "/>
<polyline clip-path="url(#clip450)" style="stroke:#000000; stroke-linecap:round; stroke-linejoin:round; stroke-width:4; stroke-opacity:1; fill:none" points="
  868.857,1423.18 868.857,1404.28 
  "/>
<polyline clip-path="url(#clip450)" style="stroke:#000000; stroke-linecap:round; stroke-linejoin:round; stroke-width:4; stroke-opacity:1; fill:none" points="
  1075.45,1423.18 1075.45,1404.28 
  "/>
<polyline clip-path="url(#clip450)" style="stroke:#000000; stroke-linecap:round; stroke-linejoin:round; stroke-width:4; stroke-opacity:1; fill:none" points="
  1282.04,1423.18 1282.04,1404.28 
  "/>
<polyline clip-path="url(#clip450)" style="stroke:#000000; stroke-linecap:round; stroke-linejoin:round; stroke-width:4; stroke-opacity:1; fill:none" points="
  1488.63,1423.18 1488.63,1404.28 
  "/>
<polyline clip-path="url(#clip450)" style="stroke:#000000; stroke-linecap:round; stroke-linejoin:round; stroke-width:4; stroke-opacity:1; fill:none" points="
  1695.22,1423.18 1695.22,1404.28 
  "/>
<polyline clip-path="url(#clip450)" style="stroke:#000000; stroke-linecap:round; stroke-linejoin:round; stroke-width:4; stroke-opacity:1; fill:none" points="
  1901.81,1423.18 1901.81,1404.28 
  "/>
<path clip-path="url(#clip450)" d="M631.734 1468.75 L661.409 1468.75 L661.409 1472.69 L631.734 1472.69 L631.734 1468.75 Z" fill="#000000" fill-rule="evenodd" fill-opacity="1" /><path clip-path="url(#clip450)" d="M685.668 1466.95 Q689.025 1467.66 690.9 1469.93 Q692.798 1472.2 692.798 1475.53 Q692.798 1480.65 689.28 1483.45 Q685.761 1486.25 679.28 1486.25 Q677.104 1486.25 674.789 1485.81 Q672.497 1485.39 670.044 1484.54 L670.044 1480.02 Q671.988 1481.16 674.303 1481.74 Q676.618 1482.32 679.141 1482.32 Q683.539 1482.32 685.831 1480.58 Q688.145 1478.84 688.145 1475.53 Q688.145 1472.48 685.993 1470.77 Q683.863 1469.03 680.043 1469.03 L676.016 1469.03 L676.016 1465.19 L680.229 1465.19 Q683.678 1465.19 685.506 1463.82 Q687.335 1462.43 687.335 1459.84 Q687.335 1457.18 685.437 1455.77 Q683.562 1454.33 680.043 1454.33 Q678.122 1454.33 675.923 1454.75 Q673.724 1455.16 671.085 1456.04 L671.085 1451.88 Q673.747 1451.14 676.062 1450.77 Q678.4 1450.39 680.46 1450.39 Q685.784 1450.39 688.886 1452.83 Q691.988 1455.23 691.988 1459.35 Q691.988 1462.22 690.344 1464.21 Q688.701 1466.18 685.668 1466.95 Z" fill="#000000" fill-rule="evenodd" fill-opacity="1" /><path clip-path="url(#clip450)" d="M838.8 1468.75 L868.475 1468.75 L868.475 1472.69 L838.8 1472.69 L838.8 1468.75 Z" fill="#000000" fill-rule="evenodd" fill-opacity="1" /><path clip-path="url(#clip450)" d="M882.596 1481.64 L898.915 1481.64 L898.915 1485.58 L876.971 1485.58 L876.971 1481.64 Q879.633 1478.89 884.216 1474.26 Q888.822 1469.61 890.003 1468.27 Q892.248 1465.74 893.128 1464.01 Q894.031 1462.25 894.031 1460.56 Q894.031 1457.8 892.086 1456.07 Q890.165 1454.33 887.063 1454.33 Q884.864 1454.33 882.41 1455.09 Q879.98 1455.86 877.202 1457.41 L877.202 1452.69 Q880.026 1451.55 882.48 1450.97 Q884.934 1450.39 886.971 1450.39 Q892.341 1450.39 895.535 1453.08 Q898.73 1455.77 898.73 1460.26 Q898.73 1462.39 897.92 1464.31 Q897.133 1466.2 895.026 1468.8 Q894.447 1469.47 891.346 1472.69 Q888.244 1475.88 882.596 1481.64 Z" fill="#000000" fill-rule="evenodd" fill-opacity="1" /><path clip-path="url(#clip450)" d="M1045.21 1468.75 L1074.88 1468.75 L1074.88 1472.69 L1045.21 1472.69 L1045.21 1468.75 Z" fill="#000000" fill-rule="evenodd" fill-opacity="1" /><path clip-path="url(#clip450)" d="M1085.78 1481.64 L1093.42 1481.64 L1093.42 1455.28 L1085.11 1456.95 L1085.11 1452.69 L1093.38 1451.02 L1098.05 1451.02 L1098.05 1481.64 L1105.69 1481.64 L1105.69 1485.58 L1085.78 1485.58 L1085.78 1481.64 Z" fill="#000000" fill-rule="evenodd" fill-opacity="1" /><path clip-path="url(#clip450)" d="M1282.04 1454.1 Q1278.43 1454.1 1276.6 1457.66 Q1274.79 1461.2 1274.79 1468.33 Q1274.79 1475.44 1276.6 1479.01 Q1278.43 1482.55 1282.04 1482.55 Q1285.67 1482.55 1287.48 1479.01 Q1289.31 1475.44 1289.31 1468.33 Q1289.31 1461.2 1287.48 1457.66 Q1285.67 1454.1 1282.04 1454.1 M1282.04 1450.39 Q1287.85 1450.39 1290.91 1455 Q1293.98 1459.58 1293.98 1468.33 Q1293.98 1477.06 1290.91 1481.67 Q1287.85 1486.25 1282.04 1486.25 Q1276.23 1486.25 1273.15 1481.67 Q1270.1 1477.06 1270.1 1468.33 Q1270.1 1459.58 1273.15 1455 Q1276.23 1450.39 1282.04 1450.39 Z" fill="#000000" fill-rule="evenodd" fill-opacity="1" /><path clip-path="url(#clip450)" d="M1479.01 1481.64 L1486.65 1481.64 L1486.65 1455.28 L1478.34 1456.95 L1478.34 1452.69 L1486.61 1451.02 L1491.28 1451.02 L1491.28 1481.64 L1498.92 1481.64 L1498.92 1485.58 L1479.01 1485.58 L1479.01 1481.64 Z" fill="#000000" fill-rule="evenodd" fill-opacity="1" /><path clip-path="url(#clip450)" d="M1689.88 1481.64 L1706.2 1481.64 L1706.2 1485.58 L1684.25 1485.58 L1684.25 1481.64 Q1686.91 1478.89 1691.5 1474.26 Q1696.1 1469.61 1697.28 1468.27 Q1699.53 1465.74 1700.41 1464.01 Q1701.31 1462.25 1701.31 1460.56 Q1701.31 1457.8 1699.37 1456.07 Q1697.45 1454.33 1694.34 1454.33 Q1692.14 1454.33 1689.69 1455.09 Q1687.26 1455.86 1684.48 1457.41 L1684.48 1452.69 Q1687.31 1451.55 1689.76 1450.97 Q1692.21 1450.39 1694.25 1450.39 Q1699.62 1450.39 1702.82 1453.08 Q1706.01 1455.77 1706.01 1460.26 Q1706.01 1462.39 1705.2 1464.31 Q1704.41 1466.2 1702.31 1468.8 Q1701.73 1469.47 1698.63 1472.69 Q1695.52 1475.88 1689.88 1481.64 Z" fill="#000000" fill-rule="evenodd" fill-opacity="1" /><path clip-path="url(#clip450)" d="M1906.06 1466.95 Q1909.42 1467.66 1911.29 1469.93 Q1913.19 1472.2 1913.19 1475.53 Q1913.19 1480.65 1909.67 1483.45 Q1906.15 1486.25 1899.67 1486.25 Q1897.5 1486.25 1895.18 1485.81 Q1892.89 1485.39 1890.44 1484.54 L1890.44 1480.02 Q1892.38 1481.16 1894.7 1481.74 Q1897.01 1482.32 1899.53 1482.32 Q1903.93 1482.32 1906.22 1480.58 Q1908.54 1478.84 1908.54 1475.53 Q1908.54 1472.48 1906.39 1470.77 Q1904.26 1469.03 1900.44 1469.03 L1896.41 1469.03 L1896.41 1465.19 L1900.62 1465.19 Q1904.07 1465.19 1905.9 1463.82 Q1907.73 1462.43 1907.73 1459.84 Q1907.73 1457.18 1905.83 1455.77 Q1903.96 1454.33 1900.44 1454.33 Q1898.52 1454.33 1896.32 1454.75 Q1894.12 1455.16 1891.48 1456.04 L1891.48 1451.88 Q1894.14 1451.14 1896.46 1450.77 Q1898.79 1450.39 1900.85 1450.39 Q1906.18 1450.39 1909.28 1452.83 Q1912.38 1455.23 1912.38 1459.35 Q1912.38 1462.22 1910.74 1464.21 Q1909.09 1466.18 1906.06 1466.95 Z" fill="#000000" fill-rule="evenodd" fill-opacity="1" /><path clip-path="url(#clip450)" d="M1267.51 1564 Q1271.71 1564.03 1274.23 1566.42 Q1276.9 1568.94 1276.9 1572.75 Q1276.9 1576.41 1274.54 1578.96 Q1272 1581.73 1266.81 1581.73 Q1266.81 1579.34 1266.81 1576.92 Q1269.01 1577.08 1270.34 1575.68 Q1271.36 1574.57 1271.36 1573.39 Q1271.36 1571.7 1270.34 1570.3 Q1269.36 1568.97 1267.51 1568.97 Q1247.68 1568.97 1247.68 1555.06 Q1247.68 1545.51 1258.28 1542.71 Q1249.37 1541.56 1249.37 1533.29 Q1249.37 1527.02 1256.37 1524.41 L1249.75 1524.41 L1249.75 1518.52 L1274.86 1518.52 L1274.86 1524.41 Q1254.84 1524.41 1254.84 1533.67 Q1254.84 1539.75 1271.65 1540.03 L1271.65 1545.45 Q1253.51 1544.75 1253.57 1555.06 Q1253.6 1563.68 1267.51 1564 Z" fill="#000000" fill-rule="evenodd" fill-opacity="1" /><path clip-path="url(#clip450)" d="M1316.4 1546.53 L1316.4 1568.04 L1310.54 1568.04 L1310.54 1546.72 Q1310.54 1541.66 1308.57 1539.14 Q1306.6 1536.63 1302.65 1536.63 Q1297.91 1536.63 1295.17 1539.65 Q1292.43 1542.68 1292.43 1547.9 L1292.43 1568.04 L1286.54 1568.04 L1286.54 1518.52 L1292.43 1518.52 L1292.43 1537.93 Q1294.53 1534.72 1297.37 1533.13 Q1300.23 1531.54 1303.95 1531.54 Q1310.1 1531.54 1313.25 1535.36 Q1316.4 1539.14 1316.4 1546.53 Z" fill="#000000" fill-rule="evenodd" fill-opacity="1" /><polyline clip-path="url(#clip452)" style="stroke:#000000; stroke-linecap:round; stroke-linejoin:round; stroke-width:2; stroke-opacity:0.1; fill:none" points="
  633.014,1354.99 1931.07,1354.99 
  "/>
<polyline clip-path="url(#clip452)" style="stroke:#000000; stroke-linecap:round; stroke-linejoin:round; stroke-width:2; stroke-opacity:0.1; fill:none" points="
  633.014,1148.39 1931.07,1148.39 
  "/>
<polyline clip-path="url(#clip452)" style="stroke:#000000; stroke-linecap:round; stroke-linejoin:round; stroke-width:2; stroke-opacity:0.1; fill:none" points="
  633.014,941.803 1931.07,941.803 
  "/>
<polyline clip-path="url(#clip452)" style="stroke:#000000; stroke-linecap:round; stroke-linejoin:round; stroke-width:2; stroke-opacity:0.1; fill:none" points="
  633.014,735.212 1931.07,735.212 
  "/>
<polyline clip-path="url(#clip452)" style="stroke:#000000; stroke-linecap:round; stroke-linejoin:round; stroke-width:2; stroke-opacity:0.1; fill:none" points="
  633.014,528.62 1931.07,528.62 
  "/>
<polyline clip-path="url(#clip452)" style="stroke:#000000; stroke-linecap:round; stroke-linejoin:round; stroke-width:2; stroke-opacity:0.1; fill:none" points="
  633.014,322.029 1931.07,322.029 
  "/>
<polyline clip-path="url(#clip452)" style="stroke:#000000; stroke-linecap:round; stroke-linejoin:round; stroke-width:2; stroke-opacity:0.1; fill:none" points="
  633.014,115.438 1931.07,115.438 
  "/>
<polyline clip-path="url(#clip450)" style="stroke:#000000; stroke-linecap:round; stroke-linejoin:round; stroke-width:4; stroke-opacity:1; fill:none" points="
  633.014,1423.18 633.014,47.2441 
  "/>
<polyline clip-path="url(#clip450)" style="stroke:#000000; stroke-linecap:round; stroke-linejoin:round; stroke-width:4; stroke-opacity:1; fill:none" points="
  633.014,1354.99 644.469,1354.99 
  "/>
<polyline clip-path="url(#clip450)" style="stroke:#000000; stroke-linecap:round; stroke-linejoin:round; stroke-width:4; stroke-opacity:1; fill:none" points="
  633.014,1148.39 644.469,1148.39 
  "/>
<polyline clip-path="url(#clip450)" style="stroke:#000000; stroke-linecap:round; stroke-linejoin:round; stroke-width:4; stroke-opacity:1; fill:none" points="
  633.014,941.803 644.469,941.803 
  "/>
<polyline clip-path="url(#clip450)" style="stroke:#000000; stroke-linecap:round; stroke-linejoin:round; stroke-width:4; stroke-opacity:1; fill:none" points="
  633.014,735.212 644.469,735.212 
  "/>
<polyline clip-path="url(#clip450)" style="stroke:#000000; stroke-linecap:round; stroke-linejoin:round; stroke-width:4; stroke-opacity:1; fill:none" points="
  633.014,528.62 644.469,528.62 
  "/>
<polyline clip-path="url(#clip450)" style="stroke:#000000; stroke-linecap:round; stroke-linejoin:round; stroke-width:4; stroke-opacity:1; fill:none" points="
  633.014,322.029 644.469,322.029 
  "/>
<polyline clip-path="url(#clip450)" style="stroke:#000000; stroke-linecap:round; stroke-linejoin:round; stroke-width:4; stroke-opacity:1; fill:none" points="
  633.014,115.438 644.469,115.438 
  "/>
<path clip-path="url(#clip450)" d="M535.949 1355.44 L565.625 1355.44 L565.625 1359.37 L535.949 1359.37 L535.949 1355.44 Z" fill="#000000" fill-rule="evenodd" fill-opacity="1" /><path clip-path="url(#clip450)" d="M589.884 1353.63 Q593.241 1354.35 595.116 1356.62 Q597.014 1358.89 597.014 1362.22 Q597.014 1367.34 593.495 1370.14 Q589.977 1372.94 583.496 1372.94 Q581.32 1372.94 579.005 1372.5 Q576.713 1372.08 574.259 1371.22 L574.259 1366.71 Q576.204 1367.85 578.519 1368.42 Q580.834 1369 583.357 1369 Q587.755 1369 590.046 1367.27 Q592.361 1365.53 592.361 1362.22 Q592.361 1359.16 590.208 1357.45 Q588.079 1355.72 584.259 1355.72 L580.232 1355.72 L580.232 1351.87 L584.445 1351.87 Q587.894 1351.87 589.722 1350.51 Q591.551 1349.12 591.551 1346.53 Q591.551 1343.86 589.653 1342.45 Q587.778 1341.02 584.259 1341.02 Q582.338 1341.02 580.139 1341.43 Q577.94 1341.85 575.301 1342.73 L575.301 1338.56 Q577.963 1337.82 580.278 1337.45 Q582.616 1337.08 584.676 1337.08 Q590 1337.08 593.102 1339.51 Q596.204 1341.92 596.204 1346.04 Q596.204 1348.91 594.56 1350.9 Q592.917 1352.87 589.884 1353.63 Z" fill="#000000" fill-rule="evenodd" fill-opacity="1" /><path clip-path="url(#clip450)" d="M536.899 1148.85 L566.574 1148.85 L566.574 1152.78 L536.899 1152.78 L536.899 1148.85 Z" fill="#000000" fill-rule="evenodd" fill-opacity="1" /><path clip-path="url(#clip450)" d="M580.695 1161.74 L597.014 1161.74 L597.014 1165.67 L575.07 1165.67 L575.07 1161.74 Q577.732 1158.99 582.315 1154.36 Q586.921 1149.7 588.102 1148.36 Q590.347 1145.84 591.227 1144.1 Q592.13 1142.34 592.13 1140.65 Q592.13 1137.9 590.185 1136.16 Q588.264 1134.43 585.162 1134.43 Q582.963 1134.43 580.509 1135.19 Q578.079 1135.95 575.301 1137.5 L575.301 1132.78 Q578.125 1131.65 580.579 1131.07 Q583.033 1130.49 585.07 1130.49 Q590.44 1130.49 593.634 1133.18 Q596.829 1135.86 596.829 1140.35 Q596.829 1142.48 596.019 1144.4 Q595.232 1146.3 593.125 1148.89 Q592.546 1149.56 589.445 1152.78 Q586.343 1155.98 580.695 1161.74 Z" fill="#000000" fill-rule="evenodd" fill-opacity="1" /><path clip-path="url(#clip450)" d="M536.528 942.255 L566.204 942.255 L566.204 946.19 L536.528 946.19 L536.528 942.255 Z" fill="#000000" fill-rule="evenodd" fill-opacity="1" /><path clip-path="url(#clip450)" d="M577.107 955.148 L584.746 955.148 L584.746 928.783 L576.435 930.449 L576.435 926.19 L584.699 924.523 L589.375 924.523 L589.375 955.148 L597.014 955.148 L597.014 959.083 L577.107 959.083 L577.107 955.148 Z" fill="#000000" fill-rule="evenodd" fill-opacity="1" /><path clip-path="url(#clip450)" d="M585.07 721.011 Q581.459 721.011 579.63 724.575 Q577.824 728.117 577.824 735.247 Q577.824 742.353 579.63 745.918 Q581.459 749.46 585.07 749.46 Q588.704 749.46 590.509 745.918 Q592.338 742.353 592.338 735.247 Q592.338 728.117 590.509 724.575 Q588.704 721.011 585.07 721.011 M585.07 717.307 Q590.88 717.307 593.935 721.913 Q597.014 726.497 597.014 735.247 Q597.014 743.973 593.935 748.58 Q590.88 753.163 585.07 753.163 Q579.259 753.163 576.181 748.58 Q573.125 743.973 573.125 735.247 Q573.125 726.497 576.181 721.913 Q579.259 717.307 585.07 717.307 Z" fill="#000000" fill-rule="evenodd" fill-opacity="1" /><path clip-path="url(#clip450)" d="M577.107 541.965 L584.746 541.965 L584.746 515.6 L576.435 517.266 L576.435 513.007 L584.699 511.34 L589.375 511.34 L589.375 541.965 L597.014 541.965 L597.014 545.9 L577.107 545.9 L577.107 541.965 Z" fill="#000000" fill-rule="evenodd" fill-opacity="1" /><path clip-path="url(#clip450)" d="M580.695 335.374 L597.014 335.374 L597.014 339.309 L575.07 339.309 L575.07 335.374 Q577.732 332.619 582.315 327.99 Q586.921 323.337 588.102 321.994 Q590.347 319.471 591.227 317.735 Q592.13 315.976 592.13 314.286 Q592.13 311.531 590.185 309.795 Q588.264 308.059 585.162 308.059 Q582.963 308.059 580.509 308.823 Q578.079 309.587 575.301 311.138 L575.301 306.416 Q578.125 305.281 580.579 304.703 Q583.033 304.124 585.07 304.124 Q590.44 304.124 593.634 306.809 Q596.829 309.494 596.829 313.985 Q596.829 316.115 596.019 318.036 Q595.232 319.934 593.125 322.527 Q592.546 323.198 589.445 326.416 Q586.343 329.61 580.695 335.374 Z" fill="#000000" fill-rule="evenodd" fill-opacity="1" /><path clip-path="url(#clip450)" d="M589.884 114.083 Q593.241 114.801 595.116 117.069 Q597.014 119.338 597.014 122.671 Q597.014 127.787 593.495 130.588 Q589.977 133.389 583.496 133.389 Q581.32 133.389 579.005 132.949 Q576.713 132.532 574.259 131.676 L574.259 127.162 Q576.204 128.296 578.519 128.875 Q580.834 129.454 583.357 129.454 Q587.755 129.454 590.046 127.718 Q592.361 125.981 592.361 122.671 Q592.361 119.616 590.208 117.903 Q588.079 116.167 584.259 116.167 L580.232 116.167 L580.232 112.324 L584.445 112.324 Q587.894 112.324 589.722 110.958 Q591.551 109.569 591.551 106.977 Q591.551 104.315 589.653 102.903 Q587.778 101.468 584.259 101.468 Q582.338 101.468 580.139 101.884 Q577.94 102.301 575.301 103.181 L575.301 99.014 Q577.963 98.2732 580.278 97.9029 Q582.616 97.5325 584.676 97.5325 Q590 97.5325 593.102 99.9631 Q596.204 102.37 596.204 106.491 Q596.204 109.361 594.56 111.352 Q592.917 113.319 589.884 114.083 Z" fill="#000000" fill-rule="evenodd" fill-opacity="1" /><path clip-path="url(#clip450)" d="M455.456 865.948 L436.168 865.948 L436.168 860.091 L485.693 860.091 L485.693 865.948 L480.346 865.948 Q483.529 867.794 485.089 870.626 Q486.617 873.427 486.617 877.374 Q486.617 883.835 481.46 887.909 Q476.304 891.952 467.901 891.952 Q459.499 891.952 454.342 887.909 Q449.186 883.835 449.186 877.374 Q449.186 873.427 450.746 870.626 Q452.274 867.794 455.456 865.948 M467.901 885.904 Q474.363 885.904 478.055 883.262 Q481.715 880.589 481.715 875.942 Q481.715 871.295 478.055 868.621 Q474.363 865.948 467.901 865.948 Q461.44 865.948 457.78 868.621 Q454.088 871.295 454.088 875.942 Q454.088 880.589 457.78 883.262 Q461.44 885.904 467.901 885.904 Z" fill="#000000" fill-rule="evenodd" fill-opacity="1" /><path clip-path="url(#clip450)" d="M450.046 848.028 L450.046 842.172 L485.693 842.172 L485.693 848.028 L450.046 848.028 M436.168 848.028 L436.168 842.172 L443.584 842.172 L443.584 848.028 L436.168 848.028 Z" fill="#000000" fill-rule="evenodd" fill-opacity="1" /><path clip-path="url(#clip450)" d="M436.168 811.871 L441.038 811.871 L441.038 817.473 Q441.038 820.624 442.311 821.865 Q443.584 823.075 446.895 823.075 L450.046 823.075 L450.046 813.431 L454.597 813.431 L454.597 823.075 L485.693 823.075 L485.693 828.963 L454.597 828.963 L454.597 834.565 L450.046 834.565 L450.046 828.963 L447.563 828.963 Q441.611 828.963 438.906 826.194 Q436.168 823.425 436.168 817.409 L436.168 811.871 Z" fill="#000000" fill-rule="evenodd" fill-opacity="1" /><path clip-path="url(#clip450)" d="M436.168 788.923 L441.038 788.923 L441.038 794.524 Q441.038 797.675 442.311 798.917 Q443.584 800.126 446.895 800.126 L450.046 800.126 L450.046 790.482 L454.597 790.482 L454.597 800.126 L485.693 800.126 L485.693 806.015 L454.597 806.015 L454.597 811.616 L450.046 811.616 L450.046 806.015 L447.563 806.015 Q441.611 806.015 438.906 803.245 Q436.168 800.476 436.168 794.461 L436.168 788.923 Z" fill="#000000" fill-rule="evenodd" fill-opacity="1" /><path clip-path="url(#clip450)" d="M436.168 745.254 L441.038 745.254 L441.038 750.856 Q441.038 754.007 442.311 755.248 Q443.584 756.458 446.895 756.458 L450.046 756.458 L450.046 746.813 L454.597 746.813 L454.597 756.458 L485.693 756.458 L485.693 762.346 L454.597 762.346 L454.597 767.948 L450.046 767.948 L450.046 762.346 L447.563 762.346 Q441.611 762.346 438.906 759.577 Q436.168 756.808 436.168 750.792 L436.168 745.254 Z" fill="#000000" fill-rule="evenodd" fill-opacity="1" /><path clip-path="url(#clip450)" d="M467.774 724.152 Q467.774 731.249 469.397 733.987 Q471.021 736.724 474.935 736.724 Q478.055 736.724 479.901 734.687 Q481.715 732.618 481.715 729.085 Q481.715 724.215 478.277 721.287 Q474.808 718.327 469.079 718.327 L467.774 718.327 L467.774 724.152 M465.355 712.47 L485.693 712.47 L485.693 718.327 L480.283 718.327 Q483.529 720.332 485.089 723.324 Q486.617 726.316 486.617 730.645 Q486.617 736.119 483.561 739.366 Q480.474 742.58 475.317 742.58 Q469.302 742.58 466.246 738.57 Q463.191 734.528 463.191 726.539 L463.191 718.327 L462.618 718.327 Q458.576 718.327 456.379 721.001 Q454.151 723.642 454.151 728.448 Q454.151 731.504 454.883 734.4 Q455.616 737.297 457.08 739.97 L451.669 739.97 Q450.427 736.756 449.823 733.732 Q449.186 730.708 449.186 727.844 Q449.186 720.109 453.197 716.29 Q457.207 712.47 465.355 712.47 Z" fill="#000000" fill-rule="evenodd" fill-opacity="1" /><path clip-path="url(#clip450)" d="M451.414 674.754 L456.889 674.754 Q455.52 677.236 454.852 679.751 Q454.151 682.233 454.151 684.78 Q454.151 690.477 457.78 693.628 Q461.376 696.779 467.901 696.779 Q474.426 696.779 478.055 693.628 Q481.651 690.477 481.651 684.78 Q481.651 682.233 480.983 679.751 Q480.283 677.236 478.914 674.754 L484.325 674.754 Q485.471 677.204 486.044 679.846 Q486.617 682.456 486.617 685.416 Q486.617 693.469 481.556 698.211 Q476.495 702.954 467.901 702.954 Q459.18 702.954 454.183 698.179 Q449.186 693.373 449.186 685.034 Q449.186 682.329 449.759 679.751 Q450.3 677.173 451.414 674.754 Z" fill="#000000" fill-rule="evenodd" fill-opacity="1" /><path clip-path="url(#clip450)" d="M439.924 658.776 L450.046 658.776 L450.046 646.713 L454.597 646.713 L454.597 658.776 L473.949 658.776 Q478.309 658.776 479.551 657.598 Q480.792 656.389 480.792 652.728 L480.792 646.713 L485.693 646.713 L485.693 652.728 Q485.693 659.508 483.179 662.086 Q480.633 664.664 473.949 664.664 L454.597 664.664 L454.597 668.961 L450.046 668.961 L450.046 664.664 L439.924 664.664 L439.924 658.776 Z" fill="#000000" fill-rule="evenodd" fill-opacity="1" /><path clip-path="url(#clip450)" d="M454.151 625.197 Q454.151 629.907 457.844 632.645 Q461.504 635.382 467.901 635.382 Q474.299 635.382 477.991 632.676 Q481.651 629.939 481.651 625.197 Q481.651 620.518 477.959 617.781 Q474.267 615.043 467.901 615.043 Q461.567 615.043 457.875 617.781 Q454.151 620.518 454.151 625.197 M449.186 625.197 Q449.186 617.558 454.151 613.197 Q459.117 608.837 467.901 608.837 Q476.654 608.837 481.651 613.197 Q486.617 617.558 486.617 625.197 Q486.617 632.867 481.651 637.228 Q476.654 641.557 467.901 641.557 Q459.117 641.557 454.151 637.228 Q449.186 632.867 449.186 625.197 Z" fill="#000000" fill-rule="evenodd" fill-opacity="1" /><path clip-path="url(#clip450)" d="M455.52 578.472 Q454.947 579.459 454.693 580.637 Q454.406 581.783 454.406 583.183 Q454.406 588.148 457.653 590.822 Q460.867 593.464 466.915 593.464 L485.693 593.464 L485.693 599.352 L450.046 599.352 L450.046 593.464 L455.584 593.464 Q452.337 591.618 450.778 588.657 Q449.186 585.697 449.186 581.464 Q449.186 580.859 449.282 580.127 Q449.345 579.395 449.504 578.504 L455.52 578.472 Z" fill="#000000" fill-rule="evenodd" fill-opacity="1" /><polyline clip-path="url(#clip452)" style="stroke:#000000; stroke-linecap:round; stroke-linejoin:round; stroke-width:4; stroke-opacity:1; fill:none" points="
  633.014,1384.24 641.465,1375.79 719.607,1297.65 766.567,1250.69 806.271,1210.98 849.401,1167.85 889.163,1128.09 931.792,1085.46 981.182,1036.07 1025.07,992.179 
  1063.56,953.69 1105.53,911.726 1147.74,869.513 1194.41,822.841 1238.82,778.434 1284.99,732.261 1323.86,693.393 1371.31,645.94 1414.78,602.47 1454.93,562.322 
  1495.6,521.653 1541.18,476.075 1582.48,434.773 1629.77,387.486 1673.55,343.703 1716.72,300.537 1758.63,258.627 1801.59,215.664 1848.66,168.592 1917.04,100.214 
  1931.07,86.1857 
  "/>
<polyline clip-path="url(#clip452)" style="stroke:#e26f46; stroke-linecap:round; stroke-linejoin:round; stroke-width:4; stroke-opacity:1; fill:none" points="
  633.014,735.212 637.239,739.437 641.465,743.661 661.001,763.113 680.536,782.316 700.071,801.098 719.607,819.292 731.347,829.874 743.087,840.15 754.827,850.088 
  766.567,859.655 776.493,867.432 786.419,874.903 796.345,882.052 806.271,888.862 817.054,895.857 827.836,902.415 838.619,908.518 849.401,914.148 859.342,918.907 
  869.282,923.241 879.222,927.14 889.163,930.595 899.82,933.796 910.477,936.469 921.135,938.606 931.792,940.203 944.139,941.37 956.487,941.801 968.834,941.494 
  981.182,940.451 992.155,938.908 1003.13,936.791 1014.1,934.106 1025.07,930.859 1034.7,927.558 1044.32,923.839 1053.94,919.711 1063.56,915.184 1074.05,909.803 
  1084.54,903.971 1095.04,897.705 1105.53,891.02 1116.08,883.89 1126.63,876.372 1137.19,868.486 1147.74,860.252 1159.41,850.769 1171.08,840.918 1182.74,830.73 
  1194.41,820.237 1216.61,799.55 1238.82,778.12 1284.99,732.261 1323.86,693.678 1347.59,670.761 1371.31,648.692 1382.18,638.948 1393.05,629.47 1403.91,620.284 
  1414.78,611.417 1424.82,603.531 1434.86,595.955 1444.89,588.708 1454.93,581.807 1465.1,575.186 1475.26,568.952 1485.43,563.121 1495.6,557.706 1506.99,552.149 
  1518.39,547.149 1529.78,542.721 1541.18,538.879 1551.5,535.912 1561.83,533.443 1572.15,531.478 1582.48,530.022 1594.3,528.984 1606.12,528.621 1617.94,528.934 
  1629.77,529.923 1640.71,531.438 1651.66,533.525 1662.6,536.177 1673.55,539.389 1684.34,543.093 1695.13,547.321 1705.92,552.062 1716.72,557.302 1727.19,562.854 
  1737.67,568.85 1748.15,575.274 1758.63,582.108 1769.37,589.523 1780.11,597.332 1790.85,605.514 1801.59,614.045 1813.36,623.768 1825.12,633.852 1836.89,644.265 
  1848.66,654.973 1882.85,687.431 1917.04,721.195 1924.05,728.199 1931.07,735.212 
  "/>
<polyline clip-path="url(#clip452)" style="stroke:#3da44d; stroke-linecap:round; stroke-linejoin:round; stroke-width:4; stroke-opacity:1; fill:none" stroke-dasharray="16, 10" points="
  633.014,322.029 635.127,322.04 637.239,322.072 639.352,322.126 641.465,322.202 651.233,322.832 661.001,323.922 670.768,325.469 680.536,327.471 690.304,329.922 
  700.071,332.817 709.839,336.15 719.607,339.913 731.347,344.993 743.087,350.666 754.827,356.913 766.567,363.715 776.493,369.882 786.419,376.415 796.345,383.3 
  806.271,390.52 817.054,398.724 827.836,407.282 838.619,416.169 849.401,425.364 869.282,443.034 889.163,461.497 931.792,502.952 981.182,552.223 1003.13,573.852 
  1025.07,594.97 1044.32,612.881 1063.56,630.061 1074.05,639.066 1084.54,647.785 1095.04,656.198 1105.53,664.281 1116.08,672.06 1126.63,679.465 1137.19,686.475 
  1147.74,693.075 1159.41,699.871 1171.08,706.121 1182.74,711.805 1194.41,716.904 1205.51,721.199 1216.61,724.938 1227.72,728.111 1238.82,730.707 1250.36,732.788 
  1261.9,734.231 1273.45,735.033 1284.99,735.191 1294.71,734.824 1304.43,734 1314.14,732.723 1323.86,730.994 1335.72,728.277 1347.59,724.901 1359.45,720.879 
  1371.31,716.222 1382.18,711.414 1393.05,706.099 1403.91,700.294 1414.78,694.013 1424.82,687.806 1434.86,681.223 1444.89,674.28 1454.93,666.993 1465.1,659.279 
  1475.26,651.249 1485.43,642.921 1495.6,634.317 1518.39,614.134 1541.18,592.911 1561.83,572.997 1582.48,552.641 1629.77,505.457 1673.55,462.793 1695.13,442.731 
  1716.72,423.606 1727.19,414.722 1737.67,406.131 1748.15,397.854 1758.63,389.915 1769.37,382.146 1780.11,374.772 1790.85,367.815 1801.59,361.292 1813.36,354.666 
  1825.12,348.603 1836.89,343.125 1848.66,338.248 1857.21,335.092 1865.75,332.267 1874.3,329.779 1882.85,327.63 1899.94,324.369 1917.04,322.505 1920.55,322.297 
  1924.05,322.148 1927.56,322.059 1931.07,322.029 
  "/>
<path clip-path="url(#clip450)" d="
M704.395 300.469 L1068.67 300.469 L1068.67 93.1086 L704.395 93.1086  Z
  " fill="#ffffff" fill-rule="evenodd" fill-opacity="1"/>
<polyline clip-path="url(#clip450)" style="stroke:#000000; stroke-linecap:round; stroke-linejoin:round; stroke-width:4; stroke-opacity:1; fill:none" points="
  704.395,300.469 1068.67,300.469 1068.67,93.1086 704.395,93.1086 704.395,300.469 
  "/>
<polyline clip-path="url(#clip450)" style="stroke:#000000; stroke-linecap:round; stroke-linejoin:round; stroke-width:4; stroke-opacity:1; fill:none" points="
  728.189,144.949 870.951,144.949 
  "/>
<path clip-path="url(#clip450)" d="M918.772 148.201 L918.772 150.284 L899.189 150.284 Q899.467 154.682 901.828 156.997 Q904.212 159.289 908.448 159.289 Q910.902 159.289 913.193 158.687 Q915.508 158.085 917.777 156.881 L917.777 160.909 Q915.485 161.881 913.078 162.391 Q910.67 162.9 908.193 162.9 Q901.99 162.9 898.356 159.289 Q894.744 155.678 894.744 149.52 Q894.744 143.155 898.17 139.428 Q901.619 135.678 907.453 135.678 Q912.684 135.678 915.717 139.057 Q918.772 142.414 918.772 148.201 M914.513 146.951 Q914.467 143.456 912.545 141.372 Q910.647 139.289 907.499 139.289 Q903.934 139.289 901.781 141.303 Q899.652 143.317 899.328 146.974 L914.513 146.951 Z" fill="#000000" fill-rule="evenodd" fill-opacity="1" /><path clip-path="url(#clip450)" d="M946.48 136.303 L937.105 148.919 L946.966 162.229 L941.943 162.229 L934.397 152.043 L926.851 162.229 L921.828 162.229 L931.897 148.664 L922.684 136.303 L927.707 136.303 L934.582 145.539 L941.457 136.303 L946.48 136.303 Z" fill="#000000" fill-rule="evenodd" fill-opacity="1" /><path clip-path="url(#clip450)" d="M964.767 149.196 Q959.605 149.196 957.614 150.377 Q955.624 151.557 955.624 154.405 Q955.624 156.673 957.105 158.016 Q958.61 159.335 961.179 159.335 Q964.721 159.335 966.851 156.835 Q969.003 154.312 969.003 150.145 L969.003 149.196 L964.767 149.196 M973.263 147.437 L973.263 162.229 L969.003 162.229 L969.003 158.293 Q967.545 160.655 965.369 161.789 Q963.193 162.9 960.045 162.9 Q956.064 162.9 953.702 160.678 Q951.365 158.432 951.365 154.682 Q951.365 150.307 954.281 148.085 Q957.221 145.863 963.031 145.863 L969.003 145.863 L969.003 145.446 Q969.003 142.507 967.059 140.909 Q965.138 139.289 961.642 139.289 Q959.42 139.289 957.314 139.821 Q955.207 140.354 953.263 141.419 L953.263 137.483 Q955.601 136.581 957.8 136.141 Q959.999 135.678 962.082 135.678 Q967.707 135.678 970.485 138.594 Q973.263 141.511 973.263 147.437 Z" fill="#000000" fill-rule="evenodd" fill-opacity="1" /><path clip-path="url(#clip450)" d="M1000.69 137.298 L1000.69 141.28 Q998.887 140.284 997.059 139.798 Q995.253 139.289 993.401 139.289 Q989.258 139.289 986.966 141.928 Q984.675 144.544 984.675 149.289 Q984.675 154.034 986.966 156.673 Q989.258 159.289 993.401 159.289 Q995.253 159.289 997.059 158.803 Q998.887 158.293 1000.69 157.298 L1000.69 161.233 Q998.911 162.067 996.989 162.483 Q995.091 162.9 992.938 162.9 Q987.082 162.9 983.633 159.219 Q980.184 155.539 980.184 149.289 Q980.184 142.946 983.656 139.312 Q987.151 135.678 993.216 135.678 Q995.184 135.678 997.059 136.095 Q998.934 136.488 1000.69 137.298 Z" fill="#000000" fill-rule="evenodd" fill-opacity="1" /><path clip-path="url(#clip450)" d="M1012.31 128.942 L1012.31 136.303 L1021.09 136.303 L1021.09 139.613 L1012.31 139.613 L1012.31 153.687 Q1012.31 156.858 1013.17 157.761 Q1014.05 158.664 1016.71 158.664 L1021.09 158.664 L1021.09 162.229 L1016.71 162.229 Q1011.78 162.229 1009.91 160.4 Q1008.03 158.548 1008.03 153.687 L1008.03 139.613 L1004.91 139.613 L1004.91 136.303 L1008.03 136.303 L1008.03 128.942 L1012.31 128.942 Z" fill="#000000" fill-rule="evenodd" fill-opacity="1" /><polyline clip-path="url(#clip450)" style="stroke:#e26f46; stroke-linecap:round; stroke-linejoin:round; stroke-width:4; stroke-opacity:1; fill:none" points="
  728.189,196.789 870.951,196.789 
  "/>
<path clip-path="url(#clip450)" d="M911.133 197.865 Q912.638 198.374 914.05 200.041 Q915.485 201.708 916.92 204.624 L921.666 214.069 L916.642 214.069 L912.221 205.203 Q910.508 201.731 908.888 200.596 Q907.291 199.462 904.513 199.462 L899.42 199.462 L899.42 214.069 L894.744 214.069 L894.744 179.509 L905.3 179.509 Q911.226 179.509 914.143 181.985 Q917.059 184.462 917.059 189.462 Q917.059 192.726 915.531 194.879 Q914.027 197.032 911.133 197.865 M899.42 183.351 L899.42 195.62 L905.3 195.62 Q908.68 195.62 910.393 194.069 Q912.129 192.495 912.129 189.462 Q912.129 186.43 910.393 184.902 Q908.68 183.351 905.3 183.351 L899.42 183.351 Z" fill="#000000" fill-rule="evenodd" fill-opacity="1" /><path clip-path="url(#clip450)" d="M947.545 200.041 L947.545 202.124 L927.962 202.124 Q928.24 206.522 930.601 208.837 Q932.985 211.129 937.221 211.129 Q939.675 211.129 941.966 210.527 Q944.281 209.925 946.55 208.721 L946.55 212.749 Q944.258 213.721 941.851 214.231 Q939.443 214.74 936.966 214.74 Q930.763 214.74 927.129 211.129 Q923.517 207.518 923.517 201.36 Q923.517 194.995 926.943 191.268 Q930.392 187.518 936.226 187.518 Q941.457 187.518 944.49 190.897 Q947.545 194.254 947.545 200.041 M943.286 198.791 Q943.24 195.296 941.318 193.212 Q939.42 191.129 936.272 191.129 Q932.707 191.129 930.554 193.143 Q928.425 195.157 928.101 198.814 L943.286 198.791 Z" fill="#000000" fill-rule="evenodd" fill-opacity="1" /><path clip-path="url(#clip450)" d="M986.665 200.805 Q986.665 196.175 984.744 193.629 Q982.846 191.083 979.397 191.083 Q975.971 191.083 974.05 193.629 Q972.151 196.175 972.151 200.805 Q972.151 205.411 974.05 207.958 Q975.971 210.504 979.397 210.504 Q982.846 210.504 984.744 207.958 Q986.665 205.411 986.665 200.805 M990.925 210.851 Q990.925 217.471 987.985 220.689 Q985.045 223.93 978.98 223.93 Q976.735 223.93 974.744 223.582 Q972.753 223.258 970.878 222.564 L970.878 218.42 Q972.753 219.439 974.582 219.925 Q976.411 220.411 978.309 220.411 Q982.499 220.411 984.582 218.212 Q986.665 216.036 986.665 211.615 L986.665 209.508 Q985.346 211.8 983.286 212.934 Q981.225 214.069 978.355 214.069 Q973.587 214.069 970.67 210.434 Q967.753 206.8 967.753 200.805 Q967.753 194.786 970.67 191.152 Q973.587 187.518 978.355 187.518 Q981.225 187.518 983.286 188.652 Q985.346 189.786 986.665 192.078 L986.665 188.143 L990.925 188.143 L990.925 210.851 Z" fill="#000000" fill-rule="evenodd" fill-opacity="1" /><path clip-path="url(#clip450)" d="M998.841 211.522 L1003.56 211.522 L1003.56 197.379 L998.401 198.328 L998.401 195.643 L1003.73 194.74 L1006.9 194.74 L1006.9 211.522 L1011.64 211.522 L1011.64 214.069 L998.841 214.069 L998.841 211.522 Z" fill="#000000" fill-rule="evenodd" fill-opacity="1" /><polyline clip-path="url(#clip450)" style="stroke:#3da44d; stroke-linecap:round; stroke-linejoin:round; stroke-width:4; stroke-opacity:1; fill:none" stroke-dasharray="16, 10" points="
  728.189,248.629 870.951,248.629 
  "/>
<path clip-path="url(#clip450)" d="M894.744 231.349 L899.42 231.349 L899.42 265.909 L894.744 265.909 L894.744 231.349 Z" fill="#000000" fill-rule="evenodd" fill-opacity="1" /><path clip-path="url(#clip450)" d="M928.726 244.96 Q930.323 242.089 932.545 240.724 Q934.767 239.358 937.777 239.358 Q941.828 239.358 944.027 242.205 Q946.226 245.029 946.226 250.261 L946.226 265.909 L941.943 265.909 L941.943 250.399 Q941.943 246.673 940.624 244.867 Q939.304 243.062 936.596 243.062 Q933.286 243.062 931.365 245.261 Q929.443 247.46 929.443 251.256 L929.443 265.909 L925.161 265.909 L925.161 250.399 Q925.161 246.649 923.842 244.867 Q922.522 243.062 919.767 243.062 Q916.504 243.062 914.582 245.284 Q912.661 247.483 912.661 251.256 L912.661 265.909 L908.379 265.909 L908.379 239.983 L912.661 239.983 L912.661 244.011 Q914.119 241.626 916.156 240.492 Q918.193 239.358 920.994 239.358 Q923.818 239.358 925.786 240.793 Q927.777 242.228 928.726 244.96 Z" fill="#000000" fill-rule="evenodd" fill-opacity="1" /><path clip-path="url(#clip450)" d="M986.85 252.645 Q986.85 248.015 984.929 245.469 Q983.031 242.923 979.582 242.923 Q976.156 242.923 974.235 245.469 Q972.337 248.015 972.337 252.645 Q972.337 257.251 974.235 259.798 Q976.156 262.344 979.582 262.344 Q983.031 262.344 984.929 259.798 Q986.85 257.251 986.85 252.645 M991.11 262.691 Q991.11 269.311 988.17 272.529 Q985.23 275.77 979.165 275.77 Q976.92 275.77 974.929 275.422 Q972.938 275.098 971.064 274.404 L971.064 270.26 Q972.938 271.279 974.767 271.765 Q976.596 272.251 978.494 272.251 Q982.684 272.251 984.767 270.052 Q986.85 267.876 986.85 263.455 L986.85 261.348 Q985.531 263.64 983.471 264.774 Q981.411 265.909 978.54 265.909 Q973.772 265.909 970.855 262.274 Q967.939 258.64 967.939 252.645 Q967.939 246.626 970.855 242.992 Q973.772 239.358 978.54 239.358 Q981.411 239.358 983.471 240.492 Q985.531 241.626 986.85 243.918 L986.85 239.983 L991.11 239.983 L991.11 262.691 Z" fill="#000000" fill-rule="evenodd" fill-opacity="1" /><path clip-path="url(#clip450)" d="M999.026 263.362 L1003.75 263.362 L1003.75 249.219 L998.587 250.168 L998.587 247.483 L1003.91 246.58 L1007.08 246.58 L1007.08 263.362 L1011.83 263.362 L1011.83 265.909 L999.026 265.909 L999.026 263.362 Z" fill="#000000" fill-rule="evenodd" fill-opacity="1" /></svg>
