<?xml version="1.0" encoding="utf-8"?>
<svg xmlns="http://www.w3.org/2000/svg" xmlns:xlink="http://www.w3.org/1999/xlink" width="600" height="400" viewBox="0 0 2400 1600">
<defs>
  <clipPath id="clip530">
    <rect x="0" y="0" width="2400" height="1600"/>
  </clipPath>
</defs>
<path clip-path="url(#clip530)" d="
M0 1600 L2400 1600 L2400 0 L0 0  Z
  " fill="#ffffff" fill-rule="evenodd" fill-opacity="1"/>
<defs>
  <clipPath id="clip531">
    <rect x="480" y="0" width="1681" height="1600"/>
  </clipPath>
</defs>
<path clip-path="url(#clip530)" d="
M588.377 1425.62 L1966.75 1425.62 L1966.75 47.2441 L588.377 47.2441  Z
  " fill="#ffffff" fill-rule="evenodd" fill-opacity="1"/>
<defs>
  <clipPath id="clip532">
    <rect x="588" y="47" width="1379" height="1379"/>
  </clipPath>
</defs>
<polyline clip-path="url(#clip532)" style="stroke:#000000; stroke-linecap:round; stroke-linejoin:round; stroke-width:2; stroke-opacity:0.1; fill:none" points="
  619.439,1425.62 619.439,47.2441 
  "/>
<polyline clip-path="url(#clip532)" style="stroke:#000000; stroke-linecap:round; stroke-linejoin:round; stroke-width:2; stroke-opacity:0.1; fill:none" points="
  838.814,1425.62 838.814,47.2441 
  "/>
<polyline clip-path="url(#clip532)" style="stroke:#000000; stroke-linecap:round; stroke-linejoin:round; stroke-width:2; stroke-opacity:0.1; fill:none" points="
  1058.19,1425.62 1058.19,47.2441 
  "/>
<polyline clip-path="url(#clip532)" style="stroke:#000000; stroke-linecap:round; stroke-linejoin:round; stroke-width:2; stroke-opacity:0.1; fill:none" points="
  1277.56,1425.62 1277.56,47.2441 
  "/>
<polyline clip-path="url(#clip532)" style="stroke:#000000; stroke-linecap:round; stroke-linejoin:round; stroke-width:2; stroke-opacity:0.1; fill:none" points="
  1496.94,1425.62 1496.94,47.2441 
  "/>
<polyline clip-path="url(#clip532)" style="stroke:#000000; stroke-linecap:round; stroke-linejoin:round; stroke-width:2; stroke-opacity:0.1; fill:none" points="
  1716.31,1425.62 1716.31,47.2441 
  "/>
<polyline clip-path="url(#clip532)" style="stroke:#000000; stroke-linecap:round; stroke-linejoin:round; stroke-width:2; stroke-opacity:0.1; fill:none" points="
  1935.69,1425.62 1935.69,47.2441 
  "/>
<polyline clip-path="url(#clip530)" style="stroke:#000000; stroke-linecap:round; stroke-linejoin:round; stroke-width:4; stroke-opacity:1; fill:none" points="
  588.377,1425.62 1966.75,1425.62 
  "/>
<polyline clip-path="url(#clip530)" style="stroke:#000000; stroke-linecap:round; stroke-linejoin:round; stroke-width:4; stroke-opacity:1; fill:none" points="
  619.439,1425.62 619.439,1406.72 
  "/>
<polyline clip-path="url(#clip530)" style="stroke:#000000; stroke-linecap:round; stroke-linejoin:round; stroke-width:4; stroke-opacity:1; fill:none" points="
  838.814,1425.62 838.814,1406.72 
  "/>
<polyline clip-path="url(#clip530)" style="stroke:#000000; stroke-linecap:round; stroke-linejoin:round; stroke-width:4; stroke-opacity:1; fill:none" points="
  1058.19,1425.62 1058.19,1406.72 
  "/>
<polyline clip-path="url(#clip530)" style="stroke:#000000; stroke-linecap:round; stroke-linejoin:round; stroke-width:4; stroke-opacity:1; fill:none" points="
  1277.56,1425.62 1277.56,1406.72 
  "/>
<polyline clip-path="url(#clip530)" style="stroke:#000000; stroke-linecap:round; stroke-linejoin:round; stroke-width:4; stroke-opacity:1; fill:none" points="
  1496.94,1425.62 1496.94,1406.72 
  "/>
<polyline clip-path="url(#clip530)" style="stroke:#000000; stroke-linecap:round; stroke-linejoin:round; stroke-width:4; stroke-opacity:1; fill:none" points="
  1716.31,1425.62 1716.31,1406.72 
  "/>
<polyline clip-path="url(#clip530)" style="stroke:#000000; stroke-linecap:round; stroke-linejoin:round; stroke-width:4; stroke-opacity:1; fill:none" points="
  1935.69,1425.62 1935.69,1406.72 
  "/>
<g clip-path="url(#clip530)">
<text style="fill:#000000; fill-opacity:1; font-family:Arial,Helvetica Neue,Helvetica,sans-serif; font-size:48px; text-anchor:middle;" transform="rotate(0, 619.439, 1487.47)" x="619.439" y="1487.47">−3</text>
</g>
<g clip-path="url(#clip530)">
<text style="fill:#000000; fill-opacity:1; font-family:Arial,Helvetica Neue,Helvetica,sans-serif; font-size:48px; text-anchor:middle;" transform="rotate(0, 838.814, 1487.47)" x="838.814" y="1487.47">−2</text>
</g>
<g clip-path="url(#clip530)">
<text style="fill:#000000; fill-opacity:1; font-family:Arial,Helvetica Neue,Helvetica,sans-serif; font-size:48px; text-anchor:middle;" transform="rotate(0, 1058.19, 1487.47)" x="1058.19" y="1487.47">−1</text>
</g>
<g clip-path="url(#clip530)">
<text style="fill:#000000; fill-opacity:1; font-family:Arial,Helvetica Neue,Helvetica,sans-serif; font-size:48px; text-anchor:middle;" transform="rotate(0, 1277.56, 1487.47)" x="1277.56" y="1487.47">0</text>
</g>
<g clip-path="url(#clip530)">
<text style="fill:#000000; fill-opacity:1; font-family:Arial,Helvetica Neue,Helvetica,sans-serif; font-size:48px; text-anchor:middle;" transform="rotate(0, 1496.94, 1487.47)" x="1496.94" y="1487.47">1</text>
</g>
<g clip-path="url(#clip530)">
<text style="fill:#000000; fill-opacity:1; font-family:Arial,Helvetica Neue,Helvetica,sans-serif; font-size:48px; text-anchor:middle;" transform="rotate(0, 1716.31, 1487.47)" x="1716.31" y="1487.47">2</text>
</g>
<g clip-path="url(#clip530)">
<text style="fill:#000000; fill-opacity:1; font-family:Arial,Helvetica Neue,Helvetica,sans-serif; font-size:48px; text-anchor:middle;" transform="rotate(0, 1935.69, 1487.47)" x="1935.69" y="1487.47">3</text>
</g>
<g clip-path="url(#clip530)">
<text style="fill:#000000; fill-opacity:1; font-family:Arial,Helvetica Neue,Helvetica,sans-serif; font-size:66px; text-anchor:middle;" transform="rotate(0, 1277.56, 1571.48)" x="1277.56" y="1571.48">ξh</text>
</g>
<polyline clip-path="url(#clip532)" style="stroke:#000000; stroke-linecap:round; stroke-linejoin:round; stroke-width:2; stroke-opacity:0.1; fill:none" points="
  588.377,1394.56 1966.75,1394.56 
  "/>
<polyline clip-path="url(#clip532)" style="stroke:#000000; stroke-linecap:round; stroke-linejoin:round; stroke-width:2; stroke-opacity:0.1; fill:none" points="
  588.377,1175.18 1966.75,1175.18 
  "/>
<polyline clip-path="url(#clip532)" style="stroke:#000000; stroke-linecap:round; stroke-linejoin:round; stroke-width:2; stroke-opacity:0.1; fill:none" points="
  588.377,955.806 1966.75,955.806 
  "/>
<polyline clip-path="url(#clip532)" style="stroke:#000000; stroke-linecap:round; stroke-linejoin:round; stroke-width:2; stroke-opacity:0.1; fill:none" points="
  588.377,736.431 1966.75,736.431 
  "/>
<polyline clip-path="url(#clip532)" style="stroke:#000000; stroke-linecap:round; stroke-linejoin:round; stroke-width:2; stroke-opacity:0.1; fill:none" points="
  588.377,517.056 1966.75,517.056 
  "/>
<polyline clip-path="url(#clip532)" style="stroke:#000000; stroke-linecap:round; stroke-linejoin:round; stroke-width:2; stroke-opacity:0.1; fill:none" points="
  588.377,297.681 1966.75,297.681 
  "/>
<polyline clip-path="url(#clip532)" style="stroke:#000000; stroke-linecap:round; stroke-linejoin:round; stroke-width:2; stroke-opacity:0.1; fill:none" points="
  588.377,78.306 1966.75,78.306 
  "/>
<polyline clip-path="url(#clip530)" style="stroke:#000000; stroke-linecap:round; stroke-linejoin:round; stroke-width:4; stroke-opacity:1; fill:none" points="
  588.377,1425.62 588.377,47.2441 
  "/>
<polyline clip-path="url(#clip530)" style="stroke:#000000; stroke-linecap:round; stroke-linejoin:round; stroke-width:4; stroke-opacity:1; fill:none" points="
  588.377,1394.56 600.49,1394.56 
  "/>
<polyline clip-path="url(#clip530)" style="stroke:#000000; stroke-linecap:round; stroke-linejoin:round; stroke-width:4; stroke-opacity:1; fill:none" points="
  588.377,1175.18 600.49,1175.18 
  "/>
<polyline clip-path="url(#clip530)" style="stroke:#000000; stroke-linecap:round; stroke-linejoin:round; stroke-width:4; stroke-opacity:1; fill:none" points="
  588.377,955.806 600.49,955.806 
  "/>
<polyline clip-path="url(#clip530)" style="stroke:#000000; stroke-linecap:round; stroke-linejoin:round; stroke-width:4; stroke-opacity:1; fill:none" points="
  588.377,736.431 600.49,736.431 
  "/>
<polyline clip-path="url(#clip530)" style="stroke:#000000; stroke-linecap:round; stroke-linejoin:round; stroke-width:4; stroke-opacity:1; fill:none" points="
  588.377,517.056 600.49,517.056 
  "/>
<polyline clip-path="url(#clip530)" style="stroke:#000000; stroke-linecap:round; stroke-linejoin:round; stroke-width:4; stroke-opacity:1; fill:none" points="
  588.377,297.681 600.49,297.681 
  "/>
<polyline clip-path="url(#clip530)" style="stroke:#000000; stroke-linecap:round; stroke-linejoin:round; stroke-width:4; stroke-opacity:1; fill:none" points="
  588.377,78.306 600.49,78.306 
  "/>
<g clip-path="url(#clip530)">
<text style="fill:#000000; fill-opacity:1; font-family:Arial,Helvetica Neue,Helvetica,sans-serif; font-size:48px; text-anchor:middle;" transform="rotate(0, 525.615, 1412.06)" x="525.615" y="1412.06">−3</text>
</g>
<g clip-path="url(#clip530)">
<text style="fill:#000000; fill-opacity:1; font-family:Arial,Helvetica Neue,Helvetica,sans-serif; font-size:48px; text-anchor:middle;" transform="rotate(0, 525.615, 1192.68)" x="525.615" y="1192.68">−2</text>
</g>
<g clip-path="url(#clip530)">
<text style="fill:#000000; fill-opacity:1; font-family:Arial,Helvetica Neue,Helvetica,sans-serif; font-size:48px; text-anchor:middle;" transform="rotate(0, 525.615, 973.306)" x="525.615" y="973.306">−1</text>
</g>
<g clip-path="url(#clip530)">
<text style="fill:#000000; fill-opacity:1; font-family:Arial,Helvetica Neue,Helvetica,sans-serif; font-size:48px; text-anchor:middle;" transform="rotate(0, 538.996, 753.931)" x="538.996" y="753.931">0</text>
</g>
<g clip-path="url(#clip530)">
<text style="fill:#000000; fill-opacity:1; font-family:Arial,Helvetica Neue,Helvetica,sans-serif; font-size:48px; text-anchor:middle;" transform="rotate(0, 538.996, 534.556)" x="538.996" y="534.556">1</text>
</g>
<g clip-path="url(#clip530)">
<text style="fill:#000000; fill-opacity:1; font-family:Arial,Helvetica Neue,Helvetica,sans-serif; font-size:48px; text-anchor:middle;" transform="rotate(0, 538.996, 315.181)" x="538.996" y="315.181">2</text>
</g>
<g clip-path="url(#clip530)">
<text style="fill:#000000; fill-opacity:1; font-family:Arial,Helvetica Neue,Helvetica,sans-serif; font-size:48px; text-anchor:middle;" transform="rotate(0, 538.996, 95.806)" x="538.996" y="95.806">3</text>
</g>
<g clip-path="url(#clip530)">
<text style="fill:#000000; fill-opacity:1; font-family:Arial,Helvetica Neue,Helvetica,sans-serif; font-size:66px; text-anchor:middle;" transform="rotate(-90, 451.29, 736.431)" x="451.29" y="736.431">ωτ</text>
</g>
<polyline clip-path="url(#clip532)" style="stroke:#009af9; stroke-linecap:round; stroke-linejoin:round; stroke-width:8; stroke-opacity:1; fill:none" points="
  588.377,736.431 595.304,742.662 602.23,748.877 609.157,755.06 616.083,761.195 623.01,767.267 629.936,773.261 636.863,779.165 643.789,784.966 650.716,790.652 
  657.642,796.214 664.569,801.642 671.495,806.929 678.422,812.068 685.348,817.054 692.275,821.881 699.201,826.548 706.128,831.051 713.054,835.39 719.981,839.562 
  726.907,843.569 733.834,847.41 740.76,851.088 747.687,854.603 754.613,857.957 761.54,861.154 768.466,864.194 775.393,867.081 782.319,869.818 789.246,872.407 
  796.172,874.852 803.099,877.155 810.025,879.319 816.952,881.347 823.878,883.242 830.805,885.007 837.731,886.643 844.658,888.154 851.584,889.542 858.511,890.808 
  865.437,891.956 872.364,892.985 879.29,893.9 886.217,894.7 893.143,895.387 900.07,895.962 906.996,896.427 913.923,896.781 920.849,897.026 927.776,897.162 
  934.702,897.189 941.629,897.108 948.555,896.917 955.482,896.618 962.408,896.208 969.335,895.688 976.261,895.057 983.188,894.314 990.114,893.457 997.041,892.485 
  1003.97,891.397 1010.89,890.19 1017.82,888.863 1024.75,887.414 1031.67,885.841 1038.6,884.141 1045.53,882.311 1052.45,880.35 1059.38,878.254 1066.31,876.021 
  1073.23,873.648 1080.16,871.131 1087.09,868.468 1094.01,865.657 1100.94,862.693 1107.87,859.575 1114.79,856.3 1121.72,852.866 1128.64,849.27 1135.57,845.51 
  1142.5,841.586 1149.42,837.496 1156.35,833.241 1163.28,828.82 1170.2,824.235 1177.13,819.488 1184.06,814.58 1190.98,809.518 1197.91,804.304 1204.84,798.945 
  1211.76,793.449 1218.69,787.824 1225.62,782.079 1232.54,776.225 1239.47,770.274 1246.4,764.24 1253.32,758.134 1260.25,751.974 1267.17,745.773 1274.1,739.548 
  1281.03,733.315 1287.95,727.09 1294.88,720.889 1301.81,714.728 1308.73,708.623 1315.66,702.588 1322.59,696.637 1329.51,690.784 1336.44,685.039 1343.37,679.413 
  1350.29,673.917 1357.22,668.559 1364.15,663.345 1371.07,658.282 1378,653.375 1384.93,648.628 1391.85,644.042 1398.78,639.622 1405.7,635.366 1412.63,631.277 
  1419.56,627.353 1426.48,623.593 1433.41,619.997 1440.34,616.563 1447.26,613.288 1454.19,610.17 1461.12,607.206 1468.04,604.394 1474.97,601.732 1481.9,599.215 
  1488.82,596.842 1495.75,594.608 1502.68,592.513 1509.6,590.551 1516.53,588.722 1523.46,587.022 1530.38,585.448 1537.31,583.999 1544.23,582.673 1551.16,581.466 
  1558.09,580.378 1565.01,579.406 1571.94,578.549 1578.87,577.805 1585.79,577.174 1592.72,576.655 1599.65,576.245 1606.57,575.945 1613.5,575.755 1620.43,575.673 
  1627.35,575.701 1634.28,575.837 1641.21,576.082 1648.13,576.436 1655.06,576.901 1661.99,577.476 1668.91,578.163 1675.84,578.963 1682.76,579.877 1689.69,580.907 
  1696.62,582.054 1703.54,583.321 1710.47,584.708 1717.4,586.219 1724.32,587.856 1731.25,589.62 1738.18,591.515 1745.1,593.543 1752.03,595.708 1758.96,598.011 
  1765.88,600.455 1772.81,603.045 1779.74,605.781 1786.66,608.669 1793.59,611.709 1800.52,614.905 1807.44,618.26 1814.37,621.775 1821.3,625.452 1828.22,629.294 
  1835.15,633.301 1842.07,637.473 1849,641.811 1855.93,646.315 1862.85,650.981 1869.78,655.809 1876.71,660.795 1883.63,665.933 1890.56,671.22 1897.49,676.649 
  1904.41,682.21 1911.34,687.897 1918.27,693.698 1925.19,699.602 1932.12,705.596 1939.05,711.668 1945.97,717.803 1952.9,723.985 1959.83,730.2 1966.75,736.431 
  
  "/>
<polyline clip-path="url(#clip532)" style="stroke:#e26f46; stroke-linecap:round; stroke-linejoin:round; stroke-width:8; stroke-opacity:1; fill:none" points="
  588.377,736.431 595.304,736.52 602.23,736.785 609.157,737.223 616.083,737.832 623.01,738.606 629.936,739.538 636.863,740.62 643.789,741.845 650.716,743.201 
  657.642,744.68 664.569,746.27 671.495,747.959 678.422,749.737 685.348,751.592 692.275,753.512 699.201,755.486 706.128,757.503 713.054,759.552 719.981,761.622 
  726.907,763.704 733.834,765.789 740.76,767.867 747.687,769.929 754.613,771.969 761.54,773.979 768.466,775.951 775.393,777.88 782.319,779.759 789.246,781.584 
  796.172,783.35 803.099,785.051 810.025,786.684 816.952,788.245 823.878,789.731 830.805,791.138 837.731,792.464 844.658,793.706 851.584,794.863 858.511,795.931 
  865.437,796.91 872.364,797.798 879.29,798.592 886.217,799.294 893.143,799.9 900.07,800.411 906.996,800.825 913.923,801.142 920.849,801.362 927.776,801.484 
  934.702,801.509 941.629,801.435 948.555,801.264 955.482,800.996 962.408,800.63 969.335,800.167 976.261,799.609 983.188,798.955 990.114,798.207 997.041,797.365 
  1003.97,796.432 1010.89,795.408 1017.82,794.295 1024.75,793.096 1031.67,791.811 1038.6,790.444 1045.53,788.997 1052.45,787.474 1059.38,785.876 1066.31,784.209 
  1073.23,782.475 1080.16,780.679 1087.09,778.826 1094.01,776.921 1100.94,774.97 1107.87,772.978 1114.79,770.952 1121.72,768.9 1128.64,766.829 1135.57,764.747 
  1142.5,762.662 1149.42,760.585 1156.35,758.524 1163.28,756.49 1170.2,754.493 1177.13,752.545 1184.06,750.656 1190.98,748.838 1197.91,747.103 1204.84,745.462 
  1211.76,743.926 1218.69,742.507 1225.62,741.215 1232.54,740.061 1239.47,739.052 1246.4,738.199 1253.32,737.507 1260.25,736.982 1267.17,736.63 1274.1,736.453 
  1281.03,736.453 1287.95,736.63 1294.88,736.982 1301.81,737.507 1308.73,738.199 1315.66,739.052 1322.59,740.061 1329.51,741.215 1336.44,742.507 1343.37,743.926 
  1350.29,745.462 1357.22,747.103 1364.15,748.838 1371.07,750.656 1378,752.545 1384.93,754.493 1391.85,756.49 1398.78,758.524 1405.7,760.585 1412.63,762.662 
  1419.56,764.747 1426.48,766.829 1433.41,768.9 1440.34,770.952 1447.26,772.978 1454.19,774.97 1461.12,776.921 1468.04,778.826 1474.97,780.679 1481.9,782.475 
  1488.82,784.209 1495.75,785.876 1502.68,787.474 1509.6,788.997 1516.53,790.444 1523.46,791.811 1530.38,793.096 1537.31,794.295 1544.23,795.408 1551.16,796.432 
  1558.09,797.365 1565.01,798.207 1571.94,798.955 1578.87,799.609 1585.79,800.167 1592.72,800.63 1599.65,800.996 1606.57,801.264 1613.5,801.435 1620.43,801.509 
  1627.35,801.484 1634.28,801.362 1641.21,801.142 1648.13,800.825 1655.06,800.411 1661.99,799.9 1668.91,799.294 1675.84,798.592 1682.76,797.798 1689.69,796.91 
  1696.62,795.931 1703.54,794.863 1710.47,793.706 1717.4,792.464 1724.32,791.138 1731.25,789.731 1738.18,788.245 1745.1,786.684 1752.03,785.051 1758.96,783.35 
  1765.88,781.584 1772.81,779.759 1779.74,777.88 1786.66,775.951 1793.59,773.979 1800.52,771.969 1807.44,769.929 1814.37,767.867 1821.3,765.789 1828.22,763.704 
  1835.15,761.622 1842.07,759.552 1849,757.503 1855.93,755.486 1862.85,753.512 1869.78,751.592 1876.71,749.737 1883.63,747.959 1890.56,746.27 1897.49,744.68 
  1904.41,743.201 1911.34,741.845 1918.27,740.62 1925.19,739.538 1932.12,738.606 1939.05,737.832 1945.97,737.223 1952.9,736.785 1959.83,736.52 1966.75,736.431 
  
  "/>
<polyline clip-path="url(#clip532)" style="stroke:#666666; stroke-linecap:round; stroke-linejoin:round; stroke-width:8; stroke-opacity:1; fill:none" stroke-dasharray="32, 20" points="
  588.377,1425.62 595.304,1418.69 602.23,1411.77 609.157,1404.84 616.083,1397.91 623.01,1390.99 629.936,1384.06 636.863,1377.13 643.789,1370.21 650.716,1363.28 
  657.642,1356.35 664.569,1349.43 671.495,1342.5 678.422,1335.57 685.348,1328.65 692.275,1321.72 699.201,1314.79 706.128,1307.87 713.054,1300.94 719.981,1294.02 
  726.907,1287.09 733.834,1280.16 740.76,1273.24 747.687,1266.31 754.613,1259.38 761.54,1252.46 768.466,1245.53 775.393,1238.6 782.319,1231.68 789.246,1224.75 
  796.172,1217.82 803.099,1210.9 810.025,1203.97 816.952,1197.04 823.878,1190.12 830.805,1183.19 837.731,1176.26 844.658,1169.34 851.584,1162.41 858.511,1155.48 
  865.437,1148.56 872.364,1141.63 879.29,1134.71 886.217,1127.78 893.143,1120.85 900.07,1113.93 906.996,1107 913.923,1100.07 920.849,1093.15 927.776,1086.22 
  934.702,1079.29 941.629,1072.37 948.555,1065.44 955.482,1058.51 962.408,1051.59 969.335,1044.66 976.261,1037.73 983.188,1030.81 990.114,1023.88 997.041,1016.95 
  1003.97,1010.03 1010.89,1003.1 1017.82,996.175 1024.75,989.249 1031.67,982.322 1038.6,975.396 1045.53,968.469 1052.45,961.543 1059.38,954.616 1066.31,947.69 
  1073.23,940.763 1080.16,933.837 1087.09,926.91 1094.01,919.984 1100.94,913.057 1107.87,906.131 1114.79,899.204 1121.72,892.278 1128.64,885.351 1135.57,878.425 
  1142.5,871.498 1149.42,864.572 1156.35,857.645 1163.28,850.719 1170.2,843.792 1177.13,836.866 1184.06,829.939 1190.98,823.013 1197.91,816.086 1204.84,809.16 
  1211.76,802.233 1218.69,795.307 1225.62,788.38 1232.54,781.454 1239.47,774.527 1246.4,767.601 1253.32,760.674 1260.25,753.748 1267.17,746.821 1274.1,739.895 
  1281.03,732.968 1287.95,726.042 1294.88,719.115 1301.81,712.189 1308.73,705.262 1315.66,698.336 1322.59,691.409 1329.51,684.483 1336.44,677.556 1343.37,670.63 
  1350.29,663.703 1357.22,656.777 1364.15,649.85 1371.07,642.924 1378,635.997 1384.93,629.071 1391.85,622.144 1398.78,615.218 1405.7,608.291 1412.63,601.365 
  1419.56,594.438 1426.48,587.511 1433.41,580.585 1440.34,573.658 1447.26,566.732 1454.19,559.805 1461.12,552.879 1468.04,545.952 1474.97,539.026 1481.9,532.099 
  1488.82,525.173 1495.75,518.246 1502.68,511.32 1509.6,504.393 1516.53,497.467 1523.46,490.54 1530.38,483.614 1537.31,476.687 1544.23,469.761 1551.16,462.834 
  1558.09,455.908 1565.01,448.981 1571.94,442.055 1578.87,435.128 1585.79,428.202 1592.72,421.275 1599.65,414.349 1606.57,407.422 1613.5,400.496 1620.43,393.569 
  1627.35,386.643 1634.28,379.716 1641.21,372.79 1648.13,365.863 1655.06,358.937 1661.99,352.01 1668.91,345.084 1675.84,338.157 1682.76,331.231 1689.69,324.304 
  1696.62,317.378 1703.54,310.451 1710.47,303.525 1717.4,296.598 1724.32,289.672 1731.25,282.745 1738.18,275.819 1745.1,268.892 1752.03,261.966 1758.96,255.039 
  1765.88,248.113 1772.81,241.186 1779.74,234.26 1786.66,227.333 1793.59,220.407 1800.52,213.48 1807.44,206.554 1814.37,199.627 1821.3,192.701 1828.22,185.774 
  1835.15,178.848 1842.07,171.921 1849,164.995 1855.93,158.068 1862.85,151.142 1869.78,144.215 1876.71,137.289 1883.63,130.362 1890.56,123.436 1897.49,116.509 
  1904.41,109.583 1911.34,102.656 1918.27,95.7296 1925.19,88.8031 1932.12,81.8766 1939.05,74.9501 1945.97,68.0236 1952.9,61.0971 1959.83,54.1706 1966.75,47.2441 
  
  "/>
<path clip-path="url(#clip530)" d="
M1594.63 244.089 L1895.07 244.089 L1895.07 93.1899 L1594.63 93.1899  Z
  " fill="#ffffff" fill-rule="evenodd" fill-opacity="1"/>
<polyline clip-path="url(#clip530)" style="stroke:#000000; stroke-linecap:round; stroke-linejoin:round; stroke-width:4; stroke-opacity:1; fill:none" points="
  1594.63,244.089 1895.07,244.089 1895.07,93.1899 1594.63,93.1899 1594.63,244.089 
  "/>
<polyline clip-path="url(#clip530)" style="stroke:#009af9; stroke-linecap:round; stroke-linejoin:round; stroke-width:4; stroke-opacity:1; fill:none" points="
  1618.52,143.49 1761.88,143.49 
  "/>
<g clip-path="url(#clip530)">
<text style="fill:#000000; fill-opacity:1; font-family:Arial,Helvetica Neue,Helvetica,sans-serif; font-size:48px; text-anchor:start;" transform="rotate(0, 1785.77, 160.99)" x="1785.77" y="160.99">Re</text>
</g>
<polyline clip-path="url(#clip530)" style="stroke:#e26f46; stroke-linecap:round; stroke-linejoin:round; stroke-width:4; stroke-opacity:1; fill:none" points="
  1618.52,193.789 1761.88,193.789 
  "/>
<g clip-path="url(#clip530)">
<text style="fill:#000000; fill-opacity:1; font-family:Arial,Helvetica Neue,Helvetica,sans-serif; font-size:48px; text-anchor:start;" transform="rotate(0, 1785.77, 211.289)" x="1785.77" y="211.289">Im</text>
</g>
</svg>
