<?xml version="1.0" encoding="utf-8"?>
<svg xmlns="http://www.w3.org/2000/svg" xmlns:xlink="http://www.w3.org/1999/xlink" width="600" height="400" viewBox="0 0 2400 1600">
<defs>
  <clipPath id="clip090">
    <rect x="0" y="0" width="2400" height="1600"/>
  </clipPath>
</defs>
<path clip-path="url(#clip090)" d="
M0 1600 L2400 1600 L2400 0 L0 0  Z
  " fill="#ffffff" fill-rule="evenodd" fill-opacity="1"/>
<defs>
  <clipPath id="clip091">
    <rect x="480" y="0" width="1681" height="1600"/>
  </clipPath>
</defs>
<path clip-path="url(#clip090)" d="
M215.754 1351.3 L2081.26 1351.3 L2081.26 195.991 L215.754 195.991  Z
  " fill="#ffffff" fill-rule="evenodd" fill-opacity="1"/>
<defs>
  <clipPath id="clip092">
    <rect x="215" y="195" width="1867" height="1156"/>
  </clipPath>
</defs>
<polyline clip-path="url(#clip092)" style="stroke:#000000; stroke-linecap:butt; stroke-linejoin:round; stroke-width:2; stroke-opacity:0.1; fill:none" points="
  282.024,1351.3 282.024,195.991 
  "/>
<polyline clip-path="url(#clip092)" style="stroke:#000000; stroke-linecap:butt; stroke-linejoin:round; stroke-width:2; stroke-opacity:0.1; fill:none" points="
  859.679,1351.3 859.679,195.991 
  "/>
<polyline clip-path="url(#clip092)" style="stroke:#000000; stroke-linecap:butt; stroke-linejoin:round; stroke-width:2; stroke-opacity:0.1; fill:none" points="
  1437.33,1351.3 1437.33,195.991 
  "/>
<polyline clip-path="url(#clip092)" style="stroke:#000000; stroke-linecap:butt; stroke-linejoin:round; stroke-width:2; stroke-opacity:0.1; fill:none" points="
  2014.99,1351.3 2014.99,195.991 
  "/>
<polyline clip-path="url(#clip090)" style="stroke:#000000; stroke-linecap:butt; stroke-linejoin:round; stroke-width:4; stroke-opacity:1; fill:none" points="
  215.754,1351.3 2081.26,1351.3 
  "/>
<polyline clip-path="url(#clip090)" style="stroke:#000000; stroke-linecap:butt; stroke-linejoin:round; stroke-width:4; stroke-opacity:1; fill:none" points="
  282.024,1351.3 282.024,1334.56 
  "/>
<polyline clip-path="url(#clip090)" style="stroke:#000000; stroke-linecap:butt; stroke-linejoin:round; stroke-width:4; stroke-opacity:1; fill:none" points="
  859.679,1351.3 859.679,1334.56 
  "/>
<polyline clip-path="url(#clip090)" style="stroke:#000000; stroke-linecap:butt; stroke-linejoin:round; stroke-width:4; stroke-opacity:1; fill:none" points="
  1437.33,1351.3 1437.33,1334.56 
  "/>
<polyline clip-path="url(#clip090)" style="stroke:#000000; stroke-linecap:butt; stroke-linejoin:round; stroke-width:4; stroke-opacity:1; fill:none" points="
  2014.99,1351.3 2014.99,1334.56 
  "/>
<g clip-path="url(#clip090)">
<text style="fill:#000000; fill-opacity:1; font-family:Arial,Helvetica Neue,Helvetica,sans-serif; font-size:48px; text-anchor:middle;" transform="rotate(0, 282.024, 1413.15)" x="282.024" y="1413.15">−1</text>
</g>
<g clip-path="url(#clip090)">
<text style="fill:#000000; fill-opacity:1; font-family:Arial,Helvetica Neue,Helvetica,sans-serif; font-size:48px; text-anchor:middle;" transform="rotate(0, 859.679, 1413.15)" x="859.679" y="1413.15">0</text>
</g>
<g clip-path="url(#clip090)">
<text style="fill:#000000; fill-opacity:1; font-family:Arial,Helvetica Neue,Helvetica,sans-serif; font-size:48px; text-anchor:middle;" transform="rotate(0, 1437.33, 1413.15)" x="1437.33" y="1413.15">1</text>
</g>
<g clip-path="url(#clip090)">
<text style="fill:#000000; fill-opacity:1; font-family:Arial,Helvetica Neue,Helvetica,sans-serif; font-size:48px; text-anchor:middle;" transform="rotate(0, 2014.99, 1413.15)" x="2014.99" y="1413.15">2</text>
</g>
<g clip-path="url(#clip090)">
<text style="fill:#000000; fill-opacity:1; font-family:Arial,Helvetica Neue,Helvetica,sans-serif; font-size:66px; text-anchor:middle;" transform="rotate(0, 1148.51, 1497.16)" x="1148.51" y="1497.16">x</text>
</g>
<polyline clip-path="url(#clip092)" style="stroke:#000000; stroke-linecap:butt; stroke-linejoin:round; stroke-width:2; stroke-opacity:0.1; fill:none" points="
  215.754,1351.3 2081.26,1351.3 
  "/>
<polyline clip-path="url(#clip092)" style="stroke:#000000; stroke-linecap:butt; stroke-linejoin:round; stroke-width:2; stroke-opacity:0.1; fill:none" points="
  215.754,1062.47 2081.26,1062.47 
  "/>
<polyline clip-path="url(#clip092)" style="stroke:#000000; stroke-linecap:butt; stroke-linejoin:round; stroke-width:2; stroke-opacity:0.1; fill:none" points="
  215.754,773.647 2081.26,773.647 
  "/>
<polyline clip-path="url(#clip092)" style="stroke:#000000; stroke-linecap:butt; stroke-linejoin:round; stroke-width:2; stroke-opacity:0.1; fill:none" points="
  215.754,484.819 2081.26,484.819 
  "/>
<polyline clip-path="url(#clip092)" style="stroke:#000000; stroke-linecap:butt; stroke-linejoin:round; stroke-width:2; stroke-opacity:0.1; fill:none" points="
  215.754,195.991 2081.26,195.991 
  "/>
<polyline clip-path="url(#clip090)" style="stroke:#000000; stroke-linecap:butt; stroke-linejoin:round; stroke-width:4; stroke-opacity:1; fill:none" points="
  215.754,1351.3 215.754,195.991 
  "/>
<polyline clip-path="url(#clip090)" style="stroke:#000000; stroke-linecap:butt; stroke-linejoin:round; stroke-width:4; stroke-opacity:1; fill:none" points="
  215.754,1351.3 232.498,1351.3 
  "/>
<polyline clip-path="url(#clip090)" style="stroke:#000000; stroke-linecap:butt; stroke-linejoin:round; stroke-width:4; stroke-opacity:1; fill:none" points="
  215.754,1062.47 232.498,1062.47 
  "/>
<polyline clip-path="url(#clip090)" style="stroke:#000000; stroke-linecap:butt; stroke-linejoin:round; stroke-width:4; stroke-opacity:1; fill:none" points="
  215.754,773.647 232.498,773.647 
  "/>
<polyline clip-path="url(#clip090)" style="stroke:#000000; stroke-linecap:butt; stroke-linejoin:round; stroke-width:4; stroke-opacity:1; fill:none" points="
  215.754,484.819 232.498,484.819 
  "/>
<polyline clip-path="url(#clip090)" style="stroke:#000000; stroke-linecap:butt; stroke-linejoin:round; stroke-width:4; stroke-opacity:1; fill:none" points="
  215.754,195.991 232.498,195.991 
  "/>
<g clip-path="url(#clip090)">
<text style="fill:#000000; fill-opacity:1; font-family:Arial,Helvetica Neue,Helvetica,sans-serif; font-size:48px; text-anchor:middle;" transform="rotate(0, 146.301, 1368.8)" x="146.301" y="1368.8">0.0</text>
</g>
<g clip-path="url(#clip090)">
<text style="fill:#000000; fill-opacity:1; font-family:Arial,Helvetica Neue,Helvetica,sans-serif; font-size:48px; text-anchor:middle;" transform="rotate(0, 146.301, 1079.97)" x="146.301" y="1079.97">0.5</text>
</g>
<g clip-path="url(#clip090)">
<text style="fill:#000000; fill-opacity:1; font-family:Arial,Helvetica Neue,Helvetica,sans-serif; font-size:48px; text-anchor:middle;" transform="rotate(0, 146.301, 791.147)" x="146.301" y="791.147">1.0</text>
</g>
<g clip-path="url(#clip090)">
<text style="fill:#000000; fill-opacity:1; font-family:Arial,Helvetica Neue,Helvetica,sans-serif; font-size:48px; text-anchor:middle;" transform="rotate(0, 146.301, 502.319)" x="146.301" y="502.319">1.5</text>
</g>
<g clip-path="url(#clip090)">
<text style="fill:#000000; fill-opacity:1; font-family:Arial,Helvetica Neue,Helvetica,sans-serif; font-size:48px; text-anchor:middle;" transform="rotate(0, 146.301, 213.491)" x="146.301" y="213.491">2.0</text>
</g>
<g clip-path="url(#clip090)">
<text style="fill:#000000; fill-opacity:1; font-family:Arial,Helvetica Neue,Helvetica,sans-serif; font-size:66px; text-anchor:middle;" transform="rotate(-90, 65.2861, 773.647)" x="65.2861" y="773.647">y</text>
</g>
<g clip-path="url(#clip090)">
<text style="fill:#000000; fill-opacity:1; font-family:Arial,Helvetica Neue,Helvetica,sans-serif; font-size:84px; text-anchor:middle;" transform="rotate(0, 1148.51, 73.2)" x="1148.51" y="73.2">Error</text>
</g>
<polyline clip-path="url(#clip092)" style="stroke:#423e85; stroke-linecap:butt; stroke-linejoin:round; stroke-width:8; stroke-opacity:1; fill:none" points="
  912.831,1293.54 917.445,1297.06 931.886,1304.16 946.328,1308.47 960.769,1311.17 974.768,1312.79 975.21,1312.84 989.652,1313.78 1004.09,1314.2 1018.53,1314.22 
  1032.98,1313.89 1047.42,1313.27 1055.27,1312.79 1061.86,1312.37 1076.3,1311.2 1090.74,1309.76 1105.18,1308.07 1119.62,1306.11 1134.07,1303.86 1148.51,1301.29 
  1162.95,1298.39 1177.39,1295.09 1183.63,1293.54 1191.83,1291.3 1206.27,1286.94 1220.71,1281.95 1235.16,1276.22 1239.63,1274.28 1249.6,1269.43 1264.04,1261.41 
  1274.04,1255.03 1278.48,1251.79 1292.92,1239.93 1297.4,1235.77 1307.36,1224.93 1314.2,1216.52 1321.8,1205.35 1326.79,1197.26 1336.25,1178.55 1336.5,1178.01 
  1344.17,1158.75 1350.29,1139.5 1350.69,1138.05 1355.27,1120.24 1359.33,1100.99 1362.66,1081.73 1365.13,1064.67 1365.43,1062.47 1367.74,1043.22 1369.68,1023.96 
  1371.32,1004.71 1372.71,985.454 1373.91,966.199 1374.94,946.944 1375.83,927.688 1376.64,908.433 1377.35,889.178 1378,869.923 1378.61,850.668 1379.19,831.412 
  1379.57,818.992 1379.76,812.157 1380.27,792.902 1380.77,773.647 1381.26,754.392 1381.75,735.137 1382.22,715.881 1382.68,696.626 1383.11,677.371 1383.53,658.116 
  1383.94,638.861 1384.34,619.605 1384.74,600.35 1385.13,581.095 1385.56,561.84 1386.09,542.585 1386.89,523.329 1388.41,504.074 1392.1,484.819 1394.01,479.958 
  1395.12,465.564 1396.95,446.309 1399.22,427.054 1402,407.798 1405.3,388.543 1408.45,372.319 1408.69,369.288 1410.22,350.033 1411.66,330.778 1412.9,311.522 
  1413.76,292.267 1413.92,273.012 1412.64,253.757 1408.45,237.4 1405.62,234.502 1394.01,229.959 1379.57,234.228 1379.27,234.502 1371.17,253.757 1369.27,273.012 
  1369.6,292.267 1370.78,311.522 1372.19,330.778 1373.56,350.033 1374.75,369.288 1375.71,388.543 1376.4,407.798 1376.8,427.054 1376.86,446.309 1376.51,465.564 
  1375.58,484.819 1373.67,504.074 1369.44,523.329 1365.13,532.941 1363.46,542.585 1358.63,561.84 1350.69,579.571 1350.25,581.095 1343.39,600.35 1336.25,613.506 
  1333.7,619.605 1322.98,638.861 1321.8,640.54 1311.31,658.116 1307.36,663.321 1297.47,677.371 1292.92,682.73 1281.3,696.626 1278.48,699.536 1264.04,714.328 
  1262.49,715.881 1249.6,727.647 1240.64,735.137 1235.16,739.386 1220.71,750.031 1214.37,754.392 1206.27,759.714 1191.83,768.528 1182.7,773.647 1177.39,776.56 
  1162.95,784.125 1148.51,790.917 1144.11,792.902 1134.07,797.454 1119.62,803.578 1105.18,809.221 1097.32,812.157 1090.74,814.673 1076.3,820.013 1061.86,825.059 
  1047.42,829.886 1042.78,831.412 1032.98,834.81 1018.53,839.737 1004.09,844.619 989.652,849.548 986.424,850.668 975.21,854.935 960.769,860.723 946.328,867.098 
  940.524,869.923 931.886,874.864 917.445,884.914 912.545,889.178 903.003,900.151 897.673,908.433 889.341,927.688 888.562,930.171 884.523,946.944 881.409,966.199 
  879.272,985.454 877.772,1004.71 876.723,1023.96 876.014,1043.22 875.579,1062.47 875.383,1081.73 875.407,1100.99 875.652,1120.24 876.132,1139.5 876.881,1158.75 
  877.96,1178.01 879.464,1197.26 881.553,1216.52 884.498,1235.77 888.562,1254.13 888.846,1255.03 896.992,1274.28 903.003,1283.92 912.831,1293.54 
  "/>
<polyline clip-path="url(#clip092)" style="stroke:#472b7a; stroke-linecap:butt; stroke-linejoin:round; stroke-width:8; stroke-opacity:1; fill:none" points="
  946.328,1246.32 933.43,1235.77 931.886,1234.25 919.748,1216.52 917.445,1212.16 911.826,1197.26 906.486,1178.01 903.003,1160.52 902.735,1158.75 900.586,1139.5 
  899.201,1120.24 898.48,1100.99 898.373,1081.73 898.87,1062.47 900.009,1043.22 901.871,1023.96 903.003,1015.77 904.894,1004.71 909.378,985.454 915.53,966.199 
  917.445,961.535 925.01,946.944 931.886,936.594 939.337,927.688 946.328,920.79 960.769,909.267 962.009,908.433 975.21,900.654 989.652,893.357 999.002,889.178 
  1004.09,887.11 1018.53,881.811 1032.98,876.917 1047.42,872.314 1055.44,869.923 1061.86,868.117 1076.3,864.315 1090.74,860.643 1105.18,857.079 1119.62,853.617 
  1132.46,850.668 1134.07,850.309 1148.51,847.452 1162.95,844.809 1177.39,842.48 1191.83,840.637 1206.27,839.562 1220.71,839.722 1235.16,841.905 1249.6,847.476 
  1254.3,850.668 1264.04,860.332 1270.24,869.923 1278.08,889.178 1278.48,890.684 1282.38,908.433 1284.9,927.688 1286.17,946.944 1286.41,966.199 1285.76,985.454 
  1284.28,1004.71 1281.97,1023.96 1278.79,1043.22 1278.48,1044.65 1274.62,1062.47 1269.35,1081.73 1264.04,1097.4 1262.79,1100.99 1254.69,1120.24 1249.6,1130.23 
  1244.67,1139.5 1235.16,1154.41 1232.23,1158.75 1220.71,1173.2 1216.62,1178.01 1206.27,1188.42 1196.7,1197.26 1191.83,1201.17 1177.39,1211.86 1170.51,1216.52 
  1162.95,1221.03 1148.51,1228.88 1134.2,1235.77 1134.07,1235.83 1119.62,1241.59 1105.18,1246.63 1090.74,1250.99 1076.3,1254.68 1074.68,1255.03 1061.86,1257.56 
  1047.42,1259.77 1032.98,1261.29 1018.53,1262.05 1004.09,1261.93 989.652,1260.75 975.21,1258.23 964.445,1255.03 960.769,1253.8 946.328,1246.32 
  "/>
<polyline clip-path="url(#clip092)" style="stroke:#471669; stroke-linecap:butt; stroke-linejoin:round; stroke-width:8; stroke-opacity:1; fill:none" points="
  992.195,1197.26 1004.09,1199.49 1018.53,1200.08 1032.98,1198.92 1042.07,1197.26 1047.42,1196.17 1061.86,1191.76 1076.3,1186.04 1090.74,1179.04 1092.61,1178.01 
  1105.18,1169.91 1119.62,1159.29 1120.29,1158.75 1134.07,1145.64 1139.98,1139.5 1148.51,1128.79 1154.89,1120.24 1162.95,1106.83 1166.3,1100.99 1174.89,1081.73 
  1177.39,1074.06 1181.09,1062.47 1185.13,1043.22 1187.07,1023.96 1186.73,1004.71 1183.65,985.454 1177.39,967.462 1176.87,966.199 1163.39,946.944 1162.95,946.524 
  1148.51,935.892 1134.07,928.918 1130.23,927.688 1119.62,925.136 1105.18,923.232 1090.74,922.672 1076.3,923.238 1061.86,924.794 1047.42,927.275 1045.73,927.688 
  1032.98,931.131 1018.53,936.135 1004.09,942.359 995.537,946.944 989.652,950.56 975.21,961.628 970.424,966.199 960.769,977.283 955.113,985.454 946.328,1001.47 
  944.917,1004.71 938.572,1023.96 934.179,1043.22 931.886,1060.04 931.62,1062.47 930.874,1081.73 931.489,1100.99 931.886,1104.81 933.982,1120.24 938.642,1139.5 
  945.742,1158.75 946.328,1159.94 959.092,1178.01 960.769,1179.85 975.21,1190.47 989.652,1196.71 992.195,1197.26 
  "/>
<polyline clip-path="url(#clip092)" style="stroke:#3b518a; stroke-linecap:butt; stroke-linejoin:round; stroke-width:8; stroke-opacity:1; fill:none" points="
  989.652,812.216 975.21,816.149 960.769,819.695 946.328,822.803 931.886,825.344 917.445,827.022 903.003,827.097 888.562,823.223 878.577,812.157 874.121,802.872 
  871.898,792.902 869.147,773.647 867.454,754.392 866.303,735.137 865.465,715.881 864.826,696.626 864.321,677.371 863.911,658.116 863.573,638.861 863.29,619.605 
  863.052,600.35 862.851,581.095 862.682,561.84 862.544,542.585 862.434,523.329 862.354,504.074 862.306,484.819 862.295,465.564 862.332,446.309 862.434,427.054 
  862.635,407.798 863.002,388.543 863.7,369.288 865.22,350.033 870.084,330.778 874.121,325.279 882.736,311.522 888.562,306.365 901.127,292.267 903.003,290.584 
  917.445,274.315 918.496,273.012 931.886,256.442 934.063,253.757 946.328,237.057 948.512,234.502 960.769,217.704 963.686,215.247 975.21,204.309 989.652,201.044 
  1004.09,199.771 1018.53,199.117 1032.98,198.735 1047.42,198.497 1061.86,198.344 1076.3,198.248 1090.74,198.191 1105.18,198.164 1119.62,198.162 1134.07,198.182 
  1148.51,198.223 1162.95,198.286 1177.39,198.373 1191.83,198.488 1206.27,198.64 1220.71,198.839 1235.16,199.106 1249.6,199.473 1264.04,199.997 1278.48,200.798 
  1292.92,202.143 1307.36,204.818 1321.8,212.44 1324.28,215.247 1331.56,234.502 1334.7,253.757 1336.25,268.611 1336.72,273.012 1338.26,292.267 1339.18,311.522 
  1339.54,330.778 1339.32,350.033 1338.54,369.288 1337.14,388.543 1336.25,397.178 1335.31,407.798 1333.09,427.054 1330.25,446.309 1326.67,465.564 1322.22,484.819 
  1321.8,486.427 1317.64,504.074 1312.15,523.329 1307.36,537.459 1305.71,542.585 1298.76,561.84 1292.92,575.485 1290.57,581.095 1281.46,600.35 1278.48,605.958 
  1271.16,619.605 1264.04,631.308 1259.3,638.861 1249.6,652.813 1245.72,658.116 1235.16,671.421 1230.1,677.371 1220.71,687.722 1211.93,696.626 1206.27,702.078 
  1191.83,714.792 1190.52,715.881 1177.39,726.424 1165.15,735.137 1162.95,736.675 1148.51,746.202 1134.46,754.392 1134.07,754.622 1119.62,762.645 1105.18,769.826 
  1096.86,773.647 1090.74,776.499 1076.3,782.792 1061.86,788.529 1049.92,792.902 1047.42,793.855 1032.98,799.018 1018.53,803.772 1004.09,808.161 989.848,812.157 
  989.652,812.216 
  "/>
<polyline clip-path="url(#clip092)" style="stroke:#33618d; stroke-linecap:butt; stroke-linejoin:round; stroke-width:8; stroke-opacity:1; fill:none" points="
  1004.09,775.417 989.652,778.776 975.21,781.334 960.769,782.907 946.328,783.151 931.886,781.4 917.445,776.271 913.663,773.647 903.003,764.602 896.612,754.392 
  888.562,736.26 888.247,735.137 883.739,715.881 880.473,696.626 878.028,677.371 876.159,658.116 874.714,638.861 874.121,629.003 873.665,619.605 872.91,600.35 
  872.334,581.095 871.918,561.84 871.652,542.585 871.537,523.329 871.585,504.074 871.819,484.819 872.284,465.564 873.054,446.309 874.121,429.128 874.261,427.054 
  876.056,407.798 878.725,388.543 882.863,369.288 888.562,352.799 889.547,350.033 898.76,330.778 903.003,324.33 911.109,311.522 917.445,303.227 925.461,292.267 
  931.886,284.214 940.718,273.012 946.328,266.001 956.751,253.757 960.769,248.912 975.21,234.654 975.394,234.502 989.652,223.428 1004.09,216.661 1008.18,215.247 
  1018.53,212.234 1032.98,209.51 1047.42,207.748 1061.86,206.559 1076.3,205.742 1090.74,205.184 1105.18,204.821 1119.62,204.615 1134.07,204.542 1148.51,204.595 
  1162.95,204.772 1177.39,205.085 1191.83,205.555 1206.27,206.218 1220.71,207.135 1235.16,208.405 1249.6,210.198 1264.04,212.819 1273.43,215.247 1278.48,217.419 
  1292.92,226.515 1300.9,234.502 1307.36,247.209 1310.09,253.757 1314.73,273.012 1317.21,292.267 1318.41,311.522 1318.68,330.778 1318.18,350.033 1316.97,369.288 
  1315.09,388.543 1312.5,407.798 1309.17,427.054 1307.36,435.759 1305.29,446.309 1300.86,465.564 1295.53,484.819 1292.92,493.129 1289.56,504.074 1282.81,523.329 
  1278.48,534.2 1275.13,542.585 1266.51,561.84 1264.04,566.859 1256.87,581.095 1249.6,594.031 1245.9,600.35 1235.16,617.12 1233.47,619.605 1220.71,637.151 
  1219.38,638.861 1206.27,654.764 1203.28,658.116 1191.83,670.369 1184.66,677.371 1177.39,684.228 1162.95,696.515 1162.81,696.626 1148.51,707.827 1136.91,715.881 
  1134.07,717.837 1119.62,727.076 1105.41,735.137 1105.18,735.264 1090.74,742.971 1076.3,749.837 1065.67,754.392 1061.86,756.066 1047.42,761.84 1032.98,766.958 
  1018.53,771.457 1010.36,773.647 1004.09,775.417 
  "/>
<polyline clip-path="url(#clip092)" style="stroke:#2c718e; stroke-linecap:butt; stroke-linejoin:round; stroke-width:8; stroke-opacity:1; fill:none" points="
  1032.98,737.359 1018.53,741.716 1004.09,745.173 989.652,747.631 975.21,748.891 960.769,748.595 946.328,746.102 931.886,740.207 925.099,735.137 917.445,728.458 
  908.927,715.881 903.003,704.712 900.131,696.626 894.644,677.371 890.537,658.116 888.562,646.339 887.6,638.861 885.568,619.605 884.003,600.35 882.827,581.095 
  881.991,561.84 881.467,542.585 881.245,523.329 881.336,504.074 881.77,484.819 882.606,465.564 883.945,446.309 885.954,427.054 888.562,409.922 888.909,407.798 
  893.04,388.543 898.888,369.288 903.003,359.295 906.905,350.033 917.409,330.778 917.445,330.722 929.726,311.522 931.886,308.579 943.75,292.267 946.328,288.977 
  959.187,273.012 960.769,271.119 975.21,255.283 976.772,253.757 989.652,242.067 1000.51,234.502 1004.09,232.277 1018.53,225.346 1032.98,220.578 1047.42,217.181 
  1058.5,215.247 1061.86,214.774 1076.3,213.236 1090.74,212.177 1105.18,211.478 1119.62,211.067 1134.07,210.902 1148.51,210.966 1162.95,211.258 1177.39,211.797 
  1191.83,212.621 1206.27,213.795 1219.22,215.247 1220.71,215.487 1235.16,218.487 1249.6,222.764 1264.04,229.047 1272.94,234.502 1278.48,240.312 1288.23,253.757 
  1292.92,266.012 1295.32,273.012 1299.03,292.267 1300.76,311.522 1301.16,330.778 1300.52,350.033 1298.98,369.288 1296.61,388.543 1293.4,407.798 1292.92,410.181 
  1289.63,427.054 1285.08,446.309 1279.63,465.564 1278.48,469.212 1273.56,484.819 1266.55,504.074 1264.04,510.314 1258.7,523.329 1249.74,542.585 1249.6,542.875 
  1239.84,561.84 1235.16,570.1 1228.6,581.095 1220.71,593.316 1215.89,600.35 1206.27,613.491 1201.46,619.605 1191.83,631.245 1184.98,638.861 1177.39,646.976 
  1165.94,658.116 1162.95,660.945 1148.51,673.52 1143.64,677.371 1134.07,684.845 1119.62,694.933 1116.98,696.626 1105.18,704.166 1090.74,712.373 1083.87,715.881 
  1076.3,719.794 1061.86,726.454 1047.42,732.264 1039.16,735.137 1032.98,737.359 
  "/>
<polyline clip-path="url(#clip092)" style="stroke:#26808e; stroke-linecap:butt; stroke-linejoin:round; stroke-width:8; stroke-opacity:1; fill:none" points="
  1061.86,698.588 1047.42,704.572 1032.98,709.556 1018.53,713.518 1006.53,715.881 1004.09,716.381 989.652,717.968 975.21,717.905 962.166,715.881 960.769,715.652 
  946.328,710.273 931.886,699.912 929.031,696.626 917.445,680.531 915.934,677.371 908.284,658.116 903.003,640.431 902.655,638.861 899.061,619.605 896.321,600.35 
  894.276,581.095 892.823,561.84 891.898,542.585 891.467,523.329 891.526,504.074 892.099,484.819 893.24,465.564 895.052,446.309 897.7,427.054 901.446,407.798 
  903.003,401.759 906.59,388.543 913.422,369.288 917.445,360.394 922.23,350.033 931.886,332.911 933.103,330.778 945.729,311.522 946.328,310.702 959.99,292.267 
  960.769,291.293 975.21,274.121 976.215,273.012 989.652,259.395 996.135,253.757 1004.09,247.545 1018.53,238.586 1026.87,234.502 1032.98,231.983 1047.42,227.387 
  1061.86,224.061 1076.3,221.646 1090.74,219.92 1105.18,218.746 1119.62,218.039 1134.07,217.755 1148.51,217.878 1162.95,218.423 1177.39,219.433 1191.83,220.99 
  1206.27,223.229 1220.71,226.366 1235.16,230.75 1244.37,234.502 1249.6,237.859 1264.04,250.303 1267.16,253.757 1277.09,273.012 1278.48,278.069 1282.11,292.267 
  1284.48,311.522 1285.1,330.778 1284.44,350.033 1282.69,369.288 1279.96,388.543 1278.48,396.524 1276.41,407.798 1272.06,427.054 1266.8,446.309 1264.04,455.112 
  1260.71,465.564 1253.76,484.819 1249.6,495.056 1245.82,504.074 1236.86,523.329 1235.16,526.712 1226.8,542.585 1220.71,553.152 1215.42,561.84 1206.27,575.791 
  1202.55,581.095 1191.83,595.519 1187.95,600.35 1177.39,612.909 1171.24,619.605 1162.95,628.331 1151.91,638.861 1148.51,642.028 1134.07,654.314 1129.12,658.116 
  1119.62,665.341 1105.18,675.132 1101.51,677.371 1090.74,683.966 1076.3,691.753 1065.96,696.626 1061.86,698.588 
  "/>
<polyline clip-path="url(#clip092)" style="stroke:#208f8c; stroke-linecap:butt; stroke-linejoin:round; stroke-width:8; stroke-opacity:1; fill:none" points="
  1047.42,677.992 1032.98,682.834 1018.53,686.427 1004.09,688.632 989.652,689.183 975.21,687.622 960.769,683.177 950.797,677.371 946.328,674.441 931.886,658.59 
  931.597,658.116 921.711,638.861 917.445,628.107 914.958,619.605 910.461,600.35 907.122,581.095 904.742,561.84 903.19,542.585 903.003,538.24 902.452,523.329 
  902.36,504.074 902.917,484.819 903.003,483.502 904.271,465.564 906.458,446.309 909.61,427.054 913.942,407.798 917.445,396.005 919.762,388.543 927.237,369.288 
  931.886,359.586 936.566,350.033 946.328,333.18 947.746,330.778 960.673,311.522 960.769,311.393 975.21,292.593 975.474,292.267 989.652,276.406 993,273.012 
  1004.09,262.926 1016.09,253.757 1018.53,252.127 1032.98,244.1 1047.42,237.961 1057.85,234.502 1061.86,233.413 1076.3,230.391 1090.74,228.249 1105.18,226.81 
  1119.62,225.97 1134.07,225.672 1148.51,225.899 1162.95,226.67 1177.39,228.045 1191.83,230.13 1206.27,233.103 1211.47,234.502 1220.71,238.189 1235.16,246.022 
  1245.61,253.757 1249.6,258.637 1259.1,273.012 1264.04,286.969 1265.72,292.267 1268.85,311.522 1269.81,330.778 1269.2,350.033 1267.31,369.288 1264.32,388.543 
  1264.04,389.923 1260.39,407.798 1255.51,427.054 1249.62,446.309 1249.6,446.367 1242.86,465.564 1235.16,484.5 1235.02,484.819 1226.17,504.074 1220.71,514.781 
  1216.11,523.329 1206.27,540.125 1204.73,542.585 1191.86,561.84 1191.83,561.875 1177.39,580.856 1177.19,581.095 1162.95,597.597 1160.34,600.35 1148.51,612.44 
  1140.73,619.605 1134.07,625.61 1119.62,637.293 1117.48,638.861 1105.18,647.763 1090.74,656.939 1088.65,658.116 1076.3,665.088 1061.86,672.092 1048.91,677.371 
  1047.42,677.992 
  "/>
<polyline clip-path="url(#clip092)" style="stroke:#1e9e88; stroke-linecap:butt; stroke-linejoin:round; stroke-width:8; stroke-opacity:1; fill:none" points="
  1076.3,639.268 1061.86,646.389 1047.42,652.223 1032.98,656.742 1026.47,658.116 1018.53,659.832 1004.09,661.242 989.652,660.601 978.633,658.116 975.21,657.279 
  960.769,650.087 948.084,638.861 946.328,637.029 935.308,619.605 931.886,612.73 927.41,600.35 922.082,581.095 918.271,561.84 917.445,555.841 915.953,542.585 
  914.664,523.329 914.232,504.074 914.649,484.819 915.953,465.564 917.445,452.924 918.281,446.309 921.814,427.054 926.584,407.798 931.886,391.376 932.84,388.543 
  940.787,369.288 946.328,358.173 950.491,350.033 960.769,332.75 961.975,330.778 975.21,311.669 975.316,311.522 989.652,293.777 990.96,292.267 1004.09,278.743 
  1010.35,273.012 1018.53,266.431 1032.98,256.694 1038.18,253.757 1047.42,249.383 1061.86,244.021 1076.3,239.973 1090.74,237.003 1105.18,234.959 1110.65,234.502 
  1119.62,233.9 1134.07,233.589 1148.51,233.919 1157.03,234.502 1162.95,235.04 1177.39,237.322 1191.83,240.803 1206.27,245.801 1220.71,252.81 1222.28,253.757 
  1235.16,266.236 1240.62,273.012 1249.32,292.267 1249.6,293.476 1253.4,311.522 1254.8,330.778 1254.32,350.033 1252.37,369.288 1249.6,385.918 1249.15,388.543 
  1244.83,407.798 1239.44,427.054 1235.16,439.975 1232.98,446.309 1225.45,465.564 1220.71,476.324 1216.77,484.819 1206.89,504.074 1206.27,505.195 1195.62,523.329 
  1191.83,529.314 1182.79,542.585 1177.39,550.049 1168.12,561.84 1162.95,568.12 1151.22,581.095 1148.51,583.993 1134.07,598.009 1131.39,600.35 1119.62,610.432 
  1107.51,619.605 1105.18,621.347 1090.74,630.967 1077.01,638.861 1076.3,639.268 
  "/>
<polyline clip-path="url(#clip092)" style="stroke:#27ad80; stroke-linecap:butt; stroke-linejoin:round; stroke-width:8; stroke-opacity:1; fill:none" points="
  1061.86,621.065 1047.42,626.725 1032.98,630.852 1018.53,633.273 1004.09,633.668 989.652,631.493 975.21,625.855 966.353,619.605 960.769,614.991 949.597,600.35 
  946.328,594.941 940.382,581.095 934.29,561.84 931.886,551.023 930.407,542.585 928.213,523.329 927.195,504.074 927.285,484.819 928.469,465.564 930.787,446.309 
  931.886,440.34 934.482,427.054 939.561,407.798 946.087,388.543 946.328,387.967 954.404,369.288 960.769,356.907 964.416,350.033 975.21,332.414 976.252,330.778 
  989.652,312.233 990.194,311.522 1004.09,295.428 1007.07,292.267 1018.53,281.587 1029.09,273.012 1032.98,270.29 1047.42,261.783 1061.86,254.97 1065.08,253.757 
  1076.3,250.294 1090.74,247.037 1105.18,244.85 1119.62,243.635 1134.07,243.353 1148.51,244.022 1162.95,245.719 1177.39,248.591 1191.83,252.881 1194.07,253.757 
  1206.27,260.941 1220.71,272.826 1220.9,273.012 1232.27,292.267 1235.16,301.939 1237.69,311.522 1239.69,330.778 1239.44,350.033 1237.47,369.288 1235.16,382.486 
  1234.06,388.543 1229.35,407.798 1223.47,427.054 1220.71,434.742 1216.36,446.309 1208.07,465.564 1206.27,469.326 1198.42,484.819 1191.83,496.625 1187.36,504.074 
  1177.39,519.498 1174.7,523.329 1162.95,539.1 1160.1,542.585 1148.51,556.134 1143.1,561.84 1134.07,571.046 1123.02,581.095 1119.62,584.115 1105.18,595.54 
  1098.23,600.35 1090.74,605.472 1076.3,613.964 1064.82,619.605 1061.86,621.065 
  "/>
<polyline clip-path="url(#clip092)" style="stroke:#3dbb74; stroke-linecap:butt; stroke-linejoin:round; stroke-width:8; stroke-opacity:1; fill:none" points="
  1047.42,601.089 1032.98,604.649 1018.53,606.173 1004.09,605.218 989.652,601.048 988.382,600.35 975.21,591.877 965.356,581.095 960.769,574.736 954.37,561.84 
  947.565,542.585 946.328,537.4 943.717,523.329 941.716,504.074 941.185,484.819 942.026,465.564 944.205,446.309 946.328,434.855 947.861,427.054 953.116,407.798 
  959.82,388.543 960.769,386.344 968.408,369.288 975.21,356.421 978.723,350.033 989.652,332.831 991.022,330.778 1004.09,313.669 1005.85,311.522 1018.53,298.026 
  1024.55,292.267 1032.98,285.301 1047.42,275.08 1050.89,273.012 1061.86,267.577 1076.3,261.978 1090.74,257.815 1105.18,254.986 1116.79,253.757 1119.62,253.517 
  1134.07,253.358 1140.35,253.757 1148.51,254.453 1162.95,257.268 1177.39,261.98 1191.83,269.033 1197.88,273.012 1206.27,281.882 1213.88,292.267 1220.71,309.843 
  1221.27,311.522 1224.09,330.778 1224.2,350.033 1222.3,369.288 1220.71,377.927 1218.69,388.543 1213.6,407.798 1207.23,427.054 1206.27,429.518 1199.37,446.309 
  1191.83,462.353 1190.21,465.564 1179.47,484.819 1177.39,488.257 1166.98,504.074 1162.95,509.801 1152.49,523.329 1148.51,528.216 1135.52,542.585 1134.07,544.131 
  1119.62,557.895 1114.93,561.84 1105.18,569.818 1090.74,580.066 1089.03,581.095 1076.3,588.661 1061.86,595.681 1049.39,600.35 1047.42,601.089 
  "/>
<polyline clip-path="url(#clip092)" style="stroke:#5bc862; stroke-linecap:butt; stroke-linejoin:round; stroke-width:8; stroke-opacity:1; fill:none" points="
  1076.3,562.905 1061.86,569.685 1047.42,574.605 1032.98,577.422 1018.53,577.693 1004.09,574.673 989.652,567.129 983.851,561.84 975.21,551.738 970.067,542.585 
  962.541,523.329 960.769,516.002 958.572,504.074 956.937,484.819 957.08,465.564 958.855,446.309 960.769,435.419 962.333,427.054 967.589,407.798 974.354,388.543 
  975.21,386.601 983.187,369.288 989.652,357.414 993.873,350.033 1004.09,334.675 1006.86,330.778 1018.53,316.559 1023.05,311.522 1032.98,302.021 1044.54,292.267 
  1047.42,290.208 1061.86,281.578 1076.3,274.649 1080.83,273.012 1090.74,270.102 1105.18,267.334 1119.62,266.008 1134.07,266.162 1148.51,267.911 1162.95,271.465 
  1167.07,273.012 1177.39,278.853 1191.83,290.906 1193.08,292.267 1203.25,311.522 1206.27,324.467 1207.53,330.778 1208.19,350.033 1206.45,369.288 1206.27,370.245 
  1202.63,388.543 1197.18,407.798 1191.83,422.817 1190.21,427.054 1181.55,446.309 1177.39,454.46 1171.23,465.564 1162.95,479.086 1159.09,484.819 1148.51,499.389 
  1144.72,504.074 1134.07,516.526 1127.51,523.329 1119.62,531.163 1106.5,542.585 1105.18,543.696 1090.74,554.161 1078.09,561.84 1076.3,562.905 
  "/>
<polyline clip-path="url(#clip092)" style="stroke:#81d34c; stroke-linecap:butt; stroke-linejoin:round; stroke-width:8; stroke-opacity:1; fill:none" points="
  1090.74,527.137 1076.3,535.774 1061.86,542.426 1061.31,542.585 1047.42,546.533 1032.98,548.035 1018.53,546.272 1009.56,542.585 1004.09,539.781 989.652,525.21 
  988.473,523.329 980.071,504.074 975.622,484.819 975.21,479.442 974.396,465.564 975.21,449.002 975.354,446.309 978.532,427.054 983.518,407.798 989.652,390.108 
  990.227,388.543 999.301,369.288 1004.09,360.787 1010.55,350.033 1018.53,338.737 1024.64,330.778 1032.98,321.537 1043.06,311.522 1047.42,307.877 1061.86,297.629 
  1071.1,292.267 1076.3,289.795 1090.74,284.761 1105.18,281.553 1119.62,280.27 1134.07,281.104 1148.51,284.365 1162.95,290.514 1165.74,292.267 1177.39,304.348 
  1182.38,311.522 1188.97,330.778 1190.72,350.033 1189.2,369.288 1185.32,388.543 1179.56,407.798 1177.39,413.458 1171.72,427.054 1162.95,444.902 1162.18,446.309 
  1150.37,465.564 1148.51,468.334 1136.12,484.819 1134.07,487.358 1119.62,503.178 1118.68,504.074 1105.18,516.23 1095.91,523.329 1090.74,527.137 
  "/>
<polyline clip-path="url(#clip092)" style="stroke:#aadb32; stroke-linecap:butt; stroke-linejoin:round; stroke-width:8; stroke-opacity:1; fill:none" points="
  1076.3,506.26 1061.86,512.002 1047.42,514.861 1032.98,513.996 1018.53,507.906 1014.16,504.074 1004.09,490.791 1001.36,484.819 996.648,465.564 995.675,446.309 
  997.581,427.054 1001.81,407.798 1004.09,401.056 1008.65,388.543 1017.66,369.288 1018.53,367.814 1029.9,350.033 1032.98,346.028 1045.96,330.778 1047.42,329.354 
  1061.86,317.376 1070.41,311.522 1076.3,308.251 1090.74,302.484 1105.18,299.046 1119.62,298.295 1134.07,300.76 1148.51,307.198 1154.28,311.522 1162.95,323.489 
  1166.62,330.778 1170.25,350.033 1169.56,369.288 1165.86,388.543 1162.95,397.847 1159.49,407.798 1150.8,427.054 1148.51,431.297 1139.41,446.309 1134.07,454.108 
  1125.11,465.564 1119.62,471.972 1106.84,484.819 1105.18,486.373 1090.74,497.521 1080.05,504.074 1076.3,506.26 
  "/>
<polyline clip-path="url(#clip092)" style="stroke:#d4e11a; stroke-linecap:butt; stroke-linejoin:round; stroke-width:8; stroke-opacity:1; fill:none" points="
  1076.3,470.661 1061.86,474.916 1047.42,474.323 1032.98,466.135 1032.5,465.564 1024.11,446.309 1022.63,427.054 1025.57,407.798 1031.58,388.543 1032.98,385.61 
  1041.7,369.288 1047.42,361.039 1056.22,350.033 1061.86,344.496 1076.3,333.019 1080.35,330.778 1090.74,326.368 1105.18,323.585 1119.62,324.968 1131.91,330.778 
  1134.07,332.862 1143.22,350.033 1144.87,369.288 1141.4,388.543 1134.67,407.798 1134.07,409.022 1123.73,427.054 1119.62,433.019 1108.72,446.309 1105.18,450.092 
  1090.74,462.379 1085.53,465.564 1076.3,470.661 
  "/>
<polyline clip-path="url(#clip092)" style="stroke:#423e85; stroke-linecap:butt; stroke-linejoin:round; stroke-width:8; stroke-opacity:1; fill:none" points="
  903.003,240.492 888.562,244.509 885.655,234.502 888.562,229.018 903.003,227.902 907.298,234.502 903.003,240.492 
  "/>
<defs>
  <clipPath id="clip093">
    <rect x="2129" y="195" width="73" height="1156"/>
  </clipPath>
</defs>
<polyline clip-path="url(#clip093)" style="stroke:#47186a; stroke-linecap:butt; stroke-linejoin:round; stroke-width:8; stroke-opacity:1; fill:none" points="
  2129.26,1279.1 2201.26,1279.1 
  "/>
<polyline clip-path="url(#clip093)" style="stroke:#472c7b; stroke-linecap:butt; stroke-linejoin:round; stroke-width:8; stroke-opacity:1; fill:none" points="
  2129.26,1206.89 2201.26,1206.89 
  "/>
<polyline clip-path="url(#clip093)" style="stroke:#424085; stroke-linecap:butt; stroke-linejoin:round; stroke-width:8; stroke-opacity:1; fill:none" points="
  2129.26,1134.68 2201.26,1134.68 
  "/>
<polyline clip-path="url(#clip093)" style="stroke:#3a528b; stroke-linecap:butt; stroke-linejoin:round; stroke-width:8; stroke-opacity:1; fill:none" points="
  2129.26,1062.47 2201.26,1062.47 
  "/>
<polyline clip-path="url(#clip093)" style="stroke:#32628d; stroke-linecap:butt; stroke-linejoin:round; stroke-width:8; stroke-opacity:1; fill:none" points="
  2129.26,990.268 2201.26,990.268 
  "/>
<polyline clip-path="url(#clip093)" style="stroke:#2c728e; stroke-linecap:butt; stroke-linejoin:round; stroke-width:8; stroke-opacity:1; fill:none" points="
  2129.26,918.061 2201.26,918.061 
  "/>
<polyline clip-path="url(#clip093)" style="stroke:#26818e; stroke-linecap:butt; stroke-linejoin:round; stroke-width:8; stroke-opacity:1; fill:none" points="
  2129.26,845.854 2201.26,845.854 
  "/>
<polyline clip-path="url(#clip093)" style="stroke:#20908c; stroke-linecap:butt; stroke-linejoin:round; stroke-width:8; stroke-opacity:1; fill:none" points="
  2129.26,773.647 2201.26,773.647 
  "/>
<polyline clip-path="url(#clip093)" style="stroke:#1e9e88; stroke-linecap:butt; stroke-linejoin:round; stroke-width:8; stroke-opacity:1; fill:none" points="
  2129.26,701.44 2201.26,701.44 
  "/>
<polyline clip-path="url(#clip093)" style="stroke:#27ad80; stroke-linecap:butt; stroke-linejoin:round; stroke-width:8; stroke-opacity:1; fill:none" points="
  2129.26,629.233 2201.26,629.233 
  "/>
<polyline clip-path="url(#clip093)" style="stroke:#3dbb74; stroke-linecap:butt; stroke-linejoin:round; stroke-width:8; stroke-opacity:1; fill:none" points="
  2129.26,557.026 2201.26,557.026 
  "/>
<polyline clip-path="url(#clip093)" style="stroke:#5bc862; stroke-linecap:butt; stroke-linejoin:round; stroke-width:8; stroke-opacity:1; fill:none" points="
  2129.26,484.819 2201.26,484.819 
  "/>
<polyline clip-path="url(#clip093)" style="stroke:#81d34c; stroke-linecap:butt; stroke-linejoin:round; stroke-width:8; stroke-opacity:1; fill:none" points="
  2129.26,412.612 2201.26,412.612 
  "/>
<polyline clip-path="url(#clip093)" style="stroke:#aadb32; stroke-linecap:butt; stroke-linejoin:round; stroke-width:8; stroke-opacity:1; fill:none" points="
  2129.26,340.405 2201.26,340.405 
  "/>
<polyline clip-path="url(#clip093)" style="stroke:#d4e11a; stroke-linecap:butt; stroke-linejoin:round; stroke-width:8; stroke-opacity:1; fill:none" points="
  2129.26,268.198 2201.26,268.198 
  "/>
<g clip-path="url(#clip090)">
<text style="fill:#000000; fill-opacity:1; font-family:Arial,Helvetica Neue,Helvetica,sans-serif; font-size:48px; text-anchor:start;" transform="rotate(0, 2237.26, 1268.72)" x="2237.26" y="1268.72">-</text>
</g>
<g clip-path="url(#clip090)">
<text style="fill:#000000; fill-opacity:1; font-family:Arial,Helvetica Neue,Helvetica,sans-serif; font-size:48px; text-anchor:start;" transform="rotate(0, 2265.37, 1268.72)" x="2265.37" y="1268.72">0.00025</text>
</g>
<g clip-path="url(#clip090)">
<text style="fill:#000000; fill-opacity:1; font-family:Arial,Helvetica Neue,Helvetica,sans-serif; font-size:48px; text-anchor:start;" transform="rotate(0, 2237.26, 1093.86)" x="2237.26" y="1093.86">0</text>
</g>
<g clip-path="url(#clip090)">
<text style="fill:#000000; fill-opacity:1; font-family:Arial,Helvetica Neue,Helvetica,sans-serif; font-size:48px; text-anchor:start;" transform="rotate(0, 2237.26, 919.007)" x="2237.26" y="919.007">0.00025</text>
</g>
<g clip-path="url(#clip090)">
<text style="fill:#000000; fill-opacity:1; font-family:Arial,Helvetica Neue,Helvetica,sans-serif; font-size:48px; text-anchor:start;" transform="rotate(0, 2237.26, 744.152)" x="2237.26" y="744.152">0.00050</text>
</g>
<g clip-path="url(#clip090)">
<text style="fill:#000000; fill-opacity:1; font-family:Arial,Helvetica Neue,Helvetica,sans-serif; font-size:48px; text-anchor:start;" transform="rotate(0, 2237.26, 569.298)" x="2237.26" y="569.298">0.00075</text>
</g>
<g clip-path="url(#clip090)">
<text style="fill:#000000; fill-opacity:1; font-family:Arial,Helvetica Neue,Helvetica,sans-serif; font-size:48px; text-anchor:start;" transform="rotate(0, 2237.26, 394.444)" x="2237.26" y="394.444">0.00100</text>
</g>
<g clip-path="url(#clip090)">
<text style="fill:#000000; fill-opacity:1; font-family:Arial,Helvetica Neue,Helvetica,sans-serif; font-size:48px; text-anchor:start;" transform="rotate(0, 2237.26, 219.589)" x="2237.26" y="219.589">0.00125</text>
</g>
<polyline clip-path="url(#clip090)" style="stroke:#000000; stroke-linecap:butt; stroke-linejoin:round; stroke-width:4; stroke-opacity:1; fill:none" points="
  2201.26,1351.3 2201.26,1255.06 2225.26,1255.06 2201.26,1255.06 2201.26,1080.21 2225.26,1080.21 2201.26,1080.21 2201.26,905.356 2225.26,905.356 2201.26,905.356 
  2201.26,730.501 2225.26,730.501 2201.26,730.501 2201.26,555.647 2225.26,555.647 2201.26,555.647 2201.26,380.792 2225.26,380.792 2201.26,380.792 2201.26,205.938 
  2225.26,205.938 2201.26,205.938 2201.26,195.991 
  "/>
</svg>
