<?xml version="1.0" encoding="utf-8"?>
<svg xmlns="http://www.w3.org/2000/svg" xmlns:xlink="http://www.w3.org/1999/xlink" width="600" height="400" viewBox="0 0 2400 1600">
<defs>
  <clipPath id="clip540">
    <rect x="0" y="0" width="2400" height="1600"/>
  </clipPath>
</defs>
<path clip-path="url(#clip540)" d="
M0 1600 L2400 1600 L2400 0 L0 0  Z
  " fill="#ffffff" fill-rule="evenodd" fill-opacity="1"/>
<defs>
  <clipPath id="clip541">
    <rect x="480" y="0" width="1681" height="1600"/>
  </clipPath>
</defs>
<path clip-path="url(#clip540)" d="
M219.38 1348.98 L2081.26 1348.98 L2081.26 197.675 L219.38 197.675  Z
  " fill="#ffffff" fill-rule="evenodd" fill-opacity="1"/>
<defs>
  <clipPath id="clip542">
    <rect x="219" y="197" width="1863" height="1152"/>
  </clipPath>
</defs>
<polyline clip-path="url(#clip542)" style="stroke:#000000; stroke-linecap:butt; stroke-linejoin:round; stroke-width:2; stroke-opacity:0.1; fill:none" points="
  286.843,1348.98 286.843,197.675 
  "/>
<polyline clip-path="url(#clip542)" style="stroke:#000000; stroke-linecap:butt; stroke-linejoin:round; stroke-width:2; stroke-opacity:0.1; fill:none" points="
  862.494,1348.98 862.494,197.675 
  "/>
<polyline clip-path="url(#clip542)" style="stroke:#000000; stroke-linecap:butt; stroke-linejoin:round; stroke-width:2; stroke-opacity:0.1; fill:none" points="
  1438.15,1348.98 1438.15,197.675 
  "/>
<polyline clip-path="url(#clip542)" style="stroke:#000000; stroke-linecap:butt; stroke-linejoin:round; stroke-width:2; stroke-opacity:0.1; fill:none" points="
  2013.8,1348.98 2013.8,197.675 
  "/>
<polyline clip-path="url(#clip540)" style="stroke:#000000; stroke-linecap:butt; stroke-linejoin:round; stroke-width:4; stroke-opacity:1; fill:none" points="
  219.38,1348.98 2081.26,1348.98 
  "/>
<polyline clip-path="url(#clip540)" style="stroke:#000000; stroke-linecap:butt; stroke-linejoin:round; stroke-width:4; stroke-opacity:1; fill:none" points="
  286.843,1348.98 286.843,1332.24 
  "/>
<polyline clip-path="url(#clip540)" style="stroke:#000000; stroke-linecap:butt; stroke-linejoin:round; stroke-width:4; stroke-opacity:1; fill:none" points="
  862.494,1348.98 862.494,1332.24 
  "/>
<polyline clip-path="url(#clip540)" style="stroke:#000000; stroke-linecap:butt; stroke-linejoin:round; stroke-width:4; stroke-opacity:1; fill:none" points="
  1438.15,1348.98 1438.15,1332.24 
  "/>
<polyline clip-path="url(#clip540)" style="stroke:#000000; stroke-linecap:butt; stroke-linejoin:round; stroke-width:4; stroke-opacity:1; fill:none" points="
  2013.8,1348.98 2013.8,1332.24 
  "/>
<path clip-path="url(#clip540)" d="M256.6 1394.55 L286.276 1394.55 L286.276 1398.48 L256.6 1398.48 L256.6 1394.55 Z" fill="#000000" fill-rule="evenodd" fill-opacity="1" /><path clip-path="url(#clip540)" d="M297.179 1407.44 L304.818 1407.44 L304.818 1381.08 L296.507 1382.74 L296.507 1378.48 L304.771 1376.82 L309.447 1376.82 L309.447 1407.44 L317.086 1407.44 L317.086 1411.38 L297.179 1411.38 L297.179 1407.44 Z" fill="#000000" fill-rule="evenodd" fill-opacity="1" /><path clip-path="url(#clip540)" d="M862.494 1379.9 Q858.883 1379.9 857.055 1383.46 Q855.249 1387 855.249 1394.13 Q855.249 1401.24 857.055 1404.8 Q858.883 1408.34 862.494 1408.34 Q866.129 1408.34 867.934 1404.8 Q869.763 1401.24 869.763 1394.13 Q869.763 1387 867.934 1383.46 Q866.129 1379.9 862.494 1379.9 M862.494 1376.19 Q868.305 1376.19 871.36 1380.8 Q874.439 1385.38 874.439 1394.13 Q874.439 1402.86 871.36 1407.47 Q868.305 1412.05 862.494 1412.05 Q856.684 1412.05 853.606 1407.47 Q850.55 1402.86 850.55 1394.13 Q850.55 1385.38 853.606 1380.8 Q856.684 1376.19 862.494 1376.19 Z" fill="#000000" fill-rule="evenodd" fill-opacity="1" /><path clip-path="url(#clip540)" d="M1428.53 1407.44 L1436.17 1407.44 L1436.17 1381.08 L1427.86 1382.74 L1427.86 1378.48 L1436.12 1376.82 L1440.8 1376.82 L1440.8 1407.44 L1448.43 1407.44 L1448.43 1411.38 L1428.53 1411.38 L1428.53 1407.44 Z" fill="#000000" fill-rule="evenodd" fill-opacity="1" /><path clip-path="url(#clip540)" d="M2008.45 1407.44 L2024.77 1407.44 L2024.77 1411.38 L2002.82 1411.38 L2002.82 1407.44 Q2005.49 1404.69 2010.07 1400.06 Q2014.68 1395.41 2015.86 1394.06 Q2018.1 1391.54 2018.98 1389.8 Q2019.88 1388.04 2019.88 1386.35 Q2019.88 1383.6 2017.94 1381.86 Q2016.02 1380.13 2012.92 1380.13 Q2010.72 1380.13 2008.26 1380.89 Q2005.83 1381.66 2003.06 1383.21 L2003.06 1378.48 Q2005.88 1377.35 2008.33 1376.77 Q2010.79 1376.19 2012.82 1376.19 Q2018.2 1376.19 2021.39 1378.88 Q2024.58 1381.56 2024.58 1386.05 Q2024.58 1388.18 2023.77 1390.1 Q2022.99 1392 2020.88 1394.59 Q2020.3 1395.27 2017.2 1398.48 Q2014.1 1401.68 2008.45 1407.44 Z" fill="#000000" fill-rule="evenodd" fill-opacity="1" /><path clip-path="url(#clip540)" d="M1166.93 1458.19 L1154.04 1475.54 L1167.6 1493.84 L1160.7 1493.84 L1150.32 1479.84 L1139.94 1493.84 L1133.04 1493.84 L1146.88 1475.19 L1134.21 1458.19 L1141.12 1458.19 L1150.57 1470.89 L1160.03 1458.19 L1166.93 1458.19 Z" fill="#000000" fill-rule="evenodd" fill-opacity="1" /><polyline clip-path="url(#clip542)" style="stroke:#000000; stroke-linecap:butt; stroke-linejoin:round; stroke-width:2; stroke-opacity:0.1; fill:none" points="
  219.38,1348.98 2081.26,1348.98 
  "/>
<polyline clip-path="url(#clip542)" style="stroke:#000000; stroke-linecap:butt; stroke-linejoin:round; stroke-width:2; stroke-opacity:0.1; fill:none" points="
  219.38,1061.15 2081.26,1061.15 
  "/>
<polyline clip-path="url(#clip542)" style="stroke:#000000; stroke-linecap:butt; stroke-linejoin:round; stroke-width:2; stroke-opacity:0.1; fill:none" points="
  219.38,773.326 2081.26,773.326 
  "/>
<polyline clip-path="url(#clip542)" style="stroke:#000000; stroke-linecap:butt; stroke-linejoin:round; stroke-width:2; stroke-opacity:0.1; fill:none" points="
  219.38,485.5 2081.26,485.5 
  "/>
<polyline clip-path="url(#clip542)" style="stroke:#000000; stroke-linecap:butt; stroke-linejoin:round; stroke-width:2; stroke-opacity:0.1; fill:none" points="
  219.38,197.675 2081.26,197.675 
  "/>
<polyline clip-path="url(#clip540)" style="stroke:#000000; stroke-linecap:butt; stroke-linejoin:round; stroke-width:4; stroke-opacity:1; fill:none" points="
  219.38,1348.98 219.38,197.675 
  "/>
<polyline clip-path="url(#clip540)" style="stroke:#000000; stroke-linecap:butt; stroke-linejoin:round; stroke-width:4; stroke-opacity:1; fill:none" points="
  219.38,1348.98 236.12,1348.98 
  "/>
<polyline clip-path="url(#clip540)" style="stroke:#000000; stroke-linecap:butt; stroke-linejoin:round; stroke-width:4; stroke-opacity:1; fill:none" points="
  219.38,1061.15 236.12,1061.15 
  "/>
<polyline clip-path="url(#clip540)" style="stroke:#000000; stroke-linecap:butt; stroke-linejoin:round; stroke-width:4; stroke-opacity:1; fill:none" points="
  219.38,773.326 236.12,773.326 
  "/>
<polyline clip-path="url(#clip540)" style="stroke:#000000; stroke-linecap:butt; stroke-linejoin:round; stroke-width:4; stroke-opacity:1; fill:none" points="
  219.38,485.5 236.12,485.5 
  "/>
<polyline clip-path="url(#clip540)" style="stroke:#000000; stroke-linecap:butt; stroke-linejoin:round; stroke-width:4; stroke-opacity:1; fill:none" points="
  219.38,197.675 236.12,197.675 
  "/>
<path clip-path="url(#clip540)" d="M126.205 1334.78 Q122.593 1334.78 120.765 1338.34 Q118.959 1341.88 118.959 1349.01 Q118.959 1356.12 120.765 1359.68 Q122.593 1363.22 126.205 1363.22 Q129.839 1363.22 131.644 1359.68 Q133.473 1356.12 133.473 1349.01 Q133.473 1341.88 131.644 1338.34 Q129.839 1334.78 126.205 1334.78 M126.205 1331.07 Q132.015 1331.07 135.07 1335.68 Q138.149 1340.26 138.149 1349.01 Q138.149 1357.74 135.07 1362.35 Q132.015 1366.93 126.205 1366.93 Q120.394 1366.93 117.316 1362.35 Q114.26 1357.74 114.26 1349.01 Q114.26 1340.26 117.316 1335.68 Q120.394 1331.07 126.205 1331.07 Z" fill="#000000" fill-rule="evenodd" fill-opacity="1" /><path clip-path="url(#clip540)" d="M146.366 1360.38 L151.251 1360.38 L151.251 1366.26 L146.366 1366.26 L146.366 1360.38 Z" fill="#000000" fill-rule="evenodd" fill-opacity="1" /><path clip-path="url(#clip540)" d="M171.436 1334.78 Q167.825 1334.78 165.996 1338.34 Q164.19 1341.88 164.19 1349.01 Q164.19 1356.12 165.996 1359.68 Q167.825 1363.22 171.436 1363.22 Q175.07 1363.22 176.876 1359.68 Q178.704 1356.12 178.704 1349.01 Q178.704 1341.88 176.876 1338.34 Q175.07 1334.78 171.436 1334.78 M171.436 1331.07 Q177.246 1331.07 180.301 1335.68 Q183.38 1340.26 183.38 1349.01 Q183.38 1357.74 180.301 1362.35 Q177.246 1366.93 171.436 1366.93 Q165.626 1366.93 162.547 1362.35 Q159.491 1357.74 159.491 1349.01 Q159.491 1340.26 162.547 1335.68 Q165.626 1331.07 171.436 1331.07 Z" fill="#000000" fill-rule="evenodd" fill-opacity="1" /><path clip-path="url(#clip540)" d="M127.2 1046.95 Q123.589 1046.95 121.76 1050.52 Q119.955 1054.06 119.955 1061.19 Q119.955 1068.29 121.76 1071.86 Q123.589 1075.4 127.2 1075.4 Q130.834 1075.4 132.64 1071.86 Q134.468 1068.29 134.468 1061.19 Q134.468 1054.06 132.64 1050.52 Q130.834 1046.95 127.2 1046.95 M127.2 1043.25 Q133.01 1043.25 136.066 1047.85 Q139.144 1052.44 139.144 1061.19 Q139.144 1069.91 136.066 1074.52 Q133.01 1079.1 127.2 1079.1 Q121.39 1079.1 118.311 1074.52 Q115.256 1069.91 115.256 1061.19 Q115.256 1052.44 118.311 1047.85 Q121.39 1043.25 127.2 1043.25 Z" fill="#000000" fill-rule="evenodd" fill-opacity="1" /><path clip-path="url(#clip540)" d="M147.362 1072.55 L152.246 1072.55 L152.246 1078.43 L147.362 1078.43 L147.362 1072.55 Z" fill="#000000" fill-rule="evenodd" fill-opacity="1" /><path clip-path="url(#clip540)" d="M162.477 1043.87 L180.834 1043.87 L180.834 1047.81 L166.76 1047.81 L166.76 1056.28 Q167.778 1055.93 168.797 1055.77 Q169.815 1055.58 170.834 1055.58 Q176.621 1055.58 180.001 1058.76 Q183.38 1061.93 183.38 1067.34 Q183.38 1072.92 179.908 1076.02 Q176.436 1079.1 170.116 1079.1 Q167.94 1079.1 165.672 1078.73 Q163.427 1078.36 161.019 1077.62 L161.019 1072.92 Q163.102 1074.06 165.325 1074.61 Q167.547 1075.17 170.024 1075.17 Q174.028 1075.17 176.366 1073.06 Q178.704 1070.95 178.704 1067.34 Q178.704 1063.73 176.366 1061.63 Q174.028 1059.52 170.024 1059.52 Q168.149 1059.52 166.274 1059.94 Q164.422 1060.35 162.477 1061.23 L162.477 1043.87 Z" fill="#000000" fill-rule="evenodd" fill-opacity="1" /><path clip-path="url(#clip540)" d="M117.015 786.671 L124.654 786.671 L124.654 760.305 L116.343 761.972 L116.343 757.713 L124.607 756.046 L129.283 756.046 L129.283 786.671 L136.922 786.671 L136.922 790.606 L117.015 790.606 L117.015 786.671 Z" fill="#000000" fill-rule="evenodd" fill-opacity="1" /><path clip-path="url(#clip540)" d="M146.366 784.726 L151.251 784.726 L151.251 790.606 L146.366 790.606 L146.366 784.726 Z" fill="#000000" fill-rule="evenodd" fill-opacity="1" /><path clip-path="url(#clip540)" d="M171.436 759.125 Q167.825 759.125 165.996 762.689 Q164.19 766.231 164.19 773.361 Q164.19 780.467 165.996 784.032 Q167.825 787.574 171.436 787.574 Q175.07 787.574 176.876 784.032 Q178.704 780.467 178.704 773.361 Q178.704 766.231 176.876 762.689 Q175.07 759.125 171.436 759.125 M171.436 755.421 Q177.246 755.421 180.301 760.027 Q183.38 764.611 183.38 773.361 Q183.38 782.088 180.301 786.694 Q177.246 791.277 171.436 791.277 Q165.626 791.277 162.547 786.694 Q159.491 782.088 159.491 773.361 Q159.491 764.611 162.547 760.027 Q165.626 755.421 171.436 755.421 Z" fill="#000000" fill-rule="evenodd" fill-opacity="1" /><path clip-path="url(#clip540)" d="M118.01 498.845 L125.649 498.845 L125.649 472.48 L117.339 474.146 L117.339 469.887 L125.603 468.22 L130.279 468.22 L130.279 498.845 L137.917 498.845 L137.917 502.78 L118.01 502.78 L118.01 498.845 Z" fill="#000000" fill-rule="evenodd" fill-opacity="1" /><path clip-path="url(#clip540)" d="M147.362 496.901 L152.246 496.901 L152.246 502.78 L147.362 502.78 L147.362 496.901 Z" fill="#000000" fill-rule="evenodd" fill-opacity="1" /><path clip-path="url(#clip540)" d="M162.477 468.22 L180.834 468.22 L180.834 472.156 L166.76 472.156 L166.76 480.628 Q167.778 480.28 168.797 480.118 Q169.815 479.933 170.834 479.933 Q176.621 479.933 180.001 483.105 Q183.38 486.276 183.38 491.692 Q183.38 497.271 179.908 500.373 Q176.436 503.452 170.116 503.452 Q167.94 503.452 165.672 503.081 Q163.427 502.711 161.019 501.97 L161.019 497.271 Q163.102 498.405 165.325 498.961 Q167.547 499.516 170.024 499.516 Q174.028 499.516 176.366 497.41 Q178.704 495.304 178.704 491.692 Q178.704 488.081 176.366 485.975 Q174.028 483.868 170.024 483.868 Q168.149 483.868 166.274 484.285 Q164.422 484.702 162.477 485.581 L162.477 468.22 Z" fill="#000000" fill-rule="evenodd" fill-opacity="1" /><path clip-path="url(#clip540)" d="M120.232 211.02 L136.552 211.02 L136.552 214.955 L114.607 214.955 L114.607 211.02 Q117.269 208.265 121.853 203.635 Q126.459 198.983 127.64 197.64 Q129.885 195.117 130.765 193.381 Q131.667 191.622 131.667 189.932 Q131.667 187.177 129.723 185.441 Q127.802 183.705 124.7 183.705 Q122.501 183.705 120.047 184.469 Q117.617 185.233 114.839 186.784 L114.839 182.061 Q117.663 180.927 120.117 180.348 Q122.57 179.77 124.607 179.77 Q129.978 179.77 133.172 182.455 Q136.367 185.14 136.367 189.631 Q136.367 191.76 135.556 193.682 Q134.769 195.58 132.663 198.172 Q132.084 198.844 128.982 202.061 Q125.88 205.256 120.232 211.02 Z" fill="#000000" fill-rule="evenodd" fill-opacity="1" /><path clip-path="url(#clip540)" d="M146.366 209.075 L151.251 209.075 L151.251 214.955 L146.366 214.955 L146.366 209.075 Z" fill="#000000" fill-rule="evenodd" fill-opacity="1" /><path clip-path="url(#clip540)" d="M171.436 183.473 Q167.825 183.473 165.996 187.038 Q164.19 190.58 164.19 197.709 Q164.19 204.816 165.996 208.381 Q167.825 211.922 171.436 211.922 Q175.07 211.922 176.876 208.381 Q178.704 204.816 178.704 197.709 Q178.704 190.58 176.876 187.038 Q175.07 183.473 171.436 183.473 M171.436 179.77 Q177.246 179.77 180.301 184.376 Q183.38 188.959 183.38 197.709 Q183.38 206.436 180.301 211.043 Q177.246 215.626 171.436 215.626 Q165.626 215.626 162.547 211.043 Q159.491 206.436 159.491 197.709 Q159.491 188.959 162.547 184.376 Q165.626 179.77 171.436 179.77 Z" fill="#000000" fill-rule="evenodd" fill-opacity="1" /><path clip-path="url(#clip540)" d="M67.3143 771.639 Q73.68 774.122 75.6216 776.477 Q77.5631 778.832 77.5631 782.779 L77.5631 787.458 L72.6615 787.458 L72.6615 784.02 Q72.6615 781.601 71.5157 780.265 Q70.3699 778.928 66.1048 777.305 L63.4312 776.254 L28.3562 790.673 L28.3562 784.466 L56.238 773.326 L28.3562 762.186 L28.3562 755.979 L67.3143 771.639 Z" fill="#000000" fill-rule="evenodd" fill-opacity="1" /><path clip-path="url(#clip540)" d="M1053.28 12.096 L1091.52 12.096 L1091.52 18.9825 L1061.46 18.9825 L1061.46 36.8875 L1090.27 36.8875 L1090.27 43.7741 L1061.46 43.7741 L1061.46 65.6895 L1092.25 65.6895 L1092.25 72.576 L1053.28 72.576 L1053.28 12.096 Z" fill="#000000" fill-rule="evenodd" fill-opacity="1" /><path clip-path="url(#clip540)" d="M1131.67 34.1734 Q1130.41 33.4443 1128.91 33.1202 Q1127.45 32.7556 1125.67 32.7556 Q1119.35 32.7556 1115.95 36.8875 Q1112.59 40.9789 1112.59 48.6757 L1112.59 72.576 L1105.09 72.576 L1105.09 27.2059 L1112.59 27.2059 L1112.59 34.2544 Q1114.94 30.1225 1118.7 28.1376 Q1122.47 26.1121 1127.86 26.1121 Q1128.63 26.1121 1129.56 26.2337 Q1130.49 26.3147 1131.63 26.5172 L1131.67 34.1734 Z" fill="#000000" fill-rule="evenodd" fill-opacity="1" /><path clip-path="url(#clip540)" d="M1164.32 34.1734 Q1163.06 33.4443 1161.56 33.1202 Q1160.1 32.7556 1158.32 32.7556 Q1152 32.7556 1148.6 36.8875 Q1145.24 40.9789 1145.24 48.6757 L1145.24 72.576 L1137.74 72.576 L1137.74 27.2059 L1145.24 27.2059 L1145.24 34.2544 Q1147.59 30.1225 1151.35 28.1376 Q1155.12 26.1121 1160.51 26.1121 Q1161.28 26.1121 1162.21 26.2337 Q1163.14 26.3147 1164.28 26.5172 L1164.32 34.1734 Z" fill="#000000" fill-rule="evenodd" fill-opacity="1" /><path clip-path="url(#clip540)" d="M1187.89 32.4315 Q1181.9 32.4315 1178.41 37.1306 Q1174.93 41.7891 1174.93 49.9314 Q1174.93 58.0738 1178.37 62.7728 Q1181.86 67.4314 1187.89 67.4314 Q1193.85 67.4314 1197.33 62.7323 Q1200.81 58.0333 1200.81 49.9314 Q1200.81 41.8701 1197.33 37.1711 Q1193.85 32.4315 1187.89 32.4315 M1187.89 26.1121 Q1197.61 26.1121 1203.16 32.4315 Q1208.71 38.7509 1208.71 49.9314 Q1208.71 61.0714 1203.16 67.4314 Q1197.61 73.7508 1187.89 73.7508 Q1178.13 73.7508 1172.58 67.4314 Q1167.07 61.0714 1167.07 49.9314 Q1167.07 38.7509 1172.58 32.4315 Q1178.13 26.1121 1187.89 26.1121 Z" fill="#000000" fill-rule="evenodd" fill-opacity="1" /><path clip-path="url(#clip540)" d="M1247.36 34.1734 Q1246.1 33.4443 1244.6 33.1202 Q1243.15 32.7556 1241.36 32.7556 Q1235.04 32.7556 1231.64 36.8875 Q1228.28 40.9789 1228.28 48.6757 L1228.28 72.576 L1220.79 72.576 L1220.79 27.2059 L1228.28 27.2059 L1228.28 34.2544 Q1230.63 30.1225 1234.4 28.1376 Q1238.16 26.1121 1243.55 26.1121 Q1244.32 26.1121 1245.25 26.2337 Q1246.18 26.3147 1247.32 26.5172 L1247.36 34.1734 Z" fill="#000000" fill-rule="evenodd" fill-opacity="1" /><polyline clip-path="url(#clip542)" style="stroke:#423e85; stroke-linecap:butt; stroke-linejoin:round; stroke-width:4; stroke-opacity:1; fill:none" points="
  915.461,1291.41 920.059,1294.92 934.451,1302 948.842,1306.29 963.233,1308.98 977.184,1310.6 977.625,1310.65 992.016,1311.58 1006.41,1312 1020.8,1312.02 
  1035.19,1311.7 1049.58,1311.08 1057.41,1310.6 1063.97,1310.18 1078.36,1309.01 1092.75,1307.58 1107.15,1305.89 1121.54,1303.94 1135.93,1301.69 1150.32,1299.14 
  1164.71,1296.25 1179.1,1292.96 1185.32,1291.41 1193.49,1289.18 1207.89,1284.84 1222.28,1279.87 1236.67,1274.16 1241.13,1272.22 1251.06,1267.39 1265.45,1259.4 
  1275.42,1253.04 1279.84,1249.81 1294.23,1237.99 1298.69,1233.85 1308.62,1223.04 1315.44,1214.66 1323.02,1203.53 1327.98,1195.47 1337.41,1176.82 1337.66,1176.28 
  1345.31,1157.09 1351.41,1137.91 1351.8,1136.46 1356.37,1118.72 1360.41,1099.53 1363.73,1080.34 1366.19,1063.34 1366.49,1061.15 1368.8,1041.96 1370.73,1022.77 
  1372.36,1003.59 1373.75,984.398 1374.94,965.21 1375.96,946.021 1376.86,926.833 1377.66,907.645 1378.37,888.456 1379.02,869.268 1379.62,850.079 1380.21,830.891 
  1380.58,818.514 1380.77,811.703 1381.28,792.514 1381.78,773.326 1382.26,754.138 1382.75,734.949 1383.22,715.761 1383.68,696.572 1384.11,677.384 1384.53,658.196 
  1384.93,639.007 1385.33,619.819 1385.73,600.631 1386.12,581.442 1386.55,562.254 1387.08,543.065 1387.88,523.877 1389.39,504.689 1393.07,485.5 1394.97,480.656 
  1396.08,466.312 1397.9,447.124 1400.16,427.935 1402.93,408.747 1406.22,389.558 1409.36,373.391 1409.6,370.37 1411.12,351.182 1412.56,331.993 1413.79,312.805 
  1414.65,293.617 1414.81,274.428 1413.53,255.24 1409.36,238.939 1406.54,236.051 1394.97,231.524 1380.58,235.778 1380.28,236.051 1372.21,255.24 1370.32,274.428 
  1370.65,293.617 1371.82,312.805 1373.23,331.993 1374.59,351.182 1375.78,370.37 1376.74,389.558 1377.43,408.747 1377.82,427.935 1377.88,447.124 1377.53,466.312 
  1376.61,485.5 1374.7,504.689 1370.49,523.877 1366.19,533.455 1364.52,543.065 1359.72,562.254 1351.8,579.923 1351.36,581.442 1344.53,600.631 1337.41,613.741 
  1334.87,619.819 1324.19,639.007 1323.02,640.681 1312.56,658.196 1308.62,663.383 1298.77,677.384 1294.23,682.724 1282.65,696.572 1279.84,699.473 1265.45,714.213 
  1263.91,715.761 1251.06,727.485 1242.13,734.949 1236.67,739.184 1222.28,749.792 1215.96,754.138 1207.89,759.441 1193.49,768.225 1184.4,773.326 1179.1,776.229 
  1164.71,783.768 1150.32,790.537 1145.94,792.514 1135.93,797.05 1121.54,803.154 1107.15,808.777 1099.31,811.703 1092.75,814.209 1078.36,819.531 1063.97,824.56 
  1049.58,829.37 1044.96,830.891 1035.19,834.277 1020.8,839.187 1006.41,844.051 992.016,848.964 988.799,850.079 977.625,854.332 963.233,860.1 948.842,866.453 
  943.058,869.268 934.451,874.192 920.059,884.207 915.176,888.456 905.668,899.391 900.356,907.645 892.053,926.833 891.277,929.307 887.252,946.021 884.149,965.21 
  882.019,984.398 880.525,1003.59 879.479,1022.77 878.772,1041.96 878.339,1061.15 878.144,1080.34 878.168,1099.53 878.411,1118.72 878.89,1137.91 879.637,1157.09 
  880.712,1176.28 882.211,1195.47 884.292,1214.66 887.227,1233.85 891.277,1252.15 891.56,1253.04 899.678,1272.22 905.668,1281.83 915.461,1291.41 
  "/>
<polyline clip-path="url(#clip542)" style="stroke:#472b7a; stroke-linecap:butt; stroke-linejoin:round; stroke-width:4; stroke-opacity:1; fill:none" points="
  948.842,1244.36 935.989,1233.85 934.451,1232.33 922.354,1214.66 920.059,1210.32 914.461,1195.47 909.139,1176.28 905.668,1158.85 905.401,1157.09 903.259,1137.91 
  901.879,1118.72 901.161,1099.53 901.054,1080.34 901.549,1061.15 902.684,1041.96 904.54,1022.77 905.668,1014.61 907.552,1003.59 912.02,984.398 918.151,965.21 
  920.059,960.562 927.598,946.021 934.451,935.708 941.876,926.833 948.842,919.959 963.233,908.476 964.469,907.645 977.625,899.893 992.016,892.621 1001.33,888.456 
  1006.41,886.395 1020.8,881.115 1035.19,876.238 1049.58,871.65 1057.57,869.268 1063.97,867.468 1078.36,863.679 1092.75,860.02 1107.15,856.469 1121.54,853.019 
  1134.33,850.079 1135.93,849.722 1150.32,846.875 1164.71,844.241 1179.1,841.92 1193.49,840.084 1207.89,839.013 1222.28,839.172 1236.67,841.347 1251.06,846.899 
  1255.75,850.079 1265.45,859.711 1271.63,869.268 1279.44,888.456 1279.84,889.957 1283.72,907.645 1286.24,926.833 1287.5,946.021 1287.75,965.21 1287.1,984.398 
  1285.62,1003.59 1283.32,1022.77 1280.15,1041.96 1279.84,1043.39 1275.99,1061.15 1270.74,1080.34 1265.45,1095.96 1264.21,1099.53 1256.13,1118.72 1251.06,1128.67 
  1246.15,1137.91 1236.67,1152.76 1233.75,1157.09 1222.28,1171.5 1218.2,1176.28 1207.89,1186.66 1198.34,1195.47 1193.49,1199.36 1179.1,1210.02 1172.24,1214.66 
  1164.71,1219.16 1150.32,1226.98 1136.06,1233.85 1135.93,1233.9 1121.54,1239.65 1107.15,1244.67 1092.75,1249.01 1078.36,1252.69 1076.75,1253.04 1063.97,1255.56 
  1049.58,1257.76 1035.19,1259.27 1020.8,1260.03 1006.41,1259.91 992.016,1258.74 977.625,1256.23 966.896,1253.04 963.233,1251.82 948.842,1244.36 
  "/>
<polyline clip-path="url(#clip542)" style="stroke:#471669; stroke-linecap:butt; stroke-linejoin:round; stroke-width:4; stroke-opacity:1; fill:none" points="
  994.55,1195.47 1006.41,1197.7 1020.8,1198.28 1035.19,1197.12 1044.26,1195.47 1049.58,1194.38 1063.97,1189.99 1078.36,1184.28 1092.75,1177.32 1094.62,1176.28 
  1107.15,1168.21 1121.54,1157.63 1122.21,1157.09 1135.93,1144.02 1141.83,1137.91 1150.32,1127.23 1156.68,1118.72 1164.71,1105.35 1168.05,1099.53 1176.61,1080.34 
  1179.1,1072.7 1182.79,1061.15 1186.81,1041.96 1188.75,1022.77 1188.41,1003.59 1185.34,984.398 1179.1,966.469 1178.58,965.21 1165.15,946.021 1164.71,945.603 
  1150.32,935.009 1135.93,928.059 1132.11,926.833 1121.54,924.289 1107.15,922.393 1092.75,921.835 1078.36,922.398 1063.97,923.949 1049.58,926.421 1047.9,926.833 
  1035.19,930.263 1020.8,935.251 1006.41,941.453 997.88,946.021 992.016,949.626 977.625,960.655 972.855,965.21 963.233,976.255 957.597,984.398 948.842,1000.36 
  947.436,1003.59 941.113,1022.77 936.736,1041.96 934.451,1058.73 934.185,1061.15 933.442,1080.34 934.055,1099.53 934.451,1103.34 936.54,1118.72 941.183,1137.91 
  948.259,1157.09 948.842,1158.28 961.562,1176.28 963.233,1178.12 977.625,1188.7 992.016,1194.92 994.55,1195.47 
  "/>
<polyline clip-path="url(#clip542)" style="stroke:#3b518a; stroke-linecap:butt; stroke-linejoin:round; stroke-width:4; stroke-opacity:1; fill:none" points="
  992.016,811.762 977.625,815.681 963.233,819.214 948.842,822.312 934.451,824.844 920.059,826.516 905.668,826.591 891.277,822.73 881.326,811.703 876.886,802.449 
  874.671,792.514 871.929,773.326 870.243,754.138 869.095,734.949 868.26,715.761 867.623,696.572 867.12,677.384 866.712,658.196 866.375,639.007 866.093,619.819 
  865.855,600.631 865.655,581.442 865.487,562.254 865.349,543.065 865.24,523.877 865.16,504.689 865.112,485.5 865.101,466.312 865.138,447.124 865.24,427.935 
  865.44,408.747 865.806,389.558 866.501,370.37 868.016,351.182 872.863,331.993 876.886,326.514 885.471,312.805 891.277,307.665 903.799,293.617 905.668,291.94 
  920.059,275.727 921.107,274.428 934.451,257.916 936.62,255.24 948.842,238.598 951.019,236.051 963.233,219.312 966.14,216.863 977.625,205.963 992.016,202.71 
  1006.41,201.441 1020.8,200.79 1035.19,200.409 1049.58,200.172 1063.97,200.02 1078.36,199.923 1092.75,199.867 1107.15,199.84 1121.54,199.838 1135.93,199.858 
  1150.32,199.899 1164.71,199.961 1179.1,200.048 1193.49,200.163 1207.89,200.314 1222.28,200.513 1236.67,200.779 1251.06,201.144 1265.45,201.667 1279.84,202.464 
  1294.23,203.805 1308.62,206.471 1323.02,214.067 1325.48,216.863 1332.74,236.051 1335.86,255.24 1337.41,270.042 1337.88,274.428 1339.41,293.617 1340.33,312.805 
  1340.69,331.993 1340.48,351.182 1339.69,370.37 1338.29,389.558 1337.41,398.163 1336.47,408.747 1334.26,427.935 1331.43,447.124 1327.86,466.312 1323.43,485.5 
  1323.02,487.102 1318.87,504.689 1313.4,523.877 1308.62,537.957 1306.98,543.065 1300.05,562.254 1294.23,575.852 1291.89,581.442 1282.81,600.631 1279.84,606.219 
  1272.55,619.819 1265.45,631.481 1260.73,639.007 1251.06,652.912 1247.2,658.196 1236.67,671.455 1231.63,677.384 1222.28,687.699 1213.53,696.572 1207.89,702.005 
  1193.49,714.676 1192.18,715.761 1179.1,726.267 1166.91,734.949 1164.71,736.482 1150.32,745.977 1136.32,754.138 1135.93,754.368 1121.54,762.362 1107.15,769.518 
  1098.85,773.326 1092.75,776.168 1078.36,782.439 1063.97,788.157 1052.08,792.514 1049.58,793.464 1035.19,798.609 1020.8,803.347 1006.41,807.72 992.212,811.703 
  992.016,811.762 
  "/>
<polyline clip-path="url(#clip542)" style="stroke:#33618d; stroke-linecap:butt; stroke-linejoin:round; stroke-width:4; stroke-opacity:1; fill:none" points="
  1006.41,775.09 992.016,778.438 977.625,780.987 963.233,782.554 948.842,782.797 934.451,781.052 920.059,775.941 916.291,773.326 905.668,764.312 899.299,754.138 
  891.277,736.069 890.963,734.949 886.471,715.761 883.216,696.572 880.78,677.384 878.917,658.196 877.477,639.007 876.886,629.184 876.432,619.819 875.68,600.631 
  875.105,581.442 874.69,562.254 874.425,543.065 874.311,523.877 874.359,504.689 874.592,485.5 875.055,466.312 875.823,447.124 876.886,430.003 877.026,427.935 
  878.814,408.747 881.474,389.558 885.598,370.37 891.277,353.938 892.259,351.182 901.44,331.993 905.668,325.568 913.746,312.805 920.059,304.538 928.048,293.617 
  934.451,285.591 943.252,274.428 948.842,267.441 959.229,255.24 963.233,250.412 977.625,236.203 977.808,236.051 992.016,225.016 1006.41,218.272 1010.48,216.863 
  1020.8,213.861 1035.19,211.146 1049.58,209.391 1063.97,208.206 1078.36,207.391 1092.75,206.836 1107.15,206.474 1121.54,206.268 1135.93,206.196 1150.32,206.248 
  1164.71,206.425 1179.1,206.737 1193.49,207.205 1207.89,207.866 1222.28,208.779 1236.67,210.045 1251.06,211.832 1265.45,214.444 1274.81,216.863 1279.84,219.028 
  1294.23,228.093 1302.18,236.051 1308.62,248.715 1311.34,255.24 1315.97,274.428 1318.44,293.617 1319.64,312.805 1319.9,331.993 1319.4,351.182 1318.2,370.37 
  1316.32,389.558 1313.74,408.747 1310.42,427.935 1308.62,436.611 1306.56,447.124 1302.14,466.312 1296.83,485.5 1294.23,493.782 1290.88,504.689 1284.16,523.877 
  1279.84,534.71 1276.51,543.065 1267.91,562.254 1265.45,567.256 1258.31,581.442 1251.06,594.333 1247.37,600.631 1236.67,617.342 1234.99,619.819 1222.28,637.304 
  1220.95,639.007 1207.89,654.855 1204.9,658.196 1193.49,670.407 1186.35,677.384 1179.1,684.218 1164.71,696.462 1164.57,696.572 1150.32,707.735 1138.76,715.761 
  1135.93,717.71 1121.54,726.917 1107.37,734.949 1107.15,735.077 1092.75,742.756 1078.36,749.599 1067.77,754.138 1063.97,755.806 1049.58,761.56 1035.19,766.661 
  1020.8,771.143 1012.65,773.326 1006.41,775.09 
  "/>
<polyline clip-path="url(#clip542)" style="stroke:#2c718e; stroke-linecap:butt; stroke-linejoin:round; stroke-width:4; stroke-opacity:1; fill:none" points="
  1035.19,737.164 1020.8,741.506 1006.41,744.951 992.016,747.401 977.625,748.656 963.233,748.361 948.842,745.877 934.451,740.003 927.687,734.949 920.059,728.294 
  911.571,715.761 905.668,704.63 902.806,696.572 897.338,677.384 893.246,658.196 891.277,646.46 890.318,639.007 888.293,619.819 886.734,600.631 885.562,581.442 
  884.729,562.254 884.206,543.065 883.985,523.877 884.076,504.689 884.508,485.5 885.342,466.312 886.676,447.124 888.678,427.935 891.277,410.863 891.622,408.747 
  895.739,389.558 901.567,370.37 905.668,360.412 909.556,351.182 920.023,331.993 920.059,331.938 932.298,312.805 934.451,309.872 946.273,293.617 948.842,290.338 
  961.657,274.428 963.233,272.542 977.625,256.761 979.181,255.24 992.016,243.591 1002.84,236.051 1006.41,233.835 1020.8,226.927 1035.19,222.177 1049.58,218.791 
  1060.62,216.863 1063.97,216.392 1078.36,214.859 1092.75,213.805 1107.15,213.108 1121.54,212.698 1135.93,212.534 1150.32,212.597 1164.71,212.889 1179.1,213.426 
  1193.49,214.246 1207.89,215.417 1220.79,216.863 1222.28,217.103 1236.67,220.092 1251.06,224.354 1265.45,230.615 1274.32,236.051 1279.84,241.841 1289.56,255.24 
  1294.23,267.453 1296.62,274.428 1300.32,293.617 1302.04,312.805 1302.44,331.993 1301.8,351.182 1300.27,370.37 1297.91,389.558 1294.71,408.747 1294.23,411.122 
  1290.95,427.935 1286.42,447.124 1280.99,466.312 1279.84,469.948 1274.94,485.5 1267.95,504.689 1265.45,510.907 1260.13,523.877 1251.2,543.065 1251.06,543.355 
  1241.34,562.254 1236.67,570.485 1230.14,581.442 1222.28,593.621 1217.47,600.631 1207.89,613.726 1203.09,619.819 1193.49,631.418 1186.67,639.007 1179.1,647.095 
  1167.69,658.196 1164.71,661.015 1150.32,673.547 1145.47,677.384 1135.93,684.832 1121.54,694.885 1118.9,696.572 1107.15,704.086 1092.75,712.265 1085.91,715.761 
  1078.36,719.66 1063.97,726.297 1049.58,732.087 1041.35,734.949 1035.19,737.164 
  "/>
<polyline clip-path="url(#clip542)" style="stroke:#26808e; stroke-linecap:butt; stroke-linejoin:round; stroke-width:4; stroke-opacity:1; fill:none" points="
  1063.97,698.528 1049.58,704.491 1035.19,709.457 1020.8,713.406 1008.83,715.761 1006.41,716.259 992.016,717.841 977.625,717.777 964.626,715.761 963.233,715.533 
  948.842,710.172 934.451,699.847 931.606,696.572 920.059,680.533 918.554,677.384 910.93,658.196 905.668,640.572 905.321,639.007 901.74,619.819 899.009,600.631 
  896.971,581.442 895.523,562.254 894.601,543.065 894.172,523.877 894.231,504.689 894.801,485.5 895.939,466.312 897.745,447.124 900.383,427.935 904.116,408.747 
  905.668,402.728 909.242,389.558 916.05,370.37 920.059,361.507 924.828,351.182 934.451,334.119 935.663,331.993 948.246,312.805 948.842,311.987 962.457,293.617 
  963.233,292.646 977.625,275.533 978.626,274.428 992.016,260.858 998.476,255.24 1006.41,249.049 1020.8,240.122 1029.11,236.051 1035.19,233.542 1049.58,228.961 
  1063.97,225.647 1078.36,223.24 1092.75,221.52 1107.15,220.35 1121.54,219.646 1135.93,219.363 1150.32,219.486 1164.71,220.028 1179.1,221.035 1193.49,222.587 
  1207.89,224.818 1222.28,227.944 1236.67,232.313 1245.85,236.051 1251.06,239.398 1265.45,251.798 1268.56,255.24 1278.45,274.428 1279.84,279.468 1283.46,293.617 
  1285.82,312.805 1286.44,331.993 1285.78,351.182 1284.04,370.37 1281.32,389.558 1279.84,397.512 1277.78,408.747 1273.45,427.935 1268.21,447.124 1265.45,455.896 
  1262.14,466.312 1255.2,485.5 1251.06,495.702 1247.3,504.689 1238.36,523.877 1236.67,527.247 1228.34,543.065 1222.28,553.596 1217,562.254 1207.89,576.156 
  1204.18,581.442 1193.49,595.816 1189.62,600.631 1179.1,613.145 1172.97,619.819 1164.71,628.514 1153.71,639.007 1150.32,642.164 1135.93,654.407 1131,658.196 
  1121.54,665.396 1107.15,675.153 1103.49,677.384 1092.75,683.956 1078.36,691.716 1068.06,696.572 1063.97,698.528 
  "/>
<polyline clip-path="url(#clip542)" style="stroke:#208f8c; stroke-linecap:butt; stroke-linejoin:round; stroke-width:4; stroke-opacity:1; fill:none" points="
  1049.58,678.003 1035.19,682.828 1020.8,686.409 1006.41,688.606 992.016,689.155 977.625,687.6 963.233,683.17 953.296,677.384 948.842,674.464 934.451,658.668 
  934.162,658.196 924.311,639.007 920.059,628.291 917.581,619.819 913.1,600.631 909.772,581.442 907.4,562.254 905.854,543.065 905.668,538.736 905.119,523.877 
  905.027,504.689 905.582,485.5 905.668,484.188 906.931,466.312 909.111,447.124 912.252,427.935 916.569,408.747 920.059,396.994 922.369,389.558 929.818,370.37 
  934.451,360.702 939.114,351.182 948.842,334.387 950.255,331.993 963.138,312.805 963.233,312.676 977.625,293.941 977.887,293.617 992.016,277.81 995.353,274.428 
  1006.41,264.377 1018.37,255.24 1020.8,253.615 1035.19,245.616 1049.58,239.499 1059.98,236.051 1063.97,234.966 1078.36,231.956 1092.75,229.82 1107.15,228.387 
  1121.54,227.549 1135.93,227.252 1150.32,227.478 1164.71,228.247 1179.1,229.617 1193.49,231.695 1207.89,234.658 1213.06,236.051 1222.28,239.726 1236.67,247.531 
  1247.09,255.24 1251.06,260.103 1260.53,274.428 1265.45,288.337 1267.13,293.617 1270.25,312.805 1271.2,331.993 1270.59,351.182 1268.71,370.37 1265.73,389.558 
  1265.45,390.934 1261.82,408.747 1256.95,427.935 1251.08,447.124 1251.06,447.181 1244.34,466.312 1236.67,485.182 1236.53,485.5 1227.72,504.689 1222.28,515.359 
  1217.69,523.877 1207.89,540.615 1206.35,543.065 1193.52,562.254 1193.49,562.289 1179.1,581.204 1178.91,581.442 1164.71,597.887 1162.11,600.631 1150.32,612.679 
  1142.57,619.819 1135.93,625.803 1121.54,637.446 1119.4,639.007 1107.15,647.879 1092.75,657.023 1090.67,658.196 1078.36,665.144 1063.97,672.124 1051.07,677.384 
  1049.58,678.003 
  "/>
<polyline clip-path="url(#clip542)" style="stroke:#1e9e88; stroke-linecap:butt; stroke-linejoin:round; stroke-width:4; stroke-opacity:1; fill:none" points="
  1078.36,639.413 1063.97,646.509 1049.58,652.324 1035.19,656.827 1028.7,658.196 1020.8,659.906 1006.41,661.311 992.016,660.672 981.035,658.196 977.625,657.362 
  963.233,650.195 950.592,639.007 948.842,637.183 937.86,619.819 934.451,612.967 929.991,600.631 924.681,581.442 920.883,562.254 920.059,556.276 918.573,543.065 
  917.288,523.877 916.858,504.689 917.274,485.5 918.572,466.312 920.059,453.716 920.893,447.124 924.413,427.935 929.167,408.747 934.451,392.382 935.402,389.558 
  943.321,370.37 948.842,359.294 952.992,351.182 963.233,333.959 964.436,331.993 977.625,312.951 977.73,312.805 992.016,295.121 993.319,293.617 1006.41,280.139 
  1012.64,274.428 1020.8,267.87 1035.19,258.167 1040.38,255.24 1049.58,250.881 1063.97,245.537 1078.36,241.503 1092.75,238.544 1107.15,236.507 1112.6,236.051 
  1121.54,235.452 1135.93,235.142 1150.32,235.471 1158.81,236.051 1164.71,236.588 1179.1,238.862 1193.49,242.331 1207.89,247.311 1222.28,254.297 1223.83,255.24 
  1236.67,267.676 1242.11,274.428 1250.78,293.617 1251.06,294.821 1254.85,312.805 1256.24,331.993 1255.77,351.182 1253.82,370.37 1251.06,386.942 1250.62,389.558 
  1246.31,408.747 1240.94,427.935 1236.67,440.812 1234.5,447.124 1227,466.312 1222.28,477.034 1218.35,485.5 1208.5,504.689 1207.89,505.806 1197.27,523.877 
  1193.49,529.841 1184.48,543.065 1179.1,550.503 1169.86,562.254 1164.71,568.512 1153.02,581.442 1150.32,584.33 1135.93,598.297 1133.26,600.631 1121.54,610.677 
  1109.46,619.819 1107.15,621.555 1092.75,631.141 1079.07,639.007 1078.36,639.413 
  "/>
<polyline clip-path="url(#clip542)" style="stroke:#27ad80; stroke-linecap:butt; stroke-linejoin:round; stroke-width:4; stroke-opacity:1; fill:none" points="
  1063.97,621.274 1049.58,626.913 1035.19,631.026 1020.8,633.439 1006.41,633.833 992.016,631.665 977.625,626.047 968.799,619.819 963.233,615.221 952.1,600.631 
  948.842,595.24 942.917,581.442 936.846,562.254 934.451,551.475 932.977,543.065 930.79,523.877 929.775,504.689 929.866,485.5 931.046,466.312 933.355,447.124 
  934.451,441.176 937.037,427.935 942.099,408.747 948.602,389.558 948.842,388.984 956.89,370.37 963.233,358.032 966.868,351.182 977.625,333.624 978.662,331.993 
  992.016,313.513 992.557,312.805 1006.41,296.767 1009.37,293.617 1020.8,282.973 1031.31,274.428 1035.19,271.715 1049.58,263.238 1063.97,256.449 1067.18,255.24 
  1078.36,251.789 1092.75,248.543 1107.15,246.364 1121.54,245.153 1135.93,244.872 1150.32,245.539 1164.71,247.23 1179.1,250.092 1193.49,254.367 1195.72,255.24 
  1207.89,262.399 1222.28,274.242 1222.46,274.428 1233.79,293.617 1236.67,303.255 1239.19,312.805 1241.19,331.993 1240.94,351.182 1238.98,370.37 1236.67,383.523 
  1235.58,389.558 1230.88,408.747 1225.02,427.935 1222.28,435.597 1217.94,447.124 1209.67,466.312 1207.89,470.061 1200.06,485.5 1193.49,497.265 1189.04,504.689 
  1179.1,520.059 1176.42,523.877 1164.71,539.593 1161.87,543.065 1150.32,556.568 1144.93,562.254 1135.93,571.428 1124.93,581.442 1121.54,584.452 1107.15,595.837 
  1100.22,600.631 1092.75,605.735 1078.36,614.197 1066.93,619.819 1063.97,621.274 
  "/>
<polyline clip-path="url(#clip542)" style="stroke:#3dbb74; stroke-linecap:butt; stroke-linejoin:round; stroke-width:4; stroke-opacity:1; fill:none" points="
  1049.58,601.367 1035.19,604.914 1020.8,606.433 1006.41,605.481 992.016,601.326 990.751,600.631 977.625,592.187 967.805,581.442 963.233,575.105 956.856,562.254 
  950.076,543.065 948.842,537.899 946.24,523.877 944.246,504.689 943.717,485.5 944.556,466.312 946.727,447.124 948.842,435.71 950.37,427.935 955.607,408.747 
  962.288,389.558 963.233,387.367 970.846,370.37 977.625,357.548 981.125,351.182 992.016,334.039 993.382,331.993 1006.41,314.945 1008.16,312.805 1020.8,299.356 
  1026.79,293.617 1035.19,286.674 1049.58,276.489 1053.04,274.428 1063.97,269.012 1078.36,263.432 1092.75,259.284 1107.15,256.464 1118.71,255.24 1121.54,255 
  1135.93,254.842 1142.19,255.24 1150.32,255.934 1164.71,258.739 1179.1,263.434 1193.49,270.463 1199.52,274.428 1207.89,283.267 1215.47,293.617 1222.28,311.131 
  1222.83,312.805 1225.64,331.993 1225.75,351.182 1223.85,370.37 1222.28,378.979 1220.26,389.558 1215.19,408.747 1208.84,427.935 1207.89,430.392 1201.01,447.124 
  1193.49,463.112 1191.88,466.312 1181.18,485.5 1179.1,488.926 1168.73,504.689 1164.71,510.395 1154.29,523.877 1150.32,528.747 1137.38,543.065 1135.93,544.607 
  1121.54,558.323 1116.86,562.254 1107.15,570.204 1092.75,580.417 1091.05,581.442 1078.36,588.982 1063.97,595.978 1051.55,600.631 1049.58,601.367 
  "/>
<polyline clip-path="url(#clip542)" style="stroke:#5bc862; stroke-linecap:butt; stroke-linejoin:round; stroke-width:4; stroke-opacity:1; fill:none" points="
  1078.36,563.316 1063.97,570.072 1049.58,574.975 1035.19,577.781 1020.8,578.052 1006.41,575.042 992.016,567.525 986.235,562.254 977.625,552.187 972.499,543.065 
  964.999,523.877 963.233,516.575 961.044,504.689 959.415,485.5 959.557,466.312 961.326,447.124 963.233,436.272 964.792,427.935 970.03,408.747 976.771,389.558 
  977.625,387.623 985.574,370.37 992.016,358.537 996.223,351.182 1006.41,335.877 1009.16,331.993 1020.8,317.824 1025.3,312.805 1035.19,303.337 1046.71,293.617 
  1049.58,291.565 1063.97,282.964 1078.36,276.06 1082.87,274.428 1092.75,271.529 1107.15,268.77 1121.54,267.449 1135.93,267.602 1150.32,269.345 1164.71,272.887 
  1168.81,274.428 1179.1,280.249 1193.49,292.26 1194.74,293.617 1204.88,312.805 1207.89,325.705 1209.14,331.993 1209.8,351.182 1208.07,370.37 1207.89,371.324 
  1204.25,389.558 1198.83,408.747 1193.49,423.713 1191.88,427.935 1183.25,447.124 1179.1,455.247 1172.96,466.312 1164.71,479.787 1160.86,485.5 1150.32,500.019 
  1146.55,504.689 1135.93,517.097 1129.4,523.877 1121.54,531.683 1108.46,543.065 1107.15,544.173 1092.75,554.601 1080.15,562.254 1078.36,563.316 
  "/>
<polyline clip-path="url(#clip542)" style="stroke:#81d34c; stroke-linecap:butt; stroke-linejoin:round; stroke-width:4; stroke-opacity:1; fill:none" points="
  1092.75,527.672 1078.36,536.278 1063.97,542.907 1063.43,543.065 1049.58,547.001 1035.19,548.497 1020.8,546.74 1011.85,543.065 1006.41,540.272 992.016,525.751 
  990.841,523.877 982.468,504.689 978.034,485.5 977.625,480.142 976.813,466.312 977.625,449.807 977.767,447.124 980.934,427.935 985.904,408.747 992.016,391.118 
  992.59,389.558 1001.63,370.37 1006.41,361.899 1012.84,351.182 1020.8,339.925 1026.88,331.993 1035.19,322.784 1045.24,312.805 1049.58,309.172 1063.97,298.96 
  1073.18,293.617 1078.36,291.153 1092.75,286.137 1107.15,282.94 1121.54,281.661 1135.93,282.493 1150.32,285.742 1164.71,291.869 1167.49,293.617 1179.1,305.655 
  1184.08,312.805 1190.64,331.993 1192.38,351.182 1190.88,370.37 1187,389.558 1181.26,408.747 1179.1,414.386 1173.46,427.935 1164.71,445.722 1163.95,447.124 
  1152.18,466.312 1150.32,469.073 1137.97,485.5 1135.93,488.03 1121.54,503.796 1120.6,504.689 1107.15,516.802 1097.9,523.877 1092.75,527.672 
  "/>
<polyline clip-path="url(#clip542)" style="stroke:#aadb32; stroke-linecap:butt; stroke-linejoin:round; stroke-width:4; stroke-opacity:1; fill:none" points="
  1078.36,506.867 1063.97,512.589 1049.58,515.438 1035.19,514.576 1020.8,508.507 1016.44,504.689 1006.41,491.451 1003.68,485.5 998.988,466.312 998.018,447.124 
  999.918,427.935 1004.13,408.747 1006.41,402.028 1010.95,389.558 1019.93,370.37 1020.8,368.901 1032.13,351.182 1035.19,347.191 1048.13,331.993 1049.58,330.574 
  1063.97,318.639 1072.49,312.805 1078.36,309.545 1092.75,303.798 1107.15,300.372 1121.54,299.624 1135.93,302.08 1150.32,308.496 1156.07,312.805 1164.71,324.73 
  1168.37,331.993 1171.99,351.182 1171.3,370.37 1167.62,389.558 1164.71,398.83 1161.26,408.747 1152.6,427.935 1150.32,432.164 1141.25,447.124 1135.93,454.896 
  1127,466.312 1121.54,472.698 1108.8,485.5 1107.15,487.049 1092.75,498.158 1082.1,504.689 1078.36,506.867 
  "/>
<polyline clip-path="url(#clip542)" style="stroke:#d4e11a; stroke-linecap:butt; stroke-linejoin:round; stroke-width:4; stroke-opacity:1; fill:none" points="
  1078.36,471.391 1063.97,475.632 1049.58,475.041 1035.19,466.882 1034.72,466.312 1026.36,447.124 1024.88,427.935 1027.81,408.747 1033.79,389.558 1035.19,386.635 
  1043.89,370.37 1049.58,362.15 1058.35,351.182 1063.97,345.664 1078.36,334.227 1082.4,331.993 1092.75,327.599 1107.15,324.826 1121.54,326.204 1133.78,331.993 
  1135.93,334.071 1145.05,351.182 1146.69,370.37 1143.24,389.558 1136.53,408.747 1135.93,409.966 1125.63,427.935 1121.54,433.88 1110.67,447.124 1107.15,450.894 
  1092.75,463.138 1087.56,466.312 1078.36,471.391 
  "/>
<polyline clip-path="url(#clip542)" style="stroke:#423e85; stroke-linecap:butt; stroke-linejoin:round; stroke-width:4; stroke-opacity:1; fill:none" points="
  905.668,242.021 891.277,246.024 888.38,236.051 891.277,230.587 905.668,229.474 909.948,236.051 905.668,242.021 
  "/>
<defs>
  <clipPath id="clip543">
    <rect x="2129" y="197" width="73" height="1152"/>
  </clipPath>
</defs>
<polyline clip-path="url(#clip543)" style="stroke:#47186a; stroke-linecap:butt; stroke-linejoin:round; stroke-width:4; stroke-opacity:1; fill:none" points="
  2129.26,1277.02 2201.26,1277.02 
  "/>
<polyline clip-path="url(#clip543)" style="stroke:#472c7b; stroke-linecap:butt; stroke-linejoin:round; stroke-width:4; stroke-opacity:1; fill:none" points="
  2129.26,1205.06 2201.26,1205.06 
  "/>
<polyline clip-path="url(#clip543)" style="stroke:#424085; stroke-linecap:butt; stroke-linejoin:round; stroke-width:4; stroke-opacity:1; fill:none" points="
  2129.26,1133.11 2201.26,1133.11 
  "/>
<polyline clip-path="url(#clip543)" style="stroke:#3a528b; stroke-linecap:butt; stroke-linejoin:round; stroke-width:4; stroke-opacity:1; fill:none" points="
  2129.26,1061.15 2201.26,1061.15 
  "/>
<polyline clip-path="url(#clip543)" style="stroke:#32628d; stroke-linecap:butt; stroke-linejoin:round; stroke-width:4; stroke-opacity:1; fill:none" points="
  2129.26,989.195 2201.26,989.195 
  "/>
<polyline clip-path="url(#clip543)" style="stroke:#2c728e; stroke-linecap:butt; stroke-linejoin:round; stroke-width:4; stroke-opacity:1; fill:none" points="
  2129.26,917.239 2201.26,917.239 
  "/>
<polyline clip-path="url(#clip543)" style="stroke:#26818e; stroke-linecap:butt; stroke-linejoin:round; stroke-width:4; stroke-opacity:1; fill:none" points="
  2129.26,845.282 2201.26,845.282 
  "/>
<polyline clip-path="url(#clip543)" style="stroke:#20908c; stroke-linecap:butt; stroke-linejoin:round; stroke-width:4; stroke-opacity:1; fill:none" points="
  2129.26,773.326 2201.26,773.326 
  "/>
<polyline clip-path="url(#clip543)" style="stroke:#1e9e88; stroke-linecap:butt; stroke-linejoin:round; stroke-width:4; stroke-opacity:1; fill:none" points="
  2129.26,701.37 2201.26,701.37 
  "/>
<polyline clip-path="url(#clip543)" style="stroke:#27ad80; stroke-linecap:butt; stroke-linejoin:round; stroke-width:4; stroke-opacity:1; fill:none" points="
  2129.26,629.413 2201.26,629.413 
  "/>
<polyline clip-path="url(#clip543)" style="stroke:#3dbb74; stroke-linecap:butt; stroke-linejoin:round; stroke-width:4; stroke-opacity:1; fill:none" points="
  2129.26,557.457 2201.26,557.457 
  "/>
<polyline clip-path="url(#clip543)" style="stroke:#5bc862; stroke-linecap:butt; stroke-linejoin:round; stroke-width:4; stroke-opacity:1; fill:none" points="
  2129.26,485.5 2201.26,485.5 
  "/>
<polyline clip-path="url(#clip543)" style="stroke:#81d34c; stroke-linecap:butt; stroke-linejoin:round; stroke-width:4; stroke-opacity:1; fill:none" points="
  2129.26,413.544 2201.26,413.544 
  "/>
<polyline clip-path="url(#clip543)" style="stroke:#aadb32; stroke-linecap:butt; stroke-linejoin:round; stroke-width:4; stroke-opacity:1; fill:none" points="
  2129.26,341.588 2201.26,341.588 
  "/>
<polyline clip-path="url(#clip543)" style="stroke:#d4e11a; stroke-linecap:butt; stroke-linejoin:round; stroke-width:4; stroke-opacity:1; fill:none" points="
  2129.26,269.631 2201.26,269.631 
  "/>
<path clip-path="url(#clip540)" d="M2237.26 1249.9 L2266.94 1249.9 L2266.94 1253.83 L2237.26 1253.83 L2237.26 1249.9 Z" fill="#000000" fill-rule="evenodd" fill-opacity="1" /><path clip-path="url(#clip540)" d="M2287.03 1235.24 Q2283.42 1235.24 2281.59 1238.81 Q2279.78 1242.35 2279.78 1249.48 Q2279.78 1256.59 2281.59 1260.15 Q2283.42 1263.69 2287.03 1263.69 Q2290.66 1263.69 2292.47 1260.15 Q2294.3 1256.59 2294.3 1249.48 Q2294.3 1242.35 2292.47 1238.81 Q2290.66 1235.24 2287.03 1235.24 M2287.03 1231.54 Q2292.84 1231.54 2295.89 1236.15 Q2298.97 1240.73 2298.97 1249.48 Q2298.97 1258.21 2295.89 1262.81 Q2292.84 1267.4 2287.03 1267.4 Q2281.22 1267.4 2278.14 1262.81 Q2275.08 1258.21 2275.08 1249.48 Q2275.08 1240.73 2278.14 1236.15 Q2281.22 1231.54 2287.03 1231.54 Z" fill="#000000" fill-rule="evenodd" fill-opacity="1" /><path clip-path="url(#clip540)" d="M2307.19 1260.84 L2312.07 1260.84 L2312.07 1266.72 L2307.19 1266.72 L2307.19 1260.84 Z" fill="#000000" fill-rule="evenodd" fill-opacity="1" /><path clip-path="url(#clip540)" d="M2332.26 1235.24 Q2328.65 1235.24 2326.82 1238.81 Q2325.01 1242.35 2325.01 1249.48 Q2325.01 1256.59 2326.82 1260.15 Q2328.65 1263.69 2332.26 1263.69 Q2335.89 1263.69 2337.7 1260.15 Q2339.53 1256.59 2339.53 1249.48 Q2339.53 1242.35 2337.7 1238.81 Q2335.89 1235.24 2332.26 1235.24 M2332.26 1231.54 Q2338.07 1231.54 2341.13 1236.15 Q2344.2 1240.73 2344.2 1249.48 Q2344.2 1258.21 2341.13 1262.81 Q2338.07 1267.4 2332.26 1267.4 Q2326.45 1267.4 2323.37 1262.81 Q2320.31 1258.21 2320.31 1249.48 Q2320.31 1240.73 2323.37 1236.15 Q2326.45 1231.54 2332.26 1231.54 Z" fill="#000000" fill-rule="evenodd" fill-opacity="1" /><path clip-path="url(#clip540)" d="M2362.42 1235.24 Q2358.81 1235.24 2356.98 1238.81 Q2355.18 1242.35 2355.18 1249.48 Q2355.18 1256.59 2356.98 1260.15 Q2358.81 1263.69 2362.42 1263.69 Q2366.06 1263.69 2367.86 1260.15 Q2369.69 1256.59 2369.69 1249.48 Q2369.69 1242.35 2367.86 1238.81 Q2366.06 1235.24 2362.42 1235.24 M2362.42 1231.54 Q2368.23 1231.54 2371.29 1236.15 Q2374.37 1240.73 2374.37 1249.48 Q2374.37 1258.21 2371.29 1262.81 Q2368.23 1267.4 2362.42 1267.4 Q2356.61 1267.4 2353.53 1262.81 Q2350.48 1258.21 2350.48 1249.48 Q2350.48 1240.73 2353.53 1236.15 Q2356.61 1231.54 2362.42 1231.54 Z" fill="#000000" fill-rule="evenodd" fill-opacity="1" /><path clip-path="url(#clip540)" d="M2392.58 1235.24 Q2388.97 1235.24 2387.14 1238.81 Q2385.34 1242.35 2385.34 1249.48 Q2385.34 1256.59 2387.14 1260.15 Q2388.97 1263.69 2392.58 1263.69 Q2396.22 1263.69 2398.02 1260.15 Q2399.85 1256.59 2399.85 1249.48 Q2399.85 1242.35 2398.02 1238.81 Q2396.22 1235.24 2392.58 1235.24 M2392.58 1231.54 Q2398.39 1231.54 2401.45 1236.15 Q2404.53 1240.73 2404.53 1249.48 Q2404.53 1258.21 2401.45 1262.81 Q2398.39 1267.4 2392.58 1267.4 Q2386.77 1267.4 2383.69 1262.81 Q2380.64 1258.21 2380.64 1249.48 Q2380.64 1240.73 2383.69 1236.15 Q2386.77 1231.54 2392.58 1231.54 Z" fill="#000000" fill-rule="evenodd" fill-opacity="1" /><path clip-path="url(#clip540)" d="M2416.77 1262.79 L2433.09 1262.79 L2433.09 1266.72 L2411.15 1266.72 L2411.15 1262.79 Q2413.81 1260.03 2418.39 1255.41 Q2423 1250.75 2424.18 1249.41 Q2426.43 1246.89 2427.31 1245.15 Q2428.21 1243.39 2428.21 1241.7 Q2428.21 1238.95 2426.26 1237.21 Q2424.34 1235.47 2421.24 1235.47 Q2419.04 1235.47 2416.59 1236.24 Q2414.16 1237 2411.38 1238.55 L2411.38 1233.83 Q2414.2 1232.7 2416.66 1232.12 Q2419.11 1231.54 2421.15 1231.54 Q2426.52 1231.54 2429.71 1234.22 Q2432.91 1236.91 2432.91 1241.4 Q2432.91 1243.53 2432.1 1245.45 Q2431.31 1247.35 2429.2 1249.94 Q2428.62 1250.61 2425.52 1253.83 Q2422.42 1257.03 2416.77 1262.79 Z" fill="#000000" fill-rule="evenodd" fill-opacity="1" /><path clip-path="url(#clip540)" d="M2442.95 1232.16 L2461.31 1232.16 L2461.31 1236.1 L2447.24 1236.1 L2447.24 1244.57 Q2448.25 1244.22 2449.27 1244.06 Q2450.29 1243.88 2451.31 1243.88 Q2457.1 1243.88 2460.48 1247.05 Q2463.86 1250.22 2463.86 1255.64 Q2463.86 1261.22 2460.38 1264.32 Q2456.91 1267.4 2450.59 1267.4 Q2448.42 1267.4 2446.15 1267.03 Q2443.9 1266.66 2441.49 1265.91 L2441.49 1261.22 Q2443.58 1262.35 2445.8 1262.91 Q2448.02 1263.46 2450.5 1263.46 Q2454.5 1263.46 2456.84 1261.35 Q2459.18 1259.25 2459.18 1255.64 Q2459.18 1252.03 2456.84 1249.92 Q2454.5 1247.81 2450.5 1247.81 Q2448.62 1247.81 2446.75 1248.23 Q2444.9 1248.65 2442.95 1249.53 L2442.95 1232.16 Z" fill="#000000" fill-rule="evenodd" fill-opacity="1" /><path clip-path="url(#clip540)" d="M2249.2 1061 Q2245.59 1061 2243.76 1064.56 Q2241.96 1068.1 2241.96 1075.23 Q2241.96 1082.34 2243.76 1085.9 Q2245.59 1089.44 2249.2 1089.44 Q2252.84 1089.44 2254.64 1085.9 Q2256.47 1082.34 2256.47 1075.23 Q2256.47 1068.1 2254.64 1064.56 Q2252.84 1061 2249.2 1061 M2249.2 1057.29 Q2255.01 1057.29 2258.07 1061.9 Q2261.15 1066.48 2261.15 1075.23 Q2261.15 1083.96 2258.07 1088.56 Q2255.01 1093.15 2249.2 1093.15 Q2243.39 1093.15 2240.32 1088.56 Q2237.26 1083.96 2237.26 1075.23 Q2237.26 1066.48 2240.32 1061.9 Q2243.39 1057.29 2249.2 1057.29 Z" fill="#000000" fill-rule="evenodd" fill-opacity="1" /><path clip-path="url(#clip540)" d="M2249.2 886.748 Q2245.59 886.748 2243.76 890.313 Q2241.96 893.854 2241.96 900.984 Q2241.96 908.09 2243.76 911.655 Q2245.59 915.197 2249.2 915.197 Q2252.84 915.197 2254.64 911.655 Q2256.47 908.09 2256.47 900.984 Q2256.47 893.854 2254.64 890.313 Q2252.84 886.748 2249.2 886.748 M2249.2 883.044 Q2255.01 883.044 2258.07 887.651 Q2261.15 892.234 2261.15 900.984 Q2261.15 909.711 2258.07 914.317 Q2255.01 918.9 2249.2 918.9 Q2243.39 918.9 2240.32 914.317 Q2237.26 909.711 2237.26 900.984 Q2237.26 892.234 2240.32 887.651 Q2243.39 883.044 2249.2 883.044 Z" fill="#000000" fill-rule="evenodd" fill-opacity="1" /><path clip-path="url(#clip540)" d="M2269.37 912.349 L2274.25 912.349 L2274.25 918.229 L2269.37 918.229 L2269.37 912.349 Z" fill="#000000" fill-rule="evenodd" fill-opacity="1" /><path clip-path="url(#clip540)" d="M2294.44 886.748 Q2290.82 886.748 2289 890.313 Q2287.19 893.854 2287.19 900.984 Q2287.19 908.09 2289 911.655 Q2290.82 915.197 2294.44 915.197 Q2298.07 915.197 2299.88 911.655 Q2301.7 908.09 2301.7 900.984 Q2301.7 893.854 2299.88 890.313 Q2298.07 886.748 2294.44 886.748 M2294.44 883.044 Q2300.25 883.044 2303.3 887.651 Q2306.38 892.234 2306.38 900.984 Q2306.38 909.711 2303.3 914.317 Q2300.25 918.9 2294.44 918.9 Q2288.63 918.9 2285.55 914.317 Q2282.49 909.711 2282.49 900.984 Q2282.49 892.234 2285.55 887.651 Q2288.63 883.044 2294.44 883.044 Z" fill="#000000" fill-rule="evenodd" fill-opacity="1" /><path clip-path="url(#clip540)" d="M2324.6 886.748 Q2320.99 886.748 2319.16 890.313 Q2317.35 893.854 2317.35 900.984 Q2317.35 908.09 2319.16 911.655 Q2320.99 915.197 2324.6 915.197 Q2328.23 915.197 2330.04 911.655 Q2331.87 908.09 2331.87 900.984 Q2331.87 893.854 2330.04 890.313 Q2328.23 886.748 2324.6 886.748 M2324.6 883.044 Q2330.41 883.044 2333.46 887.651 Q2336.54 892.234 2336.54 900.984 Q2336.54 909.711 2333.46 914.317 Q2330.41 918.9 2324.6 918.9 Q2318.79 918.9 2315.71 914.317 Q2312.65 909.711 2312.65 900.984 Q2312.65 892.234 2315.71 887.651 Q2318.79 883.044 2324.6 883.044 Z" fill="#000000" fill-rule="evenodd" fill-opacity="1" /><path clip-path="url(#clip540)" d="M2354.76 886.748 Q2351.15 886.748 2349.32 890.313 Q2347.51 893.854 2347.51 900.984 Q2347.51 908.09 2349.32 911.655 Q2351.15 915.197 2354.76 915.197 Q2358.39 915.197 2360.2 911.655 Q2362.03 908.09 2362.03 900.984 Q2362.03 893.854 2360.2 890.313 Q2358.39 886.748 2354.76 886.748 M2354.76 883.044 Q2360.57 883.044 2363.62 887.651 Q2366.7 892.234 2366.7 900.984 Q2366.7 909.711 2363.62 914.317 Q2360.57 918.9 2354.76 918.9 Q2348.95 918.9 2345.87 914.317 Q2342.81 909.711 2342.81 900.984 Q2342.81 892.234 2345.87 887.651 Q2348.95 883.044 2354.76 883.044 Z" fill="#000000" fill-rule="evenodd" fill-opacity="1" /><path clip-path="url(#clip540)" d="M2378.95 914.294 L2395.27 914.294 L2395.27 918.229 L2373.32 918.229 L2373.32 914.294 Q2375.99 911.539 2380.57 906.91 Q2385.18 902.257 2386.36 900.914 Q2388.6 898.391 2389.48 896.655 Q2390.38 894.896 2390.38 893.206 Q2390.38 890.451 2388.44 888.715 Q2386.52 886.979 2383.42 886.979 Q2381.22 886.979 2378.76 887.743 Q2376.33 888.507 2373.56 890.058 L2373.56 885.336 Q2376.38 884.201 2378.83 883.623 Q2381.29 883.044 2383.32 883.044 Q2388.69 883.044 2391.89 885.729 Q2395.08 888.414 2395.08 892.905 Q2395.08 895.035 2394.27 896.956 Q2393.49 898.854 2391.38 901.447 Q2390.8 902.118 2387.7 905.336 Q2384.6 908.53 2378.95 914.294 Z" fill="#000000" fill-rule="evenodd" fill-opacity="1" /><path clip-path="url(#clip540)" d="M2405.13 883.669 L2423.49 883.669 L2423.49 887.604 L2409.41 887.604 L2409.41 896.076 Q2410.43 895.729 2411.45 895.567 Q2412.47 895.382 2413.49 895.382 Q2419.27 895.382 2422.65 898.553 Q2426.03 901.725 2426.03 907.141 Q2426.03 912.72 2422.56 915.822 Q2419.09 918.9 2412.77 918.9 Q2410.59 918.9 2408.32 918.53 Q2406.08 918.16 2403.67 917.419 L2403.67 912.72 Q2405.75 913.854 2407.98 914.41 Q2410.2 914.965 2412.68 914.965 Q2416.68 914.965 2419.02 912.859 Q2421.36 910.752 2421.36 907.141 Q2421.36 903.53 2419.02 901.424 Q2416.68 899.317 2412.68 899.317 Q2410.8 899.317 2408.93 899.734 Q2407.07 900.15 2405.13 901.03 L2405.13 883.669 Z" fill="#000000" fill-rule="evenodd" fill-opacity="1" /><path clip-path="url(#clip540)" d="M2249.2 712.5 Q2245.59 712.5 2243.76 716.065 Q2241.96 719.606 2241.96 726.736 Q2241.96 733.842 2243.76 737.407 Q2245.59 740.949 2249.2 740.949 Q2252.84 740.949 2254.64 737.407 Q2256.47 733.842 2256.47 726.736 Q2256.47 719.606 2254.64 716.065 Q2252.84 712.5 2249.2 712.5 M2249.2 708.796 Q2255.01 708.796 2258.07 713.403 Q2261.15 717.986 2261.15 726.736 Q2261.15 735.463 2258.07 740.069 Q2255.01 744.653 2249.2 744.653 Q2243.39 744.653 2240.32 740.069 Q2237.26 735.463 2237.26 726.736 Q2237.26 717.986 2240.32 713.403 Q2243.39 708.796 2249.2 708.796 Z" fill="#000000" fill-rule="evenodd" fill-opacity="1" /><path clip-path="url(#clip540)" d="M2269.37 738.102 L2274.25 738.102 L2274.25 743.981 L2269.37 743.981 L2269.37 738.102 Z" fill="#000000" fill-rule="evenodd" fill-opacity="1" /><path clip-path="url(#clip540)" d="M2294.44 712.5 Q2290.82 712.5 2289 716.065 Q2287.19 719.606 2287.19 726.736 Q2287.19 733.842 2289 737.407 Q2290.82 740.949 2294.44 740.949 Q2298.07 740.949 2299.88 737.407 Q2301.7 733.842 2301.7 726.736 Q2301.7 719.606 2299.88 716.065 Q2298.07 712.5 2294.44 712.5 M2294.44 708.796 Q2300.25 708.796 2303.3 713.403 Q2306.38 717.986 2306.38 726.736 Q2306.38 735.463 2303.3 740.069 Q2300.25 744.653 2294.44 744.653 Q2288.63 744.653 2285.55 740.069 Q2282.49 735.463 2282.49 726.736 Q2282.49 717.986 2285.55 713.403 Q2288.63 708.796 2294.44 708.796 Z" fill="#000000" fill-rule="evenodd" fill-opacity="1" /><path clip-path="url(#clip540)" d="M2324.6 712.5 Q2320.99 712.5 2319.16 716.065 Q2317.35 719.606 2317.35 726.736 Q2317.35 733.842 2319.16 737.407 Q2320.99 740.949 2324.6 740.949 Q2328.23 740.949 2330.04 737.407 Q2331.87 733.842 2331.87 726.736 Q2331.87 719.606 2330.04 716.065 Q2328.23 712.5 2324.6 712.5 M2324.6 708.796 Q2330.41 708.796 2333.46 713.403 Q2336.54 717.986 2336.54 726.736 Q2336.54 735.463 2333.46 740.069 Q2330.41 744.653 2324.6 744.653 Q2318.79 744.653 2315.71 740.069 Q2312.65 735.463 2312.65 726.736 Q2312.65 717.986 2315.71 713.403 Q2318.79 708.796 2324.6 708.796 Z" fill="#000000" fill-rule="evenodd" fill-opacity="1" /><path clip-path="url(#clip540)" d="M2354.76 712.5 Q2351.15 712.5 2349.32 716.065 Q2347.51 719.606 2347.51 726.736 Q2347.51 733.842 2349.32 737.407 Q2351.15 740.949 2354.76 740.949 Q2358.39 740.949 2360.2 737.407 Q2362.03 733.842 2362.03 726.736 Q2362.03 719.606 2360.2 716.065 Q2358.39 712.5 2354.76 712.5 M2354.76 708.796 Q2360.57 708.796 2363.62 713.403 Q2366.7 717.986 2366.7 726.736 Q2366.7 735.463 2363.62 740.069 Q2360.57 744.653 2354.76 744.653 Q2348.95 744.653 2345.87 740.069 Q2342.81 735.463 2342.81 726.736 Q2342.81 717.986 2345.87 713.403 Q2348.95 708.796 2354.76 708.796 Z" fill="#000000" fill-rule="evenodd" fill-opacity="1" /><path clip-path="url(#clip540)" d="M2374.97 709.421 L2393.32 709.421 L2393.32 713.356 L2379.25 713.356 L2379.25 721.829 Q2380.27 721.481 2381.29 721.319 Q2382.31 721.134 2383.32 721.134 Q2389.11 721.134 2392.49 724.305 Q2395.87 727.477 2395.87 732.893 Q2395.87 738.472 2392.4 741.574 Q2388.93 744.653 2382.61 744.653 Q2380.43 744.653 2378.16 744.282 Q2375.92 743.912 2373.51 743.171 L2373.51 738.472 Q2375.59 739.606 2377.81 740.162 Q2380.04 740.717 2382.51 740.717 Q2386.52 740.717 2388.86 738.611 Q2391.19 736.504 2391.19 732.893 Q2391.19 729.282 2388.86 727.176 Q2386.52 725.069 2382.51 725.069 Q2380.64 725.069 2378.76 725.486 Q2376.91 725.903 2374.97 726.782 L2374.97 709.421 Z" fill="#000000" fill-rule="evenodd" fill-opacity="1" /><path clip-path="url(#clip540)" d="M2415.08 712.5 Q2411.47 712.5 2409.64 716.065 Q2407.84 719.606 2407.84 726.736 Q2407.84 733.842 2409.64 737.407 Q2411.47 740.949 2415.08 740.949 Q2418.72 740.949 2420.52 737.407 Q2422.35 733.842 2422.35 726.736 Q2422.35 719.606 2420.52 716.065 Q2418.72 712.5 2415.08 712.5 M2415.08 708.796 Q2420.89 708.796 2423.95 713.403 Q2427.03 717.986 2427.03 726.736 Q2427.03 735.463 2423.95 740.069 Q2420.89 744.653 2415.08 744.653 Q2409.27 744.653 2406.19 740.069 Q2403.14 735.463 2403.14 726.736 Q2403.14 717.986 2406.19 713.403 Q2409.27 708.796 2415.08 708.796 Z" fill="#000000" fill-rule="evenodd" fill-opacity="1" /><path clip-path="url(#clip540)" d="M2249.2 538.252 Q2245.59 538.252 2243.76 541.817 Q2241.96 545.359 2241.96 552.488 Q2241.96 559.595 2243.76 563.159 Q2245.59 566.701 2249.2 566.701 Q2252.84 566.701 2254.64 563.159 Q2256.47 559.595 2256.47 552.488 Q2256.47 545.359 2254.64 541.817 Q2252.84 538.252 2249.2 538.252 M2249.2 534.549 Q2255.01 534.549 2258.07 539.155 Q2261.15 543.738 2261.15 552.488 Q2261.15 561.215 2258.07 565.821 Q2255.01 570.405 2249.2 570.405 Q2243.39 570.405 2240.32 565.821 Q2237.26 561.215 2237.26 552.488 Q2237.26 543.738 2240.32 539.155 Q2243.39 534.549 2249.2 534.549 Z" fill="#000000" fill-rule="evenodd" fill-opacity="1" /><path clip-path="url(#clip540)" d="M2269.37 563.854 L2274.25 563.854 L2274.25 569.734 L2269.37 569.734 L2269.37 563.854 Z" fill="#000000" fill-rule="evenodd" fill-opacity="1" /><path clip-path="url(#clip540)" d="M2294.44 538.252 Q2290.82 538.252 2289 541.817 Q2287.19 545.359 2287.19 552.488 Q2287.19 559.595 2289 563.159 Q2290.82 566.701 2294.44 566.701 Q2298.07 566.701 2299.88 563.159 Q2301.7 559.595 2301.7 552.488 Q2301.7 545.359 2299.88 541.817 Q2298.07 538.252 2294.44 538.252 M2294.44 534.549 Q2300.25 534.549 2303.3 539.155 Q2306.38 543.738 2306.38 552.488 Q2306.38 561.215 2303.3 565.821 Q2300.25 570.405 2294.44 570.405 Q2288.63 570.405 2285.55 565.821 Q2282.49 561.215 2282.49 552.488 Q2282.49 543.738 2285.55 539.155 Q2288.63 534.549 2294.44 534.549 Z" fill="#000000" fill-rule="evenodd" fill-opacity="1" /><path clip-path="url(#clip540)" d="M2324.6 538.252 Q2320.99 538.252 2319.16 541.817 Q2317.35 545.359 2317.35 552.488 Q2317.35 559.595 2319.16 563.159 Q2320.99 566.701 2324.6 566.701 Q2328.23 566.701 2330.04 563.159 Q2331.87 559.595 2331.87 552.488 Q2331.87 545.359 2330.04 541.817 Q2328.23 538.252 2324.6 538.252 M2324.6 534.549 Q2330.41 534.549 2333.46 539.155 Q2336.54 543.738 2336.54 552.488 Q2336.54 561.215 2333.46 565.821 Q2330.41 570.405 2324.6 570.405 Q2318.79 570.405 2315.71 565.821 Q2312.65 561.215 2312.65 552.488 Q2312.65 543.738 2315.71 539.155 Q2318.79 534.549 2324.6 534.549 Z" fill="#000000" fill-rule="evenodd" fill-opacity="1" /><path clip-path="url(#clip540)" d="M2354.76 538.252 Q2351.15 538.252 2349.32 541.817 Q2347.51 545.359 2347.51 552.488 Q2347.51 559.595 2349.32 563.159 Q2351.15 566.701 2354.76 566.701 Q2358.39 566.701 2360.2 563.159 Q2362.03 559.595 2362.03 552.488 Q2362.03 545.359 2360.2 541.817 Q2358.39 538.252 2354.76 538.252 M2354.76 534.549 Q2360.57 534.549 2363.62 539.155 Q2366.7 543.738 2366.7 552.488 Q2366.7 561.215 2363.62 565.821 Q2360.57 570.405 2354.76 570.405 Q2348.95 570.405 2345.87 565.821 Q2342.81 561.215 2342.81 552.488 Q2342.81 543.738 2345.87 539.155 Q2348.95 534.549 2354.76 534.549 Z" fill="#000000" fill-rule="evenodd" fill-opacity="1" /><path clip-path="url(#clip540)" d="M2373.74 535.174 L2395.96 535.174 L2395.96 537.164 L2383.42 569.734 L2378.53 569.734 L2390.34 539.109 L2373.74 539.109 L2373.74 535.174 Z" fill="#000000" fill-rule="evenodd" fill-opacity="1" /><path clip-path="url(#clip540)" d="M2405.13 535.174 L2423.49 535.174 L2423.49 539.109 L2409.41 539.109 L2409.41 547.581 Q2410.43 547.234 2411.45 547.072 Q2412.47 546.886 2413.49 546.886 Q2419.27 546.886 2422.65 550.058 Q2426.03 553.229 2426.03 558.646 Q2426.03 564.224 2422.56 567.326 Q2419.09 570.405 2412.77 570.405 Q2410.59 570.405 2408.32 570.034 Q2406.08 569.664 2403.67 568.923 L2403.67 564.224 Q2405.75 565.359 2407.98 565.914 Q2410.2 566.47 2412.68 566.47 Q2416.68 566.47 2419.02 564.363 Q2421.36 562.257 2421.36 558.646 Q2421.36 555.035 2419.02 552.928 Q2416.68 550.822 2412.68 550.822 Q2410.8 550.822 2408.93 551.238 Q2407.07 551.655 2405.13 552.535 L2405.13 535.174 Z" fill="#000000" fill-rule="evenodd" fill-opacity="1" /><path clip-path="url(#clip540)" d="M2249.2 364.004 Q2245.59 364.004 2243.76 367.569 Q2241.96 371.111 2241.96 378.24 Q2241.96 385.347 2243.76 388.912 Q2245.59 392.453 2249.2 392.453 Q2252.84 392.453 2254.64 388.912 Q2256.47 385.347 2256.47 378.24 Q2256.47 371.111 2254.64 367.569 Q2252.84 364.004 2249.2 364.004 M2249.2 360.301 Q2255.01 360.301 2258.07 364.907 Q2261.15 369.491 2261.15 378.24 Q2261.15 386.967 2258.07 391.574 Q2255.01 396.157 2249.2 396.157 Q2243.39 396.157 2240.32 391.574 Q2237.26 386.967 2237.26 378.24 Q2237.26 369.491 2240.32 364.907 Q2243.39 360.301 2249.2 360.301 Z" fill="#000000" fill-rule="evenodd" fill-opacity="1" /><path clip-path="url(#clip540)" d="M2269.37 389.606 L2274.25 389.606 L2274.25 395.486 L2269.37 395.486 L2269.37 389.606 Z" fill="#000000" fill-rule="evenodd" fill-opacity="1" /><path clip-path="url(#clip540)" d="M2294.44 364.004 Q2290.82 364.004 2289 367.569 Q2287.19 371.111 2287.19 378.24 Q2287.19 385.347 2289 388.912 Q2290.82 392.453 2294.44 392.453 Q2298.07 392.453 2299.88 388.912 Q2301.7 385.347 2301.7 378.24 Q2301.7 371.111 2299.88 367.569 Q2298.07 364.004 2294.44 364.004 M2294.44 360.301 Q2300.25 360.301 2303.3 364.907 Q2306.38 369.491 2306.38 378.24 Q2306.38 386.967 2303.3 391.574 Q2300.25 396.157 2294.44 396.157 Q2288.63 396.157 2285.55 391.574 Q2282.49 386.967 2282.49 378.24 Q2282.49 369.491 2285.55 364.907 Q2288.63 360.301 2294.44 360.301 Z" fill="#000000" fill-rule="evenodd" fill-opacity="1" /><path clip-path="url(#clip540)" d="M2324.6 364.004 Q2320.99 364.004 2319.16 367.569 Q2317.35 371.111 2317.35 378.24 Q2317.35 385.347 2319.16 388.912 Q2320.99 392.453 2324.6 392.453 Q2328.23 392.453 2330.04 388.912 Q2331.87 385.347 2331.87 378.24 Q2331.87 371.111 2330.04 367.569 Q2328.23 364.004 2324.6 364.004 M2324.6 360.301 Q2330.41 360.301 2333.46 364.907 Q2336.54 369.491 2336.54 378.24 Q2336.54 386.967 2333.46 391.574 Q2330.41 396.157 2324.6 396.157 Q2318.79 396.157 2315.71 391.574 Q2312.65 386.967 2312.65 378.24 Q2312.65 369.491 2315.71 364.907 Q2318.79 360.301 2324.6 360.301 Z" fill="#000000" fill-rule="evenodd" fill-opacity="1" /><path clip-path="url(#clip540)" d="M2345.57 391.551 L2353.21 391.551 L2353.21 365.185 L2344.9 366.852 L2344.9 362.592 L2353.16 360.926 L2357.84 360.926 L2357.84 391.551 L2365.48 391.551 L2365.48 395.486 L2345.57 395.486 L2345.57 391.551 Z" fill="#000000" fill-rule="evenodd" fill-opacity="1" /><path clip-path="url(#clip540)" d="M2384.92 364.004 Q2381.31 364.004 2379.48 367.569 Q2377.68 371.111 2377.68 378.24 Q2377.68 385.347 2379.48 388.912 Q2381.31 392.453 2384.92 392.453 Q2388.56 392.453 2390.36 388.912 Q2392.19 385.347 2392.19 378.24 Q2392.19 371.111 2390.36 367.569 Q2388.56 364.004 2384.92 364.004 M2384.92 360.301 Q2390.73 360.301 2393.79 364.907 Q2396.87 369.491 2396.87 378.24 Q2396.87 386.967 2393.79 391.574 Q2390.73 396.157 2384.92 396.157 Q2379.11 396.157 2376.03 391.574 Q2372.98 386.967 2372.98 378.24 Q2372.98 369.491 2376.03 364.907 Q2379.11 360.301 2384.92 360.301 Z" fill="#000000" fill-rule="evenodd" fill-opacity="1" /><path clip-path="url(#clip540)" d="M2415.08 364.004 Q2411.47 364.004 2409.64 367.569 Q2407.84 371.111 2407.84 378.24 Q2407.84 385.347 2409.64 388.912 Q2411.47 392.453 2415.08 392.453 Q2418.72 392.453 2420.52 388.912 Q2422.35 385.347 2422.35 378.24 Q2422.35 371.111 2420.52 367.569 Q2418.72 364.004 2415.08 364.004 M2415.08 360.301 Q2420.89 360.301 2423.95 364.907 Q2427.03 369.491 2427.03 378.24 Q2427.03 386.967 2423.95 391.574 Q2420.89 396.157 2415.08 396.157 Q2409.27 396.157 2406.19 391.574 Q2403.14 386.967 2403.14 378.24 Q2403.14 369.491 2406.19 364.907 Q2409.27 360.301 2415.08 360.301 Z" fill="#000000" fill-rule="evenodd" fill-opacity="1" /><path clip-path="url(#clip540)" d="M2249.2 189.757 Q2245.59 189.757 2243.76 193.321 Q2241.96 196.863 2241.96 203.993 Q2241.96 211.099 2243.76 214.664 Q2245.59 218.206 2249.2 218.206 Q2252.84 218.206 2254.64 214.664 Q2256.47 211.099 2256.47 203.993 Q2256.47 196.863 2254.64 193.321 Q2252.84 189.757 2249.2 189.757 M2249.2 186.053 Q2255.01 186.053 2258.07 190.659 Q2261.15 195.243 2261.15 203.993 Q2261.15 212.719 2258.07 217.326 Q2255.01 221.909 2249.2 221.909 Q2243.39 221.909 2240.32 217.326 Q2237.26 212.719 2237.26 203.993 Q2237.26 195.243 2240.32 190.659 Q2243.39 186.053 2249.2 186.053 Z" fill="#000000" fill-rule="evenodd" fill-opacity="1" /><path clip-path="url(#clip540)" d="M2269.37 215.358 L2274.25 215.358 L2274.25 221.238 L2269.37 221.238 L2269.37 215.358 Z" fill="#000000" fill-rule="evenodd" fill-opacity="1" /><path clip-path="url(#clip540)" d="M2294.44 189.757 Q2290.82 189.757 2289 193.321 Q2287.19 196.863 2287.19 203.993 Q2287.19 211.099 2289 214.664 Q2290.82 218.206 2294.44 218.206 Q2298.07 218.206 2299.88 214.664 Q2301.7 211.099 2301.7 203.993 Q2301.7 196.863 2299.88 193.321 Q2298.07 189.757 2294.44 189.757 M2294.44 186.053 Q2300.25 186.053 2303.3 190.659 Q2306.38 195.243 2306.38 203.993 Q2306.38 212.719 2303.3 217.326 Q2300.25 221.909 2294.44 221.909 Q2288.63 221.909 2285.55 217.326 Q2282.49 212.719 2282.49 203.993 Q2282.49 195.243 2285.55 190.659 Q2288.63 186.053 2294.44 186.053 Z" fill="#000000" fill-rule="evenodd" fill-opacity="1" /><path clip-path="url(#clip540)" d="M2324.6 189.757 Q2320.99 189.757 2319.16 193.321 Q2317.35 196.863 2317.35 203.993 Q2317.35 211.099 2319.16 214.664 Q2320.99 218.206 2324.6 218.206 Q2328.23 218.206 2330.04 214.664 Q2331.87 211.099 2331.87 203.993 Q2331.87 196.863 2330.04 193.321 Q2328.23 189.757 2324.6 189.757 M2324.6 186.053 Q2330.41 186.053 2333.46 190.659 Q2336.54 195.243 2336.54 203.993 Q2336.54 212.719 2333.46 217.326 Q2330.41 221.909 2324.6 221.909 Q2318.79 221.909 2315.71 217.326 Q2312.65 212.719 2312.65 203.993 Q2312.65 195.243 2315.71 190.659 Q2318.79 186.053 2324.6 186.053 Z" fill="#000000" fill-rule="evenodd" fill-opacity="1" /><path clip-path="url(#clip540)" d="M2345.57 217.303 L2353.21 217.303 L2353.21 190.937 L2344.9 192.604 L2344.9 188.345 L2353.16 186.678 L2357.84 186.678 L2357.84 217.303 L2365.48 217.303 L2365.48 221.238 L2345.57 221.238 L2345.57 217.303 Z" fill="#000000" fill-rule="evenodd" fill-opacity="1" /><path clip-path="url(#clip540)" d="M2378.95 217.303 L2395.27 217.303 L2395.27 221.238 L2373.32 221.238 L2373.32 217.303 Q2375.99 214.548 2380.57 209.919 Q2385.18 205.266 2386.36 203.923 Q2388.6 201.4 2389.48 199.664 Q2390.38 197.905 2390.38 196.215 Q2390.38 193.46 2388.44 191.724 Q2386.52 189.988 2383.42 189.988 Q2381.22 189.988 2378.76 190.752 Q2376.33 191.516 2373.56 193.067 L2373.56 188.345 Q2376.38 187.21 2378.83 186.632 Q2381.29 186.053 2383.32 186.053 Q2388.69 186.053 2391.89 188.738 Q2395.08 191.423 2395.08 195.914 Q2395.08 198.044 2394.27 199.965 Q2393.49 201.863 2391.38 204.456 Q2390.8 205.127 2387.7 208.345 Q2384.6 211.539 2378.95 217.303 Z" fill="#000000" fill-rule="evenodd" fill-opacity="1" /><path clip-path="url(#clip540)" d="M2405.13 186.678 L2423.49 186.678 L2423.49 190.613 L2409.41 190.613 L2409.41 199.085 Q2410.43 198.738 2411.45 198.576 Q2412.47 198.391 2413.49 198.391 Q2419.27 198.391 2422.65 201.562 Q2426.03 204.733 2426.03 210.15 Q2426.03 215.729 2422.56 218.831 Q2419.09 221.909 2412.77 221.909 Q2410.59 221.909 2408.32 221.539 Q2406.08 221.169 2403.67 220.428 L2403.67 215.729 Q2405.75 216.863 2407.98 217.419 Q2410.2 217.974 2412.68 217.974 Q2416.68 217.974 2419.02 215.868 Q2421.36 213.761 2421.36 210.15 Q2421.36 206.539 2419.02 204.433 Q2416.68 202.326 2412.68 202.326 Q2410.8 202.326 2408.93 202.743 Q2407.07 203.159 2405.13 204.039 L2405.13 186.678 Z" fill="#000000" fill-rule="evenodd" fill-opacity="1" /><polyline clip-path="url(#clip540)" style="stroke:#000000; stroke-linecap:butt; stroke-linejoin:round; stroke-width:4; stroke-opacity:1; fill:none" points="
  2201.26,1348.98 2201.26,1253.07 2225.26,1253.07 2201.26,1253.07 2201.26,1078.83 2225.26,1078.83 2201.26,1078.83 2201.26,904.578 2225.26,904.578 2201.26,904.578 
  2201.26,730.33 2225.26,730.33 2201.26,730.33 2201.26,556.082 2225.26,556.082 2201.26,556.082 2201.26,381.835 2225.26,381.835 2201.26,381.835 2201.26,207.587 
  2225.26,207.587 2201.26,207.587 2201.26,197.675 
  "/>
</svg>
