<?xml version="1.0" encoding="utf-8"?>
<svg xmlns="http://www.w3.org/2000/svg" xmlns:xlink="http://www.w3.org/1999/xlink" width="600" height="400" viewBox="0 0 2400 1600">
<defs>
  <clipPath id="clip690">
    <rect x="0" y="0" width="2400" height="1600"/>
  </clipPath>
</defs>
<path clip-path="url(#clip690)" d="
M0 1600 L2400 1600 L2400 0 L0 0  Z
  " fill="#ffffff" fill-rule="evenodd" fill-opacity="1"/>
<defs>
  <clipPath id="clip691">
    <rect x="480" y="0" width="1681" height="1600"/>
  </clipPath>
</defs>
<path clip-path="url(#clip690)" d="
M188.292 1486.45 L2352.76 1486.45 L2352.76 47.2441 L188.292 47.2441  Z
  " fill="#ffffff" fill-rule="evenodd" fill-opacity="1"/>
<defs>
  <clipPath id="clip692">
    <rect x="188" y="47" width="2165" height="1440"/>
  </clipPath>
</defs>
<polyline clip-path="url(#clip692)" style="stroke:#000000; stroke-linecap:round; stroke-linejoin:round; stroke-width:2; stroke-opacity:0.1; fill:none" points="
  249.551,1486.45 249.551,47.2441 
  "/>
<polyline clip-path="url(#clip692)" style="stroke:#000000; stroke-linecap:round; stroke-linejoin:round; stroke-width:2; stroke-opacity:0.1; fill:none" points="
  843.14,1486.45 843.14,47.2441 
  "/>
<polyline clip-path="url(#clip692)" style="stroke:#000000; stroke-linecap:round; stroke-linejoin:round; stroke-width:2; stroke-opacity:0.1; fill:none" points="
  1436.73,1486.45 1436.73,47.2441 
  "/>
<polyline clip-path="url(#clip692)" style="stroke:#000000; stroke-linecap:round; stroke-linejoin:round; stroke-width:2; stroke-opacity:0.1; fill:none" points="
  2030.32,1486.45 2030.32,47.2441 
  "/>
<polyline clip-path="url(#clip690)" style="stroke:#000000; stroke-linecap:round; stroke-linejoin:round; stroke-width:4; stroke-opacity:1; fill:none" points="
  188.292,1486.45 2352.76,1486.45 
  "/>
<polyline clip-path="url(#clip690)" style="stroke:#000000; stroke-linecap:round; stroke-linejoin:round; stroke-width:4; stroke-opacity:1; fill:none" points="
  249.551,1486.45 249.551,1467.55 
  "/>
<polyline clip-path="url(#clip690)" style="stroke:#000000; stroke-linecap:round; stroke-linejoin:round; stroke-width:4; stroke-opacity:1; fill:none" points="
  843.14,1486.45 843.14,1467.55 
  "/>
<polyline clip-path="url(#clip690)" style="stroke:#000000; stroke-linecap:round; stroke-linejoin:round; stroke-width:4; stroke-opacity:1; fill:none" points="
  1436.73,1486.45 1436.73,1467.55 
  "/>
<polyline clip-path="url(#clip690)" style="stroke:#000000; stroke-linecap:round; stroke-linejoin:round; stroke-width:4; stroke-opacity:1; fill:none" points="
  2030.32,1486.45 2030.32,1467.55 
  "/>
<path clip-path="url(#clip690)" d="M249.551 1517.37 Q245.94 1517.37 244.111 1520.93 Q242.305 1524.47 242.305 1531.6 Q242.305 1538.71 244.111 1542.27 Q245.94 1545.82 249.551 1545.82 Q253.185 1545.82 254.99 1542.27 Q256.819 1538.71 256.819 1531.6 Q256.819 1524.47 254.99 1520.93 Q253.185 1517.37 249.551 1517.37 M249.551 1513.66 Q255.361 1513.66 258.416 1518.27 Q261.495 1522.85 261.495 1531.6 Q261.495 1540.33 258.416 1544.94 Q255.361 1549.52 249.551 1549.52 Q243.74 1549.52 240.662 1544.94 Q237.606 1540.33 237.606 1531.6 Q237.606 1522.85 240.662 1518.27 Q243.74 1513.66 249.551 1513.66 Z" fill="#000000" fill-rule="evenodd" fill-opacity="1" /><path clip-path="url(#clip690)" d="M817.839 1514.29 L836.195 1514.29 L836.195 1518.22 L822.121 1518.22 L822.121 1526.7 Q823.14 1526.35 824.158 1526.19 Q825.177 1526 826.195 1526 Q831.982 1526 835.362 1529.17 Q838.742 1532.34 838.742 1537.76 Q838.742 1543.34 835.27 1546.44 Q831.797 1549.52 825.478 1549.52 Q823.302 1549.52 821.033 1549.15 Q818.788 1548.78 816.381 1548.04 L816.381 1543.34 Q818.464 1544.47 820.686 1545.03 Q822.908 1545.58 825.385 1545.58 Q829.39 1545.58 831.728 1543.48 Q834.066 1541.37 834.066 1537.76 Q834.066 1534.15 831.728 1532.04 Q829.39 1529.94 825.385 1529.94 Q823.51 1529.94 821.635 1530.35 Q819.783 1530.77 817.839 1531.65 L817.839 1514.29 Z" fill="#000000" fill-rule="evenodd" fill-opacity="1" /><path clip-path="url(#clip690)" d="M857.955 1517.37 Q854.343 1517.37 852.515 1520.93 Q850.709 1524.47 850.709 1531.6 Q850.709 1538.71 852.515 1542.27 Q854.343 1545.82 857.955 1545.82 Q861.589 1545.82 863.394 1542.27 Q865.223 1538.71 865.223 1531.6 Q865.223 1524.47 863.394 1520.93 Q861.589 1517.37 857.955 1517.37 M857.955 1513.66 Q863.765 1513.66 866.82 1518.27 Q869.899 1522.85 869.899 1531.6 Q869.899 1540.33 866.82 1544.94 Q863.765 1549.52 857.955 1549.52 Q852.144 1549.52 849.066 1544.94 Q846.01 1540.33 846.01 1531.6 Q846.01 1522.85 849.066 1518.27 Q852.144 1513.66 857.955 1513.66 Z" fill="#000000" fill-rule="evenodd" fill-opacity="1" /><path clip-path="url(#clip690)" d="M1396.34 1544.91 L1403.97 1544.91 L1403.97 1518.55 L1395.66 1520.21 L1395.66 1515.95 L1403.93 1514.29 L1408.6 1514.29 L1408.6 1544.91 L1416.24 1544.91 L1416.24 1548.85 L1396.34 1548.85 L1396.34 1544.91 Z" fill="#000000" fill-rule="evenodd" fill-opacity="1" /><path clip-path="url(#clip690)" d="M1435.69 1517.37 Q1432.08 1517.37 1430.25 1520.93 Q1428.44 1524.47 1428.44 1531.6 Q1428.44 1538.71 1430.25 1542.27 Q1432.08 1545.82 1435.69 1545.82 Q1439.32 1545.82 1441.13 1542.27 Q1442.96 1538.71 1442.96 1531.6 Q1442.96 1524.47 1441.13 1520.93 Q1439.32 1517.37 1435.69 1517.37 M1435.69 1513.66 Q1441.5 1513.66 1444.55 1518.27 Q1447.63 1522.85 1447.63 1531.6 Q1447.63 1540.33 1444.55 1544.94 Q1441.5 1549.52 1435.69 1549.52 Q1429.88 1549.52 1426.8 1544.94 Q1423.74 1540.33 1423.74 1531.6 Q1423.74 1522.85 1426.8 1518.27 Q1429.88 1513.66 1435.69 1513.66 Z" fill="#000000" fill-rule="evenodd" fill-opacity="1" /><path clip-path="url(#clip690)" d="M1465.85 1517.37 Q1462.24 1517.37 1460.41 1520.93 Q1458.6 1524.47 1458.6 1531.6 Q1458.6 1538.71 1460.41 1542.27 Q1462.24 1545.82 1465.85 1545.82 Q1469.48 1545.82 1471.29 1542.27 Q1473.12 1538.71 1473.12 1531.6 Q1473.12 1524.47 1471.29 1520.93 Q1469.48 1517.37 1465.85 1517.37 M1465.85 1513.66 Q1471.66 1513.66 1474.71 1518.27 Q1477.79 1522.85 1477.79 1531.6 Q1477.79 1540.33 1474.71 1544.94 Q1471.66 1549.52 1465.85 1549.52 Q1460.04 1549.52 1456.96 1544.94 Q1453.9 1540.33 1453.9 1531.6 Q1453.9 1522.85 1456.96 1518.27 Q1460.04 1513.66 1465.85 1513.66 Z" fill="#000000" fill-rule="evenodd" fill-opacity="1" /><path clip-path="url(#clip690)" d="M1989.92 1544.91 L1997.56 1544.91 L1997.56 1518.55 L1989.25 1520.21 L1989.25 1515.95 L1997.52 1514.29 L2002.19 1514.29 L2002.19 1544.91 L2009.83 1544.91 L2009.83 1548.85 L1989.92 1548.85 L1989.92 1544.91 Z" fill="#000000" fill-rule="evenodd" fill-opacity="1" /><path clip-path="url(#clip690)" d="M2019.32 1514.29 L2037.68 1514.29 L2037.68 1518.22 L2023.61 1518.22 L2023.61 1526.7 Q2024.62 1526.35 2025.64 1526.19 Q2026.66 1526 2027.68 1526 Q2033.47 1526 2036.85 1529.17 Q2040.23 1532.34 2040.23 1537.76 Q2040.23 1543.34 2036.75 1546.44 Q2033.28 1549.52 2026.96 1549.52 Q2024.79 1549.52 2022.52 1549.15 Q2020.27 1548.78 2017.86 1548.04 L2017.86 1543.34 Q2019.95 1544.47 2022.17 1545.03 Q2024.39 1545.58 2026.87 1545.58 Q2030.87 1545.58 2033.21 1543.48 Q2035.55 1541.37 2035.55 1537.76 Q2035.55 1534.15 2033.21 1532.04 Q2030.87 1529.94 2026.87 1529.94 Q2024.99 1529.94 2023.12 1530.35 Q2021.27 1530.77 2019.32 1531.65 L2019.32 1514.29 Z" fill="#000000" fill-rule="evenodd" fill-opacity="1" /><path clip-path="url(#clip690)" d="M2059.44 1517.37 Q2055.83 1517.37 2054 1520.93 Q2052.19 1524.47 2052.19 1531.6 Q2052.19 1538.71 2054 1542.27 Q2055.83 1545.82 2059.44 1545.82 Q2063.07 1545.82 2064.88 1542.27 Q2066.71 1538.71 2066.71 1531.6 Q2066.71 1524.47 2064.88 1520.93 Q2063.07 1517.37 2059.44 1517.37 M2059.44 1513.66 Q2065.25 1513.66 2068.3 1518.27 Q2071.38 1522.85 2071.38 1531.6 Q2071.38 1540.33 2068.3 1544.94 Q2065.25 1549.52 2059.44 1549.52 Q2053.63 1549.52 2050.55 1544.94 Q2047.49 1540.33 2047.49 1531.6 Q2047.49 1522.85 2050.55 1518.27 Q2053.63 1513.66 2059.44 1513.66 Z" fill="#000000" fill-rule="evenodd" fill-opacity="1" /><polyline clip-path="url(#clip692)" style="stroke:#000000; stroke-linecap:round; stroke-linejoin:round; stroke-width:2; stroke-opacity:0.1; fill:none" points="
  188.292,926.715 2352.76,926.715 
  "/>
<polyline clip-path="url(#clip692)" style="stroke:#000000; stroke-linecap:round; stroke-linejoin:round; stroke-width:2; stroke-opacity:0.1; fill:none" points="
  188.292,87.9763 2352.76,87.9763 
  "/>
<polyline clip-path="url(#clip690)" style="stroke:#000000; stroke-linecap:round; stroke-linejoin:round; stroke-width:4; stroke-opacity:1; fill:none" points="
  188.292,1486.45 188.292,47.2441 
  "/>
<polyline clip-path="url(#clip690)" style="stroke:#000000; stroke-linecap:round; stroke-linejoin:round; stroke-width:4; stroke-opacity:1; fill:none" points="
  188.292,926.715 207.19,926.715 
  "/>
<polyline clip-path="url(#clip690)" style="stroke:#000000; stroke-linecap:round; stroke-linejoin:round; stroke-width:4; stroke-opacity:1; fill:none" points="
  188.292,87.9763 207.19,87.9763 
  "/>
<path clip-path="url(#clip690)" d="M51.6634 946.507 L59.3023 946.507 L59.3023 920.142 L50.9921 921.808 L50.9921 917.549 L59.256 915.882 L63.9319 915.882 L63.9319 946.507 L71.5707 946.507 L71.5707 950.442 L51.6634 950.442 L51.6634 946.507 Z" fill="#000000" fill-rule="evenodd" fill-opacity="1" /><path clip-path="url(#clip690)" d="M91.0151 918.961 Q87.404 918.961 85.5753 922.526 Q83.7697 926.068 83.7697 933.197 Q83.7697 940.304 85.5753 943.868 Q87.404 947.41 91.0151 947.41 Q94.6493 947.41 96.4548 943.868 Q98.2835 940.304 98.2835 933.197 Q98.2835 926.068 96.4548 922.526 Q94.6493 918.961 91.0151 918.961 M91.0151 915.257 Q96.8252 915.257 99.8808 919.864 Q102.959 924.447 102.959 933.197 Q102.959 941.924 99.8808 946.53 Q96.8252 951.114 91.0151 951.114 Q85.2049 951.114 82.1262 946.53 Q79.0707 941.924 79.0707 933.197 Q79.0707 924.447 82.1262 919.864 Q85.2049 915.257 91.0151 915.257 Z" fill="#000000" fill-rule="evenodd" fill-opacity="1" /><path clip-path="url(#clip690)" d="M102.959 909.359 L127.071 909.359 L127.071 912.556 L102.959 912.556 L102.959 909.359 Z" fill="#000000" fill-rule="evenodd" fill-opacity="1" /><path clip-path="url(#clip690)" d="M135.309 894.952 L150.223 894.952 L150.223 898.149 L138.788 898.149 L138.788 905.033 Q139.616 904.751 140.443 904.619 Q141.271 904.469 142.098 904.469 Q146.8 904.469 149.546 907.045 Q152.292 909.622 152.292 914.023 Q152.292 918.556 149.471 921.076 Q146.65 923.577 141.515 923.577 Q139.747 923.577 137.904 923.277 Q136.08 922.976 134.124 922.374 L134.124 918.556 Q135.817 919.477 137.622 919.929 Q139.428 920.38 141.44 920.38 Q144.694 920.38 146.593 918.669 Q148.493 916.957 148.493 914.023 Q148.493 911.089 146.593 909.378 Q144.694 907.666 141.44 907.666 Q139.917 907.666 138.393 908.005 Q136.889 908.343 135.309 909.058 L135.309 894.952 Z" fill="#000000" fill-rule="evenodd" fill-opacity="1" /><path clip-path="url(#clip690)" d="M81.5866 107.769 L89.2254 107.769 L89.2254 81.4031 L80.9153 83.0698 L80.9153 78.8105 L89.1791 77.1439 L93.855 77.1439 L93.855 107.769 L101.494 107.769 L101.494 111.704 L81.5866 111.704 L81.5866 107.769 Z" fill="#000000" fill-rule="evenodd" fill-opacity="1" /><path clip-path="url(#clip690)" d="M120.938 80.2226 Q117.327 80.2226 115.498 83.7874 Q113.693 87.329 113.693 94.4586 Q113.693 101.565 115.498 105.13 Q117.327 108.671 120.938 108.671 Q124.572 108.671 126.378 105.13 Q128.207 101.565 128.207 94.4586 Q128.207 87.329 126.378 83.7874 Q124.572 80.2226 120.938 80.2226 M120.938 76.5189 Q126.748 76.5189 129.804 81.1253 Q132.883 85.7086 132.883 94.4586 Q132.883 103.185 129.804 107.792 Q126.748 112.375 120.938 112.375 Q115.128 112.375 112.049 107.792 Q108.994 103.185 108.994 94.4586 Q108.994 85.7086 112.049 81.1253 Q115.128 76.5189 120.938 76.5189 Z" fill="#000000" fill-rule="evenodd" fill-opacity="1" /><path clip-path="url(#clip690)" d="M142.587 58.7149 Q139.653 58.7149 138.168 61.6113 Q136.701 64.4889 136.701 70.2817 Q136.701 76.0557 138.168 78.9521 Q139.653 81.8297 142.587 81.8297 Q145.54 81.8297 147.007 78.9521 Q148.493 76.0557 148.493 70.2817 Q148.493 64.4889 147.007 61.6113 Q145.54 58.7149 142.587 58.7149 M142.587 55.7057 Q147.308 55.7057 149.791 59.4484 Q152.292 63.1724 152.292 70.2817 Q152.292 77.3722 149.791 81.115 Q147.308 84.8389 142.587 84.8389 Q137.867 84.8389 135.365 81.115 Q132.883 77.3722 132.883 70.2817 Q132.883 63.1724 135.365 59.4484 Q137.867 55.7057 142.587 55.7057 Z" fill="#000000" fill-rule="evenodd" fill-opacity="1" /><polyline clip-path="url(#clip692)" style="stroke:#009af9; stroke-linecap:round; stroke-linejoin:round; stroke-width:4; stroke-opacity:1; fill:none" points="
  249.551,87.9763 261.422,204.653 273.294,235.148 285.166,337.535 297.038,371.944 308.91,372.075 320.781,471.45 332.653,530.087 344.525,536.135 356.397,542.206 
  368.268,605.589 380.14,616.706 392.012,616.91 403.884,618.054 415.756,619.282 427.627,620.361 439.499,626.266 451.371,635.99 463.243,652.168 475.115,709.892 
  486.986,712.261 498.858,722.213 510.73,764.646 522.602,765.282 534.473,769.702 546.345,786.855 558.217,790.683 570.089,825.251 581.961,848.216 593.832,851.389 
  605.704,852.156 617.576,859.431 629.448,862.416 641.32,888.837 653.191,915.127 665.063,916.298 676.935,920.952 688.807,922.592 700.678,922.916 712.55,924.187 
  724.422,924.299 736.294,925.021 748.166,925.813 760.037,938.057 771.909,943.388 783.781,943.508 795.653,972.693 807.524,982.586 819.396,984.609 831.268,999.632 
  843.14,999.646 855.012,1004.21 866.883,1004.97 878.755,1006.91 890.627,1008.57 902.499,1008.57 914.371,1009.03 926.242,1017.52 938.114,1019.34 949.986,1027.43 
  961.858,1028.23 973.729,1028.54 985.601,1040.53 997.473,1040.54 1009.34,1045.85 1021.22,1046.45 1033.09,1048.06 1044.96,1053.85 1056.83,1054.88 1068.7,1065.19 
  1080.58,1065.64 1092.45,1071.34 1104.32,1080.8 1116.19,1095.41 1128.06,1095.97 1139.93,1102.79 1151.81,1102.96 1163.68,1106.24 1175.55,1106.55 1187.42,1107.68 
  1199.29,1107.71 1211.17,1107.77 1223.04,1107.94 1234.91,1108.51 1246.78,1109.19 1258.65,1109.46 1270.52,1109.84 1282.4,1110.06 1294.27,1110.28 1306.14,1110.3 
  1318.01,1111.22 1329.88,1113.76 1341.75,1118.11 1353.63,1120.89 1365.5,1123.33 1377.37,1125.05 1389.24,1145.06 1401.11,1158.93 1412.99,1159.28 1424.86,1167.23 
  1436.73,1167.59 1448.6,1168.17 1460.47,1168.18 1472.34,1168.98 1484.22,1170.16 1496.09,1170.2 1507.96,1172.8 1519.83,1180.09 1531.7,1188.67 1543.58,1196.73 
  1555.45,1199.73 1567.32,1206.74 1579.19,1209.53 1591.06,1220.58 1602.93,1220.75 1614.81,1229.64 1626.68,1229.66 1638.55,1233.45 1650.42,1233.87 1662.29,1237.78 
  1674.16,1237.79 1686.04,1238.73 1697.91,1238.98 1709.78,1251.81 1721.65,1254.18 1733.52,1261.22 1745.4,1261.28 1757.27,1267.09 1769.14,1267.57 1781.01,1267.59 
  1792.88,1267.62 1804.75,1269.43 1816.63,1270.18 1828.5,1273.19 1840.37,1273.3 1852.24,1275.15 1864.11,1276.72 1875.99,1281.09 1887.86,1282.94 1899.73,1283.07 
  1911.6,1283.27 1923.47,1283.6 1935.34,1284.69 1947.22,1289.14 1959.09,1293.79 1970.96,1312.23 1982.83,1313.02 1994.7,1315.7 2006.57,1334.48 2018.45,1346.46 
  2030.32,1353.25 2042.19,1353.3 2054.06,1358.53 2065.93,1360.49 2077.81,1364.34 2089.68,1365.42 2101.55,1365.51 2113.42,1369.44 2125.29,1375.93 2137.16,1389.34 
  2149.04,1400.82 2160.91,1406.3 2172.78,1408.18 2184.65,1408.34 2196.52,1411.64 2208.4,1411.8 2220.27,1412.07 2232.14,1413.04 2244.01,1413.1 2255.88,1413.35 
  2267.75,1417.31 2279.63,1427.9 2291.5,1438.54 
  "/>
<polyline clip-path="url(#clip692)" style="stroke:#e26f46; stroke-linecap:round; stroke-linejoin:round; stroke-width:4; stroke-opacity:1; fill:none" points="
  249.551,87.9763 261.422,274.028 273.294,303.57 285.166,352.026 297.038,390.598 308.91,508.968 320.781,557.476 332.653,630.328 344.525,719.404 356.397,726.797 
  368.268,741.085 380.14,760.493 392.012,782.585 403.884,785.973 415.756,790.275 427.627,791.978 439.499,795.117 451.371,795.431 463.243,799.211 475.115,806.367 
  486.986,807.495 498.858,814.285 510.73,816.183 522.602,818.999 534.473,862.806 546.345,885.422 558.217,888.459 570.089,897.25 581.961,903.845 593.832,904.239 
  605.704,905.727 617.576,932.535 629.448,989.708 641.32,1004.45 653.191,1004.77 665.063,1004.77 676.935,1005.21 688.807,1005.72 700.678,1013.45 712.55,1030.86 
  724.422,1032.56 736.294,1032.59 748.166,1033.79 760.037,1035.26 771.909,1035.87 783.781,1041.36 795.653,1053.82 807.524,1114.64 819.396,1117.16 831.268,1117.82 
  843.14,1119.22 855.012,1120.21 866.883,1121.1 878.755,1131.26 890.627,1142.12 902.499,1147.94 914.371,1147.95 926.242,1148.19 938.114,1148.74 949.986,1150.95 
  961.858,1156.47 973.729,1164.85 985.601,1164.86 997.473,1164.96 1009.34,1165.95 1021.22,1166.97 1033.09,1169.55 1044.96,1187.36 1056.83,1187.36 1068.7,1188.64 
  1080.58,1226.24 1092.45,1227.31 1104.32,1227.32 1116.19,1232.97 1128.06,1234.8 1139.93,1237.05 1151.81,1278.6 1163.68,1279.13 1175.55,1279.17 1187.42,1280.53 
  1199.29,1281.16 1211.17,1282.91 1223.04,1297.93 1234.91,1298.05 1246.78,1298.06 1258.65,1298.15 1270.52,1299.73 1282.4,1302.04 1294.27,1307.06 1306.14,1307.23 
  1318.01,1307.59 1329.88,1309.6 1341.75,1312.07 1353.63,1312.81 1365.5,1313 1377.37,1320.4 1389.24,1324.15 1401.11,1326.05 1412.99,1326.05 1424.86,1326.08 
  1436.73,1326.28 1448.6,1332.63 1460.47,1332.66 1472.34,1332.79 1484.22,1332.96 1496.09,1335.77 1507.96,1337.12 1519.83,1337.22 1531.7,1339.15 1543.58,1339.5 
  1555.45,1344.33 1567.32,1348.71 1579.19,1349.99 1591.06,1350.03 1602.93,1350.19 1614.81,1350.68 1626.68,1356.55 1638.55,1356.82 1650.42,1356.85 1662.29,1359.32 
  1674.16,1361.16 1686.04,1362.36 1697.91,1362.67 1709.78,1370.49 1721.65,1376.52 1733.52,1386.84 1745.4,1388.13 1757.27,1388.88 1769.14,1397.35 1781.01,1397.72 
  1792.88,1398.72 1804.75,1402.91 1816.63,1403.14 1828.5,1403.88 1840.37,1412.52 1852.24,1417.45 1864.11,1417.45 1875.99,1417.45 1887.86,1418.24 1899.73,1418.32 
  1911.6,1421.81 1923.47,1421.89 1935.34,1423.09 1947.22,1423.91 1959.09,1424.2 1970.96,1425.15 1982.83,1428.62 1994.7,1428.65 2006.57,1430.2 
  "/>
<polyline clip-path="url(#clip692)" style="stroke:#3da44d; stroke-linecap:round; stroke-linejoin:round; stroke-width:4; stroke-opacity:1; fill:none" points="
  249.551,87.9763 261.422,319.874 273.294,349.463 285.166,366.241 297.038,386.732 308.91,600.438 320.781,628.96 332.653,651.639 344.525,803.895 356.397,825.519 
  368.268,828.737 380.14,870.305 392.012,882.292 403.884,889.8 415.756,907.155 427.627,909.579 439.499,913.816 451.371,915.153 463.243,919.159 475.115,920.657 
  486.986,921.072 498.858,928.831 510.73,929.23 522.602,929.317 534.473,929.366 546.345,929.472 558.217,931.676 570.089,954.121 581.961,966.693 593.832,968.922 
  605.704,976.596 617.576,1012.81 629.448,1028.25 641.32,1029.45 653.191,1029.61 665.063,1037.83 676.935,1053.9 688.807,1064.13 700.678,1064.4 712.55,1064.66 
  724.422,1076.97 736.294,1099.5 748.166,1109.76 760.037,1111.8 771.909,1115.08 783.781,1137.22 795.653,1144.15 807.524,1144.97 819.396,1145.03 831.268,1145.03 
  843.14,1145.04 855.012,1145.27 866.883,1148.03 878.755,1156 890.627,1160.51 902.499,1160.51 914.371,1160.74 926.242,1163 938.114,1163.35 949.986,1163.92 
  961.858,1190.4 973.729,1218.78 985.601,1237.16 997.473,1237.61 1009.34,1237.64 1021.22,1237.65 1033.09,1237.7 1044.96,1237.99 1056.83,1247.81 1068.7,1256.16 
  1080.58,1256.49 1092.45,1256.72 1104.32,1257.06 1116.19,1257.06 1128.06,1258.53 1139.93,1292.13 1151.81,1314.72 1163.68,1318.81 1175.55,1318.92 1187.42,1319.19 
  1199.29,1319.39 1211.17,1319.62 1223.04,1321.13 1234.91,1345.45 1246.78,1345.85 1258.65,1345.89 1270.52,1353.43 1282.4,1355.43 1294.27,1356.28 1306.14,1360.26 
  1318.01,1362.91 1329.88,1363.63 1341.75,1366.08 1353.63,1372.2 1365.5,1374.5 1377.37,1375.25 1389.24,1378.79 1401.11,1384.29 1412.99,1384.29 1424.86,1385.95 
  1436.73,1396.61 1448.6,1397.05 1460.47,1397.09 1472.34,1397.32 1484.22,1397.32 1496.09,1398.3 1507.96,1439.29 
  "/>
<polyline clip-path="url(#clip692)" style="stroke:#c271d2; stroke-linecap:round; stroke-linejoin:round; stroke-width:4; stroke-opacity:1; fill:none" points="
  249.551,87.9763 261.422,359.669 273.294,386.483 285.166,396.179 297.038,408.641 308.91,672.313 320.781,687.06 332.653,708.254 344.525,831.708 356.397,879.056 
  368.268,904.4 380.14,910.208 392.012,942.732 403.884,957.473 415.756,965.83 427.627,1004.98 439.499,1016.05 451.371,1016.7 463.243,1018.07 475.115,1019.47 
  486.986,1026.25 498.858,1026.44 510.73,1026.58 522.602,1031.22 534.473,1033.33 546.345,1033.37 558.217,1033.37 570.089,1033.47 581.961,1033.55 593.832,1033.99 
  605.704,1039.75 617.576,1052.21 629.448,1057.57 641.32,1058.91 653.191,1062.24 665.063,1087.53 676.935,1119.82 688.807,1131.2 700.678,1132.16 712.55,1132.16 
  724.422,1133.48 736.294,1144.36 748.166,1152.69 760.037,1154.21 771.909,1154.21 783.781,1156.02 795.653,1165 807.524,1187.05 819.396,1189.64 831.268,1190.75 
  843.14,1196.42 855.012,1218.18 866.883,1222.77 878.755,1223.86 890.627,1223.99 902.499,1224.21 914.371,1224.56 926.242,1224.56 938.114,1224.82 949.986,1232.6 
  961.858,1249.54 973.729,1251.08 985.601,1251.26 997.473,1251.57 1009.34,1252.81 1021.22,1257.43 1033.09,1257.76 1044.96,1258.29 1056.83,1270.38 1068.7,1280.96 
  1080.58,1286.84 1092.45,1287.23 1104.32,1287.6 1116.19,1289.67 1128.06,1289.7 1139.93,1289.94 1151.81,1301.09 1163.68,1333.96 1175.55,1335.86 1187.42,1336.44 
  1199.29,1338.32 1211.17,1341.65 1223.04,1345.18 1234.91,1345.2 1246.78,1345.58 1258.65,1367.15 1270.52,1372.22 1282.4,1372.88 1294.27,1376.12 1306.14,1383.42 
  1318.01,1384.79 1329.88,1385.06 1341.75,1407.19 1353.63,1445.72 
  "/>
<polyline clip-path="url(#clip692)" style="stroke:#ac8d18; stroke-linecap:round; stroke-linejoin:round; stroke-width:4; stroke-opacity:1; fill:none" points="
  249.551,87.9763 261.422,400.315 273.294,421.658 285.166,428.705 297.038,437.478 308.91,737.804 320.781,743.753 332.653,767.498 344.525,832.587 356.397,937.231 
  368.268,968.889 380.14,979.467 392.012,991.709 403.884,1001.21 415.756,1015.92 427.627,1018.79 439.499,1051.79 451.371,1119.38 463.243,1120.85 475.115,1120.94 
  486.986,1121.17 498.858,1122.17 510.73,1126.67 522.602,1128.72 534.473,1128.75 546.345,1129.4 558.217,1133.14 570.089,1136.25 581.961,1136.63 593.832,1136.65 
  605.704,1136.67 617.576,1136.89 629.448,1137.07 641.32,1137.17 653.191,1137.45 665.063,1139.83 676.935,1146.57 688.807,1152.94 700.678,1154.86 712.55,1155.37 
  724.422,1156.68 736.294,1168.23 748.166,1196.96 760.037,1220.77 771.909,1223.51 783.781,1223.55 795.653,1224.15 807.524,1233.5 819.396,1247.25 831.268,1251.36 
  843.14,1251.67 855.012,1251.67 866.883,1252.03 878.755,1254.35 890.627,1255.45 902.499,1255.81 914.371,1256.11 926.242,1257.49 938.114,1268.18 949.986,1275.32 
  961.858,1275.81 973.729,1276.01 985.601,1276.75 997.473,1277.72 1009.34,1278.26 1021.22,1278.27 1033.09,1278.56 1044.96,1285.01 1056.83,1302.19 1068.7,1304.47 
  1080.58,1305.09 1092.45,1306.68 1104.32,1312.99 1116.19,1329.77 1128.06,1333.11 1139.93,1333.26 1151.81,1333.52 1163.68,1336.91 1175.55,1337.63 1187.42,1337.67 
  1199.29,1342.51 1211.17,1363.32 1223.04,1389.17 1234.91,1391.26 1246.78,1391.36 1258.65,1391.94 1270.52,1410.54 1282.4,1414.41 1294.27,1416.28 1306.14,1416.97 
  1318.01,1421.76 1329.88,1434.52 
  "/>
<path clip-path="url(#clip690)" d="
M1871.18 406.258 L2280.61 406.258 L2280.61 95.2176 L1871.18 95.2176  Z
  " fill="#ffffff" fill-rule="evenodd" fill-opacity="1"/>
<polyline clip-path="url(#clip690)" style="stroke:#000000; stroke-linecap:round; stroke-linejoin:round; stroke-width:4; stroke-opacity:1; fill:none" points="
  1871.18,406.258 2280.61,406.258 2280.61,95.2176 1871.18,95.2176 1871.18,406.258 
  "/>
<polyline clip-path="url(#clip690)" style="stroke:#009af9; stroke-linecap:round; stroke-linejoin:round; stroke-width:4; stroke-opacity:1; fill:none" points="
  1895.23,147.058 2039.52,147.058 
  "/>
<path clip-path="url(#clip690)" d="M2083.92 143.389 Q2085.52 140.518 2087.74 139.153 Q2089.96 137.787 2092.97 137.787 Q2097.02 137.787 2099.22 140.634 Q2101.42 143.458 2101.42 148.689 L2101.42 164.338 L2097.14 164.338 L2097.14 148.828 Q2097.14 145.102 2095.82 143.296 Q2094.5 141.49 2091.79 141.49 Q2088.48 141.49 2086.56 143.69 Q2084.64 145.889 2084.64 149.685 L2084.64 164.338 L2080.36 164.338 L2080.36 148.828 Q2080.36 145.078 2079.04 143.296 Q2077.72 141.49 2074.96 141.49 Q2071.7 141.49 2069.78 143.713 Q2067.86 145.912 2067.86 149.685 L2067.86 164.338 L2063.57 164.338 L2063.57 138.412 L2067.86 138.412 L2067.86 142.44 Q2069.31 140.055 2071.35 138.921 Q2073.39 137.787 2076.19 137.787 Q2079.01 137.787 2080.98 139.222 Q2082.97 140.657 2083.92 143.389 Z" fill="#000000" fill-rule="evenodd" fill-opacity="1" /><path clip-path="url(#clip690)" d="M2110.47 142.81 L2140.15 142.81 L2140.15 146.699 L2110.47 146.699 L2110.47 142.81 M2110.47 152.254 L2140.15 152.254 L2140.15 156.189 L2110.47 156.189 L2110.47 152.254 Z" fill="#000000" fill-rule="evenodd" fill-opacity="1" /><path clip-path="url(#clip690)" d="M2154.27 160.402 L2170.59 160.402 L2170.59 164.338 L2148.64 164.338 L2148.64 160.402 Q2151.3 157.648 2155.89 153.018 Q2160.49 148.365 2161.67 147.023 Q2163.92 144.5 2164.8 142.764 Q2165.7 141.004 2165.7 139.315 Q2165.7 136.56 2163.76 134.824 Q2161.84 133.088 2158.74 133.088 Q2156.54 133.088 2154.08 133.852 Q2151.65 134.615 2148.87 136.166 L2148.87 131.444 Q2151.7 130.31 2154.15 129.731 Q2156.61 129.153 2158.64 129.153 Q2164.01 129.153 2167.21 131.838 Q2170.4 134.523 2170.4 139.014 Q2170.4 141.143 2169.59 143.065 Q2168.8 144.963 2166.7 147.555 Q2166.12 148.227 2163.02 151.444 Q2159.92 154.639 2154.27 160.402 Z" fill="#000000" fill-rule="evenodd" fill-opacity="1" /><path clip-path="url(#clip690)" d="M2190.4 132.856 Q2186.79 132.856 2184.96 136.421 Q2183.16 139.963 2183.16 147.092 Q2183.16 154.199 2184.96 157.764 Q2186.79 161.305 2190.4 161.305 Q2194.04 161.305 2195.84 157.764 Q2197.67 154.199 2197.67 147.092 Q2197.67 139.963 2195.84 136.421 Q2194.04 132.856 2190.4 132.856 M2190.4 129.153 Q2196.21 129.153 2199.27 133.759 Q2202.35 138.342 2202.35 147.092 Q2202.35 155.819 2199.27 160.426 Q2196.21 165.009 2190.4 165.009 Q2184.59 165.009 2181.51 160.426 Q2178.46 155.819 2178.46 147.092 Q2178.46 138.342 2181.51 133.759 Q2184.59 129.153 2190.4 129.153 Z" fill="#000000" fill-rule="evenodd" fill-opacity="1" /><polyline clip-path="url(#clip690)" style="stroke:#e26f46; stroke-linecap:round; stroke-linejoin:round; stroke-width:4; stroke-opacity:1; fill:none" points="
  1895.23,198.898 2039.52,198.898 
  "/>
<path clip-path="url(#clip690)" d="M2083.92 195.229 Q2085.52 192.358 2087.74 190.993 Q2089.96 189.627 2092.97 189.627 Q2097.02 189.627 2099.22 192.474 Q2101.42 195.298 2101.42 200.529 L2101.42 216.178 L2097.14 216.178 L2097.14 200.668 Q2097.14 196.942 2095.82 195.136 Q2094.5 193.33 2091.79 193.33 Q2088.48 193.33 2086.56 195.53 Q2084.64 197.729 2084.64 201.525 L2084.64 216.178 L2080.36 216.178 L2080.36 200.668 Q2080.36 196.918 2079.04 195.136 Q2077.72 193.33 2074.96 193.33 Q2071.7 193.33 2069.78 195.553 Q2067.86 197.752 2067.86 201.525 L2067.86 216.178 L2063.57 216.178 L2063.57 190.252 L2067.86 190.252 L2067.86 194.28 Q2069.31 191.895 2071.35 190.761 Q2073.39 189.627 2076.19 189.627 Q2079.01 189.627 2080.98 191.062 Q2082.97 192.497 2083.92 195.229 Z" fill="#000000" fill-rule="evenodd" fill-opacity="1" /><path clip-path="url(#clip690)" d="M2110.47 194.65 L2140.15 194.65 L2140.15 198.539 L2110.47 198.539 L2110.47 194.65 M2110.47 204.094 L2140.15 204.094 L2140.15 208.029 L2110.47 208.029 L2110.47 204.094 Z" fill="#000000" fill-rule="evenodd" fill-opacity="1" /><path clip-path="url(#clip690)" d="M2163.09 185.692 L2151.28 204.141 L2163.09 204.141 L2163.09 185.692 M2161.86 181.618 L2167.74 181.618 L2167.74 204.141 L2172.67 204.141 L2172.67 208.029 L2167.74 208.029 L2167.74 216.178 L2163.09 216.178 L2163.09 208.029 L2147.49 208.029 L2147.49 203.516 L2161.86 181.618 Z" fill="#000000" fill-rule="evenodd" fill-opacity="1" /><path clip-path="url(#clip690)" d="M2190.4 184.696 Q2186.79 184.696 2184.96 188.261 Q2183.16 191.803 2183.16 198.932 Q2183.16 206.039 2184.96 209.604 Q2186.79 213.145 2190.4 213.145 Q2194.04 213.145 2195.84 209.604 Q2197.67 206.039 2197.67 198.932 Q2197.67 191.803 2195.84 188.261 Q2194.04 184.696 2190.4 184.696 M2190.4 180.993 Q2196.21 180.993 2199.27 185.599 Q2202.35 190.182 2202.35 198.932 Q2202.35 207.659 2199.27 212.266 Q2196.21 216.849 2190.4 216.849 Q2184.59 216.849 2181.51 212.266 Q2178.46 207.659 2178.46 198.932 Q2178.46 190.182 2181.51 185.599 Q2184.59 180.993 2190.4 180.993 Z" fill="#000000" fill-rule="evenodd" fill-opacity="1" /><polyline clip-path="url(#clip690)" style="stroke:#3da44d; stroke-linecap:round; stroke-linejoin:round; stroke-width:4; stroke-opacity:1; fill:none" points="
  1895.23,250.738 2039.52,250.738 
  "/>
<path clip-path="url(#clip690)" d="M2083.92 247.069 Q2085.52 244.198 2087.74 242.833 Q2089.96 241.467 2092.97 241.467 Q2097.02 241.467 2099.22 244.314 Q2101.42 247.138 2101.42 252.369 L2101.42 268.018 L2097.14 268.018 L2097.14 252.508 Q2097.14 248.782 2095.82 246.976 Q2094.5 245.17 2091.79 245.17 Q2088.48 245.17 2086.56 247.37 Q2084.64 249.569 2084.64 253.365 L2084.64 268.018 L2080.36 268.018 L2080.36 252.508 Q2080.36 248.758 2079.04 246.976 Q2077.72 245.17 2074.96 245.17 Q2071.7 245.17 2069.78 247.393 Q2067.86 249.592 2067.86 253.365 L2067.86 268.018 L2063.57 268.018 L2063.57 242.092 L2067.86 242.092 L2067.86 246.12 Q2069.31 243.735 2071.35 242.601 Q2073.39 241.467 2076.19 241.467 Q2079.01 241.467 2080.98 242.902 Q2082.97 244.337 2083.92 247.069 Z" fill="#000000" fill-rule="evenodd" fill-opacity="1" /><path clip-path="url(#clip690)" d="M2110.47 246.49 L2140.15 246.49 L2140.15 250.379 L2110.47 250.379 L2110.47 246.49 M2110.47 255.934 L2140.15 255.934 L2140.15 259.869 L2110.47 259.869 L2110.47 255.934 Z" fill="#000000" fill-rule="evenodd" fill-opacity="1" /><path clip-path="url(#clip690)" d="M2160.82 248.874 Q2157.67 248.874 2155.82 251.027 Q2153.99 253.18 2153.99 256.93 Q2153.99 260.656 2155.82 262.832 Q2157.67 264.985 2160.82 264.985 Q2163.97 264.985 2165.8 262.832 Q2167.65 260.656 2167.65 256.93 Q2167.65 253.18 2165.8 251.027 Q2163.97 248.874 2160.82 248.874 M2170.1 234.221 L2170.1 238.481 Q2168.34 237.647 2166.54 237.208 Q2164.75 236.768 2162.99 236.768 Q2158.36 236.768 2155.91 239.893 Q2153.48 243.018 2153.13 249.337 Q2154.5 247.323 2156.56 246.258 Q2158.62 245.17 2161.1 245.17 Q2166.3 245.17 2169.31 248.342 Q2172.35 251.49 2172.35 256.93 Q2172.35 262.254 2169.2 265.471 Q2166.05 268.689 2160.82 268.689 Q2154.82 268.689 2151.65 264.106 Q2148.48 259.499 2148.48 250.772 Q2148.48 242.578 2152.37 237.717 Q2156.26 232.833 2162.81 232.833 Q2164.57 232.833 2166.35 233.18 Q2168.16 233.527 2170.1 234.221 Z" fill="#000000" fill-rule="evenodd" fill-opacity="1" /><path clip-path="url(#clip690)" d="M2190.4 236.536 Q2186.79 236.536 2184.96 240.101 Q2183.16 243.643 2183.16 250.772 Q2183.16 257.879 2184.96 261.444 Q2186.79 264.985 2190.4 264.985 Q2194.04 264.985 2195.84 261.444 Q2197.67 257.879 2197.67 250.772 Q2197.67 243.643 2195.84 240.101 Q2194.04 236.536 2190.4 236.536 M2190.4 232.833 Q2196.21 232.833 2199.27 237.439 Q2202.35 242.022 2202.35 250.772 Q2202.35 259.499 2199.27 264.106 Q2196.21 268.689 2190.4 268.689 Q2184.59 268.689 2181.51 264.106 Q2178.46 259.499 2178.46 250.772 Q2178.46 242.022 2181.51 237.439 Q2184.59 232.833 2190.4 232.833 Z" fill="#000000" fill-rule="evenodd" fill-opacity="1" /><polyline clip-path="url(#clip690)" style="stroke:#c271d2; stroke-linecap:round; stroke-linejoin:round; stroke-width:4; stroke-opacity:1; fill:none" points="
  1895.23,302.578 2039.52,302.578 
  "/>
<path clip-path="url(#clip690)" d="M2083.92 298.909 Q2085.52 296.038 2087.74 294.673 Q2089.96 293.307 2092.97 293.307 Q2097.02 293.307 2099.22 296.154 Q2101.42 298.978 2101.42 304.209 L2101.42 319.858 L2097.14 319.858 L2097.14 304.348 Q2097.14 300.622 2095.82 298.816 Q2094.5 297.01 2091.79 297.01 Q2088.48 297.01 2086.56 299.21 Q2084.64 301.409 2084.64 305.205 L2084.64 319.858 L2080.36 319.858 L2080.36 304.348 Q2080.36 300.598 2079.04 298.816 Q2077.72 297.01 2074.96 297.01 Q2071.7 297.01 2069.78 299.233 Q2067.86 301.432 2067.86 305.205 L2067.86 319.858 L2063.57 319.858 L2063.57 293.932 L2067.86 293.932 L2067.86 297.96 Q2069.31 295.575 2071.35 294.441 Q2073.39 293.307 2076.19 293.307 Q2079.01 293.307 2080.98 294.742 Q2082.97 296.177 2083.92 298.909 Z" fill="#000000" fill-rule="evenodd" fill-opacity="1" /><path clip-path="url(#clip690)" d="M2110.47 298.33 L2140.15 298.33 L2140.15 302.219 L2110.47 302.219 L2110.47 298.33 M2110.47 307.774 L2140.15 307.774 L2140.15 311.709 L2110.47 311.709 L2110.47 307.774 Z" fill="#000000" fill-rule="evenodd" fill-opacity="1" /><path clip-path="url(#clip690)" d="M2160.24 303.446 Q2156.91 303.446 2154.99 305.228 Q2153.09 307.01 2153.09 310.135 Q2153.09 313.26 2154.99 315.043 Q2156.91 316.825 2160.24 316.825 Q2163.57 316.825 2165.49 315.043 Q2167.42 313.237 2167.42 310.135 Q2167.42 307.01 2165.49 305.228 Q2163.6 303.446 2160.24 303.446 M2155.56 301.455 Q2152.55 300.714 2150.86 298.654 Q2149.2 296.594 2149.2 293.631 Q2149.2 289.487 2152.14 287.08 Q2155.1 284.673 2160.24 284.673 Q2165.4 284.673 2168.34 287.08 Q2171.28 289.487 2171.28 293.631 Q2171.28 296.594 2169.59 298.654 Q2167.92 300.714 2164.94 301.455 Q2168.32 302.242 2170.19 304.534 Q2172.09 306.825 2172.09 310.135 Q2172.09 315.159 2169.01 317.844 Q2165.96 320.529 2160.24 320.529 Q2154.52 320.529 2151.44 317.844 Q2148.39 315.159 2148.39 310.135 Q2148.39 306.825 2150.29 304.534 Q2152.18 302.242 2155.56 301.455 M2153.85 294.071 Q2153.85 296.756 2155.52 298.26 Q2157.21 299.765 2160.24 299.765 Q2163.25 299.765 2164.94 298.26 Q2166.65 296.756 2166.65 294.071 Q2166.65 291.385 2164.94 289.881 Q2163.25 288.376 2160.24 288.376 Q2157.21 288.376 2155.52 289.881 Q2153.85 291.385 2153.85 294.071 Z" fill="#000000" fill-rule="evenodd" fill-opacity="1" /><path clip-path="url(#clip690)" d="M2190.4 288.376 Q2186.79 288.376 2184.96 291.941 Q2183.16 295.483 2183.16 302.612 Q2183.16 309.719 2184.96 313.284 Q2186.79 316.825 2190.4 316.825 Q2194.04 316.825 2195.84 313.284 Q2197.67 309.719 2197.67 302.612 Q2197.67 295.483 2195.84 291.941 Q2194.04 288.376 2190.4 288.376 M2190.4 284.673 Q2196.21 284.673 2199.27 289.279 Q2202.35 293.862 2202.35 302.612 Q2202.35 311.339 2199.27 315.946 Q2196.21 320.529 2190.4 320.529 Q2184.59 320.529 2181.51 315.946 Q2178.46 311.339 2178.46 302.612 Q2178.46 293.862 2181.51 289.279 Q2184.59 284.673 2190.4 284.673 Z" fill="#000000" fill-rule="evenodd" fill-opacity="1" /><polyline clip-path="url(#clip690)" style="stroke:#ac8d18; stroke-linecap:round; stroke-linejoin:round; stroke-width:4; stroke-opacity:1; fill:none" points="
  1895.23,354.418 2039.52,354.418 
  "/>
<path clip-path="url(#clip690)" d="M2083.92 350.749 Q2085.52 347.878 2087.74 346.513 Q2089.96 345.147 2092.97 345.147 Q2097.02 345.147 2099.22 347.994 Q2101.42 350.818 2101.42 356.049 L2101.42 371.698 L2097.14 371.698 L2097.14 356.188 Q2097.14 352.462 2095.82 350.656 Q2094.5 348.85 2091.79 348.85 Q2088.48 348.85 2086.56 351.05 Q2084.64 353.249 2084.64 357.045 L2084.64 371.698 L2080.36 371.698 L2080.36 356.188 Q2080.36 352.438 2079.04 350.656 Q2077.72 348.85 2074.96 348.85 Q2071.7 348.85 2069.78 351.073 Q2067.86 353.272 2067.86 357.045 L2067.86 371.698 L2063.57 371.698 L2063.57 345.772 L2067.86 345.772 L2067.86 349.8 Q2069.31 347.415 2071.35 346.281 Q2073.39 345.147 2076.19 345.147 Q2079.01 345.147 2080.98 346.582 Q2082.97 348.017 2083.92 350.749 Z" fill="#000000" fill-rule="evenodd" fill-opacity="1" /><path clip-path="url(#clip690)" d="M2110.47 350.17 L2140.15 350.17 L2140.15 354.059 L2110.47 354.059 L2110.47 350.17 M2110.47 359.614 L2140.15 359.614 L2140.15 363.549 L2110.47 363.549 L2110.47 359.614 Z" fill="#000000" fill-rule="evenodd" fill-opacity="1" /><path clip-path="url(#clip690)" d="M2151.05 367.762 L2158.69 367.762 L2158.69 341.397 L2150.38 343.063 L2150.38 338.804 L2158.64 337.138 L2163.32 337.138 L2163.32 367.762 L2170.96 367.762 L2170.96 371.698 L2151.05 371.698 L2151.05 367.762 Z" fill="#000000" fill-rule="evenodd" fill-opacity="1" /><path clip-path="url(#clip690)" d="M2190.4 340.216 Q2186.79 340.216 2184.96 343.781 Q2183.16 347.323 2183.16 354.452 Q2183.16 361.559 2184.96 365.124 Q2186.79 368.665 2190.4 368.665 Q2194.04 368.665 2195.84 365.124 Q2197.67 361.559 2197.67 354.452 Q2197.67 347.323 2195.84 343.781 Q2194.04 340.216 2190.4 340.216 M2190.4 336.513 Q2196.21 336.513 2199.27 341.119 Q2202.35 345.702 2202.35 354.452 Q2202.35 363.179 2199.27 367.786 Q2196.21 372.369 2190.4 372.369 Q2184.59 372.369 2181.51 367.786 Q2178.46 363.179 2178.46 354.452 Q2178.46 345.702 2181.51 341.119 Q2184.59 336.513 2190.4 336.513 Z" fill="#000000" fill-rule="evenodd" fill-opacity="1" /><path clip-path="url(#clip690)" d="M2220.56 340.216 Q2216.95 340.216 2215.12 343.781 Q2213.32 347.323 2213.32 354.452 Q2213.32 361.559 2215.12 365.124 Q2216.95 368.665 2220.56 368.665 Q2224.2 368.665 2226 365.124 Q2227.83 361.559 2227.83 354.452 Q2227.83 347.323 2226 343.781 Q2224.2 340.216 2220.56 340.216 M2220.56 336.513 Q2226.37 336.513 2229.43 341.119 Q2232.51 345.702 2232.51 354.452 Q2232.51 363.179 2229.43 367.786 Q2226.37 372.369 2220.56 372.369 Q2214.75 372.369 2211.67 367.786 Q2208.62 363.179 2208.62 354.452 Q2208.62 345.702 2211.67 341.119 Q2214.75 336.513 2220.56 336.513 Z" fill="#000000" fill-rule="evenodd" fill-opacity="1" /></svg>
