<?xml version="1.0" encoding="utf-8"?>
<svg xmlns="http://www.w3.org/2000/svg" xmlns:xlink="http://www.w3.org/1999/xlink" width="600" height="400" viewBox="0 0 2400 1600">
<defs>
  <clipPath id="clip370">
    <rect x="0" y="0" width="2400" height="1600"/>
  </clipPath>
</defs>
<path clip-path="url(#clip370)" d="
M0 1600 L2400 1600 L2400 0 L0 0  Z
  " fill="#ffffff" fill-rule="evenodd" fill-opacity="1"/>
<defs>
  <clipPath id="clip371">
    <rect x="480" y="0" width="1681" height="1600"/>
  </clipPath>
</defs>
<path clip-path="url(#clip370)" d="
M219.38 1344.87 L1971.02 1344.87 L1971.02 201.782 L219.38 201.782  Z
  " fill="#ffffff" fill-rule="evenodd" fill-opacity="1"/>
<defs>
  <clipPath id="clip372">
    <rect x="219" y="201" width="1753" height="1144"/>
  </clipPath>
</defs>
<polyline clip-path="url(#clip372)" style="stroke:#000000; stroke-linecap:butt; stroke-linejoin:round; stroke-width:2; stroke-opacity:0.1; fill:none" points="
  237.886,1344.87 237.886,201.782 
  "/>
<polyline clip-path="url(#clip372)" style="stroke:#000000; stroke-linecap:butt; stroke-linejoin:round; stroke-width:2; stroke-opacity:0.1; fill:none" points="
  809.43,1344.87 809.43,201.782 
  "/>
<polyline clip-path="url(#clip372)" style="stroke:#000000; stroke-linecap:butt; stroke-linejoin:round; stroke-width:2; stroke-opacity:0.1; fill:none" points="
  1380.97,1344.87 1380.97,201.782 
  "/>
<polyline clip-path="url(#clip372)" style="stroke:#000000; stroke-linecap:butt; stroke-linejoin:round; stroke-width:2; stroke-opacity:0.1; fill:none" points="
  1952.52,1344.87 1952.52,201.782 
  "/>
<polyline clip-path="url(#clip370)" style="stroke:#000000; stroke-linecap:butt; stroke-linejoin:round; stroke-width:4; stroke-opacity:1; fill:none" points="
  219.38,1344.87 1971.02,1344.87 
  "/>
<polyline clip-path="url(#clip370)" style="stroke:#000000; stroke-linecap:butt; stroke-linejoin:round; stroke-width:4; stroke-opacity:1; fill:none" points="
  237.886,1344.87 237.886,1328.25 
  "/>
<polyline clip-path="url(#clip370)" style="stroke:#000000; stroke-linecap:butt; stroke-linejoin:round; stroke-width:4; stroke-opacity:1; fill:none" points="
  809.43,1344.87 809.43,1328.25 
  "/>
<polyline clip-path="url(#clip370)" style="stroke:#000000; stroke-linecap:butt; stroke-linejoin:round; stroke-width:4; stroke-opacity:1; fill:none" points="
  1380.97,1344.87 1380.97,1328.25 
  "/>
<polyline clip-path="url(#clip370)" style="stroke:#000000; stroke-linecap:butt; stroke-linejoin:round; stroke-width:4; stroke-opacity:1; fill:none" points="
  1952.52,1344.87 1952.52,1328.25 
  "/>
<path clip-path="url(#clip370)" d="M207.643 1390.44 L237.318 1390.44 L237.318 1394.38 L207.643 1394.38 L207.643 1390.44 Z" fill="#000000" fill-rule="evenodd" fill-opacity="1" /><path clip-path="url(#clip370)" d="M248.221 1403.34 L255.86 1403.34 L255.86 1376.97 L247.55 1378.64 L247.55 1374.38 L255.814 1372.71 L260.49 1372.71 L260.49 1403.34 L268.128 1403.34 L268.128 1407.27 L248.221 1407.27 L248.221 1403.34 Z" fill="#000000" fill-rule="evenodd" fill-opacity="1" /><path clip-path="url(#clip370)" d="M809.43 1375.79 Q805.819 1375.79 803.99 1379.35 Q802.184 1382.9 802.184 1390.02 Q802.184 1397.13 803.99 1400.7 Q805.819 1404.24 809.43 1404.24 Q813.064 1404.24 814.87 1400.7 Q816.698 1397.13 816.698 1390.02 Q816.698 1382.9 814.87 1379.35 Q813.064 1375.79 809.43 1375.79 M809.43 1372.09 Q815.24 1372.09 818.295 1376.69 Q821.374 1381.27 821.374 1390.02 Q821.374 1398.75 818.295 1403.36 Q815.24 1407.94 809.43 1407.94 Q803.62 1407.94 800.541 1403.36 Q797.485 1398.75 797.485 1390.02 Q797.485 1381.27 800.541 1376.69 Q803.62 1372.09 809.43 1372.09 Z" fill="#000000" fill-rule="evenodd" fill-opacity="1" /><path clip-path="url(#clip370)" d="M1371.36 1403.34 L1378.99 1403.34 L1378.99 1376.97 L1370.68 1378.64 L1370.68 1374.38 L1378.95 1372.71 L1383.62 1372.71 L1383.62 1403.34 L1391.26 1403.34 L1391.26 1407.27 L1371.36 1407.27 L1371.36 1403.34 Z" fill="#000000" fill-rule="evenodd" fill-opacity="1" /><path clip-path="url(#clip370)" d="M1947.17 1403.34 L1963.49 1403.34 L1963.49 1407.27 L1941.55 1407.27 L1941.55 1403.34 Q1944.21 1400.58 1948.79 1395.95 Q1953.4 1391.3 1954.58 1389.96 Q1956.82 1387.43 1957.7 1385.7 Q1958.61 1383.94 1958.61 1382.25 Q1958.61 1379.49 1956.66 1377.76 Q1954.74 1376.02 1951.64 1376.02 Q1949.44 1376.02 1946.99 1376.78 Q1944.56 1377.55 1941.78 1379.1 L1941.78 1374.38 Q1944.6 1373.24 1947.06 1372.66 Q1949.51 1372.09 1951.55 1372.09 Q1956.92 1372.09 1960.11 1374.77 Q1963.31 1377.46 1963.31 1381.95 Q1963.31 1384.08 1962.49 1386 Q1961.71 1387.9 1959.6 1390.49 Q1959.02 1391.16 1955.92 1394.38 Q1952.82 1397.57 1947.17 1403.34 Z" fill="#000000" fill-rule="evenodd" fill-opacity="1" /><path clip-path="url(#clip370)" d="M1111.82 1454.09 L1098.93 1471.43 L1112.48 1489.73 L1105.58 1489.73 L1095.2 1475.73 L1084.83 1489.73 L1077.92 1489.73 L1091.76 1471.08 L1079.1 1454.09 L1086 1454.09 L1095.46 1466.79 L1104.91 1454.09 L1111.82 1454.09 Z" fill="#000000" fill-rule="evenodd" fill-opacity="1" /><polyline clip-path="url(#clip372)" style="stroke:#000000; stroke-linecap:butt; stroke-linejoin:round; stroke-width:2; stroke-opacity:0.1; fill:none" points="
  219.38,1344.87 1971.02,1344.87 
  "/>
<polyline clip-path="url(#clip372)" style="stroke:#000000; stroke-linecap:butt; stroke-linejoin:round; stroke-width:2; stroke-opacity:0.1; fill:none" points="
  219.38,1059.1 1971.02,1059.1 
  "/>
<polyline clip-path="url(#clip372)" style="stroke:#000000; stroke-linecap:butt; stroke-linejoin:round; stroke-width:2; stroke-opacity:0.1; fill:none" points="
  219.38,773.326 1971.02,773.326 
  "/>
<polyline clip-path="url(#clip372)" style="stroke:#000000; stroke-linecap:butt; stroke-linejoin:round; stroke-width:2; stroke-opacity:0.1; fill:none" points="
  219.38,487.554 1971.02,487.554 
  "/>
<polyline clip-path="url(#clip372)" style="stroke:#000000; stroke-linecap:butt; stroke-linejoin:round; stroke-width:2; stroke-opacity:0.1; fill:none" points="
  219.38,201.782 1971.02,201.782 
  "/>
<polyline clip-path="url(#clip370)" style="stroke:#000000; stroke-linecap:butt; stroke-linejoin:round; stroke-width:4; stroke-opacity:1; fill:none" points="
  219.38,1344.87 219.38,201.782 
  "/>
<polyline clip-path="url(#clip370)" style="stroke:#000000; stroke-linecap:butt; stroke-linejoin:round; stroke-width:4; stroke-opacity:1; fill:none" points="
  219.38,1344.87 236.001,1344.87 
  "/>
<polyline clip-path="url(#clip370)" style="stroke:#000000; stroke-linecap:butt; stroke-linejoin:round; stroke-width:4; stroke-opacity:1; fill:none" points="
  219.38,1059.1 236.001,1059.1 
  "/>
<polyline clip-path="url(#clip370)" style="stroke:#000000; stroke-linecap:butt; stroke-linejoin:round; stroke-width:4; stroke-opacity:1; fill:none" points="
  219.38,773.326 236.001,773.326 
  "/>
<polyline clip-path="url(#clip370)" style="stroke:#000000; stroke-linecap:butt; stroke-linejoin:round; stroke-width:4; stroke-opacity:1; fill:none" points="
  219.38,487.554 236.001,487.554 
  "/>
<polyline clip-path="url(#clip370)" style="stroke:#000000; stroke-linecap:butt; stroke-linejoin:round; stroke-width:4; stroke-opacity:1; fill:none" points="
  219.38,201.782 236.001,201.782 
  "/>
<path clip-path="url(#clip370)" d="M126.205 1330.67 Q122.593 1330.67 120.765 1334.23 Q118.959 1337.78 118.959 1344.9 Q118.959 1352.01 120.765 1355.58 Q122.593 1359.12 126.205 1359.12 Q129.839 1359.12 131.644 1355.58 Q133.473 1352.01 133.473 1344.9 Q133.473 1337.78 131.644 1334.23 Q129.839 1330.67 126.205 1330.67 M126.205 1326.97 Q132.015 1326.97 135.07 1331.57 Q138.149 1336.15 138.149 1344.9 Q138.149 1353.63 135.07 1358.24 Q132.015 1362.82 126.205 1362.82 Q120.394 1362.82 117.316 1358.24 Q114.26 1353.63 114.26 1344.9 Q114.26 1336.15 117.316 1331.57 Q120.394 1326.97 126.205 1326.97 Z" fill="#000000" fill-rule="evenodd" fill-opacity="1" /><path clip-path="url(#clip370)" d="M146.366 1356.27 L151.251 1356.27 L151.251 1362.15 L146.366 1362.15 L146.366 1356.27 Z" fill="#000000" fill-rule="evenodd" fill-opacity="1" /><path clip-path="url(#clip370)" d="M171.436 1330.67 Q167.825 1330.67 165.996 1334.23 Q164.19 1337.78 164.19 1344.9 Q164.19 1352.01 165.996 1355.58 Q167.825 1359.12 171.436 1359.12 Q175.07 1359.12 176.876 1355.58 Q178.704 1352.01 178.704 1344.9 Q178.704 1337.78 176.876 1334.23 Q175.07 1330.67 171.436 1330.67 M171.436 1326.97 Q177.246 1326.97 180.301 1331.57 Q183.38 1336.15 183.38 1344.9 Q183.38 1353.63 180.301 1358.24 Q177.246 1362.82 171.436 1362.82 Q165.626 1362.82 162.547 1358.24 Q159.491 1353.63 159.491 1344.9 Q159.491 1336.15 162.547 1331.57 Q165.626 1326.97 171.436 1326.97 Z" fill="#000000" fill-rule="evenodd" fill-opacity="1" /><path clip-path="url(#clip370)" d="M127.2 1044.9 Q123.589 1044.9 121.76 1048.46 Q119.955 1052 119.955 1059.13 Q119.955 1066.24 121.76 1069.8 Q123.589 1073.35 127.2 1073.35 Q130.834 1073.35 132.64 1069.8 Q134.468 1066.24 134.468 1059.13 Q134.468 1052 132.64 1048.46 Q130.834 1044.9 127.2 1044.9 M127.2 1041.19 Q133.01 1041.19 136.066 1045.8 Q139.144 1050.38 139.144 1059.13 Q139.144 1067.86 136.066 1072.47 Q133.01 1077.05 127.2 1077.05 Q121.39 1077.05 118.311 1072.47 Q115.256 1067.86 115.256 1059.13 Q115.256 1050.38 118.311 1045.8 Q121.39 1041.19 127.2 1041.19 Z" fill="#000000" fill-rule="evenodd" fill-opacity="1" /><path clip-path="url(#clip370)" d="M147.362 1070.5 L152.246 1070.5 L152.246 1076.38 L147.362 1076.38 L147.362 1070.5 Z" fill="#000000" fill-rule="evenodd" fill-opacity="1" /><path clip-path="url(#clip370)" d="M162.477 1041.82 L180.834 1041.82 L180.834 1045.75 L166.76 1045.75 L166.76 1054.23 Q167.778 1053.88 168.797 1053.72 Q169.815 1053.53 170.834 1053.53 Q176.621 1053.53 180.001 1056.7 Q183.38 1059.87 183.38 1065.29 Q183.38 1070.87 179.908 1073.97 Q176.436 1077.05 170.116 1077.05 Q167.94 1077.05 165.672 1076.68 Q163.427 1076.31 161.019 1075.57 L161.019 1070.87 Q163.102 1072 165.325 1072.56 Q167.547 1073.11 170.024 1073.11 Q174.028 1073.11 176.366 1071.01 Q178.704 1068.9 178.704 1065.29 Q178.704 1061.68 176.366 1059.57 Q174.028 1057.47 170.024 1057.47 Q168.149 1057.47 166.274 1057.88 Q164.422 1058.3 162.477 1059.18 L162.477 1041.82 Z" fill="#000000" fill-rule="evenodd" fill-opacity="1" /><path clip-path="url(#clip370)" d="M117.015 786.671 L124.654 786.671 L124.654 760.305 L116.343 761.972 L116.343 757.713 L124.607 756.046 L129.283 756.046 L129.283 786.671 L136.922 786.671 L136.922 790.606 L117.015 790.606 L117.015 786.671 Z" fill="#000000" fill-rule="evenodd" fill-opacity="1" /><path clip-path="url(#clip370)" d="M146.366 784.726 L151.251 784.726 L151.251 790.606 L146.366 790.606 L146.366 784.726 Z" fill="#000000" fill-rule="evenodd" fill-opacity="1" /><path clip-path="url(#clip370)" d="M171.436 759.125 Q167.825 759.125 165.996 762.689 Q164.19 766.231 164.19 773.361 Q164.19 780.467 165.996 784.032 Q167.825 787.574 171.436 787.574 Q175.07 787.574 176.876 784.032 Q178.704 780.467 178.704 773.361 Q178.704 766.231 176.876 762.689 Q175.07 759.125 171.436 759.125 M171.436 755.421 Q177.246 755.421 180.301 760.027 Q183.38 764.611 183.38 773.361 Q183.38 782.088 180.301 786.694 Q177.246 791.277 171.436 791.277 Q165.626 791.277 162.547 786.694 Q159.491 782.088 159.491 773.361 Q159.491 764.611 162.547 760.027 Q165.626 755.421 171.436 755.421 Z" fill="#000000" fill-rule="evenodd" fill-opacity="1" /><path clip-path="url(#clip370)" d="M118.01 500.899 L125.649 500.899 L125.649 474.533 L117.339 476.2 L117.339 471.941 L125.603 470.274 L130.279 470.274 L130.279 500.899 L137.917 500.899 L137.917 504.834 L118.01 504.834 L118.01 500.899 Z" fill="#000000" fill-rule="evenodd" fill-opacity="1" /><path clip-path="url(#clip370)" d="M147.362 498.954 L152.246 498.954 L152.246 504.834 L147.362 504.834 L147.362 498.954 Z" fill="#000000" fill-rule="evenodd" fill-opacity="1" /><path clip-path="url(#clip370)" d="M162.477 470.274 L180.834 470.274 L180.834 474.209 L166.76 474.209 L166.76 482.681 Q167.778 482.334 168.797 482.172 Q169.815 481.987 170.834 481.987 Q176.621 481.987 180.001 485.158 Q183.38 488.329 183.38 493.746 Q183.38 499.325 179.908 502.426 Q176.436 505.505 170.116 505.505 Q167.94 505.505 165.672 505.135 Q163.427 504.764 161.019 504.024 L161.019 499.325 Q163.102 500.459 165.325 501.014 Q167.547 501.57 170.024 501.57 Q174.028 501.57 176.366 499.464 Q178.704 497.357 178.704 493.746 Q178.704 490.135 176.366 488.028 Q174.028 485.922 170.024 485.922 Q168.149 485.922 166.274 486.339 Q164.422 486.755 162.477 487.635 L162.477 470.274 Z" fill="#000000" fill-rule="evenodd" fill-opacity="1" /><path clip-path="url(#clip370)" d="M120.232 215.127 L136.552 215.127 L136.552 219.062 L114.607 219.062 L114.607 215.127 Q117.269 212.372 121.853 207.742 Q126.459 203.09 127.64 201.747 Q129.885 199.224 130.765 197.488 Q131.667 195.729 131.667 194.039 Q131.667 191.284 129.723 189.548 Q127.802 187.812 124.7 187.812 Q122.501 187.812 120.047 188.576 Q117.617 189.34 114.839 190.891 L114.839 186.168 Q117.663 185.034 120.117 184.455 Q122.57 183.877 124.607 183.877 Q129.978 183.877 133.172 186.562 Q136.367 189.247 136.367 193.738 Q136.367 195.867 135.556 197.789 Q134.769 199.687 132.663 202.279 Q132.084 202.951 128.982 206.168 Q125.88 209.363 120.232 215.127 Z" fill="#000000" fill-rule="evenodd" fill-opacity="1" /><path clip-path="url(#clip370)" d="M146.366 213.182 L151.251 213.182 L151.251 219.062 L146.366 219.062 L146.366 213.182 Z" fill="#000000" fill-rule="evenodd" fill-opacity="1" /><path clip-path="url(#clip370)" d="M171.436 187.58 Q167.825 187.58 165.996 191.145 Q164.19 194.687 164.19 201.817 Q164.19 208.923 165.996 212.488 Q167.825 216.029 171.436 216.029 Q175.07 216.029 176.876 212.488 Q178.704 208.923 178.704 201.817 Q178.704 194.687 176.876 191.145 Q175.07 187.58 171.436 187.58 M171.436 183.877 Q177.246 183.877 180.301 188.483 Q183.38 193.067 183.38 201.817 Q183.38 210.543 180.301 215.15 Q177.246 219.733 171.436 219.733 Q165.626 219.733 162.547 215.15 Q159.491 210.543 159.491 201.817 Q159.491 193.067 162.547 188.483 Q165.626 183.877 171.436 183.877 Z" fill="#000000" fill-rule="evenodd" fill-opacity="1" /><path clip-path="url(#clip370)" d="M67.3143 771.639 Q73.68 774.122 75.6216 776.477 Q77.5631 778.832 77.5631 782.779 L77.5631 787.458 L72.6615 787.458 L72.6615 784.02 Q72.6615 781.601 71.5157 780.265 Q70.3699 778.928 66.1048 777.305 L63.4312 776.254 L28.3562 790.673 L28.3562 784.466 L56.238 773.326 L28.3562 762.186 L28.3562 755.979 L67.3143 771.639 Z" fill="#000000" fill-rule="evenodd" fill-opacity="1" /><path clip-path="url(#clip370)" d="M998.162 12.096 L1036.4 12.096 L1036.4 18.9825 L1006.35 18.9825 L1006.35 36.8875 L1035.15 36.8875 L1035.15 43.7741 L1006.35 43.7741 L1006.35 65.6895 L1037.13 65.6895 L1037.13 72.576 L998.162 72.576 L998.162 12.096 Z" fill="#000000" fill-rule="evenodd" fill-opacity="1" /><path clip-path="url(#clip370)" d="M1076.55 34.1734 Q1075.29 33.4443 1073.79 33.1202 Q1072.33 32.7556 1070.55 32.7556 Q1064.23 32.7556 1060.83 36.8875 Q1057.47 40.9789 1057.47 48.6757 L1057.47 72.576 L1049.97 72.576 L1049.97 27.2059 L1057.47 27.2059 L1057.47 34.2544 Q1059.82 30.1225 1063.58 28.1376 Q1067.35 26.1121 1072.74 26.1121 Q1073.51 26.1121 1074.44 26.2337 Q1075.37 26.3147 1076.51 26.5172 L1076.55 34.1734 Z" fill="#000000" fill-rule="evenodd" fill-opacity="1" /><path clip-path="url(#clip370)" d="M1109.2 34.1734 Q1107.94 33.4443 1106.44 33.1202 Q1104.98 32.7556 1103.2 32.7556 Q1096.88 32.7556 1093.48 36.8875 Q1090.12 40.9789 1090.12 48.6757 L1090.12 72.576 L1082.62 72.576 L1082.62 27.2059 L1090.12 27.2059 L1090.12 34.2544 Q1092.47 30.1225 1096.23 28.1376 Q1100 26.1121 1105.39 26.1121 Q1106.16 26.1121 1107.09 26.2337 Q1108.02 26.3147 1109.16 26.5172 L1109.2 34.1734 Z" fill="#000000" fill-rule="evenodd" fill-opacity="1" /><path clip-path="url(#clip370)" d="M1132.77 32.4315 Q1126.78 32.4315 1123.29 37.1306 Q1119.81 41.7891 1119.81 49.9314 Q1119.81 58.0738 1123.25 62.7728 Q1126.74 67.4314 1132.77 67.4314 Q1138.73 67.4314 1142.21 62.7323 Q1145.7 58.0333 1145.7 49.9314 Q1145.7 41.8701 1142.21 37.1711 Q1138.73 32.4315 1132.77 32.4315 M1132.77 26.1121 Q1142.5 26.1121 1148.05 32.4315 Q1153.6 38.7509 1153.6 49.9314 Q1153.6 61.0714 1148.05 67.4314 Q1142.5 73.7508 1132.77 73.7508 Q1123.01 73.7508 1117.46 67.4314 Q1111.95 61.0714 1111.95 49.9314 Q1111.95 38.7509 1117.46 32.4315 Q1123.01 26.1121 1132.77 26.1121 Z" fill="#000000" fill-rule="evenodd" fill-opacity="1" /><path clip-path="url(#clip370)" d="M1192.24 34.1734 Q1190.99 33.4443 1189.49 33.1202 Q1188.03 32.7556 1186.25 32.7556 Q1179.93 32.7556 1176.52 36.8875 Q1173.16 40.9789 1173.16 48.6757 L1173.16 72.576 L1165.67 72.576 L1165.67 27.2059 L1173.16 27.2059 L1173.16 34.2544 Q1175.51 30.1225 1179.28 28.1376 Q1183.05 26.1121 1188.43 26.1121 Q1189.2 26.1121 1190.13 26.2337 Q1191.07 26.3147 1192.2 26.5172 L1192.24 34.1734 Z" fill="#000000" fill-rule="evenodd" fill-opacity="1" /><polyline clip-path="url(#clip372)" style="stroke:#cbd7cb; stroke-linecap:butt; stroke-linejoin:round; stroke-width:4; stroke-opacity:1; fill:none" points="
  809.43,1344.87 820.861,1344.87 832.292,1344.87 843.722,1344.87 855.153,1344.87 866.584,1344.87 878.015,1344.87 889.446,1344.87 900.877,1344.87 912.308,1344.87 
  923.739,1344.87 935.17,1344.87 946.6,1344.87 958.031,1344.87 969.462,1344.87 980.893,1344.87 992.324,1344.87 1003.75,1344.87 1015.19,1344.87 1026.62,1344.87 
  1038.05,1344.87 1049.48,1344.87 1060.91,1344.87 1072.34,1344.87 1083.77,1344.87 1095.2,1344.87 1106.63,1344.87 1118.06,1344.87 1129.49,1344.87 1140.93,1344.87 
  1152.36,1344.87 1163.79,1344.87 1175.22,1344.87 1186.65,1344.87 1198.08,1344.87 1209.51,1344.87 1220.94,1344.87 1232.37,1344.87 1243.8,1344.87 1255.23,1344.87 
  1266.67,1344.87 1278.1,1344.87 1289.53,1344.87 1300.96,1344.87 1312.39,1344.87 1323.82,1344.87 1335.25,1344.87 1346.68,1344.87 1358.11,1344.87 1369.54,1344.87 
  1380.97,1344.87 
  "/>
<polyline clip-path="url(#clip372)" style="stroke:#cbd7cb; stroke-linecap:butt; stroke-linejoin:round; stroke-width:4; stroke-opacity:1; fill:none" points="
  809.43,447.086 809.432,430.399 809.435,411.348 809.44,392.297 809.448,373.245 809.464,354.194 809.52,335.142 820.861,320.412 824.278,316.091 832.292,310.385 
  843.722,299.731 846.086,297.039 855.153,287.796 864.054,277.988 866.584,275.044 878.015,260.929 879.63,258.936 889.446,244.314 892.925,239.885 900.877,225.081 
  904.507,220.833 912.308,201.897 923.739,201.82 935.17,201.8 946.6,201.791 958.031,201.786 969.462,201.783 972.971,201.782 
  "/>
<polyline clip-path="url(#clip372)" style="stroke:#cbd7cb; stroke-linecap:butt; stroke-linejoin:round; stroke-width:4; stroke-opacity:1; fill:none" points="
  1272.23,201.782 1278.1,201.803 1284.24,220.833 1286.17,239.885 1288,258.936 1289.53,276.858 1289.63,277.988 1291.21,297.039 1292.41,316.091 1293.18,335.142 
  1293.48,354.194 1293.29,373.245 1292.58,392.297 1291.3,411.348 1289.53,428.961 1289.4,430.399 1287.26,449.451 1284.44,468.502 1280.79,487.554 1278.1,499.014 
  1276.45,506.605 1271.54,525.657 1266.67,540.845 1265.48,544.708 1258.73,563.76 1255.23,572.069 1250.78,582.811 1243.8,597.121 1241.47,601.863 1232.37,618.057 
  1230.72,620.914 1220.94,636.046 1218.29,639.966 1209.51,651.779 1203.78,659.017 1198.08,665.681 1186.65,678.019 1186.6,678.069 1175.22,689.383 1166.62,697.12 
  1163.79,699.557 1152.36,709.002 1142.84,716.172 1140.93,717.566 1129.49,725.674 1118.06,733.058 1114.57,735.223 1106.63,740.082 1095.2,746.658 1083.77,752.749 
  1080.82,754.275 1072.34,758.646 1060.91,764.229 1049.48,769.469 1040.64,773.326 1038.05,774.471 1026.62,779.391 1015.19,784.058 1003.75,788.506 993.386,792.377 
  992.324,792.784 980.893,797.066 969.462,801.178 958.031,805.143 946.6,808.98 939.06,811.429 935.17,812.761 923.739,816.53 912.308,820.193 900.877,823.764 
  889.446,827.255 878.62,830.48 878.015,830.683 866.584,834.154 855.153,837.552 843.722,840.887 832.292,844.172 820.861,847.435 809.888,849.532 809.459,868.583 
  809.435,887.635 809.43,895.982 
  "/>
<polyline clip-path="url(#clip372)" style="stroke:#b1bcc3; stroke-linecap:butt; stroke-linejoin:round; stroke-width:4; stroke-opacity:1; fill:none" points="
  840.31,944.789 836.027,963.841 832.97,982.892 832.292,988.441 830.926,1001.94 829.52,1021 828.545,1040.05 827.919,1059.1 827.595,1078.15 827.55,1097.2 
  827.784,1116.25 828.313,1135.3 829.178,1154.36 830.45,1173.41 832.247,1192.46 832.292,1192.83 835.186,1211.51 839.368,1230.56 843.722,1244.7 845.823,1249.61 
  855.153,1265.91 857.472,1268.66 866.584,1277.46 878.015,1284.7 884.925,1287.72 889.446,1289.47 900.877,1292.66 912.308,1294.86 923.739,1296.34 935.17,1297.27 
  946.6,1297.78 958.031,1297.93 969.462,1297.77 980.893,1297.36 992.324,1296.7 1003.75,1295.82 1015.19,1294.72 1026.62,1293.41 1038.05,1291.89 1049.48,1290.16 
  1060.91,1288.21 1063.58,1287.72 1072.34,1285.98 1083.77,1283.48 1095.2,1280.71 1106.63,1277.65 1118.06,1274.26 1129.49,1270.53 1134.8,1268.66 1140.93,1266.31 
  1152.36,1261.57 1163.79,1256.3 1175.22,1250.44 1176.74,1249.61 1186.65,1243.62 1198.08,1235.92 1205.3,1230.56 1209.51,1227.03 1220.94,1216.59 1226.01,1211.51 
  1232.37,1204.18 1241.6,1192.46 1243.8,1189.2 1253.66,1173.41 1255.23,1170.41 1263.15,1154.36 1266.67,1145.77 1270.72,1135.3 1276.79,1116.25 1278.1,1111.33 
  1281.7,1097.2 1285.65,1078.15 1288.82,1059.1 1289.53,1053.82 1291.33,1040.05 1293.28,1021 1294.73,1001.94 1295.74,982.892 1296.35,963.841 1296.58,944.789 
  1296.44,925.738 1295.93,906.686 1295.04,887.635 1293.73,868.583 1291.92,849.532 1289.53,830.553 1289.52,830.48 1286.02,811.429 1281.15,792.377 1278.1,783.437 
  1273.18,773.326 1266.67,763.738 1255.23,755.114 1252.45,754.275 1243.8,752.296 1232.37,752.499 1221.82,754.275 1220.94,754.41 1209.51,757.501 1198.08,761.162 
  1186.65,765.113 1175.22,769.181 1163.79,773.265 1163.63,773.326 1152.36,777.607 1140.93,781.855 1129.49,785.989 1118.06,790.004 1111.31,792.377 1106.63,794.016 
  1095.2,798.076 1083.77,802.013 1072.34,805.842 1060.91,809.579 1055.27,811.429 1049.48,813.367 1038.05,817.208 1026.62,820.987 1015.19,824.723 1003.75,828.438 
  997.549,830.48 992.324,832.266 980.893,836.241 969.462,840.256 958.031,844.347 946.6,848.558 944.052,849.532 935.17,853.157 923.739,858.062 912.308,863.321 
  901.856,868.583 900.877,869.128 889.446,876.065 878.015,884.209 873.878,887.635 866.584,894.777 856.953,906.686 855.153,909.452 846.763,925.738 843.722,933.644 
  840.31,944.789 
  "/>
<polyline clip-path="url(#clip372)" style="stroke:#98a1bb; stroke-linecap:butt; stroke-linejoin:round; stroke-width:4; stroke-opacity:1; fill:none" points="
  863.831,982.892 858.763,1001.94 855.153,1020.41 855.058,1021 852.795,1040.05 851.368,1059.1 850.691,1078.15 850.732,1097.2 851.505,1116.25 853.074,1135.3 
  855.153,1151.35 855.639,1154.36 859.941,1173.41 866.001,1192.46 866.584,1193.9 876.137,1211.51 878.015,1214.26 889.446,1226.51 894.79,1230.56 900.877,1234.52 
  912.308,1239.8 923.739,1243.37 935.17,1245.64 946.6,1246.89 958.031,1247.32 969.462,1247.04 980.893,1246.15 992.324,1244.71 1003.75,1242.76 1015.19,1240.33 
  1026.62,1237.42 1038.05,1234.05 1048.46,1230.56 1049.48,1230.18 1060.91,1225.56 1072.34,1220.4 1083.77,1214.69 1089.63,1211.51 1095.2,1208.12 1106.63,1200.62 
  1117.95,1192.46 1118.06,1192.37 1129.49,1182.48 1139.13,1173.41 1140.93,1171.44 1152.36,1158.26 1155.56,1154.36 1163.79,1142.49 1168.53,1135.3 1175.22,1123.1 
  1178.84,1116.25 1186.65,1098.05 1187,1097.2 1193.4,1078.15 1198.08,1059.85 1198.27,1059.1 1201.78,1040.05 1204.04,1021 1205.08,1001.94 1204.87,982.892 
  1203.3,963.841 1200.14,944.789 1198.08,936.899 1194.83,925.738 1186.65,907.111 1186.43,906.686 1175.22,891.021 1172.14,887.635 1163.79,880.658 1152.36,873.574 
  1140.93,868.6 1140.88,868.583 1129.49,865.612 1118.06,863.722 1106.63,862.696 1095.2,862.364 1083.77,862.597 1072.34,863.299 1060.91,864.398 1049.48,865.84 
  1038.05,867.59 1032.6,868.583 1026.62,869.724 1015.19,872.24 1003.75,875.032 992.324,878.106 980.893,881.479 969.462,885.181 962.628,887.635 958.031,889.411 
  946.6,894.334 935.17,899.818 923.739,906.013 922.641,906.686 912.308,913.757 900.877,922.901 897.84,925.738 889.446,934.825 881.835,944.789 878.015,950.792 
  871.179,963.841 866.584,974.875 863.831,982.892 
  "/>
<polyline clip-path="url(#clip372)" style="stroke:#7e86b3; stroke-linecap:butt; stroke-linejoin:round; stroke-width:4; stroke-opacity:1; fill:none" points="
  893.47,1021 889.446,1035.47 888.389,1040.05 885.699,1059.1 884.685,1078.15 885.371,1097.2 887.874,1116.25 889.446,1123.02 893.142,1135.3 900.877,1152.33 
  902.132,1154.36 912.308,1166.69 920.383,1173.41 923.739,1175.67 935.17,1180.8 946.6,1183.77 958.031,1185.01 969.462,1184.8 980.893,1183.36 992.324,1180.84 
  1003.75,1177.33 1013.89,1173.41 1015.19,1172.82 1026.62,1166.78 1038.05,1159.79 1045.96,1154.36 1049.48,1151.48 1060.91,1141.23 1066.98,1135.3 1072.34,1128.9 
  1082.22,1116.25 1083.77,1113.73 1093.43,1097.2 1095.2,1093.12 1101.49,1078.15 1106.63,1060.09 1106.91,1059.1 1109.76,1040.05 1110.08,1021 1107.55,1001.94 
  1106.63,998.872 1101.23,982.892 1095.2,972.421 1089.24,963.841 1083.77,958.424 1072.34,949.452 1064.44,944.789 1060.91,943.207 1049.48,939.374 1038.05,936.878 
  1026.62,935.546 1015.19,935.248 1003.75,935.895 992.324,937.429 980.893,939.827 969.462,943.097 964.913,944.789 958.031,947.679 946.6,953.661 935.17,960.925 
  931.393,963.841 923.739,970.771 912.692,982.892 912.308,983.407 900.936,1001.94 900.877,1002.07 893.47,1021 
  "/>
<polyline clip-path="url(#clip372)" style="stroke:#c4beb3; stroke-linecap:butt; stroke-linejoin:round; stroke-width:4; stroke-opacity:1; fill:none" points="
  935.17,775.739 923.739,778.428 912.308,780.597 900.877,782.114 889.446,782.761 878.015,782.162 866.584,779.624 855.153,773.745 854.677,773.326 843.722,761.174 
  840.252,754.275 833.372,735.223 832.292,731.214 829.475,716.172 826.851,697.12 824.93,678.069 823.498,659.017 822.425,639.966 821.629,620.914 821.056,601.863 
  820.861,592.325 820.692,582.811 820.496,563.76 820.445,544.708 820.544,525.657 820.811,506.605 820.861,504.491 821.298,487.554 822.038,468.502 823.103,449.451 
  824.62,430.399 826.806,411.348 830.07,392.297 832.292,383.166 834.912,373.245 842.099,354.194 843.722,350.97 852.014,335.142 855.153,330.361 864.625,316.091 
  866.584,313.492 878.015,298.187 878.87,297.039 889.446,283.375 893.783,277.988 900.877,269.047 909.734,258.936 912.308,255.83 923.739,244.048 928.691,239.885 
  935.17,234.461 946.6,227.495 958.031,222.656 963.596,220.833 969.462,219.158 980.893,216.732 992.324,215.015 1003.75,213.762 1015.19,212.832 1026.62,212.138 
  1038.05,211.624 1049.48,211.255 1060.91,211.007 1072.34,210.863 1083.77,210.816 1095.2,210.861 1106.63,210.999 1118.06,211.235 1129.49,211.581 1140.93,212.052 
  1152.36,212.673 1163.79,213.482 1175.22,214.532 1186.65,215.906 1198.08,217.732 1209.51,220.22 1211.81,220.833 1220.94,224.644 1232.37,231.463 1241.78,239.885 
  1243.8,242.984 1252.08,258.936 1255.23,270.107 1257.29,277.988 1260.28,297.039 1261.87,316.091 1262.45,335.142 1262.22,354.194 1261.25,373.245 1259.58,392.297 
  1257.2,411.348 1255.23,423.555 1254.17,430.399 1250.6,449.451 1246.2,468.502 1243.8,477.406 1241.11,487.554 1235.23,506.605 1232.37,514.735 1228.5,525.657 
  1220.94,544.178 1220.72,544.708 1212.03,563.76 1209.51,568.709 1202.07,582.811 1198.08,589.695 1190.68,601.863 1186.65,607.99 1177.63,620.914 1175.22,624.145 
  1163.79,638.577 1162.63,639.966 1152.36,651.671 1145.35,659.017 1140.93,663.482 1129.49,674.276 1125.21,678.069 1118.06,684.217 1106.63,693.336 1101.58,697.12 
  1095.2,701.815 1083.77,709.693 1073.58,716.172 1072.34,716.955 1060.91,723.882 1049.48,730.278 1040.01,735.223 1038.05,736.25 1026.62,741.97 1015.19,747.285 
  1003.75,752.235 998.748,754.275 992.324,756.937 980.893,761.362 969.462,765.452 958.031,769.21 946.6,772.628 943.951,773.326 935.17,775.739 
  "/>
<polyline clip-path="url(#clip372)" style="stroke:#bba399; stroke-linecap:butt; stroke-linejoin:round; stroke-width:4; stroke-opacity:1; fill:none" points="
  946.6,738.129 935.17,740.46 923.739,742.031 912.308,742.657 900.877,742.051 889.446,739.74 878.669,735.223 878.015,734.917 866.584,725.964 859.178,716.172 
  855.153,709.609 849.985,697.12 844.104,678.069 843.722,676.525 840.448,659.017 837.764,639.966 835.767,620.914 834.313,601.863 833.308,582.811 832.693,563.76 
  832.438,544.708 832.532,525.657 832.987,506.605 833.84,487.554 835.155,468.502 837.044,449.451 839.683,430.399 843.362,411.348 843.722,409.883 848.371,392.297 
  855.153,373.364 855.198,373.245 863.943,354.194 866.584,349.467 874.816,335.142 878.015,330.278 887.538,316.091 889.446,313.477 900.877,298.17 901.745,297.039 
  912.308,283.934 917.456,277.988 923.739,270.955 935.17,259.713 936.042,258.936 946.6,250.121 958.031,242.572 962.904,239.885 969.462,236.68 980.893,232.276 
  992.324,228.924 1003.75,226.338 1015.19,224.331 1026.62,222.778 1038.05,221.593 1047.94,220.833 1049.48,220.737 1060.91,220.241 1072.34,219.954 1083.77,219.86 
  1095.2,219.951 1106.63,220.228 1118.06,220.701 1120.31,220.833 1129.49,221.548 1140.93,222.764 1152.36,224.382 1163.79,226.502 1175.22,229.268 1186.65,232.898 
  1198.08,237.725 1202.22,239.885 1209.51,245.816 1220.94,258.21 1221.5,258.936 1230.38,277.988 1232.37,285.805 1235.07,297.039 1237.45,316.091 1238.28,335.142 
  1237.94,354.194 1236.62,373.245 1234.41,392.297 1232.37,405.066 1231.39,411.348 1227.66,430.399 1223.06,449.451 1220.94,457.004 1217.69,468.502 1211.45,487.554 
  1209.51,492.848 1204.35,506.605 1198.08,521.369 1196.2,525.657 1186.96,544.708 1186.65,545.305 1176.53,563.76 1175.22,565.975 1164.67,582.811 1163.79,584.129 
  1152.36,600.289 1151.17,601.863 1140.93,614.839 1135.76,620.914 1129.49,627.985 1118.06,639.884 1117.98,639.966 1106.63,650.886 1097.38,659.017 1095.2,660.893 
  1083.77,670.189 1073.18,678.069 1072.34,678.686 1060.91,686.658 1049.48,693.963 1044.19,697.12 1038.05,700.771 1026.62,707.093 1015.19,712.894 1008.18,716.172 
  1003.75,718.26 992.324,723.211 980.893,727.68 969.462,731.667 958.031,735.153 957.757,735.223 946.6,738.129 
  "/>
<polyline clip-path="url(#clip372)" style="stroke:#b38880; stroke-linecap:butt; stroke-linejoin:round; stroke-width:4; stroke-opacity:1; fill:none" points="
  969.462,698.912 958.031,702.039 946.6,704.377 935.17,705.796 923.739,706.092 912.308,704.954 900.877,701.892 891.297,697.12 889.446,696.086 878.015,685.879 
  872.39,678.069 866.584,668.202 862.767,659.017 856.619,639.966 855.153,634.109 852.584,620.914 849.787,601.863 847.807,582.811 846.516,563.76 845.838,544.708 
  845.734,525.657 846.196,506.605 847.253,487.554 848.97,468.502 851.461,449.451 854.908,430.399 855.153,429.345 859.616,411.348 865.75,392.297 866.584,390.179 
  873.569,373.245 878.015,364.303 883.214,354.194 889.446,343.684 894.654,335.142 900.877,325.966 907.786,316.091 912.308,310.116 922.691,297.039 923.739,295.797 
  935.17,283.056 940.145,277.988 946.6,271.886 958.031,262.467 962.935,258.936 969.462,254.742 980.893,248.642 992.324,243.725 1003.34,239.885 1003.75,239.764 
  1015.19,236.992 1026.62,234.865 1038.05,233.264 1049.48,232.106 1060.91,231.336 1072.34,230.921 1083.77,230.843 1095.2,231.1 1106.63,231.705 1118.06,232.686 
  1129.49,234.091 1140.93,235.989 1152.36,238.484 1157.51,239.885 1163.79,242.33 1175.22,247.957 1186.65,255.358 1191.15,258.936 1198.08,267.698 1204.78,277.988 
  1209.51,290.674 1211.65,297.039 1215.08,316.091 1216.37,335.142 1216.12,354.194 1214.64,373.245 1212.08,392.297 1209.51,406.171 1208.55,411.348 1204.14,430.399 
  1198.76,449.451 1198.08,451.564 1192.5,468.502 1186.65,483.924 1185.22,487.554 1176.93,506.605 1175.22,510.185 1167.49,525.657 1163.79,532.466 1156.77,544.708 
  1152.36,551.88 1144.6,563.76 1140.93,569.059 1130.74,582.811 1129.49,584.417 1118.06,598.285 1114.9,601.863 1106.63,610.883 1096.65,620.914 1095.2,622.331 
  1083.77,632.848 1075.35,639.966 1072.34,642.46 1060.91,651.316 1050.04,659.017 1049.48,659.41 1038.05,666.898 1026.62,673.716 1018.63,678.069 1015.19,679.94 
  1003.75,685.596 992.324,690.646 980.893,695.09 974.791,697.12 969.462,698.912 
  "/>
<polyline clip-path="url(#clip372)" style="stroke:#ab6c66; stroke-linecap:butt; stroke-linejoin:round; stroke-width:4; stroke-opacity:1; fill:none" points="
  980.893,662.836 969.462,666.326 958.031,668.907 946.6,670.439 935.17,670.707 923.739,669.383 912.308,665.969 900.877,659.688 900.071,659.017 889.446,648.672 
  883.533,639.966 878.015,629.858 874.464,620.914 868.679,601.863 866.584,592.446 864.878,582.811 862.498,563.76 861.072,544.708 860.506,525.657 860.753,506.605 
  861.813,487.554 863.73,468.502 866.584,449.545 866.599,449.451 870.73,430.399 876.085,411.348 878.015,405.837 882.981,392.297 889.446,377.712 891.5,373.245 
  900.877,355.756 901.741,354.194 912.308,337.342 913.733,335.142 923.739,321.219 927.585,316.091 935.17,306.854 943.772,297.039 946.6,294.081 958.031,283.143 
  964.024,277.988 969.462,273.809 980.893,266.191 992.324,259.764 994.036,258.936 1003.75,254.948 1015.19,251.175 1026.62,248.204 1038.05,245.925 1049.48,244.264 
  1060.91,243.172 1072.34,242.626 1083.77,242.619 1095.2,243.169 1106.63,244.313 1118.06,246.116 1129.49,248.673 1140.93,252.122 1152.36,256.657 1157,258.936 
  1163.79,263.903 1175.22,274.525 1178.3,277.988 1186.65,293.561 1188.26,297.039 1193.16,316.091 1195.17,335.142 1195.18,354.194 1193.65,373.245 1190.84,392.297 
  1186.88,411.348 1186.65,412.245 1181.85,430.399 1175.75,449.451 1175.22,450.917 1168.58,468.502 1163.79,479.707 1160.28,487.554 1152.36,503.542 1150.76,506.605 
  1140.93,523.947 1139.9,525.657 1129.49,541.817 1127.51,544.708 1118.06,557.71 1113.35,563.76 1106.63,571.984 1097.1,582.811 1095.2,584.881 1083.77,596.574 
  1078.18,601.863 1072.34,607.224 1060.91,616.919 1055.8,620.914 1049.48,625.761 1038.05,633.79 1028.37,639.966 1026.62,641.07 1015.19,647.609 1003.75,653.423 
  992.324,658.52 991.007,659.017 980.893,662.836 
  "/>
<polyline clip-path="url(#clip372)" style="stroke:#a3514c; stroke-linecap:butt; stroke-linejoin:round; stroke-width:4; stroke-opacity:1; fill:none" points="
  1003.75,621.031 992.324,625.987 980.893,630.006 969.462,632.997 958.031,634.807 946.6,635.2 935.17,633.822 923.739,630.139 912.308,623.338 909.646,620.914 
  900.877,611.277 895.071,601.863 889.446,589.965 886.933,582.811 882.041,563.76 878.932,544.708 878.015,534.181 877.397,525.657 877.111,506.605 877.9,487.554 
  878.015,486.395 879.913,468.502 883.084,449.451 887.46,430.399 889.446,423.748 893.33,411.348 900.671,392.297 900.877,391.851 909.764,373.245 912.308,368.649 
  920.573,354.194 923.739,349.304 933.246,335.142 935.17,332.572 946.6,318.026 948.209,316.091 958.031,305.525 966.602,297.039 969.462,294.519 980.893,285.504 
  991.78,277.988 992.324,277.663 1003.75,271.803 1015.19,266.987 1026.62,263.106 1038.05,260.088 1044.04,258.936 1049.48,258.083 1060.91,256.969 1072.34,256.515 
  1083.77,256.72 1095.2,257.605 1104.67,258.936 1106.63,259.309 1118.06,262.528 1129.49,267.056 1140.93,273.156 1148.02,277.988 1152.36,282.563 1163.3,297.039 
  1163.79,298.174 1170.46,316.091 1173.61,335.142 1174.11,354.194 1172.67,373.245 1169.67,392.297 1165.33,411.348 1163.79,416.712 1159.7,430.399 1152.86,449.451 
  1152.36,450.679 1144.72,468.502 1140.93,476.381 1135.25,487.554 1129.49,497.89 1124.34,506.605 1118.06,516.438 1111.78,525.657 1106.63,532.753 1097.32,544.708 
  1095.2,547.291 1083.77,560.284 1080.47,563.76 1072.34,571.987 1060.91,582.592 1060.65,582.811 1049.48,592.085 1038.05,600.684 1036.32,601.863 1026.62,608.32 
  1015.19,615.091 1003.98,620.914 1003.75,621.031 
  "/>
<polyline clip-path="url(#clip372)" style="stroke:#9b3633; stroke-linecap:butt; stroke-linejoin:round; stroke-width:4; stroke-opacity:1; fill:none" points="
  1003.75,587.273 992.324,591.96 980.893,595.476 969.462,597.645 958.031,598.192 946.6,596.7 935.17,592.538 923.739,584.75 921.869,582.811 912.308,570.128 
  908.999,563.76 902.029,544.708 900.877,539.69 898.369,525.657 896.772,506.605 896.808,487.554 898.322,468.502 900.877,451.865 901.269,449.451 905.901,430.399 
  911.906,411.348 912.308,410.335 919.753,392.297 923.739,384.179 929.303,373.245 935.17,363.325 940.778,354.194 946.6,345.903 954.518,335.142 958.031,330.931 
  969.462,318.112 971.413,316.091 980.893,307.543 992.324,298.269 994.047,297.039 1003.75,291.147 1015.19,285.308 1026.62,280.529 1034.43,277.988 1038.05,277.022 
  1049.48,274.907 1060.91,273.715 1072.34,273.455 1083.77,274.169 1095.2,275.93 1103.35,277.988 1106.63,279.163 1118.06,285.022 1129.49,293.201 1133.69,297.039 
  1140.93,307.962 1145.29,316.091 1150.41,335.142 1151.84,354.194 1150.7,373.245 1147.62,392.297 1142.93,411.348 1140.93,417.647 1136.67,430.399 1129.49,448.269 
  1128.99,449.451 1119.73,468.502 1118.06,471.567 1108.83,487.554 1106.63,491.032 1096.11,506.605 1095.2,507.854 1083.77,522.511 1081.12,525.657 1072.34,535.484 
  1063.36,544.708 1060.91,547.115 1049.48,557.352 1041.57,563.76 1038.05,566.511 1026.62,574.465 1015.19,581.465 1012.59,582.811 1003.75,587.273 
  "/>
<polyline clip-path="url(#clip372)" style="stroke:#931b19; stroke-linecap:butt; stroke-linejoin:round; stroke-width:4; stroke-opacity:1; fill:none" points="
  1015.19,545.021 1003.75,550.47 992.324,554.546 980.893,557.02 969.462,557.53 958.031,555.51 946.6,550.085 940.28,544.708 935.17,538.781 927.943,525.657 
  923.739,512.799 922.263,506.605 920.252,487.554 920.559,468.502 922.824,449.451 923.739,445.278 927.173,430.399 933.246,411.348 935.17,406.687 941.363,392.297 
  946.6,382.241 951.492,373.245 958.031,363.092 964.052,354.194 969.462,347.356 979.75,335.142 980.893,333.977 992.324,323.504 1001.29,316.091 1003.75,314.375 
  1015.19,307.673 1026.62,302.168 1038.05,297.934 1041.74,297.039 1049.48,295.531 1060.91,294.57 1072.34,294.946 1083.77,296.79 1084.62,297.039 1095.2,301.602 
  1106.63,309.43 1113.54,316.091 1118.06,323.866 1123.16,335.142 1126.53,354.194 1126.22,373.245 1123.29,392.297 1118.36,411.348 1118.06,412.192 1111.3,430.399 
  1106.63,440.779 1102.46,449.451 1095.2,462.534 1091.64,468.502 1083.77,480.301 1078.53,487.554 1072.34,495.408 1062.71,506.605 1060.91,508.561 1049.48,519.757 
  1042.77,525.657 1038.05,529.577 1026.62,537.875 1015.71,544.708 1015.19,545.021 
  "/>
<defs>
  <clipPath id="clip373">
    <rect x="2019" y="201" width="73" height="1144"/>
  </clipPath>
</defs>
<polyline clip-path="url(#clip373)" style="stroke:#191b93; stroke-linecap:butt; stroke-linejoin:round; stroke-width:4; stroke-opacity:1; fill:none" points="
  2019.02,1273.43 2091.02,1273.43 
  "/>
<polyline clip-path="url(#clip373)" style="stroke:#33369b; stroke-linecap:butt; stroke-linejoin:round; stroke-width:4; stroke-opacity:1; fill:none" points="
  2019.02,1201.98 2091.02,1201.98 
  "/>
<polyline clip-path="url(#clip373)" style="stroke:#4c51a3; stroke-linecap:butt; stroke-linejoin:round; stroke-width:4; stroke-opacity:1; fill:none" points="
  2019.02,1130.54 2091.02,1130.54 
  "/>
<polyline clip-path="url(#clip373)" style="stroke:#666cab; stroke-linecap:butt; stroke-linejoin:round; stroke-width:4; stroke-opacity:1; fill:none" points="
  2019.02,1059.1 2091.02,1059.1 
  "/>
<polyline clip-path="url(#clip373)" style="stroke:#8088b3; stroke-linecap:butt; stroke-linejoin:round; stroke-width:4; stroke-opacity:1; fill:none" points="
  2019.02,987.655 2091.02,987.655 
  "/>
<polyline clip-path="url(#clip373)" style="stroke:#99a3bb; stroke-linecap:butt; stroke-linejoin:round; stroke-width:4; stroke-opacity:1; fill:none" points="
  2019.02,916.212 2091.02,916.212 
  "/>
<polyline clip-path="url(#clip373)" style="stroke:#b3bec4; stroke-linecap:butt; stroke-linejoin:round; stroke-width:4; stroke-opacity:1; fill:none" points="
  2019.02,844.769 2091.02,844.769 
  "/>
<polyline clip-path="url(#clip373)" style="stroke:#cbd7cb; stroke-linecap:butt; stroke-linejoin:round; stroke-width:4; stroke-opacity:1; fill:none" points="
  2019.02,773.326 2091.02,773.326 
  "/>
<polyline clip-path="url(#clip373)" style="stroke:#c4beb3; stroke-linecap:butt; stroke-linejoin:round; stroke-width:4; stroke-opacity:1; fill:none" points="
  2019.02,701.883 2091.02,701.883 
  "/>
<polyline clip-path="url(#clip373)" style="stroke:#bba399; stroke-linecap:butt; stroke-linejoin:round; stroke-width:4; stroke-opacity:1; fill:none" points="
  2019.02,630.44 2091.02,630.44 
  "/>
<polyline clip-path="url(#clip373)" style="stroke:#b38880; stroke-linecap:butt; stroke-linejoin:round; stroke-width:4; stroke-opacity:1; fill:none" points="
  2019.02,558.997 2091.02,558.997 
  "/>
<polyline clip-path="url(#clip373)" style="stroke:#ab6c66; stroke-linecap:butt; stroke-linejoin:round; stroke-width:4; stroke-opacity:1; fill:none" points="
  2019.02,487.554 2091.02,487.554 
  "/>
<polyline clip-path="url(#clip373)" style="stroke:#a3514c; stroke-linecap:butt; stroke-linejoin:round; stroke-width:4; stroke-opacity:1; fill:none" points="
  2019.02,416.111 2091.02,416.111 
  "/>
<polyline clip-path="url(#clip373)" style="stroke:#9b3633; stroke-linecap:butt; stroke-linejoin:round; stroke-width:4; stroke-opacity:1; fill:none" points="
  2019.02,344.668 2091.02,344.668 
  "/>
<polyline clip-path="url(#clip373)" style="stroke:#931b19; stroke-linecap:butt; stroke-linejoin:round; stroke-width:4; stroke-opacity:1; fill:none" points="
  2019.02,273.225 2091.02,273.225 
  "/>
<path clip-path="url(#clip370)" d="M2127.02 1305.97 L2156.7 1305.97 L2156.7 1309.91 L2127.02 1309.91 L2127.02 1305.97 Z" fill="#000000" fill-rule="evenodd" fill-opacity="1" /><path clip-path="url(#clip370)" d="M2176.79 1291.32 Q2173.18 1291.32 2171.35 1294.88 Q2169.55 1298.42 2169.55 1305.55 Q2169.55 1312.66 2171.35 1316.23 Q2173.18 1319.77 2176.79 1319.77 Q2180.43 1319.77 2182.23 1316.23 Q2184.06 1312.66 2184.06 1305.55 Q2184.06 1298.42 2182.23 1294.88 Q2180.43 1291.32 2176.79 1291.32 M2176.79 1287.61 Q2182.6 1287.61 2185.66 1292.22 Q2188.74 1296.8 2188.74 1305.55 Q2188.74 1314.28 2185.66 1318.89 Q2182.6 1323.47 2176.79 1323.47 Q2170.98 1323.47 2167.9 1318.89 Q2164.85 1314.28 2164.85 1305.55 Q2164.85 1296.8 2167.9 1292.22 Q2170.98 1287.61 2176.79 1287.61 Z" fill="#000000" fill-rule="evenodd" fill-opacity="1" /><path clip-path="url(#clip370)" d="M2196.95 1316.92 L2201.84 1316.92 L2201.84 1322.8 L2196.95 1322.8 L2196.95 1316.92 Z" fill="#000000" fill-rule="evenodd" fill-opacity="1" /><path clip-path="url(#clip370)" d="M2222.02 1291.32 Q2218.41 1291.32 2216.58 1294.88 Q2214.78 1298.42 2214.78 1305.55 Q2214.78 1312.66 2216.58 1316.23 Q2218.41 1319.77 2222.02 1319.77 Q2225.66 1319.77 2227.46 1316.23 Q2229.29 1312.66 2229.29 1305.55 Q2229.29 1298.42 2227.46 1294.88 Q2225.66 1291.32 2222.02 1291.32 M2222.02 1287.61 Q2227.83 1287.61 2230.89 1292.22 Q2233.97 1296.8 2233.97 1305.55 Q2233.97 1314.28 2230.89 1318.89 Q2227.83 1323.47 2222.02 1323.47 Q2216.21 1323.47 2213.13 1318.89 Q2210.08 1314.28 2210.08 1305.55 Q2210.08 1296.8 2213.13 1292.22 Q2216.21 1287.61 2222.02 1287.61 Z" fill="#000000" fill-rule="evenodd" fill-opacity="1" /><path clip-path="url(#clip370)" d="M2252.18 1291.32 Q2248.57 1291.32 2246.75 1294.88 Q2244.94 1298.42 2244.94 1305.55 Q2244.94 1312.66 2246.75 1316.23 Q2248.57 1319.77 2252.18 1319.77 Q2255.82 1319.77 2257.62 1316.23 Q2259.45 1312.66 2259.45 1305.55 Q2259.45 1298.42 2257.62 1294.88 Q2255.82 1291.32 2252.18 1291.32 M2252.18 1287.61 Q2258 1287.61 2261.05 1292.22 Q2264.13 1296.8 2264.13 1305.55 Q2264.13 1314.28 2261.05 1318.89 Q2258 1323.47 2252.18 1323.47 Q2246.37 1323.47 2243.3 1318.89 Q2240.24 1314.28 2240.24 1305.55 Q2240.24 1296.8 2243.3 1292.22 Q2246.37 1287.61 2252.18 1287.61 Z" fill="#000000" fill-rule="evenodd" fill-opacity="1" /><path clip-path="url(#clip370)" d="M2282.35 1291.32 Q2278.74 1291.32 2276.91 1294.88 Q2275.1 1298.42 2275.1 1305.55 Q2275.1 1312.66 2276.91 1316.23 Q2278.74 1319.77 2282.35 1319.77 Q2285.98 1319.77 2287.79 1316.23 Q2289.62 1312.66 2289.62 1305.55 Q2289.62 1298.42 2287.79 1294.88 Q2285.98 1291.32 2282.35 1291.32 M2282.35 1287.61 Q2288.16 1287.61 2291.21 1292.22 Q2294.29 1296.8 2294.29 1305.55 Q2294.29 1314.28 2291.21 1318.89 Q2288.16 1323.47 2282.35 1323.47 Q2276.54 1323.47 2273.46 1318.89 Q2270.4 1314.28 2270.4 1305.55 Q2270.4 1296.8 2273.46 1292.22 Q2276.54 1287.61 2282.35 1287.61 Z" fill="#000000" fill-rule="evenodd" fill-opacity="1" /><path clip-path="url(#clip370)" d="M2301.33 1288.24 L2323.55 1288.24 L2323.55 1290.23 L2311 1322.8 L2306.12 1322.8 L2317.93 1292.18 L2301.33 1292.18 L2301.33 1288.24 Z" fill="#000000" fill-rule="evenodd" fill-opacity="1" /><path clip-path="url(#clip370)" d="M2332.72 1288.24 L2351.07 1288.24 L2351.07 1292.18 L2337 1292.18 L2337 1300.65 Q2338.02 1300.3 2339.04 1300.14 Q2340.05 1299.95 2341.07 1299.95 Q2346.86 1299.95 2350.24 1303.12 Q2353.62 1306.3 2353.62 1311.71 Q2353.62 1317.29 2350.15 1320.39 Q2346.68 1323.47 2340.36 1323.47 Q2338.18 1323.47 2335.91 1323.1 Q2333.67 1322.73 2331.26 1321.99 L2331.26 1317.29 Q2333.34 1318.42 2335.56 1318.98 Q2337.79 1319.54 2340.26 1319.54 Q2344.27 1319.54 2346.61 1317.43 Q2348.94 1315.32 2348.94 1311.71 Q2348.94 1308.1 2346.61 1305.99 Q2344.27 1303.89 2340.26 1303.89 Q2338.39 1303.89 2336.51 1304.3 Q2334.66 1304.72 2332.72 1305.6 L2332.72 1288.24 Z" fill="#000000" fill-rule="evenodd" fill-opacity="1" /><path clip-path="url(#clip370)" d="M2127.02 1127.36 L2156.7 1127.36 L2156.7 1131.3 L2127.02 1131.3 L2127.02 1127.36 Z" fill="#000000" fill-rule="evenodd" fill-opacity="1" /><path clip-path="url(#clip370)" d="M2176.79 1112.71 Q2173.18 1112.71 2171.35 1116.28 Q2169.55 1119.82 2169.55 1126.95 Q2169.55 1134.05 2171.35 1137.62 Q2173.18 1141.16 2176.79 1141.16 Q2180.43 1141.16 2182.23 1137.62 Q2184.06 1134.05 2184.06 1126.95 Q2184.06 1119.82 2182.23 1116.28 Q2180.43 1112.71 2176.79 1112.71 M2176.79 1109.01 Q2182.6 1109.01 2185.66 1113.61 Q2188.74 1118.2 2188.74 1126.95 Q2188.74 1135.67 2185.66 1140.28 Q2182.6 1144.86 2176.79 1144.86 Q2170.98 1144.86 2167.9 1140.28 Q2164.85 1135.67 2164.85 1126.95 Q2164.85 1118.2 2167.9 1113.61 Q2170.98 1109.01 2176.79 1109.01 Z" fill="#000000" fill-rule="evenodd" fill-opacity="1" /><path clip-path="url(#clip370)" d="M2196.95 1138.31 L2201.84 1138.31 L2201.84 1144.19 L2196.95 1144.19 L2196.95 1138.31 Z" fill="#000000" fill-rule="evenodd" fill-opacity="1" /><path clip-path="url(#clip370)" d="M2222.02 1112.71 Q2218.41 1112.71 2216.58 1116.28 Q2214.78 1119.82 2214.78 1126.95 Q2214.78 1134.05 2216.58 1137.62 Q2218.41 1141.16 2222.02 1141.16 Q2225.66 1141.16 2227.46 1137.62 Q2229.29 1134.05 2229.29 1126.95 Q2229.29 1119.82 2227.46 1116.28 Q2225.66 1112.71 2222.02 1112.71 M2222.02 1109.01 Q2227.83 1109.01 2230.89 1113.61 Q2233.97 1118.2 2233.97 1126.95 Q2233.97 1135.67 2230.89 1140.28 Q2227.83 1144.86 2222.02 1144.86 Q2216.21 1144.86 2213.13 1140.28 Q2210.08 1135.67 2210.08 1126.95 Q2210.08 1118.2 2213.13 1113.61 Q2216.21 1109.01 2222.02 1109.01 Z" fill="#000000" fill-rule="evenodd" fill-opacity="1" /><path clip-path="url(#clip370)" d="M2252.18 1112.71 Q2248.57 1112.71 2246.75 1116.28 Q2244.94 1119.82 2244.94 1126.95 Q2244.94 1134.05 2246.75 1137.62 Q2248.57 1141.16 2252.18 1141.16 Q2255.82 1141.16 2257.62 1137.62 Q2259.45 1134.05 2259.45 1126.95 Q2259.45 1119.82 2257.62 1116.28 Q2255.82 1112.71 2252.18 1112.71 M2252.18 1109.01 Q2258 1109.01 2261.05 1113.61 Q2264.13 1118.2 2264.13 1126.95 Q2264.13 1135.67 2261.05 1140.28 Q2258 1144.86 2252.18 1144.86 Q2246.37 1144.86 2243.3 1140.28 Q2240.24 1135.67 2240.24 1126.95 Q2240.24 1118.2 2243.3 1113.61 Q2246.37 1109.01 2252.18 1109.01 Z" fill="#000000" fill-rule="evenodd" fill-opacity="1" /><path clip-path="url(#clip370)" d="M2282.35 1112.71 Q2278.74 1112.71 2276.91 1116.28 Q2275.1 1119.82 2275.1 1126.95 Q2275.1 1134.05 2276.91 1137.62 Q2278.74 1141.16 2282.35 1141.16 Q2285.98 1141.16 2287.79 1137.62 Q2289.62 1134.05 2289.62 1126.95 Q2289.62 1119.82 2287.79 1116.28 Q2285.98 1112.71 2282.35 1112.71 M2282.35 1109.01 Q2288.16 1109.01 2291.21 1113.61 Q2294.29 1118.2 2294.29 1126.95 Q2294.29 1135.67 2291.21 1140.28 Q2288.16 1144.86 2282.35 1144.86 Q2276.54 1144.86 2273.46 1140.28 Q2270.4 1135.67 2270.4 1126.95 Q2270.4 1118.2 2273.46 1113.61 Q2276.54 1109.01 2282.35 1109.01 Z" fill="#000000" fill-rule="evenodd" fill-opacity="1" /><path clip-path="url(#clip370)" d="M2302.56 1109.63 L2320.91 1109.63 L2320.91 1113.57 L2306.84 1113.57 L2306.84 1122.04 Q2307.86 1121.69 2308.87 1121.53 Q2309.89 1121.35 2310.91 1121.35 Q2316.7 1121.35 2320.08 1124.52 Q2323.46 1127.69 2323.46 1133.1 Q2323.46 1138.68 2319.99 1141.78 Q2316.51 1144.86 2310.19 1144.86 Q2308.02 1144.86 2305.75 1144.49 Q2303.5 1144.12 2301.1 1143.38 L2301.1 1138.68 Q2303.18 1139.82 2305.4 1140.37 Q2307.62 1140.93 2310.1 1140.93 Q2314.11 1140.93 2316.44 1138.82 Q2318.78 1136.72 2318.78 1133.1 Q2318.78 1129.49 2316.44 1127.39 Q2314.11 1125.28 2310.1 1125.28 Q2308.23 1125.28 2306.35 1125.7 Q2304.5 1126.11 2302.56 1126.99 L2302.56 1109.63 Z" fill="#000000" fill-rule="evenodd" fill-opacity="1" /><path clip-path="url(#clip370)" d="M2342.67 1112.71 Q2339.06 1112.71 2337.23 1116.28 Q2335.43 1119.82 2335.43 1126.95 Q2335.43 1134.05 2337.23 1137.62 Q2339.06 1141.16 2342.67 1141.16 Q2346.3 1141.16 2348.11 1137.62 Q2349.94 1134.05 2349.94 1126.95 Q2349.94 1119.82 2348.11 1116.28 Q2346.3 1112.71 2342.67 1112.71 M2342.67 1109.01 Q2348.48 1109.01 2351.54 1113.61 Q2354.61 1118.2 2354.61 1126.95 Q2354.61 1135.67 2351.54 1140.28 Q2348.48 1144.86 2342.67 1144.86 Q2336.86 1144.86 2333.78 1140.28 Q2330.73 1135.67 2330.73 1126.95 Q2330.73 1118.2 2333.78 1113.61 Q2336.86 1109.01 2342.67 1109.01 Z" fill="#000000" fill-rule="evenodd" fill-opacity="1" /><path clip-path="url(#clip370)" d="M2127.02 948.756 L2156.7 948.756 L2156.7 952.691 L2127.02 952.691 L2127.02 948.756 Z" fill="#000000" fill-rule="evenodd" fill-opacity="1" /><path clip-path="url(#clip370)" d="M2176.79 934.103 Q2173.18 934.103 2171.35 937.668 Q2169.55 941.21 2169.55 948.339 Q2169.55 955.446 2171.35 959.011 Q2173.18 962.552 2176.79 962.552 Q2180.43 962.552 2182.23 959.011 Q2184.06 955.446 2184.06 948.339 Q2184.06 941.21 2182.23 937.668 Q2180.43 934.103 2176.79 934.103 M2176.79 930.4 Q2182.6 930.4 2185.66 935.006 Q2188.74 939.59 2188.74 948.339 Q2188.74 957.066 2185.66 961.673 Q2182.6 966.256 2176.79 966.256 Q2170.98 966.256 2167.9 961.673 Q2164.85 957.066 2164.85 948.339 Q2164.85 939.59 2167.9 935.006 Q2170.98 930.4 2176.79 930.4 Z" fill="#000000" fill-rule="evenodd" fill-opacity="1" /><path clip-path="url(#clip370)" d="M2196.95 959.705 L2201.84 959.705 L2201.84 965.585 L2196.95 965.585 L2196.95 959.705 Z" fill="#000000" fill-rule="evenodd" fill-opacity="1" /><path clip-path="url(#clip370)" d="M2222.02 934.103 Q2218.41 934.103 2216.58 937.668 Q2214.78 941.21 2214.78 948.339 Q2214.78 955.446 2216.58 959.011 Q2218.41 962.552 2222.02 962.552 Q2225.66 962.552 2227.46 959.011 Q2229.29 955.446 2229.29 948.339 Q2229.29 941.21 2227.46 937.668 Q2225.66 934.103 2222.02 934.103 M2222.02 930.4 Q2227.83 930.4 2230.89 935.006 Q2233.97 939.59 2233.97 948.339 Q2233.97 957.066 2230.89 961.673 Q2227.83 966.256 2222.02 966.256 Q2216.21 966.256 2213.13 961.673 Q2210.08 957.066 2210.08 948.339 Q2210.08 939.59 2213.13 935.006 Q2216.21 930.4 2222.02 930.4 Z" fill="#000000" fill-rule="evenodd" fill-opacity="1" /><path clip-path="url(#clip370)" d="M2252.18 934.103 Q2248.57 934.103 2246.75 937.668 Q2244.94 941.21 2244.94 948.339 Q2244.94 955.446 2246.75 959.011 Q2248.57 962.552 2252.18 962.552 Q2255.82 962.552 2257.62 959.011 Q2259.45 955.446 2259.45 948.339 Q2259.45 941.21 2257.62 937.668 Q2255.82 934.103 2252.18 934.103 M2252.18 930.4 Q2258 930.4 2261.05 935.006 Q2264.13 939.59 2264.13 948.339 Q2264.13 957.066 2261.05 961.673 Q2258 966.256 2252.18 966.256 Q2246.37 966.256 2243.3 961.673 Q2240.24 957.066 2240.24 948.339 Q2240.24 939.59 2243.3 935.006 Q2246.37 930.4 2252.18 930.4 Z" fill="#000000" fill-rule="evenodd" fill-opacity="1" /><path clip-path="url(#clip370)" d="M2282.35 934.103 Q2278.74 934.103 2276.91 937.668 Q2275.1 941.21 2275.1 948.339 Q2275.1 955.446 2276.91 959.011 Q2278.74 962.552 2282.35 962.552 Q2285.98 962.552 2287.79 959.011 Q2289.62 955.446 2289.62 948.339 Q2289.62 941.21 2287.79 937.668 Q2285.98 934.103 2282.35 934.103 M2282.35 930.4 Q2288.16 930.4 2291.21 935.006 Q2294.29 939.59 2294.29 948.339 Q2294.29 957.066 2291.21 961.673 Q2288.16 966.256 2282.35 966.256 Q2276.54 966.256 2273.46 961.673 Q2270.4 957.066 2270.4 948.339 Q2270.4 939.59 2273.46 935.006 Q2276.54 930.4 2282.35 930.4 Z" fill="#000000" fill-rule="evenodd" fill-opacity="1" /><path clip-path="url(#clip370)" d="M2306.54 961.65 L2322.86 961.65 L2322.86 965.585 L2300.91 965.585 L2300.91 961.65 Q2303.57 958.895 2308.16 954.265 Q2312.76 949.613 2313.94 948.27 Q2316.19 945.747 2317.07 944.011 Q2317.97 942.252 2317.97 940.562 Q2317.97 937.807 2316.03 936.071 Q2314.11 934.335 2311 934.335 Q2308.81 934.335 2306.35 935.099 Q2303.92 935.863 2301.14 937.414 L2301.14 932.691 Q2303.97 931.557 2306.42 930.978 Q2308.87 930.4 2310.91 930.4 Q2316.28 930.4 2319.48 933.085 Q2322.67 935.77 2322.67 940.261 Q2322.67 942.39 2321.86 944.312 Q2321.07 946.21 2318.97 948.802 Q2318.39 949.474 2315.29 952.691 Q2312.18 955.886 2306.54 961.65 Z" fill="#000000" fill-rule="evenodd" fill-opacity="1" /><path clip-path="url(#clip370)" d="M2332.72 931.025 L2351.07 931.025 L2351.07 934.96 L2337 934.96 L2337 943.432 Q2338.02 943.085 2339.04 942.923 Q2340.05 942.738 2341.07 942.738 Q2346.86 942.738 2350.24 945.909 Q2353.62 949.08 2353.62 954.497 Q2353.62 960.076 2350.15 963.177 Q2346.68 966.256 2340.36 966.256 Q2338.18 966.256 2335.91 965.886 Q2333.67 965.515 2331.26 964.775 L2331.26 960.076 Q2333.34 961.21 2335.56 961.765 Q2337.79 962.321 2340.26 962.321 Q2344.27 962.321 2346.61 960.214 Q2348.94 958.108 2348.94 954.497 Q2348.94 950.886 2346.61 948.779 Q2344.27 946.673 2340.26 946.673 Q2338.39 946.673 2336.51 947.089 Q2334.66 947.506 2332.72 948.386 L2332.72 931.025 Z" fill="#000000" fill-rule="evenodd" fill-opacity="1" /><path clip-path="url(#clip370)" d="M2138.97 755.496 Q2135.36 755.496 2133.53 759.061 Q2131.72 762.602 2131.72 769.732 Q2131.72 776.838 2133.53 780.403 Q2135.36 783.945 2138.97 783.945 Q2142.6 783.945 2144.41 780.403 Q2146.24 776.838 2146.24 769.732 Q2146.24 762.602 2144.41 759.061 Q2142.6 755.496 2138.97 755.496 M2138.97 751.792 Q2144.78 751.792 2147.83 756.399 Q2150.91 760.982 2150.91 769.732 Q2150.91 778.459 2147.83 783.065 Q2144.78 787.648 2138.97 787.648 Q2133.16 787.648 2130.08 783.065 Q2127.02 778.459 2127.02 769.732 Q2127.02 760.982 2130.08 756.399 Q2133.16 751.792 2138.97 751.792 Z" fill="#000000" fill-rule="evenodd" fill-opacity="1" /><path clip-path="url(#clip370)" d="M2138.97 576.888 Q2135.36 576.888 2133.53 580.453 Q2131.72 583.995 2131.72 591.124 Q2131.72 598.231 2133.53 601.796 Q2135.36 605.337 2138.97 605.337 Q2142.6 605.337 2144.41 601.796 Q2146.24 598.231 2146.24 591.124 Q2146.24 583.995 2144.41 580.453 Q2142.6 576.888 2138.97 576.888 M2138.97 573.185 Q2144.78 573.185 2147.83 577.791 Q2150.91 582.374 2150.91 591.124 Q2150.91 599.851 2147.83 604.458 Q2144.78 609.041 2138.97 609.041 Q2133.16 609.041 2130.08 604.458 Q2127.02 599.851 2127.02 591.124 Q2127.02 582.374 2130.08 577.791 Q2133.16 573.185 2138.97 573.185 Z" fill="#000000" fill-rule="evenodd" fill-opacity="1" /><path clip-path="url(#clip370)" d="M2159.13 602.49 L2164.01 602.49 L2164.01 608.37 L2159.13 608.37 L2159.13 602.49 Z" fill="#000000" fill-rule="evenodd" fill-opacity="1" /><path clip-path="url(#clip370)" d="M2184.2 576.888 Q2180.59 576.888 2178.76 580.453 Q2176.95 583.995 2176.95 591.124 Q2176.95 598.231 2178.76 601.796 Q2180.59 605.337 2184.2 605.337 Q2187.83 605.337 2189.64 601.796 Q2191.47 598.231 2191.47 591.124 Q2191.47 583.995 2189.64 580.453 Q2187.83 576.888 2184.2 576.888 M2184.2 573.185 Q2190.01 573.185 2193.06 577.791 Q2196.14 582.374 2196.14 591.124 Q2196.14 599.851 2193.06 604.458 Q2190.01 609.041 2184.2 609.041 Q2178.39 609.041 2175.31 604.458 Q2172.25 599.851 2172.25 591.124 Q2172.25 582.374 2175.31 577.791 Q2178.39 573.185 2184.2 573.185 Z" fill="#000000" fill-rule="evenodd" fill-opacity="1" /><path clip-path="url(#clip370)" d="M2214.36 576.888 Q2210.75 576.888 2208.92 580.453 Q2207.12 583.995 2207.12 591.124 Q2207.12 598.231 2208.92 601.796 Q2210.75 605.337 2214.36 605.337 Q2218 605.337 2219.8 601.796 Q2221.63 598.231 2221.63 591.124 Q2221.63 583.995 2219.8 580.453 Q2218 576.888 2214.36 576.888 M2214.36 573.185 Q2220.17 573.185 2223.23 577.791 Q2226.31 582.374 2226.31 591.124 Q2226.31 599.851 2223.23 604.458 Q2220.17 609.041 2214.36 609.041 Q2208.55 609.041 2205.47 604.458 Q2202.42 599.851 2202.42 591.124 Q2202.42 582.374 2205.47 577.791 Q2208.55 573.185 2214.36 573.185 Z" fill="#000000" fill-rule="evenodd" fill-opacity="1" /><path clip-path="url(#clip370)" d="M2244.52 576.888 Q2240.91 576.888 2239.08 580.453 Q2237.28 583.995 2237.28 591.124 Q2237.28 598.231 2239.08 601.796 Q2240.91 605.337 2244.52 605.337 Q2248.16 605.337 2249.96 601.796 Q2251.79 598.231 2251.79 591.124 Q2251.79 583.995 2249.96 580.453 Q2248.16 576.888 2244.52 576.888 M2244.52 573.185 Q2250.33 573.185 2253.39 577.791 Q2256.47 582.374 2256.47 591.124 Q2256.47 599.851 2253.39 604.458 Q2250.33 609.041 2244.52 609.041 Q2238.71 609.041 2235.63 604.458 Q2232.58 599.851 2232.58 591.124 Q2232.58 582.374 2235.63 577.791 Q2238.71 573.185 2244.52 573.185 Z" fill="#000000" fill-rule="evenodd" fill-opacity="1" /><path clip-path="url(#clip370)" d="M2268.71 604.434 L2285.03 604.434 L2285.03 608.37 L2263.09 608.37 L2263.09 604.434 Q2265.75 601.68 2270.33 597.05 Q2274.94 592.397 2276.12 591.055 Q2278.37 588.532 2279.25 586.796 Q2280.15 585.036 2280.15 583.347 Q2280.15 580.592 2278.2 578.856 Q2276.28 577.12 2273.18 577.12 Q2270.98 577.12 2268.53 577.884 Q2266.1 578.648 2263.32 580.198 L2263.32 575.476 Q2266.14 574.342 2268.6 573.763 Q2271.05 573.185 2273.09 573.185 Q2278.46 573.185 2281.65 575.87 Q2284.85 578.555 2284.85 583.046 Q2284.85 585.175 2284.04 587.097 Q2283.25 588.995 2281.14 591.587 Q2280.56 592.259 2277.46 595.476 Q2274.36 598.671 2268.71 604.434 Z" fill="#000000" fill-rule="evenodd" fill-opacity="1" /><path clip-path="url(#clip370)" d="M2294.89 573.81 L2313.25 573.81 L2313.25 577.745 L2299.18 577.745 L2299.18 586.217 Q2300.19 585.87 2301.21 585.708 Q2302.23 585.523 2303.25 585.523 Q2309.04 585.523 2312.42 588.694 Q2315.8 591.865 2315.8 597.282 Q2315.8 602.86 2312.32 605.962 Q2308.85 609.041 2302.53 609.041 Q2300.36 609.041 2298.09 608.671 Q2295.84 608.3 2293.43 607.559 L2293.43 602.86 Q2295.52 603.995 2297.74 604.55 Q2299.96 605.106 2302.44 605.106 Q2306.44 605.106 2308.78 602.999 Q2311.12 600.893 2311.12 597.282 Q2311.12 593.671 2308.78 591.564 Q2306.44 589.458 2302.44 589.458 Q2300.56 589.458 2298.69 589.874 Q2296.84 590.291 2294.89 591.171 L2294.89 573.81 Z" fill="#000000" fill-rule="evenodd" fill-opacity="1" /><path clip-path="url(#clip370)" d="M2138.97 398.281 Q2135.36 398.281 2133.53 401.846 Q2131.72 405.387 2131.72 412.517 Q2131.72 419.623 2133.53 423.188 Q2135.36 426.73 2138.97 426.73 Q2142.6 426.73 2144.41 423.188 Q2146.24 419.623 2146.24 412.517 Q2146.24 405.387 2144.41 401.846 Q2142.6 398.281 2138.97 398.281 M2138.97 394.577 Q2144.78 394.577 2147.83 399.184 Q2150.91 403.767 2150.91 412.517 Q2150.91 421.244 2147.83 425.85 Q2144.78 430.433 2138.97 430.433 Q2133.16 430.433 2130.08 425.85 Q2127.02 421.244 2127.02 412.517 Q2127.02 403.767 2130.08 399.184 Q2133.16 394.577 2138.97 394.577 Z" fill="#000000" fill-rule="evenodd" fill-opacity="1" /><path clip-path="url(#clip370)" d="M2159.13 423.882 L2164.01 423.882 L2164.01 429.762 L2159.13 429.762 L2159.13 423.882 Z" fill="#000000" fill-rule="evenodd" fill-opacity="1" /><path clip-path="url(#clip370)" d="M2184.2 398.281 Q2180.59 398.281 2178.76 401.846 Q2176.95 405.387 2176.95 412.517 Q2176.95 419.623 2178.76 423.188 Q2180.59 426.73 2184.2 426.73 Q2187.83 426.73 2189.64 423.188 Q2191.47 419.623 2191.47 412.517 Q2191.47 405.387 2189.64 401.846 Q2187.83 398.281 2184.2 398.281 M2184.2 394.577 Q2190.01 394.577 2193.06 399.184 Q2196.14 403.767 2196.14 412.517 Q2196.14 421.244 2193.06 425.85 Q2190.01 430.433 2184.2 430.433 Q2178.39 430.433 2175.31 425.85 Q2172.25 421.244 2172.25 412.517 Q2172.25 403.767 2175.31 399.184 Q2178.39 394.577 2184.2 394.577 Z" fill="#000000" fill-rule="evenodd" fill-opacity="1" /><path clip-path="url(#clip370)" d="M2214.36 398.281 Q2210.75 398.281 2208.92 401.846 Q2207.12 405.387 2207.12 412.517 Q2207.12 419.623 2208.92 423.188 Q2210.75 426.73 2214.36 426.73 Q2218 426.73 2219.8 423.188 Q2221.63 419.623 2221.63 412.517 Q2221.63 405.387 2219.8 401.846 Q2218 398.281 2214.36 398.281 M2214.36 394.577 Q2220.17 394.577 2223.23 399.184 Q2226.31 403.767 2226.31 412.517 Q2226.31 421.244 2223.23 425.85 Q2220.17 430.433 2214.36 430.433 Q2208.55 430.433 2205.47 425.85 Q2202.42 421.244 2202.42 412.517 Q2202.42 403.767 2205.47 399.184 Q2208.55 394.577 2214.36 394.577 Z" fill="#000000" fill-rule="evenodd" fill-opacity="1" /><path clip-path="url(#clip370)" d="M2244.52 398.281 Q2240.91 398.281 2239.08 401.846 Q2237.28 405.387 2237.28 412.517 Q2237.28 419.623 2239.08 423.188 Q2240.91 426.73 2244.52 426.73 Q2248.16 426.73 2249.96 423.188 Q2251.79 419.623 2251.79 412.517 Q2251.79 405.387 2249.96 401.846 Q2248.16 398.281 2244.52 398.281 M2244.52 394.577 Q2250.33 394.577 2253.39 399.184 Q2256.47 403.767 2256.47 412.517 Q2256.47 421.244 2253.39 425.85 Q2250.33 430.433 2244.52 430.433 Q2238.71 430.433 2235.63 425.85 Q2232.58 421.244 2232.58 412.517 Q2232.58 403.767 2235.63 399.184 Q2238.71 394.577 2244.52 394.577 Z" fill="#000000" fill-rule="evenodd" fill-opacity="1" /><path clip-path="url(#clip370)" d="M2264.73 395.202 L2283.09 395.202 L2283.09 399.137 L2269.01 399.137 L2269.01 407.609 Q2270.03 407.262 2271.05 407.1 Q2272.07 406.915 2273.09 406.915 Q2278.87 406.915 2282.25 410.086 Q2285.63 413.258 2285.63 418.674 Q2285.63 424.253 2282.16 427.355 Q2278.69 430.433 2272.37 430.433 Q2270.19 430.433 2267.93 430.063 Q2265.68 429.693 2263.27 428.952 L2263.27 424.253 Q2265.36 425.387 2267.58 425.943 Q2269.8 426.498 2272.28 426.498 Q2276.28 426.498 2278.62 424.392 Q2280.96 422.285 2280.96 418.674 Q2280.96 415.063 2278.62 412.957 Q2276.28 410.85 2272.28 410.85 Q2270.4 410.85 2268.53 411.267 Q2266.68 411.683 2264.73 412.563 L2264.73 395.202 Z" fill="#000000" fill-rule="evenodd" fill-opacity="1" /><path clip-path="url(#clip370)" d="M2304.85 398.281 Q2301.24 398.281 2299.41 401.846 Q2297.6 405.387 2297.6 412.517 Q2297.6 419.623 2299.41 423.188 Q2301.24 426.73 2304.85 426.73 Q2308.48 426.73 2310.29 423.188 Q2312.12 419.623 2312.12 412.517 Q2312.12 405.387 2310.29 401.846 Q2308.48 398.281 2304.85 398.281 M2304.85 394.577 Q2310.66 394.577 2313.71 399.184 Q2316.79 403.767 2316.79 412.517 Q2316.79 421.244 2313.71 425.85 Q2310.66 430.433 2304.85 430.433 Q2299.04 430.433 2295.96 425.85 Q2292.9 421.244 2292.9 412.517 Q2292.9 403.767 2295.96 399.184 Q2299.04 394.577 2304.85 394.577 Z" fill="#000000" fill-rule="evenodd" fill-opacity="1" /><path clip-path="url(#clip370)" d="M2138.97 219.673 Q2135.36 219.673 2133.53 223.238 Q2131.72 226.78 2131.72 233.909 Q2131.72 241.016 2133.53 244.58 Q2135.36 248.122 2138.97 248.122 Q2142.6 248.122 2144.41 244.58 Q2146.24 241.016 2146.24 233.909 Q2146.24 226.78 2144.41 223.238 Q2142.6 219.673 2138.97 219.673 M2138.97 215.97 Q2144.78 215.97 2147.83 220.576 Q2150.91 225.159 2150.91 233.909 Q2150.91 242.636 2147.83 247.242 Q2144.78 251.826 2138.97 251.826 Q2133.16 251.826 2130.08 247.242 Q2127.02 242.636 2127.02 233.909 Q2127.02 225.159 2130.08 220.576 Q2133.16 215.97 2138.97 215.97 Z" fill="#000000" fill-rule="evenodd" fill-opacity="1" /><path clip-path="url(#clip370)" d="M2159.13 245.275 L2164.01 245.275 L2164.01 251.154 L2159.13 251.154 L2159.13 245.275 Z" fill="#000000" fill-rule="evenodd" fill-opacity="1" /><path clip-path="url(#clip370)" d="M2184.2 219.673 Q2180.59 219.673 2178.76 223.238 Q2176.95 226.78 2176.95 233.909 Q2176.95 241.016 2178.76 244.58 Q2180.59 248.122 2184.2 248.122 Q2187.83 248.122 2189.64 244.58 Q2191.47 241.016 2191.47 233.909 Q2191.47 226.78 2189.64 223.238 Q2187.83 219.673 2184.2 219.673 M2184.2 215.97 Q2190.01 215.97 2193.06 220.576 Q2196.14 225.159 2196.14 233.909 Q2196.14 242.636 2193.06 247.242 Q2190.01 251.826 2184.2 251.826 Q2178.39 251.826 2175.31 247.242 Q2172.25 242.636 2172.25 233.909 Q2172.25 225.159 2175.31 220.576 Q2178.39 215.97 2184.2 215.97 Z" fill="#000000" fill-rule="evenodd" fill-opacity="1" /><path clip-path="url(#clip370)" d="M2214.36 219.673 Q2210.75 219.673 2208.92 223.238 Q2207.12 226.78 2207.12 233.909 Q2207.12 241.016 2208.92 244.58 Q2210.75 248.122 2214.36 248.122 Q2218 248.122 2219.8 244.58 Q2221.63 241.016 2221.63 233.909 Q2221.63 226.78 2219.8 223.238 Q2218 219.673 2214.36 219.673 M2214.36 215.97 Q2220.17 215.97 2223.23 220.576 Q2226.31 225.159 2226.31 233.909 Q2226.31 242.636 2223.23 247.242 Q2220.17 251.826 2214.36 251.826 Q2208.55 251.826 2205.47 247.242 Q2202.42 242.636 2202.42 233.909 Q2202.42 225.159 2205.47 220.576 Q2208.55 215.97 2214.36 215.97 Z" fill="#000000" fill-rule="evenodd" fill-opacity="1" /><path clip-path="url(#clip370)" d="M2244.52 219.673 Q2240.91 219.673 2239.08 223.238 Q2237.28 226.78 2237.28 233.909 Q2237.28 241.016 2239.08 244.58 Q2240.91 248.122 2244.52 248.122 Q2248.16 248.122 2249.96 244.58 Q2251.79 241.016 2251.79 233.909 Q2251.79 226.78 2249.96 223.238 Q2248.16 219.673 2244.52 219.673 M2244.52 215.97 Q2250.33 215.97 2253.39 220.576 Q2256.47 225.159 2256.47 233.909 Q2256.47 242.636 2253.39 247.242 Q2250.33 251.826 2244.52 251.826 Q2238.71 251.826 2235.63 247.242 Q2232.58 242.636 2232.58 233.909 Q2232.58 225.159 2235.63 220.576 Q2238.71 215.97 2244.52 215.97 Z" fill="#000000" fill-rule="evenodd" fill-opacity="1" /><path clip-path="url(#clip370)" d="M2263.5 216.594 L2285.73 216.594 L2285.73 218.585 L2273.18 251.154 L2268.3 251.154 L2280.1 220.53 L2263.5 220.53 L2263.5 216.594 Z" fill="#000000" fill-rule="evenodd" fill-opacity="1" /><path clip-path="url(#clip370)" d="M2294.89 216.594 L2313.25 216.594 L2313.25 220.53 L2299.18 220.53 L2299.18 229.002 Q2300.19 228.655 2301.21 228.493 Q2302.23 228.307 2303.25 228.307 Q2309.04 228.307 2312.42 231.479 Q2315.8 234.65 2315.8 240.067 Q2315.8 245.645 2312.32 248.747 Q2308.85 251.826 2302.53 251.826 Q2300.36 251.826 2298.09 251.455 Q2295.84 251.085 2293.43 250.344 L2293.43 245.645 Q2295.52 246.78 2297.74 247.335 Q2299.96 247.891 2302.44 247.891 Q2306.44 247.891 2308.78 245.784 Q2311.12 243.678 2311.12 240.067 Q2311.12 236.456 2308.78 234.349 Q2306.44 232.243 2302.44 232.243 Q2300.56 232.243 2298.69 232.659 Q2296.84 233.076 2294.89 233.956 L2294.89 216.594 Z" fill="#000000" fill-rule="evenodd" fill-opacity="1" /><polyline clip-path="url(#clip370)" style="stroke:#000000; stroke-linecap:butt; stroke-linejoin:round; stroke-width:4; stroke-opacity:1; fill:none" points="
  2091.02,1344.87 2091.02,1309.15 2115.02,1309.15 2091.02,1309.15 2091.02,1130.54 2115.02,1130.54 2091.02,1130.54 2091.02,951.934 2115.02,951.934 2091.02,951.934 
  2091.02,773.326 2115.02,773.326 2091.02,773.326 2091.02,594.718 2115.02,594.718 2091.02,594.718 2091.02,416.111 2115.02,416.111 2091.02,416.111 2091.02,237.503 
  2115.02,237.503 2091.02,237.503 2091.02,201.782 
  "/>
</svg>
