<?xml version="1.0" encoding="utf-8"?>
<svg xmlns="http://www.w3.org/2000/svg" xmlns:xlink="http://www.w3.org/1999/xlink" width="600" height="400" viewBox="0 0 2400 1600">
<defs>
  <clipPath id="clip650">
    <rect x="0" y="0" width="2400" height="1600"/>
  </clipPath>
</defs>
<path clip-path="url(#clip650)" d="
M0 1600 L2400 1600 L2400 0 L0 0  Z
  " fill="#ffffff" fill-rule="evenodd" fill-opacity="1"/>
<defs>
  <clipPath id="clip651">
    <rect x="480" y="0" width="1681" height="1600"/>
  </clipPath>
</defs>
<path clip-path="url(#clip650)" d="
M188.292 1486.45 L2352.76 1486.45 L2352.76 47.2441 L188.292 47.2441  Z
  " fill="#ffffff" fill-rule="evenodd" fill-opacity="1"/>
<defs>
  <clipPath id="clip652">
    <rect x="188" y="47" width="2165" height="1440"/>
  </clipPath>
</defs>
<polyline clip-path="url(#clip652)" style="stroke:#000000; stroke-linecap:round; stroke-linejoin:round; stroke-width:2; stroke-opacity:0.1; fill:none" points="
  249.551,1486.45 249.551,47.2441 
  "/>
<polyline clip-path="url(#clip652)" style="stroke:#000000; stroke-linecap:round; stroke-linejoin:round; stroke-width:2; stroke-opacity:0.1; fill:none" points="
  626.294,1486.45 626.294,47.2441 
  "/>
<polyline clip-path="url(#clip652)" style="stroke:#000000; stroke-linecap:round; stroke-linejoin:round; stroke-width:2; stroke-opacity:0.1; fill:none" points="
  1003.04,1486.45 1003.04,47.2441 
  "/>
<polyline clip-path="url(#clip652)" style="stroke:#000000; stroke-linecap:round; stroke-linejoin:round; stroke-width:2; stroke-opacity:0.1; fill:none" points="
  1379.78,1486.45 1379.78,47.2441 
  "/>
<polyline clip-path="url(#clip652)" style="stroke:#000000; stroke-linecap:round; stroke-linejoin:round; stroke-width:2; stroke-opacity:0.1; fill:none" points="
  1756.52,1486.45 1756.52,47.2441 
  "/>
<polyline clip-path="url(#clip652)" style="stroke:#000000; stroke-linecap:round; stroke-linejoin:round; stroke-width:2; stroke-opacity:0.1; fill:none" points="
  2133.27,1486.45 2133.27,47.2441 
  "/>
<polyline clip-path="url(#clip650)" style="stroke:#000000; stroke-linecap:round; stroke-linejoin:round; stroke-width:4; stroke-opacity:1; fill:none" points="
  188.292,1486.45 2352.76,1486.45 
  "/>
<polyline clip-path="url(#clip650)" style="stroke:#000000; stroke-linecap:round; stroke-linejoin:round; stroke-width:4; stroke-opacity:1; fill:none" points="
  249.551,1486.45 249.551,1467.55 
  "/>
<polyline clip-path="url(#clip650)" style="stroke:#000000; stroke-linecap:round; stroke-linejoin:round; stroke-width:4; stroke-opacity:1; fill:none" points="
  626.294,1486.45 626.294,1467.55 
  "/>
<polyline clip-path="url(#clip650)" style="stroke:#000000; stroke-linecap:round; stroke-linejoin:round; stroke-width:4; stroke-opacity:1; fill:none" points="
  1003.04,1486.45 1003.04,1467.55 
  "/>
<polyline clip-path="url(#clip650)" style="stroke:#000000; stroke-linecap:round; stroke-linejoin:round; stroke-width:4; stroke-opacity:1; fill:none" points="
  1379.78,1486.45 1379.78,1467.55 
  "/>
<polyline clip-path="url(#clip650)" style="stroke:#000000; stroke-linecap:round; stroke-linejoin:round; stroke-width:4; stroke-opacity:1; fill:none" points="
  1756.52,1486.45 1756.52,1467.55 
  "/>
<polyline clip-path="url(#clip650)" style="stroke:#000000; stroke-linecap:round; stroke-linejoin:round; stroke-width:4; stroke-opacity:1; fill:none" points="
  2133.27,1486.45 2133.27,1467.55 
  "/>
<path clip-path="url(#clip650)" d="M249.551 1517.37 Q245.94 1517.37 244.111 1520.93 Q242.305 1524.47 242.305 1531.6 Q242.305 1538.71 244.111 1542.27 Q245.94 1545.82 249.551 1545.82 Q253.185 1545.82 254.99 1542.27 Q256.819 1538.71 256.819 1531.6 Q256.819 1524.47 254.99 1520.93 Q253.185 1517.37 249.551 1517.37 M249.551 1513.66 Q255.361 1513.66 258.416 1518.27 Q261.495 1522.85 261.495 1531.6 Q261.495 1540.33 258.416 1544.94 Q255.361 1549.52 249.551 1549.52 Q243.74 1549.52 240.662 1544.94 Q237.606 1540.33 237.606 1531.6 Q237.606 1522.85 240.662 1518.27 Q243.74 1513.66 249.551 1513.66 Z" fill="#000000" fill-rule="evenodd" fill-opacity="1" /><path clip-path="url(#clip650)" d="M585.9 1544.91 L593.539 1544.91 L593.539 1518.55 L585.229 1520.21 L585.229 1515.95 L593.493 1514.29 L598.169 1514.29 L598.169 1544.91 L605.808 1544.91 L605.808 1548.85 L585.9 1548.85 L585.9 1544.91 Z" fill="#000000" fill-rule="evenodd" fill-opacity="1" /><path clip-path="url(#clip650)" d="M625.252 1517.37 Q621.641 1517.37 619.812 1520.93 Q618.007 1524.47 618.007 1531.6 Q618.007 1538.71 619.812 1542.27 Q621.641 1545.82 625.252 1545.82 Q628.886 1545.82 630.692 1542.27 Q632.52 1538.71 632.52 1531.6 Q632.52 1524.47 630.692 1520.93 Q628.886 1517.37 625.252 1517.37 M625.252 1513.66 Q631.062 1513.66 634.118 1518.27 Q637.196 1522.85 637.196 1531.6 Q637.196 1540.33 634.118 1544.94 Q631.062 1549.52 625.252 1549.52 Q619.442 1549.52 616.363 1544.94 Q613.308 1540.33 613.308 1531.6 Q613.308 1522.85 616.363 1518.27 Q619.442 1513.66 625.252 1513.66 Z" fill="#000000" fill-rule="evenodd" fill-opacity="1" /><path clip-path="url(#clip650)" d="M655.414 1517.37 Q651.803 1517.37 649.974 1520.93 Q648.168 1524.47 648.168 1531.6 Q648.168 1538.71 649.974 1542.27 Q651.803 1545.82 655.414 1545.82 Q659.048 1545.82 660.854 1542.27 Q662.682 1538.71 662.682 1531.6 Q662.682 1524.47 660.854 1520.93 Q659.048 1517.37 655.414 1517.37 M655.414 1513.66 Q661.224 1513.66 664.279 1518.27 Q667.358 1522.85 667.358 1531.6 Q667.358 1540.33 664.279 1544.94 Q661.224 1549.52 655.414 1549.52 Q649.604 1549.52 646.525 1544.94 Q643.469 1540.33 643.469 1531.6 Q643.469 1522.85 646.525 1518.27 Q649.604 1513.66 655.414 1513.66 Z" fill="#000000" fill-rule="evenodd" fill-opacity="1" /><path clip-path="url(#clip650)" d="M966.729 1544.91 L983.048 1544.91 L983.048 1548.85 L961.104 1548.85 L961.104 1544.91 Q963.766 1542.16 968.349 1537.53 Q972.956 1532.88 974.136 1531.53 Q976.382 1529.01 977.261 1527.27 Q978.164 1525.51 978.164 1523.82 Q978.164 1521.07 976.22 1519.33 Q974.298 1517.6 971.196 1517.6 Q968.997 1517.6 966.544 1518.36 Q964.113 1519.13 961.335 1520.68 L961.335 1515.95 Q964.159 1514.82 966.613 1514.24 Q969.067 1513.66 971.104 1513.66 Q976.474 1513.66 979.669 1516.35 Q982.863 1519.03 982.863 1523.52 Q982.863 1525.65 982.053 1527.57 Q981.266 1529.47 979.159 1532.07 Q978.581 1532.74 975.479 1535.95 Q972.377 1539.15 966.729 1544.91 Z" fill="#000000" fill-rule="evenodd" fill-opacity="1" /><path clip-path="url(#clip650)" d="M1002.86 1517.37 Q999.252 1517.37 997.423 1520.93 Q995.618 1524.47 995.618 1531.6 Q995.618 1538.71 997.423 1542.27 Q999.252 1545.82 1002.86 1545.82 Q1006.5 1545.82 1008.3 1542.27 Q1010.13 1538.71 1010.13 1531.6 Q1010.13 1524.47 1008.3 1520.93 Q1006.5 1517.37 1002.86 1517.37 M1002.86 1513.66 Q1008.67 1513.66 1011.73 1518.27 Q1014.81 1522.85 1014.81 1531.6 Q1014.81 1540.33 1011.73 1544.94 Q1008.67 1549.52 1002.86 1549.52 Q997.053 1549.52 993.974 1544.94 Q990.919 1540.33 990.919 1531.6 Q990.919 1522.85 993.974 1518.27 Q997.053 1513.66 1002.86 1513.66 Z" fill="#000000" fill-rule="evenodd" fill-opacity="1" /><path clip-path="url(#clip650)" d="M1033.02 1517.37 Q1029.41 1517.37 1027.59 1520.93 Q1025.78 1524.47 1025.78 1531.6 Q1025.78 1538.71 1027.59 1542.27 Q1029.41 1545.82 1033.02 1545.82 Q1036.66 1545.82 1038.46 1542.27 Q1040.29 1538.71 1040.29 1531.6 Q1040.29 1524.47 1038.46 1520.93 Q1036.66 1517.37 1033.02 1517.37 M1033.02 1513.66 Q1038.83 1513.66 1041.89 1518.27 Q1044.97 1522.85 1044.97 1531.6 Q1044.97 1540.33 1041.89 1544.94 Q1038.83 1549.52 1033.02 1549.52 Q1027.21 1549.52 1024.14 1544.94 Q1021.08 1540.33 1021.08 1531.6 Q1021.08 1522.85 1024.14 1518.27 Q1027.21 1513.66 1033.02 1513.66 Z" fill="#000000" fill-rule="evenodd" fill-opacity="1" /><path clip-path="url(#clip650)" d="M1353.54 1530.21 Q1356.9 1530.93 1358.77 1533.2 Q1360.67 1535.47 1360.67 1538.8 Q1360.67 1543.92 1357.15 1546.72 Q1353.63 1549.52 1347.15 1549.52 Q1344.98 1549.52 1342.66 1549.08 Q1340.37 1548.66 1337.92 1547.81 L1337.92 1543.29 Q1339.86 1544.43 1342.18 1545.01 Q1344.49 1545.58 1347.01 1545.58 Q1351.41 1545.58 1353.7 1543.85 Q1356.02 1542.11 1356.02 1538.8 Q1356.02 1535.75 1353.87 1534.03 Q1351.74 1532.3 1347.92 1532.3 L1343.89 1532.3 L1343.89 1528.45 L1348.1 1528.45 Q1351.55 1528.45 1353.38 1527.09 Q1355.21 1525.7 1355.21 1523.11 Q1355.21 1520.45 1353.31 1519.03 Q1351.43 1517.6 1347.92 1517.6 Q1345.99 1517.6 1343.8 1518.01 Q1341.6 1518.43 1338.96 1519.31 L1338.96 1515.14 Q1341.62 1514.4 1343.93 1514.03 Q1346.27 1513.66 1348.33 1513.66 Q1353.66 1513.66 1356.76 1516.09 Q1359.86 1518.5 1359.86 1522.62 Q1359.86 1525.49 1358.22 1527.48 Q1356.57 1529.45 1353.54 1530.21 Z" fill="#000000" fill-rule="evenodd" fill-opacity="1" /><path clip-path="url(#clip650)" d="M1379.54 1517.37 Q1375.93 1517.37 1374.1 1520.93 Q1372.29 1524.47 1372.29 1531.6 Q1372.29 1538.71 1374.1 1542.27 Q1375.93 1545.82 1379.54 1545.82 Q1383.17 1545.82 1384.98 1542.27 Q1386.8 1538.71 1386.8 1531.6 Q1386.8 1524.47 1384.98 1520.93 Q1383.17 1517.37 1379.54 1517.37 M1379.54 1513.66 Q1385.35 1513.66 1388.4 1518.27 Q1391.48 1522.85 1391.48 1531.6 Q1391.48 1540.33 1388.4 1544.94 Q1385.35 1549.52 1379.54 1549.52 Q1373.73 1549.52 1370.65 1544.94 Q1367.59 1540.33 1367.59 1531.6 Q1367.59 1522.85 1370.65 1518.27 Q1373.73 1513.66 1379.54 1513.66 Z" fill="#000000" fill-rule="evenodd" fill-opacity="1" /><path clip-path="url(#clip650)" d="M1409.7 1517.37 Q1406.09 1517.37 1404.26 1520.93 Q1402.45 1524.47 1402.45 1531.6 Q1402.45 1538.71 1404.26 1542.27 Q1406.09 1545.82 1409.7 1545.82 Q1413.33 1545.82 1415.14 1542.27 Q1416.97 1538.71 1416.97 1531.6 Q1416.97 1524.47 1415.14 1520.93 Q1413.33 1517.37 1409.7 1517.37 M1409.7 1513.66 Q1415.51 1513.66 1418.56 1518.27 Q1421.64 1522.85 1421.64 1531.6 Q1421.64 1540.33 1418.56 1544.94 Q1415.51 1549.52 1409.7 1549.52 Q1403.89 1549.52 1400.81 1544.94 Q1397.75 1540.33 1397.75 1531.6 Q1397.75 1522.85 1400.81 1518.27 Q1403.89 1513.66 1409.7 1513.66 Z" fill="#000000" fill-rule="evenodd" fill-opacity="1" /><path clip-path="url(#clip650)" d="M1729.61 1518.36 L1717.81 1536.81 L1729.61 1536.81 L1729.61 1518.36 M1728.39 1514.29 L1734.27 1514.29 L1734.27 1536.81 L1739.2 1536.81 L1739.2 1540.7 L1734.27 1540.7 L1734.27 1548.85 L1729.61 1548.85 L1729.61 1540.7 L1714.01 1540.7 L1714.01 1536.19 L1728.39 1514.29 Z" fill="#000000" fill-rule="evenodd" fill-opacity="1" /><path clip-path="url(#clip650)" d="M1756.93 1517.37 Q1753.32 1517.37 1751.49 1520.93 Q1749.68 1524.47 1749.68 1531.6 Q1749.68 1538.71 1751.49 1542.27 Q1753.32 1545.82 1756.93 1545.82 Q1760.56 1545.82 1762.37 1542.27 Q1764.2 1538.71 1764.2 1531.6 Q1764.2 1524.47 1762.37 1520.93 Q1760.56 1517.37 1756.93 1517.37 M1756.93 1513.66 Q1762.74 1513.66 1765.79 1518.27 Q1768.87 1522.85 1768.87 1531.6 Q1768.87 1540.33 1765.79 1544.94 Q1762.74 1549.52 1756.93 1549.52 Q1751.12 1549.52 1748.04 1544.94 Q1744.98 1540.33 1744.98 1531.6 Q1744.98 1522.85 1748.04 1518.27 Q1751.12 1513.66 1756.93 1513.66 Z" fill="#000000" fill-rule="evenodd" fill-opacity="1" /><path clip-path="url(#clip650)" d="M1787.09 1517.37 Q1783.48 1517.37 1781.65 1520.93 Q1779.84 1524.47 1779.84 1531.6 Q1779.84 1538.71 1781.65 1542.27 Q1783.48 1545.82 1787.09 1545.82 Q1790.72 1545.82 1792.53 1542.27 Q1794.36 1538.71 1794.36 1531.6 Q1794.36 1524.47 1792.53 1520.93 Q1790.72 1517.37 1787.09 1517.37 M1787.09 1513.66 Q1792.9 1513.66 1795.96 1518.27 Q1799.03 1522.85 1799.03 1531.6 Q1799.03 1540.33 1795.96 1544.94 Q1792.9 1549.52 1787.09 1549.52 Q1781.28 1549.52 1778.2 1544.94 Q1775.15 1540.33 1775.15 1531.6 Q1775.15 1522.85 1778.2 1518.27 Q1781.28 1513.66 1787.09 1513.66 Z" fill="#000000" fill-rule="evenodd" fill-opacity="1" /><path clip-path="url(#clip650)" d="M2092.88 1514.29 L2111.24 1514.29 L2111.24 1518.22 L2097.17 1518.22 L2097.17 1526.7 Q2098.18 1526.35 2099.2 1526.19 Q2100.22 1526 2101.24 1526 Q2107.03 1526 2110.41 1529.17 Q2113.79 1532.34 2113.79 1537.76 Q2113.79 1543.34 2110.31 1546.44 Q2106.84 1549.52 2100.52 1549.52 Q2098.35 1549.52 2096.08 1549.15 Q2093.83 1548.78 2091.43 1548.04 L2091.43 1543.34 Q2093.51 1544.47 2095.73 1545.03 Q2097.95 1545.58 2100.43 1545.58 Q2104.43 1545.58 2106.77 1543.48 Q2109.11 1541.37 2109.11 1537.76 Q2109.11 1534.15 2106.77 1532.04 Q2104.43 1529.94 2100.43 1529.94 Q2098.55 1529.94 2096.68 1530.35 Q2094.83 1530.77 2092.88 1531.65 L2092.88 1514.29 Z" fill="#000000" fill-rule="evenodd" fill-opacity="1" /><path clip-path="url(#clip650)" d="M2133 1517.37 Q2129.39 1517.37 2127.56 1520.93 Q2125.75 1524.47 2125.75 1531.6 Q2125.75 1538.71 2127.56 1542.27 Q2129.39 1545.82 2133 1545.82 Q2136.63 1545.82 2138.44 1542.27 Q2140.27 1538.71 2140.27 1531.6 Q2140.27 1524.47 2138.44 1520.93 Q2136.63 1517.37 2133 1517.37 M2133 1513.66 Q2138.81 1513.66 2141.86 1518.27 Q2144.94 1522.85 2144.94 1531.6 Q2144.94 1540.33 2141.86 1544.94 Q2138.81 1549.52 2133 1549.52 Q2127.19 1549.52 2124.11 1544.94 Q2121.05 1540.33 2121.05 1531.6 Q2121.05 1522.85 2124.11 1518.27 Q2127.19 1513.66 2133 1513.66 Z" fill="#000000" fill-rule="evenodd" fill-opacity="1" /><path clip-path="url(#clip650)" d="M2163.16 1517.37 Q2159.55 1517.37 2157.72 1520.93 Q2155.92 1524.47 2155.92 1531.6 Q2155.92 1538.71 2157.72 1542.27 Q2159.55 1545.82 2163.16 1545.82 Q2166.8 1545.82 2168.6 1542.27 Q2170.43 1538.71 2170.43 1531.6 Q2170.43 1524.47 2168.6 1520.93 Q2166.8 1517.37 2163.16 1517.37 M2163.16 1513.66 Q2168.97 1513.66 2172.03 1518.27 Q2175.11 1522.85 2175.11 1531.6 Q2175.11 1540.33 2172.03 1544.94 Q2168.97 1549.52 2163.16 1549.52 Q2157.35 1549.52 2154.27 1544.94 Q2151.22 1540.33 2151.22 1531.6 Q2151.22 1522.85 2154.27 1518.27 Q2157.35 1513.66 2163.16 1513.66 Z" fill="#000000" fill-rule="evenodd" fill-opacity="1" /><polyline clip-path="url(#clip652)" style="stroke:#000000; stroke-linecap:round; stroke-linejoin:round; stroke-width:2; stroke-opacity:0.1; fill:none" points="
  188.292,933.547 2352.76,933.547 
  "/>
<polyline clip-path="url(#clip652)" style="stroke:#000000; stroke-linecap:round; stroke-linejoin:round; stroke-width:2; stroke-opacity:0.1; fill:none" points="
  188.292,87.9763 2352.76,87.9763 
  "/>
<polyline clip-path="url(#clip650)" style="stroke:#000000; stroke-linecap:round; stroke-linejoin:round; stroke-width:4; stroke-opacity:1; fill:none" points="
  188.292,1486.45 188.292,47.2441 
  "/>
<polyline clip-path="url(#clip650)" style="stroke:#000000; stroke-linecap:round; stroke-linejoin:round; stroke-width:4; stroke-opacity:1; fill:none" points="
  188.292,933.547 207.19,933.547 
  "/>
<polyline clip-path="url(#clip650)" style="stroke:#000000; stroke-linecap:round; stroke-linejoin:round; stroke-width:4; stroke-opacity:1; fill:none" points="
  188.292,87.9763 207.19,87.9763 
  "/>
<path clip-path="url(#clip650)" d="M51.6634 953.34 L59.3023 953.34 L59.3023 926.974 L50.9921 928.641 L50.9921 924.381 L59.256 922.715 L63.9319 922.715 L63.9319 953.34 L71.5707 953.34 L71.5707 957.275 L51.6634 957.275 L51.6634 953.34 Z" fill="#000000" fill-rule="evenodd" fill-opacity="1" /><path clip-path="url(#clip650)" d="M91.0151 925.793 Q87.404 925.793 85.5753 929.358 Q83.7697 932.9 83.7697 940.029 Q83.7697 947.136 85.5753 950.701 Q87.404 954.242 91.0151 954.242 Q94.6493 954.242 96.4548 950.701 Q98.2835 947.136 98.2835 940.029 Q98.2835 932.9 96.4548 929.358 Q94.6493 925.793 91.0151 925.793 M91.0151 922.09 Q96.8252 922.09 99.8808 926.696 Q102.959 931.28 102.959 940.029 Q102.959 948.756 99.8808 953.363 Q96.8252 957.946 91.0151 957.946 Q85.2049 957.946 82.1262 953.363 Q79.0707 948.756 79.0707 940.029 Q79.0707 931.28 82.1262 926.696 Q85.2049 922.09 91.0151 922.09 Z" fill="#000000" fill-rule="evenodd" fill-opacity="1" /><path clip-path="url(#clip650)" d="M102.959 916.191 L127.071 916.191 L127.071 919.388 L102.959 919.388 L102.959 916.191 Z" fill="#000000" fill-rule="evenodd" fill-opacity="1" /><path clip-path="url(#clip650)" d="M135.309 901.784 L150.223 901.784 L150.223 904.982 L138.788 904.982 L138.788 911.865 Q139.616 911.583 140.443 911.452 Q141.271 911.301 142.098 911.301 Q146.8 911.301 149.546 913.878 Q152.292 916.454 152.292 920.855 Q152.292 925.388 149.471 927.908 Q146.65 930.41 141.515 930.41 Q139.747 930.41 137.904 930.109 Q136.08 929.808 134.124 929.206 L134.124 925.388 Q135.817 926.31 137.622 926.761 Q139.428 927.212 141.44 927.212 Q144.694 927.212 146.593 925.501 Q148.493 923.789 148.493 920.855 Q148.493 917.921 146.593 916.21 Q144.694 914.498 141.44 914.498 Q139.917 914.498 138.393 914.837 Q136.889 915.176 135.309 915.89 L135.309 901.784 Z" fill="#000000" fill-rule="evenodd" fill-opacity="1" /><path clip-path="url(#clip650)" d="M81.5866 107.769 L89.2254 107.769 L89.2254 81.4031 L80.9153 83.0698 L80.9153 78.8105 L89.1791 77.1439 L93.855 77.1439 L93.855 107.769 L101.494 107.769 L101.494 111.704 L81.5866 111.704 L81.5866 107.769 Z" fill="#000000" fill-rule="evenodd" fill-opacity="1" /><path clip-path="url(#clip650)" d="M120.938 80.2226 Q117.327 80.2226 115.498 83.7874 Q113.693 87.329 113.693 94.4586 Q113.693 101.565 115.498 105.13 Q117.327 108.671 120.938 108.671 Q124.572 108.671 126.378 105.13 Q128.207 101.565 128.207 94.4586 Q128.207 87.329 126.378 83.7874 Q124.572 80.2226 120.938 80.2226 M120.938 76.5189 Q126.748 76.5189 129.804 81.1253 Q132.883 85.7086 132.883 94.4586 Q132.883 103.185 129.804 107.792 Q126.748 112.375 120.938 112.375 Q115.128 112.375 112.049 107.792 Q108.994 103.185 108.994 94.4586 Q108.994 85.7086 112.049 81.1253 Q115.128 76.5189 120.938 76.5189 Z" fill="#000000" fill-rule="evenodd" fill-opacity="1" /><path clip-path="url(#clip650)" d="M142.587 58.7149 Q139.653 58.7149 138.168 61.6113 Q136.701 64.4889 136.701 70.2817 Q136.701 76.0557 138.168 78.9521 Q139.653 81.8297 142.587 81.8297 Q145.54 81.8297 147.007 78.9521 Q148.493 76.0557 148.493 70.2817 Q148.493 64.4889 147.007 61.6113 Q145.54 58.7149 142.587 58.7149 M142.587 55.7057 Q147.308 55.7057 149.791 59.4484 Q152.292 63.1724 152.292 70.2817 Q152.292 77.3722 149.791 81.115 Q147.308 84.8389 142.587 84.8389 Q137.867 84.8389 135.365 81.115 Q132.883 77.3722 132.883 70.2817 Q132.883 63.1724 135.365 59.4484 Q137.867 55.7057 142.587 55.7057 Z" fill="#000000" fill-rule="evenodd" fill-opacity="1" /><polyline clip-path="url(#clip652)" style="stroke:#009af9; stroke-linecap:round; stroke-linejoin:round; stroke-width:4; stroke-opacity:1; fill:none" points="
  249.551,87.9763 253.318,100.614 257.085,114.028 260.853,127 264.62,140.483 268.388,154.03 272.155,167.521 275.923,181.181 279.69,194.142 283.457,205.425 
  287.225,214.823 290.992,223.159 294.76,235.078 298.527,247.65 302.295,263.587 306.062,280.952 309.83,298.181 313.597,314.347 317.364,327.407 321.132,336.908 
  324.899,343.228 328.667,346.905 332.434,349.576 336.202,351.58 339.969,352.37 343.736,353.171 347.504,353.406 351.271,353.441 355.039,353.441 358.806,353.477 
  362.574,353.732 366.341,354.265 370.108,355.118 373.876,356.394 377.643,358.067 381.411,359.87 385.178,361.567 388.946,363.012 392.713,364.166 396.48,364.928 
  400.248,365.445 404.015,365.769 407.783,366.035 411.55,366.442 415.318,367.492 419.085,370.406 422.852,375.709 426.62,382.633 430.387,391.477 434.155,400.65 
  437.922,413.226 441.69,428.168 445.457,445.885 449.224,464.727 452.992,485.725 456.759,506.882 460.527,530.442 464.294,556.057 468.062,581.799 471.829,608.91 
  475.596,638.017 479.364,669.65 483.131,701.48 486.899,729.705 490.666,753.888 494.434,774.431 498.201,795.528 501.968,819.86 505.736,847.695 509.503,875.558 
  513.271,900.838 517.038,925.139 520.806,945.906 524.573,964.478 528.34,982.039 532.108,1000.64 535.875,1022.42 539.643,1047.7 543.41,1075.05 547.178,1101.09 
  550.945,1123.44 554.712,1143.63 558.48,1165.16 562.247,1189.41 566.015,1213.29 569.782,1237.81 573.55,1262.5 577.317,1285.38 581.084,1304.84 584.852,1326.5 
  588.619,1352.73 592.387,1381.79 596.154,1413.12 599.922,1445.72 
  "/>
<polyline clip-path="url(#clip652)" style="stroke:#e26f46; stroke-linecap:round; stroke-linejoin:round; stroke-width:4; stroke-opacity:1; fill:none" points="
  249.551,87.9763 253.318,93.6491 257.085,100.083 260.853,106.422 264.62,112.924 268.388,119.241 272.155,125.215 275.923,131.298 279.69,137.66 283.457,144.048 
  287.225,150.475 290.992,157.146 294.76,163.972 298.527,170.767 302.295,177.556 306.062,184.324 309.83,190.874 313.597,197.104 317.364,203.023 321.132,208.548 
  324.899,213.601 328.667,218.164 332.434,222.211 336.202,226.839 339.969,232.332 343.736,237.872 347.504,244.373 351.271,251.276 355.039,258.733 358.806,266.973 
  362.574,275.488 366.341,284.488 370.108,293.684 373.876,302.801 377.643,311.83 381.411,320.391 385.178,328.349 388.946,335.63 392.713,341.98 396.48,347.418 
  400.248,352.012 404.015,355.74 407.783,358.691 411.55,360.981 415.318,362.942 419.085,365.094 422.852,366.535 426.62,367.313 430.387,368.553 434.155,369.3 
  437.922,369.812 441.69,370.145 445.457,370.467 449.224,370.68 452.992,370.771 456.759,370.805 460.527,370.825 464.294,370.826 468.062,370.834 471.829,370.858 
  475.596,370.914 479.364,371.06 483.131,371.263 486.899,371.539 490.666,371.944 494.434,372.407 498.201,372.967 501.968,373.707 505.736,374.573 509.503,375.501 
  513.271,376.499 517.038,377.468 520.806,378.389 524.573,379.281 528.34,380.058 532.108,380.787 535.875,381.356 539.643,381.852 543.41,382.208 547.178,382.476 
  550.945,382.673 554.712,382.804 558.48,382.879 562.247,382.917 566.015,382.924 569.782,382.924 573.55,382.926 577.317,382.926 581.084,382.941 584.852,383.112 
  588.619,383.761 592.387,385.076 596.154,386.864 599.922,389.025 603.689,391.061 607.456,392.887 611.224,395.514 614.991,398.769 618.759,402.468 622.526,406.609 
  626.294,411.008 630.061,416.585 633.828,423.045 637.596,430.604 641.363,438.559 645.131,447.49 648.898,456.488 652.666,465.534 656.433,474.976 660.2,485.42 
  663.968,497.054 667.735,509.183 671.503,522.312 675.27,534.722 679.038,546.52 682.805,558.204 686.572,570.51 690.34,583.16 694.107,596.012 697.875,609.389 
  701.642,623.165 705.41,638.937 709.177,655.486 712.944,672.091 716.712,688.521 720.479,704.35 724.247,719.617 728.014,733.908 731.782,746.499 735.549,757.972 
  739.316,768.939 743.084,779.746 746.851,790.493 750.619,801.087 754.386,812.372 758.154,825.371 761.921,839.114 765.688,852.821 769.456,866.388 773.223,880.791 
  776.991,894.736 780.758,907.482 784.526,920.844 788.293,934.073 792.06,947.183 795.828,960.375 799.595,972.486 803.363,984.398 807.13,995.322 810.898,1005.51 
  814.665,1014.49 818.433,1023.56 822.2,1033.35 825.967,1044.59 829.735,1057.54 833.502,1071.76 837.27,1085.87 841.037,1099.97 844.805,1114.1 848.572,1128.67 
  852.339,1142.45 856.107,1155.01 859.874,1165.85 863.642,1175.89 867.409,1185.78 871.177,1195.94 874.944,1206.05 878.711,1216.27 882.479,1226.81 886.246,1237.6 
  890.014,1248.9 893.781,1260.41 897.549,1272.45 901.316,1284.4 905.083,1296.5 908.851,1308.46 912.618,1319.28 916.386,1329 920.153,1338.25 923.921,1346.99 
  927.688,1355.2 931.455,1363.49 935.223,1372.85 938.99,1382.85 942.758,1394.45 946.525,1409.05 950.293,1425.54 954.06,1443.03 
  "/>
<polyline clip-path="url(#clip652)" style="stroke:#3da44d; stroke-linecap:round; stroke-linejoin:round; stroke-width:4; stroke-opacity:1; fill:none" points="
  249.551,87.9763 253.318,91.5424 257.085,95.6032 260.853,99.6569 264.62,103.902 268.388,108.108 272.155,112.065 275.923,116.009 279.69,120.112 283.457,124.192 
  287.225,128.192 290.992,132.267 294.76,136.44 298.527,140.61 302.295,144.813 306.062,149.137 309.83,153.529 313.597,157.938 317.364,162.418 321.132,166.969 
  324.899,171.513 328.667,176.043 332.434,180.579 336.202,185.063 339.969,189.441 343.736,193.724 347.504,197.891 351.271,201.888 355.039,205.708 358.806,209.362 
  362.574,212.821 366.341,216.069 370.108,219.096 373.876,221.815 377.643,224.534 381.411,227.919 385.178,231.273 388.946,234.954 392.713,238.852 396.48,243.027 
  400.248,247.372 404.015,252.135 407.783,257.009 411.55,262.284 415.318,267.753 419.085,273.43 422.852,279.393 426.62,285.412 430.387,291.607 434.155,297.866 
  437.922,304.065 441.69,310.285 445.457,316.348 449.224,322.203 452.992,327.886 456.759,333.24 460.527,338.256 464.294,342.961 468.062,347.248 471.829,351.127 
  475.596,354.631 479.364,357.712 483.131,360.403 486.899,362.755 490.666,364.75 494.434,366.417 498.201,367.917 501.968,369.594 505.736,371.325 509.503,372.256 
  513.271,373.009 517.038,374.229 520.806,374.964 524.573,375.605 528.34,376.109 532.108,376.562 535.875,377.065 539.643,377.374 543.41,377.59 547.178,377.774 
  550.945,377.943 554.712,378.041 558.48,378.095 562.247,378.147 566.015,378.171 569.782,378.175 573.55,378.176 577.317,378.176 581.084,378.183 584.852,378.202 
  588.619,378.232 592.387,378.286 596.154,378.384 599.922,378.506 603.689,378.655 607.456,378.872 611.224,379.112 614.991,379.388 618.759,379.743 622.526,380.119 
  626.294,380.556 630.061,381.099 633.828,381.678 637.596,382.288 641.363,382.967 645.131,383.654 648.898,384.328 652.666,385.049 656.433,385.71 660.2,386.352 
  663.968,386.959 667.735,387.52 671.503,388.056 675.27,388.505 679.038,388.95 682.805,389.295 686.572,389.592 690.34,389.844 694.107,390.047 697.875,390.199 
  701.642,390.33 705.41,390.413 709.177,390.464 712.944,390.493 716.712,390.505 720.479,390.508 724.247,390.508 728.014,390.51 731.782,390.522 735.549,390.551 
  739.316,390.603 743.084,390.66 746.851,390.689 750.619,390.689 754.386,390.738 758.154,391.017 761.921,391.602 765.688,392.408 769.456,393.358 773.223,394.247 
  776.991,394.9 780.758,395.631 784.526,396.749 788.293,398.047 792.06,399.61 795.828,401.154 799.595,402.681 803.363,404.709 807.13,406.939 810.898,409.363 
  814.665,411.786 818.433,414.789 822.2,418.37 825.967,422.782 829.735,427.586 833.502,432.798 837.27,437.75 841.037,442.683 844.805,447.48 848.572,452.861 
  852.339,458.877 856.107,465.709 859.874,472.44 863.642,479.494 867.409,486.639 871.177,494.184 874.944,502.255 878.711,510.553 882.479,518.885 886.246,526.93 
  890.014,535.001 893.781,542.934 897.549,551.254 901.316,559.323 905.083,567.005 908.851,575.067 912.618,583.142 916.386,591.611 920.153,600.595 923.921,609.401 
  927.688,618.756 931.455,628.791 935.223,639.151 938.99,649.966 942.758,660.711 946.525,672.227 950.293,683.889 954.06,695.689 957.827,706.531 961.595,716.307 
  965.362,725.499 969.13,734.244 972.897,742.9 976.665,751.019 980.432,758.846 984.199,766.601 987.967,774.032 991.734,781.179 995.502,788.249 999.269,795.244 
  1003.04,802.296 1006.8,809.72 1010.57,817.737 1014.34,826.553 1018.11,835.384 1021.87,844.344 1025.64,853.395 1029.41,862.681 1033.18,871.782 1036.94,880.796 
  1040.71,890.13 1044.48,899.001 1048.25,907.467 1052.01,916.332 1055.78,925.002 1059.55,933.371 1063.32,942.214 1067.08,951.298 1070.85,961.018 1074.62,970.497 
  1078.39,979.27 1082.15,987.165 1085.92,994.111 1089.69,1000.51 1093.45,1006.65 1097.22,1013.33 1100.99,1020.09 1104.76,1026.75 1108.52,1033.24 1112.29,1040.37 
  1116.06,1048.04 1119.83,1056.68 1123.59,1065.81 1127.36,1075.63 1131.13,1085.25 1134.9,1094.57 1138.66,1104.1 1142.43,1114.92 1146.2,1125.87 1149.97,1136.23 
  1153.73,1145.76 1157.5,1155.15 1161.27,1164.12 1165.04,1172.51 1168.8,1180.35 1172.57,1187.83 1176.34,1195.46 1180.11,1202.93 1183.87,1210.17 1187.64,1217.44 
  1191.41,1224.76 1195.18,1232.01 1198.94,1239.59 1202.71,1247.15 1206.48,1254.8 1210.25,1262.64 1214.01,1270.82 1217.78,1279.76 1221.55,1288.71 1225.31,1297.59 
  1229.08,1306.48 1232.85,1315.72 1236.62,1324.79 1240.38,1333.55 1244.15,1342.19 1247.92,1350.8 1251.69,1358.92 1255.45,1366.33 1259.22,1372.97 1262.99,1379.27 
  1266.76,1385.11 1270.52,1390.54 1274.29,1395.48 1278.06,1399.85 1281.83,1404.1 1285.59,1408.71 1289.36,1413.69 1293.13,1419.24 1296.9,1425.77 1300.66,1433.68 
  1304.43,1442.44 
  "/>
<polyline clip-path="url(#clip652)" style="stroke:#c271d2; stroke-linecap:round; stroke-linejoin:round; stroke-width:4; stroke-opacity:1; fill:none" points="
  249.551,87.9763 253.318,90.5591 257.085,93.4828 260.853,96.4028 264.62,99.4887 268.388,102.59 272.155,105.528 275.923,108.436 279.69,111.477 283.457,114.527 
  287.225,117.501 290.992,120.491 294.76,123.543 298.527,126.576 302.295,129.587 306.062,132.652 309.83,135.757 313.597,138.855 317.364,141.985 321.132,145.18 
  324.899,148.4 328.667,151.636 332.434,154.929 336.202,158.269 339.969,161.616 343.736,164.99 347.504,168.402 351.271,171.815 355.039,175.215 358.806,178.622 
  362.574,182.014 366.341,185.356 370.108,188.659 373.876,191.92 377.643,195.104 381.411,198.206 385.178,201.235 388.946,204.171 392.713,206.997 396.48,209.723 
  400.248,212.347 404.015,214.855 407.783,217.25 411.55,219.519 415.318,221.585 419.085,223.525 422.852,225.812 426.62,228.332 430.387,230.746 434.155,233.535 
  437.922,236.264 441.69,239.264 445.457,242.277 449.224,245.57 452.992,248.896 456.759,252.449 460.527,256.136 464.294,259.956 468.062,263.982 471.829,268.069 
  475.596,272.371 479.364,276.757 483.131,281.223 486.899,285.849 490.666,290.477 494.434,295.18 498.201,299.929 501.968,304.63 505.736,309.354 509.503,314.014 
  513.271,318.576 517.038,323.085 520.806,327.441 524.573,331.644 528.34,335.723 532.108,339.589 535.875,343.254 539.643,346.738 543.41,349.978 547.178,352.993 
  550.945,355.804 554.712,358.374 558.48,360.722 562.247,362.861 566.015,364.777 569.782,366.488 573.55,368.008 577.317,369.332 581.084,370.532 584.852,371.822 
  588.619,373.379 592.387,374.618 596.154,375.265 599.922,376.061 603.689,377.142 607.456,377.777 611.224,378.452 614.991,378.965 618.759,379.432 622.526,380.039 
  626.294,380.421 630.061,380.755 633.828,381.013 637.596,381.342 641.363,381.561 645.131,381.738 648.898,381.877 652.666,382.021 656.433,382.11 660.2,382.168 
  663.968,382.224 667.735,382.266 671.503,382.286 675.27,382.295 679.038,382.304 682.805,382.305 686.572,382.305 690.34,382.306 694.107,382.31 697.875,382.325 
  701.642,382.347 705.41,382.377 709.177,382.429 712.944,382.497 716.712,382.58 720.479,382.683 724.247,382.822 728.014,382.978 731.782,383.15 735.549,383.372 
  739.316,383.605 743.084,383.853 746.851,384.155 750.619,384.468 754.386,384.821 758.154,385.249 761.921,385.691 765.688,386.155 769.456,386.671 773.223,387.189 
  776.991,387.704 780.758,388.261 784.526,388.796 788.293,389.32 792.06,389.865 795.828,390.364 799.595,390.875 803.363,391.333 807.13,391.788 810.898,392.208 
  814.665,392.58 818.433,392.956 822.2,393.272 825.967,393.562 829.735,393.822 833.502,394.046 837.27,394.228 841.037,394.4 844.805,394.533 848.572,394.641 
  852.339,394.729 856.107,394.791 859.874,394.833 863.642,394.863 867.409,394.881 871.177,394.889 874.944,394.893 878.711,394.893 882.479,394.895 886.246,394.901 
  890.014,394.916 893.781,394.941 897.549,394.978 901.316,395.035 905.083,395.116 908.851,395.215 912.618,395.304 916.386,395.356 920.153,395.361 923.921,395.384 
  927.688,395.539 931.455,395.889 935.223,396.36 938.99,396.897 942.758,397.396 946.525,397.745 950.293,398.048 954.06,398.508 957.827,399.128 961.595,399.823 
  965.362,400.608 969.13,401.278 972.897,402.043 976.665,403.141 980.432,404.345 984.199,405.611 987.967,406.76 991.734,407.994 995.502,409.369 999.269,410.985 
  1003.04,412.801 1006.8,414.933 1010.57,417.575 1014.34,420.517 1018.11,423.549 1021.87,426.533 1025.64,429.777 1029.41,433.077 1033.18,436.569 1036.94,440.2 
  1040.71,443.978 1044.48,447.831 1048.25,451.858 1052.01,456.101 1055.78,460.687 1059.55,465.683 1063.32,470.691 1067.08,475.978 1070.85,481.379 1074.62,487.119 
  1078.39,492.917 1082.15,498.928 1085.92,504.76 1089.69,510.561 1093.45,516.581 1097.22,522.847 1100.99,529.185 1104.76,535.153 1108.52,541.192 1112.29,547.099 
  1116.06,552.96 1119.83,559.036 1123.59,565.118 1127.36,570.955 1131.13,576.858 1134.9,583.287 1138.66,589.571 1142.43,596.198 1146.2,602.989 1149.97,609.321 
  1153.73,616.363 1157.5,623.469 1161.27,630.734 1165.04,638.523 1168.8,646.423 1172.57,655.217 1176.34,664.08 1180.11,673.233 1183.87,681.864 1187.64,690.224 
  1191.41,698.464 1195.18,706.309 1198.94,713.808 1202.71,720.982 1206.48,727.91 1210.25,734.67 1214.01,741.236 1217.78,747.356 1221.55,753.382 1225.31,759.228 
  1229.08,765.088 1232.85,770.698 1236.62,776.129 1240.38,781.602 1244.15,787.046 1247.92,792.376 1251.69,797.55 1255.45,802.582 1259.22,807.858 1262.99,813.993 
  1266.76,820.634 1270.52,827.283 1274.29,833.433 1278.06,839.767 1281.83,846.498 1285.59,853.347 1289.36,860.041 1293.13,866.967 1296.9,874.24 1300.66,881.233 
  1304.43,887.998 1308.2,894.786 1311.97,901.242 1315.73,907.134 1319.5,913.187 1323.27,919.301 1327.04,925.726 1330.8,932.75 1334.57,939.853 1338.34,947.521 
  1342.11,955.079 1345.87,962.236 1349.64,968.806 1353.41,974.867 1357.17,980.956 1360.94,986.596 1364.71,992.106 1368.48,997.276 1372.24,1002.4 1376.01,1007.4 
  1379.78,1012.18 1383.55,1017.02 1387.31,1021.99 1391.08,1026.96 1394.85,1031.91 1398.62,1037.12 1402.38,1042.72 1406.15,1048.81 1409.92,1055.19 1413.69,1062.05 
  1417.45,1069.05 1421.22,1076.16 1424.99,1083.21 1428.76,1090.49 1432.52,1097.9 1436.29,1105.38 1440.06,1113.07 1443.83,1121.05 1447.59,1129.24 1451.36,1137.44 
  1455.13,1145.13 1458.9,1152.32 1462.66,1159.44 1466.43,1166.26 1470.2,1172.82 1473.97,1179.07 1477.73,1185.2 1481.5,1191.01 1485.27,1196.84 1489.03,1202.69 
  1492.8,1208.4 1496.57,1214.09 1500.34,1219.7 1504.1,1225.3 1507.87,1231.11 1511.64,1236.87 1515.41,1242.4 1519.17,1248.13 1522.94,1253.93 1526.71,1260 
  1530.48,1266.15 1534.24,1272.5 1538.01,1279.34 1541.78,1286.38 1545.55,1293.54 1549.31,1300.58 1553.08,1307.89 1556.85,1315.18 1560.62,1322.59 1564.38,1330.03 
  1568.15,1337.5 1571.92,1345.13 1575.69,1352.97 1579.45,1360.84 1583.22,1368.78 1586.99,1376.5 1590.76,1383.86 1594.52,1390.78 1598.29,1397.28 1602.06,1403.58 
  1605.83,1409.63 1609.59,1415.41 1613.36,1420.43 1617.13,1424.65 1620.9,1428.42 1624.66,1431.96 1628.43,1435.17 1632.2,1438.11 1635.96,1441.11 
  "/>
<polyline clip-path="url(#clip652)" style="stroke:#ac8d18; stroke-linecap:round; stroke-linejoin:round; stroke-width:4; stroke-opacity:1; fill:none" points="
  249.551,87.9763 253.318,89.9958 257.085,92.2662 260.853,94.5265 264.62,96.9222 268.388,99.3494 272.155,101.662 275.923,103.94 279.69,106.329 283.457,108.754 
  287.225,111.124 290.992,113.494 294.76,115.918 298.527,118.333 302.295,120.715 306.062,123.123 309.83,125.558 313.597,127.977 317.364,130.395 321.132,132.852 
  324.899,135.321 328.667,137.787 332.434,140.283 336.202,142.815 339.969,145.355 343.736,147.911 347.504,150.51 351.271,153.13 355.039,155.758 358.806,158.418 
  362.574,161.109 366.341,163.803 370.108,166.508 373.876,169.238 377.643,171.969 381.411,174.691 385.178,177.418 388.946,180.141 392.713,182.837 396.48,185.512 
  400.248,188.17 404.015,190.789 407.783,193.362 411.55,195.9 415.318,198.389 419.085,200.816 422.852,203.187 426.62,205.502 430.387,207.747 434.155,209.922 
  437.922,212.035 441.69,214.077 445.457,216.043 449.224,217.941 452.992,219.757 456.759,221.43 460.527,222.963 464.294,224.635 468.062,226.607 471.829,228.472 
  475.596,230.505 479.364,232.648 483.131,234.789 486.899,237.091 490.666,239.434 494.434,241.897 498.201,244.424 501.968,247.06 505.736,249.818 509.503,252.612 
  513.271,255.584 517.038,258.589 520.806,261.738 524.573,264.956 528.34,268.265 532.108,271.701 535.875,275.151 539.643,278.734 543.41,282.369 547.178,286.027 
  550.945,289.784 554.712,293.539 558.48,297.328 562.247,301.15 566.015,304.94 569.782,308.75 573.55,312.524 577.317,316.239 581.084,319.945 584.852,323.565 
  588.619,327.101 592.387,330.588 596.154,333.951 599.922,337.201 603.689,340.363 607.456,343.381 611.224,346.269 614.991,349.041 618.759,351.657 622.526,354.13 
  626.294,356.465 630.061,358.645 633.828,360.686 637.596,362.592 641.363,364.351 645.131,365.977 648.898,367.47 652.666,368.822 656.433,370.049 660.2,371.153 
  663.968,372.156 667.735,373.185 671.503,374.445 675.27,375.779 679.038,376.595 682.805,377.138 686.572,378.002 690.34,378.887 694.107,379.45 697.875,380.119 
  701.642,380.574 705.41,381.047 709.177,381.666 712.944,382.056 716.712,382.439 720.479,382.728 724.247,383.12 728.014,383.409 731.782,383.672 735.549,383.861 
  739.316,384.089 743.084,384.259 746.851,384.402 750.619,384.511 754.386,384.637 758.154,384.723 761.921,384.784 765.688,384.836 769.456,384.885 773.223,384.914 
  776.991,384.932 780.758,384.95 784.526,384.96 788.293,384.962 792.06,384.963 795.828,384.964 799.595,384.964 803.363,384.967 807.13,384.971 810.898,384.979 
  814.665,384.998 818.433,385.02 822.2,385.048 825.967,385.094 829.735,385.146 833.502,385.208 837.27,385.292 841.037,385.389 844.805,385.498 848.572,385.623 
  852.339,385.772 856.107,385.933 859.874,386.105 863.642,386.312 867.409,386.525 871.177,386.746 874.944,387.008 878.711,387.276 882.479,387.576 886.246,387.933 
  890.014,388.289 893.781,388.662 897.549,389.079 901.316,389.488 905.083,389.9 908.851,390.352 912.618,390.793 916.386,391.223 920.153,391.687 923.921,392.119 
  927.688,392.551 931.455,392.981 935.223,393.389 938.99,393.808 942.758,394.175 946.525,394.566 950.293,394.907 954.06,395.23 957.827,395.55 961.595,395.837 
  965.362,396.101 969.13,396.353 972.897,396.575 976.665,396.766 980.432,396.949 984.199,397.104 987.967,397.239 991.734,397.361 995.502,397.461 999.269,397.54 
  1003.04,397.606 1006.8,397.658 1010.57,397.695 1014.34,397.726 1018.11,397.746 1021.87,397.757 1025.64,397.762 1029.41,397.764 1033.18,397.764 1036.94,397.764 
  1040.71,397.766 1044.48,397.773 1048.25,397.787 1052.01,397.81 1055.78,397.848 1059.55,397.895 1063.32,397.953 1067.08,398.03 1070.85,398.122 1074.62,398.233 
  1078.39,398.356 1082.15,398.461 1085.92,398.514 1089.69,398.522 1093.45,398.537 1097.22,398.647 1100.99,398.88 1104.76,399.2 1108.52,399.551 1112.29,399.869 
  1116.06,400.088 1119.83,400.259 1123.59,400.487 1127.36,400.829 1131.13,401.228 1134.9,401.654 1138.66,402.041 1142.43,402.381 1146.2,402.859 1149.97,403.523 
  1153.73,404.265 1157.5,405.041 1161.27,405.741 1165.04,406.501 1168.8,407.332 1172.57,408.231 1176.34,409.106 1180.11,410.028 1183.87,411.188 1187.64,412.508 
  1191.41,413.99 1195.18,415.528 1198.94,417.321 1202.71,419.204 1206.48,421.328 1210.25,423.498 1214.01,425.886 1217.78,428.4 1221.55,431.009 1225.31,433.46 
  1229.08,436.097 1232.85,438.813 1236.62,441.755 1240.38,444.809 1244.15,448.085 1247.92,451.319 1251.69,454.699 1255.45,458.116 1259.22,461.85 1262.99,465.8 
  1266.76,469.924 1270.52,474.084 1274.29,478.282 1278.06,482.675 1281.83,487.188 1285.59,491.915 1289.36,496.606 1293.13,501.301 1296.9,505.803 1300.66,510.555 
  1304.43,515.515 1308.2,520.526 1311.97,525.522 1315.73,530.275 1319.5,535.046 1323.27,539.91 1327.04,544.832 1330.8,549.514 1334.57,554.239 1338.34,558.963 
  1342.11,563.53 1345.87,568.471 1349.64,573.423 1353.41,578.204 1357.17,583.285 1360.94,588.484 1364.71,593.593 1368.48,598.902 1372.24,604.08 1376.01,609.178 
  1379.78,614.648 1383.55,620.169 1387.31,626.017 1391.08,632.029 1394.85,638.316 1398.62,645.091 1402.38,651.916 1406.15,658.951 1409.92,665.894 1413.69,672.999 
  1417.45,679.984 1421.22,687.116 1424.99,693.766 1428.76,700.166 1432.52,706.393 1436.29,712.369 1440.06,718.166 1443.83,723.725 1447.59,729.337 1451.36,734.74 
  1455.13,740.096 1458.9,745.194 1462.66,750.035 1466.43,754.783 1470.2,759.632 1473.97,764.215 1477.73,768.733 1481.5,773.131 1485.27,777.524 1489.03,781.918 
  1492.8,786.276 1496.57,790.547 1500.34,794.686 1504.1,798.775 1507.87,802.849 1511.64,807.054 1515.41,811.669 1519.17,817.013 1522.94,822.305 1526.71,827.243 
  1530.48,831.933 1534.24,837.02 1538.01,842.441 1541.78,847.74 1545.55,852.931 1549.31,858.501 1553.08,864.418 1556.85,870.164 1560.62,875.887 1564.38,881.565 
  1568.15,887.03 1571.92,892.102 1575.69,897.073 1579.45,901.738 1583.22,906.273 1586.99,911.193 1590.76,916.193 1594.52,921.533 1598.29,927.22 1602.06,933.03 
  1605.83,938.995 1609.59,944.755 1613.36,950.549 1617.13,956.263 1620.9,961.771 1624.66,967.196 1628.43,972.365 1632.2,977.424 1635.96,982.021 1639.73,986.415 
  1643.5,990.74 1647.27,995.033 1651.03,999.369 1654.8,1003.47 1658.57,1007.5 1662.34,1011.37 1666.1,1015.25 1669.87,1018.98 1673.64,1022.88 1677.41,1026.94 
  1681.17,1031.06 1684.94,1035.19 1688.71,1039.48 1692.48,1044.02 1696.24,1048.96 1700.01,1054.1 1703.78,1059.5 1707.55,1065 1711.31,1070.6 1715.08,1076.34 
  1718.85,1082.11 1722.62,1087.81 1726.38,1093.64 1730.15,1099.51 1733.92,1105.56 1737.69,1111.8 1741.45,1118.4 1745.22,1124.89 1748.99,1131.34 1752.76,1137.71 
  1756.52,1143.98 1760.29,1150.04 1764.06,1155.98 1767.82,1161.59 1771.59,1167.1 1775.36,1172.42 1779.13,1177.49 1782.89,1182.54 1786.66,1187.49 1790.43,1192.19 
  1794.2,1196.86 1797.96,1201.76 1801.73,1206.41 1805.5,1210.93 1809.27,1215.55 1813.03,1220.17 1816.8,1224.8 1820.57,1229.34 1824.34,1233.8 1828.1,1238.4 
  1831.87,1242.94 1835.64,1247.45 1839.41,1252.16 1843.17,1256.85 1846.94,1261.72 1850.71,1266.73 1854.48,1272.01 1858.24,1277.41 1862.01,1282.91 1865.78,1288.64 
  1869.55,1294.4 1873.31,1300.34 1877.08,1306.09 1880.85,1311.99 1884.62,1318.08 1888.38,1324.24 1892.15,1330.42 1895.92,1336.64 1899.68,1342.99 1903.45,1349.59 
  1907.22,1356.31 1910.99,1363.1 1914.75,1370.15 1918.52,1377.35 1922.29,1384.55 1926.06,1391.44 1929.82,1398.18 1933.59,1404.54 1937.36,1410.92 1941.13,1417.33 
  1944.89,1423.85 1948.66,1430 1952.43,1435.54 1956.2,1440.42 1959.96,1444.93 
  "/>
<polyline clip-path="url(#clip652)" style="stroke:#00a9ad; stroke-linecap:round; stroke-linejoin:round; stroke-width:4; stroke-opacity:1; fill:none" points="
  249.551,87.9763 253.318,89.6324 257.085,91.4827 260.853,93.3176 264.62,95.2627 268.388,97.242 272.155,99.1361 275.923,100.993 279.69,102.941 283.457,104.937 
  287.225,106.898 290.992,108.851 294.76,110.855 298.527,112.863 302.295,114.841 306.062,116.831 309.83,118.849 313.597,120.853 317.364,122.844 321.132,124.86 
  324.899,126.885 328.667,128.897 332.434,130.92 336.202,132.969 339.969,135.018 343.736,137.068 347.504,139.145 351.271,141.24 355.039,143.335 358.806,145.451 
  362.574,147.596 366.341,149.747 370.108,151.909 373.876,154.1 377.643,156.306 381.411,158.516 385.178,160.747 388.946,162.999 392.713,165.251 396.48,167.509 
  400.248,169.784 404.015,172.06 407.783,174.329 411.55,176.603 415.318,178.876 419.085,181.131 422.852,183.375 426.62,185.612 430.387,187.826 434.155,190.012 
  437.922,192.18 441.69,194.32 445.457,196.421 449.224,198.489 452.992,200.526 456.759,202.517 460.527,204.464 464.294,206.374 468.062,208.236 471.829,210.047 
  475.596,211.814 479.364,213.535 483.131,215.202 486.899,216.821 490.666,218.395 494.434,219.906 498.201,221.317 501.968,222.603 505.736,223.911 509.503,225.465 
  513.271,227.043 517.038,228.592 520.806,230.353 524.573,232.027 528.34,233.854 532.108,235.679 535.875,237.614 539.643,239.55 543.41,241.616 547.178,243.68 
  550.945,245.871 554.712,248.067 558.48,250.397 562.247,252.738 566.015,255.182 569.782,257.697 573.55,260.251 577.317,262.916 581.084,265.601 584.852,268.391 
  588.619,271.219 592.387,274.098 596.154,277.07 599.922,280.04 603.689,283.089 607.456,286.178 611.224,289.272 614.991,292.43 618.759,295.586 622.526,298.76 
  626.294,301.96 630.061,305.129 633.828,308.319 637.596,311.492 641.363,314.621 645.131,317.755 648.898,320.839 652.666,323.865 656.433,326.872 660.2,329.804 
  663.968,332.667 667.735,335.484 671.503,338.211 675.27,340.859 679.038,343.435 682.805,345.908 686.572,348.295 690.34,350.593 694.107,352.782 697.875,354.882 
  701.642,356.885 705.41,358.774 709.177,360.57 712.944,362.268 716.712,363.857 720.479,365.359 724.247,366.769 728.014,368.076 731.782,369.295 735.549,370.423 
  739.316,371.453 743.084,372.396 746.851,373.265 750.619,374.121 754.386,375.12 758.154,376.343 761.921,377.348 765.688,377.906 769.456,378.46 773.223,379.342 
  776.991,380.033 780.758,380.566 784.526,381.191 788.293,381.58 792.06,382.073 795.828,382.657 799.595,383.032 803.363,383.43 807.13,383.728 810.898,384.132 
  814.665,384.458 818.433,384.758 822.2,384.984 825.967,385.239 829.735,385.472 833.502,385.671 837.27,385.824 841.037,386 844.805,386.148 848.572,386.268 
  852.339,386.356 856.107,386.461 859.874,386.541 863.642,386.603 867.409,386.653 871.177,386.706 874.944,386.741 878.711,386.763 882.479,386.785 886.246,386.803 
  890.014,386.812 893.781,386.817 897.549,386.823 901.316,386.824 905.083,386.824 908.851,386.824 912.618,386.824 916.386,386.827 920.153,386.832 923.921,386.837 
  927.688,386.85 931.455,386.869 935.223,386.89 938.99,386.916 942.758,386.956 946.525,387 950.293,387.049 954.06,387.118 957.827,387.192 961.595,387.272 
  965.362,387.371 969.13,387.479 972.897,387.597 976.665,387.728 980.432,387.877 984.199,388.036 987.967,388.198 991.734,388.385 995.502,388.577 999.269,388.775 
  1003.04,389.007 1006.8,389.248 1010.57,389.511 1014.34,389.812 1018.11,390.108 1021.87,390.42 1025.64,390.768 1029.41,391.107 1033.18,391.454 1036.94,391.833 
  1040.71,392.199 1044.48,392.559 1048.25,392.951 1052.01,393.323 1055.78,393.695 1059.55,394.086 1063.32,394.447 1067.08,394.819 1070.85,395.168 1074.62,395.519 
  1078.39,395.866 1082.15,396.177 1085.92,396.517 1089.69,396.808 1093.45,397.095 1097.22,397.371 1100.99,397.632 1104.76,397.867 1108.52,398.106 1112.29,398.316 
  1116.06,398.508 1119.83,398.689 1123.59,398.851 1127.36,398.995 1131.13,399.133 1134.9,399.252 1138.66,399.355 1142.43,399.446 1146.2,399.523 1149.97,399.585 
  1153.73,399.641 1157.5,399.686 1161.27,399.722 1165.04,399.749 1168.8,399.769 1172.57,399.781 1176.34,399.789 1180.11,399.793 1183.87,399.795 1187.64,399.796 
  1191.41,399.796 1195.18,399.797 1198.94,399.801 1202.71,399.809 1206.48,399.822 1210.25,399.839 1214.01,399.864 1217.78,399.902 1221.55,399.952 1225.31,400.014 
  1229.08,400.094 1232.85,400.18 1236.62,400.278 1240.38,400.396 1244.15,400.522 1247.92,400.649 1251.69,400.754 1255.45,400.807 1259.22,400.813 1262.99,400.824 
  1266.76,400.912 1270.52,401.086 1274.29,401.317 1278.06,401.568 1281.83,401.789 1285.59,401.939 1289.36,402.047 1293.13,402.186 1296.9,402.394 1300.66,402.651 
  1304.43,402.931 1308.2,403.18 1311.97,403.377 1315.73,403.604 1319.5,403.944 1323.27,404.371 1327.04,404.853 1330.8,405.32 1334.57,405.77 1338.34,406.313 
  1342.11,406.919 1345.87,407.549 1349.64,408.111 1353.41,408.676 1357.17,409.341 1360.94,410.068 1364.71,410.874 1368.48,411.689 1372.24,412.629 1376.01,413.639 
  1379.78,414.762 1383.55,415.889 1387.31,417.149 1391.08,418.655 1394.85,420.322 1398.62,422.043 1402.38,423.835 1406.15,425.66 1409.92,427.511 1413.69,429.455 
  1417.45,431.482 1421.22,433.683 1424.99,435.986 1428.76,438.268 1432.52,440.575 1436.29,442.991 1440.06,445.557 1443.83,448.211 1447.59,450.988 1451.36,453.785 
  1455.13,456.648 1458.9,459.527 1462.66,462.686 1466.43,465.932 1470.2,469.333 1473.97,472.705 1477.73,476.145 1481.5,479.672 1485.27,483.451 1489.03,487.307 
  1492.8,491.181 1496.57,495.082 1500.34,498.837 1504.1,502.746 1507.87,506.75 1511.64,510.828 1515.41,514.82 1519.17,518.879 1522.94,522.927 1526.71,526.959 
  1530.48,531.105 1534.24,535.181 1538.01,539.162 1541.78,542.971 1545.55,546.965 1549.31,551.051 1553.08,554.937 1556.85,558.807 1560.62,562.755 1564.38,566.744 
  1568.15,570.818 1571.92,575.151 1575.69,579.251 1579.45,583.285 1583.22,587.729 1586.99,591.935 1590.76,596.183 1594.52,600.511 1598.29,604.555 1602.06,608.97 
  1605.83,613.534 1609.59,618.148 1613.36,622.976 1617.13,627.806 1620.9,633.098 1624.66,638.447 1628.43,643.969 1632.2,649.515 1635.96,655.099 1639.73,661.176 
  1643.5,667.142 1647.27,673.295 1651.03,679.055 1654.8,684.808 1658.57,690.435 1662.34,695.896 1666.1,701.169 1669.87,706.25 1673.64,711.302 1677.41,716.293 
  1681.17,721.102 1684.94,725.697 1688.71,730.322 1692.48,734.839 1696.24,739.392 1700.01,743.661 1703.78,747.814 1707.55,751.817 1711.31,755.884 1715.08,759.834 
  1718.85,763.64 1722.62,767.351 1726.38,771.142 1730.15,774.796 1733.92,778.481 1737.69,782.132 1741.45,785.731 1745.22,789.355 1748.99,792.901 1752.76,796.277 
  1756.52,799.575 1760.29,802.981 1764.06,806.498 1767.82,810.291 1771.59,814.451 1775.36,818.989 1779.13,823.19 1782.89,827.124 1786.66,831.064 1790.43,835.298 
  1794.2,839.655 1797.96,843.916 1801.73,848.235 1805.5,852.884 1809.27,857.722 1813.03,862.444 1816.8,867.391 1820.57,872.349 1824.34,877.119 1828.1,881.689 
  1831.87,886.157 1835.64,890.275 1839.41,894.145 1843.17,898.119 1846.94,901.938 1850.71,905.819 1854.48,910.005 1858.24,914.394 1862.01,918.959 1865.78,923.555 
  1869.55,928.156 1873.31,932.931 1877.08,937.732 1880.85,942.512 1884.62,947.388 1888.38,952.297 1892.15,957.265 1895.92,961.942 1899.68,966.32 1903.45,970.476 
  1907.22,974.529 1910.99,978.56 1914.75,982.436 1918.52,986.36 1922.29,990.157 1926.06,993.742 1929.82,997.174 1933.59,1000.63 1937.36,1004.01 1941.13,1007.39 
  1944.89,1010.7 1948.66,1013.94 1952.43,1017.14 1956.2,1020.27 1959.96,1023.56 1963.73,1026.91 1967.5,1030.37 1971.27,1033.77 1975.03,1037.29 1978.8,1040.96 
  1982.57,1044.94 1986.34,1049.07 1990.1,1053.32 1993.87,1057.65 1997.64,1062.21 2001.41,1066.81 2005.17,1071.68 2008.94,1076.5 2012.71,1081.26 2016.48,1085.94 
  2020.24,1090.66 2024.01,1095.49 2027.78,1100.65 2031.54,1105.84 2035.31,1111.03 2039.08,1116.2 2042.85,1121.65 2046.61,1127.25 2050.38,1132.72 2054.15,1137.96 
  2057.92,1143.15 2061.68,1148.3 2065.45,1153.3 2069.22,1158.2 2072.99,1162.99 2076.75,1167.53 2080.52,1171.87 2084.29,1176.34 2088.06,1180.64 2091.82,1184.77 
  2095.59,1188.82 2099.36,1192.78 2103.13,1196.73 2106.89,1200.84 2110.66,1204.78 2114.43,1208.56 2118.2,1212.53 2121.96,1216.42 2125.73,1220.24 2129.5,1224.06 
  2133.27,1227.79 2137.03,1231.52 2140.8,1235.33 2144.57,1239.15 2148.34,1242.95 2152.1,1246.66 2155.87,1250.51 2159.64,1254.49 2163.4,1258.42 2167.17,1262.48 
  2170.94,1266.59 2174.71,1271.01 2178.47,1275.53 2182.24,1280.1 2186.01,1284.75 2189.78,1289.43 2193.54,1294.39 2197.31,1299.22 2201.08,1304.07 2204.85,1309 
  2208.61,1314.08 2212.38,1319.17 2216.15,1324.3 2219.92,1329.48 2223.68,1334.75 2227.45,1340.13 2231.22,1345.61 2234.99,1351.25 2238.75,1356.95 2242.52,1362.86 
  2246.29,1368.94 2250.06,1375.29 2253.82,1381.54 2257.59,1387.97 2261.36,1394.28 2265.13,1400.53 2268.89,1406.38 2272.66,1412.16 2276.43,1418.14 2280.2,1424.5 
  2283.96,1430.85 2287.73,1436.9 2291.5,1442.38 
  "/>
<path clip-path="url(#clip650)" d="
M1871.18 458.098 L2280.61 458.098 L2280.61 95.2176 L1871.18 95.2176  Z
  " fill="#ffffff" fill-rule="evenodd" fill-opacity="1"/>
<polyline clip-path="url(#clip650)" style="stroke:#000000; stroke-linecap:round; stroke-linejoin:round; stroke-width:4; stroke-opacity:1; fill:none" points="
  1871.18,458.098 2280.61,458.098 2280.61,95.2176 1871.18,95.2176 1871.18,458.098 
  "/>
<polyline clip-path="url(#clip650)" style="stroke:#009af9; stroke-linecap:round; stroke-linejoin:round; stroke-width:4; stroke-opacity:1; fill:none" points="
  1895.23,147.058 2039.52,147.058 
  "/>
<path clip-path="url(#clip650)" d="M2083.92 143.389 Q2085.52 140.518 2087.74 139.153 Q2089.96 137.787 2092.97 137.787 Q2097.02 137.787 2099.22 140.634 Q2101.42 143.458 2101.42 148.689 L2101.42 164.338 L2097.14 164.338 L2097.14 148.828 Q2097.14 145.102 2095.82 143.296 Q2094.5 141.49 2091.79 141.49 Q2088.48 141.49 2086.56 143.69 Q2084.64 145.889 2084.64 149.685 L2084.64 164.338 L2080.36 164.338 L2080.36 148.828 Q2080.36 145.078 2079.04 143.296 Q2077.72 141.49 2074.96 141.49 Q2071.7 141.49 2069.78 143.713 Q2067.86 145.912 2067.86 149.685 L2067.86 164.338 L2063.57 164.338 L2063.57 138.412 L2067.86 138.412 L2067.86 142.44 Q2069.31 140.055 2071.35 138.921 Q2073.39 137.787 2076.19 137.787 Q2079.01 137.787 2080.98 139.222 Q2082.97 140.657 2083.92 143.389 Z" fill="#000000" fill-rule="evenodd" fill-opacity="1" /><path clip-path="url(#clip650)" d="M2110.47 142.81 L2140.15 142.81 L2140.15 146.699 L2110.47 146.699 L2110.47 142.81 M2110.47 152.254 L2140.15 152.254 L2140.15 156.189 L2110.47 156.189 L2110.47 152.254 Z" fill="#000000" fill-rule="evenodd" fill-opacity="1" /><path clip-path="url(#clip650)" d="M2154.27 160.402 L2170.59 160.402 L2170.59 164.338 L2148.64 164.338 L2148.64 160.402 Q2151.3 157.648 2155.89 153.018 Q2160.49 148.365 2161.67 147.023 Q2163.92 144.5 2164.8 142.764 Q2165.7 141.004 2165.7 139.315 Q2165.7 136.56 2163.76 134.824 Q2161.84 133.088 2158.74 133.088 Q2156.54 133.088 2154.08 133.852 Q2151.65 134.615 2148.87 136.166 L2148.87 131.444 Q2151.7 130.31 2154.15 129.731 Q2156.61 129.153 2158.64 129.153 Q2164.01 129.153 2167.21 131.838 Q2170.4 134.523 2170.4 139.014 Q2170.4 141.143 2169.59 143.065 Q2168.8 144.963 2166.7 147.555 Q2166.12 148.227 2163.02 151.444 Q2159.92 154.639 2154.27 160.402 Z" fill="#000000" fill-rule="evenodd" fill-opacity="1" /><path clip-path="url(#clip650)" d="M2190.4 132.856 Q2186.79 132.856 2184.96 136.421 Q2183.16 139.963 2183.16 147.092 Q2183.16 154.199 2184.96 157.764 Q2186.79 161.305 2190.4 161.305 Q2194.04 161.305 2195.84 157.764 Q2197.67 154.199 2197.67 147.092 Q2197.67 139.963 2195.84 136.421 Q2194.04 132.856 2190.4 132.856 M2190.4 129.153 Q2196.21 129.153 2199.27 133.759 Q2202.35 138.342 2202.35 147.092 Q2202.35 155.819 2199.27 160.426 Q2196.21 165.009 2190.4 165.009 Q2184.59 165.009 2181.51 160.426 Q2178.46 155.819 2178.46 147.092 Q2178.46 138.342 2181.51 133.759 Q2184.59 129.153 2190.4 129.153 Z" fill="#000000" fill-rule="evenodd" fill-opacity="1" /><polyline clip-path="url(#clip650)" style="stroke:#e26f46; stroke-linecap:round; stroke-linejoin:round; stroke-width:4; stroke-opacity:1; fill:none" points="
  1895.23,198.898 2039.52,198.898 
  "/>
<path clip-path="url(#clip650)" d="M2083.92 195.229 Q2085.52 192.358 2087.74 190.993 Q2089.96 189.627 2092.97 189.627 Q2097.02 189.627 2099.22 192.474 Q2101.42 195.298 2101.42 200.529 L2101.42 216.178 L2097.14 216.178 L2097.14 200.668 Q2097.14 196.942 2095.82 195.136 Q2094.5 193.33 2091.79 193.33 Q2088.48 193.33 2086.56 195.53 Q2084.64 197.729 2084.64 201.525 L2084.64 216.178 L2080.36 216.178 L2080.36 200.668 Q2080.36 196.918 2079.04 195.136 Q2077.72 193.33 2074.96 193.33 Q2071.7 193.33 2069.78 195.553 Q2067.86 197.752 2067.86 201.525 L2067.86 216.178 L2063.57 216.178 L2063.57 190.252 L2067.86 190.252 L2067.86 194.28 Q2069.31 191.895 2071.35 190.761 Q2073.39 189.627 2076.19 189.627 Q2079.01 189.627 2080.98 191.062 Q2082.97 192.497 2083.92 195.229 Z" fill="#000000" fill-rule="evenodd" fill-opacity="1" /><path clip-path="url(#clip650)" d="M2110.47 194.65 L2140.15 194.65 L2140.15 198.539 L2110.47 198.539 L2110.47 194.65 M2110.47 204.094 L2140.15 204.094 L2140.15 208.029 L2110.47 208.029 L2110.47 204.094 Z" fill="#000000" fill-rule="evenodd" fill-opacity="1" /><path clip-path="url(#clip650)" d="M2163.09 185.692 L2151.28 204.141 L2163.09 204.141 L2163.09 185.692 M2161.86 181.618 L2167.74 181.618 L2167.74 204.141 L2172.67 204.141 L2172.67 208.029 L2167.74 208.029 L2167.74 216.178 L2163.09 216.178 L2163.09 208.029 L2147.49 208.029 L2147.49 203.516 L2161.86 181.618 Z" fill="#000000" fill-rule="evenodd" fill-opacity="1" /><path clip-path="url(#clip650)" d="M2190.4 184.696 Q2186.79 184.696 2184.96 188.261 Q2183.16 191.803 2183.16 198.932 Q2183.16 206.039 2184.96 209.604 Q2186.79 213.145 2190.4 213.145 Q2194.04 213.145 2195.84 209.604 Q2197.67 206.039 2197.67 198.932 Q2197.67 191.803 2195.84 188.261 Q2194.04 184.696 2190.4 184.696 M2190.4 180.993 Q2196.21 180.993 2199.27 185.599 Q2202.35 190.182 2202.35 198.932 Q2202.35 207.659 2199.27 212.266 Q2196.21 216.849 2190.4 216.849 Q2184.59 216.849 2181.51 212.266 Q2178.46 207.659 2178.46 198.932 Q2178.46 190.182 2181.51 185.599 Q2184.59 180.993 2190.4 180.993 Z" fill="#000000" fill-rule="evenodd" fill-opacity="1" /><polyline clip-path="url(#clip650)" style="stroke:#3da44d; stroke-linecap:round; stroke-linejoin:round; stroke-width:4; stroke-opacity:1; fill:none" points="
  1895.23,250.738 2039.52,250.738 
  "/>
<path clip-path="url(#clip650)" d="M2083.92 247.069 Q2085.52 244.198 2087.74 242.833 Q2089.96 241.467 2092.97 241.467 Q2097.02 241.467 2099.22 244.314 Q2101.42 247.138 2101.42 252.369 L2101.42 268.018 L2097.14 268.018 L2097.14 252.508 Q2097.14 248.782 2095.82 246.976 Q2094.5 245.17 2091.79 245.17 Q2088.48 245.17 2086.56 247.37 Q2084.64 249.569 2084.64 253.365 L2084.64 268.018 L2080.36 268.018 L2080.36 252.508 Q2080.36 248.758 2079.04 246.976 Q2077.72 245.17 2074.96 245.17 Q2071.7 245.17 2069.78 247.393 Q2067.86 249.592 2067.86 253.365 L2067.86 268.018 L2063.57 268.018 L2063.57 242.092 L2067.86 242.092 L2067.86 246.12 Q2069.31 243.735 2071.35 242.601 Q2073.39 241.467 2076.19 241.467 Q2079.01 241.467 2080.98 242.902 Q2082.97 244.337 2083.92 247.069 Z" fill="#000000" fill-rule="evenodd" fill-opacity="1" /><path clip-path="url(#clip650)" d="M2110.47 246.49 L2140.15 246.49 L2140.15 250.379 L2110.47 250.379 L2110.47 246.49 M2110.47 255.934 L2140.15 255.934 L2140.15 259.869 L2110.47 259.869 L2110.47 255.934 Z" fill="#000000" fill-rule="evenodd" fill-opacity="1" /><path clip-path="url(#clip650)" d="M2160.82 248.874 Q2157.67 248.874 2155.82 251.027 Q2153.99 253.18 2153.99 256.93 Q2153.99 260.656 2155.82 262.832 Q2157.67 264.985 2160.82 264.985 Q2163.97 264.985 2165.8 262.832 Q2167.65 260.656 2167.65 256.93 Q2167.65 253.18 2165.8 251.027 Q2163.97 248.874 2160.82 248.874 M2170.1 234.221 L2170.1 238.481 Q2168.34 237.647 2166.54 237.208 Q2164.75 236.768 2162.99 236.768 Q2158.36 236.768 2155.91 239.893 Q2153.48 243.018 2153.13 249.337 Q2154.5 247.323 2156.56 246.258 Q2158.62 245.17 2161.1 245.17 Q2166.3 245.17 2169.31 248.342 Q2172.35 251.49 2172.35 256.93 Q2172.35 262.254 2169.2 265.471 Q2166.05 268.689 2160.82 268.689 Q2154.82 268.689 2151.65 264.106 Q2148.48 259.499 2148.48 250.772 Q2148.48 242.578 2152.37 237.717 Q2156.26 232.833 2162.81 232.833 Q2164.57 232.833 2166.35 233.18 Q2168.16 233.527 2170.1 234.221 Z" fill="#000000" fill-rule="evenodd" fill-opacity="1" /><path clip-path="url(#clip650)" d="M2190.4 236.536 Q2186.79 236.536 2184.96 240.101 Q2183.16 243.643 2183.16 250.772 Q2183.16 257.879 2184.96 261.444 Q2186.79 264.985 2190.4 264.985 Q2194.04 264.985 2195.84 261.444 Q2197.67 257.879 2197.67 250.772 Q2197.67 243.643 2195.84 240.101 Q2194.04 236.536 2190.4 236.536 M2190.4 232.833 Q2196.21 232.833 2199.27 237.439 Q2202.35 242.022 2202.35 250.772 Q2202.35 259.499 2199.27 264.106 Q2196.21 268.689 2190.4 268.689 Q2184.59 268.689 2181.51 264.106 Q2178.46 259.499 2178.46 250.772 Q2178.46 242.022 2181.51 237.439 Q2184.59 232.833 2190.4 232.833 Z" fill="#000000" fill-rule="evenodd" fill-opacity="1" /><polyline clip-path="url(#clip650)" style="stroke:#c271d2; stroke-linecap:round; stroke-linejoin:round; stroke-width:4; stroke-opacity:1; fill:none" points="
  1895.23,302.578 2039.52,302.578 
  "/>
<path clip-path="url(#clip650)" d="M2083.92 298.909 Q2085.52 296.038 2087.74 294.673 Q2089.96 293.307 2092.97 293.307 Q2097.02 293.307 2099.22 296.154 Q2101.42 298.978 2101.42 304.209 L2101.42 319.858 L2097.14 319.858 L2097.14 304.348 Q2097.14 300.622 2095.82 298.816 Q2094.5 297.01 2091.79 297.01 Q2088.48 297.01 2086.56 299.21 Q2084.64 301.409 2084.64 305.205 L2084.64 319.858 L2080.36 319.858 L2080.36 304.348 Q2080.36 300.598 2079.04 298.816 Q2077.72 297.01 2074.96 297.01 Q2071.7 297.01 2069.78 299.233 Q2067.86 301.432 2067.86 305.205 L2067.86 319.858 L2063.57 319.858 L2063.57 293.932 L2067.86 293.932 L2067.86 297.96 Q2069.31 295.575 2071.35 294.441 Q2073.39 293.307 2076.19 293.307 Q2079.01 293.307 2080.98 294.742 Q2082.97 296.177 2083.92 298.909 Z" fill="#000000" fill-rule="evenodd" fill-opacity="1" /><path clip-path="url(#clip650)" d="M2110.47 298.33 L2140.15 298.33 L2140.15 302.219 L2110.47 302.219 L2110.47 298.33 M2110.47 307.774 L2140.15 307.774 L2140.15 311.709 L2110.47 311.709 L2110.47 307.774 Z" fill="#000000" fill-rule="evenodd" fill-opacity="1" /><path clip-path="url(#clip650)" d="M2160.24 303.446 Q2156.91 303.446 2154.99 305.228 Q2153.09 307.01 2153.09 310.135 Q2153.09 313.26 2154.99 315.043 Q2156.91 316.825 2160.24 316.825 Q2163.57 316.825 2165.49 315.043 Q2167.42 313.237 2167.42 310.135 Q2167.42 307.01 2165.49 305.228 Q2163.6 303.446 2160.24 303.446 M2155.56 301.455 Q2152.55 300.714 2150.86 298.654 Q2149.2 296.594 2149.2 293.631 Q2149.2 289.487 2152.14 287.08 Q2155.1 284.673 2160.24 284.673 Q2165.4 284.673 2168.34 287.08 Q2171.28 289.487 2171.28 293.631 Q2171.28 296.594 2169.59 298.654 Q2167.92 300.714 2164.94 301.455 Q2168.32 302.242 2170.19 304.534 Q2172.09 306.825 2172.09 310.135 Q2172.09 315.159 2169.01 317.844 Q2165.96 320.529 2160.24 320.529 Q2154.52 320.529 2151.44 317.844 Q2148.39 315.159 2148.39 310.135 Q2148.39 306.825 2150.29 304.534 Q2152.18 302.242 2155.56 301.455 M2153.85 294.071 Q2153.85 296.756 2155.52 298.26 Q2157.21 299.765 2160.24 299.765 Q2163.25 299.765 2164.94 298.26 Q2166.65 296.756 2166.65 294.071 Q2166.65 291.385 2164.94 289.881 Q2163.25 288.376 2160.24 288.376 Q2157.21 288.376 2155.52 289.881 Q2153.85 291.385 2153.85 294.071 Z" fill="#000000" fill-rule="evenodd" fill-opacity="1" /><path clip-path="url(#clip650)" d="M2190.4 288.376 Q2186.79 288.376 2184.96 291.941 Q2183.16 295.483 2183.16 302.612 Q2183.16 309.719 2184.96 313.284 Q2186.79 316.825 2190.4 316.825 Q2194.04 316.825 2195.84 313.284 Q2197.67 309.719 2197.67 302.612 Q2197.67 295.483 2195.84 291.941 Q2194.04 288.376 2190.4 288.376 M2190.4 284.673 Q2196.21 284.673 2199.27 289.279 Q2202.35 293.862 2202.35 302.612 Q2202.35 311.339 2199.27 315.946 Q2196.21 320.529 2190.4 320.529 Q2184.59 320.529 2181.51 315.946 Q2178.46 311.339 2178.46 302.612 Q2178.46 293.862 2181.51 289.279 Q2184.59 284.673 2190.4 284.673 Z" fill="#000000" fill-rule="evenodd" fill-opacity="1" /><polyline clip-path="url(#clip650)" style="stroke:#ac8d18; stroke-linecap:round; stroke-linejoin:round; stroke-width:4; stroke-opacity:1; fill:none" points="
  1895.23,354.418 2039.52,354.418 
  "/>
<path clip-path="url(#clip650)" d="M2083.92 350.749 Q2085.52 347.878 2087.74 346.513 Q2089.96 345.147 2092.97 345.147 Q2097.02 345.147 2099.22 347.994 Q2101.42 350.818 2101.42 356.049 L2101.42 371.698 L2097.14 371.698 L2097.14 356.188 Q2097.14 352.462 2095.82 350.656 Q2094.5 348.85 2091.79 348.85 Q2088.48 348.85 2086.56 351.05 Q2084.64 353.249 2084.64 357.045 L2084.64 371.698 L2080.36 371.698 L2080.36 356.188 Q2080.36 352.438 2079.04 350.656 Q2077.72 348.85 2074.96 348.85 Q2071.7 348.85 2069.78 351.073 Q2067.86 353.272 2067.86 357.045 L2067.86 371.698 L2063.57 371.698 L2063.57 345.772 L2067.86 345.772 L2067.86 349.8 Q2069.31 347.415 2071.35 346.281 Q2073.39 345.147 2076.19 345.147 Q2079.01 345.147 2080.98 346.582 Q2082.97 348.017 2083.92 350.749 Z" fill="#000000" fill-rule="evenodd" fill-opacity="1" /><path clip-path="url(#clip650)" d="M2110.47 350.17 L2140.15 350.17 L2140.15 354.059 L2110.47 354.059 L2110.47 350.17 M2110.47 359.614 L2140.15 359.614 L2140.15 363.549 L2110.47 363.549 L2110.47 359.614 Z" fill="#000000" fill-rule="evenodd" fill-opacity="1" /><path clip-path="url(#clip650)" d="M2151.05 367.762 L2158.69 367.762 L2158.69 341.397 L2150.38 343.063 L2150.38 338.804 L2158.64 337.138 L2163.32 337.138 L2163.32 367.762 L2170.96 367.762 L2170.96 371.698 L2151.05 371.698 L2151.05 367.762 Z" fill="#000000" fill-rule="evenodd" fill-opacity="1" /><path clip-path="url(#clip650)" d="M2190.4 340.216 Q2186.79 340.216 2184.96 343.781 Q2183.16 347.323 2183.16 354.452 Q2183.16 361.559 2184.96 365.124 Q2186.79 368.665 2190.4 368.665 Q2194.04 368.665 2195.84 365.124 Q2197.67 361.559 2197.67 354.452 Q2197.67 347.323 2195.84 343.781 Q2194.04 340.216 2190.4 340.216 M2190.4 336.513 Q2196.21 336.513 2199.27 341.119 Q2202.35 345.702 2202.35 354.452 Q2202.35 363.179 2199.27 367.786 Q2196.21 372.369 2190.4 372.369 Q2184.59 372.369 2181.51 367.786 Q2178.46 363.179 2178.46 354.452 Q2178.46 345.702 2181.51 341.119 Q2184.59 336.513 2190.4 336.513 Z" fill="#000000" fill-rule="evenodd" fill-opacity="1" /><path clip-path="url(#clip650)" d="M2220.56 340.216 Q2216.95 340.216 2215.12 343.781 Q2213.32 347.323 2213.32 354.452 Q2213.32 361.559 2215.12 365.124 Q2216.95 368.665 2220.56 368.665 Q2224.2 368.665 2226 365.124 Q2227.83 361.559 2227.83 354.452 Q2227.83 347.323 2226 343.781 Q2224.2 340.216 2220.56 340.216 M2220.56 336.513 Q2226.37 336.513 2229.43 341.119 Q2232.51 345.702 2232.51 354.452 Q2232.51 363.179 2229.43 367.786 Q2226.37 372.369 2220.56 372.369 Q2214.75 372.369 2211.67 367.786 Q2208.62 363.179 2208.62 354.452 Q2208.62 345.702 2211.67 341.119 Q2214.75 336.513 2220.56 336.513 Z" fill="#000000" fill-rule="evenodd" fill-opacity="1" /><polyline clip-path="url(#clip650)" style="stroke:#00a9ad; stroke-linecap:round; stroke-linejoin:round; stroke-width:4; stroke-opacity:1; fill:none" points="
  1895.23,406.258 2039.52,406.258 
  "/>
<path clip-path="url(#clip650)" d="M2083.92 402.589 Q2085.52 399.718 2087.74 398.353 Q2089.96 396.987 2092.97 396.987 Q2097.02 396.987 2099.22 399.834 Q2101.42 402.658 2101.42 407.889 L2101.42 423.538 L2097.14 423.538 L2097.14 408.028 Q2097.14 404.302 2095.82 402.496 Q2094.5 400.69 2091.79 400.69 Q2088.48 400.69 2086.56 402.89 Q2084.64 405.089 2084.64 408.885 L2084.64 423.538 L2080.36 423.538 L2080.36 408.028 Q2080.36 404.278 2079.04 402.496 Q2077.72 400.69 2074.96 400.69 Q2071.7 400.69 2069.78 402.913 Q2067.86 405.112 2067.86 408.885 L2067.86 423.538 L2063.57 423.538 L2063.57 397.612 L2067.86 397.612 L2067.86 401.64 Q2069.31 399.255 2071.35 398.121 Q2073.39 396.987 2076.19 396.987 Q2079.01 396.987 2080.98 398.422 Q2082.97 399.857 2083.92 402.589 Z" fill="#000000" fill-rule="evenodd" fill-opacity="1" /><path clip-path="url(#clip650)" d="M2110.47 402.01 L2140.15 402.01 L2140.15 405.899 L2110.47 405.899 L2110.47 402.01 M2110.47 411.454 L2140.15 411.454 L2140.15 415.389 L2110.47 415.389 L2110.47 411.454 Z" fill="#000000" fill-rule="evenodd" fill-opacity="1" /><path clip-path="url(#clip650)" d="M2151.05 419.602 L2158.69 419.602 L2158.69 393.237 L2150.38 394.903 L2150.38 390.644 L2158.64 388.978 L2163.32 388.978 L2163.32 419.602 L2170.96 419.602 L2170.96 423.538 L2151.05 423.538 L2151.05 419.602 Z" fill="#000000" fill-rule="evenodd" fill-opacity="1" /><path clip-path="url(#clip650)" d="M2184.43 419.602 L2200.75 419.602 L2200.75 423.538 L2178.8 423.538 L2178.8 419.602 Q2181.47 416.848 2186.05 412.218 Q2190.66 407.565 2191.84 406.223 Q2194.08 403.7 2194.96 401.964 Q2195.86 400.204 2195.86 398.515 Q2195.86 395.76 2193.92 394.024 Q2192 392.288 2188.9 392.288 Q2186.7 392.288 2184.24 393.052 Q2181.81 393.815 2179.04 395.366 L2179.04 390.644 Q2181.86 389.51 2184.31 388.931 Q2186.77 388.353 2188.8 388.353 Q2194.17 388.353 2197.37 391.038 Q2200.56 393.723 2200.56 398.214 Q2200.56 400.343 2199.75 402.265 Q2198.97 404.163 2196.86 406.755 Q2196.28 407.427 2193.18 410.644 Q2190.08 413.839 2184.43 419.602 Z" fill="#000000" fill-rule="evenodd" fill-opacity="1" /><path clip-path="url(#clip650)" d="M2220.56 392.056 Q2216.95 392.056 2215.12 395.621 Q2213.32 399.163 2213.32 406.292 Q2213.32 413.399 2215.12 416.964 Q2216.95 420.505 2220.56 420.505 Q2224.2 420.505 2226 416.964 Q2227.83 413.399 2227.83 406.292 Q2227.83 399.163 2226 395.621 Q2224.2 392.056 2220.56 392.056 M2220.56 388.353 Q2226.37 388.353 2229.43 392.959 Q2232.51 397.542 2232.51 406.292 Q2232.51 415.019 2229.43 419.626 Q2226.37 424.209 2220.56 424.209 Q2214.75 424.209 2211.67 419.626 Q2208.62 415.019 2208.62 406.292 Q2208.62 397.542 2211.67 392.959 Q2214.75 388.353 2220.56 388.353 Z" fill="#000000" fill-rule="evenodd" fill-opacity="1" /></svg>
