<?xml version="1.0" encoding="utf-8"?>
<svg xmlns="http://www.w3.org/2000/svg" xmlns:xlink="http://www.w3.org/1999/xlink" width="600" height="400" viewBox="0 0 2400 1600">
<defs>
  <clipPath id="clip780">
    <rect x="0" y="0" width="2400" height="1600"/>
  </clipPath>
</defs>
<path clip-path="url(#clip780)" d="
M0 1600 L2400 1600 L2400 0 L0 0  Z
  " fill="#ffffff" fill-rule="evenodd" fill-opacity="1"/>
<defs>
  <clipPath id="clip781">
    <rect x="480" y="0" width="1681" height="1600"/>
  </clipPath>
</defs>
<path clip-path="url(#clip780)" d="
M180.66 1487.47 L2352.76 1487.47 L2352.76 47.2441 L180.66 47.2441  Z
  " fill="#ffffff" fill-rule="evenodd" fill-opacity="1"/>
<defs>
  <clipPath id="clip782">
    <rect x="180" y="47" width="2173" height="1441"/>
  </clipPath>
</defs>
<polyline clip-path="url(#clip782)" style="stroke:#000000; stroke-linecap:butt; stroke-linejoin:round; stroke-width:2; stroke-opacity:0.1; fill:none" points="
  242.135,1487.47 242.135,47.2441 
  "/>
<polyline clip-path="url(#clip782)" style="stroke:#000000; stroke-linecap:butt; stroke-linejoin:round; stroke-width:2; stroke-opacity:0.1; fill:none" points="
  754.421,1487.47 754.421,47.2441 
  "/>
<polyline clip-path="url(#clip782)" style="stroke:#000000; stroke-linecap:butt; stroke-linejoin:round; stroke-width:2; stroke-opacity:0.1; fill:none" points="
  1266.71,1487.47 1266.71,47.2441 
  "/>
<polyline clip-path="url(#clip782)" style="stroke:#000000; stroke-linecap:butt; stroke-linejoin:round; stroke-width:2; stroke-opacity:0.1; fill:none" points="
  1778.99,1487.47 1778.99,47.2441 
  "/>
<polyline clip-path="url(#clip782)" style="stroke:#000000; stroke-linecap:butt; stroke-linejoin:round; stroke-width:2; stroke-opacity:0.1; fill:none" points="
  2291.28,1487.47 2291.28,47.2441 
  "/>
<polyline clip-path="url(#clip780)" style="stroke:#000000; stroke-linecap:butt; stroke-linejoin:round; stroke-width:4; stroke-opacity:1; fill:none" points="
  180.66,1487.47 2352.76,1487.47 
  "/>
<polyline clip-path="url(#clip780)" style="stroke:#000000; stroke-linecap:butt; stroke-linejoin:round; stroke-width:4; stroke-opacity:1; fill:none" points="
  242.135,1487.47 242.135,1468.58 
  "/>
<polyline clip-path="url(#clip780)" style="stroke:#000000; stroke-linecap:butt; stroke-linejoin:round; stroke-width:4; stroke-opacity:1; fill:none" points="
  754.421,1487.47 754.421,1468.58 
  "/>
<polyline clip-path="url(#clip780)" style="stroke:#000000; stroke-linecap:butt; stroke-linejoin:round; stroke-width:4; stroke-opacity:1; fill:none" points="
  1266.71,1487.47 1266.71,1468.58 
  "/>
<polyline clip-path="url(#clip780)" style="stroke:#000000; stroke-linecap:butt; stroke-linejoin:round; stroke-width:4; stroke-opacity:1; fill:none" points="
  1778.99,1487.47 1778.99,1468.58 
  "/>
<polyline clip-path="url(#clip780)" style="stroke:#000000; stroke-linecap:butt; stroke-linejoin:round; stroke-width:4; stroke-opacity:1; fill:none" points="
  2291.28,1487.47 2291.28,1468.58 
  "/>
<g clip-path="url(#clip780)">
<text style="fill:#000000; fill-opacity:1; font-family:Arial,Helvetica Neue,Helvetica,sans-serif; font-size:48px; text-anchor:middle;" transform="rotate(0, 242.135, 1549.32)" x="242.135" y="1549.32">−1.0</text>
</g>
<g clip-path="url(#clip780)">
<text style="fill:#000000; fill-opacity:1; font-family:Arial,Helvetica Neue,Helvetica,sans-serif; font-size:48px; text-anchor:middle;" transform="rotate(0, 754.421, 1549.32)" x="754.421" y="1549.32">−0.5</text>
</g>
<g clip-path="url(#clip780)">
<text style="fill:#000000; fill-opacity:1; font-family:Arial,Helvetica Neue,Helvetica,sans-serif; font-size:48px; text-anchor:middle;" transform="rotate(0, 1266.71, 1549.32)" x="1266.71" y="1549.32">0.0</text>
</g>
<g clip-path="url(#clip780)">
<text style="fill:#000000; fill-opacity:1; font-family:Arial,Helvetica Neue,Helvetica,sans-serif; font-size:48px; text-anchor:middle;" transform="rotate(0, 1778.99, 1549.32)" x="1778.99" y="1549.32">0.5</text>
</g>
<g clip-path="url(#clip780)">
<text style="fill:#000000; fill-opacity:1; font-family:Arial,Helvetica Neue,Helvetica,sans-serif; font-size:48px; text-anchor:middle;" transform="rotate(0, 2291.28, 1549.32)" x="2291.28" y="1549.32">1.0</text>
</g>
<polyline clip-path="url(#clip782)" style="stroke:#000000; stroke-linecap:butt; stroke-linejoin:round; stroke-width:2; stroke-opacity:0.1; fill:none" points="
  180.66,1446.71 2352.76,1446.71 
  "/>
<polyline clip-path="url(#clip782)" style="stroke:#000000; stroke-linecap:butt; stroke-linejoin:round; stroke-width:2; stroke-opacity:0.1; fill:none" points="
  180.66,1191.96 2352.76,1191.96 
  "/>
<polyline clip-path="url(#clip782)" style="stroke:#000000; stroke-linecap:butt; stroke-linejoin:round; stroke-width:2; stroke-opacity:0.1; fill:none" points="
  180.66,937.198 2352.76,937.198 
  "/>
<polyline clip-path="url(#clip782)" style="stroke:#000000; stroke-linecap:butt; stroke-linejoin:round; stroke-width:2; stroke-opacity:0.1; fill:none" points="
  180.66,682.44 2352.76,682.44 
  "/>
<polyline clip-path="url(#clip782)" style="stroke:#000000; stroke-linecap:butt; stroke-linejoin:round; stroke-width:2; stroke-opacity:0.1; fill:none" points="
  180.66,427.682 2352.76,427.682 
  "/>
<polyline clip-path="url(#clip782)" style="stroke:#000000; stroke-linecap:butt; stroke-linejoin:round; stroke-width:2; stroke-opacity:0.1; fill:none" points="
  180.66,172.925 2352.76,172.925 
  "/>
<polyline clip-path="url(#clip780)" style="stroke:#000000; stroke-linecap:butt; stroke-linejoin:round; stroke-width:4; stroke-opacity:1; fill:none" points="
  180.66,1487.47 180.66,47.2441 
  "/>
<polyline clip-path="url(#clip780)" style="stroke:#000000; stroke-linecap:butt; stroke-linejoin:round; stroke-width:4; stroke-opacity:1; fill:none" points="
  180.66,1446.71 199.558,1446.71 
  "/>
<polyline clip-path="url(#clip780)" style="stroke:#000000; stroke-linecap:butt; stroke-linejoin:round; stroke-width:4; stroke-opacity:1; fill:none" points="
  180.66,1191.96 199.558,1191.96 
  "/>
<polyline clip-path="url(#clip780)" style="stroke:#000000; stroke-linecap:butt; stroke-linejoin:round; stroke-width:4; stroke-opacity:1; fill:none" points="
  180.66,937.198 199.558,937.198 
  "/>
<polyline clip-path="url(#clip780)" style="stroke:#000000; stroke-linecap:butt; stroke-linejoin:round; stroke-width:4; stroke-opacity:1; fill:none" points="
  180.66,682.44 199.558,682.44 
  "/>
<polyline clip-path="url(#clip780)" style="stroke:#000000; stroke-linecap:butt; stroke-linejoin:round; stroke-width:4; stroke-opacity:1; fill:none" points="
  180.66,427.682 199.558,427.682 
  "/>
<polyline clip-path="url(#clip780)" style="stroke:#000000; stroke-linecap:butt; stroke-linejoin:round; stroke-width:4; stroke-opacity:1; fill:none" points="
  180.66,172.925 199.558,172.925 
  "/>
<g clip-path="url(#clip780)">
<text style="fill:#000000; fill-opacity:1; font-family:Arial,Helvetica Neue,Helvetica,sans-serif; font-size:48px; text-anchor:middle;" transform="rotate(0, 97.8262, 1464.21)" x="97.8262" y="1464.21">−1.0</text>
</g>
<g clip-path="url(#clip780)">
<text style="fill:#000000; fill-opacity:1; font-family:Arial,Helvetica Neue,Helvetica,sans-serif; font-size:48px; text-anchor:middle;" transform="rotate(0, 97.8262, 1209.46)" x="97.8262" y="1209.46">−0.5</text>
</g>
<g clip-path="url(#clip780)">
<text style="fill:#000000; fill-opacity:1; font-family:Arial,Helvetica Neue,Helvetica,sans-serif; font-size:48px; text-anchor:middle;" transform="rotate(0, 111.207, 954.698)" x="111.207" y="954.698">0.0</text>
</g>
<g clip-path="url(#clip780)">
<text style="fill:#000000; fill-opacity:1; font-family:Arial,Helvetica Neue,Helvetica,sans-serif; font-size:48px; text-anchor:middle;" transform="rotate(0, 111.207, 699.94)" x="111.207" y="699.94">0.5</text>
</g>
<g clip-path="url(#clip780)">
<text style="fill:#000000; fill-opacity:1; font-family:Arial,Helvetica Neue,Helvetica,sans-serif; font-size:48px; text-anchor:middle;" transform="rotate(0, 111.207, 445.182)" x="111.207" y="445.182">1.0</text>
</g>
<g clip-path="url(#clip780)">
<text style="fill:#000000; fill-opacity:1; font-family:Arial,Helvetica Neue,Helvetica,sans-serif; font-size:48px; text-anchor:middle;" transform="rotate(0, 111.207, 190.425)" x="111.207" y="190.425">1.5</text>
</g>
<polyline clip-path="url(#clip782)" style="stroke:#009af9; stroke-linecap:butt; stroke-linejoin:round; stroke-width:8; stroke-opacity:1; fill:none" points="
  242.135,427.682 262.626,430.904 283.118,434.191 303.609,437.545 324.101,440.966 344.592,444.456 365.084,448.017 385.575,451.65 406.066,455.356 426.558,459.137 
  447.049,462.994 467.541,466.929 488.032,470.944 508.524,475.04 529.015,479.218 549.507,483.481 569.998,487.831 590.49,492.268 610.981,496.794 631.473,501.412 
  651.964,506.124 672.456,510.93 692.947,515.834 713.438,520.837 733.93,525.941 754.421,531.147 774.913,536.46 795.404,541.879 815.896,547.408 836.387,553.048 
  856.879,558.803 877.37,564.674 897.862,570.663 918.353,576.774 938.845,583.007 959.336,589.367 979.828,595.856 1000.32,602.475 1020.81,609.228 1041.3,616.117 
  1061.79,623.146 1082.28,630.317 1102.78,637.632 1123.27,645.096 1143.76,652.71 1164.25,660.478 1184.74,668.402 1205.23,676.487 1225.73,684.736 1246.22,693.15 
  1266.71,701.735 1287.2,710.494 1307.69,719.429 1328.18,728.545 1348.67,737.845 1369.17,747.332 1389.66,757.012 1410.15,766.887 1430.64,776.961 1451.13,787.24 
  1471.62,797.725 1492.11,808.423 1512.61,819.336 1533.1,830.47 1553.59,841.829 1574.08,853.418 1594.57,865.241 1615.06,877.302 1635.55,889.607 1656.05,902.161 
  1676.54,914.968 1697.03,928.034 1717.52,941.364 1738.01,954.964 1758.5,968.838 1778.99,982.992 1799.49,997.432 1819.98,1012.16 1840.47,1027.19 1860.96,1042.53 
  1881.45,1058.17 1901.94,1074.13 1922.44,1090.41 1942.93,1107.02 1963.42,1123.97 1983.91,1141.26 2004.4,1158.89 2024.89,1176.89 2045.38,1195.24 2065.88,1213.97 
  2086.37,1233.08 2106.86,1252.57 2127.35,1272.46 2147.84,1292.75 2168.33,1313.44 2188.82,1334.56 2209.32,1356.1 2229.81,1378.08 2250.3,1400.5 2270.79,1423.38 
  2291.28,1446.71 
  "/>
<polyline clip-path="url(#clip782)" style="stroke:#e26f46; stroke-linecap:butt; stroke-linejoin:round; stroke-width:8; stroke-opacity:1; fill:none" points="
  242.135,427.682 262.626,427.682 283.118,427.682 303.609,427.682 324.101,427.682 344.592,427.682 365.084,427.682 385.575,427.682 406.066,427.682 426.558,427.682 
  447.049,427.682 467.541,427.682 488.032,427.682 508.524,427.682 529.015,427.682 549.507,427.682 569.998,427.682 590.49,427.682 610.981,427.682 631.473,427.682 
  651.964,427.682 672.456,427.683 692.947,427.683 713.438,427.683 733.93,427.683 754.421,427.683 774.913,427.683 795.404,427.683 815.896,427.683 836.387,427.683 
  856.879,427.683 877.37,427.683 897.862,427.684 918.353,427.684 938.845,427.684 959.336,427.685 979.828,427.685 1000.32,427.686 1020.81,427.686 1041.3,427.687 
  1061.79,427.688 1082.28,427.69 1102.78,427.691 1123.27,427.693 1143.76,427.696 1164.25,427.699 1184.74,427.702 1205.23,427.707 1225.73,427.712 1246.22,427.719 
  1266.71,427.727 1287.2,427.737 1307.69,427.749 1328.18,427.764 1348.67,427.782 1369.17,427.804 1389.66,427.832 1410.15,427.865 1430.64,427.905 1451.13,427.955 
  1471.62,428.015 1492.11,428.089 1512.61,428.18 1533.1,428.29 1553.59,428.425 1574.08,428.59 1594.57,428.792 1615.06,429.038 1635.55,429.34 1656.05,429.708 
  1676.54,430.158 1697.03,430.708 1717.52,431.381 1738.01,432.202 1758.5,433.207 1778.99,434.434 1799.49,435.935 1819.98,437.769 1840.47,440.01 1860.96,442.75 
  1881.45,446.098 1901.94,450.19 1922.44,455.192 1942.93,461.305 1963.42,468.777 1983.91,477.909 2004.4,489.071 2024.89,502.712 2045.38,519.386 2065.88,539.764 
  2086.37,564.671 2106.86,595.113 2127.35,632.32 2147.84,677.795 2168.33,733.376 2188.82,801.308 2209.32,884.336 2229.81,985.814 2250.3,1109.84 2270.79,1261.44 
  2291.28,1446.71 
  "/>
<polyline clip-path="url(#clip782)" style="stroke:#3da44d; stroke-linecap:butt; stroke-linejoin:round; stroke-width:8; stroke-opacity:1; fill:none" points="
  242.135,427.682 262.626,427.682 283.118,427.682 303.609,427.682 324.101,427.682 344.592,427.682 365.084,427.682 385.575,427.682 406.066,427.682 426.558,427.682 
  447.049,427.682 467.541,427.682 488.032,427.682 508.524,427.682 529.015,427.682 549.507,427.682 569.998,427.682 590.49,427.682 610.981,427.682 631.473,427.682 
  651.964,427.682 672.456,427.682 692.947,427.682 713.438,427.682 733.93,427.682 754.421,427.682 774.913,427.682 795.404,427.682 815.896,427.682 836.387,427.682 
  856.879,427.682 877.37,427.682 897.862,427.682 918.353,427.682 938.845,427.682 959.336,427.682 979.828,427.682 1000.32,427.682 1020.81,427.682 1041.3,427.682 
  1061.79,427.682 1082.28,427.682 1102.78,427.682 1123.27,427.682 1143.76,427.682 1164.25,427.682 1184.74,427.682 1205.23,427.682 1225.73,427.682 1246.22,427.682 
  1266.71,427.682 1287.2,427.682 1307.69,427.682 1328.18,427.682 1348.67,427.682 1369.17,427.682 1389.66,427.682 1410.15,427.682 1430.64,427.682 1451.13,427.682 
  1471.62,427.682 1492.11,427.683 1512.61,427.683 1533.1,427.683 1553.59,427.683 1574.08,427.683 1594.57,427.683 1615.06,427.684 1635.55,427.685 1656.05,427.686 
  1676.54,427.688 1697.03,427.69 1717.52,427.694 1738.01,427.7 1758.5,427.709 1778.99,427.723 1799.49,427.743 1819.98,427.773 1840.47,427.819 1860.96,427.887 
  1881.45,427.989 1901.94,428.142 1922.44,428.372 1942.93,428.717 1963.42,429.234 1983.91,430.009 2004.4,431.173 2024.89,432.918 2045.38,435.536 2065.88,439.463 
  2086.37,445.354 2106.86,454.19 2127.35,467.443 2147.84,487.324 2168.33,517.145 2188.82,561.876 2209.32,628.972 2229.81,729.618 2250.3,880.585 2270.79,1107.04 
  2291.28,1446.71 
  "/>
<polyline clip-path="url(#clip782)" style="stroke:#c271d2; stroke-linecap:butt; stroke-linejoin:round; stroke-width:8; stroke-opacity:1; fill:none" points="
  242.135,427.682 262.626,427.682 283.118,427.682 303.609,427.682 324.101,427.682 344.592,427.682 365.084,427.682 385.575,427.682 406.066,427.682 426.558,427.682 
  447.049,427.682 467.541,427.682 488.032,427.682 508.524,427.682 529.015,427.682 549.507,427.682 569.998,427.682 590.49,427.682 610.981,427.682 631.473,427.682 
  651.964,427.682 672.456,427.682 692.947,427.682 713.438,427.682 733.93,427.682 754.421,427.682 774.913,427.682 795.404,427.682 815.896,427.682 836.387,427.682 
  856.879,427.682 877.37,427.682 897.862,427.682 918.353,427.682 938.845,427.682 959.336,427.682 979.828,427.682 1000.32,427.682 1020.81,427.682 1041.3,427.682 
  1061.79,427.682 1082.28,427.682 1102.78,427.682 1123.27,427.682 1143.76,427.682 1164.25,427.682 1184.74,427.682 1205.23,427.682 1225.73,427.682 1246.22,427.682 
  1266.71,427.682 1287.2,427.682 1307.69,427.682 1328.18,427.682 1348.67,427.682 1369.17,427.682 1389.66,427.682 1410.15,427.682 1430.64,427.682 1451.13,427.682 
  1471.62,427.682 1492.11,427.682 1512.61,427.682 1533.1,427.682 1553.59,427.682 1574.08,427.682 1594.57,427.682 1615.06,427.682 1635.55,427.682 1656.05,427.682 
  1676.54,427.682 1697.03,427.682 1717.52,427.682 1738.01,427.682 1758.5,427.682 1778.99,427.682 1799.49,427.682 1819.98,427.682 1840.47,427.682 1860.96,427.682 
  1881.45,427.682 1901.94,427.682 1922.44,427.682 1942.93,427.682 1963.42,427.682 1983.91,427.682 2004.4,427.682 2024.89,427.682 2045.38,427.682 2065.88,427.682 
  2086.37,427.682 2106.86,427.682 2127.35,427.682 2147.84,427.682 2168.33,427.682 2188.82,427.682 2209.32,427.682 2229.81,427.682 2250.3,427.682 2270.79,427.682 
  2291.28,1446.71 
  "/>
<polyline clip-path="url(#clip782)" style="stroke:#ac8d18; stroke-linecap:butt; stroke-linejoin:round; stroke-width:8; stroke-opacity:1; fill:none" points="
  242.135,427.682 262.626,427.682 283.118,427.682 303.609,427.682 324.101,427.682 344.592,427.682 365.084,427.682 385.575,427.682 406.066,427.682 426.558,427.682 
  447.049,427.682 467.541,427.682 488.032,427.682 508.524,427.682 529.015,427.682 549.507,427.682 569.998,427.682 590.49,427.682 610.981,427.682 631.473,427.682 
  651.964,427.682 672.456,427.682 692.947,427.682 713.438,427.682 733.93,427.682 754.421,427.682 774.913,427.682 795.404,427.682 815.896,427.682 836.387,427.682 
  856.879,427.682 877.37,427.682 897.862,427.682 918.353,427.682 938.845,427.682 959.336,427.682 979.828,427.682 1000.32,427.682 1020.81,427.682 1041.3,427.682 
  1061.79,427.682 1082.28,427.682 1102.78,427.682 1123.27,427.682 1143.76,427.682 1164.25,427.682 1184.74,427.682 1205.23,427.682 1225.73,427.682 1246.22,427.682 
  1266.71,427.682 1287.2,427.682 1307.69,427.682 1328.18,427.682 1348.67,427.682 1369.17,427.682 1389.66,427.682 1410.15,427.682 1430.64,427.682 1451.13,427.682 
  1471.62,427.682 1492.11,427.682 1512.61,427.682 1533.1,427.682 1553.59,427.682 1574.08,427.682 1594.57,427.682 1615.06,427.682 1635.55,427.682 1656.05,427.682 
  1676.54,427.682 1697.03,427.682 1717.52,427.682 1738.01,427.682 1758.5,427.682 1778.99,427.682 1799.49,427.682 1819.98,427.682 1840.47,427.682 1860.96,427.682 
  1881.45,427.682 1901.94,427.682 1922.44,427.682 1942.93,427.682 1963.42,427.682 1983.91,427.682 2004.4,427.683 2024.89,427.682 2045.38,427.684 2065.88,427.677 
  2086.37,427.7 2106.86,427.631 2127.35,427.838 2147.84,427.216 2168.33,429.08 2188.82,423.489 2209.32,440.263 2229.81,389.94 2250.3,540.908 2270.79,88.0053 
  2291.28,1446.71 
  "/>
<path clip-path="url(#clip780)" d="
M253.064 1439.47 L669.71 1439.47 L669.71 1137.67 L253.064 1137.67  Z
  " fill="#ffffff" fill-rule="evenodd" fill-opacity="1"/>
<polyline clip-path="url(#clip780)" style="stroke:#000000; stroke-linecap:butt; stroke-linejoin:round; stroke-width:4; stroke-opacity:1; fill:none" points="
  253.064,1439.47 669.71,1439.47 669.71,1137.67 253.064,1137.67 253.064,1439.47 
  "/>
<polyline clip-path="url(#clip780)" style="stroke:#009af9; stroke-linecap:butt; stroke-linejoin:round; stroke-width:4; stroke-opacity:1; fill:none" points="
  277.198,1187.97 422.004,1187.97 
  "/>
<g clip-path="url(#clip780)">
<text style="fill:#000000; fill-opacity:1; font-family:Arial,Helvetica Neue,Helvetica,sans-serif; font-size:48px; text-anchor:start;" transform="rotate(0, 446.139, 1205.47)" x="446.139" y="1205.47">λ=1.0</text>
</g>
<polyline clip-path="url(#clip780)" style="stroke:#e26f46; stroke-linecap:butt; stroke-linejoin:round; stroke-width:4; stroke-opacity:1; fill:none" points="
  277.198,1238.27 422.004,1238.27 
  "/>
<g clip-path="url(#clip780)">
<text style="fill:#000000; fill-opacity:1; font-family:Arial,Helvetica Neue,Helvetica,sans-serif; font-size:48px; text-anchor:start;" transform="rotate(0, 446.139, 1255.77)" x="446.139" y="1255.77">λ=0.1</text>
</g>
<polyline clip-path="url(#clip780)" style="stroke:#3da44d; stroke-linecap:butt; stroke-linejoin:round; stroke-width:4; stroke-opacity:1; fill:none" points="
  277.198,1288.57 422.004,1288.57 
  "/>
<g clip-path="url(#clip780)">
<text style="fill:#000000; fill-opacity:1; font-family:Arial,Helvetica Neue,Helvetica,sans-serif; font-size:48px; text-anchor:start;" transform="rotate(0, 446.139, 1306.07)" x="446.139" y="1306.07">λ=0.05</text>
</g>
<polyline clip-path="url(#clip780)" style="stroke:#c271d2; stroke-linecap:butt; stroke-linejoin:round; stroke-width:4; stroke-opacity:1; fill:none" points="
  277.198,1338.87 422.004,1338.87 
  "/>
<g clip-path="url(#clip780)">
<text style="fill:#000000; fill-opacity:1; font-family:Arial,Helvetica Neue,Helvetica,sans-serif; font-size:48px; text-anchor:start;" transform="rotate(0, 446.139, 1356.37)" x="446.139" y="1356.37">λ=0.01</text>
</g>
<polyline clip-path="url(#clip780)" style="stroke:#ac8d18; stroke-linecap:butt; stroke-linejoin:round; stroke-width:4; stroke-opacity:1; fill:none" points="
  277.198,1389.17 422.004,1389.17 
  "/>
<g clip-path="url(#clip780)">
<text style="fill:#000000; fill-opacity:1; font-family:Arial,Helvetica Neue,Helvetica,sans-serif; font-size:48px; text-anchor:start;" transform="rotate(0, 446.139, 1406.67)" x="446.139" y="1406.67">λ=0.005</text>
</g>
</svg>
