<?xml version="1.0" encoding="utf-8"?>
<svg xmlns="http://www.w3.org/2000/svg" xmlns:xlink="http://www.w3.org/1999/xlink" width="600" height="400" viewBox="0 0 2400 1600">
<defs>
  <clipPath id="clip150">
    <rect x="0" y="0" width="2400" height="1600"/>
  </clipPath>
</defs>
<path clip-path="url(#clip150)" d="
M0 1600 L2400 1600 L2400 0 L0 0  Z
  " fill="#ffffff" fill-rule="evenodd" fill-opacity="1"/>
<defs>
  <clipPath id="clip151">
    <rect x="480" y="0" width="1681" height="1600"/>
  </clipPath>
</defs>
<path clip-path="url(#clip150)" d="
M178.867 1486.45 L2352.76 1486.45 L2352.76 47.2441 L178.867 47.2441  Z
  " fill="#ffffff" fill-rule="evenodd" fill-opacity="1"/>
<defs>
  <clipPath id="clip152">
    <rect x="178" y="47" width="2175" height="1440"/>
  </clipPath>
</defs>
<polyline clip-path="url(#clip152)" style="stroke:#000000; stroke-linecap:butt; stroke-linejoin:round; stroke-width:2; stroke-opacity:0.1; fill:none" points="
  306.548,1486.45 306.548,47.2441 
  "/>
<polyline clip-path="url(#clip152)" style="stroke:#000000; stroke-linecap:butt; stroke-linejoin:round; stroke-width:2; stroke-opacity:0.1; fill:none" points="
  968.109,1486.45 968.109,47.2441 
  "/>
<polyline clip-path="url(#clip152)" style="stroke:#000000; stroke-linecap:butt; stroke-linejoin:round; stroke-width:2; stroke-opacity:0.1; fill:none" points="
  1629.67,1486.45 1629.67,47.2441 
  "/>
<polyline clip-path="url(#clip152)" style="stroke:#000000; stroke-linecap:butt; stroke-linejoin:round; stroke-width:2; stroke-opacity:0.1; fill:none" points="
  2291.23,1486.45 2291.23,47.2441 
  "/>
<polyline clip-path="url(#clip150)" style="stroke:#000000; stroke-linecap:butt; stroke-linejoin:round; stroke-width:4; stroke-opacity:1; fill:none" points="
  178.867,1486.45 2352.76,1486.45 
  "/>
<polyline clip-path="url(#clip150)" style="stroke:#000000; stroke-linecap:butt; stroke-linejoin:round; stroke-width:4; stroke-opacity:1; fill:none" points="
  306.548,1486.45 306.548,1467.55 
  "/>
<polyline clip-path="url(#clip150)" style="stroke:#000000; stroke-linecap:butt; stroke-linejoin:round; stroke-width:4; stroke-opacity:1; fill:none" points="
  968.109,1486.45 968.109,1467.55 
  "/>
<polyline clip-path="url(#clip150)" style="stroke:#000000; stroke-linecap:butt; stroke-linejoin:round; stroke-width:4; stroke-opacity:1; fill:none" points="
  1629.67,1486.45 1629.67,1467.55 
  "/>
<polyline clip-path="url(#clip150)" style="stroke:#000000; stroke-linecap:butt; stroke-linejoin:round; stroke-width:4; stroke-opacity:1; fill:none" points="
  2291.23,1486.45 2291.23,1467.55 
  "/>
<path clip-path="url(#clip150)" d="M253.574 1532.02 L283.249 1532.02 L283.249 1535.95 L253.574 1535.95 L253.574 1532.02 Z" fill="#000000" fill-rule="evenodd" fill-opacity="1" /><path clip-path="url(#clip150)" d="M294.152 1544.91 L301.791 1544.91 L301.791 1518.55 L293.481 1520.21 L293.481 1515.95 L301.745 1514.29 L306.421 1514.29 L306.421 1544.91 L314.059 1544.91 L314.059 1548.85 L294.152 1548.85 L294.152 1544.91 Z" fill="#000000" fill-rule="evenodd" fill-opacity="1" /><path clip-path="url(#clip150)" d="M323.504 1542.97 L328.388 1542.97 L328.388 1548.85 L323.504 1548.85 L323.504 1542.97 Z" fill="#000000" fill-rule="evenodd" fill-opacity="1" /><path clip-path="url(#clip150)" d="M338.619 1514.29 L356.976 1514.29 L356.976 1518.22 L342.902 1518.22 L342.902 1526.7 Q343.92 1526.35 344.939 1526.19 Q345.957 1526 346.976 1526 Q352.763 1526 356.143 1529.17 Q359.522 1532.34 359.522 1537.76 Q359.522 1543.34 356.05 1546.44 Q352.578 1549.52 346.258 1549.52 Q344.082 1549.52 341.814 1549.15 Q339.569 1548.78 337.161 1548.04 L337.161 1543.34 Q339.244 1544.47 341.467 1545.03 Q343.689 1545.58 346.166 1545.58 Q350.17 1545.58 352.508 1543.48 Q354.846 1541.37 354.846 1537.76 Q354.846 1534.15 352.508 1532.04 Q350.17 1529.94 346.166 1529.94 Q344.291 1529.94 342.416 1530.35 Q340.564 1530.77 338.619 1531.65 L338.619 1514.29 Z" fill="#000000" fill-rule="evenodd" fill-opacity="1" /><path clip-path="url(#clip150)" d="M914.637 1532.02 L944.313 1532.02 L944.313 1535.95 L914.637 1535.95 L914.637 1532.02 Z" fill="#000000" fill-rule="evenodd" fill-opacity="1" /><path clip-path="url(#clip150)" d="M955.215 1544.91 L962.854 1544.91 L962.854 1518.55 L954.544 1520.21 L954.544 1515.95 L962.808 1514.29 L967.484 1514.29 L967.484 1544.91 L975.123 1544.91 L975.123 1548.85 L955.215 1548.85 L955.215 1544.91 Z" fill="#000000" fill-rule="evenodd" fill-opacity="1" /><path clip-path="url(#clip150)" d="M984.567 1542.97 L989.451 1542.97 L989.451 1548.85 L984.567 1548.85 L984.567 1542.97 Z" fill="#000000" fill-rule="evenodd" fill-opacity="1" /><path clip-path="url(#clip150)" d="M1009.64 1517.37 Q1006.03 1517.37 1004.2 1520.93 Q1002.39 1524.47 1002.39 1531.6 Q1002.39 1538.71 1004.2 1542.27 Q1006.03 1545.82 1009.64 1545.82 Q1013.27 1545.82 1015.08 1542.27 Q1016.9 1538.71 1016.9 1531.6 Q1016.9 1524.47 1015.08 1520.93 Q1013.27 1517.37 1009.64 1517.37 M1009.64 1513.66 Q1015.45 1513.66 1018.5 1518.27 Q1021.58 1522.85 1021.58 1531.6 Q1021.58 1540.33 1018.5 1544.94 Q1015.45 1549.52 1009.64 1549.52 Q1003.83 1549.52 1000.75 1544.94 Q997.692 1540.33 997.692 1531.6 Q997.692 1522.85 1000.75 1518.27 Q1003.83 1513.66 1009.64 1513.66 Z" fill="#000000" fill-rule="evenodd" fill-opacity="1" /><path clip-path="url(#clip150)" d="M1576.7 1532.02 L1606.37 1532.02 L1606.37 1535.95 L1576.7 1535.95 L1576.7 1532.02 Z" fill="#000000" fill-rule="evenodd" fill-opacity="1" /><path clip-path="url(#clip150)" d="M1626.46 1517.37 Q1622.85 1517.37 1621.02 1520.93 Q1619.22 1524.47 1619.22 1531.6 Q1619.22 1538.71 1621.02 1542.27 Q1622.85 1545.82 1626.46 1545.82 Q1630.1 1545.82 1631.9 1542.27 Q1633.73 1538.71 1633.73 1531.6 Q1633.73 1524.47 1631.9 1520.93 Q1630.1 1517.37 1626.46 1517.37 M1626.46 1513.66 Q1632.27 1513.66 1635.33 1518.27 Q1638.41 1522.85 1638.41 1531.6 Q1638.41 1540.33 1635.33 1544.94 Q1632.27 1549.52 1626.46 1549.52 Q1620.65 1549.52 1617.57 1544.94 Q1614.52 1540.33 1614.52 1531.6 Q1614.52 1522.85 1617.57 1518.27 Q1620.65 1513.66 1626.46 1513.66 Z" fill="#000000" fill-rule="evenodd" fill-opacity="1" /><path clip-path="url(#clip150)" d="M1646.63 1542.97 L1651.51 1542.97 L1651.51 1548.85 L1646.63 1548.85 L1646.63 1542.97 Z" fill="#000000" fill-rule="evenodd" fill-opacity="1" /><path clip-path="url(#clip150)" d="M1661.74 1514.29 L1680.1 1514.29 L1680.1 1518.22 L1666.02 1518.22 L1666.02 1526.7 Q1667.04 1526.35 1668.06 1526.19 Q1669.08 1526 1670.1 1526 Q1675.88 1526 1679.26 1529.17 Q1682.64 1532.34 1682.64 1537.76 Q1682.64 1543.34 1679.17 1546.44 Q1675.7 1549.52 1669.38 1549.52 Q1667.2 1549.52 1664.94 1549.15 Q1662.69 1548.78 1660.28 1548.04 L1660.28 1543.34 Q1662.37 1544.47 1664.59 1545.03 Q1666.81 1545.58 1669.29 1545.58 Q1673.29 1545.58 1675.63 1543.48 Q1677.97 1541.37 1677.97 1537.76 Q1677.97 1534.15 1675.63 1532.04 Q1673.29 1529.94 1669.29 1529.94 Q1667.41 1529.94 1665.54 1530.35 Q1663.69 1530.77 1661.74 1531.65 L1661.74 1514.29 Z" fill="#000000" fill-rule="evenodd" fill-opacity="1" /><path clip-path="url(#clip150)" d="M2268.62 1517.37 Q2265 1517.37 2263.18 1520.93 Q2261.37 1524.47 2261.37 1531.6 Q2261.37 1538.71 2263.18 1542.27 Q2265 1545.82 2268.62 1545.82 Q2272.25 1545.82 2274.05 1542.27 Q2275.88 1538.71 2275.88 1531.6 Q2275.88 1524.47 2274.05 1520.93 Q2272.25 1517.37 2268.62 1517.37 M2268.62 1513.66 Q2274.43 1513.66 2277.48 1518.27 Q2280.56 1522.85 2280.56 1531.6 Q2280.56 1540.33 2277.48 1544.94 Q2274.43 1549.52 2268.62 1549.52 Q2262.8 1549.52 2259.73 1544.94 Q2256.67 1540.33 2256.67 1531.6 Q2256.67 1522.85 2259.73 1518.27 Q2262.8 1513.66 2268.62 1513.66 Z" fill="#000000" fill-rule="evenodd" fill-opacity="1" /><path clip-path="url(#clip150)" d="M2288.78 1542.97 L2293.66 1542.97 L2293.66 1548.85 L2288.78 1548.85 L2288.78 1542.97 Z" fill="#000000" fill-rule="evenodd" fill-opacity="1" /><path clip-path="url(#clip150)" d="M2313.85 1517.37 Q2310.24 1517.37 2308.41 1520.93 Q2306.6 1524.47 2306.6 1531.6 Q2306.6 1538.71 2308.41 1542.27 Q2310.24 1545.82 2313.85 1545.82 Q2317.48 1545.82 2319.29 1542.27 Q2321.11 1538.71 2321.11 1531.6 Q2321.11 1524.47 2319.29 1520.93 Q2317.48 1517.37 2313.85 1517.37 M2313.85 1513.66 Q2319.66 1513.66 2322.71 1518.27 Q2325.79 1522.85 2325.79 1531.6 Q2325.79 1540.33 2322.71 1544.94 Q2319.66 1549.52 2313.85 1549.52 Q2308.04 1549.52 2304.96 1544.94 Q2301.9 1540.33 2301.9 1531.6 Q2301.9 1522.85 2304.96 1518.27 Q2308.04 1513.66 2313.85 1513.66 Z" fill="#000000" fill-rule="evenodd" fill-opacity="1" /><polyline clip-path="url(#clip152)" style="stroke:#000000; stroke-linecap:butt; stroke-linejoin:round; stroke-width:2; stroke-opacity:0.1; fill:none" points="
  178.867,1217.58 2352.76,1217.58 
  "/>
<polyline clip-path="url(#clip152)" style="stroke:#000000; stroke-linecap:butt; stroke-linejoin:round; stroke-width:2; stroke-opacity:0.1; fill:none" points="
  178.867,935.178 2352.76,935.178 
  "/>
<polyline clip-path="url(#clip152)" style="stroke:#000000; stroke-linecap:butt; stroke-linejoin:round; stroke-width:2; stroke-opacity:0.1; fill:none" points="
  178.867,652.778 2352.76,652.778 
  "/>
<polyline clip-path="url(#clip152)" style="stroke:#000000; stroke-linecap:butt; stroke-linejoin:round; stroke-width:2; stroke-opacity:0.1; fill:none" points="
  178.867,370.377 2352.76,370.377 
  "/>
<polyline clip-path="url(#clip152)" style="stroke:#000000; stroke-linecap:butt; stroke-linejoin:round; stroke-width:2; stroke-opacity:0.1; fill:none" points="
  178.867,87.9763 2352.76,87.9763 
  "/>
<polyline clip-path="url(#clip150)" style="stroke:#000000; stroke-linecap:butt; stroke-linejoin:round; stroke-width:4; stroke-opacity:1; fill:none" points="
  178.867,1486.45 178.867,47.2441 
  "/>
<polyline clip-path="url(#clip150)" style="stroke:#000000; stroke-linecap:butt; stroke-linejoin:round; stroke-width:4; stroke-opacity:1; fill:none" points="
  178.867,1217.58 197.764,1217.58 
  "/>
<polyline clip-path="url(#clip150)" style="stroke:#000000; stroke-linecap:butt; stroke-linejoin:round; stroke-width:4; stroke-opacity:1; fill:none" points="
  178.867,935.178 197.764,935.178 
  "/>
<polyline clip-path="url(#clip150)" style="stroke:#000000; stroke-linecap:butt; stroke-linejoin:round; stroke-width:4; stroke-opacity:1; fill:none" points="
  178.867,652.778 197.764,652.778 
  "/>
<polyline clip-path="url(#clip150)" style="stroke:#000000; stroke-linecap:butt; stroke-linejoin:round; stroke-width:4; stroke-opacity:1; fill:none" points="
  178.867,370.377 197.764,370.377 
  "/>
<polyline clip-path="url(#clip150)" style="stroke:#000000; stroke-linecap:butt; stroke-linejoin:round; stroke-width:4; stroke-opacity:1; fill:none" points="
  178.867,87.9763 197.764,87.9763 
  "/>
<path clip-path="url(#clip150)" d="M50.9921 1218.03 L80.6679 1218.03 L80.6679 1221.97 L50.9921 1221.97 L50.9921 1218.03 Z" fill="#000000" fill-rule="evenodd" fill-opacity="1" /><path clip-path="url(#clip150)" d="M103.608 1204.37 L91.8021 1222.82 L103.608 1222.82 L103.608 1204.37 M102.381 1200.3 L108.26 1200.3 L108.26 1222.82 L113.191 1222.82 L113.191 1226.71 L108.26 1226.71 L108.26 1234.86 L103.608 1234.86 L103.608 1226.71 L88.0058 1226.71 L88.0058 1222.2 L102.381 1200.3 Z" fill="#000000" fill-rule="evenodd" fill-opacity="1" /><path clip-path="url(#clip150)" d="M130.922 1203.38 Q127.311 1203.38 125.482 1206.94 Q123.677 1210.48 123.677 1217.61 Q123.677 1224.72 125.482 1228.28 Q127.311 1231.83 130.922 1231.83 Q134.556 1231.83 136.362 1228.28 Q138.191 1224.72 138.191 1217.61 Q138.191 1210.48 136.362 1206.94 Q134.556 1203.38 130.922 1203.38 M130.922 1199.67 Q136.732 1199.67 139.788 1204.28 Q142.867 1208.86 142.867 1217.61 Q142.867 1226.34 139.788 1230.95 Q136.732 1235.53 130.922 1235.53 Q125.112 1235.53 122.033 1230.95 Q118.978 1226.34 118.978 1217.61 Q118.978 1208.86 122.033 1204.28 Q125.112 1199.67 130.922 1199.67 Z" fill="#000000" fill-rule="evenodd" fill-opacity="1" /><path clip-path="url(#clip150)" d="M50.9921 935.63 L80.6679 935.63 L80.6679 939.565 L50.9921 939.565 L50.9921 935.63 Z" fill="#000000" fill-rule="evenodd" fill-opacity="1" /><path clip-path="url(#clip150)" d="M104.927 933.824 Q108.283 934.542 110.158 936.81 Q112.057 939.079 112.057 942.412 Q112.057 947.528 108.538 950.329 Q105.02 953.129 98.5382 953.129 Q96.3623 953.129 94.0475 952.69 Q91.7558 952.273 89.3021 951.417 L89.3021 946.903 Q91.2465 948.037 93.5613 948.616 Q95.8761 949.194 98.3993 949.194 Q102.797 949.194 105.089 947.458 Q107.404 945.722 107.404 942.412 Q107.404 939.356 105.251 937.643 Q103.121 935.907 99.3021 935.907 L95.2743 935.907 L95.2743 932.065 L99.4872 932.065 Q102.936 932.065 104.765 930.699 Q106.594 929.31 106.594 926.718 Q106.594 924.056 104.696 922.644 Q102.821 921.208 99.3021 921.208 Q97.3808 921.208 95.1817 921.625 Q92.9826 922.042 90.3438 922.921 L90.3438 918.755 Q93.0058 918.014 95.3206 917.644 Q97.6585 917.273 99.7187 917.273 Q105.043 917.273 108.145 919.704 Q111.246 922.111 111.246 926.231 Q111.246 929.102 109.603 931.093 Q107.959 933.06 104.927 933.824 Z" fill="#000000" fill-rule="evenodd" fill-opacity="1" /><path clip-path="url(#clip150)" d="M130.922 920.977 Q127.311 920.977 125.482 924.542 Q123.677 928.083 123.677 935.213 Q123.677 942.319 125.482 945.884 Q127.311 949.426 130.922 949.426 Q134.556 949.426 136.362 945.884 Q138.191 942.319 138.191 935.213 Q138.191 928.083 136.362 924.542 Q134.556 920.977 130.922 920.977 M130.922 917.273 Q136.732 917.273 139.788 921.88 Q142.867 926.463 142.867 935.213 Q142.867 943.94 139.788 948.546 Q136.732 953.129 130.922 953.129 Q125.112 953.129 122.033 948.546 Q118.978 943.94 118.978 935.213 Q118.978 926.463 122.033 921.88 Q125.112 917.273 130.922 917.273 Z" fill="#000000" fill-rule="evenodd" fill-opacity="1" /><path clip-path="url(#clip150)" d="M50.9921 653.229 L80.6679 653.229 L80.6679 657.164 L50.9921 657.164 L50.9921 653.229 Z" fill="#000000" fill-rule="evenodd" fill-opacity="1" /><path clip-path="url(#clip150)" d="M94.7882 666.122 L111.108 666.122 L111.108 670.058 L89.1632 670.058 L89.1632 666.122 Q91.8252 663.368 96.4085 658.738 Q101.015 654.085 102.196 652.743 Q104.441 650.22 105.321 648.484 Q106.223 646.724 106.223 645.035 Q106.223 642.28 104.279 640.544 Q102.358 638.808 99.2558 638.808 Q97.0567 638.808 94.603 639.572 Q92.1725 640.335 89.3947 641.886 L89.3947 637.164 Q92.2188 636.03 94.6724 635.451 Q97.1261 634.873 99.1632 634.873 Q104.534 634.873 107.728 637.558 Q110.922 640.243 110.922 644.734 Q110.922 646.863 110.112 648.785 Q109.325 650.683 107.219 653.275 Q106.64 653.947 103.538 657.164 Q100.436 660.359 94.7882 666.122 Z" fill="#000000" fill-rule="evenodd" fill-opacity="1" /><path clip-path="url(#clip150)" d="M130.922 638.576 Q127.311 638.576 125.482 642.141 Q123.677 645.683 123.677 652.812 Q123.677 659.919 125.482 663.484 Q127.311 667.025 130.922 667.025 Q134.556 667.025 136.362 663.484 Q138.191 659.919 138.191 652.812 Q138.191 645.683 136.362 642.141 Q134.556 638.576 130.922 638.576 M130.922 634.873 Q136.732 634.873 139.788 639.479 Q142.867 644.062 142.867 652.812 Q142.867 661.539 139.788 666.146 Q136.732 670.729 130.922 670.729 Q125.112 670.729 122.033 666.146 Q118.978 661.539 118.978 652.812 Q118.978 644.062 122.033 639.479 Q125.112 634.873 130.922 634.873 Z" fill="#000000" fill-rule="evenodd" fill-opacity="1" /><path clip-path="url(#clip150)" d="M50.9921 370.828 L80.6679 370.828 L80.6679 374.763 L50.9921 374.763 L50.9921 370.828 Z" fill="#000000" fill-rule="evenodd" fill-opacity="1" /><path clip-path="url(#clip150)" d="M91.5706 383.722 L99.2095 383.722 L99.2095 357.356 L90.8993 359.023 L90.8993 354.764 L99.1632 353.097 L103.839 353.097 L103.839 383.722 L111.478 383.722 L111.478 387.657 L91.5706 387.657 L91.5706 383.722 Z" fill="#000000" fill-rule="evenodd" fill-opacity="1" /><path clip-path="url(#clip150)" d="M130.922 356.176 Q127.311 356.176 125.482 359.74 Q123.677 363.282 123.677 370.412 Q123.677 377.518 125.482 381.083 Q127.311 384.625 130.922 384.625 Q134.556 384.625 136.362 381.083 Q138.191 377.518 138.191 370.412 Q138.191 363.282 136.362 359.74 Q134.556 356.176 130.922 356.176 M130.922 352.472 Q136.732 352.472 139.788 357.078 Q142.867 361.662 142.867 370.412 Q142.867 379.138 139.788 383.745 Q136.732 388.328 130.922 388.328 Q125.112 388.328 122.033 383.745 Q118.978 379.138 118.978 370.412 Q118.978 361.662 122.033 357.078 Q125.112 352.472 130.922 352.472 Z" fill="#000000" fill-rule="evenodd" fill-opacity="1" /><path clip-path="url(#clip150)" d="M130.922 73.775 Q127.311 73.775 125.482 77.3398 Q123.677 80.8814 123.677 88.011 Q123.677 95.1174 125.482 98.6822 Q127.311 102.224 130.922 102.224 Q134.556 102.224 136.362 98.6822 Q138.191 95.1174 138.191 88.011 Q138.191 80.8814 136.362 77.3398 Q134.556 73.775 130.922 73.775 M130.922 70.0713 Q136.732 70.0713 139.788 74.6777 Q142.867 79.261 142.867 88.011 Q142.867 96.7378 139.788 101.344 Q136.732 105.928 130.922 105.928 Q125.112 105.928 122.033 101.344 Q118.978 96.7378 118.978 88.011 Q118.978 79.261 122.033 74.6777 Q125.112 70.0713 130.922 70.0713 Z" fill="#000000" fill-rule="evenodd" fill-opacity="1" /><polyline clip-path="url(#clip152)" style="stroke:#009af9; stroke-linecap:butt; stroke-linejoin:round; stroke-width:4; stroke-opacity:1; fill:none" points="
  240.392,1445.72 241.226,1405.74 242.061,1368.05 242.895,1332.45 243.73,1298.78 244.564,1266.88 245.399,1236.62 246.233,1207.87 247.068,1180.53 247.902,1154.49 
  248.737,1129.66 249.571,1105.96 250.406,1083.31 251.24,1061.65 252.075,1040.91 252.492,1030.87 252.909,1021.03 253.327,1011.4 253.744,1001.97 255.673,960.744 
  257.602,923.074 259.531,888.519 261.46,856.706 263.389,827.322 265.318,800.099 267.247,774.807 269.176,751.247 271.105,729.247 273.034,708.657 274.963,689.345 
  276.892,671.197 278.822,654.109 280.751,637.992 282.68,622.765 284.609,608.357 288.467,581.743 292.325,557.712 296.183,535.904 300.041,516.024 303.899,497.827 
  307.757,481.108 311.615,465.693 315.474,451.436 323.19,425.906 330.906,403.708 338.622,384.227 346.338,366.993 354.055,351.636 361.771,337.865 369.487,325.446 
  377.203,314.188 386.477,301.974 395.752,290.993 405.026,281.065 414.3,272.045 432.849,256.27 451.397,242.928 467.08,233.152 482.762,224.498 498.445,216.783 
  514.127,209.858 548.198,197.011 582.269,186.487 613.68,178.332 645.091,171.329 712.442,159.183 790.474,148.504 859.821,141.055 920.631,135.636 986.931,130.611 
  1053.62,126.27 1127.36,122.112 1197.52,118.646 1270.47,115.441 1331.88,112.999 1406.86,110.276 1475.54,107.988 1538.97,106.02 1603.22,104.145 1675.23,102.164 
  1740.48,100.461 1815.2,98.5989 1884.37,96.9446 1952.57,95.3666 2018.78,93.8748 2086.66,92.3776 2161.03,90.7642 2269.07,88.4494 2291.23,87.9763 
  "/>
<path clip-path="url(#clip150)" d="
M1986.32 198.898 L2280.29 198.898 L2280.29 95.2176 L1986.32 95.2176  Z
  " fill="#ffffff" fill-rule="evenodd" fill-opacity="1"/>
<polyline clip-path="url(#clip150)" style="stroke:#000000; stroke-linecap:butt; stroke-linejoin:round; stroke-width:4; stroke-opacity:1; fill:none" points="
  1986.32,198.898 2280.29,198.898 2280.29,95.2176 1986.32,95.2176 1986.32,198.898 
  "/>
<polyline clip-path="url(#clip150)" style="stroke:#009af9; stroke-linecap:butt; stroke-linejoin:round; stroke-width:4; stroke-opacity:1; fill:none" points="
  2010.47,147.058 2155.4,147.058 
  "/>
<path clip-path="url(#clip150)" d="M2193.4 166.745 Q2191.59 171.375 2189.88 172.787 Q2188.17 174.199 2185.29 174.199 L2181.89 174.199 L2181.89 170.634 L2184.39 170.634 Q2186.15 170.634 2187.12 169.8 Q2188.1 168.967 2189.28 165.865 L2190.04 163.921 L2179.55 138.412 L2184.07 138.412 L2192.17 158.689 L2200.27 138.412 L2204.79 138.412 L2193.4 166.745 Z" fill="#000000" fill-rule="evenodd" fill-opacity="1" /><path clip-path="url(#clip150)" d="M2212.08 160.402 L2219.72 160.402 L2219.72 134.037 L2211.41 135.703 L2211.41 131.444 L2219.67 129.778 L2224.35 129.778 L2224.35 160.402 L2231.98 160.402 L2231.98 164.338 L2212.08 164.338 L2212.08 160.402 Z" fill="#000000" fill-rule="evenodd" fill-opacity="1" /></svg>
