<?xml version="1.0" encoding="utf-8"?>
<svg xmlns="http://www.w3.org/2000/svg" xmlns:xlink="http://www.w3.org/1999/xlink" width="600" height="400" viewBox="0 0 2400 1600">
<defs>
  <clipPath id="clip190">
    <rect x="0" y="0" width="2400" height="1600"/>
  </clipPath>
</defs>
<path clip-path="url(#clip190)" d="
M0 1600 L2400 1600 L2400 0 L0 0  Z
  " fill="#ffffff" fill-rule="evenodd" fill-opacity="1"/>
<defs>
  <clipPath id="clip191">
    <rect x="480" y="0" width="1681" height="1600"/>
  </clipPath>
</defs>
<path clip-path="url(#clip190)" d="
M257.204 1423.18 L2352.76 1423.18 L2352.76 47.2441 L257.204 47.2441  Z
  " fill="#ffffff" fill-rule="evenodd" fill-opacity="1"/>
<defs>
  <clipPath id="clip192">
    <rect x="257" y="47" width="2097" height="1377"/>
  </clipPath>
</defs>
<polyline clip-path="url(#clip192)" style="stroke:#000000; stroke-linecap:butt; stroke-linejoin:round; stroke-width:2; stroke-opacity:0.1; fill:none" points="
  493.697,1423.18 493.697,47.2441 
  "/>
<polyline clip-path="url(#clip192)" style="stroke:#000000; stroke-linecap:butt; stroke-linejoin:round; stroke-width:2; stroke-opacity:0.1; fill:none" points="
  818.21,1423.18 818.21,47.2441 
  "/>
<polyline clip-path="url(#clip192)" style="stroke:#000000; stroke-linecap:butt; stroke-linejoin:round; stroke-width:2; stroke-opacity:0.1; fill:none" points="
  1142.72,1423.18 1142.72,47.2441 
  "/>
<polyline clip-path="url(#clip192)" style="stroke:#000000; stroke-linecap:butt; stroke-linejoin:round; stroke-width:2; stroke-opacity:0.1; fill:none" points="
  1467.24,1423.18 1467.24,47.2441 
  "/>
<polyline clip-path="url(#clip192)" style="stroke:#000000; stroke-linecap:butt; stroke-linejoin:round; stroke-width:2; stroke-opacity:0.1; fill:none" points="
  1791.75,1423.18 1791.75,47.2441 
  "/>
<polyline clip-path="url(#clip192)" style="stroke:#000000; stroke-linecap:butt; stroke-linejoin:round; stroke-width:2; stroke-opacity:0.1; fill:none" points="
  2116.26,1423.18 2116.26,47.2441 
  "/>
<polyline clip-path="url(#clip190)" style="stroke:#000000; stroke-linecap:butt; stroke-linejoin:round; stroke-width:4; stroke-opacity:1; fill:none" points="
  257.204,1423.18 2352.76,1423.18 
  "/>
<polyline clip-path="url(#clip190)" style="stroke:#000000; stroke-linecap:butt; stroke-linejoin:round; stroke-width:4; stroke-opacity:1; fill:none" points="
  493.697,1423.18 493.697,1404.28 
  "/>
<polyline clip-path="url(#clip190)" style="stroke:#000000; stroke-linecap:butt; stroke-linejoin:round; stroke-width:4; stroke-opacity:1; fill:none" points="
  818.21,1423.18 818.21,1404.28 
  "/>
<polyline clip-path="url(#clip190)" style="stroke:#000000; stroke-linecap:butt; stroke-linejoin:round; stroke-width:4; stroke-opacity:1; fill:none" points="
  1142.72,1423.18 1142.72,1404.28 
  "/>
<polyline clip-path="url(#clip190)" style="stroke:#000000; stroke-linecap:butt; stroke-linejoin:round; stroke-width:4; stroke-opacity:1; fill:none" points="
  1467.24,1423.18 1467.24,1404.28 
  "/>
<polyline clip-path="url(#clip190)" style="stroke:#000000; stroke-linecap:butt; stroke-linejoin:round; stroke-width:4; stroke-opacity:1; fill:none" points="
  1791.75,1423.18 1791.75,1404.28 
  "/>
<polyline clip-path="url(#clip190)" style="stroke:#000000; stroke-linecap:butt; stroke-linejoin:round; stroke-width:4; stroke-opacity:1; fill:none" points="
  2116.26,1423.18 2116.26,1404.28 
  "/>
<path clip-path="url(#clip190)" d="M440.723 1468.75 L470.399 1468.75 L470.399 1472.69 L440.723 1472.69 L440.723 1468.75 Z" fill="#000000" fill-rule="evenodd" fill-opacity="1" /><path clip-path="url(#clip190)" d="M481.301 1481.64 L488.94 1481.64 L488.94 1455.28 L480.63 1456.95 L480.63 1452.69 L488.894 1451.02 L493.57 1451.02 L493.57 1481.64 L501.209 1481.64 L501.209 1485.58 L481.301 1485.58 L481.301 1481.64 Z" fill="#000000" fill-rule="evenodd" fill-opacity="1" /><path clip-path="url(#clip190)" d="M510.653 1479.7 L515.537 1479.7 L515.537 1485.58 L510.653 1485.58 L510.653 1479.7 Z" fill="#000000" fill-rule="evenodd" fill-opacity="1" /><path clip-path="url(#clip190)" d="M525.769 1451.02 L544.125 1451.02 L544.125 1454.96 L530.051 1454.96 L530.051 1463.43 Q531.07 1463.08 532.088 1462.92 Q533.107 1462.73 534.125 1462.73 Q539.912 1462.73 543.292 1465.9 Q546.671 1469.08 546.671 1474.49 Q546.671 1480.07 543.199 1483.17 Q539.727 1486.25 533.408 1486.25 Q531.232 1486.25 528.963 1485.88 Q526.718 1485.51 524.31 1484.77 L524.31 1480.07 Q526.394 1481.2 528.616 1481.76 Q530.838 1482.32 533.315 1482.32 Q537.32 1482.32 539.657 1480.21 Q541.995 1478.1 541.995 1474.49 Q541.995 1470.88 539.657 1468.77 Q537.32 1466.67 533.315 1466.67 Q531.44 1466.67 529.565 1467.08 Q527.713 1467.5 525.769 1468.38 L525.769 1451.02 Z" fill="#000000" fill-rule="evenodd" fill-opacity="1" /><path clip-path="url(#clip190)" d="M764.738 1468.75 L794.414 1468.75 L794.414 1472.69 L764.738 1472.69 L764.738 1468.75 Z" fill="#000000" fill-rule="evenodd" fill-opacity="1" /><path clip-path="url(#clip190)" d="M805.317 1481.64 L812.956 1481.64 L812.956 1455.28 L804.646 1456.95 L804.646 1452.69 L812.909 1451.02 L817.585 1451.02 L817.585 1481.64 L825.224 1481.64 L825.224 1485.58 L805.317 1485.58 L805.317 1481.64 Z" fill="#000000" fill-rule="evenodd" fill-opacity="1" /><path clip-path="url(#clip190)" d="M834.668 1479.7 L839.553 1479.7 L839.553 1485.58 L834.668 1485.58 L834.668 1479.7 Z" fill="#000000" fill-rule="evenodd" fill-opacity="1" /><path clip-path="url(#clip190)" d="M859.738 1454.1 Q856.127 1454.1 854.298 1457.66 Q852.492 1461.2 852.492 1468.33 Q852.492 1475.44 854.298 1479.01 Q856.127 1482.55 859.738 1482.55 Q863.372 1482.55 865.178 1479.01 Q867.006 1475.44 867.006 1468.33 Q867.006 1461.2 865.178 1457.66 Q863.372 1454.1 859.738 1454.1 M859.738 1450.39 Q865.548 1450.39 868.603 1455 Q871.682 1459.58 871.682 1468.33 Q871.682 1477.06 868.603 1481.67 Q865.548 1486.25 859.738 1486.25 Q853.928 1486.25 850.849 1481.67 Q847.793 1477.06 847.793 1468.33 Q847.793 1459.58 850.849 1455 Q853.928 1450.39 859.738 1450.39 Z" fill="#000000" fill-rule="evenodd" fill-opacity="1" /><path clip-path="url(#clip190)" d="M1089.75 1468.75 L1119.42 1468.75 L1119.42 1472.69 L1089.75 1472.69 L1089.75 1468.75 Z" fill="#000000" fill-rule="evenodd" fill-opacity="1" /><path clip-path="url(#clip190)" d="M1139.52 1454.1 Q1135.91 1454.1 1134.08 1457.66 Q1132.27 1461.2 1132.27 1468.33 Q1132.27 1475.44 1134.08 1479.01 Q1135.91 1482.55 1139.52 1482.55 Q1143.15 1482.55 1144.96 1479.01 Q1146.79 1475.44 1146.79 1468.33 Q1146.79 1461.2 1144.96 1457.66 Q1143.15 1454.1 1139.52 1454.1 M1139.52 1450.39 Q1145.33 1450.39 1148.38 1455 Q1151.46 1459.58 1151.46 1468.33 Q1151.46 1477.06 1148.38 1481.67 Q1145.33 1486.25 1139.52 1486.25 Q1133.71 1486.25 1130.63 1481.67 Q1127.57 1477.06 1127.57 1468.33 Q1127.57 1459.58 1130.63 1455 Q1133.71 1450.39 1139.52 1450.39 Z" fill="#000000" fill-rule="evenodd" fill-opacity="1" /><path clip-path="url(#clip190)" d="M1159.68 1479.7 L1164.56 1479.7 L1164.56 1485.58 L1159.68 1485.58 L1159.68 1479.7 Z" fill="#000000" fill-rule="evenodd" fill-opacity="1" /><path clip-path="url(#clip190)" d="M1174.79 1451.02 L1193.15 1451.02 L1193.15 1454.96 L1179.08 1454.96 L1179.08 1463.43 Q1180.1 1463.08 1181.11 1462.92 Q1182.13 1462.73 1183.15 1462.73 Q1188.94 1462.73 1192.32 1465.9 Q1195.7 1469.08 1195.7 1474.49 Q1195.7 1480.07 1192.23 1483.17 Q1188.75 1486.25 1182.43 1486.25 Q1180.26 1486.25 1177.99 1485.88 Q1175.74 1485.51 1173.34 1484.77 L1173.34 1480.07 Q1175.42 1481.2 1177.64 1481.76 Q1179.86 1482.32 1182.34 1482.32 Q1186.35 1482.32 1188.68 1480.21 Q1191.02 1478.1 1191.02 1474.49 Q1191.02 1470.88 1188.68 1468.77 Q1186.35 1466.67 1182.34 1466.67 Q1180.47 1466.67 1178.59 1467.08 Q1176.74 1467.5 1174.79 1468.38 L1174.79 1451.02 Z" fill="#000000" fill-rule="evenodd" fill-opacity="1" /><path clip-path="url(#clip190)" d="M1444.62 1454.1 Q1441.01 1454.1 1439.18 1457.66 Q1437.38 1461.2 1437.38 1468.33 Q1437.38 1475.44 1439.18 1479.01 Q1441.01 1482.55 1444.62 1482.55 Q1448.26 1482.55 1450.06 1479.01 Q1451.89 1475.44 1451.89 1468.33 Q1451.89 1461.2 1450.06 1457.66 Q1448.26 1454.1 1444.62 1454.1 M1444.62 1450.39 Q1450.43 1450.39 1453.49 1455 Q1456.57 1459.58 1456.57 1468.33 Q1456.57 1477.06 1453.49 1481.67 Q1450.43 1486.25 1444.62 1486.25 Q1438.81 1486.25 1435.73 1481.67 Q1432.68 1477.06 1432.68 1468.33 Q1432.68 1459.58 1435.73 1455 Q1438.81 1450.39 1444.62 1450.39 Z" fill="#000000" fill-rule="evenodd" fill-opacity="1" /><path clip-path="url(#clip190)" d="M1464.78 1479.7 L1469.67 1479.7 L1469.67 1485.58 L1464.78 1485.58 L1464.78 1479.7 Z" fill="#000000" fill-rule="evenodd" fill-opacity="1" /><path clip-path="url(#clip190)" d="M1489.85 1454.1 Q1486.24 1454.1 1484.41 1457.66 Q1482.61 1461.2 1482.61 1468.33 Q1482.61 1475.44 1484.41 1479.01 Q1486.24 1482.55 1489.85 1482.55 Q1493.49 1482.55 1495.29 1479.01 Q1497.12 1475.44 1497.12 1468.33 Q1497.12 1461.2 1495.29 1457.66 Q1493.49 1454.1 1489.85 1454.1 M1489.85 1450.39 Q1495.66 1450.39 1498.72 1455 Q1501.8 1459.58 1501.8 1468.33 Q1501.8 1477.06 1498.72 1481.67 Q1495.66 1486.25 1489.85 1486.25 Q1484.04 1486.25 1480.96 1481.67 Q1477.91 1477.06 1477.91 1468.33 Q1477.91 1459.58 1480.96 1455 Q1484.04 1450.39 1489.85 1450.39 Z" fill="#000000" fill-rule="evenodd" fill-opacity="1" /><path clip-path="url(#clip190)" d="M1769.63 1454.1 Q1766.02 1454.1 1764.19 1457.66 Q1762.39 1461.2 1762.39 1468.33 Q1762.39 1475.44 1764.19 1479.01 Q1766.02 1482.55 1769.63 1482.55 Q1773.27 1482.55 1775.07 1479.01 Q1776.9 1475.44 1776.9 1468.33 Q1776.9 1461.2 1775.07 1457.66 Q1773.27 1454.1 1769.63 1454.1 M1769.63 1450.39 Q1775.44 1450.39 1778.5 1455 Q1781.58 1459.58 1781.58 1468.33 Q1781.58 1477.06 1778.5 1481.67 Q1775.44 1486.25 1769.63 1486.25 Q1763.82 1486.25 1760.74 1481.67 Q1757.69 1477.06 1757.69 1468.33 Q1757.69 1459.58 1760.74 1455 Q1763.82 1450.39 1769.63 1450.39 Z" fill="#000000" fill-rule="evenodd" fill-opacity="1" /><path clip-path="url(#clip190)" d="M1789.79 1479.7 L1794.68 1479.7 L1794.68 1485.58 L1789.79 1485.58 L1789.79 1479.7 Z" fill="#000000" fill-rule="evenodd" fill-opacity="1" /><path clip-path="url(#clip190)" d="M1804.91 1451.02 L1823.27 1451.02 L1823.27 1454.96 L1809.19 1454.96 L1809.19 1463.43 Q1810.21 1463.08 1811.23 1462.92 Q1812.25 1462.73 1813.27 1462.73 Q1819.05 1462.73 1822.43 1465.9 Q1825.81 1469.08 1825.81 1474.49 Q1825.81 1480.07 1822.34 1483.17 Q1818.87 1486.25 1812.55 1486.25 Q1810.37 1486.25 1808.1 1485.88 Q1805.86 1485.51 1803.45 1484.77 L1803.45 1480.07 Q1805.53 1481.2 1807.76 1481.76 Q1809.98 1482.32 1812.46 1482.32 Q1816.46 1482.32 1818.8 1480.21 Q1821.14 1478.1 1821.14 1474.49 Q1821.14 1470.88 1818.8 1468.77 Q1816.46 1466.67 1812.46 1466.67 Q1810.58 1466.67 1808.71 1467.08 Q1806.85 1467.5 1804.91 1468.38 L1804.91 1451.02 Z" fill="#000000" fill-rule="evenodd" fill-opacity="1" /><path clip-path="url(#clip190)" d="M2083.42 1481.64 L2091.05 1481.64 L2091.05 1455.28 L2082.74 1456.95 L2082.74 1452.69 L2091.01 1451.02 L2095.68 1451.02 L2095.68 1481.64 L2103.32 1481.64 L2103.32 1485.58 L2083.42 1485.58 L2083.42 1481.64 Z" fill="#000000" fill-rule="evenodd" fill-opacity="1" /><path clip-path="url(#clip190)" d="M2112.77 1479.7 L2117.65 1479.7 L2117.65 1485.58 L2112.77 1485.58 L2112.77 1479.7 Z" fill="#000000" fill-rule="evenodd" fill-opacity="1" /><path clip-path="url(#clip190)" d="M2137.84 1454.1 Q2134.23 1454.1 2132.4 1457.66 Q2130.59 1461.2 2130.59 1468.33 Q2130.59 1475.44 2132.4 1479.01 Q2134.23 1482.55 2137.84 1482.55 Q2141.47 1482.55 2143.28 1479.01 Q2145.11 1475.44 2145.11 1468.33 Q2145.11 1461.2 2143.28 1457.66 Q2141.47 1454.1 2137.84 1454.1 M2137.84 1450.39 Q2143.65 1450.39 2146.7 1455 Q2149.78 1459.58 2149.78 1468.33 Q2149.78 1477.06 2146.7 1481.67 Q2143.65 1486.25 2137.84 1486.25 Q2132.03 1486.25 2128.95 1481.67 Q2125.89 1477.06 2125.89 1468.33 Q2125.89 1459.58 2128.95 1455 Q2132.03 1450.39 2137.84 1450.39 Z" fill="#000000" fill-rule="evenodd" fill-opacity="1" /><path clip-path="url(#clip190)" d="M1316.69 1533.45 L1316.69 1538.98 Q1314.21 1537.71 1311.54 1537.07 Q1308.86 1536.44 1306 1536.44 Q1301.64 1536.44 1299.44 1537.77 Q1297.28 1539.11 1297.28 1541.79 Q1297.28 1543.82 1298.84 1545 Q1300.4 1546.15 1305.11 1547.2 L1307.11 1547.64 Q1313.35 1548.98 1315.96 1551.43 Q1318.6 1553.85 1318.6 1558.21 Q1318.6 1563.17 1314.66 1566.07 Q1310.74 1568.97 1303.87 1568.97 Q1301 1568.97 1297.88 1568.39 Q1294.79 1567.85 1291.36 1566.74 L1291.36 1560.69 Q1294.6 1562.38 1297.75 1563.24 Q1300.91 1564.07 1303.99 1564.07 Q1308.13 1564.07 1310.36 1562.66 Q1312.59 1561.23 1312.59 1558.65 Q1312.59 1556.27 1310.96 1554.99 Q1309.37 1553.72 1303.93 1552.54 L1301.89 1552.07 Q1296.45 1550.92 1294.03 1548.56 Q1291.61 1546.18 1291.61 1542.04 Q1291.61 1537.01 1295.18 1534.27 Q1298.74 1531.54 1305.3 1531.54 Q1308.54 1531.54 1311.41 1532.01 Q1314.27 1532.49 1316.69 1533.45 Z" fill="#000000" fill-rule="evenodd" fill-opacity="1" /><polyline clip-path="url(#clip192)" style="stroke:#000000; stroke-linecap:butt; stroke-linejoin:round; stroke-width:2; stroke-opacity:0.1; fill:none" points="
  257.204,1384.24 2352.76,1384.24 
  "/>
<polyline clip-path="url(#clip192)" style="stroke:#000000; stroke-linecap:butt; stroke-linejoin:round; stroke-width:2; stroke-opacity:0.1; fill:none" points="
  257.204,1059.73 2352.76,1059.73 
  "/>
<polyline clip-path="url(#clip192)" style="stroke:#000000; stroke-linecap:butt; stroke-linejoin:round; stroke-width:2; stroke-opacity:0.1; fill:none" points="
  257.204,735.212 2352.76,735.212 
  "/>
<polyline clip-path="url(#clip192)" style="stroke:#000000; stroke-linecap:butt; stroke-linejoin:round; stroke-width:2; stroke-opacity:0.1; fill:none" points="
  257.204,410.699 2352.76,410.699 
  "/>
<polyline clip-path="url(#clip192)" style="stroke:#000000; stroke-linecap:butt; stroke-linejoin:round; stroke-width:2; stroke-opacity:0.1; fill:none" points="
  257.204,86.1857 2352.76,86.1857 
  "/>
<polyline clip-path="url(#clip190)" style="stroke:#000000; stroke-linecap:butt; stroke-linejoin:round; stroke-width:4; stroke-opacity:1; fill:none" points="
  257.204,1423.18 257.204,47.2441 
  "/>
<polyline clip-path="url(#clip190)" style="stroke:#000000; stroke-linecap:butt; stroke-linejoin:round; stroke-width:4; stroke-opacity:1; fill:none" points="
  257.204,1384.24 276.102,1384.24 
  "/>
<polyline clip-path="url(#clip190)" style="stroke:#000000; stroke-linecap:butt; stroke-linejoin:round; stroke-width:4; stroke-opacity:1; fill:none" points="
  257.204,1059.73 276.102,1059.73 
  "/>
<polyline clip-path="url(#clip190)" style="stroke:#000000; stroke-linecap:butt; stroke-linejoin:round; stroke-width:4; stroke-opacity:1; fill:none" points="
  257.204,735.212 276.102,735.212 
  "/>
<polyline clip-path="url(#clip190)" style="stroke:#000000; stroke-linecap:butt; stroke-linejoin:round; stroke-width:4; stroke-opacity:1; fill:none" points="
  257.204,410.699 276.102,410.699 
  "/>
<polyline clip-path="url(#clip190)" style="stroke:#000000; stroke-linecap:butt; stroke-linejoin:round; stroke-width:4; stroke-opacity:1; fill:none" points="
  257.204,86.1857 276.102,86.1857 
  "/>
<path clip-path="url(#clip190)" d="M114.26 1384.69 L143.936 1384.69 L143.936 1388.62 L114.26 1388.62 L114.26 1384.69 Z" fill="#000000" fill-rule="evenodd" fill-opacity="1" /><path clip-path="url(#clip190)" d="M154.839 1397.58 L162.477 1397.58 L162.477 1371.22 L154.167 1372.88 L154.167 1368.62 L162.431 1366.96 L167.107 1366.96 L167.107 1397.58 L174.746 1397.58 L174.746 1401.52 L154.839 1401.52 L154.839 1397.58 Z" fill="#000000" fill-rule="evenodd" fill-opacity="1" /><path clip-path="url(#clip190)" d="M184.19 1395.64 L189.075 1395.64 L189.075 1401.52 L184.19 1401.52 L184.19 1395.64 Z" fill="#000000" fill-rule="evenodd" fill-opacity="1" /><path clip-path="url(#clip190)" d="M209.26 1370.04 Q205.649 1370.04 203.82 1373.6 Q202.014 1377.14 202.014 1384.27 Q202.014 1391.38 203.82 1394.94 Q205.649 1398.49 209.26 1398.49 Q212.894 1398.49 214.699 1394.94 Q216.528 1391.38 216.528 1384.27 Q216.528 1377.14 214.699 1373.6 Q212.894 1370.04 209.26 1370.04 M209.26 1366.33 Q215.07 1366.33 218.125 1370.94 Q221.204 1375.52 221.204 1384.27 Q221.204 1393 218.125 1397.61 Q215.07 1402.19 209.26 1402.19 Q203.449 1402.19 200.371 1397.61 Q197.315 1393 197.315 1384.27 Q197.315 1375.52 200.371 1370.94 Q203.449 1366.33 209.26 1366.33 Z" fill="#000000" fill-rule="evenodd" fill-opacity="1" /><path clip-path="url(#clip190)" d="M115.256 1060.18 L144.931 1060.18 L144.931 1064.11 L115.256 1064.11 L115.256 1060.18 Z" fill="#000000" fill-rule="evenodd" fill-opacity="1" /><path clip-path="url(#clip190)" d="M165.024 1045.52 Q161.413 1045.52 159.584 1049.09 Q157.778 1052.63 157.778 1059.76 Q157.778 1066.87 159.584 1070.43 Q161.413 1073.97 165.024 1073.97 Q168.658 1073.97 170.464 1070.43 Q172.292 1066.87 172.292 1059.76 Q172.292 1052.63 170.464 1049.09 Q168.658 1045.52 165.024 1045.52 M165.024 1041.82 Q170.834 1041.82 173.889 1046.43 Q176.968 1051.01 176.968 1059.76 Q176.968 1068.49 173.889 1073.09 Q170.834 1077.68 165.024 1077.68 Q159.214 1077.68 156.135 1073.09 Q153.079 1068.49 153.079 1059.76 Q153.079 1051.01 156.135 1046.43 Q159.214 1041.82 165.024 1041.82 Z" fill="#000000" fill-rule="evenodd" fill-opacity="1" /><path clip-path="url(#clip190)" d="M185.186 1071.13 L190.07 1071.13 L190.07 1077.01 L185.186 1077.01 L185.186 1071.13 Z" fill="#000000" fill-rule="evenodd" fill-opacity="1" /><path clip-path="url(#clip190)" d="M200.301 1042.45 L218.658 1042.45 L218.658 1046.38 L204.584 1046.38 L204.584 1054.85 Q205.602 1054.51 206.621 1054.34 Q207.639 1054.16 208.658 1054.16 Q214.445 1054.16 217.824 1057.33 Q221.204 1060.5 221.204 1065.92 Q221.204 1071.5 217.732 1074.6 Q214.26 1077.68 207.94 1077.68 Q205.764 1077.68 203.496 1077.31 Q201.25 1076.94 198.843 1076.19 L198.843 1071.5 Q200.926 1072.63 203.149 1073.19 Q205.371 1073.74 207.848 1073.74 Q211.852 1073.74 214.19 1071.63 Q216.528 1069.53 216.528 1065.92 Q216.528 1062.31 214.19 1060.2 Q211.852 1058.09 207.848 1058.09 Q205.973 1058.09 204.098 1058.51 Q202.246 1058.93 200.301 1059.81 L200.301 1042.45 Z" fill="#000000" fill-rule="evenodd" fill-opacity="1" /><path clip-path="url(#clip190)" d="M164.028 721.011 Q160.417 721.011 158.589 724.575 Q156.783 728.117 156.783 735.247 Q156.783 742.353 158.589 745.918 Q160.417 749.46 164.028 749.46 Q167.663 749.46 169.468 745.918 Q171.297 742.353 171.297 735.247 Q171.297 728.117 169.468 724.575 Q167.663 721.011 164.028 721.011 M164.028 717.307 Q169.839 717.307 172.894 721.913 Q175.973 726.497 175.973 735.247 Q175.973 743.973 172.894 748.58 Q169.839 753.163 164.028 753.163 Q158.218 753.163 155.14 748.58 Q152.084 743.973 152.084 735.247 Q152.084 726.497 155.14 721.913 Q158.218 717.307 164.028 717.307 Z" fill="#000000" fill-rule="evenodd" fill-opacity="1" /><path clip-path="url(#clip190)" d="M184.19 746.612 L189.075 746.612 L189.075 752.492 L184.19 752.492 L184.19 746.612 Z" fill="#000000" fill-rule="evenodd" fill-opacity="1" /><path clip-path="url(#clip190)" d="M209.26 721.011 Q205.649 721.011 203.82 724.575 Q202.014 728.117 202.014 735.247 Q202.014 742.353 203.82 745.918 Q205.649 749.46 209.26 749.46 Q212.894 749.46 214.699 745.918 Q216.528 742.353 216.528 735.247 Q216.528 728.117 214.699 724.575 Q212.894 721.011 209.26 721.011 M209.26 717.307 Q215.07 717.307 218.125 721.913 Q221.204 726.497 221.204 735.247 Q221.204 743.973 218.125 748.58 Q215.07 753.163 209.26 753.163 Q203.449 753.163 200.371 748.58 Q197.315 743.973 197.315 735.247 Q197.315 726.497 200.371 721.913 Q203.449 717.307 209.26 717.307 Z" fill="#000000" fill-rule="evenodd" fill-opacity="1" /><path clip-path="url(#clip190)" d="M165.024 396.498 Q161.413 396.498 159.584 400.062 Q157.778 403.604 157.778 410.734 Q157.778 417.84 159.584 421.405 Q161.413 424.946 165.024 424.946 Q168.658 424.946 170.464 421.405 Q172.292 417.84 172.292 410.734 Q172.292 403.604 170.464 400.062 Q168.658 396.498 165.024 396.498 M165.024 392.794 Q170.834 392.794 173.889 397.4 Q176.968 401.984 176.968 410.734 Q176.968 419.46 173.889 424.067 Q170.834 428.65 165.024 428.65 Q159.214 428.65 156.135 424.067 Q153.079 419.46 153.079 410.734 Q153.079 401.984 156.135 397.4 Q159.214 392.794 165.024 392.794 Z" fill="#000000" fill-rule="evenodd" fill-opacity="1" /><path clip-path="url(#clip190)" d="M185.186 422.099 L190.07 422.099 L190.07 427.979 L185.186 427.979 L185.186 422.099 Z" fill="#000000" fill-rule="evenodd" fill-opacity="1" /><path clip-path="url(#clip190)" d="M200.301 393.419 L218.658 393.419 L218.658 397.354 L204.584 397.354 L204.584 405.826 Q205.602 405.479 206.621 405.317 Q207.639 405.132 208.658 405.132 Q214.445 405.132 217.824 408.303 Q221.204 411.474 221.204 416.891 Q221.204 422.47 217.732 425.571 Q214.26 428.65 207.94 428.65 Q205.764 428.65 203.496 428.28 Q201.25 427.909 198.843 427.169 L198.843 422.47 Q200.926 423.604 203.149 424.159 Q205.371 424.715 207.848 424.715 Q211.852 424.715 214.19 422.608 Q216.528 420.502 216.528 416.891 Q216.528 413.28 214.19 411.173 Q211.852 409.067 207.848 409.067 Q205.973 409.067 204.098 409.484 Q202.246 409.9 200.301 410.78 L200.301 393.419 Z" fill="#000000" fill-rule="evenodd" fill-opacity="1" /><path clip-path="url(#clip190)" d="M154.839 99.5305 L162.477 99.5305 L162.477 73.1649 L154.167 74.8316 L154.167 70.5723 L162.431 68.9057 L167.107 68.9057 L167.107 99.5305 L174.746 99.5305 L174.746 103.466 L154.839 103.466 L154.839 99.5305 Z" fill="#000000" fill-rule="evenodd" fill-opacity="1" /><path clip-path="url(#clip190)" d="M184.19 97.5861 L189.075 97.5861 L189.075 103.466 L184.19 103.466 L184.19 97.5861 Z" fill="#000000" fill-rule="evenodd" fill-opacity="1" /><path clip-path="url(#clip190)" d="M209.26 71.9844 Q205.649 71.9844 203.82 75.5492 Q202.014 79.0908 202.014 86.2204 Q202.014 93.3268 203.82 96.8916 Q205.649 100.433 209.26 100.433 Q212.894 100.433 214.699 96.8916 Q216.528 93.3268 216.528 86.2204 Q216.528 79.0908 214.699 75.5492 Q212.894 71.9844 209.26 71.9844 M209.26 68.2807 Q215.07 68.2807 218.125 72.8871 Q221.204 77.4704 221.204 86.2204 Q221.204 94.9472 218.125 99.5537 Q215.07 104.137 209.26 104.137 Q203.449 104.137 200.371 99.5537 Q197.315 94.9472 197.315 86.2204 Q197.315 77.4704 200.371 72.8871 Q203.449 68.2807 209.26 68.2807 Z" fill="#000000" fill-rule="evenodd" fill-opacity="1" /><path clip-path="url(#clip190)" d="M28.3562 718.597 L45.7028 731.488 L64.0042 717.929 L64.0042 724.836 L49.9996 735.212 L64.0042 745.588 L64.0042 752.495 L45.3526 738.649 L28.3562 751.317 L28.3562 744.41 L41.0558 734.957 L28.3562 725.504 L28.3562 718.597 Z" fill="#000000" fill-rule="evenodd" fill-opacity="1" /><polyline clip-path="url(#clip192)" style="stroke:#009af9; stroke-linecap:butt; stroke-linejoin:round; stroke-width:4; stroke-opacity:1; fill:none" points="
  818.21,1384.24 819.267,1337.22 820.323,1293.49 821.379,1252.71 822.436,1214.59 823.492,1178.88 824.549,1145.36 825.077,1129.36 825.605,1113.83 826.133,1098.76 
  826.661,1084.12 827.882,1051.85 829.103,1021.6 830.324,993.177 831.545,966.43 832.766,941.212 833.987,917.395 835.208,894.866 836.429,873.523 837.65,853.274 
  838.871,834.037 840.092,815.739 841.313,798.312 843.755,765.833 846.197,736.177 848.639,708.992 851.081,683.979 853.523,660.888 855.965,639.506 858.406,619.649 
  860.848,601.16 863.29,583.901 865.732,567.754 868.174,552.614 870.616,538.389 873.058,525 875.5,512.373 880.384,489.162 885.268,468.323 890.152,449.511 
  895.036,432.441 899.919,416.882 904.803,402.641 910.673,387.041 916.543,372.88 922.413,359.966 928.283,348.141 940.023,327.244 951.763,309.353 961.689,296.113 
  971.615,284.303 981.541,273.7 991.467,264.124 1013.03,246.206 1034.6,231.382 1054.48,219.803 1074.36,209.793 1095.67,200.458 1116.99,192.289 1141.68,184.005 
  1166.38,176.749 1210.27,165.824 1248.76,157.834 1290.72,150.393 1332.94,143.939 1379.61,137.737 1424.01,132.551 1470.19,127.744 1509.06,124.074 1556.51,119.975 
  1599.98,116.524 1640.13,113.552 1680.8,110.718 1726.37,107.72 1767.68,105.14 1814.96,102.318 1858.75,99.8083 1901.91,97.4133 1943.82,95.1481 1986.78,92.8738 
  2033.86,90.4224 2102.23,86.9047 2116.26,86.1857 
  "/>
<polyline clip-path="url(#clip192)" style="stroke:#b2b2b2; stroke-linecap:butt; stroke-linejoin:round; stroke-width:4; stroke-opacity:1; fill:none" points="
  493.697,1384.24 818.21,1384.24 
  "/>
<circle clip-path="url(#clip192)" cx="493.697" cy="1384.24" r="7.2" fill="#b2b2b2" fill-rule="evenodd" fill-opacity="1" stroke="#000000" stroke-opacity="1" stroke-width="3.2"/>
<circle clip-path="url(#clip192)" cx="818.21" cy="1384.24" r="7.2" fill="#b2b2b2" fill-rule="evenodd" fill-opacity="1" stroke="#000000" stroke-opacity="1" stroke-width="3.2"/>
<polyline clip-path="url(#clip192)" style="stroke:#b2b2b2; stroke-linecap:butt; stroke-linejoin:round; stroke-width:4; stroke-opacity:1; fill:none" points="
  493.697,688.128 850.662,688.128 
  "/>
<circle clip-path="url(#clip192)" cx="493.697" cy="688.128" r="7.2" fill="#b2b2b2" fill-rule="evenodd" fill-opacity="1" stroke="#000000" stroke-opacity="1" stroke-width="3.2"/>
<circle clip-path="url(#clip192)" cx="850.662" cy="688.128" r="7.2" fill="#b2b2b2" fill-rule="evenodd" fill-opacity="1" stroke="#000000" stroke-opacity="1" stroke-width="3.2"/>
<polyline clip-path="url(#clip192)" style="stroke:#b2b2b2; stroke-linecap:butt; stroke-linejoin:round; stroke-width:4; stroke-opacity:1; fill:none" points="
  493.697,477.249 883.113,477.249 
  "/>
<circle clip-path="url(#clip192)" cx="493.697" cy="477.249" r="7.2" fill="#b2b2b2" fill-rule="evenodd" fill-opacity="1" stroke="#000000" stroke-opacity="1" stroke-width="3.2"/>
<circle clip-path="url(#clip192)" cx="883.113" cy="477.249" r="7.2" fill="#b2b2b2" fill-rule="evenodd" fill-opacity="1" stroke="#000000" stroke-opacity="1" stroke-width="3.2"/>
<polyline clip-path="url(#clip192)" style="stroke:#b2b2b2; stroke-linecap:butt; stroke-linejoin:round; stroke-width:4; stroke-opacity:1; fill:none" points="
  493.697,375.151 915.564,375.151 
  "/>
<circle clip-path="url(#clip192)" cx="493.697" cy="375.151" r="7.2" fill="#b2b2b2" fill-rule="evenodd" fill-opacity="1" stroke="#000000" stroke-opacity="1" stroke-width="3.2"/>
<circle clip-path="url(#clip192)" cx="915.564" cy="375.151" r="7.2" fill="#b2b2b2" fill-rule="evenodd" fill-opacity="1" stroke="#000000" stroke-opacity="1" stroke-width="3.2"/>
<polyline clip-path="url(#clip192)" style="stroke:#b2b2b2; stroke-linecap:butt; stroke-linejoin:round; stroke-width:4; stroke-opacity:1; fill:none" points="
  493.697,314.778 948.016,314.778 
  "/>
<circle clip-path="url(#clip192)" cx="493.697" cy="314.778" r="7.2" fill="#b2b2b2" fill-rule="evenodd" fill-opacity="1" stroke="#000000" stroke-opacity="1" stroke-width="3.2"/>
<circle clip-path="url(#clip192)" cx="948.016" cy="314.778" r="7.2" fill="#b2b2b2" fill-rule="evenodd" fill-opacity="1" stroke="#000000" stroke-opacity="1" stroke-width="3.2"/>
<polyline clip-path="url(#clip192)" style="stroke:#b2b2b2; stroke-linecap:butt; stroke-linejoin:round; stroke-width:4; stroke-opacity:1; fill:none" points="
  493.697,274.795 980.467,274.795 
  "/>
<circle clip-path="url(#clip192)" cx="493.697" cy="274.795" r="7.2" fill="#b2b2b2" fill-rule="evenodd" fill-opacity="1" stroke="#000000" stroke-opacity="1" stroke-width="3.2"/>
<circle clip-path="url(#clip192)" cx="980.467" cy="274.795" r="7.2" fill="#b2b2b2" fill-rule="evenodd" fill-opacity="1" stroke="#000000" stroke-opacity="1" stroke-width="3.2"/>
<polyline clip-path="url(#clip192)" style="stroke:#b2b2b2; stroke-linecap:butt; stroke-linejoin:round; stroke-width:4; stroke-opacity:1; fill:none" points="
  493.697,246.292 1012.92,246.292 
  "/>
<circle clip-path="url(#clip192)" cx="493.697" cy="246.292" r="7.2" fill="#b2b2b2" fill-rule="evenodd" fill-opacity="1" stroke="#000000" stroke-opacity="1" stroke-width="3.2"/>
<circle clip-path="url(#clip192)" cx="1012.92" cy="246.292" r="7.2" fill="#b2b2b2" fill-rule="evenodd" fill-opacity="1" stroke="#000000" stroke-opacity="1" stroke-width="3.2"/>
<polyline clip-path="url(#clip192)" style="stroke:#b2b2b2; stroke-linecap:butt; stroke-linejoin:round; stroke-width:4; stroke-opacity:1; fill:none" points="
  493.697,224.891 1045.37,224.891 
  "/>
<circle clip-path="url(#clip192)" cx="493.697" cy="224.891" r="7.2" fill="#b2b2b2" fill-rule="evenodd" fill-opacity="1" stroke="#000000" stroke-opacity="1" stroke-width="3.2"/>
<circle clip-path="url(#clip192)" cx="1045.37" cy="224.891" r="7.2" fill="#b2b2b2" fill-rule="evenodd" fill-opacity="1" stroke="#000000" stroke-opacity="1" stroke-width="3.2"/>
<polyline clip-path="url(#clip192)" style="stroke:#b2b2b2; stroke-linecap:butt; stroke-linejoin:round; stroke-width:4; stroke-opacity:1; fill:none" points="
  493.697,208.187 1077.82,208.187 
  "/>
<circle clip-path="url(#clip192)" cx="493.697" cy="208.187" r="7.2" fill="#b2b2b2" fill-rule="evenodd" fill-opacity="1" stroke="#000000" stroke-opacity="1" stroke-width="3.2"/>
<circle clip-path="url(#clip192)" cx="1077.82" cy="208.187" r="7.2" fill="#b2b2b2" fill-rule="evenodd" fill-opacity="1" stroke="#000000" stroke-opacity="1" stroke-width="3.2"/>
<polyline clip-path="url(#clip192)" style="stroke:#b2b2b2; stroke-linecap:butt; stroke-linejoin:round; stroke-width:4; stroke-opacity:1; fill:none" points="
  493.697,194.751 1110.27,194.751 
  "/>
<circle clip-path="url(#clip192)" cx="493.697" cy="194.751" r="7.2" fill="#b2b2b2" fill-rule="evenodd" fill-opacity="1" stroke="#000000" stroke-opacity="1" stroke-width="3.2"/>
<circle clip-path="url(#clip192)" cx="1110.27" cy="194.751" r="7.2" fill="#b2b2b2" fill-rule="evenodd" fill-opacity="1" stroke="#000000" stroke-opacity="1" stroke-width="3.2"/>
<polyline clip-path="url(#clip192)" style="stroke:#b2b2b2; stroke-linecap:butt; stroke-linejoin:round; stroke-width:4; stroke-opacity:1; fill:none" points="
  493.697,183.68 1142.72,183.68 
  "/>
<circle clip-path="url(#clip192)" cx="493.697" cy="183.68" r="7.2" fill="#b2b2b2" fill-rule="evenodd" fill-opacity="1" stroke="#000000" stroke-opacity="1" stroke-width="3.2"/>
<circle clip-path="url(#clip192)" cx="1142.72" cy="183.68" r="7.2" fill="#b2b2b2" fill-rule="evenodd" fill-opacity="1" stroke="#000000" stroke-opacity="1" stroke-width="3.2"/>
<polyline clip-path="url(#clip192)" style="stroke:#b2b2b2; stroke-linecap:butt; stroke-linejoin:round; stroke-width:4; stroke-opacity:1; fill:none" points="
  493.697,174.374 1175.17,174.374 
  "/>
<circle clip-path="url(#clip192)" cx="493.697" cy="174.374" r="7.2" fill="#b2b2b2" fill-rule="evenodd" fill-opacity="1" stroke="#000000" stroke-opacity="1" stroke-width="3.2"/>
<circle clip-path="url(#clip192)" cx="1175.17" cy="174.374" r="7.2" fill="#b2b2b2" fill-rule="evenodd" fill-opacity="1" stroke="#000000" stroke-opacity="1" stroke-width="3.2"/>
<polyline clip-path="url(#clip192)" style="stroke:#b2b2b2; stroke-linecap:butt; stroke-linejoin:round; stroke-width:4; stroke-opacity:1; fill:none" points="
  493.697,166.422 1207.63,166.422 
  "/>
<circle clip-path="url(#clip192)" cx="493.697" cy="166.422" r="7.2" fill="#b2b2b2" fill-rule="evenodd" fill-opacity="1" stroke="#000000" stroke-opacity="1" stroke-width="3.2"/>
<circle clip-path="url(#clip192)" cx="1207.63" cy="166.422" r="7.2" fill="#b2b2b2" fill-rule="evenodd" fill-opacity="1" stroke="#000000" stroke-opacity="1" stroke-width="3.2"/>
<polyline clip-path="url(#clip192)" style="stroke:#b2b2b2; stroke-linecap:butt; stroke-linejoin:round; stroke-width:4; stroke-opacity:1; fill:none" points="
  493.697,159.528 1240.08,159.528 
  "/>
<circle clip-path="url(#clip192)" cx="493.697" cy="159.528" r="7.2" fill="#b2b2b2" fill-rule="evenodd" fill-opacity="1" stroke="#000000" stroke-opacity="1" stroke-width="3.2"/>
<circle clip-path="url(#clip192)" cx="1240.08" cy="159.528" r="7.2" fill="#b2b2b2" fill-rule="evenodd" fill-opacity="1" stroke="#000000" stroke-opacity="1" stroke-width="3.2"/>
<polyline clip-path="url(#clip192)" style="stroke:#b2b2b2; stroke-linecap:butt; stroke-linejoin:round; stroke-width:4; stroke-opacity:1; fill:none" points="
  493.697,153.477 1272.53,153.477 
  "/>
<circle clip-path="url(#clip192)" cx="493.697" cy="153.477" r="7.2" fill="#b2b2b2" fill-rule="evenodd" fill-opacity="1" stroke="#000000" stroke-opacity="1" stroke-width="3.2"/>
<circle clip-path="url(#clip192)" cx="1272.53" cy="153.477" r="7.2" fill="#b2b2b2" fill-rule="evenodd" fill-opacity="1" stroke="#000000" stroke-opacity="1" stroke-width="3.2"/>
<polyline clip-path="url(#clip192)" style="stroke:#b2b2b2; stroke-linecap:butt; stroke-linejoin:round; stroke-width:4; stroke-opacity:1; fill:none" points="
  493.697,148.11 1304.98,148.11 
  "/>
<circle clip-path="url(#clip192)" cx="493.697" cy="148.11" r="7.2" fill="#b2b2b2" fill-rule="evenodd" fill-opacity="1" stroke="#000000" stroke-opacity="1" stroke-width="3.2"/>
<circle clip-path="url(#clip192)" cx="1304.98" cy="148.11" r="7.2" fill="#b2b2b2" fill-rule="evenodd" fill-opacity="1" stroke="#000000" stroke-opacity="1" stroke-width="3.2"/>
<polyline clip-path="url(#clip192)" style="stroke:#b2b2b2; stroke-linecap:butt; stroke-linejoin:round; stroke-width:4; stroke-opacity:1; fill:none" points="
  493.697,143.302 1337.43,143.302 
  "/>
<circle clip-path="url(#clip192)" cx="493.697" cy="143.302" r="7.2" fill="#b2b2b2" fill-rule="evenodd" fill-opacity="1" stroke="#000000" stroke-opacity="1" stroke-width="3.2"/>
<circle clip-path="url(#clip192)" cx="1337.43" cy="143.302" r="7.2" fill="#b2b2b2" fill-rule="evenodd" fill-opacity="1" stroke="#000000" stroke-opacity="1" stroke-width="3.2"/>
<polyline clip-path="url(#clip192)" style="stroke:#b2b2b2; stroke-linecap:butt; stroke-linejoin:round; stroke-width:4; stroke-opacity:1; fill:none" points="
  493.697,138.96 1369.88,138.96 
  "/>
<circle clip-path="url(#clip192)" cx="493.697" cy="138.96" r="7.2" fill="#b2b2b2" fill-rule="evenodd" fill-opacity="1" stroke="#000000" stroke-opacity="1" stroke-width="3.2"/>
<circle clip-path="url(#clip192)" cx="1369.88" cy="138.96" r="7.2" fill="#b2b2b2" fill-rule="evenodd" fill-opacity="1" stroke="#000000" stroke-opacity="1" stroke-width="3.2"/>
<polyline clip-path="url(#clip192)" style="stroke:#b2b2b2; stroke-linecap:butt; stroke-linejoin:round; stroke-width:4; stroke-opacity:1; fill:none" points="
  493.697,135.006 1402.33,135.006 
  "/>
<circle clip-path="url(#clip192)" cx="493.697" cy="135.006" r="7.2" fill="#b2b2b2" fill-rule="evenodd" fill-opacity="1" stroke="#000000" stroke-opacity="1" stroke-width="3.2"/>
<circle clip-path="url(#clip192)" cx="1402.33" cy="135.006" r="7.2" fill="#b2b2b2" fill-rule="evenodd" fill-opacity="1" stroke="#000000" stroke-opacity="1" stroke-width="3.2"/>
<polyline clip-path="url(#clip192)" style="stroke:#b2b2b2; stroke-linecap:butt; stroke-linejoin:round; stroke-width:4; stroke-opacity:1; fill:none" points="
  493.697,131.381 1434.79,131.381 
  "/>
<circle clip-path="url(#clip192)" cx="493.697" cy="131.381" r="7.2" fill="#b2b2b2" fill-rule="evenodd" fill-opacity="1" stroke="#000000" stroke-opacity="1" stroke-width="3.2"/>
<circle clip-path="url(#clip192)" cx="1434.79" cy="131.381" r="7.2" fill="#b2b2b2" fill-rule="evenodd" fill-opacity="1" stroke="#000000" stroke-opacity="1" stroke-width="3.2"/>
<polyline clip-path="url(#clip192)" style="stroke:#b2b2b2; stroke-linecap:butt; stroke-linejoin:round; stroke-width:4; stroke-opacity:1; fill:none" points="
  493.697,128.036 1467.24,128.036 
  "/>
<circle clip-path="url(#clip192)" cx="493.697" cy="128.036" r="7.2" fill="#b2b2b2" fill-rule="evenodd" fill-opacity="1" stroke="#000000" stroke-opacity="1" stroke-width="3.2"/>
<circle clip-path="url(#clip192)" cx="1467.24" cy="128.036" r="7.2" fill="#b2b2b2" fill-rule="evenodd" fill-opacity="1" stroke="#000000" stroke-opacity="1" stroke-width="3.2"/>
<polyline clip-path="url(#clip192)" style="stroke:#b2b2b2; stroke-linecap:butt; stroke-linejoin:round; stroke-width:4; stroke-opacity:1; fill:none" points="
  493.697,124.931 1499.69,124.931 
  "/>
<circle clip-path="url(#clip192)" cx="493.697" cy="124.931" r="7.2" fill="#b2b2b2" fill-rule="evenodd" fill-opacity="1" stroke="#000000" stroke-opacity="1" stroke-width="3.2"/>
<circle clip-path="url(#clip192)" cx="1499.69" cy="124.931" r="7.2" fill="#b2b2b2" fill-rule="evenodd" fill-opacity="1" stroke="#000000" stroke-opacity="1" stroke-width="3.2"/>
<polyline clip-path="url(#clip192)" style="stroke:#b2b2b2; stroke-linecap:butt; stroke-linejoin:round; stroke-width:4; stroke-opacity:1; fill:none" points="
  493.697,122.032 1532.14,122.032 
  "/>
<circle clip-path="url(#clip192)" cx="493.697" cy="122.032" r="7.2" fill="#b2b2b2" fill-rule="evenodd" fill-opacity="1" stroke="#000000" stroke-opacity="1" stroke-width="3.2"/>
<circle clip-path="url(#clip192)" cx="1532.14" cy="122.032" r="7.2" fill="#b2b2b2" fill-rule="evenodd" fill-opacity="1" stroke="#000000" stroke-opacity="1" stroke-width="3.2"/>
<polyline clip-path="url(#clip192)" style="stroke:#b2b2b2; stroke-linecap:butt; stroke-linejoin:round; stroke-width:4; stroke-opacity:1; fill:none" points="
  493.697,119.313 1564.59,119.313 
  "/>
<circle clip-path="url(#clip192)" cx="493.697" cy="119.313" r="7.2" fill="#b2b2b2" fill-rule="evenodd" fill-opacity="1" stroke="#000000" stroke-opacity="1" stroke-width="3.2"/>
<circle clip-path="url(#clip192)" cx="1564.59" cy="119.313" r="7.2" fill="#b2b2b2" fill-rule="evenodd" fill-opacity="1" stroke="#000000" stroke-opacity="1" stroke-width="3.2"/>
<polyline clip-path="url(#clip192)" style="stroke:#b2b2b2; stroke-linecap:butt; stroke-linejoin:round; stroke-width:4; stroke-opacity:1; fill:none" points="
  493.697,116.749 1597.04,116.749 
  "/>
<circle clip-path="url(#clip192)" cx="493.697" cy="116.749" r="7.2" fill="#b2b2b2" fill-rule="evenodd" fill-opacity="1" stroke="#000000" stroke-opacity="1" stroke-width="3.2"/>
<circle clip-path="url(#clip192)" cx="1597.04" cy="116.749" r="7.2" fill="#b2b2b2" fill-rule="evenodd" fill-opacity="1" stroke="#000000" stroke-opacity="1" stroke-width="3.2"/>
<polyline clip-path="url(#clip192)" style="stroke:#b2b2b2; stroke-linecap:butt; stroke-linejoin:round; stroke-width:4; stroke-opacity:1; fill:none" points="
  493.697,114.321 1629.49,114.321 
  "/>
<circle clip-path="url(#clip192)" cx="493.697" cy="114.321" r="7.2" fill="#b2b2b2" fill-rule="evenodd" fill-opacity="1" stroke="#000000" stroke-opacity="1" stroke-width="3.2"/>
<circle clip-path="url(#clip192)" cx="1629.49" cy="114.321" r="7.2" fill="#b2b2b2" fill-rule="evenodd" fill-opacity="1" stroke="#000000" stroke-opacity="1" stroke-width="3.2"/>
<polyline clip-path="url(#clip192)" style="stroke:#b2b2b2; stroke-linecap:butt; stroke-linejoin:round; stroke-width:4; stroke-opacity:1; fill:none" points="
  493.697,112.011 1661.94,112.011 
  "/>
<circle clip-path="url(#clip192)" cx="493.697" cy="112.011" r="7.2" fill="#b2b2b2" fill-rule="evenodd" fill-opacity="1" stroke="#000000" stroke-opacity="1" stroke-width="3.2"/>
<circle clip-path="url(#clip192)" cx="1661.94" cy="112.011" r="7.2" fill="#b2b2b2" fill-rule="evenodd" fill-opacity="1" stroke="#000000" stroke-opacity="1" stroke-width="3.2"/>
<polyline clip-path="url(#clip192)" style="stroke:#b2b2b2; stroke-linecap:butt; stroke-linejoin:round; stroke-width:4; stroke-opacity:1; fill:none" points="
  493.697,109.805 1694.4,109.805 
  "/>
<circle clip-path="url(#clip192)" cx="493.697" cy="109.805" r="7.2" fill="#b2b2b2" fill-rule="evenodd" fill-opacity="1" stroke="#000000" stroke-opacity="1" stroke-width="3.2"/>
<circle clip-path="url(#clip192)" cx="1694.4" cy="109.805" r="7.2" fill="#b2b2b2" fill-rule="evenodd" fill-opacity="1" stroke="#000000" stroke-opacity="1" stroke-width="3.2"/>
<polyline clip-path="url(#clip192)" style="stroke:#b2b2b2; stroke-linecap:butt; stroke-linejoin:round; stroke-width:4; stroke-opacity:1; fill:none" points="
  493.697,107.69 1726.85,107.69 
  "/>
<circle clip-path="url(#clip192)" cx="493.697" cy="107.69" r="7.2" fill="#b2b2b2" fill-rule="evenodd" fill-opacity="1" stroke="#000000" stroke-opacity="1" stroke-width="3.2"/>
<circle clip-path="url(#clip192)" cx="1726.85" cy="107.69" r="7.2" fill="#b2b2b2" fill-rule="evenodd" fill-opacity="1" stroke="#000000" stroke-opacity="1" stroke-width="3.2"/>
<polyline clip-path="url(#clip192)" style="stroke:#b2b2b2; stroke-linecap:butt; stroke-linejoin:round; stroke-width:4; stroke-opacity:1; fill:none" points="
  493.697,105.654 1759.3,105.654 
  "/>
<circle clip-path="url(#clip192)" cx="493.697" cy="105.654" r="7.2" fill="#b2b2b2" fill-rule="evenodd" fill-opacity="1" stroke="#000000" stroke-opacity="1" stroke-width="3.2"/>
<circle clip-path="url(#clip192)" cx="1759.3" cy="105.654" r="7.2" fill="#b2b2b2" fill-rule="evenodd" fill-opacity="1" stroke="#000000" stroke-opacity="1" stroke-width="3.2"/>
<polyline clip-path="url(#clip192)" style="stroke:#b2b2b2; stroke-linecap:butt; stroke-linejoin:round; stroke-width:4; stroke-opacity:1; fill:none" points="
  493.697,103.687 1791.75,103.687 
  "/>
<circle clip-path="url(#clip192)" cx="493.697" cy="103.687" r="7.2" fill="#b2b2b2" fill-rule="evenodd" fill-opacity="1" stroke="#000000" stroke-opacity="1" stroke-width="3.2"/>
<circle clip-path="url(#clip192)" cx="1791.75" cy="103.687" r="7.2" fill="#b2b2b2" fill-rule="evenodd" fill-opacity="1" stroke="#000000" stroke-opacity="1" stroke-width="3.2"/>
<polyline clip-path="url(#clip192)" style="stroke:#b2b2b2; stroke-linecap:butt; stroke-linejoin:round; stroke-width:4; stroke-opacity:1; fill:none" points="
  493.697,101.781 1824.2,101.781 
  "/>
<circle clip-path="url(#clip192)" cx="493.697" cy="101.781" r="7.2" fill="#b2b2b2" fill-rule="evenodd" fill-opacity="1" stroke="#000000" stroke-opacity="1" stroke-width="3.2"/>
<circle clip-path="url(#clip192)" cx="1824.2" cy="101.781" r="7.2" fill="#b2b2b2" fill-rule="evenodd" fill-opacity="1" stroke="#000000" stroke-opacity="1" stroke-width="3.2"/>
<polyline clip-path="url(#clip192)" style="stroke:#b2b2b2; stroke-linecap:butt; stroke-linejoin:round; stroke-width:4; stroke-opacity:1; fill:none" points="
  493.697,99.9263 1856.65,99.9263 
  "/>
<circle clip-path="url(#clip192)" cx="493.697" cy="99.9263" r="7.2" fill="#b2b2b2" fill-rule="evenodd" fill-opacity="1" stroke="#000000" stroke-opacity="1" stroke-width="3.2"/>
<circle clip-path="url(#clip192)" cx="1856.65" cy="99.9263" r="7.2" fill="#b2b2b2" fill-rule="evenodd" fill-opacity="1" stroke="#000000" stroke-opacity="1" stroke-width="3.2"/>
<polyline clip-path="url(#clip192)" style="stroke:#b2b2b2; stroke-linecap:butt; stroke-linejoin:round; stroke-width:4; stroke-opacity:1; fill:none" points="
  493.697,98.1167 1889.1,98.1167 
  "/>
<circle clip-path="url(#clip192)" cx="493.697" cy="98.1167" r="7.2" fill="#b2b2b2" fill-rule="evenodd" fill-opacity="1" stroke="#000000" stroke-opacity="1" stroke-width="3.2"/>
<circle clip-path="url(#clip192)" cx="1889.1" cy="98.1167" r="7.2" fill="#b2b2b2" fill-rule="evenodd" fill-opacity="1" stroke="#000000" stroke-opacity="1" stroke-width="3.2"/>
<polyline clip-path="url(#clip192)" style="stroke:#b2b2b2; stroke-linecap:butt; stroke-linejoin:round; stroke-width:4; stroke-opacity:1; fill:none" points="
  493.697,96.345 1921.55,96.345 
  "/>
<circle clip-path="url(#clip192)" cx="493.697" cy="96.345" r="7.2" fill="#b2b2b2" fill-rule="evenodd" fill-opacity="1" stroke="#000000" stroke-opacity="1" stroke-width="3.2"/>
<circle clip-path="url(#clip192)" cx="1921.55" cy="96.345" r="7.2" fill="#b2b2b2" fill-rule="evenodd" fill-opacity="1" stroke="#000000" stroke-opacity="1" stroke-width="3.2"/>
<polyline clip-path="url(#clip192)" style="stroke:#b2b2b2; stroke-linecap:butt; stroke-linejoin:round; stroke-width:4; stroke-opacity:1; fill:none" points="
  493.697,94.6051 1954.01,94.6051 
  "/>
<circle clip-path="url(#clip192)" cx="493.697" cy="94.6051" r="7.2" fill="#b2b2b2" fill-rule="evenodd" fill-opacity="1" stroke="#000000" stroke-opacity="1" stroke-width="3.2"/>
<circle clip-path="url(#clip192)" cx="1954.01" cy="94.6051" r="7.2" fill="#b2b2b2" fill-rule="evenodd" fill-opacity="1" stroke="#000000" stroke-opacity="1" stroke-width="3.2"/>
<polyline clip-path="url(#clip192)" style="stroke:#b2b2b2; stroke-linecap:butt; stroke-linejoin:round; stroke-width:4; stroke-opacity:1; fill:none" points="
  493.697,92.891 1986.46,92.891 
  "/>
<circle clip-path="url(#clip192)" cx="493.697" cy="92.891" r="7.2" fill="#b2b2b2" fill-rule="evenodd" fill-opacity="1" stroke="#000000" stroke-opacity="1" stroke-width="3.2"/>
<circle clip-path="url(#clip192)" cx="1986.46" cy="92.891" r="7.2" fill="#b2b2b2" fill-rule="evenodd" fill-opacity="1" stroke="#000000" stroke-opacity="1" stroke-width="3.2"/>
<polyline clip-path="url(#clip192)" style="stroke:#b2b2b2; stroke-linecap:butt; stroke-linejoin:round; stroke-width:4; stroke-opacity:1; fill:none" points="
  493.697,91.1972 2018.91,91.1972 
  "/>
<circle clip-path="url(#clip192)" cx="493.697" cy="91.1972" r="7.2" fill="#b2b2b2" fill-rule="evenodd" fill-opacity="1" stroke="#000000" stroke-opacity="1" stroke-width="3.2"/>
<circle clip-path="url(#clip192)" cx="2018.91" cy="91.1972" r="7.2" fill="#b2b2b2" fill-rule="evenodd" fill-opacity="1" stroke="#000000" stroke-opacity="1" stroke-width="3.2"/>
<polyline clip-path="url(#clip192)" style="stroke:#b2b2b2; stroke-linecap:butt; stroke-linejoin:round; stroke-width:4; stroke-opacity:1; fill:none" points="
  493.697,89.5184 2051.36,89.5184 
  "/>
<circle clip-path="url(#clip192)" cx="493.697" cy="89.5184" r="7.2" fill="#b2b2b2" fill-rule="evenodd" fill-opacity="1" stroke="#000000" stroke-opacity="1" stroke-width="3.2"/>
<circle clip-path="url(#clip192)" cx="2051.36" cy="89.5184" r="7.2" fill="#b2b2b2" fill-rule="evenodd" fill-opacity="1" stroke="#000000" stroke-opacity="1" stroke-width="3.2"/>
<polyline clip-path="url(#clip192)" style="stroke:#b2b2b2; stroke-linecap:butt; stroke-linejoin:round; stroke-width:4; stroke-opacity:1; fill:none" points="
  493.697,87.8496 2083.81,87.8496 
  "/>
<circle clip-path="url(#clip192)" cx="493.697" cy="87.8496" r="7.2" fill="#b2b2b2" fill-rule="evenodd" fill-opacity="1" stroke="#000000" stroke-opacity="1" stroke-width="3.2"/>
<circle clip-path="url(#clip192)" cx="2083.81" cy="87.8496" r="7.2" fill="#b2b2b2" fill-rule="evenodd" fill-opacity="1" stroke="#000000" stroke-opacity="1" stroke-width="3.2"/>
<polyline clip-path="url(#clip192)" style="stroke:#b2b2b2; stroke-linecap:butt; stroke-linejoin:round; stroke-width:4; stroke-opacity:1; fill:none" points="
  493.697,86.1857 2116.26,86.1857 
  "/>
<circle clip-path="url(#clip192)" cx="493.697" cy="86.1857" r="7.2" fill="#b2b2b2" fill-rule="evenodd" fill-opacity="1" stroke="#000000" stroke-opacity="1" stroke-width="3.2"/>
<circle clip-path="url(#clip192)" cx="2116.26" cy="86.1857" r="7.2" fill="#b2b2b2" fill-rule="evenodd" fill-opacity="1" stroke="#000000" stroke-opacity="1" stroke-width="3.2"/>
</svg>
