<?xml version="1.0" encoding="utf-8"?>
<svg xmlns="http://www.w3.org/2000/svg" xmlns:xlink="http://www.w3.org/1999/xlink" width="600" height="400" viewBox="0 0 2400 1600">
<defs>
  <clipPath id="clip960">
    <rect x="0" y="0" width="2400" height="1600"/>
  </clipPath>
</defs>
<path clip-path="url(#clip960)" d="
M0 1600 L2400 1600 L2400 0 L0 0  Z
  " fill="#ffffff" fill-rule="evenodd" fill-opacity="1"/>
<defs>
  <clipPath id="clip961">
    <rect x="480" y="0" width="1681" height="1600"/>
  </clipPath>
</defs>
<path clip-path="url(#clip960)" d="
M180.66 1425.62 L2352.76 1425.62 L2352.76 47.2441 L180.66 47.2441  Z
  " fill="#ffffff" fill-rule="evenodd" fill-opacity="1"/>
<defs>
  <clipPath id="clip962">
    <rect x="180" y="47" width="2173" height="1379"/>
  </clipPath>
</defs>
<polyline clip-path="url(#clip962)" style="stroke:#000000; stroke-linecap:butt; stroke-linejoin:round; stroke-width:2; stroke-opacity:0.1; fill:none" points="
  242.135,1425.62 242.135,47.2441 
  "/>
<polyline clip-path="url(#clip962)" style="stroke:#000000; stroke-linecap:butt; stroke-linejoin:round; stroke-width:2; stroke-opacity:0.1; fill:none" points="
  754.421,1425.62 754.421,47.2441 
  "/>
<polyline clip-path="url(#clip962)" style="stroke:#000000; stroke-linecap:butt; stroke-linejoin:round; stroke-width:2; stroke-opacity:0.1; fill:none" points="
  1266.71,1425.62 1266.71,47.2441 
  "/>
<polyline clip-path="url(#clip962)" style="stroke:#000000; stroke-linecap:butt; stroke-linejoin:round; stroke-width:2; stroke-opacity:0.1; fill:none" points="
  1778.99,1425.62 1778.99,47.2441 
  "/>
<polyline clip-path="url(#clip962)" style="stroke:#000000; stroke-linecap:butt; stroke-linejoin:round; stroke-width:2; stroke-opacity:0.1; fill:none" points="
  2291.28,1425.62 2291.28,47.2441 
  "/>
<polyline clip-path="url(#clip960)" style="stroke:#000000; stroke-linecap:butt; stroke-linejoin:round; stroke-width:4; stroke-opacity:1; fill:none" points="
  180.66,1425.62 2352.76,1425.62 
  "/>
<polyline clip-path="url(#clip960)" style="stroke:#000000; stroke-linecap:butt; stroke-linejoin:round; stroke-width:4; stroke-opacity:1; fill:none" points="
  242.135,1425.62 242.135,1406.72 
  "/>
<polyline clip-path="url(#clip960)" style="stroke:#000000; stroke-linecap:butt; stroke-linejoin:round; stroke-width:4; stroke-opacity:1; fill:none" points="
  754.421,1425.62 754.421,1406.72 
  "/>
<polyline clip-path="url(#clip960)" style="stroke:#000000; stroke-linecap:butt; stroke-linejoin:round; stroke-width:4; stroke-opacity:1; fill:none" points="
  1266.71,1425.62 1266.71,1406.72 
  "/>
<polyline clip-path="url(#clip960)" style="stroke:#000000; stroke-linecap:butt; stroke-linejoin:round; stroke-width:4; stroke-opacity:1; fill:none" points="
  1778.99,1425.62 1778.99,1406.72 
  "/>
<polyline clip-path="url(#clip960)" style="stroke:#000000; stroke-linecap:butt; stroke-linejoin:round; stroke-width:4; stroke-opacity:1; fill:none" points="
  2291.28,1425.62 2291.28,1406.72 
  "/>
<g clip-path="url(#clip960)">
<text style="fill:#000000; fill-opacity:1; font-family:Arial,Helvetica Neue,Helvetica,sans-serif; font-size:48px; text-anchor:middle;" transform="rotate(0, 242.135, 1487.47)" x="242.135" y="1487.47">−1.0</text>
</g>
<g clip-path="url(#clip960)">
<text style="fill:#000000; fill-opacity:1; font-family:Arial,Helvetica Neue,Helvetica,sans-serif; font-size:48px; text-anchor:middle;" transform="rotate(0, 754.421, 1487.47)" x="754.421" y="1487.47">−0.5</text>
</g>
<g clip-path="url(#clip960)">
<text style="fill:#000000; fill-opacity:1; font-family:Arial,Helvetica Neue,Helvetica,sans-serif; font-size:48px; text-anchor:middle;" transform="rotate(0, 1266.71, 1487.47)" x="1266.71" y="1487.47">0.0</text>
</g>
<g clip-path="url(#clip960)">
<text style="fill:#000000; fill-opacity:1; font-family:Arial,Helvetica Neue,Helvetica,sans-serif; font-size:48px; text-anchor:middle;" transform="rotate(0, 1778.99, 1487.47)" x="1778.99" y="1487.47">0.5</text>
</g>
<g clip-path="url(#clip960)">
<text style="fill:#000000; fill-opacity:1; font-family:Arial,Helvetica Neue,Helvetica,sans-serif; font-size:48px; text-anchor:middle;" transform="rotate(0, 2291.28, 1487.47)" x="2291.28" y="1487.47">1.0</text>
</g>
<g clip-path="url(#clip960)">
<text style="fill:#000000; fill-opacity:1; font-family:Arial,Helvetica Neue,Helvetica,sans-serif; font-size:66px; text-anchor:middle;" transform="rotate(0, 1266.71, 1571.48)" x="1266.71" y="1571.48">s</text>
</g>
<polyline clip-path="url(#clip962)" style="stroke:#000000; stroke-linecap:butt; stroke-linejoin:round; stroke-width:2; stroke-opacity:0.1; fill:none" points="
  180.66,1386.61 2352.76,1386.61 
  "/>
<polyline clip-path="url(#clip962)" style="stroke:#000000; stroke-linecap:butt; stroke-linejoin:round; stroke-width:2; stroke-opacity:0.1; fill:none" points="
  180.66,1061.53 2352.76,1061.53 
  "/>
<polyline clip-path="url(#clip962)" style="stroke:#000000; stroke-linecap:butt; stroke-linejoin:round; stroke-width:2; stroke-opacity:0.1; fill:none" points="
  180.66,736.456 2352.76,736.456 
  "/>
<polyline clip-path="url(#clip962)" style="stroke:#000000; stroke-linecap:butt; stroke-linejoin:round; stroke-width:2; stroke-opacity:0.1; fill:none" points="
  180.66,411.379 2352.76,411.379 
  "/>
<polyline clip-path="url(#clip962)" style="stroke:#000000; stroke-linecap:butt; stroke-linejoin:round; stroke-width:2; stroke-opacity:0.1; fill:none" points="
  180.66,86.3033 2352.76,86.3033 
  "/>
<polyline clip-path="url(#clip960)" style="stroke:#000000; stroke-linecap:butt; stroke-linejoin:round; stroke-width:4; stroke-opacity:1; fill:none" points="
  180.66,1425.62 180.66,47.2441 
  "/>
<polyline clip-path="url(#clip960)" style="stroke:#000000; stroke-linecap:butt; stroke-linejoin:round; stroke-width:4; stroke-opacity:1; fill:none" points="
  180.66,1386.61 199.558,1386.61 
  "/>
<polyline clip-path="url(#clip960)" style="stroke:#000000; stroke-linecap:butt; stroke-linejoin:round; stroke-width:4; stroke-opacity:1; fill:none" points="
  180.66,1061.53 199.558,1061.53 
  "/>
<polyline clip-path="url(#clip960)" style="stroke:#000000; stroke-linecap:butt; stroke-linejoin:round; stroke-width:4; stroke-opacity:1; fill:none" points="
  180.66,736.456 199.558,736.456 
  "/>
<polyline clip-path="url(#clip960)" style="stroke:#000000; stroke-linecap:butt; stroke-linejoin:round; stroke-width:4; stroke-opacity:1; fill:none" points="
  180.66,411.379 199.558,411.379 
  "/>
<polyline clip-path="url(#clip960)" style="stroke:#000000; stroke-linecap:butt; stroke-linejoin:round; stroke-width:4; stroke-opacity:1; fill:none" points="
  180.66,86.3033 199.558,86.3033 
  "/>
<g clip-path="url(#clip960)">
<text style="fill:#000000; fill-opacity:1; font-family:Arial,Helvetica Neue,Helvetica,sans-serif; font-size:48px; text-anchor:middle;" transform="rotate(0, 97.8262, 1404.11)" x="97.8262" y="1404.11">−1.0</text>
</g>
<g clip-path="url(#clip960)">
<text style="fill:#000000; fill-opacity:1; font-family:Arial,Helvetica Neue,Helvetica,sans-serif; font-size:48px; text-anchor:middle;" transform="rotate(0, 97.8262, 1079.03)" x="97.8262" y="1079.03">−0.5</text>
</g>
<g clip-path="url(#clip960)">
<text style="fill:#000000; fill-opacity:1; font-family:Arial,Helvetica Neue,Helvetica,sans-serif; font-size:48px; text-anchor:middle;" transform="rotate(0, 111.207, 753.956)" x="111.207" y="753.956">0.0</text>
</g>
<g clip-path="url(#clip960)">
<text style="fill:#000000; fill-opacity:1; font-family:Arial,Helvetica Neue,Helvetica,sans-serif; font-size:48px; text-anchor:middle;" transform="rotate(0, 111.207, 428.879)" x="111.207" y="428.879">0.5</text>
</g>
<g clip-path="url(#clip960)">
<text style="fill:#000000; fill-opacity:1; font-family:Arial,Helvetica Neue,Helvetica,sans-serif; font-size:48px; text-anchor:middle;" transform="rotate(0, 111.207, 103.803)" x="111.207" y="103.803">1.0</text>
</g>
<polyline clip-path="url(#clip962)" style="stroke:#009af9; stroke-linecap:butt; stroke-linejoin:round; stroke-width:8; stroke-opacity:1; fill:none" points="
  242.135,86.3033 262.626,378.659 283.118,577.469 303.609,714.36 324.101,812.962 344.592,886.977 365.084,944.453 385.575,990.331 406.066,1027.78 426.558,1058.93 
  447.049,1085.25 467.541,1107.79 488.032,1127.31 508.524,1144.38 529.015,1159.45 549.507,1172.85 569.998,1184.86 590.49,1195.67 610.981,1205.47 631.473,1214.4 
  651.964,1222.56 672.456,1230.06 692.947,1236.99 713.438,1243.39 733.93,1249.34 754.421,1254.89 774.913,1260.07 795.404,1264.92 815.896,1269.48 836.387,1273.77 
  856.879,1277.82 877.37,1281.65 897.862,1285.28 918.353,1288.72 938.845,1291.99 959.336,1295.11 979.828,1298.09 1000.32,1300.93 1020.81,1303.65 1041.3,1306.26 
  1061.79,1308.77 1082.28,1311.17 1102.78,1313.48 1123.27,1315.71 1143.76,1317.86 1164.25,1319.94 1184.74,1321.94 1205.23,1323.88 1225.73,1325.76 1246.22,1327.58 
  1266.71,1329.35 1287.2,1331.07 1307.69,1332.74 1328.18,1334.36 1348.67,1335.94 1369.17,1337.48 1389.66,1338.98 1410.15,1340.45 1430.64,1341.88 1451.13,1343.29 
  1471.62,1344.66 1492.11,1346 1512.61,1347.31 1533.1,1348.6 1553.59,1349.86 1574.08,1351.11 1594.57,1352.32 1615.06,1353.52 1635.55,1354.7 1656.05,1355.86 
  1676.54,1357 1697.03,1358.13 1717.52,1359.24 1738.01,1360.33 1758.5,1361.41 1778.99,1362.48 1799.49,1363.53 1819.98,1364.58 1840.47,1365.61 1860.96,1366.63 
  1881.45,1367.64 1901.94,1368.64 1922.44,1369.63 1942.93,1370.62 1963.42,1371.59 1983.91,1372.56 2004.4,1373.53 2024.89,1374.48 2045.38,1375.43 2065.88,1376.38 
  2086.37,1377.32 2106.86,1378.26 2127.35,1379.2 2147.84,1380.13 2168.33,1381.06 2188.82,1381.99 2209.32,1382.91 2229.81,1383.84 2250.3,1384.76 2270.79,1385.68 
  2291.28,1386.61 
  "/>
<polyline clip-path="url(#clip962)" style="stroke:#e26f46; stroke-linecap:butt; stroke-linejoin:round; stroke-width:8; stroke-opacity:1; fill:none" points="
  242.135,86.3033 262.626,86.2547 283.118,86.3981 303.609,88.841 324.101,95.6023 344.592,107.45 365.084,124.103 385.575,144.751 406.066,168.449 426.558,194.306 
  447.049,221.571 467.541,249.641 488.032,278.052 508.524,306.458 529.015,334.601 549.507,362.3 569.998,389.427 590.49,415.898 610.981,441.658 631.473,466.678 
  651.964,490.946 672.456,514.461 692.947,537.234 713.438,559.28 733.93,580.62 754.421,601.277 774.913,621.276 795.404,640.643 815.896,659.406 836.387,677.59 
  856.879,695.223 877.37,712.329 897.862,728.934 918.353,745.06 938.845,760.733 959.336,775.972 979.828,790.8 1000.32,805.237 1020.81,819.301 1041.3,833.011 
  1061.79,846.384 1082.28,859.437 1102.78,872.184 1123.27,884.642 1143.76,896.824 1164.25,908.744 1184.74,920.413 1205.23,931.845 1225.73,943.051 1246.22,954.042 
  1266.71,964.827 1287.2,975.418 1307.69,985.823 1328.18,996.052 1348.67,1006.11 1369.17,1016.01 1389.66,1025.76 1410.15,1035.37 1430.64,1044.84 1451.13,1054.17 
  1471.62,1063.39 1492.11,1072.49 1512.61,1081.47 1533.1,1090.36 1553.59,1099.14 1574.08,1107.83 1594.57,1116.43 1615.06,1124.94 1635.55,1133.38 1656.05,1141.74 
  1676.54,1150.04 1697.03,1158.27 1717.52,1166.44 1738.01,1174.55 1758.5,1182.62 1778.99,1190.63 1799.49,1198.61 1819.98,1206.54 1840.47,1214.44 1860.96,1222.3 
  1881.45,1230.14 1901.94,1237.95 1922.44,1245.75 1942.93,1253.52 1963.42,1261.28 1983.91,1269.04 2004.4,1276.78 2024.89,1284.53 2045.38,1292.27 2065.88,1300.02 
  2086.37,1307.78 2106.86,1315.55 2127.35,1323.33 2147.84,1331.14 2168.33,1338.96 2188.82,1346.82 2209.32,1354.7 2229.81,1362.61 2250.3,1370.57 2270.79,1378.57 
  2291.28,1386.61 
  "/>
<polyline clip-path="url(#clip962)" style="stroke:#3da44d; stroke-linecap:butt; stroke-linejoin:round; stroke-width:8; stroke-opacity:1; fill:none" points="
  242.135,86.3033 262.626,86.3026 283.118,86.3036 303.609,86.3007 324.101,86.3379 344.592,86.5819 365.084,87.3052 385.575,88.8106 406.066,91.36 426.558,95.1372 
  447.049,100.241 467.541,106.694 488.032,114.462 508.524,123.471 529.015,133.621 549.507,144.801 569.998,156.893 590.49,169.783 610.981,183.362 631.473,197.527 
  651.964,212.185 672.456,227.253 692.947,242.655 713.438,258.325 733.93,274.205 754.421,290.243 774.913,306.395 795.404,322.624 815.896,338.896 836.387,355.182 
  856.879,371.46 877.37,387.709 897.862,403.911 918.353,420.053 938.845,436.124 959.336,452.112 979.828,468.012 1000.32,483.817 1020.81,499.522 1041.3,515.125 
  1061.79,530.622 1082.28,546.014 1102.78,561.299 1123.27,576.477 1143.76,591.55 1164.25,606.52 1184.74,621.387 1205.23,636.154 1225.73,650.824 1246.22,665.4 
  1266.71,679.885 1287.2,694.282 1307.69,708.595 1328.18,722.828 1348.67,736.984 1369.17,751.067 1389.66,765.081 1410.15,779.032 1430.64,792.922 1451.13,806.756 
  1471.62,820.539 1492.11,834.275 1512.61,847.968 1533.1,861.623 1553.59,875.245 1574.08,888.838 1594.57,902.406 1615.06,915.955 1635.55,929.489 1656.05,943.013 
  1676.54,956.531 1697.03,970.049 1717.52,983.571 1738.01,997.103 1758.5,1010.65 1778.99,1024.21 1799.49,1037.8 1819.98,1051.42 1840.47,1065.08 1860.96,1078.77 
  1881.45,1092.52 1901.94,1106.31 1922.44,1120.16 1942.93,1134.07 1963.42,1148.05 1983.91,1162.11 2004.4,1176.25 2024.89,1190.47 2045.38,1204.79 2065.88,1219.21 
  2086.37,1233.74 2106.86,1248.38 2127.35,1263.15 2147.84,1278.04 2168.33,1293.07 2188.82,1308.25 2209.32,1323.58 2229.81,1339.07 2250.3,1354.73 2270.79,1370.57 
  2291.28,1386.61 
  "/>
<polyline clip-path="url(#clip962)" style="stroke:#c271d2; stroke-linecap:butt; stroke-linejoin:round; stroke-width:8; stroke-opacity:1; fill:none" points="
  242.135,86.3033 262.626,86.3033 283.118,86.3033 303.609,86.3033 324.101,86.3033 344.592,86.3033 365.084,86.3033 385.575,86.3033 406.066,86.3033 426.558,86.3033 
  447.049,86.3033 467.541,86.3033 488.032,86.3033 508.524,86.3033 529.015,86.3033 549.507,86.3034 569.998,86.3038 590.49,86.3045 610.981,86.3059 631.473,86.3087 
  651.964,86.3135 672.456,86.3215 692.947,86.3343 713.438,86.3538 733.93,86.3824 754.421,86.4231 774.913,86.4795 795.404,86.5557 815.896,86.6565 836.387,86.7872 
  856.879,86.9539 877.37,87.1631 897.862,87.422 918.353,87.7385 938.845,88.1208 959.336,88.5779 979.828,89.1192 1000.32,89.7548 1020.81,90.4951 1041.3,91.3511 
  1061.79,92.3343 1082.28,93.4565 1102.78,94.7304 1123.27,96.1686 1143.76,97.7848 1164.25,99.5927 1184.74,101.607 1205.23,103.842 1225.73,106.313 1246.22,109.037 
  1266.71,112.029 1287.2,115.308 1307.69,118.891 1328.18,122.796 1348.67,127.042 1369.17,131.65 1389.66,136.64 1410.15,142.034 1430.64,147.855 1451.13,154.125 
  1471.62,160.87 1492.11,168.116 1512.61,175.888 1533.1,184.217 1553.59,193.131 1574.08,202.661 1594.57,212.841 1615.06,223.705 1635.55,235.289 1656.05,247.632 
  1676.54,260.774 1697.03,274.759 1717.52,289.631 1738.01,305.439 1758.5,322.233 1778.99,340.067 1799.49,358.999 1819.98,379.09 1840.47,400.404 1860.96,423.01 
  1881.45,446.981 1901.94,472.396 1922.44,499.339 1942.93,527.897 1963.42,558.167 1983.91,590.249 2004.4,624.254 2024.89,660.298 2045.38,698.505 2065.88,739.01 
  2086.37,781.958 2106.86,827.502 2127.35,875.811 2147.84,927.063 2168.33,981.452 2188.82,1039.19 2209.32,1100.49 2229.81,1165.61 2250.3,1234.81 2270.79,1308.37 
  2291.28,1386.61 
  "/>
<polyline clip-path="url(#clip962)" style="stroke:#ac8d18; stroke-linecap:butt; stroke-linejoin:round; stroke-width:8; stroke-opacity:1; fill:none" points="
  242.135,86.3033 262.626,86.3033 283.118,86.3033 303.609,86.3033 324.101,86.3033 344.592,86.3033 365.084,86.3033 385.575,86.3033 406.066,86.3033 426.558,86.3033 
  447.049,86.3033 467.541,86.3033 488.032,86.3033 508.524,86.3033 529.015,86.3033 549.507,86.3033 569.998,86.3033 590.49,86.3033 610.981,86.3033 631.473,86.3033 
  651.964,86.3033 672.456,86.3033 692.947,86.3033 713.438,86.3033 733.93,86.3033 754.421,86.3033 774.913,86.3033 795.404,86.3033 815.896,86.3033 836.387,86.3034 
  856.879,86.3036 877.37,86.3038 897.862,86.3042 918.353,86.3048 938.845,86.3057 959.336,86.3071 979.828,86.3091 1000.32,86.3121 1020.81,86.3163 1041.3,86.3222 
  1061.79,86.3304 1082.28,86.3416 1102.78,86.3565 1123.27,86.3764 1143.76,86.4025 1164.25,86.4364 1184.74,86.4801 1205.23,86.5358 1225.73,86.6064 1246.22,86.6949 
  1266.71,86.8053 1287.2,86.9419 1307.69,87.1101 1328.18,87.3158 1348.67,87.566 1369.17,87.8688 1389.66,88.2334 1410.15,88.6705 1430.64,89.1921 1451.13,89.8123 
  1471.62,90.5468 1492.11,91.4136 1512.61,92.433 1533.1,93.6283 1553.59,95.0257 1574.08,96.6546 1594.57,98.5487 1615.06,100.746 1635.55,103.288 1656.05,106.224 
  1676.54,109.607 1697.03,113.499 1717.52,117.967 1738.01,123.09 1758.5,128.953 1778.99,135.654 1799.49,143.303 1819.98,152.023 1840.47,161.953 1860.96,173.248 
  1881.45,186.085 1901.94,200.661 1922.44,217.198 1942.93,235.947 1963.42,257.19 1983.91,281.245 2004.4,308.471 2024.89,339.274 2045.38,374.111 2065.88,413.498 
  2086.37,458.021 2106.86,508.341 2127.35,565.207 2147.84,629.47 2168.33,702.094 2188.82,784.174 2209.32,876.956 2229.81,981.858 2250.3,1100.49 2270.79,1234.71 
  2291.28,1386.61 
  "/>
<path clip-path="url(#clip960)" d="
M253.064 1379.67 L669.71 1379.67 L669.71 1077.87 L253.064 1077.87  Z
  " fill="#ffffff" fill-rule="evenodd" fill-opacity="1"/>
<polyline clip-path="url(#clip960)" style="stroke:#000000; stroke-linecap:butt; stroke-linejoin:round; stroke-width:4; stroke-opacity:1; fill:none" points="
  253.064,1379.67 669.71,1379.67 669.71,1077.87 253.064,1077.87 253.064,1379.67 
  "/>
<polyline clip-path="url(#clip960)" style="stroke:#009af9; stroke-linecap:butt; stroke-linejoin:round; stroke-width:4; stroke-opacity:1; fill:none" points="
  277.198,1128.17 422.004,1128.17 
  "/>
<g clip-path="url(#clip960)">
<text style="fill:#000000; fill-opacity:1; font-family:Arial,Helvetica Neue,Helvetica,sans-serif; font-size:48px; text-anchor:start;" transform="rotate(0, 446.139, 1145.67)" x="446.139" y="1145.67">λ=1.0</text>
</g>
<polyline clip-path="url(#clip960)" style="stroke:#e26f46; stroke-linecap:butt; stroke-linejoin:round; stroke-width:4; stroke-opacity:1; fill:none" points="
  277.198,1178.47 422.004,1178.47 
  "/>
<g clip-path="url(#clip960)">
<text style="fill:#000000; fill-opacity:1; font-family:Arial,Helvetica Neue,Helvetica,sans-serif; font-size:48px; text-anchor:start;" transform="rotate(0, 446.139, 1195.97)" x="446.139" y="1195.97">λ=0.1</text>
</g>
<polyline clip-path="url(#clip960)" style="stroke:#3da44d; stroke-linecap:butt; stroke-linejoin:round; stroke-width:4; stroke-opacity:1; fill:none" points="
  277.198,1228.77 422.004,1228.77 
  "/>
<g clip-path="url(#clip960)">
<text style="fill:#000000; fill-opacity:1; font-family:Arial,Helvetica Neue,Helvetica,sans-serif; font-size:48px; text-anchor:start;" transform="rotate(0, 446.139, 1246.27)" x="446.139" y="1246.27">λ=0.05</text>
</g>
<polyline clip-path="url(#clip960)" style="stroke:#c271d2; stroke-linecap:butt; stroke-linejoin:round; stroke-width:4; stroke-opacity:1; fill:none" points="
  277.198,1279.07 422.004,1279.07 
  "/>
<g clip-path="url(#clip960)">
<text style="fill:#000000; fill-opacity:1; font-family:Arial,Helvetica Neue,Helvetica,sans-serif; font-size:48px; text-anchor:start;" transform="rotate(0, 446.139, 1296.57)" x="446.139" y="1296.57">λ=0.01</text>
</g>
<polyline clip-path="url(#clip960)" style="stroke:#ac8d18; stroke-linecap:butt; stroke-linejoin:round; stroke-width:4; stroke-opacity:1; fill:none" points="
  277.198,1329.37 422.004,1329.37 
  "/>
<g clip-path="url(#clip960)">
<text style="fill:#000000; fill-opacity:1; font-family:Arial,Helvetica Neue,Helvetica,sans-serif; font-size:48px; text-anchor:start;" transform="rotate(0, 446.139, 1346.87)" x="446.139" y="1346.87">λ=0.005</text>
</g>
</svg>
