<?xml version="1.0" encoding="utf-8"?>
<svg xmlns="http://www.w3.org/2000/svg" xmlns:xlink="http://www.w3.org/1999/xlink" width="600" height="400" viewBox="0 0 2400 1600">
<defs>
  <clipPath id="clip840">
    <rect x="0" y="0" width="2400" height="1600"/>
  </clipPath>
</defs>
<path clip-path="url(#clip840)" d="
M0 1600 L2400 1600 L2400 0 L0 0  Z
  " fill="#ffffff" fill-rule="evenodd" fill-opacity="1"/>
<defs>
  <clipPath id="clip841">
    <rect x="480" y="0" width="1681" height="1600"/>
  </clipPath>
</defs>
<path clip-path="url(#clip840)" d="
M167.279 1487.47 L2352.76 1487.47 L2352.76 47.2441 L167.279 47.2441  Z
  " fill="#ffffff" fill-rule="evenodd" fill-opacity="1"/>
<defs>
  <clipPath id="clip842">
    <rect x="167" y="47" width="2186" height="1441"/>
  </clipPath>
</defs>
<polyline clip-path="url(#clip842)" style="stroke:#000000; stroke-linecap:butt; stroke-linejoin:round; stroke-width:2; stroke-opacity:0.1; fill:none" points="
  295.641,1487.47 295.641,47.2441 
  "/>
<polyline clip-path="url(#clip842)" style="stroke:#000000; stroke-linecap:butt; stroke-linejoin:round; stroke-width:2; stroke-opacity:0.1; fill:none" points="
  960.728,1487.47 960.728,47.2441 
  "/>
<polyline clip-path="url(#clip842)" style="stroke:#000000; stroke-linecap:butt; stroke-linejoin:round; stroke-width:2; stroke-opacity:0.1; fill:none" points="
  1625.82,1487.47 1625.82,47.2441 
  "/>
<polyline clip-path="url(#clip842)" style="stroke:#000000; stroke-linecap:butt; stroke-linejoin:round; stroke-width:2; stroke-opacity:0.1; fill:none" points="
  2290.9,1487.47 2290.9,47.2441 
  "/>
<polyline clip-path="url(#clip840)" style="stroke:#000000; stroke-linecap:butt; stroke-linejoin:round; stroke-width:4; stroke-opacity:1; fill:none" points="
  167.279,1487.47 2352.76,1487.47 
  "/>
<polyline clip-path="url(#clip840)" style="stroke:#000000; stroke-linecap:butt; stroke-linejoin:round; stroke-width:4; stroke-opacity:1; fill:none" points="
  295.641,1487.47 295.641,1468.58 
  "/>
<polyline clip-path="url(#clip840)" style="stroke:#000000; stroke-linecap:butt; stroke-linejoin:round; stroke-width:4; stroke-opacity:1; fill:none" points="
  960.728,1487.47 960.728,1468.58 
  "/>
<polyline clip-path="url(#clip840)" style="stroke:#000000; stroke-linecap:butt; stroke-linejoin:round; stroke-width:4; stroke-opacity:1; fill:none" points="
  1625.82,1487.47 1625.82,1468.58 
  "/>
<polyline clip-path="url(#clip840)" style="stroke:#000000; stroke-linecap:butt; stroke-linejoin:round; stroke-width:4; stroke-opacity:1; fill:none" points="
  2290.9,1487.47 2290.9,1468.58 
  "/>
<g clip-path="url(#clip840)">
<text style="fill:#000000; fill-opacity:1; font-family:Arial,Helvetica Neue,Helvetica,sans-serif; font-size:48px; text-anchor:middle;" transform="rotate(0, 295.641, 1549.32)" x="295.641" y="1549.32">−1.5</text>
</g>
<g clip-path="url(#clip840)">
<text style="fill:#000000; fill-opacity:1; font-family:Arial,Helvetica Neue,Helvetica,sans-serif; font-size:48px; text-anchor:middle;" transform="rotate(0, 960.728, 1549.32)" x="960.728" y="1549.32">−1.0</text>
</g>
<g clip-path="url(#clip840)">
<text style="fill:#000000; fill-opacity:1; font-family:Arial,Helvetica Neue,Helvetica,sans-serif; font-size:48px; text-anchor:middle;" transform="rotate(0, 1625.82, 1549.32)" x="1625.82" y="1549.32">−0.5</text>
</g>
<g clip-path="url(#clip840)">
<text style="fill:#000000; fill-opacity:1; font-family:Arial,Helvetica Neue,Helvetica,sans-serif; font-size:48px; text-anchor:middle;" transform="rotate(0, 2290.9, 1549.32)" x="2290.9" y="1549.32">0.0</text>
</g>
<polyline clip-path="url(#clip842)" style="stroke:#000000; stroke-linecap:butt; stroke-linejoin:round; stroke-width:2; stroke-opacity:0.1; fill:none" points="
  167.279,1218.41 2352.76,1218.41 
  "/>
<polyline clip-path="url(#clip842)" style="stroke:#000000; stroke-linecap:butt; stroke-linejoin:round; stroke-width:2; stroke-opacity:0.1; fill:none" points="
  167.279,935.812 2352.76,935.812 
  "/>
<polyline clip-path="url(#clip842)" style="stroke:#000000; stroke-linecap:butt; stroke-linejoin:round; stroke-width:2; stroke-opacity:0.1; fill:none" points="
  167.279,653.21 2352.76,653.21 
  "/>
<polyline clip-path="url(#clip842)" style="stroke:#000000; stroke-linecap:butt; stroke-linejoin:round; stroke-width:2; stroke-opacity:0.1; fill:none" points="
  167.279,370.607 2352.76,370.607 
  "/>
<polyline clip-path="url(#clip842)" style="stroke:#000000; stroke-linecap:butt; stroke-linejoin:round; stroke-width:2; stroke-opacity:0.1; fill:none" points="
  167.279,88.0053 2352.76,88.0053 
  "/>
<polyline clip-path="url(#clip840)" style="stroke:#000000; stroke-linecap:butt; stroke-linejoin:round; stroke-width:4; stroke-opacity:1; fill:none" points="
  167.279,1487.47 167.279,47.2441 
  "/>
<polyline clip-path="url(#clip840)" style="stroke:#000000; stroke-linecap:butt; stroke-linejoin:round; stroke-width:4; stroke-opacity:1; fill:none" points="
  167.279,1218.41 186.177,1218.41 
  "/>
<polyline clip-path="url(#clip840)" style="stroke:#000000; stroke-linecap:butt; stroke-linejoin:round; stroke-width:4; stroke-opacity:1; fill:none" points="
  167.279,935.812 186.177,935.812 
  "/>
<polyline clip-path="url(#clip840)" style="stroke:#000000; stroke-linecap:butt; stroke-linejoin:round; stroke-width:4; stroke-opacity:1; fill:none" points="
  167.279,653.21 186.177,653.21 
  "/>
<polyline clip-path="url(#clip840)" style="stroke:#000000; stroke-linecap:butt; stroke-linejoin:round; stroke-width:4; stroke-opacity:1; fill:none" points="
  167.279,370.607 186.177,370.607 
  "/>
<polyline clip-path="url(#clip840)" style="stroke:#000000; stroke-linecap:butt; stroke-linejoin:round; stroke-width:4; stroke-opacity:1; fill:none" points="
  167.279,88.0053 186.177,88.0053 
  "/>
<g clip-path="url(#clip840)">
<text style="fill:#000000; fill-opacity:1; font-family:Arial,Helvetica Neue,Helvetica,sans-serif; font-size:48px; text-anchor:middle;" transform="rotate(0, 91.1356, 1235.91)" x="91.1356" y="1235.91">−40</text>
</g>
<g clip-path="url(#clip840)">
<text style="fill:#000000; fill-opacity:1; font-family:Arial,Helvetica Neue,Helvetica,sans-serif; font-size:48px; text-anchor:middle;" transform="rotate(0, 91.1356, 953.312)" x="91.1356" y="953.312">−30</text>
</g>
<g clip-path="url(#clip840)">
<text style="fill:#000000; fill-opacity:1; font-family:Arial,Helvetica Neue,Helvetica,sans-serif; font-size:48px; text-anchor:middle;" transform="rotate(0, 91.1356, 670.71)" x="91.1356" y="670.71">−20</text>
</g>
<g clip-path="url(#clip840)">
<text style="fill:#000000; fill-opacity:1; font-family:Arial,Helvetica Neue,Helvetica,sans-serif; font-size:48px; text-anchor:middle;" transform="rotate(0, 91.1356, 388.107)" x="91.1356" y="388.107">−10</text>
</g>
<g clip-path="url(#clip840)">
<text style="fill:#000000; fill-opacity:1; font-family:Arial,Helvetica Neue,Helvetica,sans-serif; font-size:48px; text-anchor:middle;" transform="rotate(0, 117.898, 105.505)" x="117.898" y="105.505">0</text>
</g>
<polyline clip-path="url(#clip842)" style="stroke:#009af9; stroke-linecap:butt; stroke-linejoin:round; stroke-width:8; stroke-opacity:1; fill:none" points="
  229.132,1446.71 229.971,1406.71 230.81,1368.99 231.649,1333.37 232.488,1299.67 233.327,1267.75 234.166,1237.47 235.005,1208.7 235.844,1181.34 236.683,1155.28 
  237.522,1130.43 238.361,1106.71 239.2,1084.05 240.039,1062.37 240.878,1041.62 241.297,1031.57 241.717,1021.73 242.136,1012.09 242.556,1002.65 244.495,961.396 
  246.434,923.699 248.374,889.119 250.313,857.284 252.252,827.879 254.192,800.636 256.131,775.326 258.07,751.749 260.01,729.733 261.949,709.128 263.888,689.803 
  265.828,671.642 267.767,654.542 269.706,638.414 271.646,623.176 273.585,608.757 277.464,582.125 281.342,558.076 285.221,536.253 289.1,516.359 292.978,498.149 
  296.857,481.418 300.736,465.992 304.614,451.724 312.372,426.177 320.129,403.962 327.886,384.468 335.644,367.221 343.401,351.853 351.158,338.072 358.916,325.644 
  366.673,314.378 375.997,302.156 385.32,291.167 394.644,281.232 403.968,272.206 422.615,256.42 441.262,243.068 457.028,233.284 472.794,224.625 488.56,216.904 
  504.327,209.974 538.579,197.117 572.832,186.586 604.41,178.426 635.988,171.418 703.698,159.263 782.147,148.576 851.863,141.122 912.997,135.699 979.65,130.671 
  1046.7,126.326 1120.83,122.165 1191.37,118.697 1264.7,115.489 1326.44,113.046 1401.81,110.321 1470.86,108.031 1534.63,106.062 1599.23,104.186 1671.62,102.203 
  1737.22,100.499 1812.33,98.6355 1881.87,96.98 1950.44,95.4009 2017,93.9081 2085.25,92.4098 2160.01,90.7952 2268.62,88.4788 2290.9,88.0053 
  "/>
</svg>
