<?xml version="1.0" encoding="utf-8"?>
<svg xmlns="http://www.w3.org/2000/svg" xmlns:xlink="http://www.w3.org/1999/xlink" width="600" height="400" viewBox="0 0 2400 1600">
<defs>
  <clipPath id="clip270">
    <rect x="0" y="0" width="2400" height="1600"/>
  </clipPath>
</defs>
<path clip-path="url(#clip270)" d="
M0 1600 L2400 1600 L2400 0 L0 0  Z
  " fill="#ffffff" fill-rule="evenodd" fill-opacity="1"/>
<defs>
  <clipPath id="clip271">
    <rect x="480" y="0" width="1681" height="1600"/>
  </clipPath>
</defs>
<path clip-path="url(#clip270)" d="
M193.936 1423.18 L2352.76 1423.18 L2352.76 47.2441 L193.936 47.2441  Z
  " fill="#ffffff" fill-rule="evenodd" fill-opacity="1"/>
<defs>
  <clipPath id="clip272">
    <rect x="193" y="47" width="2160" height="1377"/>
  </clipPath>
</defs>
<polyline clip-path="url(#clip272)" style="stroke:#000000; stroke-linecap:butt; stroke-linejoin:round; stroke-width:2; stroke-opacity:0.1; fill:none" points="
  255.035,1423.18 255.035,47.2441 
  "/>
<polyline clip-path="url(#clip272)" style="stroke:#000000; stroke-linecap:butt; stroke-linejoin:round; stroke-width:2; stroke-opacity:0.1; fill:none" points="
  764.19,1423.18 764.19,47.2441 
  "/>
<polyline clip-path="url(#clip272)" style="stroke:#000000; stroke-linecap:butt; stroke-linejoin:round; stroke-width:2; stroke-opacity:0.1; fill:none" points="
  1273.35,1423.18 1273.35,47.2441 
  "/>
<polyline clip-path="url(#clip272)" style="stroke:#000000; stroke-linecap:butt; stroke-linejoin:round; stroke-width:2; stroke-opacity:0.1; fill:none" points="
  1782.5,1423.18 1782.5,47.2441 
  "/>
<polyline clip-path="url(#clip272)" style="stroke:#000000; stroke-linecap:butt; stroke-linejoin:round; stroke-width:2; stroke-opacity:0.1; fill:none" points="
  2291.66,1423.18 2291.66,47.2441 
  "/>
<polyline clip-path="url(#clip270)" style="stroke:#000000; stroke-linecap:butt; stroke-linejoin:round; stroke-width:4; stroke-opacity:1; fill:none" points="
  193.936,1423.18 2352.76,1423.18 
  "/>
<polyline clip-path="url(#clip270)" style="stroke:#000000; stroke-linecap:butt; stroke-linejoin:round; stroke-width:4; stroke-opacity:1; fill:none" points="
  255.035,1423.18 255.035,1404.28 
  "/>
<polyline clip-path="url(#clip270)" style="stroke:#000000; stroke-linecap:butt; stroke-linejoin:round; stroke-width:4; stroke-opacity:1; fill:none" points="
  764.19,1423.18 764.19,1404.28 
  "/>
<polyline clip-path="url(#clip270)" style="stroke:#000000; stroke-linecap:butt; stroke-linejoin:round; stroke-width:4; stroke-opacity:1; fill:none" points="
  1273.35,1423.18 1273.35,1404.28 
  "/>
<polyline clip-path="url(#clip270)" style="stroke:#000000; stroke-linecap:butt; stroke-linejoin:round; stroke-width:4; stroke-opacity:1; fill:none" points="
  1782.5,1423.18 1782.5,1404.28 
  "/>
<polyline clip-path="url(#clip270)" style="stroke:#000000; stroke-linecap:butt; stroke-linejoin:round; stroke-width:4; stroke-opacity:1; fill:none" points="
  2291.66,1423.18 2291.66,1404.28 
  "/>
<path clip-path="url(#clip270)" d="M201.563 1468.75 L231.239 1468.75 L231.239 1472.69 L201.563 1472.69 L201.563 1468.75 Z" fill="#000000" fill-rule="evenodd" fill-opacity="1" /><path clip-path="url(#clip270)" d="M242.141 1481.64 L249.78 1481.64 L249.78 1455.28 L241.47 1456.95 L241.47 1452.69 L249.734 1451.02 L254.41 1451.02 L254.41 1481.64 L262.049 1481.64 L262.049 1485.58 L242.141 1485.58 L242.141 1481.64 Z" fill="#000000" fill-rule="evenodd" fill-opacity="1" /><path clip-path="url(#clip270)" d="M271.493 1479.7 L276.377 1479.7 L276.377 1485.58 L271.493 1485.58 L271.493 1479.7 Z" fill="#000000" fill-rule="evenodd" fill-opacity="1" /><path clip-path="url(#clip270)" d="M296.562 1454.1 Q292.951 1454.1 291.122 1457.66 Q289.317 1461.2 289.317 1468.33 Q289.317 1475.44 291.122 1479.01 Q292.951 1482.55 296.562 1482.55 Q300.196 1482.55 302.002 1479.01 Q303.831 1475.44 303.831 1468.33 Q303.831 1461.2 302.002 1457.66 Q300.196 1454.1 296.562 1454.1 M296.562 1450.39 Q302.372 1450.39 305.428 1455 Q308.507 1459.58 308.507 1468.33 Q308.507 1477.06 305.428 1481.67 Q302.372 1486.25 296.562 1486.25 Q290.752 1486.25 287.673 1481.67 Q284.618 1477.06 284.618 1468.33 Q284.618 1459.58 287.673 1455 Q290.752 1450.39 296.562 1450.39 Z" fill="#000000" fill-rule="evenodd" fill-opacity="1" /><path clip-path="url(#clip270)" d="M711.216 1468.75 L740.892 1468.75 L740.892 1472.69 L711.216 1472.69 L711.216 1468.75 Z" fill="#000000" fill-rule="evenodd" fill-opacity="1" /><path clip-path="url(#clip270)" d="M760.984 1454.1 Q757.373 1454.1 755.545 1457.66 Q753.739 1461.2 753.739 1468.33 Q753.739 1475.44 755.545 1479.01 Q757.373 1482.55 760.984 1482.55 Q764.619 1482.55 766.424 1479.01 Q768.253 1475.44 768.253 1468.33 Q768.253 1461.2 766.424 1457.66 Q764.619 1454.1 760.984 1454.1 M760.984 1450.39 Q766.794 1450.39 769.85 1455 Q772.929 1459.58 772.929 1468.33 Q772.929 1477.06 769.85 1481.67 Q766.794 1486.25 760.984 1486.25 Q755.174 1486.25 752.095 1481.67 Q749.04 1477.06 749.04 1468.33 Q749.04 1459.58 752.095 1455 Q755.174 1450.39 760.984 1450.39 Z" fill="#000000" fill-rule="evenodd" fill-opacity="1" /><path clip-path="url(#clip270)" d="M781.146 1479.7 L786.03 1479.7 L786.03 1485.58 L781.146 1485.58 L781.146 1479.7 Z" fill="#000000" fill-rule="evenodd" fill-opacity="1" /><path clip-path="url(#clip270)" d="M796.262 1451.02 L814.618 1451.02 L814.618 1454.96 L800.544 1454.96 L800.544 1463.43 Q801.563 1463.08 802.581 1462.92 Q803.6 1462.73 804.618 1462.73 Q810.405 1462.73 813.785 1465.9 Q817.165 1469.08 817.165 1474.49 Q817.165 1480.07 813.692 1483.17 Q810.22 1486.25 803.901 1486.25 Q801.725 1486.25 799.456 1485.88 Q797.211 1485.51 794.804 1484.77 L794.804 1480.07 Q796.887 1481.2 799.109 1481.76 Q801.331 1482.32 803.808 1482.32 Q807.813 1482.32 810.151 1480.21 Q812.489 1478.1 812.489 1474.49 Q812.489 1470.88 810.151 1468.77 Q807.813 1466.67 803.808 1466.67 Q801.933 1466.67 800.058 1467.08 Q798.206 1467.5 796.262 1468.38 L796.262 1451.02 Z" fill="#000000" fill-rule="evenodd" fill-opacity="1" /><path clip-path="url(#clip270)" d="M1250.73 1454.1 Q1247.12 1454.1 1245.29 1457.66 Q1243.49 1461.2 1243.49 1468.33 Q1243.49 1475.44 1245.29 1479.01 Q1247.12 1482.55 1250.73 1482.55 Q1254.36 1482.55 1256.17 1479.01 Q1258 1475.44 1258 1468.33 Q1258 1461.2 1256.17 1457.66 Q1254.36 1454.1 1250.73 1454.1 M1250.73 1450.39 Q1256.54 1450.39 1259.6 1455 Q1262.67 1459.58 1262.67 1468.33 Q1262.67 1477.06 1259.6 1481.67 Q1256.54 1486.25 1250.73 1486.25 Q1244.92 1486.25 1241.84 1481.67 Q1238.79 1477.06 1238.79 1468.33 Q1238.79 1459.58 1241.84 1455 Q1244.92 1450.39 1250.73 1450.39 Z" fill="#000000" fill-rule="evenodd" fill-opacity="1" /><path clip-path="url(#clip270)" d="M1270.89 1479.7 L1275.78 1479.7 L1275.78 1485.58 L1270.89 1485.58 L1270.89 1479.7 Z" fill="#000000" fill-rule="evenodd" fill-opacity="1" /><path clip-path="url(#clip270)" d="M1295.96 1454.1 Q1292.35 1454.1 1290.52 1457.66 Q1288.72 1461.2 1288.72 1468.33 Q1288.72 1475.44 1290.52 1479.01 Q1292.35 1482.55 1295.96 1482.55 Q1299.6 1482.55 1301.4 1479.01 Q1303.23 1475.44 1303.23 1468.33 Q1303.23 1461.2 1301.4 1457.66 Q1299.6 1454.1 1295.96 1454.1 M1295.96 1450.39 Q1301.77 1450.39 1304.83 1455 Q1307.91 1459.58 1307.91 1468.33 Q1307.91 1477.06 1304.83 1481.67 Q1301.77 1486.25 1295.96 1486.25 Q1290.15 1486.25 1287.07 1481.67 Q1284.02 1477.06 1284.02 1468.33 Q1284.02 1459.58 1287.07 1455 Q1290.15 1450.39 1295.96 1450.39 Z" fill="#000000" fill-rule="evenodd" fill-opacity="1" /><path clip-path="url(#clip270)" d="M1760.38 1454.1 Q1756.77 1454.1 1754.94 1457.66 Q1753.14 1461.2 1753.14 1468.33 Q1753.14 1475.44 1754.94 1479.01 Q1756.77 1482.55 1760.38 1482.55 Q1764.02 1482.55 1765.82 1479.01 Q1767.65 1475.44 1767.65 1468.33 Q1767.65 1461.2 1765.82 1457.66 Q1764.02 1454.1 1760.38 1454.1 M1760.38 1450.39 Q1766.19 1450.39 1769.25 1455 Q1772.33 1459.58 1772.33 1468.33 Q1772.33 1477.06 1769.25 1481.67 Q1766.19 1486.25 1760.38 1486.25 Q1754.57 1486.25 1751.49 1481.67 Q1748.44 1477.06 1748.44 1468.33 Q1748.44 1459.58 1751.49 1455 Q1754.57 1450.39 1760.38 1450.39 Z" fill="#000000" fill-rule="evenodd" fill-opacity="1" /><path clip-path="url(#clip270)" d="M1780.55 1479.7 L1785.43 1479.7 L1785.43 1485.58 L1780.55 1485.58 L1780.55 1479.7 Z" fill="#000000" fill-rule="evenodd" fill-opacity="1" /><path clip-path="url(#clip270)" d="M1795.66 1451.02 L1814.02 1451.02 L1814.02 1454.96 L1799.94 1454.96 L1799.94 1463.43 Q1800.96 1463.08 1801.98 1462.92 Q1803 1462.73 1804.02 1462.73 Q1809.8 1462.73 1813.18 1465.9 Q1816.56 1469.08 1816.56 1474.49 Q1816.56 1480.07 1813.09 1483.17 Q1809.62 1486.25 1803.3 1486.25 Q1801.12 1486.25 1798.86 1485.88 Q1796.61 1485.51 1794.2 1484.77 L1794.2 1480.07 Q1796.29 1481.2 1798.51 1481.76 Q1800.73 1482.32 1803.21 1482.32 Q1807.21 1482.32 1809.55 1480.21 Q1811.89 1478.1 1811.89 1474.49 Q1811.89 1470.88 1809.55 1468.77 Q1807.21 1466.67 1803.21 1466.67 Q1801.33 1466.67 1799.46 1467.08 Q1797.61 1467.5 1795.66 1468.38 L1795.66 1451.02 Z" fill="#000000" fill-rule="evenodd" fill-opacity="1" /><path clip-path="url(#clip270)" d="M2258.81 1481.64 L2266.45 1481.64 L2266.45 1455.28 L2258.14 1456.95 L2258.14 1452.69 L2266.4 1451.02 L2271.08 1451.02 L2271.08 1481.64 L2278.72 1481.64 L2278.72 1485.58 L2258.81 1485.58 L2258.81 1481.64 Z" fill="#000000" fill-rule="evenodd" fill-opacity="1" /><path clip-path="url(#clip270)" d="M2288.16 1479.7 L2293.05 1479.7 L2293.05 1485.58 L2288.16 1485.58 L2288.16 1479.7 Z" fill="#000000" fill-rule="evenodd" fill-opacity="1" /><path clip-path="url(#clip270)" d="M2313.23 1454.1 Q2309.62 1454.1 2307.79 1457.66 Q2305.99 1461.2 2305.99 1468.33 Q2305.99 1475.44 2307.79 1479.01 Q2309.62 1482.55 2313.23 1482.55 Q2316.87 1482.55 2318.67 1479.01 Q2320.5 1475.44 2320.5 1468.33 Q2320.5 1461.2 2318.67 1457.66 Q2316.87 1454.1 2313.23 1454.1 M2313.23 1450.39 Q2319.04 1450.39 2322.1 1455 Q2325.18 1459.58 2325.18 1468.33 Q2325.18 1477.06 2322.1 1481.67 Q2319.04 1486.25 2313.23 1486.25 Q2307.42 1486.25 2304.34 1481.67 Q2301.29 1477.06 2301.29 1468.33 Q2301.29 1459.58 2304.34 1455 Q2307.42 1450.39 2313.23 1450.39 Z" fill="#000000" fill-rule="evenodd" fill-opacity="1" /><path clip-path="url(#clip270)" d="M1285.06 1533.45 L1285.06 1538.98 Q1282.58 1537.71 1279.9 1537.07 Q1277.23 1536.44 1274.36 1536.44 Q1270 1536.44 1267.81 1537.77 Q1265.64 1539.11 1265.64 1541.79 Q1265.64 1543.82 1267.2 1545 Q1268.76 1546.15 1273.47 1547.2 L1275.48 1547.64 Q1281.72 1548.98 1284.33 1551.43 Q1286.97 1553.85 1286.97 1558.21 Q1286.97 1563.17 1283.02 1566.07 Q1279.11 1568.97 1272.23 1568.97 Q1269.37 1568.97 1266.25 1568.39 Q1263.16 1567.85 1259.72 1566.74 L1259.72 1560.69 Q1262.97 1562.38 1266.12 1563.24 Q1269.27 1564.07 1272.36 1564.07 Q1276.5 1564.07 1278.72 1562.66 Q1280.95 1561.23 1280.95 1558.65 Q1280.95 1556.27 1279.33 1554.99 Q1277.74 1553.72 1272.3 1552.54 L1270.26 1552.07 Q1264.82 1550.92 1262.4 1548.56 Q1259.98 1546.18 1259.98 1542.04 Q1259.98 1537.01 1263.54 1534.27 Q1267.11 1531.54 1273.66 1531.54 Q1276.91 1531.54 1279.78 1532.01 Q1282.64 1532.49 1285.06 1533.45 Z" fill="#000000" fill-rule="evenodd" fill-opacity="1" /><polyline clip-path="url(#clip272)" style="stroke:#000000; stroke-linecap:butt; stroke-linejoin:round; stroke-width:2; stroke-opacity:0.1; fill:none" points="
  193.936,1384.24 2352.76,1384.24 
  "/>
<polyline clip-path="url(#clip272)" style="stroke:#000000; stroke-linecap:butt; stroke-linejoin:round; stroke-width:2; stroke-opacity:0.1; fill:none" points="
  193.936,1059.74 2352.76,1059.74 
  "/>
<polyline clip-path="url(#clip272)" style="stroke:#000000; stroke-linecap:butt; stroke-linejoin:round; stroke-width:2; stroke-opacity:0.1; fill:none" points="
  193.936,735.236 2352.76,735.236 
  "/>
<polyline clip-path="url(#clip272)" style="stroke:#000000; stroke-linecap:butt; stroke-linejoin:round; stroke-width:2; stroke-opacity:0.1; fill:none" points="
  193.936,410.735 2352.76,410.735 
  "/>
<polyline clip-path="url(#clip272)" style="stroke:#000000; stroke-linecap:butt; stroke-linejoin:round; stroke-width:2; stroke-opacity:0.1; fill:none" points="
  193.936,86.2342 2352.76,86.2342 
  "/>
<polyline clip-path="url(#clip270)" style="stroke:#000000; stroke-linecap:butt; stroke-linejoin:round; stroke-width:4; stroke-opacity:1; fill:none" points="
  193.936,1423.18 193.936,47.2441 
  "/>
<polyline clip-path="url(#clip270)" style="stroke:#000000; stroke-linecap:butt; stroke-linejoin:round; stroke-width:4; stroke-opacity:1; fill:none" points="
  193.936,1384.24 212.834,1384.24 
  "/>
<polyline clip-path="url(#clip270)" style="stroke:#000000; stroke-linecap:butt; stroke-linejoin:round; stroke-width:4; stroke-opacity:1; fill:none" points="
  193.936,1059.74 212.834,1059.74 
  "/>
<polyline clip-path="url(#clip270)" style="stroke:#000000; stroke-linecap:butt; stroke-linejoin:round; stroke-width:4; stroke-opacity:1; fill:none" points="
  193.936,735.236 212.834,735.236 
  "/>
<polyline clip-path="url(#clip270)" style="stroke:#000000; stroke-linecap:butt; stroke-linejoin:round; stroke-width:4; stroke-opacity:1; fill:none" points="
  193.936,410.735 212.834,410.735 
  "/>
<polyline clip-path="url(#clip270)" style="stroke:#000000; stroke-linecap:butt; stroke-linejoin:round; stroke-width:4; stroke-opacity:1; fill:none" points="
  193.936,86.2342 212.834,86.2342 
  "/>
<path clip-path="url(#clip270)" d="M50.9921 1384.69 L80.6679 1384.69 L80.6679 1388.62 L50.9921 1388.62 L50.9921 1384.69 Z" fill="#000000" fill-rule="evenodd" fill-opacity="1" /><path clip-path="url(#clip270)" d="M91.5706 1397.58 L99.2095 1397.58 L99.2095 1371.22 L90.8993 1372.88 L90.8993 1368.62 L99.1632 1366.96 L103.839 1366.96 L103.839 1397.58 L111.478 1397.58 L111.478 1401.52 L91.5706 1401.52 L91.5706 1397.58 Z" fill="#000000" fill-rule="evenodd" fill-opacity="1" /><path clip-path="url(#clip270)" d="M120.922 1395.64 L125.807 1395.64 L125.807 1401.52 L120.922 1401.52 L120.922 1395.64 Z" fill="#000000" fill-rule="evenodd" fill-opacity="1" /><path clip-path="url(#clip270)" d="M145.992 1370.04 Q142.381 1370.04 140.552 1373.6 Q138.746 1377.14 138.746 1384.27 Q138.746 1391.38 140.552 1394.94 Q142.381 1398.49 145.992 1398.49 Q149.626 1398.49 151.431 1394.94 Q153.26 1391.38 153.26 1384.27 Q153.26 1377.14 151.431 1373.6 Q149.626 1370.04 145.992 1370.04 M145.992 1366.33 Q151.802 1366.33 154.857 1370.94 Q157.936 1375.52 157.936 1384.27 Q157.936 1393 154.857 1397.61 Q151.802 1402.19 145.992 1402.19 Q140.181 1402.19 137.103 1397.61 Q134.047 1393 134.047 1384.27 Q134.047 1375.52 137.103 1370.94 Q140.181 1366.33 145.992 1366.33 Z" fill="#000000" fill-rule="evenodd" fill-opacity="1" /><path clip-path="url(#clip270)" d="M51.9875 1060.19 L81.6633 1060.19 L81.6633 1064.12 L51.9875 1064.12 L51.9875 1060.19 Z" fill="#000000" fill-rule="evenodd" fill-opacity="1" /><path clip-path="url(#clip270)" d="M101.756 1045.54 Q98.1447 1045.54 96.316 1049.1 Q94.5104 1052.64 94.5104 1059.77 Q94.5104 1066.88 96.316 1070.44 Q98.1447 1073.98 101.756 1073.98 Q105.39 1073.98 107.196 1070.44 Q109.024 1066.88 109.024 1059.77 Q109.024 1052.64 107.196 1049.1 Q105.39 1045.54 101.756 1045.54 M101.756 1041.83 Q107.566 1041.83 110.621 1046.44 Q113.7 1051.02 113.7 1059.77 Q113.7 1068.5 110.621 1073.11 Q107.566 1077.69 101.756 1077.69 Q95.9456 1077.69 92.8669 1073.11 Q89.8114 1068.5 89.8114 1059.77 Q89.8114 1051.02 92.8669 1046.44 Q95.9456 1041.83 101.756 1041.83 Z" fill="#000000" fill-rule="evenodd" fill-opacity="1" /><path clip-path="url(#clip270)" d="M121.918 1071.14 L126.802 1071.14 L126.802 1077.02 L121.918 1077.02 L121.918 1071.14 Z" fill="#000000" fill-rule="evenodd" fill-opacity="1" /><path clip-path="url(#clip270)" d="M137.033 1042.46 L155.39 1042.46 L155.39 1046.39 L141.316 1046.39 L141.316 1054.86 Q142.334 1054.52 143.353 1054.36 Q144.371 1054.17 145.39 1054.17 Q151.177 1054.17 154.556 1057.34 Q157.936 1060.51 157.936 1065.93 Q157.936 1071.51 154.464 1074.61 Q150.992 1077.69 144.672 1077.69 Q142.496 1077.69 140.228 1077.32 Q137.982 1076.95 135.575 1076.21 L135.575 1071.51 Q137.658 1072.64 139.881 1073.2 Q142.103 1073.75 144.58 1073.75 Q148.584 1073.75 150.922 1071.65 Q153.26 1069.54 153.26 1065.93 Q153.26 1062.32 150.922 1060.21 Q148.584 1058.11 144.58 1058.11 Q142.705 1058.11 140.83 1058.52 Q138.978 1058.94 137.033 1059.82 L137.033 1042.46 Z" fill="#000000" fill-rule="evenodd" fill-opacity="1" /><path clip-path="url(#clip270)" d="M100.76 721.035 Q97.1493 721.035 95.3206 724.6 Q93.515 728.141 93.515 735.271 Q93.515 742.377 95.3206 745.942 Q97.1493 749.484 100.76 749.484 Q104.395 749.484 106.2 745.942 Q108.029 742.377 108.029 735.271 Q108.029 728.141 106.2 724.6 Q104.395 721.035 100.76 721.035 M100.76 717.331 Q106.571 717.331 109.626 721.938 Q112.705 726.521 112.705 735.271 Q112.705 743.998 109.626 748.604 Q106.571 753.188 100.76 753.188 Q94.9502 753.188 91.8715 748.604 Q88.816 743.998 88.816 735.271 Q88.816 726.521 91.8715 721.938 Q94.9502 717.331 100.76 717.331 Z" fill="#000000" fill-rule="evenodd" fill-opacity="1" /><path clip-path="url(#clip270)" d="M120.922 746.637 L125.807 746.637 L125.807 752.516 L120.922 752.516 L120.922 746.637 Z" fill="#000000" fill-rule="evenodd" fill-opacity="1" /><path clip-path="url(#clip270)" d="M145.992 721.035 Q142.381 721.035 140.552 724.6 Q138.746 728.141 138.746 735.271 Q138.746 742.377 140.552 745.942 Q142.381 749.484 145.992 749.484 Q149.626 749.484 151.431 745.942 Q153.26 742.377 153.26 735.271 Q153.26 728.141 151.431 724.6 Q149.626 721.035 145.992 721.035 M145.992 717.331 Q151.802 717.331 154.857 721.938 Q157.936 726.521 157.936 735.271 Q157.936 743.998 154.857 748.604 Q151.802 753.188 145.992 753.188 Q140.181 753.188 137.103 748.604 Q134.047 743.998 134.047 735.271 Q134.047 726.521 137.103 721.938 Q140.181 717.331 145.992 717.331 Z" fill="#000000" fill-rule="evenodd" fill-opacity="1" /><path clip-path="url(#clip270)" d="M101.756 396.534 Q98.1447 396.534 96.316 400.099 Q94.5104 403.64 94.5104 410.77 Q94.5104 417.876 96.316 421.441 Q98.1447 424.983 101.756 424.983 Q105.39 424.983 107.196 421.441 Q109.024 417.876 109.024 410.77 Q109.024 403.64 107.196 400.099 Q105.39 396.534 101.756 396.534 M101.756 392.83 Q107.566 392.83 110.621 397.437 Q113.7 402.02 113.7 410.77 Q113.7 419.497 110.621 424.103 Q107.566 428.686 101.756 428.686 Q95.9456 428.686 92.8669 424.103 Q89.8114 419.497 89.8114 410.77 Q89.8114 402.02 92.8669 397.437 Q95.9456 392.83 101.756 392.83 Z" fill="#000000" fill-rule="evenodd" fill-opacity="1" /><path clip-path="url(#clip270)" d="M121.918 422.136 L126.802 422.136 L126.802 428.015 L121.918 428.015 L121.918 422.136 Z" fill="#000000" fill-rule="evenodd" fill-opacity="1" /><path clip-path="url(#clip270)" d="M137.033 393.455 L155.39 393.455 L155.39 397.39 L141.316 397.39 L141.316 405.863 Q142.334 405.515 143.353 405.353 Q144.371 405.168 145.39 405.168 Q151.177 405.168 154.556 408.339 Q157.936 411.511 157.936 416.927 Q157.936 422.506 154.464 425.608 Q150.992 428.686 144.672 428.686 Q142.496 428.686 140.228 428.316 Q137.982 427.946 135.575 427.205 L135.575 422.506 Q137.658 423.64 139.881 424.196 Q142.103 424.751 144.58 424.751 Q148.584 424.751 150.922 422.645 Q153.26 420.538 153.26 416.927 Q153.26 413.316 150.922 411.21 Q148.584 409.103 144.58 409.103 Q142.705 409.103 140.83 409.52 Q138.978 409.937 137.033 410.816 L137.033 393.455 Z" fill="#000000" fill-rule="evenodd" fill-opacity="1" /><path clip-path="url(#clip270)" d="M91.5706 99.579 L99.2095 99.579 L99.2095 73.2134 L90.8993 74.8801 L90.8993 70.6208 L99.1632 68.9542 L103.839 68.9542 L103.839 99.579 L111.478 99.579 L111.478 103.514 L91.5706 103.514 L91.5706 99.579 Z" fill="#000000" fill-rule="evenodd" fill-opacity="1" /><path clip-path="url(#clip270)" d="M120.922 97.6346 L125.807 97.6346 L125.807 103.514 L120.922 103.514 L120.922 97.6346 Z" fill="#000000" fill-rule="evenodd" fill-opacity="1" /><path clip-path="url(#clip270)" d="M145.992 72.0328 Q142.381 72.0328 140.552 75.5976 Q138.746 79.1393 138.746 86.2689 Q138.746 93.3753 140.552 96.9401 Q142.381 100.482 145.992 100.482 Q149.626 100.482 151.431 96.9401 Q153.26 93.3753 153.26 86.2689 Q153.26 79.1393 151.431 75.5976 Q149.626 72.0328 145.992 72.0328 M145.992 68.3292 Q151.802 68.3292 154.857 72.9356 Q157.936 77.5189 157.936 86.2689 Q157.936 94.9957 154.857 99.6021 Q151.802 104.185 145.992 104.185 Q140.181 104.185 137.103 99.6021 Q134.047 94.9957 134.047 86.2689 Q134.047 77.5189 137.103 72.9356 Q140.181 68.3292 145.992 68.3292 Z" fill="#000000" fill-rule="evenodd" fill-opacity="1" /><polyline clip-path="url(#clip272)" style="stroke:#009af9; stroke-linecap:butt; stroke-linejoin:round; stroke-width:4; stroke-opacity:1; fill:none" points="
  255.035,86.2342 275.401,378.072 295.767,576.531 316.133,713.179 336.5,811.607 356.866,885.492 377.232,942.866 397.598,988.662 417.964,1026.05 438.331,1057.14 
  458.697,1083.42 479.063,1105.91 499.429,1125.4 519.796,1142.44 540.162,1157.48 560.528,1170.86 580.894,1182.84 601.261,1193.64 621.627,1203.42 641.993,1212.33 
  662.359,1220.48 682.725,1227.97 703.092,1234.88 723.458,1241.28 743.824,1247.22 764.19,1252.75 784.557,1257.92 804.923,1262.77 825.289,1267.32 845.655,1271.6 
  866.021,1275.64 886.388,1279.47 906.754,1283.09 927.12,1286.52 947.486,1289.79 967.853,1292.91 988.219,1295.88 1008.59,1298.72 1028.95,1301.43 1049.32,1304.04 
  1069.68,1306.53 1090.05,1308.93 1110.42,1311.24 1130.78,1313.47 1151.15,1315.61 1171.51,1317.68 1191.88,1319.69 1212.25,1321.62 1232.61,1323.5 1252.98,1325.32 
  1273.35,1327.08 1293.71,1328.8 1314.08,1330.46 1334.44,1332.08 1354.81,1333.66 1375.18,1335.2 1395.54,1336.7 1415.91,1338.16 1436.28,1339.59 1456.64,1340.99 
  1477.01,1342.36 1497.37,1343.7 1517.74,1345.01 1538.11,1346.3 1558.47,1347.56 1578.84,1348.8 1599.21,1350.02 1619.57,1351.21 1639.94,1352.39 1660.3,1353.55 
  1680.67,1354.69 1701.04,1355.81 1721.4,1356.92 1741.77,1358.01 1762.14,1359.09 1782.5,1360.15 1802.87,1361.21 1823.23,1362.25 1843.6,1363.27 1863.97,1364.29 
  1884.33,1365.3 1904.7,1366.3 1925.07,1367.29 1945.43,1368.27 1965.8,1369.25 1986.16,1370.22 2006.53,1371.18 2026.9,1372.13 2047.26,1373.08 2067.63,1374.03 
  2087.99,1374.97 2108.36,1375.91 2128.73,1376.84 2149.09,1377.77 2169.46,1378.7 2189.83,1379.63 2210.19,1380.55 2230.56,1381.47 2250.92,1382.39 2271.29,1383.32 
  2291.66,1384.24 
  "/>
<polyline clip-path="url(#clip272)" style="stroke:#e26f46; stroke-linecap:butt; stroke-linejoin:round; stroke-width:4; stroke-opacity:1; fill:none" points="
  255.035,86.2342 275.401,86.1857 295.767,86.3288 316.133,88.7674 336.5,95.5167 356.866,107.344 377.232,123.967 397.598,144.579 417.964,168.234 438.331,194.046 
  458.697,221.262 479.063,249.283 499.429,277.644 519.796,305.999 540.162,334.093 560.528,361.743 580.894,388.822 601.261,415.245 621.627,440.96 641.993,465.936 
  662.359,490.161 682.725,513.635 703.092,536.367 723.458,558.374 743.824,579.676 764.19,600.296 784.557,620.26 804.923,639.593 825.289,658.323 845.655,676.475 
  866.021,694.076 886.388,711.152 906.754,727.727 927.12,743.826 947.486,759.47 967.853,774.683 988.219,789.485 1008.59,803.895 1028.95,817.935 1049.32,831.62 
  1069.68,844.97 1090.05,858 1110.42,870.725 1130.78,883.161 1151.15,895.321 1171.51,907.219 1191.88,918.868 1212.25,930.28 1232.61,941.466 1252.98,952.437 
  1273.35,963.204 1293.71,973.776 1314.08,984.162 1334.44,994.373 1354.81,1004.42 1375.18,1014.3 1395.54,1024.03 1415.91,1033.62 1436.28,1043.07 1456.64,1052.39 
  1477.01,1061.59 1497.37,1070.67 1517.74,1079.64 1538.11,1088.51 1558.47,1097.28 1578.84,1105.95 1599.21,1114.53 1619.57,1123.04 1639.94,1131.46 1660.3,1139.81 
  1680.67,1148.09 1701.04,1156.3 1721.4,1164.46 1741.77,1172.56 1762.14,1180.61 1782.5,1188.61 1802.87,1196.57 1823.23,1204.49 1843.6,1212.37 1863.97,1220.22 
  1884.33,1228.05 1904.7,1235.85 1925.07,1243.63 1945.43,1251.39 1965.8,1259.14 1986.16,1266.88 2006.53,1274.61 2026.9,1282.34 2047.26,1290.07 2067.63,1297.81 
  2087.99,1305.55 2108.36,1313.3 2128.73,1321.08 2149.09,1328.87 2169.46,1336.68 2189.83,1344.52 2210.19,1352.38 2230.56,1360.29 2250.92,1368.23 2271.29,1376.21 
  2291.66,1384.24 
  "/>
<polyline clip-path="url(#clip272)" style="stroke:#3da44d; stroke-linecap:butt; stroke-linejoin:round; stroke-width:4; stroke-opacity:1; fill:none" points="
  255.035,86.2342 275.401,86.2335 295.767,86.2345 316.133,86.2316 336.5,86.2687 356.866,86.5123 377.232,87.2343 397.598,88.7371 417.964,91.282 438.331,95.0525 
  458.697,100.147 479.063,106.588 499.429,114.343 519.796,123.336 540.162,133.468 560.528,144.628 580.894,156.699 601.261,169.566 621.627,183.121 641.993,197.261 
  662.359,211.894 682.725,226.935 703.092,242.31 723.458,257.952 743.824,273.803 764.19,289.813 784.557,305.937 804.923,322.137 825.289,338.38 845.655,354.638 
  866.021,370.887 886.388,387.106 906.754,403.28 927.12,419.394 947.486,435.436 967.853,451.396 988.219,467.268 1008.59,483.044 1028.95,498.722 1049.32,514.297 
  1069.68,529.767 1090.05,545.131 1110.42,560.389 1130.78,575.541 1151.15,590.587 1171.51,605.53 1191.88,620.371 1212.25,635.112 1232.61,649.757 1252.98,664.307 
  1273.35,678.766 1293.71,693.137 1314.08,707.425 1334.44,721.632 1354.81,735.763 1375.18,749.821 1395.54,763.811 1415.91,777.737 1436.28,791.603 1456.64,805.412 
  1477.01,819.171 1497.37,832.882 1517.74,846.551 1538.11,860.182 1558.47,873.78 1578.84,887.349 1599.21,900.893 1619.57,914.418 1639.94,927.928 1660.3,941.428 
  1680.67,954.922 1701.04,968.416 1721.4,981.915 1741.77,995.422 1762.14,1008.94 1782.5,1022.49 1802.87,1036.05 1823.23,1049.65 1843.6,1063.28 1863.97,1076.95 
  1884.33,1090.67 1904.7,1104.43 1925.07,1118.26 1945.43,1132.15 1965.8,1146.1 1986.16,1160.14 2006.53,1174.25 2026.9,1188.45 2047.26,1202.74 2067.63,1217.14 
  2087.99,1231.64 2108.36,1246.26 2128.73,1260.99 2149.09,1275.86 2169.46,1290.87 2189.83,1306.01 2210.19,1321.32 2230.56,1336.78 2250.92,1352.42 2271.29,1368.23 
  2291.66,1384.24 
  "/>
<polyline clip-path="url(#clip272)" style="stroke:#c271d2; stroke-linecap:butt; stroke-linejoin:round; stroke-width:4; stroke-opacity:1; fill:none" points="
  255.035,86.2342 275.401,86.2342 295.767,86.2342 316.133,86.2342 336.5,86.2342 356.866,86.2342 377.232,86.2342 397.598,86.2342 417.964,86.2342 438.331,86.2342 
  458.697,86.2342 479.063,86.2342 499.429,86.2342 519.796,86.2342 540.162,86.2342 560.528,86.2343 580.894,86.2346 601.261,86.2354 621.627,86.2368 641.993,86.2395 
  662.359,86.2444 682.725,86.2524 703.092,86.2652 723.458,86.2846 743.824,86.3131 764.19,86.3538 784.557,86.4101 804.923,86.4862 825.289,86.5868 845.655,86.7173 
  866.021,86.8836 886.388,87.0924 906.754,87.3509 927.12,87.6668 947.486,88.0485 967.853,88.5048 988.219,89.0452 1008.59,89.6796 1028.95,90.4186 1049.32,91.2731 
  1069.68,92.2545 1090.05,93.3748 1110.42,94.6463 1130.78,96.0821 1151.15,97.6954 1171.51,99.5 1191.88,101.51 1212.25,103.741 1232.61,106.208 1252.98,108.927 
  1273.35,111.915 1293.71,115.188 1314.08,118.764 1334.44,122.662 1354.81,126.901 1375.18,131.501 1395.54,136.482 1415.91,141.866 1436.28,147.677 1456.64,153.936 
  1477.01,160.669 1497.37,167.902 1517.74,175.661 1538.11,183.975 1558.47,192.873 1578.84,202.386 1599.21,212.548 1619.57,223.393 1639.94,234.956 1660.3,247.278 
  1680.67,260.397 1701.04,274.356 1721.4,289.202 1741.77,304.982 1762.14,321.746 1782.5,339.549 1802.87,358.448 1823.23,378.503 1843.6,399.779 1863.97,422.345 
  1884.33,446.274 1904.7,471.644 1925.07,498.539 1945.43,527.047 1965.8,557.263 1986.16,589.289 2006.53,623.233 2026.9,659.213 2047.26,697.353 2067.63,737.786 
  2087.99,780.658 2108.36,826.122 2128.73,874.345 2149.09,925.507 2169.46,979.799 2189.83,1037.43 2210.19,1098.63 2230.56,1163.63 2250.92,1232.71 2271.29,1306.14 
  2291.66,1384.24 
  "/>
<polyline clip-path="url(#clip272)" style="stroke:#ac8d18; stroke-linecap:butt; stroke-linejoin:round; stroke-width:4; stroke-opacity:1; fill:none" points="
  255.035,86.2342 275.401,86.2342 295.767,86.2342 316.133,86.2342 336.5,86.2342 356.866,86.2342 377.232,86.2342 397.598,86.2342 417.964,86.2342 438.331,86.2342 
  458.697,86.2342 479.063,86.2342 499.429,86.2342 519.796,86.2342 540.162,86.2342 560.528,86.2342 580.894,86.2342 601.261,86.2342 621.627,86.2342 641.993,86.2342 
  662.359,86.2342 682.725,86.2342 703.092,86.2342 723.458,86.2342 743.824,86.2342 764.19,86.2342 784.557,86.2342 804.923,86.2342 825.289,86.2342 845.655,86.2343 
  866.021,86.2345 886.388,86.2347 906.754,86.2351 927.12,86.2356 947.486,86.2366 967.853,86.2379 988.219,86.24 1008.59,86.2429 1028.95,86.2472 1049.32,86.2531 
  1069.68,86.2613 1090.05,86.2724 1110.42,86.2873 1130.78,86.3072 1151.15,86.3332 1171.51,86.3671 1191.88,86.4107 1212.25,86.4663 1232.61,86.5367 1252.98,86.6251 
  1273.35,86.7353 1293.71,86.8717 1314.08,87.0396 1334.44,87.2449 1354.81,87.4947 1375.18,87.7969 1395.54,88.1609 1415.91,88.5972 1436.28,89.1179 1456.64,89.737 
  1477.01,90.4702 1497.37,91.3354 1517.74,92.3531 1538.11,93.5463 1558.47,94.9411 1578.84,96.5672 1599.21,98.4579 1619.57,100.651 1639.94,103.189 1660.3,106.119 
  1680.67,109.497 1701.04,113.382 1721.4,117.842 1741.77,122.956 1762.14,128.809 1782.5,135.498 1802.87,143.133 1823.23,151.838 1843.6,161.75 1863.97,173.026 
  1884.33,185.84 1904.7,200.39 1925.07,216.897 1945.43,235.613 1965.8,256.818 1986.16,280.831 2006.53,308.009 2026.9,338.757 2047.26,373.532 2067.63,412.85 
  2087.99,457.294 2108.36,507.525 2128.73,564.291 2149.09,628.44 2169.46,700.935 2189.83,782.87 2210.19,875.488 2230.56,980.204 2250.92,1098.63 2271.29,1232.61 
  2291.66,1384.24 
  "/>
<path clip-path="url(#clip270)" d="
M265.897 1377.32 L703.704 1377.32 L703.704 1066.28 L265.897 1066.28  Z
  " fill="#ffffff" fill-rule="evenodd" fill-opacity="1"/>
<polyline clip-path="url(#clip270)" style="stroke:#000000; stroke-linecap:butt; stroke-linejoin:round; stroke-width:4; stroke-opacity:1; fill:none" points="
  265.897,1377.32 703.704,1377.32 703.704,1066.28 265.897,1066.28 265.897,1377.32 
  "/>
<polyline clip-path="url(#clip270)" style="stroke:#009af9; stroke-linecap:butt; stroke-linejoin:round; stroke-width:4; stroke-opacity:1; fill:none" points="
  289.884,1118.12 433.805,1118.12 
  "/>
<path clip-path="url(#clip270)" d="M471.056 1103.43 L483.023 1135.4 L478.509 1135.4 L471.241 1116.23 L462.306 1135.4 L457.792 1135.4 L469.157 1110.53 L467.444 1105.95 Q466.357 1103.03 463.88 1103.03 L461.657 1103.03 L461.657 1099.38 L464.366 1099.42 Q469.597 1099.49 471.056 1103.43 Z" fill="#000000" fill-rule="evenodd" fill-opacity="1" /><path clip-path="url(#clip270)" d="M489.458 1113.87 L519.134 1113.87 L519.134 1117.76 L489.458 1117.76 L489.458 1113.87 M489.458 1123.31 L519.134 1123.31 L519.134 1127.25 L489.458 1127.25 L489.458 1123.31 Z" fill="#000000" fill-rule="evenodd" fill-opacity="1" /><path clip-path="url(#clip270)" d="M530.037 1131.46 L537.676 1131.46 L537.676 1105.09 L529.365 1106.76 L529.365 1102.5 L537.629 1100.84 L542.305 1100.84 L542.305 1131.46 L549.944 1131.46 L549.944 1135.4 L530.037 1135.4 L530.037 1131.46 Z" fill="#000000" fill-rule="evenodd" fill-opacity="1" /><path clip-path="url(#clip270)" d="M559.388 1129.52 L564.273 1129.52 L564.273 1135.4 L559.388 1135.4 L559.388 1129.52 Z" fill="#000000" fill-rule="evenodd" fill-opacity="1" /><path clip-path="url(#clip270)" d="M584.458 1103.91 Q580.847 1103.91 579.018 1107.48 Q577.212 1111.02 577.212 1118.15 Q577.212 1125.26 579.018 1128.82 Q580.847 1132.36 584.458 1132.36 Q588.092 1132.36 589.898 1128.82 Q591.726 1125.26 591.726 1118.15 Q591.726 1111.02 589.898 1107.48 Q588.092 1103.91 584.458 1103.91 M584.458 1100.21 Q590.268 1100.21 593.323 1104.82 Q596.402 1109.4 596.402 1118.15 Q596.402 1126.88 593.323 1131.48 Q590.268 1136.07 584.458 1136.07 Q578.648 1136.07 575.569 1131.48 Q572.513 1126.88 572.513 1118.15 Q572.513 1109.4 575.569 1104.82 Q578.648 1100.21 584.458 1100.21 Z" fill="#000000" fill-rule="evenodd" fill-opacity="1" /><polyline clip-path="url(#clip270)" style="stroke:#e26f46; stroke-linecap:butt; stroke-linejoin:round; stroke-width:4; stroke-opacity:1; fill:none" points="
  289.884,1169.96 433.805,1169.96 
  "/>
<path clip-path="url(#clip270)" d="M471.056 1155.27 L483.023 1187.24 L478.509 1187.24 L471.241 1168.07 L462.306 1187.24 L457.792 1187.24 L469.157 1162.37 L467.444 1157.79 Q466.357 1154.87 463.88 1154.87 L461.657 1154.87 L461.657 1151.22 L464.366 1151.26 Q469.597 1151.33 471.056 1155.27 Z" fill="#000000" fill-rule="evenodd" fill-opacity="1" /><path clip-path="url(#clip270)" d="M489.458 1165.71 L519.134 1165.71 L519.134 1169.6 L489.458 1169.6 L489.458 1165.71 M489.458 1175.15 L519.134 1175.15 L519.134 1179.09 L489.458 1179.09 L489.458 1175.15 Z" fill="#000000" fill-rule="evenodd" fill-opacity="1" /><path clip-path="url(#clip270)" d="M539.227 1155.75 Q535.615 1155.75 533.787 1159.32 Q531.981 1162.86 531.981 1169.99 Q531.981 1177.1 533.787 1180.66 Q535.615 1184.2 539.227 1184.2 Q542.861 1184.2 544.666 1180.66 Q546.495 1177.1 546.495 1169.99 Q546.495 1162.86 544.666 1159.32 Q542.861 1155.75 539.227 1155.75 M539.227 1152.05 Q545.037 1152.05 548.092 1156.66 Q551.171 1161.24 551.171 1169.99 Q551.171 1178.72 548.092 1183.32 Q545.037 1187.91 539.227 1187.91 Q533.416 1187.91 530.338 1183.32 Q527.282 1178.72 527.282 1169.99 Q527.282 1161.24 530.338 1156.66 Q533.416 1152.05 539.227 1152.05 Z" fill="#000000" fill-rule="evenodd" fill-opacity="1" /><path clip-path="url(#clip270)" d="M559.388 1181.36 L564.273 1181.36 L564.273 1187.24 L559.388 1187.24 L559.388 1181.36 Z" fill="#000000" fill-rule="evenodd" fill-opacity="1" /><path clip-path="url(#clip270)" d="M575.268 1183.3 L582.907 1183.3 L582.907 1156.93 L574.597 1158.6 L574.597 1154.34 L582.861 1152.68 L587.536 1152.68 L587.536 1183.3 L595.175 1183.3 L595.175 1187.24 L575.268 1187.24 L575.268 1183.3 Z" fill="#000000" fill-rule="evenodd" fill-opacity="1" /><polyline clip-path="url(#clip270)" style="stroke:#3da44d; stroke-linecap:butt; stroke-linejoin:round; stroke-width:4; stroke-opacity:1; fill:none" points="
  289.884,1221.8 433.805,1221.8 
  "/>
<path clip-path="url(#clip270)" d="M471.056 1207.11 L483.023 1239.08 L478.509 1239.08 L471.241 1219.91 L462.306 1239.08 L457.792 1239.08 L469.157 1214.21 L467.444 1209.63 Q466.357 1206.71 463.88 1206.71 L461.657 1206.71 L461.657 1203.06 L464.366 1203.1 Q469.597 1203.17 471.056 1207.11 Z" fill="#000000" fill-rule="evenodd" fill-opacity="1" /><path clip-path="url(#clip270)" d="M489.458 1217.55 L519.134 1217.55 L519.134 1221.44 L489.458 1221.44 L489.458 1217.55 M489.458 1226.99 L519.134 1226.99 L519.134 1230.93 L489.458 1230.93 L489.458 1226.99 Z" fill="#000000" fill-rule="evenodd" fill-opacity="1" /><path clip-path="url(#clip270)" d="M539.227 1207.59 Q535.615 1207.59 533.787 1211.16 Q531.981 1214.7 531.981 1221.83 Q531.981 1228.94 533.787 1232.5 Q535.615 1236.04 539.227 1236.04 Q542.861 1236.04 544.666 1232.5 Q546.495 1228.94 546.495 1221.83 Q546.495 1214.7 544.666 1211.16 Q542.861 1207.59 539.227 1207.59 M539.227 1203.89 Q545.037 1203.89 548.092 1208.5 Q551.171 1213.08 551.171 1221.83 Q551.171 1230.56 548.092 1235.16 Q545.037 1239.75 539.227 1239.75 Q533.416 1239.75 530.338 1235.16 Q527.282 1230.56 527.282 1221.83 Q527.282 1213.08 530.338 1208.5 Q533.416 1203.89 539.227 1203.89 Z" fill="#000000" fill-rule="evenodd" fill-opacity="1" /><path clip-path="url(#clip270)" d="M559.388 1233.2 L564.273 1233.2 L564.273 1239.08 L559.388 1239.08 L559.388 1233.2 Z" fill="#000000" fill-rule="evenodd" fill-opacity="1" /><path clip-path="url(#clip270)" d="M584.458 1207.59 Q580.847 1207.59 579.018 1211.16 Q577.212 1214.7 577.212 1221.83 Q577.212 1228.94 579.018 1232.5 Q580.847 1236.04 584.458 1236.04 Q588.092 1236.04 589.898 1232.5 Q591.726 1228.94 591.726 1221.83 Q591.726 1214.7 589.898 1211.16 Q588.092 1207.59 584.458 1207.59 M584.458 1203.89 Q590.268 1203.89 593.323 1208.5 Q596.402 1213.08 596.402 1221.83 Q596.402 1230.56 593.323 1235.16 Q590.268 1239.75 584.458 1239.75 Q578.648 1239.75 575.569 1235.16 Q572.513 1230.56 572.513 1221.83 Q572.513 1213.08 575.569 1208.5 Q578.648 1203.89 584.458 1203.89 Z" fill="#000000" fill-rule="evenodd" fill-opacity="1" /><path clip-path="url(#clip270)" d="M604.666 1204.52 L623.022 1204.52 L623.022 1208.45 L608.948 1208.45 L608.948 1216.92 Q609.967 1216.58 610.985 1216.41 Q612.004 1216.23 613.022 1216.23 Q618.809 1216.23 622.189 1219.4 Q625.569 1222.57 625.569 1227.99 Q625.569 1233.57 622.096 1236.67 Q618.624 1239.75 612.305 1239.75 Q610.129 1239.75 607.86 1239.38 Q605.615 1239.01 603.208 1238.27 L603.208 1233.57 Q605.291 1234.7 607.513 1235.26 Q609.735 1235.81 612.212 1235.81 Q616.217 1235.81 618.555 1233.7 Q620.893 1231.6 620.893 1227.99 Q620.893 1224.38 618.555 1222.27 Q616.217 1220.16 612.212 1220.16 Q610.337 1220.16 608.462 1220.58 Q606.61 1221 604.666 1221.88 L604.666 1204.52 Z" fill="#000000" fill-rule="evenodd" fill-opacity="1" /><polyline clip-path="url(#clip270)" style="stroke:#c271d2; stroke-linecap:butt; stroke-linejoin:round; stroke-width:4; stroke-opacity:1; fill:none" points="
  289.884,1273.64 433.805,1273.64 
  "/>
<path clip-path="url(#clip270)" d="M471.056 1258.95 L483.023 1290.92 L478.509 1290.92 L471.241 1271.75 L462.306 1290.92 L457.792 1290.92 L469.157 1266.05 L467.444 1261.47 Q466.357 1258.55 463.88 1258.55 L461.657 1258.55 L461.657 1254.9 L464.366 1254.94 Q469.597 1255.01 471.056 1258.95 Z" fill="#000000" fill-rule="evenodd" fill-opacity="1" /><path clip-path="url(#clip270)" d="M489.458 1269.39 L519.134 1269.39 L519.134 1273.28 L489.458 1273.28 L489.458 1269.39 M489.458 1278.83 L519.134 1278.83 L519.134 1282.77 L489.458 1282.77 L489.458 1278.83 Z" fill="#000000" fill-rule="evenodd" fill-opacity="1" /><path clip-path="url(#clip270)" d="M539.227 1259.43 Q535.615 1259.43 533.787 1263 Q531.981 1266.54 531.981 1273.67 Q531.981 1280.78 533.787 1284.34 Q535.615 1287.88 539.227 1287.88 Q542.861 1287.88 544.666 1284.34 Q546.495 1280.78 546.495 1273.67 Q546.495 1266.54 544.666 1263 Q542.861 1259.43 539.227 1259.43 M539.227 1255.73 Q545.037 1255.73 548.092 1260.34 Q551.171 1264.92 551.171 1273.67 Q551.171 1282.4 548.092 1287 Q545.037 1291.59 539.227 1291.59 Q533.416 1291.59 530.338 1287 Q527.282 1282.4 527.282 1273.67 Q527.282 1264.92 530.338 1260.34 Q533.416 1255.73 539.227 1255.73 Z" fill="#000000" fill-rule="evenodd" fill-opacity="1" /><path clip-path="url(#clip270)" d="M559.388 1285.04 L564.273 1285.04 L564.273 1290.92 L559.388 1290.92 L559.388 1285.04 Z" fill="#000000" fill-rule="evenodd" fill-opacity="1" /><path clip-path="url(#clip270)" d="M584.458 1259.43 Q580.847 1259.43 579.018 1263 Q577.212 1266.54 577.212 1273.67 Q577.212 1280.78 579.018 1284.34 Q580.847 1287.88 584.458 1287.88 Q588.092 1287.88 589.898 1284.34 Q591.726 1280.78 591.726 1273.67 Q591.726 1266.54 589.898 1263 Q588.092 1259.43 584.458 1259.43 M584.458 1255.73 Q590.268 1255.73 593.323 1260.34 Q596.402 1264.92 596.402 1273.67 Q596.402 1282.4 593.323 1287 Q590.268 1291.59 584.458 1291.59 Q578.648 1291.59 575.569 1287 Q572.513 1282.4 572.513 1273.67 Q572.513 1264.92 575.569 1260.34 Q578.648 1255.73 584.458 1255.73 Z" fill="#000000" fill-rule="evenodd" fill-opacity="1" /><path clip-path="url(#clip270)" d="M605.43 1286.98 L613.069 1286.98 L613.069 1260.61 L604.759 1262.28 L604.759 1258.02 L613.022 1256.36 L617.698 1256.36 L617.698 1286.98 L625.337 1286.98 L625.337 1290.92 L605.43 1290.92 L605.43 1286.98 Z" fill="#000000" fill-rule="evenodd" fill-opacity="1" /><polyline clip-path="url(#clip270)" style="stroke:#ac8d18; stroke-linecap:butt; stroke-linejoin:round; stroke-width:4; stroke-opacity:1; fill:none" points="
  289.884,1325.48 433.805,1325.48 
  "/>
<path clip-path="url(#clip270)" d="M471.056 1310.79 L483.023 1342.76 L478.509 1342.76 L471.241 1323.59 L462.306 1342.76 L457.792 1342.76 L469.157 1317.89 L467.444 1313.31 Q466.357 1310.39 463.88 1310.39 L461.657 1310.39 L461.657 1306.74 L464.366 1306.78 Q469.597 1306.85 471.056 1310.79 Z" fill="#000000" fill-rule="evenodd" fill-opacity="1" /><path clip-path="url(#clip270)" d="M489.458 1321.23 L519.134 1321.23 L519.134 1325.12 L489.458 1325.12 L489.458 1321.23 M489.458 1330.67 L519.134 1330.67 L519.134 1334.61 L489.458 1334.61 L489.458 1330.67 Z" fill="#000000" fill-rule="evenodd" fill-opacity="1" /><path clip-path="url(#clip270)" d="M539.227 1311.27 Q535.615 1311.27 533.787 1314.84 Q531.981 1318.38 531.981 1325.51 Q531.981 1332.62 533.787 1336.18 Q535.615 1339.72 539.227 1339.72 Q542.861 1339.72 544.666 1336.18 Q546.495 1332.62 546.495 1325.51 Q546.495 1318.38 544.666 1314.84 Q542.861 1311.27 539.227 1311.27 M539.227 1307.57 Q545.037 1307.57 548.092 1312.18 Q551.171 1316.76 551.171 1325.51 Q551.171 1334.24 548.092 1338.84 Q545.037 1343.43 539.227 1343.43 Q533.416 1343.43 530.338 1338.84 Q527.282 1334.24 527.282 1325.51 Q527.282 1316.76 530.338 1312.18 Q533.416 1307.57 539.227 1307.57 Z" fill="#000000" fill-rule="evenodd" fill-opacity="1" /><path clip-path="url(#clip270)" d="M559.388 1336.88 L564.273 1336.88 L564.273 1342.76 L559.388 1342.76 L559.388 1336.88 Z" fill="#000000" fill-rule="evenodd" fill-opacity="1" /><path clip-path="url(#clip270)" d="M584.458 1311.27 Q580.847 1311.27 579.018 1314.84 Q577.212 1318.38 577.212 1325.51 Q577.212 1332.62 579.018 1336.18 Q580.847 1339.72 584.458 1339.72 Q588.092 1339.72 589.898 1336.18 Q591.726 1332.62 591.726 1325.51 Q591.726 1318.38 589.898 1314.84 Q588.092 1311.27 584.458 1311.27 M584.458 1307.57 Q590.268 1307.57 593.323 1312.18 Q596.402 1316.76 596.402 1325.51 Q596.402 1334.24 593.323 1338.84 Q590.268 1343.43 584.458 1343.43 Q578.648 1343.43 575.569 1338.84 Q572.513 1334.24 572.513 1325.51 Q572.513 1316.76 575.569 1312.18 Q578.648 1307.57 584.458 1307.57 Z" fill="#000000" fill-rule="evenodd" fill-opacity="1" /><path clip-path="url(#clip270)" d="M614.62 1311.27 Q611.009 1311.27 609.18 1314.84 Q607.374 1318.38 607.374 1325.51 Q607.374 1332.62 609.18 1336.18 Q611.009 1339.72 614.62 1339.72 Q618.254 1339.72 620.059 1336.18 Q621.888 1332.62 621.888 1325.51 Q621.888 1318.38 620.059 1314.84 Q618.254 1311.27 614.62 1311.27 M614.62 1307.57 Q620.43 1307.57 623.485 1312.18 Q626.564 1316.76 626.564 1325.51 Q626.564 1334.24 623.485 1338.84 Q620.43 1343.43 614.62 1343.43 Q608.809 1343.43 605.731 1338.84 Q602.675 1334.24 602.675 1325.51 Q602.675 1316.76 605.731 1312.18 Q608.809 1307.57 614.62 1307.57 Z" fill="#000000" fill-rule="evenodd" fill-opacity="1" /><path clip-path="url(#clip270)" d="M634.828 1308.2 L653.184 1308.2 L653.184 1312.13 L639.11 1312.13 L639.11 1320.6 Q640.129 1320.26 641.147 1320.09 Q642.166 1319.91 643.184 1319.91 Q648.971 1319.91 652.351 1323.08 Q655.731 1326.25 655.731 1331.67 Q655.731 1337.25 652.258 1340.35 Q648.786 1343.43 642.467 1343.43 Q640.291 1343.43 638.022 1343.06 Q635.777 1342.69 633.37 1341.95 L633.37 1337.25 Q635.453 1338.38 637.675 1338.94 Q639.897 1339.49 642.374 1339.49 Q646.379 1339.49 648.717 1337.38 Q651.055 1335.28 651.055 1331.67 Q651.055 1328.06 648.717 1325.95 Q646.379 1323.84 642.374 1323.84 Q640.499 1323.84 638.624 1324.26 Q636.772 1324.68 634.828 1325.56 L634.828 1308.2 Z" fill="#000000" fill-rule="evenodd" fill-opacity="1" /></svg>
