<?xml version="1.0" encoding="utf-8"?>
<svg xmlns="http://www.w3.org/2000/svg" xmlns:xlink="http://www.w3.org/1999/xlink" width="600" height="400" viewBox="0 0 2400 1600">
<defs>
  <clipPath id="clip920">
    <rect x="0" y="0" width="2400" height="1600"/>
  </clipPath>
</defs>
<path clip-path="url(#clip920)" d="
M0 1600 L2400 1600 L2400 0 L0 0  Z
  " fill="#ffffff" fill-rule="evenodd" fill-opacity="1"/>
<defs>
  <clipPath id="clip921">
    <rect x="480" y="0" width="1681" height="1600"/>
  </clipPath>
</defs>
<path clip-path="url(#clip920)" d="
M180.66 1425.62 L2352.76 1425.62 L2352.76 47.2441 L180.66 47.2441  Z
  " fill="#ffffff" fill-rule="evenodd" fill-opacity="1"/>
<defs>
  <clipPath id="clip922">
    <rect x="180" y="47" width="2173" height="1379"/>
  </clipPath>
</defs>
<polyline clip-path="url(#clip922)" style="stroke:#000000; stroke-linecap:butt; stroke-linejoin:round; stroke-width:2; stroke-opacity:0.1; fill:none" points="
  242.135,1425.62 242.135,47.2441 
  "/>
<polyline clip-path="url(#clip922)" style="stroke:#000000; stroke-linecap:butt; stroke-linejoin:round; stroke-width:2; stroke-opacity:0.1; fill:none" points="
  754.421,1425.62 754.421,47.2441 
  "/>
<polyline clip-path="url(#clip922)" style="stroke:#000000; stroke-linecap:butt; stroke-linejoin:round; stroke-width:2; stroke-opacity:0.1; fill:none" points="
  1266.71,1425.62 1266.71,47.2441 
  "/>
<polyline clip-path="url(#clip922)" style="stroke:#000000; stroke-linecap:butt; stroke-linejoin:round; stroke-width:2; stroke-opacity:0.1; fill:none" points="
  1778.99,1425.62 1778.99,47.2441 
  "/>
<polyline clip-path="url(#clip922)" style="stroke:#000000; stroke-linecap:butt; stroke-linejoin:round; stroke-width:2; stroke-opacity:0.1; fill:none" points="
  2291.28,1425.62 2291.28,47.2441 
  "/>
<polyline clip-path="url(#clip920)" style="stroke:#000000; stroke-linecap:butt; stroke-linejoin:round; stroke-width:4; stroke-opacity:1; fill:none" points="
  180.66,1425.62 2352.76,1425.62 
  "/>
<polyline clip-path="url(#clip920)" style="stroke:#000000; stroke-linecap:butt; stroke-linejoin:round; stroke-width:4; stroke-opacity:1; fill:none" points="
  242.135,1425.62 242.135,1406.72 
  "/>
<polyline clip-path="url(#clip920)" style="stroke:#000000; stroke-linecap:butt; stroke-linejoin:round; stroke-width:4; stroke-opacity:1; fill:none" points="
  754.421,1425.62 754.421,1406.72 
  "/>
<polyline clip-path="url(#clip920)" style="stroke:#000000; stroke-linecap:butt; stroke-linejoin:round; stroke-width:4; stroke-opacity:1; fill:none" points="
  1266.71,1425.62 1266.71,1406.72 
  "/>
<polyline clip-path="url(#clip920)" style="stroke:#000000; stroke-linecap:butt; stroke-linejoin:round; stroke-width:4; stroke-opacity:1; fill:none" points="
  1778.99,1425.62 1778.99,1406.72 
  "/>
<polyline clip-path="url(#clip920)" style="stroke:#000000; stroke-linecap:butt; stroke-linejoin:round; stroke-width:4; stroke-opacity:1; fill:none" points="
  2291.28,1425.62 2291.28,1406.72 
  "/>
<g clip-path="url(#clip920)">
<text style="fill:#000000; fill-opacity:1; font-family:Arial,Helvetica Neue,Helvetica,sans-serif; font-size:48px; text-anchor:middle;" transform="rotate(0, 242.135, 1487.47)" x="242.135" y="1487.47">−1.0</text>
</g>
<g clip-path="url(#clip920)">
<text style="fill:#000000; fill-opacity:1; font-family:Arial,Helvetica Neue,Helvetica,sans-serif; font-size:48px; text-anchor:middle;" transform="rotate(0, 754.421, 1487.47)" x="754.421" y="1487.47">−0.5</text>
</g>
<g clip-path="url(#clip920)">
<text style="fill:#000000; fill-opacity:1; font-family:Arial,Helvetica Neue,Helvetica,sans-serif; font-size:48px; text-anchor:middle;" transform="rotate(0, 1266.71, 1487.47)" x="1266.71" y="1487.47">0.0</text>
</g>
<g clip-path="url(#clip920)">
<text style="fill:#000000; fill-opacity:1; font-family:Arial,Helvetica Neue,Helvetica,sans-serif; font-size:48px; text-anchor:middle;" transform="rotate(0, 1778.99, 1487.47)" x="1778.99" y="1487.47">0.5</text>
</g>
<g clip-path="url(#clip920)">
<text style="fill:#000000; fill-opacity:1; font-family:Arial,Helvetica Neue,Helvetica,sans-serif; font-size:48px; text-anchor:middle;" transform="rotate(0, 2291.28, 1487.47)" x="2291.28" y="1487.47">1.0</text>
</g>
<g clip-path="url(#clip920)">
<text style="fill:#000000; fill-opacity:1; font-family:Arial,Helvetica Neue,Helvetica,sans-serif; font-size:66px; text-anchor:middle;" transform="rotate(0, 1266.71, 1571.48)" x="1266.71" y="1571.48">x</text>
</g>
<polyline clip-path="url(#clip922)" style="stroke:#000000; stroke-linecap:butt; stroke-linejoin:round; stroke-width:2; stroke-opacity:0.1; fill:none" points="
  180.66,1386.61 2352.76,1386.61 
  "/>
<polyline clip-path="url(#clip922)" style="stroke:#000000; stroke-linecap:butt; stroke-linejoin:round; stroke-width:2; stroke-opacity:0.1; fill:none" points="
  180.66,1061.53 2352.76,1061.53 
  "/>
<polyline clip-path="url(#clip922)" style="stroke:#000000; stroke-linecap:butt; stroke-linejoin:round; stroke-width:2; stroke-opacity:0.1; fill:none" points="
  180.66,736.456 2352.76,736.456 
  "/>
<polyline clip-path="url(#clip922)" style="stroke:#000000; stroke-linecap:butt; stroke-linejoin:round; stroke-width:2; stroke-opacity:0.1; fill:none" points="
  180.66,411.379 2352.76,411.379 
  "/>
<polyline clip-path="url(#clip922)" style="stroke:#000000; stroke-linecap:butt; stroke-linejoin:round; stroke-width:2; stroke-opacity:0.1; fill:none" points="
  180.66,86.3033 2352.76,86.3033 
  "/>
<polyline clip-path="url(#clip920)" style="stroke:#000000; stroke-linecap:butt; stroke-linejoin:round; stroke-width:4; stroke-opacity:1; fill:none" points="
  180.66,1425.62 180.66,47.2441 
  "/>
<polyline clip-path="url(#clip920)" style="stroke:#000000; stroke-linecap:butt; stroke-linejoin:round; stroke-width:4; stroke-opacity:1; fill:none" points="
  180.66,1386.61 199.558,1386.61 
  "/>
<polyline clip-path="url(#clip920)" style="stroke:#000000; stroke-linecap:butt; stroke-linejoin:round; stroke-width:4; stroke-opacity:1; fill:none" points="
  180.66,1061.53 199.558,1061.53 
  "/>
<polyline clip-path="url(#clip920)" style="stroke:#000000; stroke-linecap:butt; stroke-linejoin:round; stroke-width:4; stroke-opacity:1; fill:none" points="
  180.66,736.456 199.558,736.456 
  "/>
<polyline clip-path="url(#clip920)" style="stroke:#000000; stroke-linecap:butt; stroke-linejoin:round; stroke-width:4; stroke-opacity:1; fill:none" points="
  180.66,411.379 199.558,411.379 
  "/>
<polyline clip-path="url(#clip920)" style="stroke:#000000; stroke-linecap:butt; stroke-linejoin:round; stroke-width:4; stroke-opacity:1; fill:none" points="
  180.66,86.3033 199.558,86.3033 
  "/>
<g clip-path="url(#clip920)">
<text style="fill:#000000; fill-opacity:1; font-family:Arial,Helvetica Neue,Helvetica,sans-serif; font-size:48px; text-anchor:middle;" transform="rotate(0, 97.8262, 1404.11)" x="97.8262" y="1404.11">−1.0</text>
</g>
<g clip-path="url(#clip920)">
<text style="fill:#000000; fill-opacity:1; font-family:Arial,Helvetica Neue,Helvetica,sans-serif; font-size:48px; text-anchor:middle;" transform="rotate(0, 97.8262, 1079.03)" x="97.8262" y="1079.03">−0.5</text>
</g>
<g clip-path="url(#clip920)">
<text style="fill:#000000; fill-opacity:1; font-family:Arial,Helvetica Neue,Helvetica,sans-serif; font-size:48px; text-anchor:middle;" transform="rotate(0, 111.207, 753.956)" x="111.207" y="753.956">0.0</text>
</g>
<g clip-path="url(#clip920)">
<text style="fill:#000000; fill-opacity:1; font-family:Arial,Helvetica Neue,Helvetica,sans-serif; font-size:48px; text-anchor:middle;" transform="rotate(0, 111.207, 428.879)" x="111.207" y="428.879">0.5</text>
</g>
<g clip-path="url(#clip920)">
<text style="fill:#000000; fill-opacity:1; font-family:Arial,Helvetica Neue,Helvetica,sans-serif; font-size:48px; text-anchor:middle;" transform="rotate(0, 111.207, 103.803)" x="111.207" y="103.803">1.0</text>
</g>
<polyline clip-path="url(#clip922)" style="stroke:#009af9; stroke-linecap:butt; stroke-linejoin:round; stroke-width:8; stroke-opacity:1; fill:none" points="
  242.135,86.3033 1137.49,378.659 1488.6,577.469 1676.1,714.36 1792.79,812.962 1872.44,886.977 1930.29,944.453 1974.24,990.331 2008.77,1027.78 2036.63,1058.93 
  2059.59,1085.25 2078.85,1107.79 2095.25,1127.31 2109.38,1144.38 2121.69,1159.45 2132.51,1172.85 2142.11,1184.86 2150.68,1195.67 2158.39,1205.47 2165.36,1214.4 
  2171.69,1222.56 2177.48,1230.06 2182.79,1236.99 2187.68,1243.39 2192.2,1249.34 2196.39,1254.89 2200.29,1260.07 2203.94,1264.92 2207.35,1269.48 2210.55,1273.77 
  2213.56,1277.82 2216.4,1281.65 2219.08,1285.28 2221.62,1288.72 2224.03,1291.99 2226.31,1295.11 2228.49,1298.09 2230.57,1300.93 2232.56,1303.65 2234.45,1306.26 
  2236.27,1308.77 2238.02,1311.17 2239.69,1313.48 2241.3,1315.71 2242.86,1317.86 2244.35,1319.94 2245.8,1321.94 2247.19,1323.88 2248.54,1325.76 2249.84,1327.58 
  2251.11,1329.35 2252.34,1331.07 2253.53,1332.74 2254.69,1334.36 2255.81,1335.94 2256.91,1337.48 2257.98,1338.98 2259.02,1340.45 2260.04,1341.88 2261.03,1343.29 
  2262,1344.66 2262.95,1346 2263.88,1347.31 2264.79,1348.6 2265.68,1349.86 2266.56,1351.11 2267.42,1352.32 2268.26,1353.52 2269.09,1354.7 2269.91,1355.86 
  2270.71,1357 2271.5,1358.13 2272.28,1359.24 2273.04,1360.33 2273.8,1361.41 2274.55,1362.48 2275.28,1363.53 2276.01,1364.58 2276.73,1365.61 2277.44,1366.63 
  2278.15,1367.64 2278.84,1368.64 2279.53,1369.63 2280.22,1370.62 2280.9,1371.59 2281.57,1372.56 2282.24,1373.53 2282.91,1374.48 2283.57,1375.43 2284.22,1376.38 
  2284.87,1377.32 2285.52,1378.26 2286.17,1379.2 2286.82,1380.13 2287.46,1381.06 2288.1,1381.99 2288.74,1382.91 2289.37,1383.84 2290.01,1384.76 2290.65,1385.68 
  2291.28,1386.61 
  "/>
<polyline clip-path="url(#clip922)" style="stroke:#e26f46; stroke-linecap:butt; stroke-linejoin:round; stroke-width:8; stroke-opacity:1; fill:none" points="
  242.135,86.3033 1137.49,86.2547 1488.6,86.3981 1676.1,88.841 1792.79,95.6023 1872.44,107.45 1930.29,124.103 1974.24,144.751 2008.77,168.449 2036.63,194.306 
  2059.59,221.571 2078.85,249.641 2095.25,278.052 2109.38,306.458 2121.69,334.601 2132.51,362.3 2142.11,389.427 2150.68,415.898 2158.39,441.658 2165.36,466.678 
  2171.69,490.946 2177.48,514.461 2182.79,537.234 2187.68,559.28 2192.2,580.62 2196.39,601.277 2200.29,621.276 2203.94,640.643 2207.35,659.406 2210.55,677.59 
  2213.56,695.223 2216.4,712.329 2219.08,728.934 2221.62,745.06 2224.03,760.733 2226.31,775.972 2228.49,790.8 2230.57,805.237 2232.56,819.301 2234.45,833.011 
  2236.27,846.384 2238.02,859.437 2239.69,872.184 2241.3,884.642 2242.86,896.824 2244.35,908.744 2245.8,920.413 2247.19,931.845 2248.54,943.051 2249.84,954.042 
  2251.11,964.827 2252.34,975.418 2253.53,985.823 2254.69,996.052 2255.81,1006.11 2256.91,1016.01 2257.98,1025.76 2259.02,1035.37 2260.04,1044.84 2261.03,1054.17 
  2262,1063.39 2262.95,1072.49 2263.88,1081.47 2264.79,1090.36 2265.68,1099.14 2266.56,1107.83 2267.42,1116.43 2268.26,1124.94 2269.09,1133.38 2269.91,1141.74 
  2270.71,1150.04 2271.5,1158.27 2272.28,1166.44 2273.04,1174.55 2273.8,1182.62 2274.55,1190.63 2275.28,1198.61 2276.01,1206.54 2276.73,1214.44 2277.44,1222.3 
  2278.15,1230.14 2278.84,1237.95 2279.53,1245.75 2280.22,1253.52 2280.9,1261.28 2281.57,1269.04 2282.24,1276.78 2282.91,1284.53 2283.57,1292.27 2284.22,1300.02 
  2284.87,1307.78 2285.52,1315.55 2286.17,1323.33 2286.82,1331.14 2287.46,1338.96 2288.1,1346.82 2288.74,1354.7 2289.37,1362.61 2290.01,1370.57 2290.65,1378.57 
  2291.28,1386.61 
  "/>
<polyline clip-path="url(#clip922)" style="stroke:#3da44d; stroke-linecap:butt; stroke-linejoin:round; stroke-width:8; stroke-opacity:1; fill:none" points="
  242.135,86.3033 1137.49,86.3026 1488.6,86.3036 1676.1,86.3007 1792.79,86.3379 1872.44,86.5819 1930.29,87.3052 1974.24,88.8106 2008.77,91.36 2036.63,95.1372 
  2059.59,100.241 2078.85,106.694 2095.25,114.462 2109.38,123.471 2121.69,133.621 2132.51,144.801 2142.11,156.893 2150.68,169.783 2158.39,183.362 2165.36,197.527 
  2171.69,212.185 2177.48,227.253 2182.79,242.655 2187.68,258.325 2192.2,274.205 2196.39,290.243 2200.29,306.395 2203.94,322.624 2207.35,338.896 2210.55,355.182 
  2213.56,371.46 2216.4,387.709 2219.08,403.911 2221.62,420.053 2224.03,436.124 2226.31,452.112 2228.49,468.012 2230.57,483.817 2232.56,499.522 2234.45,515.125 
  2236.27,530.622 2238.02,546.014 2239.69,561.299 2241.3,576.477 2242.86,591.55 2244.35,606.52 2245.8,621.387 2247.19,636.154 2248.54,650.824 2249.84,665.4 
  2251.11,679.885 2252.34,694.282 2253.53,708.595 2254.69,722.828 2255.81,736.984 2256.91,751.067 2257.98,765.081 2259.02,779.032 2260.04,792.922 2261.03,806.756 
  2262,820.539 2262.95,834.275 2263.88,847.968 2264.79,861.623 2265.68,875.245 2266.56,888.838 2267.42,902.406 2268.26,915.955 2269.09,929.489 2269.91,943.013 
  2270.71,956.531 2271.5,970.049 2272.28,983.571 2273.04,997.103 2273.8,1010.65 2274.55,1024.21 2275.28,1037.8 2276.01,1051.42 2276.73,1065.08 2277.44,1078.77 
  2278.15,1092.52 2278.84,1106.31 2279.53,1120.16 2280.22,1134.07 2280.9,1148.05 2281.57,1162.11 2282.24,1176.25 2282.91,1190.47 2283.57,1204.79 2284.22,1219.21 
  2284.87,1233.74 2285.52,1248.38 2286.17,1263.15 2286.82,1278.04 2287.46,1293.07 2288.1,1308.25 2288.74,1323.58 2289.37,1339.07 2290.01,1354.73 2290.65,1370.57 
  2291.28,1386.61 
  "/>
<polyline clip-path="url(#clip922)" style="stroke:#c271d2; stroke-linecap:butt; stroke-linejoin:round; stroke-width:8; stroke-opacity:1; fill:none" points="
  242.135,86.3033 1137.49,86.3033 1488.6,86.3033 1676.1,86.3033 1792.79,86.3033 1872.44,86.3033 1930.29,86.3033 1974.24,86.3033 2008.77,86.3033 2036.63,86.3033 
  2059.59,86.3033 2078.85,86.3033 2095.25,86.3033 2109.38,86.3033 2121.69,86.3033 2132.51,86.3034 2142.11,86.3038 2150.68,86.3045 2158.39,86.3059 2165.36,86.3087 
  2171.69,86.3135 2177.48,86.3215 2182.79,86.3343 2187.68,86.3538 2192.2,86.3824 2196.39,86.4231 2200.29,86.4795 2203.94,86.5557 2207.35,86.6565 2210.55,86.7872 
  2213.56,86.9539 2216.4,87.1631 2219.08,87.422 2221.62,87.7385 2224.03,88.1208 2226.31,88.5779 2228.49,89.1192 2230.57,89.7548 2232.56,90.4951 2234.45,91.3511 
  2236.27,92.3343 2238.02,93.4565 2239.69,94.7304 2241.3,96.1686 2242.86,97.7848 2244.35,99.5927 2245.8,101.607 2247.19,103.842 2248.54,106.313 2249.84,109.037 
  2251.11,112.029 2252.34,115.308 2253.53,118.891 2254.69,122.796 2255.81,127.042 2256.91,131.65 2257.98,136.64 2259.02,142.034 2260.04,147.855 2261.03,154.125 
  2262,160.87 2262.95,168.116 2263.88,175.888 2264.79,184.217 2265.68,193.131 2266.56,202.661 2267.42,212.841 2268.26,223.705 2269.09,235.289 2269.91,247.632 
  2270.71,260.774 2271.5,274.759 2272.28,289.631 2273.04,305.439 2273.8,322.233 2274.55,340.067 2275.28,358.999 2276.01,379.09 2276.73,400.404 2277.44,423.01 
  2278.15,446.981 2278.84,472.396 2279.53,499.339 2280.22,527.897 2280.9,558.167 2281.57,590.249 2282.24,624.254 2282.91,660.298 2283.57,698.505 2284.22,739.01 
  2284.87,781.958 2285.52,827.502 2286.17,875.811 2286.82,927.063 2287.46,981.452 2288.1,1039.19 2288.74,1100.49 2289.37,1165.61 2290.01,1234.81 2290.65,1308.37 
  2291.28,1386.61 
  "/>
<polyline clip-path="url(#clip922)" style="stroke:#ac8d18; stroke-linecap:butt; stroke-linejoin:round; stroke-width:8; stroke-opacity:1; fill:none" points="
  242.135,86.3033 1137.49,86.3033 1488.6,86.3033 1676.1,86.3033 1792.79,86.3033 1872.44,86.3033 1930.29,86.3033 1974.24,86.3033 2008.77,86.3033 2036.63,86.3033 
  2059.59,86.3033 2078.85,86.3033 2095.25,86.3033 2109.38,86.3033 2121.69,86.3033 2132.51,86.3033 2142.11,86.3033 2150.68,86.3033 2158.39,86.3033 2165.36,86.3033 
  2171.69,86.3033 2177.48,86.3033 2182.79,86.3033 2187.68,86.3033 2192.2,86.3033 2196.39,86.3033 2200.29,86.3033 2203.94,86.3033 2207.35,86.3033 2210.55,86.3034 
  2213.56,86.3036 2216.4,86.3038 2219.08,86.3042 2221.62,86.3048 2224.03,86.3057 2226.31,86.3071 2228.49,86.3091 2230.57,86.3121 2232.56,86.3163 2234.45,86.3222 
  2236.27,86.3304 2238.02,86.3416 2239.69,86.3565 2241.3,86.3764 2242.86,86.4025 2244.35,86.4364 2245.8,86.4801 2247.19,86.5358 2248.54,86.6064 2249.84,86.6949 
  2251.11,86.8053 2252.34,86.9419 2253.53,87.1101 2254.69,87.3158 2255.81,87.566 2256.91,87.8688 2257.98,88.2334 2259.02,88.6705 2260.04,89.1921 2261.03,89.8123 
  2262,90.5468 2262.95,91.4136 2263.88,92.433 2264.79,93.6283 2265.68,95.0257 2266.56,96.6546 2267.42,98.5487 2268.26,100.746 2269.09,103.288 2269.91,106.224 
  2270.71,109.607 2271.5,113.499 2272.28,117.967 2273.04,123.09 2273.8,128.953 2274.55,135.654 2275.28,143.303 2276.01,152.023 2276.73,161.953 2277.44,173.248 
  2278.15,186.085 2278.84,200.661 2279.53,217.198 2280.22,235.947 2280.9,257.19 2281.57,281.245 2282.24,308.471 2282.91,339.274 2283.57,374.111 2284.22,413.498 
  2284.87,458.021 2285.52,508.341 2286.17,565.207 2286.82,629.47 2287.46,702.094 2288.1,784.174 2288.74,876.956 2289.37,981.858 2290.01,1100.49 2290.65,1234.71 
  2291.28,1386.61 
  "/>
<path clip-path="url(#clip920)" d="
M253.064 1379.67 L669.71 1379.67 L669.71 1077.87 L253.064 1077.87  Z
  " fill="#ffffff" fill-rule="evenodd" fill-opacity="1"/>
<polyline clip-path="url(#clip920)" style="stroke:#000000; stroke-linecap:butt; stroke-linejoin:round; stroke-width:4; stroke-opacity:1; fill:none" points="
  253.064,1379.67 669.71,1379.67 669.71,1077.87 253.064,1077.87 253.064,1379.67 
  "/>
<polyline clip-path="url(#clip920)" style="stroke:#009af9; stroke-linecap:butt; stroke-linejoin:round; stroke-width:4; stroke-opacity:1; fill:none" points="
  277.198,1128.17 422.004,1128.17 
  "/>
<g clip-path="url(#clip920)">
<text style="fill:#000000; fill-opacity:1; font-family:Arial,Helvetica Neue,Helvetica,sans-serif; font-size:48px; text-anchor:start;" transform="rotate(0, 446.139, 1145.67)" x="446.139" y="1145.67">λ=1.0</text>
</g>
<polyline clip-path="url(#clip920)" style="stroke:#e26f46; stroke-linecap:butt; stroke-linejoin:round; stroke-width:4; stroke-opacity:1; fill:none" points="
  277.198,1178.47 422.004,1178.47 
  "/>
<g clip-path="url(#clip920)">
<text style="fill:#000000; fill-opacity:1; font-family:Arial,Helvetica Neue,Helvetica,sans-serif; font-size:48px; text-anchor:start;" transform="rotate(0, 446.139, 1195.97)" x="446.139" y="1195.97">λ=0.1</text>
</g>
<polyline clip-path="url(#clip920)" style="stroke:#3da44d; stroke-linecap:butt; stroke-linejoin:round; stroke-width:4; stroke-opacity:1; fill:none" points="
  277.198,1228.77 422.004,1228.77 
  "/>
<g clip-path="url(#clip920)">
<text style="fill:#000000; fill-opacity:1; font-family:Arial,Helvetica Neue,Helvetica,sans-serif; font-size:48px; text-anchor:start;" transform="rotate(0, 446.139, 1246.27)" x="446.139" y="1246.27">λ=0.05</text>
</g>
<polyline clip-path="url(#clip920)" style="stroke:#c271d2; stroke-linecap:butt; stroke-linejoin:round; stroke-width:4; stroke-opacity:1; fill:none" points="
  277.198,1279.07 422.004,1279.07 
  "/>
<g clip-path="url(#clip920)">
<text style="fill:#000000; fill-opacity:1; font-family:Arial,Helvetica Neue,Helvetica,sans-serif; font-size:48px; text-anchor:start;" transform="rotate(0, 446.139, 1296.57)" x="446.139" y="1296.57">λ=0.01</text>
</g>
<polyline clip-path="url(#clip920)" style="stroke:#ac8d18; stroke-linecap:butt; stroke-linejoin:round; stroke-width:4; stroke-opacity:1; fill:none" points="
  277.198,1329.37 422.004,1329.37 
  "/>
<g clip-path="url(#clip920)">
<text style="fill:#000000; fill-opacity:1; font-family:Arial,Helvetica Neue,Helvetica,sans-serif; font-size:48px; text-anchor:start;" transform="rotate(0, 446.139, 1346.87)" x="446.139" y="1346.87">λ=0.005</text>
</g>
</svg>
