<?xml version="1.0" encoding="utf-8"?>
<svg xmlns="http://www.w3.org/2000/svg" xmlns:xlink="http://www.w3.org/1999/xlink" width="600" height="400" viewBox="0 0 2400 1600">
<defs>
  <clipPath id="clip040">
    <rect x="0" y="0" width="2400" height="1600"/>
  </clipPath>
</defs>
<path clip-path="url(#clip040)" d="
M0 1600 L2400 1600 L2400 0 L0 0  Z
  " fill="#ffffff" fill-rule="evenodd" fill-opacity="1"/>
<defs>
  <clipPath id="clip041">
    <rect x="480" y="0" width="1681" height="1600"/>
  </clipPath>
</defs>
<path clip-path="url(#clip040)" d="
M193.936 1423.18 L2352.76 1423.18 L2352.76 47.2441 L193.936 47.2441  Z
  " fill="#ffffff" fill-rule="evenodd" fill-opacity="1"/>
<defs>
  <clipPath id="clip042">
    <rect x="193" y="47" width="2160" height="1377"/>
  </clipPath>
</defs>
<polyline clip-path="url(#clip042)" style="stroke:#000000; stroke-linecap:butt; stroke-linejoin:round; stroke-width:2; stroke-opacity:0.1; fill:none" points="
  255.035,1423.18 255.035,47.2441 
  "/>
<polyline clip-path="url(#clip042)" style="stroke:#000000; stroke-linecap:butt; stroke-linejoin:round; stroke-width:2; stroke-opacity:0.1; fill:none" points="
  764.19,1423.18 764.19,47.2441 
  "/>
<polyline clip-path="url(#clip042)" style="stroke:#000000; stroke-linecap:butt; stroke-linejoin:round; stroke-width:2; stroke-opacity:0.1; fill:none" points="
  1273.35,1423.18 1273.35,47.2441 
  "/>
<polyline clip-path="url(#clip042)" style="stroke:#000000; stroke-linecap:butt; stroke-linejoin:round; stroke-width:2; stroke-opacity:0.1; fill:none" points="
  1782.5,1423.18 1782.5,47.2441 
  "/>
<polyline clip-path="url(#clip042)" style="stroke:#000000; stroke-linecap:butt; stroke-linejoin:round; stroke-width:2; stroke-opacity:0.1; fill:none" points="
  2291.66,1423.18 2291.66,47.2441 
  "/>
<polyline clip-path="url(#clip040)" style="stroke:#000000; stroke-linecap:butt; stroke-linejoin:round; stroke-width:4; stroke-opacity:1; fill:none" points="
  193.936,1423.18 2352.76,1423.18 
  "/>
<polyline clip-path="url(#clip040)" style="stroke:#000000; stroke-linecap:butt; stroke-linejoin:round; stroke-width:4; stroke-opacity:1; fill:none" points="
  255.035,1423.18 255.035,1404.28 
  "/>
<polyline clip-path="url(#clip040)" style="stroke:#000000; stroke-linecap:butt; stroke-linejoin:round; stroke-width:4; stroke-opacity:1; fill:none" points="
  764.19,1423.18 764.19,1404.28 
  "/>
<polyline clip-path="url(#clip040)" style="stroke:#000000; stroke-linecap:butt; stroke-linejoin:round; stroke-width:4; stroke-opacity:1; fill:none" points="
  1273.35,1423.18 1273.35,1404.28 
  "/>
<polyline clip-path="url(#clip040)" style="stroke:#000000; stroke-linecap:butt; stroke-linejoin:round; stroke-width:4; stroke-opacity:1; fill:none" points="
  1782.5,1423.18 1782.5,1404.28 
  "/>
<polyline clip-path="url(#clip040)" style="stroke:#000000; stroke-linecap:butt; stroke-linejoin:round; stroke-width:4; stroke-opacity:1; fill:none" points="
  2291.66,1423.18 2291.66,1404.28 
  "/>
<path clip-path="url(#clip040)" d="M201.563 1468.75 L231.239 1468.75 L231.239 1472.69 L201.563 1472.69 L201.563 1468.75 Z" fill="#000000" fill-rule="evenodd" fill-opacity="1" /><path clip-path="url(#clip040)" d="M242.141 1481.64 L249.78 1481.64 L249.78 1455.28 L241.47 1456.95 L241.47 1452.69 L249.734 1451.02 L254.41 1451.02 L254.41 1481.64 L262.049 1481.64 L262.049 1485.58 L242.141 1485.58 L242.141 1481.64 Z" fill="#000000" fill-rule="evenodd" fill-opacity="1" /><path clip-path="url(#clip040)" d="M271.493 1479.7 L276.377 1479.7 L276.377 1485.58 L271.493 1485.58 L271.493 1479.7 Z" fill="#000000" fill-rule="evenodd" fill-opacity="1" /><path clip-path="url(#clip040)" d="M296.562 1454.1 Q292.951 1454.1 291.122 1457.66 Q289.317 1461.2 289.317 1468.33 Q289.317 1475.44 291.122 1479.01 Q292.951 1482.55 296.562 1482.55 Q300.196 1482.55 302.002 1479.01 Q303.831 1475.44 303.831 1468.33 Q303.831 1461.2 302.002 1457.66 Q300.196 1454.1 296.562 1454.1 M296.562 1450.39 Q302.372 1450.39 305.428 1455 Q308.507 1459.58 308.507 1468.33 Q308.507 1477.06 305.428 1481.67 Q302.372 1486.25 296.562 1486.25 Q290.752 1486.25 287.673 1481.67 Q284.618 1477.06 284.618 1468.33 Q284.618 1459.58 287.673 1455 Q290.752 1450.39 296.562 1450.39 Z" fill="#000000" fill-rule="evenodd" fill-opacity="1" /><path clip-path="url(#clip040)" d="M711.216 1468.75 L740.892 1468.75 L740.892 1472.69 L711.216 1472.69 L711.216 1468.75 Z" fill="#000000" fill-rule="evenodd" fill-opacity="1" /><path clip-path="url(#clip040)" d="M760.984 1454.1 Q757.373 1454.1 755.545 1457.66 Q753.739 1461.2 753.739 1468.33 Q753.739 1475.44 755.545 1479.01 Q757.373 1482.55 760.984 1482.55 Q764.619 1482.55 766.424 1479.01 Q768.253 1475.44 768.253 1468.33 Q768.253 1461.2 766.424 1457.66 Q764.619 1454.1 760.984 1454.1 M760.984 1450.39 Q766.794 1450.39 769.85 1455 Q772.929 1459.58 772.929 1468.33 Q772.929 1477.06 769.85 1481.67 Q766.794 1486.25 760.984 1486.25 Q755.174 1486.25 752.095 1481.67 Q749.04 1477.06 749.04 1468.33 Q749.04 1459.58 752.095 1455 Q755.174 1450.39 760.984 1450.39 Z" fill="#000000" fill-rule="evenodd" fill-opacity="1" /><path clip-path="url(#clip040)" d="M781.146 1479.7 L786.03 1479.7 L786.03 1485.58 L781.146 1485.58 L781.146 1479.7 Z" fill="#000000" fill-rule="evenodd" fill-opacity="1" /><path clip-path="url(#clip040)" d="M796.262 1451.02 L814.618 1451.02 L814.618 1454.96 L800.544 1454.96 L800.544 1463.43 Q801.563 1463.08 802.581 1462.92 Q803.6 1462.73 804.618 1462.73 Q810.405 1462.73 813.785 1465.9 Q817.165 1469.08 817.165 1474.49 Q817.165 1480.07 813.692 1483.17 Q810.22 1486.25 803.901 1486.25 Q801.725 1486.25 799.456 1485.88 Q797.211 1485.51 794.804 1484.77 L794.804 1480.07 Q796.887 1481.2 799.109 1481.76 Q801.331 1482.32 803.808 1482.32 Q807.813 1482.32 810.151 1480.21 Q812.489 1478.1 812.489 1474.49 Q812.489 1470.88 810.151 1468.77 Q807.813 1466.67 803.808 1466.67 Q801.933 1466.67 800.058 1467.08 Q798.206 1467.5 796.262 1468.38 L796.262 1451.02 Z" fill="#000000" fill-rule="evenodd" fill-opacity="1" /><path clip-path="url(#clip040)" d="M1250.73 1454.1 Q1247.12 1454.1 1245.29 1457.66 Q1243.49 1461.2 1243.49 1468.33 Q1243.49 1475.44 1245.29 1479.01 Q1247.12 1482.55 1250.73 1482.55 Q1254.36 1482.55 1256.17 1479.01 Q1258 1475.44 1258 1468.33 Q1258 1461.2 1256.17 1457.66 Q1254.36 1454.1 1250.73 1454.1 M1250.73 1450.39 Q1256.54 1450.39 1259.6 1455 Q1262.67 1459.58 1262.67 1468.33 Q1262.67 1477.06 1259.6 1481.67 Q1256.54 1486.25 1250.73 1486.25 Q1244.92 1486.25 1241.84 1481.67 Q1238.79 1477.06 1238.79 1468.33 Q1238.79 1459.58 1241.84 1455 Q1244.92 1450.39 1250.73 1450.39 Z" fill="#000000" fill-rule="evenodd" fill-opacity="1" /><path clip-path="url(#clip040)" d="M1270.89 1479.7 L1275.78 1479.7 L1275.78 1485.58 L1270.89 1485.58 L1270.89 1479.7 Z" fill="#000000" fill-rule="evenodd" fill-opacity="1" /><path clip-path="url(#clip040)" d="M1295.96 1454.1 Q1292.35 1454.1 1290.52 1457.66 Q1288.72 1461.2 1288.72 1468.33 Q1288.72 1475.44 1290.52 1479.01 Q1292.35 1482.55 1295.96 1482.55 Q1299.6 1482.55 1301.4 1479.01 Q1303.23 1475.44 1303.23 1468.33 Q1303.23 1461.2 1301.4 1457.66 Q1299.6 1454.1 1295.96 1454.1 M1295.96 1450.39 Q1301.77 1450.39 1304.83 1455 Q1307.91 1459.58 1307.91 1468.33 Q1307.91 1477.06 1304.83 1481.67 Q1301.77 1486.25 1295.96 1486.25 Q1290.15 1486.25 1287.07 1481.67 Q1284.02 1477.06 1284.02 1468.33 Q1284.02 1459.58 1287.07 1455 Q1290.15 1450.39 1295.96 1450.39 Z" fill="#000000" fill-rule="evenodd" fill-opacity="1" /><path clip-path="url(#clip040)" d="M1760.38 1454.1 Q1756.77 1454.1 1754.94 1457.66 Q1753.14 1461.2 1753.14 1468.33 Q1753.14 1475.44 1754.94 1479.01 Q1756.77 1482.55 1760.38 1482.55 Q1764.02 1482.55 1765.82 1479.01 Q1767.65 1475.44 1767.65 1468.33 Q1767.65 1461.2 1765.82 1457.66 Q1764.02 1454.1 1760.38 1454.1 M1760.38 1450.39 Q1766.19 1450.39 1769.25 1455 Q1772.33 1459.58 1772.33 1468.33 Q1772.33 1477.06 1769.25 1481.67 Q1766.19 1486.25 1760.38 1486.25 Q1754.57 1486.25 1751.49 1481.67 Q1748.44 1477.06 1748.44 1468.33 Q1748.44 1459.58 1751.49 1455 Q1754.57 1450.39 1760.38 1450.39 Z" fill="#000000" fill-rule="evenodd" fill-opacity="1" /><path clip-path="url(#clip040)" d="M1780.55 1479.7 L1785.43 1479.7 L1785.43 1485.58 L1780.55 1485.58 L1780.55 1479.7 Z" fill="#000000" fill-rule="evenodd" fill-opacity="1" /><path clip-path="url(#clip040)" d="M1795.66 1451.02 L1814.02 1451.02 L1814.02 1454.96 L1799.94 1454.96 L1799.94 1463.43 Q1800.96 1463.08 1801.98 1462.92 Q1803 1462.73 1804.02 1462.73 Q1809.8 1462.73 1813.18 1465.9 Q1816.56 1469.08 1816.56 1474.49 Q1816.56 1480.07 1813.09 1483.17 Q1809.62 1486.25 1803.3 1486.25 Q1801.12 1486.25 1798.86 1485.88 Q1796.61 1485.51 1794.2 1484.77 L1794.2 1480.07 Q1796.29 1481.2 1798.51 1481.76 Q1800.73 1482.32 1803.21 1482.32 Q1807.21 1482.32 1809.55 1480.21 Q1811.89 1478.1 1811.89 1474.49 Q1811.89 1470.88 1809.55 1468.77 Q1807.21 1466.67 1803.21 1466.67 Q1801.33 1466.67 1799.46 1467.08 Q1797.61 1467.5 1795.66 1468.38 L1795.66 1451.02 Z" fill="#000000" fill-rule="evenodd" fill-opacity="1" /><path clip-path="url(#clip040)" d="M2258.81 1481.64 L2266.45 1481.64 L2266.45 1455.28 L2258.14 1456.95 L2258.14 1452.69 L2266.4 1451.02 L2271.08 1451.02 L2271.08 1481.64 L2278.72 1481.64 L2278.72 1485.58 L2258.81 1485.58 L2258.81 1481.64 Z" fill="#000000" fill-rule="evenodd" fill-opacity="1" /><path clip-path="url(#clip040)" d="M2288.16 1479.7 L2293.05 1479.7 L2293.05 1485.58 L2288.16 1485.58 L2288.16 1479.7 Z" fill="#000000" fill-rule="evenodd" fill-opacity="1" /><path clip-path="url(#clip040)" d="M2313.23 1454.1 Q2309.62 1454.1 2307.79 1457.66 Q2305.99 1461.2 2305.99 1468.33 Q2305.99 1475.44 2307.79 1479.01 Q2309.62 1482.55 2313.23 1482.55 Q2316.87 1482.55 2318.67 1479.01 Q2320.5 1475.44 2320.5 1468.33 Q2320.5 1461.2 2318.67 1457.66 Q2316.87 1454.1 2313.23 1454.1 M2313.23 1450.39 Q2319.04 1450.39 2322.1 1455 Q2325.18 1459.58 2325.18 1468.33 Q2325.18 1477.06 2322.1 1481.67 Q2319.04 1486.25 2313.23 1486.25 Q2307.42 1486.25 2304.34 1481.67 Q2301.29 1477.06 2301.29 1468.33 Q2301.29 1459.58 2304.34 1455 Q2307.42 1450.39 2313.23 1450.39 Z" fill="#000000" fill-rule="evenodd" fill-opacity="1" /><path clip-path="url(#clip040)" d="M1289.96 1532.4 L1277.07 1549.74 L1290.63 1568.04 L1283.72 1568.04 L1273.35 1554.04 L1262.97 1568.04 L1256.06 1568.04 L1269.91 1549.39 L1257.24 1532.4 L1264.15 1532.4 L1273.6 1545.1 L1283.05 1532.4 L1289.96 1532.4 Z" fill="#000000" fill-rule="evenodd" fill-opacity="1" /><polyline clip-path="url(#clip042)" style="stroke:#000000; stroke-linecap:butt; stroke-linejoin:round; stroke-width:2; stroke-opacity:0.1; fill:none" points="
  193.936,1384.24 2352.76,1384.24 
  "/>
<polyline clip-path="url(#clip042)" style="stroke:#000000; stroke-linecap:butt; stroke-linejoin:round; stroke-width:2; stroke-opacity:0.1; fill:none" points="
  193.936,1059.74 2352.76,1059.74 
  "/>
<polyline clip-path="url(#clip042)" style="stroke:#000000; stroke-linecap:butt; stroke-linejoin:round; stroke-width:2; stroke-opacity:0.1; fill:none" points="
  193.936,735.236 2352.76,735.236 
  "/>
<polyline clip-path="url(#clip042)" style="stroke:#000000; stroke-linecap:butt; stroke-linejoin:round; stroke-width:2; stroke-opacity:0.1; fill:none" points="
  193.936,410.735 2352.76,410.735 
  "/>
<polyline clip-path="url(#clip042)" style="stroke:#000000; stroke-linecap:butt; stroke-linejoin:round; stroke-width:2; stroke-opacity:0.1; fill:none" points="
  193.936,86.2342 2352.76,86.2342 
  "/>
<polyline clip-path="url(#clip040)" style="stroke:#000000; stroke-linecap:butt; stroke-linejoin:round; stroke-width:4; stroke-opacity:1; fill:none" points="
  193.936,1423.18 193.936,47.2441 
  "/>
<polyline clip-path="url(#clip040)" style="stroke:#000000; stroke-linecap:butt; stroke-linejoin:round; stroke-width:4; stroke-opacity:1; fill:none" points="
  193.936,1384.24 212.834,1384.24 
  "/>
<polyline clip-path="url(#clip040)" style="stroke:#000000; stroke-linecap:butt; stroke-linejoin:round; stroke-width:4; stroke-opacity:1; fill:none" points="
  193.936,1059.74 212.834,1059.74 
  "/>
<polyline clip-path="url(#clip040)" style="stroke:#000000; stroke-linecap:butt; stroke-linejoin:round; stroke-width:4; stroke-opacity:1; fill:none" points="
  193.936,735.236 212.834,735.236 
  "/>
<polyline clip-path="url(#clip040)" style="stroke:#000000; stroke-linecap:butt; stroke-linejoin:round; stroke-width:4; stroke-opacity:1; fill:none" points="
  193.936,410.735 212.834,410.735 
  "/>
<polyline clip-path="url(#clip040)" style="stroke:#000000; stroke-linecap:butt; stroke-linejoin:round; stroke-width:4; stroke-opacity:1; fill:none" points="
  193.936,86.2342 212.834,86.2342 
  "/>
<path clip-path="url(#clip040)" d="M50.9921 1384.69 L80.6679 1384.69 L80.6679 1388.62 L50.9921 1388.62 L50.9921 1384.69 Z" fill="#000000" fill-rule="evenodd" fill-opacity="1" /><path clip-path="url(#clip040)" d="M91.5706 1397.58 L99.2095 1397.58 L99.2095 1371.22 L90.8993 1372.88 L90.8993 1368.62 L99.1632 1366.96 L103.839 1366.96 L103.839 1397.58 L111.478 1397.58 L111.478 1401.52 L91.5706 1401.52 L91.5706 1397.58 Z" fill="#000000" fill-rule="evenodd" fill-opacity="1" /><path clip-path="url(#clip040)" d="M120.922 1395.64 L125.807 1395.64 L125.807 1401.52 L120.922 1401.52 L120.922 1395.64 Z" fill="#000000" fill-rule="evenodd" fill-opacity="1" /><path clip-path="url(#clip040)" d="M145.992 1370.04 Q142.381 1370.04 140.552 1373.6 Q138.746 1377.14 138.746 1384.27 Q138.746 1391.38 140.552 1394.94 Q142.381 1398.49 145.992 1398.49 Q149.626 1398.49 151.431 1394.94 Q153.26 1391.38 153.26 1384.27 Q153.26 1377.14 151.431 1373.6 Q149.626 1370.04 145.992 1370.04 M145.992 1366.33 Q151.802 1366.33 154.857 1370.94 Q157.936 1375.52 157.936 1384.27 Q157.936 1393 154.857 1397.61 Q151.802 1402.19 145.992 1402.19 Q140.181 1402.19 137.103 1397.61 Q134.047 1393 134.047 1384.27 Q134.047 1375.52 137.103 1370.94 Q140.181 1366.33 145.992 1366.33 Z" fill="#000000" fill-rule="evenodd" fill-opacity="1" /><path clip-path="url(#clip040)" d="M51.9875 1060.19 L81.6633 1060.19 L81.6633 1064.12 L51.9875 1064.12 L51.9875 1060.19 Z" fill="#000000" fill-rule="evenodd" fill-opacity="1" /><path clip-path="url(#clip040)" d="M101.756 1045.54 Q98.1447 1045.54 96.316 1049.1 Q94.5104 1052.64 94.5104 1059.77 Q94.5104 1066.88 96.316 1070.44 Q98.1447 1073.98 101.756 1073.98 Q105.39 1073.98 107.196 1070.44 Q109.024 1066.88 109.024 1059.77 Q109.024 1052.64 107.196 1049.1 Q105.39 1045.54 101.756 1045.54 M101.756 1041.83 Q107.566 1041.83 110.621 1046.44 Q113.7 1051.02 113.7 1059.77 Q113.7 1068.5 110.621 1073.11 Q107.566 1077.69 101.756 1077.69 Q95.9456 1077.69 92.8669 1073.11 Q89.8114 1068.5 89.8114 1059.77 Q89.8114 1051.02 92.8669 1046.44 Q95.9456 1041.83 101.756 1041.83 Z" fill="#000000" fill-rule="evenodd" fill-opacity="1" /><path clip-path="url(#clip040)" d="M121.918 1071.14 L126.802 1071.14 L126.802 1077.02 L121.918 1077.02 L121.918 1071.14 Z" fill="#000000" fill-rule="evenodd" fill-opacity="1" /><path clip-path="url(#clip040)" d="M137.033 1042.46 L155.39 1042.46 L155.39 1046.39 L141.316 1046.39 L141.316 1054.86 Q142.334 1054.52 143.353 1054.36 Q144.371 1054.17 145.39 1054.17 Q151.177 1054.17 154.556 1057.34 Q157.936 1060.51 157.936 1065.93 Q157.936 1071.51 154.464 1074.61 Q150.992 1077.69 144.672 1077.69 Q142.496 1077.69 140.228 1077.32 Q137.982 1076.95 135.575 1076.21 L135.575 1071.51 Q137.658 1072.64 139.881 1073.2 Q142.103 1073.75 144.58 1073.75 Q148.584 1073.75 150.922 1071.65 Q153.26 1069.54 153.26 1065.93 Q153.26 1062.32 150.922 1060.21 Q148.584 1058.11 144.58 1058.11 Q142.705 1058.11 140.83 1058.52 Q138.978 1058.94 137.033 1059.82 L137.033 1042.46 Z" fill="#000000" fill-rule="evenodd" fill-opacity="1" /><path clip-path="url(#clip040)" d="M100.76 721.035 Q97.1493 721.035 95.3206 724.6 Q93.515 728.141 93.515 735.271 Q93.515 742.377 95.3206 745.942 Q97.1493 749.484 100.76 749.484 Q104.395 749.484 106.2 745.942 Q108.029 742.377 108.029 735.271 Q108.029 728.141 106.2 724.6 Q104.395 721.035 100.76 721.035 M100.76 717.331 Q106.571 717.331 109.626 721.938 Q112.705 726.521 112.705 735.271 Q112.705 743.998 109.626 748.604 Q106.571 753.188 100.76 753.188 Q94.9502 753.188 91.8715 748.604 Q88.816 743.998 88.816 735.271 Q88.816 726.521 91.8715 721.938 Q94.9502 717.331 100.76 717.331 Z" fill="#000000" fill-rule="evenodd" fill-opacity="1" /><path clip-path="url(#clip040)" d="M120.922 746.637 L125.807 746.637 L125.807 752.516 L120.922 752.516 L120.922 746.637 Z" fill="#000000" fill-rule="evenodd" fill-opacity="1" /><path clip-path="url(#clip040)" d="M145.992 721.035 Q142.381 721.035 140.552 724.6 Q138.746 728.141 138.746 735.271 Q138.746 742.377 140.552 745.942 Q142.381 749.484 145.992 749.484 Q149.626 749.484 151.431 745.942 Q153.26 742.377 153.26 735.271 Q153.26 728.141 151.431 724.6 Q149.626 721.035 145.992 721.035 M145.992 717.331 Q151.802 717.331 154.857 721.938 Q157.936 726.521 157.936 735.271 Q157.936 743.998 154.857 748.604 Q151.802 753.188 145.992 753.188 Q140.181 753.188 137.103 748.604 Q134.047 743.998 134.047 735.271 Q134.047 726.521 137.103 721.938 Q140.181 717.331 145.992 717.331 Z" fill="#000000" fill-rule="evenodd" fill-opacity="1" /><path clip-path="url(#clip040)" d="M101.756 396.534 Q98.1447 396.534 96.316 400.099 Q94.5104 403.64 94.5104 410.77 Q94.5104 417.876 96.316 421.441 Q98.1447 424.983 101.756 424.983 Q105.39 424.983 107.196 421.441 Q109.024 417.876 109.024 410.77 Q109.024 403.64 107.196 400.099 Q105.39 396.534 101.756 396.534 M101.756 392.83 Q107.566 392.83 110.621 397.437 Q113.7 402.02 113.7 410.77 Q113.7 419.497 110.621 424.103 Q107.566 428.686 101.756 428.686 Q95.9456 428.686 92.8669 424.103 Q89.8114 419.497 89.8114 410.77 Q89.8114 402.02 92.8669 397.437 Q95.9456 392.83 101.756 392.83 Z" fill="#000000" fill-rule="evenodd" fill-opacity="1" /><path clip-path="url(#clip040)" d="M121.918 422.136 L126.802 422.136 L126.802 428.015 L121.918 428.015 L121.918 422.136 Z" fill="#000000" fill-rule="evenodd" fill-opacity="1" /><path clip-path="url(#clip040)" d="M137.033 393.455 L155.39 393.455 L155.39 397.39 L141.316 397.39 L141.316 405.863 Q142.334 405.515 143.353 405.353 Q144.371 405.168 145.39 405.168 Q151.177 405.168 154.556 408.339 Q157.936 411.511 157.936 416.927 Q157.936 422.506 154.464 425.608 Q150.992 428.686 144.672 428.686 Q142.496 428.686 140.228 428.316 Q137.982 427.946 135.575 427.205 L135.575 422.506 Q137.658 423.64 139.881 424.196 Q142.103 424.751 144.58 424.751 Q148.584 424.751 150.922 422.645 Q153.26 420.538 153.26 416.927 Q153.26 413.316 150.922 411.21 Q148.584 409.103 144.58 409.103 Q142.705 409.103 140.83 409.52 Q138.978 409.937 137.033 410.816 L137.033 393.455 Z" fill="#000000" fill-rule="evenodd" fill-opacity="1" /><path clip-path="url(#clip040)" d="M91.5706 99.579 L99.2095 99.579 L99.2095 73.2134 L90.8993 74.8801 L90.8993 70.6208 L99.1632 68.9542 L103.839 68.9542 L103.839 99.579 L111.478 99.579 L111.478 103.514 L91.5706 103.514 L91.5706 99.579 Z" fill="#000000" fill-rule="evenodd" fill-opacity="1" /><path clip-path="url(#clip040)" d="M120.922 97.6346 L125.807 97.6346 L125.807 103.514 L120.922 103.514 L120.922 97.6346 Z" fill="#000000" fill-rule="evenodd" fill-opacity="1" /><path clip-path="url(#clip040)" d="M145.992 72.0328 Q142.381 72.0328 140.552 75.5976 Q138.746 79.1393 138.746 86.2689 Q138.746 93.3753 140.552 96.9401 Q142.381 100.482 145.992 100.482 Q149.626 100.482 151.431 96.9401 Q153.26 93.3753 153.26 86.2689 Q153.26 79.1393 151.431 75.5976 Q149.626 72.0328 145.992 72.0328 M145.992 68.3292 Q151.802 68.3292 154.857 72.9356 Q157.936 77.5189 157.936 86.2689 Q157.936 94.9957 154.857 99.6021 Q151.802 104.185 145.992 104.185 Q140.181 104.185 137.103 99.6021 Q134.047 94.9957 134.047 86.2689 Q134.047 77.5189 137.103 72.9356 Q140.181 68.3292 145.992 68.3292 Z" fill="#000000" fill-rule="evenodd" fill-opacity="1" /><polyline clip-path="url(#clip042)" style="stroke:#009af9; stroke-linecap:butt; stroke-linejoin:round; stroke-width:4; stroke-opacity:1; fill:none" points="
  255.035,86.2342 1144.92,378.072 1493.88,576.531 1680.24,713.179 1796.21,811.607 1875.37,885.492 1932.87,942.866 1976.55,988.662 2010.87,1026.05 2038.56,1057.14 
  2061.39,1083.42 2080.53,1105.91 2096.82,1125.4 2110.87,1142.44 2123.1,1157.48 2133.86,1170.86 2143.4,1182.84 2151.92,1193.64 2159.58,1203.42 2166.5,1212.33 
  2172.8,1220.48 2178.55,1227.97 2183.83,1234.88 2188.69,1241.28 2193.18,1247.22 2197.35,1252.75 2201.23,1257.92 2204.85,1262.77 2208.24,1267.32 2211.42,1271.6 
  2214.41,1275.64 2217.23,1279.47 2219.89,1283.09 2222.42,1286.52 2224.81,1289.79 2227.09,1292.91 2229.25,1295.88 2231.32,1298.72 2233.29,1301.43 2235.18,1304.04 
  2236.99,1306.53 2238.72,1308.93 2240.38,1311.24 2241.99,1313.47 2243.53,1315.61 2245.01,1317.68 2246.45,1319.69 2247.84,1321.62 2249.18,1323.5 2250.47,1325.32 
  2251.73,1327.08 2252.95,1328.8 2254.14,1330.46 2255.29,1332.08 2256.41,1333.66 2257.5,1335.2 2258.56,1336.7 2259.6,1338.16 2260.61,1339.59 2261.59,1340.99 
  2262.56,1342.36 2263.5,1343.7 2264.43,1345.01 2265.33,1346.3 2266.22,1347.56 2267.09,1348.8 2267.94,1350.02 2268.78,1351.21 2269.6,1352.39 2270.41,1353.55 
  2271.21,1354.69 2271.99,1355.81 2272.77,1356.92 2273.53,1358.01 2274.28,1359.09 2275.02,1360.15 2275.76,1361.21 2276.48,1362.25 2277.19,1363.27 2277.9,1364.29 
  2278.6,1365.3 2279.3,1366.3 2279.98,1367.29 2280.66,1368.27 2281.34,1369.25 2282.01,1370.22 2282.67,1371.18 2283.33,1372.13 2283.99,1373.08 2284.64,1374.03 
  2285.29,1374.97 2285.93,1375.91 2286.58,1376.84 2287.22,1377.77 2287.86,1378.7 2288.49,1379.63 2289.13,1380.55 2289.76,1381.47 2290.39,1382.39 2291.03,1383.32 
  2291.66,1384.24 
  "/>
<polyline clip-path="url(#clip042)" style="stroke:#e26f46; stroke-linecap:butt; stroke-linejoin:round; stroke-width:4; stroke-opacity:1; fill:none" points="
  255.035,86.2342 1144.92,86.1857 1493.88,86.3288 1680.24,88.7674 1796.21,95.5167 1875.37,107.344 1932.87,123.967 1976.55,144.579 2010.87,168.234 2038.56,194.046 
  2061.39,221.262 2080.53,249.283 2096.82,277.644 2110.87,305.999 2123.1,334.093 2133.86,361.743 2143.4,388.822 2151.92,415.245 2159.58,440.96 2166.5,465.936 
  2172.8,490.161 2178.55,513.635 2183.83,536.367 2188.69,558.374 2193.18,579.676 2197.35,600.296 2201.23,620.26 2204.85,639.593 2208.24,658.323 2211.42,676.475 
  2214.41,694.076 2217.23,711.152 2219.89,727.727 2222.42,743.826 2224.81,759.47 2227.09,774.683 2229.25,789.485 2231.32,803.895 2233.29,817.935 2235.18,831.62 
  2236.99,844.97 2238.72,858 2240.38,870.725 2241.99,883.161 2243.53,895.321 2245.01,907.219 2246.45,918.868 2247.84,930.28 2249.18,941.466 2250.47,952.437 
  2251.73,963.204 2252.95,973.776 2254.14,984.162 2255.29,994.373 2256.41,1004.42 2257.5,1014.3 2258.56,1024.03 2259.6,1033.62 2260.61,1043.07 2261.59,1052.39 
  2262.56,1061.59 2263.5,1070.67 2264.43,1079.64 2265.33,1088.51 2266.22,1097.28 2267.09,1105.95 2267.94,1114.53 2268.78,1123.04 2269.6,1131.46 2270.41,1139.81 
  2271.21,1148.09 2271.99,1156.3 2272.77,1164.46 2273.53,1172.56 2274.28,1180.61 2275.02,1188.61 2275.76,1196.57 2276.48,1204.49 2277.19,1212.37 2277.9,1220.22 
  2278.6,1228.05 2279.3,1235.85 2279.98,1243.63 2280.66,1251.39 2281.34,1259.14 2282.01,1266.88 2282.67,1274.61 2283.33,1282.34 2283.99,1290.07 2284.64,1297.81 
  2285.29,1305.55 2285.93,1313.3 2286.58,1321.08 2287.22,1328.87 2287.86,1336.68 2288.49,1344.52 2289.13,1352.38 2289.76,1360.29 2290.39,1368.23 2291.03,1376.21 
  2291.66,1384.24 
  "/>
<polyline clip-path="url(#clip042)" style="stroke:#3da44d; stroke-linecap:butt; stroke-linejoin:round; stroke-width:4; stroke-opacity:1; fill:none" points="
  255.035,86.2342 1144.92,86.2335 1493.88,86.2345 1680.24,86.2316 1796.21,86.2687 1875.37,86.5123 1932.87,87.2343 1976.55,88.7371 2010.87,91.282 2038.56,95.0525 
  2061.39,100.147 2080.53,106.588 2096.82,114.343 2110.87,123.336 2123.1,133.468 2133.86,144.628 2143.4,156.699 2151.92,169.566 2159.58,183.121 2166.5,197.261 
  2172.8,211.894 2178.55,226.935 2183.83,242.31 2188.69,257.952 2193.18,273.803 2197.35,289.813 2201.23,305.937 2204.85,322.137 2208.24,338.38 2211.42,354.638 
  2214.41,370.887 2217.23,387.106 2219.89,403.28 2222.42,419.394 2224.81,435.436 2227.09,451.396 2229.25,467.268 2231.32,483.044 2233.29,498.722 2235.18,514.297 
  2236.99,529.767 2238.72,545.131 2240.38,560.389 2241.99,575.541 2243.53,590.587 2245.01,605.53 2246.45,620.371 2247.84,635.112 2249.18,649.757 2250.47,664.307 
  2251.73,678.766 2252.95,693.137 2254.14,707.425 2255.29,721.632 2256.41,735.763 2257.5,749.821 2258.56,763.811 2259.6,777.737 2260.61,791.603 2261.59,805.412 
  2262.56,819.171 2263.5,832.882 2264.43,846.551 2265.33,860.182 2266.22,873.78 2267.09,887.349 2267.94,900.893 2268.78,914.418 2269.6,927.928 2270.41,941.428 
  2271.21,954.922 2271.99,968.416 2272.77,981.915 2273.53,995.422 2274.28,1008.94 2275.02,1022.49 2275.76,1036.05 2276.48,1049.65 2277.19,1063.28 2277.9,1076.95 
  2278.6,1090.67 2279.3,1104.43 2279.98,1118.26 2280.66,1132.15 2281.34,1146.1 2282.01,1160.14 2282.67,1174.25 2283.33,1188.45 2283.99,1202.74 2284.64,1217.14 
  2285.29,1231.64 2285.93,1246.26 2286.58,1260.99 2287.22,1275.86 2287.86,1290.87 2288.49,1306.01 2289.13,1321.32 2289.76,1336.78 2290.39,1352.42 2291.03,1368.23 
  2291.66,1384.24 
  "/>
<polyline clip-path="url(#clip042)" style="stroke:#c271d2; stroke-linecap:butt; stroke-linejoin:round; stroke-width:4; stroke-opacity:1; fill:none" points="
  255.035,86.2342 1144.92,86.2342 1493.88,86.2342 1680.24,86.2342 1796.21,86.2342 1875.37,86.2342 1932.87,86.2342 1976.55,86.2342 2010.87,86.2342 2038.56,86.2342 
  2061.39,86.2342 2080.53,86.2342 2096.82,86.2342 2110.87,86.2342 2123.1,86.2342 2133.86,86.2343 2143.4,86.2346 2151.92,86.2354 2159.58,86.2368 2166.5,86.2395 
  2172.8,86.2444 2178.55,86.2524 2183.83,86.2652 2188.69,86.2846 2193.18,86.3131 2197.35,86.3538 2201.23,86.4101 2204.85,86.4862 2208.24,86.5868 2211.42,86.7173 
  2214.41,86.8836 2217.23,87.0924 2219.89,87.3509 2222.42,87.6668 2224.81,88.0485 2227.09,88.5048 2229.25,89.0452 2231.32,89.6796 2233.29,90.4186 2235.18,91.2731 
  2236.99,92.2545 2238.72,93.3748 2240.38,94.6463 2241.99,96.0821 2243.53,97.6954 2245.01,99.5 2246.45,101.51 2247.84,103.741 2249.18,106.208 2250.47,108.927 
  2251.73,111.915 2252.95,115.188 2254.14,118.764 2255.29,122.662 2256.41,126.901 2257.5,131.501 2258.56,136.482 2259.6,141.866 2260.61,147.677 2261.59,153.936 
  2262.56,160.669 2263.5,167.902 2264.43,175.661 2265.33,183.975 2266.22,192.873 2267.09,202.386 2267.94,212.548 2268.78,223.393 2269.6,234.956 2270.41,247.278 
  2271.21,260.397 2271.99,274.356 2272.77,289.202 2273.53,304.982 2274.28,321.746 2275.02,339.549 2275.76,358.448 2276.48,378.503 2277.19,399.779 2277.9,422.345 
  2278.6,446.274 2279.3,471.644 2279.98,498.539 2280.66,527.047 2281.34,557.263 2282.01,589.289 2282.67,623.233 2283.33,659.213 2283.99,697.353 2284.64,737.786 
  2285.29,780.658 2285.93,826.122 2286.58,874.345 2287.22,925.507 2287.86,979.799 2288.49,1037.43 2289.13,1098.63 2289.76,1163.63 2290.39,1232.71 2291.03,1306.14 
  2291.66,1384.24 
  "/>
<polyline clip-path="url(#clip042)" style="stroke:#ac8d18; stroke-linecap:butt; stroke-linejoin:round; stroke-width:4; stroke-opacity:1; fill:none" points="
  255.035,86.2342 1144.92,86.2342 1493.88,86.2342 1680.24,86.2342 1796.21,86.2342 1875.37,86.2342 1932.87,86.2342 1976.55,86.2342 2010.87,86.2342 2038.56,86.2342 
  2061.39,86.2342 2080.53,86.2342 2096.82,86.2342 2110.87,86.2342 2123.1,86.2342 2133.86,86.2342 2143.4,86.2342 2151.92,86.2342 2159.58,86.2342 2166.5,86.2342 
  2172.8,86.2342 2178.55,86.2342 2183.83,86.2342 2188.69,86.2342 2193.18,86.2342 2197.35,86.2342 2201.23,86.2342 2204.85,86.2342 2208.24,86.2342 2211.42,86.2343 
  2214.41,86.2345 2217.23,86.2347 2219.89,86.2351 2222.42,86.2356 2224.81,86.2366 2227.09,86.2379 2229.25,86.24 2231.32,86.2429 2233.29,86.2472 2235.18,86.2531 
  2236.99,86.2613 2238.72,86.2724 2240.38,86.2873 2241.99,86.3072 2243.53,86.3332 2245.01,86.3671 2246.45,86.4107 2247.84,86.4663 2249.18,86.5367 2250.47,86.6251 
  2251.73,86.7353 2252.95,86.8717 2254.14,87.0396 2255.29,87.2449 2256.41,87.4947 2257.5,87.7969 2258.56,88.1609 2259.6,88.5972 2260.61,89.1179 2261.59,89.737 
  2262.56,90.4702 2263.5,91.3354 2264.43,92.3531 2265.33,93.5463 2266.22,94.9411 2267.09,96.5672 2267.94,98.4579 2268.78,100.651 2269.6,103.189 2270.41,106.119 
  2271.21,109.497 2271.99,113.382 2272.77,117.842 2273.53,122.956 2274.28,128.809 2275.02,135.498 2275.76,143.133 2276.48,151.838 2277.19,161.75 2277.9,173.026 
  2278.6,185.84 2279.3,200.39 2279.98,216.897 2280.66,235.613 2281.34,256.818 2282.01,280.831 2282.67,308.009 2283.33,338.757 2283.99,373.532 2284.64,412.85 
  2285.29,457.294 2285.93,507.525 2286.58,564.291 2287.22,628.44 2287.86,700.935 2288.49,782.87 2289.13,875.488 2289.76,980.204 2290.39,1098.63 2291.03,1232.61 
  2291.66,1384.24 
  "/>
<path clip-path="url(#clip040)" d="
M265.897 1377.32 L703.704 1377.32 L703.704 1066.28 L265.897 1066.28  Z
  " fill="#ffffff" fill-rule="evenodd" fill-opacity="1"/>
<polyline clip-path="url(#clip040)" style="stroke:#000000; stroke-linecap:butt; stroke-linejoin:round; stroke-width:4; stroke-opacity:1; fill:none" points="
  265.897,1377.32 703.704,1377.32 703.704,1066.28 265.897,1066.28 265.897,1377.32 
  "/>
<polyline clip-path="url(#clip040)" style="stroke:#009af9; stroke-linecap:butt; stroke-linejoin:round; stroke-width:4; stroke-opacity:1; fill:none" points="
  289.884,1118.12 433.805,1118.12 
  "/>
<path clip-path="url(#clip040)" d="M471.056 1103.43 L483.023 1135.4 L478.509 1135.4 L471.241 1116.23 L462.306 1135.4 L457.792 1135.4 L469.157 1110.53 L467.444 1105.95 Q466.357 1103.03 463.88 1103.03 L461.657 1103.03 L461.657 1099.38 L464.366 1099.42 Q469.597 1099.49 471.056 1103.43 Z" fill="#000000" fill-rule="evenodd" fill-opacity="1" /><path clip-path="url(#clip040)" d="M489.458 1113.87 L519.134 1113.87 L519.134 1117.76 L489.458 1117.76 L489.458 1113.87 M489.458 1123.31 L519.134 1123.31 L519.134 1127.25 L489.458 1127.25 L489.458 1123.31 Z" fill="#000000" fill-rule="evenodd" fill-opacity="1" /><path clip-path="url(#clip040)" d="M530.037 1131.46 L537.676 1131.46 L537.676 1105.09 L529.365 1106.76 L529.365 1102.5 L537.629 1100.84 L542.305 1100.84 L542.305 1131.46 L549.944 1131.46 L549.944 1135.4 L530.037 1135.4 L530.037 1131.46 Z" fill="#000000" fill-rule="evenodd" fill-opacity="1" /><path clip-path="url(#clip040)" d="M559.388 1129.52 L564.273 1129.52 L564.273 1135.4 L559.388 1135.4 L559.388 1129.52 Z" fill="#000000" fill-rule="evenodd" fill-opacity="1" /><path clip-path="url(#clip040)" d="M584.458 1103.91 Q580.847 1103.91 579.018 1107.48 Q577.212 1111.02 577.212 1118.15 Q577.212 1125.26 579.018 1128.82 Q580.847 1132.36 584.458 1132.36 Q588.092 1132.36 589.898 1128.82 Q591.726 1125.26 591.726 1118.15 Q591.726 1111.02 589.898 1107.48 Q588.092 1103.91 584.458 1103.91 M584.458 1100.21 Q590.268 1100.21 593.323 1104.82 Q596.402 1109.4 596.402 1118.15 Q596.402 1126.88 593.323 1131.48 Q590.268 1136.07 584.458 1136.07 Q578.648 1136.07 575.569 1131.48 Q572.513 1126.88 572.513 1118.15 Q572.513 1109.4 575.569 1104.82 Q578.648 1100.21 584.458 1100.21 Z" fill="#000000" fill-rule="evenodd" fill-opacity="1" /><polyline clip-path="url(#clip040)" style="stroke:#e26f46; stroke-linecap:butt; stroke-linejoin:round; stroke-width:4; stroke-opacity:1; fill:none" points="
  289.884,1169.96 433.805,1169.96 
  "/>
<path clip-path="url(#clip040)" d="M471.056 1155.27 L483.023 1187.24 L478.509 1187.24 L471.241 1168.07 L462.306 1187.24 L457.792 1187.24 L469.157 1162.37 L467.444 1157.79 Q466.357 1154.87 463.88 1154.87 L461.657 1154.87 L461.657 1151.22 L464.366 1151.26 Q469.597 1151.33 471.056 1155.27 Z" fill="#000000" fill-rule="evenodd" fill-opacity="1" /><path clip-path="url(#clip040)" d="M489.458 1165.71 L519.134 1165.71 L519.134 1169.6 L489.458 1169.6 L489.458 1165.71 M489.458 1175.15 L519.134 1175.15 L519.134 1179.09 L489.458 1179.09 L489.458 1175.15 Z" fill="#000000" fill-rule="evenodd" fill-opacity="1" /><path clip-path="url(#clip040)" d="M539.227 1155.75 Q535.615 1155.75 533.787 1159.32 Q531.981 1162.86 531.981 1169.99 Q531.981 1177.1 533.787 1180.66 Q535.615 1184.2 539.227 1184.2 Q542.861 1184.2 544.666 1180.66 Q546.495 1177.1 546.495 1169.99 Q546.495 1162.86 544.666 1159.32 Q542.861 1155.75 539.227 1155.75 M539.227 1152.05 Q545.037 1152.05 548.092 1156.66 Q551.171 1161.24 551.171 1169.99 Q551.171 1178.72 548.092 1183.32 Q545.037 1187.91 539.227 1187.91 Q533.416 1187.91 530.338 1183.32 Q527.282 1178.72 527.282 1169.99 Q527.282 1161.24 530.338 1156.66 Q533.416 1152.05 539.227 1152.05 Z" fill="#000000" fill-rule="evenodd" fill-opacity="1" /><path clip-path="url(#clip040)" d="M559.388 1181.36 L564.273 1181.36 L564.273 1187.24 L559.388 1187.24 L559.388 1181.36 Z" fill="#000000" fill-rule="evenodd" fill-opacity="1" /><path clip-path="url(#clip040)" d="M575.268 1183.3 L582.907 1183.3 L582.907 1156.93 L574.597 1158.6 L574.597 1154.34 L582.861 1152.68 L587.536 1152.68 L587.536 1183.3 L595.175 1183.3 L595.175 1187.24 L575.268 1187.24 L575.268 1183.3 Z" fill="#000000" fill-rule="evenodd" fill-opacity="1" /><polyline clip-path="url(#clip040)" style="stroke:#3da44d; stroke-linecap:butt; stroke-linejoin:round; stroke-width:4; stroke-opacity:1; fill:none" points="
  289.884,1221.8 433.805,1221.8 
  "/>
<path clip-path="url(#clip040)" d="M471.056 1207.11 L483.023 1239.08 L478.509 1239.08 L471.241 1219.91 L462.306 1239.08 L457.792 1239.08 L469.157 1214.21 L467.444 1209.63 Q466.357 1206.71 463.88 1206.71 L461.657 1206.71 L461.657 1203.06 L464.366 1203.1 Q469.597 1203.17 471.056 1207.11 Z" fill="#000000" fill-rule="evenodd" fill-opacity="1" /><path clip-path="url(#clip040)" d="M489.458 1217.55 L519.134 1217.55 L519.134 1221.44 L489.458 1221.44 L489.458 1217.55 M489.458 1226.99 L519.134 1226.99 L519.134 1230.93 L489.458 1230.93 L489.458 1226.99 Z" fill="#000000" fill-rule="evenodd" fill-opacity="1" /><path clip-path="url(#clip040)" d="M539.227 1207.59 Q535.615 1207.59 533.787 1211.16 Q531.981 1214.7 531.981 1221.83 Q531.981 1228.94 533.787 1232.5 Q535.615 1236.04 539.227 1236.04 Q542.861 1236.04 544.666 1232.5 Q546.495 1228.94 546.495 1221.83 Q546.495 1214.7 544.666 1211.16 Q542.861 1207.59 539.227 1207.59 M539.227 1203.89 Q545.037 1203.89 548.092 1208.5 Q551.171 1213.08 551.171 1221.83 Q551.171 1230.56 548.092 1235.16 Q545.037 1239.75 539.227 1239.75 Q533.416 1239.75 530.338 1235.16 Q527.282 1230.56 527.282 1221.83 Q527.282 1213.08 530.338 1208.5 Q533.416 1203.89 539.227 1203.89 Z" fill="#000000" fill-rule="evenodd" fill-opacity="1" /><path clip-path="url(#clip040)" d="M559.388 1233.2 L564.273 1233.2 L564.273 1239.08 L559.388 1239.08 L559.388 1233.2 Z" fill="#000000" fill-rule="evenodd" fill-opacity="1" /><path clip-path="url(#clip040)" d="M584.458 1207.59 Q580.847 1207.59 579.018 1211.16 Q577.212 1214.7 577.212 1221.83 Q577.212 1228.94 579.018 1232.5 Q580.847 1236.04 584.458 1236.04 Q588.092 1236.04 589.898 1232.5 Q591.726 1228.94 591.726 1221.83 Q591.726 1214.7 589.898 1211.16 Q588.092 1207.59 584.458 1207.59 M584.458 1203.89 Q590.268 1203.89 593.323 1208.5 Q596.402 1213.08 596.402 1221.83 Q596.402 1230.56 593.323 1235.16 Q590.268 1239.75 584.458 1239.75 Q578.648 1239.75 575.569 1235.16 Q572.513 1230.56 572.513 1221.83 Q572.513 1213.08 575.569 1208.5 Q578.648 1203.89 584.458 1203.89 Z" fill="#000000" fill-rule="evenodd" fill-opacity="1" /><path clip-path="url(#clip040)" d="M604.666 1204.52 L623.022 1204.52 L623.022 1208.45 L608.948 1208.45 L608.948 1216.92 Q609.967 1216.58 610.985 1216.41 Q612.004 1216.23 613.022 1216.23 Q618.809 1216.23 622.189 1219.4 Q625.569 1222.57 625.569 1227.99 Q625.569 1233.57 622.096 1236.67 Q618.624 1239.75 612.305 1239.75 Q610.129 1239.75 607.86 1239.38 Q605.615 1239.01 603.208 1238.27 L603.208 1233.57 Q605.291 1234.7 607.513 1235.26 Q609.735 1235.81 612.212 1235.81 Q616.217 1235.81 618.555 1233.7 Q620.893 1231.6 620.893 1227.99 Q620.893 1224.38 618.555 1222.27 Q616.217 1220.16 612.212 1220.16 Q610.337 1220.16 608.462 1220.58 Q606.61 1221 604.666 1221.88 L604.666 1204.52 Z" fill="#000000" fill-rule="evenodd" fill-opacity="1" /><polyline clip-path="url(#clip040)" style="stroke:#c271d2; stroke-linecap:butt; stroke-linejoin:round; stroke-width:4; stroke-opacity:1; fill:none" points="
  289.884,1273.64 433.805,1273.64 
  "/>
<path clip-path="url(#clip040)" d="M471.056 1258.95 L483.023 1290.92 L478.509 1290.92 L471.241 1271.75 L462.306 1290.92 L457.792 1290.92 L469.157 1266.05 L467.444 1261.47 Q466.357 1258.55 463.88 1258.55 L461.657 1258.55 L461.657 1254.9 L464.366 1254.94 Q469.597 1255.01 471.056 1258.95 Z" fill="#000000" fill-rule="evenodd" fill-opacity="1" /><path clip-path="url(#clip040)" d="M489.458 1269.39 L519.134 1269.39 L519.134 1273.28 L489.458 1273.28 L489.458 1269.39 M489.458 1278.83 L519.134 1278.83 L519.134 1282.77 L489.458 1282.77 L489.458 1278.83 Z" fill="#000000" fill-rule="evenodd" fill-opacity="1" /><path clip-path="url(#clip040)" d="M539.227 1259.43 Q535.615 1259.43 533.787 1263 Q531.981 1266.54 531.981 1273.67 Q531.981 1280.78 533.787 1284.34 Q535.615 1287.88 539.227 1287.88 Q542.861 1287.88 544.666 1284.34 Q546.495 1280.78 546.495 1273.67 Q546.495 1266.54 544.666 1263 Q542.861 1259.43 539.227 1259.43 M539.227 1255.73 Q545.037 1255.73 548.092 1260.34 Q551.171 1264.92 551.171 1273.67 Q551.171 1282.4 548.092 1287 Q545.037 1291.59 539.227 1291.59 Q533.416 1291.59 530.338 1287 Q527.282 1282.4 527.282 1273.67 Q527.282 1264.92 530.338 1260.34 Q533.416 1255.73 539.227 1255.73 Z" fill="#000000" fill-rule="evenodd" fill-opacity="1" /><path clip-path="url(#clip040)" d="M559.388 1285.04 L564.273 1285.04 L564.273 1290.92 L559.388 1290.92 L559.388 1285.04 Z" fill="#000000" fill-rule="evenodd" fill-opacity="1" /><path clip-path="url(#clip040)" d="M584.458 1259.43 Q580.847 1259.43 579.018 1263 Q577.212 1266.54 577.212 1273.67 Q577.212 1280.78 579.018 1284.34 Q580.847 1287.88 584.458 1287.88 Q588.092 1287.88 589.898 1284.34 Q591.726 1280.78 591.726 1273.67 Q591.726 1266.54 589.898 1263 Q588.092 1259.43 584.458 1259.43 M584.458 1255.73 Q590.268 1255.73 593.323 1260.34 Q596.402 1264.92 596.402 1273.67 Q596.402 1282.4 593.323 1287 Q590.268 1291.59 584.458 1291.59 Q578.648 1291.59 575.569 1287 Q572.513 1282.4 572.513 1273.67 Q572.513 1264.92 575.569 1260.34 Q578.648 1255.73 584.458 1255.73 Z" fill="#000000" fill-rule="evenodd" fill-opacity="1" /><path clip-path="url(#clip040)" d="M605.43 1286.98 L613.069 1286.98 L613.069 1260.61 L604.759 1262.28 L604.759 1258.02 L613.022 1256.36 L617.698 1256.36 L617.698 1286.98 L625.337 1286.98 L625.337 1290.92 L605.43 1290.92 L605.43 1286.98 Z" fill="#000000" fill-rule="evenodd" fill-opacity="1" /><polyline clip-path="url(#clip040)" style="stroke:#ac8d18; stroke-linecap:butt; stroke-linejoin:round; stroke-width:4; stroke-opacity:1; fill:none" points="
  289.884,1325.48 433.805,1325.48 
  "/>
<path clip-path="url(#clip040)" d="M471.056 1310.79 L483.023 1342.76 L478.509 1342.76 L471.241 1323.59 L462.306 1342.76 L457.792 1342.76 L469.157 1317.89 L467.444 1313.31 Q466.357 1310.39 463.88 1310.39 L461.657 1310.39 L461.657 1306.74 L464.366 1306.78 Q469.597 1306.85 471.056 1310.79 Z" fill="#000000" fill-rule="evenodd" fill-opacity="1" /><path clip-path="url(#clip040)" d="M489.458 1321.23 L519.134 1321.23 L519.134 1325.12 L489.458 1325.12 L489.458 1321.23 M489.458 1330.67 L519.134 1330.67 L519.134 1334.61 L489.458 1334.61 L489.458 1330.67 Z" fill="#000000" fill-rule="evenodd" fill-opacity="1" /><path clip-path="url(#clip040)" d="M539.227 1311.27 Q535.615 1311.27 533.787 1314.84 Q531.981 1318.38 531.981 1325.51 Q531.981 1332.62 533.787 1336.18 Q535.615 1339.72 539.227 1339.72 Q542.861 1339.72 544.666 1336.18 Q546.495 1332.62 546.495 1325.51 Q546.495 1318.38 544.666 1314.84 Q542.861 1311.27 539.227 1311.27 M539.227 1307.57 Q545.037 1307.57 548.092 1312.18 Q551.171 1316.76 551.171 1325.51 Q551.171 1334.24 548.092 1338.84 Q545.037 1343.43 539.227 1343.43 Q533.416 1343.43 530.338 1338.84 Q527.282 1334.24 527.282 1325.51 Q527.282 1316.76 530.338 1312.18 Q533.416 1307.57 539.227 1307.57 Z" fill="#000000" fill-rule="evenodd" fill-opacity="1" /><path clip-path="url(#clip040)" d="M559.388 1336.88 L564.273 1336.88 L564.273 1342.76 L559.388 1342.76 L559.388 1336.88 Z" fill="#000000" fill-rule="evenodd" fill-opacity="1" /><path clip-path="url(#clip040)" d="M584.458 1311.27 Q580.847 1311.27 579.018 1314.84 Q577.212 1318.38 577.212 1325.51 Q577.212 1332.62 579.018 1336.18 Q580.847 1339.72 584.458 1339.72 Q588.092 1339.72 589.898 1336.18 Q591.726 1332.62 591.726 1325.51 Q591.726 1318.38 589.898 1314.84 Q588.092 1311.27 584.458 1311.27 M584.458 1307.57 Q590.268 1307.57 593.323 1312.18 Q596.402 1316.76 596.402 1325.51 Q596.402 1334.24 593.323 1338.84 Q590.268 1343.43 584.458 1343.43 Q578.648 1343.43 575.569 1338.84 Q572.513 1334.24 572.513 1325.51 Q572.513 1316.76 575.569 1312.18 Q578.648 1307.57 584.458 1307.57 Z" fill="#000000" fill-rule="evenodd" fill-opacity="1" /><path clip-path="url(#clip040)" d="M614.62 1311.27 Q611.009 1311.27 609.18 1314.84 Q607.374 1318.38 607.374 1325.51 Q607.374 1332.62 609.18 1336.18 Q611.009 1339.72 614.62 1339.72 Q618.254 1339.72 620.059 1336.18 Q621.888 1332.62 621.888 1325.51 Q621.888 1318.38 620.059 1314.84 Q618.254 1311.27 614.62 1311.27 M614.62 1307.57 Q620.43 1307.57 623.485 1312.18 Q626.564 1316.76 626.564 1325.51 Q626.564 1334.24 623.485 1338.84 Q620.43 1343.43 614.62 1343.43 Q608.809 1343.43 605.731 1338.84 Q602.675 1334.24 602.675 1325.51 Q602.675 1316.76 605.731 1312.18 Q608.809 1307.57 614.62 1307.57 Z" fill="#000000" fill-rule="evenodd" fill-opacity="1" /><path clip-path="url(#clip040)" d="M634.828 1308.2 L653.184 1308.2 L653.184 1312.13 L639.11 1312.13 L639.11 1320.6 Q640.129 1320.26 641.147 1320.09 Q642.166 1319.91 643.184 1319.91 Q648.971 1319.91 652.351 1323.08 Q655.731 1326.25 655.731 1331.67 Q655.731 1337.25 652.258 1340.35 Q648.786 1343.43 642.467 1343.43 Q640.291 1343.43 638.022 1343.06 Q635.777 1342.69 633.37 1341.95 L633.37 1337.25 Q635.453 1338.38 637.675 1338.94 Q639.897 1339.49 642.374 1339.49 Q646.379 1339.49 648.717 1337.38 Q651.055 1335.28 651.055 1331.67 Q651.055 1328.06 648.717 1325.95 Q646.379 1323.84 642.374 1323.84 Q640.499 1323.84 638.624 1324.26 Q636.772 1324.68 634.828 1325.56 L634.828 1308.2 Z" fill="#000000" fill-rule="evenodd" fill-opacity="1" /></svg>
