<?xml version="1.0" encoding="utf-8"?>
<svg xmlns="http://www.w3.org/2000/svg" xmlns:xlink="http://www.w3.org/1999/xlink" width="600" height="400" viewBox="0 0 2400 1600">
<defs>
  <clipPath id="clip920">
    <rect x="0" y="0" width="2400" height="1600"/>
  </clipPath>
</defs>
<path clip-path="url(#clip920)" d="
M0 1600 L2400 1600 L2400 0 L0 0  Z
  " fill="#ffffff" fill-rule="evenodd" fill-opacity="1"/>
<defs>
  <clipPath id="clip921">
    <rect x="480" y="0" width="1681" height="1600"/>
  </clipPath>
</defs>
<path clip-path="url(#clip920)" d="
M193.936 1486.45 L2352.76 1486.45 L2352.76 47.2441 L193.936 47.2441  Z
  " fill="#ffffff" fill-rule="evenodd" fill-opacity="1"/>
<defs>
  <clipPath id="clip922">
    <rect x="193" y="47" width="2160" height="1440"/>
  </clipPath>
</defs>
<polyline clip-path="url(#clip922)" style="stroke:#000000; stroke-linecap:butt; stroke-linejoin:round; stroke-width:2; stroke-opacity:0.1; fill:none" points="
  255.035,1486.45 255.035,47.2441 
  "/>
<polyline clip-path="url(#clip922)" style="stroke:#000000; stroke-linecap:butt; stroke-linejoin:round; stroke-width:2; stroke-opacity:0.1; fill:none" points="
  764.19,1486.45 764.19,47.2441 
  "/>
<polyline clip-path="url(#clip922)" style="stroke:#000000; stroke-linecap:butt; stroke-linejoin:round; stroke-width:2; stroke-opacity:0.1; fill:none" points="
  1273.35,1486.45 1273.35,47.2441 
  "/>
<polyline clip-path="url(#clip922)" style="stroke:#000000; stroke-linecap:butt; stroke-linejoin:round; stroke-width:2; stroke-opacity:0.1; fill:none" points="
  1782.5,1486.45 1782.5,47.2441 
  "/>
<polyline clip-path="url(#clip922)" style="stroke:#000000; stroke-linecap:butt; stroke-linejoin:round; stroke-width:2; stroke-opacity:0.1; fill:none" points="
  2291.66,1486.45 2291.66,47.2441 
  "/>
<polyline clip-path="url(#clip920)" style="stroke:#000000; stroke-linecap:butt; stroke-linejoin:round; stroke-width:4; stroke-opacity:1; fill:none" points="
  193.936,1486.45 2352.76,1486.45 
  "/>
<polyline clip-path="url(#clip920)" style="stroke:#000000; stroke-linecap:butt; stroke-linejoin:round; stroke-width:4; stroke-opacity:1; fill:none" points="
  255.035,1486.45 255.035,1467.55 
  "/>
<polyline clip-path="url(#clip920)" style="stroke:#000000; stroke-linecap:butt; stroke-linejoin:round; stroke-width:4; stroke-opacity:1; fill:none" points="
  764.19,1486.45 764.19,1467.55 
  "/>
<polyline clip-path="url(#clip920)" style="stroke:#000000; stroke-linecap:butt; stroke-linejoin:round; stroke-width:4; stroke-opacity:1; fill:none" points="
  1273.35,1486.45 1273.35,1467.55 
  "/>
<polyline clip-path="url(#clip920)" style="stroke:#000000; stroke-linecap:butt; stroke-linejoin:round; stroke-width:4; stroke-opacity:1; fill:none" points="
  1782.5,1486.45 1782.5,1467.55 
  "/>
<polyline clip-path="url(#clip920)" style="stroke:#000000; stroke-linecap:butt; stroke-linejoin:round; stroke-width:4; stroke-opacity:1; fill:none" points="
  2291.66,1486.45 2291.66,1467.55 
  "/>
<path clip-path="url(#clip920)" d="M201.563 1532.02 L231.239 1532.02 L231.239 1535.95 L201.563 1535.95 L201.563 1532.02 Z" fill="#000000" fill-rule="evenodd" fill-opacity="1" /><path clip-path="url(#clip920)" d="M242.141 1544.91 L249.78 1544.91 L249.78 1518.55 L241.47 1520.21 L241.47 1515.95 L249.734 1514.29 L254.41 1514.29 L254.41 1544.91 L262.049 1544.91 L262.049 1548.85 L242.141 1548.85 L242.141 1544.91 Z" fill="#000000" fill-rule="evenodd" fill-opacity="1" /><path clip-path="url(#clip920)" d="M271.493 1542.97 L276.377 1542.97 L276.377 1548.85 L271.493 1548.85 L271.493 1542.97 Z" fill="#000000" fill-rule="evenodd" fill-opacity="1" /><path clip-path="url(#clip920)" d="M296.562 1517.37 Q292.951 1517.37 291.122 1520.93 Q289.317 1524.47 289.317 1531.6 Q289.317 1538.71 291.122 1542.27 Q292.951 1545.82 296.562 1545.82 Q300.196 1545.82 302.002 1542.27 Q303.831 1538.71 303.831 1531.6 Q303.831 1524.47 302.002 1520.93 Q300.196 1517.37 296.562 1517.37 M296.562 1513.66 Q302.372 1513.66 305.428 1518.27 Q308.507 1522.85 308.507 1531.6 Q308.507 1540.33 305.428 1544.94 Q302.372 1549.52 296.562 1549.52 Q290.752 1549.52 287.673 1544.94 Q284.618 1540.33 284.618 1531.6 Q284.618 1522.85 287.673 1518.27 Q290.752 1513.66 296.562 1513.66 Z" fill="#000000" fill-rule="evenodd" fill-opacity="1" /><path clip-path="url(#clip920)" d="M711.216 1532.02 L740.892 1532.02 L740.892 1535.95 L711.216 1535.95 L711.216 1532.02 Z" fill="#000000" fill-rule="evenodd" fill-opacity="1" /><path clip-path="url(#clip920)" d="M760.984 1517.37 Q757.373 1517.37 755.545 1520.93 Q753.739 1524.47 753.739 1531.6 Q753.739 1538.71 755.545 1542.27 Q757.373 1545.82 760.984 1545.82 Q764.619 1545.82 766.424 1542.27 Q768.253 1538.71 768.253 1531.6 Q768.253 1524.47 766.424 1520.93 Q764.619 1517.37 760.984 1517.37 M760.984 1513.66 Q766.794 1513.66 769.85 1518.27 Q772.929 1522.85 772.929 1531.6 Q772.929 1540.33 769.85 1544.94 Q766.794 1549.52 760.984 1549.52 Q755.174 1549.52 752.095 1544.94 Q749.04 1540.33 749.04 1531.6 Q749.04 1522.85 752.095 1518.27 Q755.174 1513.66 760.984 1513.66 Z" fill="#000000" fill-rule="evenodd" fill-opacity="1" /><path clip-path="url(#clip920)" d="M781.146 1542.97 L786.03 1542.97 L786.03 1548.85 L781.146 1548.85 L781.146 1542.97 Z" fill="#000000" fill-rule="evenodd" fill-opacity="1" /><path clip-path="url(#clip920)" d="M796.262 1514.29 L814.618 1514.29 L814.618 1518.22 L800.544 1518.22 L800.544 1526.7 Q801.563 1526.35 802.581 1526.19 Q803.6 1526 804.618 1526 Q810.405 1526 813.785 1529.17 Q817.165 1532.34 817.165 1537.76 Q817.165 1543.34 813.692 1546.44 Q810.22 1549.52 803.901 1549.52 Q801.725 1549.52 799.456 1549.15 Q797.211 1548.78 794.804 1548.04 L794.804 1543.34 Q796.887 1544.47 799.109 1545.03 Q801.331 1545.58 803.808 1545.58 Q807.813 1545.58 810.151 1543.48 Q812.489 1541.37 812.489 1537.76 Q812.489 1534.15 810.151 1532.04 Q807.813 1529.94 803.808 1529.94 Q801.933 1529.94 800.058 1530.35 Q798.206 1530.77 796.262 1531.65 L796.262 1514.29 Z" fill="#000000" fill-rule="evenodd" fill-opacity="1" /><path clip-path="url(#clip920)" d="M1250.73 1517.37 Q1247.12 1517.37 1245.29 1520.93 Q1243.49 1524.47 1243.49 1531.6 Q1243.49 1538.71 1245.29 1542.27 Q1247.12 1545.82 1250.73 1545.82 Q1254.36 1545.82 1256.17 1542.27 Q1258 1538.71 1258 1531.6 Q1258 1524.47 1256.17 1520.93 Q1254.36 1517.37 1250.73 1517.37 M1250.73 1513.66 Q1256.54 1513.66 1259.6 1518.27 Q1262.67 1522.85 1262.67 1531.6 Q1262.67 1540.33 1259.6 1544.94 Q1256.54 1549.52 1250.73 1549.52 Q1244.92 1549.52 1241.84 1544.94 Q1238.79 1540.33 1238.79 1531.6 Q1238.79 1522.85 1241.84 1518.27 Q1244.92 1513.66 1250.73 1513.66 Z" fill="#000000" fill-rule="evenodd" fill-opacity="1" /><path clip-path="url(#clip920)" d="M1270.89 1542.97 L1275.78 1542.97 L1275.78 1548.85 L1270.89 1548.85 L1270.89 1542.97 Z" fill="#000000" fill-rule="evenodd" fill-opacity="1" /><path clip-path="url(#clip920)" d="M1295.96 1517.37 Q1292.35 1517.37 1290.52 1520.93 Q1288.72 1524.47 1288.72 1531.6 Q1288.72 1538.71 1290.52 1542.27 Q1292.35 1545.82 1295.96 1545.82 Q1299.6 1545.82 1301.4 1542.27 Q1303.23 1538.71 1303.23 1531.6 Q1303.23 1524.47 1301.4 1520.93 Q1299.6 1517.37 1295.96 1517.37 M1295.96 1513.66 Q1301.77 1513.66 1304.83 1518.27 Q1307.91 1522.85 1307.91 1531.6 Q1307.91 1540.33 1304.83 1544.94 Q1301.77 1549.52 1295.96 1549.52 Q1290.15 1549.52 1287.07 1544.94 Q1284.02 1540.33 1284.02 1531.6 Q1284.02 1522.85 1287.07 1518.27 Q1290.15 1513.66 1295.96 1513.66 Z" fill="#000000" fill-rule="evenodd" fill-opacity="1" /><path clip-path="url(#clip920)" d="M1760.38 1517.37 Q1756.77 1517.37 1754.94 1520.93 Q1753.14 1524.47 1753.14 1531.6 Q1753.14 1538.71 1754.94 1542.27 Q1756.77 1545.82 1760.38 1545.82 Q1764.02 1545.82 1765.82 1542.27 Q1767.65 1538.71 1767.65 1531.6 Q1767.65 1524.47 1765.82 1520.93 Q1764.02 1517.37 1760.38 1517.37 M1760.38 1513.66 Q1766.19 1513.66 1769.25 1518.27 Q1772.33 1522.85 1772.33 1531.6 Q1772.33 1540.33 1769.25 1544.94 Q1766.19 1549.52 1760.38 1549.52 Q1754.57 1549.52 1751.49 1544.94 Q1748.44 1540.33 1748.44 1531.6 Q1748.44 1522.85 1751.49 1518.27 Q1754.57 1513.66 1760.38 1513.66 Z" fill="#000000" fill-rule="evenodd" fill-opacity="1" /><path clip-path="url(#clip920)" d="M1780.55 1542.97 L1785.43 1542.97 L1785.43 1548.85 L1780.55 1548.85 L1780.55 1542.97 Z" fill="#000000" fill-rule="evenodd" fill-opacity="1" /><path clip-path="url(#clip920)" d="M1795.66 1514.29 L1814.02 1514.29 L1814.02 1518.22 L1799.94 1518.22 L1799.94 1526.7 Q1800.96 1526.35 1801.98 1526.19 Q1803 1526 1804.02 1526 Q1809.8 1526 1813.18 1529.17 Q1816.56 1532.34 1816.56 1537.76 Q1816.56 1543.34 1813.09 1546.44 Q1809.62 1549.52 1803.3 1549.52 Q1801.12 1549.52 1798.86 1549.15 Q1796.61 1548.78 1794.2 1548.04 L1794.2 1543.34 Q1796.29 1544.47 1798.51 1545.03 Q1800.73 1545.58 1803.21 1545.58 Q1807.21 1545.58 1809.55 1543.48 Q1811.89 1541.37 1811.89 1537.76 Q1811.89 1534.15 1809.55 1532.04 Q1807.21 1529.94 1803.21 1529.94 Q1801.33 1529.94 1799.46 1530.35 Q1797.61 1530.77 1795.66 1531.65 L1795.66 1514.29 Z" fill="#000000" fill-rule="evenodd" fill-opacity="1" /><path clip-path="url(#clip920)" d="M2258.81 1544.91 L2266.45 1544.91 L2266.45 1518.55 L2258.14 1520.21 L2258.14 1515.95 L2266.4 1514.29 L2271.08 1514.29 L2271.08 1544.91 L2278.72 1544.91 L2278.72 1548.85 L2258.81 1548.85 L2258.81 1544.91 Z" fill="#000000" fill-rule="evenodd" fill-opacity="1" /><path clip-path="url(#clip920)" d="M2288.16 1542.97 L2293.05 1542.97 L2293.05 1548.85 L2288.16 1548.85 L2288.16 1542.97 Z" fill="#000000" fill-rule="evenodd" fill-opacity="1" /><path clip-path="url(#clip920)" d="M2313.23 1517.37 Q2309.62 1517.37 2307.79 1520.93 Q2305.99 1524.47 2305.99 1531.6 Q2305.99 1538.71 2307.79 1542.27 Q2309.62 1545.82 2313.23 1545.82 Q2316.87 1545.82 2318.67 1542.27 Q2320.5 1538.71 2320.5 1531.6 Q2320.5 1524.47 2318.67 1520.93 Q2316.87 1517.37 2313.23 1517.37 M2313.23 1513.66 Q2319.04 1513.66 2322.1 1518.27 Q2325.18 1522.85 2325.18 1531.6 Q2325.18 1540.33 2322.1 1544.94 Q2319.04 1549.52 2313.23 1549.52 Q2307.42 1549.52 2304.34 1544.94 Q2301.29 1540.33 2301.29 1531.6 Q2301.29 1522.85 2304.34 1518.27 Q2307.42 1513.66 2313.23 1513.66 Z" fill="#000000" fill-rule="evenodd" fill-opacity="1" /><polyline clip-path="url(#clip922)" style="stroke:#000000; stroke-linecap:butt; stroke-linejoin:round; stroke-width:2; stroke-opacity:0.1; fill:none" points="
  193.936,1445.72 2352.76,1445.72 
  "/>
<polyline clip-path="url(#clip922)" style="stroke:#000000; stroke-linecap:butt; stroke-linejoin:round; stroke-width:2; stroke-opacity:0.1; fill:none" points="
  193.936,1191.14 2352.76,1191.14 
  "/>
<polyline clip-path="url(#clip922)" style="stroke:#000000; stroke-linecap:butt; stroke-linejoin:round; stroke-width:2; stroke-opacity:0.1; fill:none" points="
  193.936,936.563 2352.76,936.563 
  "/>
<polyline clip-path="url(#clip922)" style="stroke:#000000; stroke-linecap:butt; stroke-linejoin:round; stroke-width:2; stroke-opacity:0.1; fill:none" points="
  193.936,681.987 2352.76,681.987 
  "/>
<polyline clip-path="url(#clip922)" style="stroke:#000000; stroke-linecap:butt; stroke-linejoin:round; stroke-width:2; stroke-opacity:0.1; fill:none" points="
  193.936,427.411 2352.76,427.411 
  "/>
<polyline clip-path="url(#clip922)" style="stroke:#000000; stroke-linecap:butt; stroke-linejoin:round; stroke-width:2; stroke-opacity:0.1; fill:none" points="
  193.936,172.835 2352.76,172.835 
  "/>
<polyline clip-path="url(#clip920)" style="stroke:#000000; stroke-linecap:butt; stroke-linejoin:round; stroke-width:4; stroke-opacity:1; fill:none" points="
  193.936,1486.45 193.936,47.2441 
  "/>
<polyline clip-path="url(#clip920)" style="stroke:#000000; stroke-linecap:butt; stroke-linejoin:round; stroke-width:4; stroke-opacity:1; fill:none" points="
  193.936,1445.72 212.834,1445.72 
  "/>
<polyline clip-path="url(#clip920)" style="stroke:#000000; stroke-linecap:butt; stroke-linejoin:round; stroke-width:4; stroke-opacity:1; fill:none" points="
  193.936,1191.14 212.834,1191.14 
  "/>
<polyline clip-path="url(#clip920)" style="stroke:#000000; stroke-linecap:butt; stroke-linejoin:round; stroke-width:4; stroke-opacity:1; fill:none" points="
  193.936,936.563 212.834,936.563 
  "/>
<polyline clip-path="url(#clip920)" style="stroke:#000000; stroke-linecap:butt; stroke-linejoin:round; stroke-width:4; stroke-opacity:1; fill:none" points="
  193.936,681.987 212.834,681.987 
  "/>
<polyline clip-path="url(#clip920)" style="stroke:#000000; stroke-linecap:butt; stroke-linejoin:round; stroke-width:4; stroke-opacity:1; fill:none" points="
  193.936,427.411 212.834,427.411 
  "/>
<polyline clip-path="url(#clip920)" style="stroke:#000000; stroke-linecap:butt; stroke-linejoin:round; stroke-width:4; stroke-opacity:1; fill:none" points="
  193.936,172.835 212.834,172.835 
  "/>
<path clip-path="url(#clip920)" d="M50.9921 1446.17 L80.6679 1446.17 L80.6679 1450.1 L50.9921 1450.1 L50.9921 1446.17 Z" fill="#000000" fill-rule="evenodd" fill-opacity="1" /><path clip-path="url(#clip920)" d="M91.5706 1459.06 L99.2095 1459.06 L99.2095 1432.69 L90.8993 1434.36 L90.8993 1430.1 L99.1632 1428.44 L103.839 1428.44 L103.839 1459.06 L111.478 1459.06 L111.478 1463 L91.5706 1463 L91.5706 1459.06 Z" fill="#000000" fill-rule="evenodd" fill-opacity="1" /><path clip-path="url(#clip920)" d="M120.922 1457.12 L125.807 1457.12 L125.807 1463 L120.922 1463 L120.922 1457.12 Z" fill="#000000" fill-rule="evenodd" fill-opacity="1" /><path clip-path="url(#clip920)" d="M145.992 1431.51 Q142.381 1431.51 140.552 1435.08 Q138.746 1438.62 138.746 1445.75 Q138.746 1452.86 140.552 1456.42 Q142.381 1459.96 145.992 1459.96 Q149.626 1459.96 151.431 1456.42 Q153.26 1452.86 153.26 1445.75 Q153.26 1438.62 151.431 1435.08 Q149.626 1431.51 145.992 1431.51 M145.992 1427.81 Q151.802 1427.81 154.857 1432.42 Q157.936 1437 157.936 1445.75 Q157.936 1454.48 154.857 1459.08 Q151.802 1463.67 145.992 1463.67 Q140.181 1463.67 137.103 1459.08 Q134.047 1454.48 134.047 1445.75 Q134.047 1437 137.103 1432.42 Q140.181 1427.81 145.992 1427.81 Z" fill="#000000" fill-rule="evenodd" fill-opacity="1" /><path clip-path="url(#clip920)" d="M51.9875 1191.59 L81.6633 1191.59 L81.6633 1195.53 L51.9875 1195.53 L51.9875 1191.59 Z" fill="#000000" fill-rule="evenodd" fill-opacity="1" /><path clip-path="url(#clip920)" d="M101.756 1176.94 Q98.1447 1176.94 96.316 1180.5 Q94.5104 1184.04 94.5104 1191.17 Q94.5104 1198.28 96.316 1201.85 Q98.1447 1205.39 101.756 1205.39 Q105.39 1205.39 107.196 1201.85 Q109.024 1198.28 109.024 1191.17 Q109.024 1184.04 107.196 1180.5 Q105.39 1176.94 101.756 1176.94 M101.756 1173.23 Q107.566 1173.23 110.621 1177.84 Q113.7 1182.42 113.7 1191.17 Q113.7 1199.9 110.621 1204.51 Q107.566 1209.09 101.756 1209.09 Q95.9456 1209.09 92.8669 1204.51 Q89.8114 1199.9 89.8114 1191.17 Q89.8114 1182.42 92.8669 1177.84 Q95.9456 1173.23 101.756 1173.23 Z" fill="#000000" fill-rule="evenodd" fill-opacity="1" /><path clip-path="url(#clip920)" d="M121.918 1202.54 L126.802 1202.54 L126.802 1208.42 L121.918 1208.42 L121.918 1202.54 Z" fill="#000000" fill-rule="evenodd" fill-opacity="1" /><path clip-path="url(#clip920)" d="M137.033 1173.86 L155.39 1173.86 L155.39 1177.79 L141.316 1177.79 L141.316 1186.27 Q142.334 1185.92 143.353 1185.76 Q144.371 1185.57 145.39 1185.57 Q151.177 1185.57 154.556 1188.74 Q157.936 1191.92 157.936 1197.33 Q157.936 1202.91 154.464 1206.01 Q150.992 1209.09 144.672 1209.09 Q142.496 1209.09 140.228 1208.72 Q137.982 1208.35 135.575 1207.61 L135.575 1202.91 Q137.658 1204.04 139.881 1204.6 Q142.103 1205.16 144.58 1205.16 Q148.584 1205.16 150.922 1203.05 Q153.26 1200.94 153.26 1197.33 Q153.26 1193.72 150.922 1191.61 Q148.584 1189.51 144.58 1189.51 Q142.705 1189.51 140.83 1189.92 Q138.978 1190.34 137.033 1191.22 L137.033 1173.86 Z" fill="#000000" fill-rule="evenodd" fill-opacity="1" /><path clip-path="url(#clip920)" d="M100.76 922.362 Q97.1493 922.362 95.3206 925.927 Q93.515 929.469 93.515 936.598 Q93.515 943.705 95.3206 947.269 Q97.1493 950.811 100.76 950.811 Q104.395 950.811 106.2 947.269 Q108.029 943.705 108.029 936.598 Q108.029 929.469 106.2 925.927 Q104.395 922.362 100.76 922.362 M100.76 918.658 Q106.571 918.658 109.626 923.265 Q112.705 927.848 112.705 936.598 Q112.705 945.325 109.626 949.931 Q106.571 954.515 100.76 954.515 Q94.9502 954.515 91.8715 949.931 Q88.816 945.325 88.816 936.598 Q88.816 927.848 91.8715 923.265 Q94.9502 918.658 100.76 918.658 Z" fill="#000000" fill-rule="evenodd" fill-opacity="1" /><path clip-path="url(#clip920)" d="M120.922 947.964 L125.807 947.964 L125.807 953.843 L120.922 953.843 L120.922 947.964 Z" fill="#000000" fill-rule="evenodd" fill-opacity="1" /><path clip-path="url(#clip920)" d="M145.992 922.362 Q142.381 922.362 140.552 925.927 Q138.746 929.469 138.746 936.598 Q138.746 943.705 140.552 947.269 Q142.381 950.811 145.992 950.811 Q149.626 950.811 151.431 947.269 Q153.26 943.705 153.26 936.598 Q153.26 929.469 151.431 925.927 Q149.626 922.362 145.992 922.362 M145.992 918.658 Q151.802 918.658 154.857 923.265 Q157.936 927.848 157.936 936.598 Q157.936 945.325 154.857 949.931 Q151.802 954.515 145.992 954.515 Q140.181 954.515 137.103 949.931 Q134.047 945.325 134.047 936.598 Q134.047 927.848 137.103 923.265 Q140.181 918.658 145.992 918.658 Z" fill="#000000" fill-rule="evenodd" fill-opacity="1" /><path clip-path="url(#clip920)" d="M101.756 667.786 Q98.1447 667.786 96.316 671.351 Q94.5104 674.892 94.5104 682.022 Q94.5104 689.128 96.316 692.693 Q98.1447 696.235 101.756 696.235 Q105.39 696.235 107.196 692.693 Q109.024 689.128 109.024 682.022 Q109.024 674.892 107.196 671.351 Q105.39 667.786 101.756 667.786 M101.756 664.082 Q107.566 664.082 110.621 668.689 Q113.7 673.272 113.7 682.022 Q113.7 690.749 110.621 695.355 Q107.566 699.939 101.756 699.939 Q95.9456 699.939 92.8669 695.355 Q89.8114 690.749 89.8114 682.022 Q89.8114 673.272 92.8669 668.689 Q95.9456 664.082 101.756 664.082 Z" fill="#000000" fill-rule="evenodd" fill-opacity="1" /><path clip-path="url(#clip920)" d="M121.918 693.388 L126.802 693.388 L126.802 699.267 L121.918 699.267 L121.918 693.388 Z" fill="#000000" fill-rule="evenodd" fill-opacity="1" /><path clip-path="url(#clip920)" d="M137.033 664.707 L155.39 664.707 L155.39 668.642 L141.316 668.642 L141.316 677.115 Q142.334 676.767 143.353 676.605 Q144.371 676.42 145.39 676.42 Q151.177 676.42 154.556 679.591 Q157.936 682.763 157.936 688.179 Q157.936 693.758 154.464 696.86 Q150.992 699.939 144.672 699.939 Q142.496 699.939 140.228 699.568 Q137.982 699.198 135.575 698.457 L135.575 693.758 Q137.658 694.892 139.881 695.448 Q142.103 696.003 144.58 696.003 Q148.584 696.003 150.922 693.897 Q153.26 691.79 153.26 688.179 Q153.26 684.568 150.922 682.462 Q148.584 680.355 144.58 680.355 Q142.705 680.355 140.83 680.772 Q138.978 681.189 137.033 682.068 L137.033 664.707 Z" fill="#000000" fill-rule="evenodd" fill-opacity="1" /><path clip-path="url(#clip920)" d="M91.5706 440.756 L99.2095 440.756 L99.2095 414.39 L90.8993 416.057 L90.8993 411.798 L99.1632 410.131 L103.839 410.131 L103.839 440.756 L111.478 440.756 L111.478 444.691 L91.5706 444.691 L91.5706 440.756 Z" fill="#000000" fill-rule="evenodd" fill-opacity="1" /><path clip-path="url(#clip920)" d="M120.922 438.812 L125.807 438.812 L125.807 444.691 L120.922 444.691 L120.922 438.812 Z" fill="#000000" fill-rule="evenodd" fill-opacity="1" /><path clip-path="url(#clip920)" d="M145.992 413.21 Q142.381 413.21 140.552 416.775 Q138.746 420.316 138.746 427.446 Q138.746 434.552 140.552 438.117 Q142.381 441.659 145.992 441.659 Q149.626 441.659 151.431 438.117 Q153.26 434.552 153.26 427.446 Q153.26 420.316 151.431 416.775 Q149.626 413.21 145.992 413.21 M145.992 409.506 Q151.802 409.506 154.857 414.113 Q157.936 418.696 157.936 427.446 Q157.936 436.173 154.857 440.779 Q151.802 445.362 145.992 445.362 Q140.181 445.362 137.103 440.779 Q134.047 436.173 134.047 427.446 Q134.047 418.696 137.103 414.113 Q140.181 409.506 145.992 409.506 Z" fill="#000000" fill-rule="evenodd" fill-opacity="1" /><path clip-path="url(#clip920)" d="M92.566 186.18 L100.205 186.18 L100.205 159.814 L91.8947 161.481 L91.8947 157.222 L100.159 155.555 L104.834 155.555 L104.834 186.18 L112.473 186.18 L112.473 190.115 L92.566 190.115 L92.566 186.18 Z" fill="#000000" fill-rule="evenodd" fill-opacity="1" /><path clip-path="url(#clip920)" d="M121.918 184.235 L126.802 184.235 L126.802 190.115 L121.918 190.115 L121.918 184.235 Z" fill="#000000" fill-rule="evenodd" fill-opacity="1" /><path clip-path="url(#clip920)" d="M137.033 155.555 L155.39 155.555 L155.39 159.49 L141.316 159.49 L141.316 167.962 Q142.334 167.615 143.353 167.453 Q144.371 167.268 145.39 167.268 Q151.177 167.268 154.556 170.439 Q157.936 173.61 157.936 179.027 Q157.936 184.606 154.464 187.708 Q150.992 190.786 144.672 190.786 Q142.496 190.786 140.228 190.416 Q137.982 190.046 135.575 189.305 L135.575 184.606 Q137.658 185.74 139.881 186.296 Q142.103 186.851 144.58 186.851 Q148.584 186.851 150.922 184.745 Q153.26 182.638 153.26 179.027 Q153.26 175.416 150.922 173.31 Q148.584 171.203 144.58 171.203 Q142.705 171.203 140.83 171.62 Q138.978 172.036 137.033 172.916 L137.033 155.555 Z" fill="#000000" fill-rule="evenodd" fill-opacity="1" /><polyline clip-path="url(#clip922)" style="stroke:#009af9; stroke-linecap:butt; stroke-linejoin:round; stroke-width:4; stroke-opacity:1; fill:none" points="
  255.035,427.411 275.401,430.631 295.767,433.915 316.133,437.266 336.5,440.685 356.866,444.173 377.232,447.731 397.598,451.361 417.964,455.065 438.331,458.843 
  458.697,462.697 479.063,466.63 499.429,470.642 519.796,474.735 540.162,478.91 560.528,483.17 580.894,487.516 601.261,491.95 621.627,496.474 641.993,501.089 
  662.359,505.797 682.725,510.6 703.092,515.5 723.458,520.499 743.824,525.599 764.19,530.802 784.557,536.111 804.923,541.526 825.289,547.051 845.655,552.688 
  866.021,558.438 886.388,564.305 906.754,570.29 927.12,576.396 947.486,582.625 967.853,588.981 988.219,595.464 1008.59,602.079 1028.95,608.827 1049.32,615.712 
  1069.68,622.735 1090.05,629.901 1110.42,637.211 1130.78,644.669 1151.15,652.278 1171.51,660.04 1191.88,667.96 1212.25,676.039 1232.61,684.281 1252.98,692.69 
  1273.35,701.269 1293.71,710.021 1314.08,718.95 1334.44,728.059 1354.81,737.352 1375.18,746.833 1395.54,756.506 1415.91,766.374 1436.28,776.441 1456.64,786.712 
  1477.01,797.19 1497.37,807.88 1517.74,818.786 1538.11,829.912 1558.47,841.263 1578.84,852.843 1599.21,864.657 1619.57,876.71 1639.94,889.007 1660.3,901.551 
  1680.67,914.35 1701.04,927.406 1721.4,940.727 1741.77,954.316 1762.14,968.181 1782.5,982.325 1802.87,996.755 1823.23,1011.48 1843.6,1026.5 1863.97,1041.82 
  1884.33,1057.45 1904.7,1073.4 1925.07,1089.67 1945.43,1106.27 1965.8,1123.2 1986.16,1140.48 2006.53,1158.1 2026.9,1176.08 2047.26,1194.43 2067.63,1213.14 
  2087.99,1232.23 2108.36,1251.71 2128.73,1271.58 2149.09,1291.86 2169.46,1312.54 2189.83,1333.64 2210.19,1355.17 2230.56,1377.13 2250.92,1399.54 2271.29,1422.4 
  2291.66,1445.72 
  "/>
<polyline clip-path="url(#clip922)" style="stroke:#e26f46; stroke-linecap:butt; stroke-linejoin:round; stroke-width:4; stroke-opacity:1; fill:none" points="
  255.035,427.411 275.401,427.411 295.767,427.411 316.133,427.411 336.5,427.411 356.866,427.411 377.232,427.411 397.598,427.411 417.964,427.411 438.331,427.411 
  458.697,427.411 479.063,427.411 499.429,427.411 519.796,427.411 540.162,427.411 560.528,427.411 580.894,427.411 601.261,427.411 621.627,427.411 641.993,427.411 
  662.359,427.411 682.725,427.411 703.092,427.411 723.458,427.411 743.824,427.411 764.19,427.411 784.557,427.411 804.923,427.412 825.289,427.412 845.655,427.412 
  866.021,427.412 886.388,427.412 906.754,427.412 927.12,427.413 947.486,427.413 967.853,427.413 988.219,427.414 1008.59,427.414 1028.95,427.415 1049.32,427.416 
  1069.68,427.417 1090.05,427.418 1110.42,427.42 1130.78,427.422 1151.15,427.425 1171.51,427.428 1191.88,427.431 1212.25,427.436 1232.61,427.441 1252.98,427.448 
  1273.35,427.456 1293.71,427.466 1314.08,427.478 1334.44,427.493 1354.81,427.511 1375.18,427.533 1395.54,427.56 1415.91,427.593 1436.28,427.634 1456.64,427.683 
  1477.01,427.744 1497.37,427.818 1517.74,427.908 1538.11,428.018 1558.47,428.153 1578.84,428.318 1599.21,428.52 1619.57,428.766 1639.94,429.067 1660.3,429.435 
  1680.67,429.885 1701.04,430.435 1721.4,431.107 1741.77,431.928 1762.14,432.932 1782.5,434.158 1802.87,435.658 1823.23,437.49 1843.6,439.73 1863.97,442.468 
  1884.33,445.814 1904.7,449.903 1925.07,454.901 1945.43,461.01 1965.8,468.476 1986.16,477.602 2006.53,488.756 2026.9,502.388 2047.26,519.049 2067.63,539.413 
  2087.99,564.302 2108.36,594.723 2128.73,631.903 2149.09,677.346 2169.46,732.887 2189.83,800.77 2210.19,883.739 2230.56,985.145 2250.92,1109.09 2271.29,1260.57 
  2291.66,1445.72 
  "/>
<polyline clip-path="url(#clip922)" style="stroke:#3da44d; stroke-linecap:butt; stroke-linejoin:round; stroke-width:4; stroke-opacity:1; fill:none" points="
  255.035,427.411 275.401,427.411 295.767,427.411 316.133,427.411 336.5,427.411 356.866,427.411 377.232,427.411 397.598,427.411 417.964,427.411 438.331,427.411 
  458.697,427.411 479.063,427.411 499.429,427.411 519.796,427.411 540.162,427.411 560.528,427.411 580.894,427.411 601.261,427.411 621.627,427.411 641.993,427.411 
  662.359,427.411 682.725,427.411 703.092,427.411 723.458,427.411 743.824,427.411 764.19,427.411 784.557,427.411 804.923,427.411 825.289,427.411 845.655,427.411 
  866.021,427.411 886.388,427.411 906.754,427.411 927.12,427.411 947.486,427.411 967.853,427.411 988.219,427.411 1008.59,427.411 1028.95,427.411 1049.32,427.411 
  1069.68,427.411 1090.05,427.411 1110.42,427.411 1130.78,427.411 1151.15,427.411 1171.51,427.411 1191.88,427.411 1212.25,427.411 1232.61,427.411 1252.98,427.411 
  1273.35,427.411 1293.71,427.411 1314.08,427.411 1334.44,427.411 1354.81,427.411 1375.18,427.411 1395.54,427.411 1415.91,427.411 1436.28,427.411 1456.64,427.411 
  1477.01,427.411 1497.37,427.411 1517.74,427.411 1538.11,427.411 1558.47,427.412 1578.84,427.412 1599.21,427.412 1619.57,427.413 1639.94,427.413 1660.3,427.415 
  1680.67,427.416 1701.04,427.419 1721.4,427.423 1741.77,427.429 1762.14,427.438 1782.5,427.451 1802.87,427.472 1823.23,427.502 1843.6,427.547 1863.97,427.615 
  1884.33,427.717 1904.7,427.87 1925.07,428.1 1945.43,428.445 1965.8,428.961 1986.16,429.737 2006.53,430.899 2026.9,432.643 2047.26,435.26 2067.63,439.184 
  2087.99,445.07 2108.36,453.9 2128.73,467.144 2149.09,487.01 2169.46,516.81 2189.83,561.509 2210.19,628.558 2230.56,729.131 2250.92,879.991 2271.29,1106.28 
  2291.66,1445.72 
  "/>
<polyline clip-path="url(#clip922)" style="stroke:#c271d2; stroke-linecap:butt; stroke-linejoin:round; stroke-width:4; stroke-opacity:1; fill:none" points="
  255.035,427.411 275.401,427.411 295.767,427.411 316.133,427.411 336.5,427.411 356.866,427.411 377.232,427.411 397.598,427.411 417.964,427.411 438.331,427.411 
  458.697,427.411 479.063,427.411 499.429,427.411 519.796,427.411 540.162,427.411 560.528,427.411 580.894,427.411 601.261,427.411 621.627,427.411 641.993,427.411 
  662.359,427.411 682.725,427.411 703.092,427.411 723.458,427.411 743.824,427.411 764.19,427.411 784.557,427.411 804.923,427.411 825.289,427.411 845.655,427.411 
  866.021,427.411 886.388,427.411 906.754,427.411 927.12,427.411 947.486,427.411 967.853,427.411 988.219,427.411 1008.59,427.411 1028.95,427.411 1049.32,427.411 
  1069.68,427.411 1090.05,427.411 1110.42,427.411 1130.78,427.411 1151.15,427.411 1171.51,427.411 1191.88,427.411 1212.25,427.411 1232.61,427.411 1252.98,427.411 
  1273.35,427.411 1293.71,427.411 1314.08,427.411 1334.44,427.411 1354.81,427.411 1375.18,427.411 1395.54,427.411 1415.91,427.411 1436.28,427.411 1456.64,427.411 
  1477.01,427.411 1497.37,427.411 1517.74,427.411 1538.11,427.411 1558.47,427.411 1578.84,427.411 1599.21,427.411 1619.57,427.411 1639.94,427.411 1660.3,427.411 
  1680.67,427.411 1701.04,427.411 1721.4,427.411 1741.77,427.411 1762.14,427.411 1782.5,427.411 1802.87,427.411 1823.23,427.411 1843.6,427.411 1863.97,427.411 
  1884.33,427.411 1904.7,427.411 1925.07,427.411 1945.43,427.411 1965.8,427.411 1986.16,427.411 2006.53,427.411 2026.9,427.411 2047.26,427.411 2067.63,427.411 
  2087.99,427.411 2108.36,427.411 2128.73,427.411 2149.09,427.411 2169.46,427.411 2189.83,427.411 2210.19,427.411 2230.56,427.411 2250.92,427.411 2271.29,427.411 
  2291.66,1445.72 
  "/>
<polyline clip-path="url(#clip922)" style="stroke:#ac8d18; stroke-linecap:butt; stroke-linejoin:round; stroke-width:4; stroke-opacity:1; fill:none" points="
  255.035,427.411 275.401,427.411 295.767,427.411 316.133,427.411 336.5,427.411 356.866,427.411 377.232,427.411 397.598,427.411 417.964,427.411 438.331,427.411 
  458.697,427.411 479.063,427.411 499.429,427.411 519.796,427.411 540.162,427.411 560.528,427.411 580.894,427.411 601.261,427.411 621.627,427.411 641.993,427.411 
  662.359,427.411 682.725,427.411 703.092,427.411 723.458,427.411 743.824,427.411 764.19,427.411 784.557,427.411 804.923,427.411 825.289,427.411 845.655,427.411 
  866.021,427.411 886.388,427.411 906.754,427.411 927.12,427.411 947.486,427.411 967.853,427.411 988.219,427.411 1008.59,427.411 1028.95,427.411 1049.32,427.411 
  1069.68,427.411 1090.05,427.411 1110.42,427.411 1130.78,427.411 1151.15,427.411 1171.51,427.411 1191.88,427.411 1212.25,427.411 1232.61,427.411 1252.98,427.411 
  1273.35,427.411 1293.71,427.411 1314.08,427.411 1334.44,427.411 1354.81,427.411 1375.18,427.411 1395.54,427.411 1415.91,427.411 1436.28,427.411 1456.64,427.411 
  1477.01,427.411 1497.37,427.411 1517.74,427.411 1538.11,427.411 1558.47,427.411 1578.84,427.411 1599.21,427.411 1619.57,427.411 1639.94,427.411 1660.3,427.411 
  1680.67,427.411 1701.04,427.411 1721.4,427.411 1741.77,427.411 1762.14,427.411 1782.5,427.411 1802.87,427.411 1823.23,427.411 1843.6,427.411 1863.97,427.411 
  1884.33,427.411 1904.7,427.411 1925.07,427.411 1945.43,427.411 1965.8,427.411 1986.16,427.411 2006.53,427.411 2026.9,427.41 2047.26,427.413 2067.63,427.405 
  2087.99,427.428 2108.36,427.359 2128.73,427.566 2149.09,426.946 2169.46,428.808 2189.83,423.221 2210.19,439.983 2230.56,389.696 2250.92,540.556 2271.29,87.9763 
  2291.66,1445.72 
  "/>
<path clip-path="url(#clip920)" d="
M265.897 1438.47 L703.704 1438.47 L703.704 1127.43 L265.897 1127.43  Z
  " fill="#ffffff" fill-rule="evenodd" fill-opacity="1"/>
<polyline clip-path="url(#clip920)" style="stroke:#000000; stroke-linecap:butt; stroke-linejoin:round; stroke-width:4; stroke-opacity:1; fill:none" points="
  265.897,1438.47 703.704,1438.47 703.704,1127.43 265.897,1127.43 265.897,1438.47 
  "/>
<polyline clip-path="url(#clip920)" style="stroke:#009af9; stroke-linecap:butt; stroke-linejoin:round; stroke-width:4; stroke-opacity:1; fill:none" points="
  289.884,1179.27 433.805,1179.27 
  "/>
<path clip-path="url(#clip920)" d="M471.056 1164.59 L483.023 1196.55 L478.509 1196.55 L471.241 1177.39 L462.306 1196.55 L457.792 1196.55 L469.157 1171.69 L467.444 1167.11 Q466.357 1164.19 463.88 1164.19 L461.657 1164.19 L461.657 1160.54 L464.366 1160.58 Q469.597 1160.65 471.056 1164.59 Z" fill="#000000" fill-rule="evenodd" fill-opacity="1" /><path clip-path="url(#clip920)" d="M489.458 1175.03 L519.134 1175.03 L519.134 1178.92 L489.458 1178.92 L489.458 1175.03 M489.458 1184.47 L519.134 1184.47 L519.134 1188.41 L489.458 1188.41 L489.458 1184.47 Z" fill="#000000" fill-rule="evenodd" fill-opacity="1" /><path clip-path="url(#clip920)" d="M530.037 1192.62 L537.676 1192.62 L537.676 1166.25 L529.365 1167.92 L529.365 1163.66 L537.629 1161.99 L542.305 1161.99 L542.305 1192.62 L549.944 1192.62 L549.944 1196.55 L530.037 1196.55 L530.037 1192.62 Z" fill="#000000" fill-rule="evenodd" fill-opacity="1" /><path clip-path="url(#clip920)" d="M559.388 1190.67 L564.273 1190.67 L564.273 1196.55 L559.388 1196.55 L559.388 1190.67 Z" fill="#000000" fill-rule="evenodd" fill-opacity="1" /><path clip-path="url(#clip920)" d="M584.458 1165.07 Q580.847 1165.07 579.018 1168.64 Q577.212 1172.18 577.212 1179.31 Q577.212 1186.42 579.018 1189.98 Q580.847 1193.52 584.458 1193.52 Q588.092 1193.52 589.898 1189.98 Q591.726 1186.42 591.726 1179.31 Q591.726 1172.18 589.898 1168.64 Q588.092 1165.07 584.458 1165.07 M584.458 1161.37 Q590.268 1161.37 593.323 1165.98 Q596.402 1170.56 596.402 1179.31 Q596.402 1188.04 593.323 1192.64 Q590.268 1197.23 584.458 1197.23 Q578.648 1197.23 575.569 1192.64 Q572.513 1188.04 572.513 1179.31 Q572.513 1170.56 575.569 1165.98 Q578.648 1161.37 584.458 1161.37 Z" fill="#000000" fill-rule="evenodd" fill-opacity="1" /><polyline clip-path="url(#clip920)" style="stroke:#e26f46; stroke-linecap:butt; stroke-linejoin:round; stroke-width:4; stroke-opacity:1; fill:none" points="
  289.884,1231.11 433.805,1231.11 
  "/>
<path clip-path="url(#clip920)" d="M471.056 1216.43 L483.023 1248.39 L478.509 1248.39 L471.241 1229.23 L462.306 1248.39 L457.792 1248.39 L469.157 1223.53 L467.444 1218.95 Q466.357 1216.03 463.88 1216.03 L461.657 1216.03 L461.657 1212.38 L464.366 1212.42 Q469.597 1212.49 471.056 1216.43 Z" fill="#000000" fill-rule="evenodd" fill-opacity="1" /><path clip-path="url(#clip920)" d="M489.458 1226.87 L519.134 1226.87 L519.134 1230.76 L489.458 1230.76 L489.458 1226.87 M489.458 1236.31 L519.134 1236.31 L519.134 1240.25 L489.458 1240.25 L489.458 1236.31 Z" fill="#000000" fill-rule="evenodd" fill-opacity="1" /><path clip-path="url(#clip920)" d="M539.227 1216.91 Q535.615 1216.91 533.787 1220.48 Q531.981 1224.02 531.981 1231.15 Q531.981 1238.26 533.787 1241.82 Q535.615 1245.36 539.227 1245.36 Q542.861 1245.36 544.666 1241.82 Q546.495 1238.26 546.495 1231.15 Q546.495 1224.02 544.666 1220.48 Q542.861 1216.91 539.227 1216.91 M539.227 1213.21 Q545.037 1213.21 548.092 1217.82 Q551.171 1222.4 551.171 1231.15 Q551.171 1239.88 548.092 1244.48 Q545.037 1249.07 539.227 1249.07 Q533.416 1249.07 530.338 1244.48 Q527.282 1239.88 527.282 1231.15 Q527.282 1222.4 530.338 1217.82 Q533.416 1213.21 539.227 1213.21 Z" fill="#000000" fill-rule="evenodd" fill-opacity="1" /><path clip-path="url(#clip920)" d="M559.388 1242.51 L564.273 1242.51 L564.273 1248.39 L559.388 1248.39 L559.388 1242.51 Z" fill="#000000" fill-rule="evenodd" fill-opacity="1" /><path clip-path="url(#clip920)" d="M575.268 1244.46 L582.907 1244.46 L582.907 1218.09 L574.597 1219.76 L574.597 1215.5 L582.861 1213.83 L587.536 1213.83 L587.536 1244.46 L595.175 1244.46 L595.175 1248.39 L575.268 1248.39 L575.268 1244.46 Z" fill="#000000" fill-rule="evenodd" fill-opacity="1" /><polyline clip-path="url(#clip920)" style="stroke:#3da44d; stroke-linecap:butt; stroke-linejoin:round; stroke-width:4; stroke-opacity:1; fill:none" points="
  289.884,1282.95 433.805,1282.95 
  "/>
<path clip-path="url(#clip920)" d="M471.056 1268.27 L483.023 1300.23 L478.509 1300.23 L471.241 1281.07 L462.306 1300.23 L457.792 1300.23 L469.157 1275.37 L467.444 1270.79 Q466.357 1267.87 463.88 1267.87 L461.657 1267.87 L461.657 1264.22 L464.366 1264.26 Q469.597 1264.33 471.056 1268.27 Z" fill="#000000" fill-rule="evenodd" fill-opacity="1" /><path clip-path="url(#clip920)" d="M489.458 1278.71 L519.134 1278.71 L519.134 1282.6 L489.458 1282.6 L489.458 1278.71 M489.458 1288.15 L519.134 1288.15 L519.134 1292.09 L489.458 1292.09 L489.458 1288.15 Z" fill="#000000" fill-rule="evenodd" fill-opacity="1" /><path clip-path="url(#clip920)" d="M539.227 1268.75 Q535.615 1268.75 533.787 1272.32 Q531.981 1275.86 531.981 1282.99 Q531.981 1290.1 533.787 1293.66 Q535.615 1297.2 539.227 1297.2 Q542.861 1297.2 544.666 1293.66 Q546.495 1290.1 546.495 1282.99 Q546.495 1275.86 544.666 1272.32 Q542.861 1268.75 539.227 1268.75 M539.227 1265.05 Q545.037 1265.05 548.092 1269.66 Q551.171 1274.24 551.171 1282.99 Q551.171 1291.72 548.092 1296.32 Q545.037 1300.91 539.227 1300.91 Q533.416 1300.91 530.338 1296.32 Q527.282 1291.72 527.282 1282.99 Q527.282 1274.24 530.338 1269.66 Q533.416 1265.05 539.227 1265.05 Z" fill="#000000" fill-rule="evenodd" fill-opacity="1" /><path clip-path="url(#clip920)" d="M559.388 1294.35 L564.273 1294.35 L564.273 1300.23 L559.388 1300.23 L559.388 1294.35 Z" fill="#000000" fill-rule="evenodd" fill-opacity="1" /><path clip-path="url(#clip920)" d="M584.458 1268.75 Q580.847 1268.75 579.018 1272.32 Q577.212 1275.86 577.212 1282.99 Q577.212 1290.1 579.018 1293.66 Q580.847 1297.2 584.458 1297.2 Q588.092 1297.2 589.898 1293.66 Q591.726 1290.1 591.726 1282.99 Q591.726 1275.86 589.898 1272.32 Q588.092 1268.75 584.458 1268.75 M584.458 1265.05 Q590.268 1265.05 593.323 1269.66 Q596.402 1274.24 596.402 1282.99 Q596.402 1291.72 593.323 1296.32 Q590.268 1300.91 584.458 1300.91 Q578.648 1300.91 575.569 1296.32 Q572.513 1291.72 572.513 1282.99 Q572.513 1274.24 575.569 1269.66 Q578.648 1265.05 584.458 1265.05 Z" fill="#000000" fill-rule="evenodd" fill-opacity="1" /><path clip-path="url(#clip920)" d="M604.666 1265.67 L623.022 1265.67 L623.022 1269.61 L608.948 1269.61 L608.948 1278.08 Q609.967 1277.73 610.985 1277.57 Q612.004 1277.39 613.022 1277.39 Q618.809 1277.39 622.189 1280.56 Q625.569 1283.73 625.569 1289.15 Q625.569 1294.73 622.096 1297.83 Q618.624 1300.91 612.305 1300.91 Q610.129 1300.91 607.86 1300.54 Q605.615 1300.16 603.208 1299.42 L603.208 1294.73 Q605.291 1295.86 607.513 1296.41 Q609.735 1296.97 612.212 1296.97 Q616.217 1296.97 618.555 1294.86 Q620.893 1292.76 620.893 1289.15 Q620.893 1285.54 618.555 1283.43 Q616.217 1281.32 612.212 1281.32 Q610.337 1281.32 608.462 1281.74 Q606.61 1282.16 604.666 1283.04 L604.666 1265.67 Z" fill="#000000" fill-rule="evenodd" fill-opacity="1" /><polyline clip-path="url(#clip920)" style="stroke:#c271d2; stroke-linecap:butt; stroke-linejoin:round; stroke-width:4; stroke-opacity:1; fill:none" points="
  289.884,1334.79 433.805,1334.79 
  "/>
<path clip-path="url(#clip920)" d="M471.056 1320.11 L483.023 1352.07 L478.509 1352.07 L471.241 1332.91 L462.306 1352.07 L457.792 1352.07 L469.157 1327.21 L467.444 1322.63 Q466.357 1319.71 463.88 1319.71 L461.657 1319.71 L461.657 1316.06 L464.366 1316.1 Q469.597 1316.17 471.056 1320.11 Z" fill="#000000" fill-rule="evenodd" fill-opacity="1" /><path clip-path="url(#clip920)" d="M489.458 1330.55 L519.134 1330.55 L519.134 1334.44 L489.458 1334.44 L489.458 1330.55 M489.458 1339.99 L519.134 1339.99 L519.134 1343.93 L489.458 1343.93 L489.458 1339.99 Z" fill="#000000" fill-rule="evenodd" fill-opacity="1" /><path clip-path="url(#clip920)" d="M539.227 1320.59 Q535.615 1320.59 533.787 1324.16 Q531.981 1327.7 531.981 1334.83 Q531.981 1341.94 533.787 1345.5 Q535.615 1349.04 539.227 1349.04 Q542.861 1349.04 544.666 1345.5 Q546.495 1341.94 546.495 1334.83 Q546.495 1327.7 544.666 1324.16 Q542.861 1320.59 539.227 1320.59 M539.227 1316.89 Q545.037 1316.89 548.092 1321.5 Q551.171 1326.08 551.171 1334.83 Q551.171 1343.56 548.092 1348.16 Q545.037 1352.75 539.227 1352.75 Q533.416 1352.75 530.338 1348.16 Q527.282 1343.56 527.282 1334.83 Q527.282 1326.08 530.338 1321.5 Q533.416 1316.89 539.227 1316.89 Z" fill="#000000" fill-rule="evenodd" fill-opacity="1" /><path clip-path="url(#clip920)" d="M559.388 1346.19 L564.273 1346.19 L564.273 1352.07 L559.388 1352.07 L559.388 1346.19 Z" fill="#000000" fill-rule="evenodd" fill-opacity="1" /><path clip-path="url(#clip920)" d="M584.458 1320.59 Q580.847 1320.59 579.018 1324.16 Q577.212 1327.7 577.212 1334.83 Q577.212 1341.94 579.018 1345.5 Q580.847 1349.04 584.458 1349.04 Q588.092 1349.04 589.898 1345.5 Q591.726 1341.94 591.726 1334.83 Q591.726 1327.7 589.898 1324.16 Q588.092 1320.59 584.458 1320.59 M584.458 1316.89 Q590.268 1316.89 593.323 1321.5 Q596.402 1326.08 596.402 1334.83 Q596.402 1343.56 593.323 1348.16 Q590.268 1352.75 584.458 1352.75 Q578.648 1352.75 575.569 1348.16 Q572.513 1343.56 572.513 1334.83 Q572.513 1326.08 575.569 1321.5 Q578.648 1316.89 584.458 1316.89 Z" fill="#000000" fill-rule="evenodd" fill-opacity="1" /><path clip-path="url(#clip920)" d="M605.43 1348.14 L613.069 1348.14 L613.069 1321.77 L604.759 1323.44 L604.759 1319.18 L613.022 1317.51 L617.698 1317.51 L617.698 1348.14 L625.337 1348.14 L625.337 1352.07 L605.43 1352.07 L605.43 1348.14 Z" fill="#000000" fill-rule="evenodd" fill-opacity="1" /><polyline clip-path="url(#clip920)" style="stroke:#ac8d18; stroke-linecap:butt; stroke-linejoin:round; stroke-width:4; stroke-opacity:1; fill:none" points="
  289.884,1386.63 433.805,1386.63 
  "/>
<path clip-path="url(#clip920)" d="M471.056 1371.95 L483.023 1403.91 L478.509 1403.91 L471.241 1384.75 L462.306 1403.91 L457.792 1403.91 L469.157 1379.05 L467.444 1374.47 Q466.357 1371.55 463.88 1371.55 L461.657 1371.55 L461.657 1367.9 L464.366 1367.94 Q469.597 1368.01 471.056 1371.95 Z" fill="#000000" fill-rule="evenodd" fill-opacity="1" /><path clip-path="url(#clip920)" d="M489.458 1382.39 L519.134 1382.39 L519.134 1386.28 L489.458 1386.28 L489.458 1382.39 M489.458 1391.83 L519.134 1391.83 L519.134 1395.77 L489.458 1395.77 L489.458 1391.83 Z" fill="#000000" fill-rule="evenodd" fill-opacity="1" /><path clip-path="url(#clip920)" d="M539.227 1372.43 Q535.615 1372.43 533.787 1376 Q531.981 1379.54 531.981 1386.67 Q531.981 1393.78 533.787 1397.34 Q535.615 1400.88 539.227 1400.88 Q542.861 1400.88 544.666 1397.34 Q546.495 1393.78 546.495 1386.67 Q546.495 1379.54 544.666 1376 Q542.861 1372.43 539.227 1372.43 M539.227 1368.73 Q545.037 1368.73 548.092 1373.34 Q551.171 1377.92 551.171 1386.67 Q551.171 1395.4 548.092 1400 Q545.037 1404.59 539.227 1404.59 Q533.416 1404.59 530.338 1400 Q527.282 1395.4 527.282 1386.67 Q527.282 1377.92 530.338 1373.34 Q533.416 1368.73 539.227 1368.73 Z" fill="#000000" fill-rule="evenodd" fill-opacity="1" /><path clip-path="url(#clip920)" d="M559.388 1398.03 L564.273 1398.03 L564.273 1403.91 L559.388 1403.91 L559.388 1398.03 Z" fill="#000000" fill-rule="evenodd" fill-opacity="1" /><path clip-path="url(#clip920)" d="M584.458 1372.43 Q580.847 1372.43 579.018 1376 Q577.212 1379.54 577.212 1386.67 Q577.212 1393.78 579.018 1397.34 Q580.847 1400.88 584.458 1400.88 Q588.092 1400.88 589.898 1397.34 Q591.726 1393.78 591.726 1386.67 Q591.726 1379.54 589.898 1376 Q588.092 1372.43 584.458 1372.43 M584.458 1368.73 Q590.268 1368.73 593.323 1373.34 Q596.402 1377.92 596.402 1386.67 Q596.402 1395.4 593.323 1400 Q590.268 1404.59 584.458 1404.59 Q578.648 1404.59 575.569 1400 Q572.513 1395.4 572.513 1386.67 Q572.513 1377.92 575.569 1373.34 Q578.648 1368.73 584.458 1368.73 Z" fill="#000000" fill-rule="evenodd" fill-opacity="1" /><path clip-path="url(#clip920)" d="M614.62 1372.43 Q611.009 1372.43 609.18 1376 Q607.374 1379.54 607.374 1386.67 Q607.374 1393.78 609.18 1397.34 Q611.009 1400.88 614.62 1400.88 Q618.254 1400.88 620.059 1397.34 Q621.888 1393.78 621.888 1386.67 Q621.888 1379.54 620.059 1376 Q618.254 1372.43 614.62 1372.43 M614.62 1368.73 Q620.43 1368.73 623.485 1373.34 Q626.564 1377.92 626.564 1386.67 Q626.564 1395.4 623.485 1400 Q620.43 1404.59 614.62 1404.59 Q608.809 1404.59 605.731 1400 Q602.675 1395.4 602.675 1386.67 Q602.675 1377.92 605.731 1373.34 Q608.809 1368.73 614.62 1368.73 Z" fill="#000000" fill-rule="evenodd" fill-opacity="1" /><path clip-path="url(#clip920)" d="M634.828 1369.35 L653.184 1369.35 L653.184 1373.29 L639.11 1373.29 L639.11 1381.76 Q640.129 1381.41 641.147 1381.25 Q642.166 1381.07 643.184 1381.07 Q648.971 1381.07 652.351 1384.24 Q655.731 1387.41 655.731 1392.83 Q655.731 1398.41 652.258 1401.51 Q648.786 1404.59 642.467 1404.59 Q640.291 1404.59 638.022 1404.22 Q635.777 1403.84 633.37 1403.1 L633.37 1398.41 Q635.453 1399.54 637.675 1400.09 Q639.897 1400.65 642.374 1400.65 Q646.379 1400.65 648.717 1398.54 Q651.055 1396.44 651.055 1392.83 Q651.055 1389.22 648.717 1387.11 Q646.379 1385 642.374 1385 Q640.499 1385 638.624 1385.42 Q636.772 1385.84 634.828 1386.72 L634.828 1369.35 Z" fill="#000000" fill-rule="evenodd" fill-opacity="1" /></svg>
