<?xml version="1.0" encoding="utf-8"?>
<svg xmlns="http://www.w3.org/2000/svg" xmlns:xlink="http://www.w3.org/1999/xlink" width="600" height="400" viewBox="0 0 2400 1600">
<defs>
  <clipPath id="clip120">
    <rect x="0" y="0" width="2400" height="1600"/>
  </clipPath>
</defs>
<path clip-path="url(#clip120)" d="
M0 1600 L2400 1600 L2400 0 L0 0  Z
  " fill="#ffffff" fill-rule="evenodd" fill-opacity="1"/>
<defs>
  <clipPath id="clip121">
    <rect x="480" y="0" width="1681" height="1600"/>
  </clipPath>
</defs>
<path clip-path="url(#clip120)" d="
M180.66 1487.47 L2352.76 1487.47 L2352.76 47.2441 L180.66 47.2441  Z
  " fill="#ffffff" fill-rule="evenodd" fill-opacity="1"/>
<defs>
  <clipPath id="clip122">
    <rect x="180" y="47" width="2173" height="1441"/>
  </clipPath>
</defs>
<polyline clip-path="url(#clip122)" style="stroke:#000000; stroke-linecap:butt; stroke-linejoin:round; stroke-width:2; stroke-opacity:0.1; fill:none" points="
  242.135,1487.47 242.135,47.2441 
  "/>
<polyline clip-path="url(#clip122)" style="stroke:#000000; stroke-linecap:butt; stroke-linejoin:round; stroke-width:2; stroke-opacity:0.1; fill:none" points="
  754.421,1487.47 754.421,47.2441 
  "/>
<polyline clip-path="url(#clip122)" style="stroke:#000000; stroke-linecap:butt; stroke-linejoin:round; stroke-width:2; stroke-opacity:0.1; fill:none" points="
  1266.71,1487.47 1266.71,47.2441 
  "/>
<polyline clip-path="url(#clip122)" style="stroke:#000000; stroke-linecap:butt; stroke-linejoin:round; stroke-width:2; stroke-opacity:0.1; fill:none" points="
  1778.99,1487.47 1778.99,47.2441 
  "/>
<polyline clip-path="url(#clip122)" style="stroke:#000000; stroke-linecap:butt; stroke-linejoin:round; stroke-width:2; stroke-opacity:0.1; fill:none" points="
  2291.28,1487.47 2291.28,47.2441 
  "/>
<polyline clip-path="url(#clip120)" style="stroke:#000000; stroke-linecap:butt; stroke-linejoin:round; stroke-width:4; stroke-opacity:1; fill:none" points="
  180.66,1487.47 2352.76,1487.47 
  "/>
<polyline clip-path="url(#clip120)" style="stroke:#000000; stroke-linecap:butt; stroke-linejoin:round; stroke-width:4; stroke-opacity:1; fill:none" points="
  242.135,1487.47 242.135,1468.58 
  "/>
<polyline clip-path="url(#clip120)" style="stroke:#000000; stroke-linecap:butt; stroke-linejoin:round; stroke-width:4; stroke-opacity:1; fill:none" points="
  754.421,1487.47 754.421,1468.58 
  "/>
<polyline clip-path="url(#clip120)" style="stroke:#000000; stroke-linecap:butt; stroke-linejoin:round; stroke-width:4; stroke-opacity:1; fill:none" points="
  1266.71,1487.47 1266.71,1468.58 
  "/>
<polyline clip-path="url(#clip120)" style="stroke:#000000; stroke-linecap:butt; stroke-linejoin:round; stroke-width:4; stroke-opacity:1; fill:none" points="
  1778.99,1487.47 1778.99,1468.58 
  "/>
<polyline clip-path="url(#clip120)" style="stroke:#000000; stroke-linecap:butt; stroke-linejoin:round; stroke-width:4; stroke-opacity:1; fill:none" points="
  2291.28,1487.47 2291.28,1468.58 
  "/>
<g clip-path="url(#clip120)">
<text style="fill:#000000; fill-opacity:1; font-family:Arial,Helvetica Neue,Helvetica,sans-serif; font-size:48px; text-anchor:middle;" transform="rotate(0, 242.135, 1549.32)" x="242.135" y="1549.32">0.00</text>
</g>
<g clip-path="url(#clip120)">
<text style="fill:#000000; fill-opacity:1; font-family:Arial,Helvetica Neue,Helvetica,sans-serif; font-size:48px; text-anchor:middle;" transform="rotate(0, 754.421, 1549.32)" x="754.421" y="1549.32">0.25</text>
</g>
<g clip-path="url(#clip120)">
<text style="fill:#000000; fill-opacity:1; font-family:Arial,Helvetica Neue,Helvetica,sans-serif; font-size:48px; text-anchor:middle;" transform="rotate(0, 1266.71, 1549.32)" x="1266.71" y="1549.32">0.50</text>
</g>
<g clip-path="url(#clip120)">
<text style="fill:#000000; fill-opacity:1; font-family:Arial,Helvetica Neue,Helvetica,sans-serif; font-size:48px; text-anchor:middle;" transform="rotate(0, 1778.99, 1549.32)" x="1778.99" y="1549.32">0.75</text>
</g>
<g clip-path="url(#clip120)">
<text style="fill:#000000; fill-opacity:1; font-family:Arial,Helvetica Neue,Helvetica,sans-serif; font-size:48px; text-anchor:middle;" transform="rotate(0, 2291.28, 1549.32)" x="2291.28" y="1549.32">1.00</text>
</g>
<polyline clip-path="url(#clip122)" style="stroke:#000000; stroke-linecap:butt; stroke-linejoin:round; stroke-width:2; stroke-opacity:0.1; fill:none" points="
  180.66,1446.71 2352.76,1446.71 
  "/>
<polyline clip-path="url(#clip122)" style="stroke:#000000; stroke-linecap:butt; stroke-linejoin:round; stroke-width:2; stroke-opacity:0.1; fill:none" points="
  180.66,1107.04 2352.76,1107.04 
  "/>
<polyline clip-path="url(#clip122)" style="stroke:#000000; stroke-linecap:butt; stroke-linejoin:round; stroke-width:2; stroke-opacity:0.1; fill:none" points="
  180.66,767.359 2352.76,767.359 
  "/>
<polyline clip-path="url(#clip122)" style="stroke:#000000; stroke-linecap:butt; stroke-linejoin:round; stroke-width:2; stroke-opacity:0.1; fill:none" points="
  180.66,427.682 2352.76,427.682 
  "/>
<polyline clip-path="url(#clip122)" style="stroke:#000000; stroke-linecap:butt; stroke-linejoin:round; stroke-width:2; stroke-opacity:0.1; fill:none" points="
  180.66,88.0053 2352.76,88.0053 
  "/>
<polyline clip-path="url(#clip120)" style="stroke:#000000; stroke-linecap:butt; stroke-linejoin:round; stroke-width:4; stroke-opacity:1; fill:none" points="
  180.66,1487.47 180.66,47.2441 
  "/>
<polyline clip-path="url(#clip120)" style="stroke:#000000; stroke-linecap:butt; stroke-linejoin:round; stroke-width:4; stroke-opacity:1; fill:none" points="
  180.66,1446.71 199.558,1446.71 
  "/>
<polyline clip-path="url(#clip120)" style="stroke:#000000; stroke-linecap:butt; stroke-linejoin:round; stroke-width:4; stroke-opacity:1; fill:none" points="
  180.66,1107.04 199.558,1107.04 
  "/>
<polyline clip-path="url(#clip120)" style="stroke:#000000; stroke-linecap:butt; stroke-linejoin:round; stroke-width:4; stroke-opacity:1; fill:none" points="
  180.66,767.359 199.558,767.359 
  "/>
<polyline clip-path="url(#clip120)" style="stroke:#000000; stroke-linecap:butt; stroke-linejoin:round; stroke-width:4; stroke-opacity:1; fill:none" points="
  180.66,427.682 199.558,427.682 
  "/>
<polyline clip-path="url(#clip120)" style="stroke:#000000; stroke-linecap:butt; stroke-linejoin:round; stroke-width:4; stroke-opacity:1; fill:none" points="
  180.66,88.0053 199.558,88.0053 
  "/>
<g clip-path="url(#clip120)">
<text style="fill:#000000; fill-opacity:1; font-family:Arial,Helvetica Neue,Helvetica,sans-serif; font-size:48px; text-anchor:middle;" transform="rotate(0, 97.8262, 1464.21)" x="97.8262" y="1464.21">−1.0</text>
</g>
<g clip-path="url(#clip120)">
<text style="fill:#000000; fill-opacity:1; font-family:Arial,Helvetica Neue,Helvetica,sans-serif; font-size:48px; text-anchor:middle;" transform="rotate(0, 97.8262, 1124.54)" x="97.8262" y="1124.54">−0.5</text>
</g>
<g clip-path="url(#clip120)">
<text style="fill:#000000; fill-opacity:1; font-family:Arial,Helvetica Neue,Helvetica,sans-serif; font-size:48px; text-anchor:middle;" transform="rotate(0, 111.207, 784.859)" x="111.207" y="784.859">0.0</text>
</g>
<g clip-path="url(#clip120)">
<text style="fill:#000000; fill-opacity:1; font-family:Arial,Helvetica Neue,Helvetica,sans-serif; font-size:48px; text-anchor:middle;" transform="rotate(0, 111.207, 445.182)" x="111.207" y="445.182">0.5</text>
</g>
<g clip-path="url(#clip120)">
<text style="fill:#000000; fill-opacity:1; font-family:Arial,Helvetica Neue,Helvetica,sans-serif; font-size:48px; text-anchor:middle;" transform="rotate(0, 111.207, 105.505)" x="111.207" y="105.505">1.0</text>
</g>
<polyline clip-path="url(#clip122)" style="stroke:#009af9; stroke-linecap:butt; stroke-linejoin:round; stroke-width:8; stroke-opacity:1; fill:none" points="
  242.135,1446.71 252.38,1427.94 262.626,1409.16 272.872,1390.36 283.118,1371.55 293.363,1352.73 303.609,1333.88 313.855,1315.01 324.101,1296.12 334.346,1277.21 
  344.592,1258.27 354.838,1239.31 365.084,1220.33 375.329,1201.34 385.575,1182.34 395.821,1163.32 406.066,1144.31 416.312,1125.29 426.558,1106.28 436.804,1087.28 
  447.049,1068.31 457.295,1049.35 467.541,1030.44 477.787,1011.56 488.032,992.732 498.278,973.962 508.524,955.257 518.77,936.626 529.015,918.079 539.261,899.623 
  549.507,881.269 559.752,863.024 569.998,844.899 580.244,826.902 590.49,809.043 600.735,791.33 610.981,773.772 621.227,756.379 631.473,739.159 641.718,722.121 
  651.964,705.272 662.21,688.621 672.456,672.176 682.701,655.944 692.947,639.932 703.193,624.149 713.438,608.599 723.684,593.291 733.93,578.229 744.176,563.419 
  754.421,548.867 764.667,534.578 774.913,520.556 785.159,506.806 795.404,493.331 805.65,480.135 815.896,467.22 826.142,454.591 836.387,442.248 846.633,430.195 
  856.879,418.432 867.124,406.962 877.37,395.784 887.616,384.9 897.862,374.31 908.107,364.014 918.353,354.012 928.599,344.302 938.845,334.885 949.09,325.758 
  959.336,316.921 969.582,308.372 979.828,300.108 990.073,292.129 1000.32,284.43 1010.56,277.011 1020.81,269.867 1031.06,262.996 1041.3,256.395 1051.55,250.061 
  1061.79,243.99 1072.04,238.178 1082.28,232.622 1092.53,227.318 1102.78,222.262 1113.02,217.45 1123.27,212.878 1133.51,208.541 1143.76,204.436 1154.01,200.557 
  1164.25,196.9 1174.5,193.462 1184.74,190.236 1194.99,187.219 1205.23,184.406 1215.48,181.792 1225.73,179.372 1235.97,177.142 1246.22,175.096 1256.46,173.23 
  1266.71,171.539 1276.95,170.018 1287.2,168.662 1297.45,167.467 1307.69,166.426 1317.94,165.536 1328.18,164.791 1338.43,164.187 1348.67,163.718 1358.92,163.38 
  1369.17,163.166 1379.41,163.074 1389.66,163.097 1399.9,163.23 1410.15,163.469 1420.39,163.809 1430.64,164.244 1440.89,164.771 1451.13,165.382 1461.38,166.075 
  1471.62,166.844 1481.87,167.683 1492.11,168.589 1502.36,169.556 1512.61,170.579 1522.85,171.654 1533.1,172.775 1543.34,173.938 1553.59,175.137 1563.83,176.369 
  1574.08,177.628 1584.33,178.909 1594.57,180.208 1604.82,181.52 1615.06,182.841 1625.31,184.164 1635.55,185.487 1645.8,186.804 1656.05,188.11 1666.29,189.401 
  1676.54,190.673 1686.78,191.92 1697.03,193.139 1707.27,194.325 1717.52,195.474 1727.77,196.58 1738.01,197.641 1748.26,198.65 1758.5,199.605 1768.75,200.501 
  1778.99,201.334 1789.24,202.1 1799.49,202.794 1809.73,203.413 1819.98,203.953 1830.22,204.41 1840.47,204.779 1850.71,205.058 1860.96,205.243 1871.21,205.329 
  1881.45,205.313 1891.7,205.193 1901.94,204.963 1912.19,204.622 1922.44,204.165 1932.68,203.589 1942.93,202.892 1953.17,202.069 1963.42,201.119 1973.66,200.037 
  1983.91,198.822 1994.16,197.469 2004.4,195.978 2014.65,194.343 2024.89,192.565 2035.14,190.638 2045.38,188.562 2055.63,186.333 2065.88,183.949 2076.12,181.408 
  2086.37,178.708 2096.61,175.846 2106.86,172.82 2117.1,169.629 2127.35,166.269 2137.6,162.738 2147.84,159.036 2158.09,155.16 2168.33,151.107 2178.58,146.876 
  2188.82,142.465 2199.07,137.872 2209.32,133.094 2219.56,128.131 2229.81,122.98 2240.05,117.639 2250.3,112.105 2260.54,106.377 2270.79,100.453 2281.04,94.3296 
  2291.28,88.0053 
  "/>
<path clip-path="url(#clip120)" d="
M1890.47 1439.47 L2280.35 1439.47 L2280.35 1338.87 L1890.47 1338.87  Z
  " fill="#ffffff" fill-rule="evenodd" fill-opacity="1"/>
<polyline clip-path="url(#clip120)" style="stroke:#000000; stroke-linecap:butt; stroke-linejoin:round; stroke-width:4; stroke-opacity:1; fill:none" points="
  1890.47,1439.47 2280.35,1439.47 2280.35,1338.87 1890.47,1338.87 1890.47,1439.47 
  "/>
<polyline clip-path="url(#clip120)" style="stroke:#009af9; stroke-linecap:butt; stroke-linejoin:round; stroke-width:4; stroke-opacity:1; fill:none" points="
  1914.6,1389.17 2059.41,1389.17 
  "/>
<g clip-path="url(#clip120)">
<text style="fill:#000000; fill-opacity:1; font-family:Arial,Helvetica Neue,Helvetica,sans-serif; font-size:48px; text-anchor:start;" transform="rotate(0, 2083.54, 1406.67)" x="2083.54" y="1406.67">λ=0.08</text>
</g>
</svg>
