<?xml version="1.0" encoding="utf-8"?>
<svg xmlns="http://www.w3.org/2000/svg" xmlns:xlink="http://www.w3.org/1999/xlink" width="600" height="400" viewBox="0 0 2400 1600">
<defs>
  <clipPath id="clip840">
    <rect x="0" y="0" width="2400" height="1600"/>
  </clipPath>
</defs>
<path clip-path="url(#clip840)" d="
M0 1600 L2400 1600 L2400 0 L0 0  Z
  " fill="#ffffff" fill-rule="evenodd" fill-opacity="1"/>
<defs>
  <clipPath id="clip841">
    <rect x="480" y="0" width="1681" height="1600"/>
  </clipPath>
</defs>
<path clip-path="url(#clip840)" d="
M193.936 1486.45 L2352.76 1486.45 L2352.76 47.2441 L193.936 47.2441  Z
  " fill="#ffffff" fill-rule="evenodd" fill-opacity="1"/>
<defs>
  <clipPath id="clip842">
    <rect x="193" y="47" width="2160" height="1440"/>
  </clipPath>
</defs>
<polyline clip-path="url(#clip842)" style="stroke:#000000; stroke-linecap:butt; stroke-linejoin:round; stroke-width:2; stroke-opacity:0.1; fill:none" points="
  255.035,1486.45 255.035,47.2441 
  "/>
<polyline clip-path="url(#clip842)" style="stroke:#000000; stroke-linecap:butt; stroke-linejoin:round; stroke-width:2; stroke-opacity:0.1; fill:none" points="
  764.19,1486.45 764.19,47.2441 
  "/>
<polyline clip-path="url(#clip842)" style="stroke:#000000; stroke-linecap:butt; stroke-linejoin:round; stroke-width:2; stroke-opacity:0.1; fill:none" points="
  1273.35,1486.45 1273.35,47.2441 
  "/>
<polyline clip-path="url(#clip842)" style="stroke:#000000; stroke-linecap:butt; stroke-linejoin:round; stroke-width:2; stroke-opacity:0.1; fill:none" points="
  1782.5,1486.45 1782.5,47.2441 
  "/>
<polyline clip-path="url(#clip842)" style="stroke:#000000; stroke-linecap:butt; stroke-linejoin:round; stroke-width:2; stroke-opacity:0.1; fill:none" points="
  2291.66,1486.45 2291.66,47.2441 
  "/>
<polyline clip-path="url(#clip840)" style="stroke:#000000; stroke-linecap:butt; stroke-linejoin:round; stroke-width:4; stroke-opacity:1; fill:none" points="
  193.936,1486.45 2352.76,1486.45 
  "/>
<polyline clip-path="url(#clip840)" style="stroke:#000000; stroke-linecap:butt; stroke-linejoin:round; stroke-width:4; stroke-opacity:1; fill:none" points="
  255.035,1486.45 255.035,1467.55 
  "/>
<polyline clip-path="url(#clip840)" style="stroke:#000000; stroke-linecap:butt; stroke-linejoin:round; stroke-width:4; stroke-opacity:1; fill:none" points="
  764.19,1486.45 764.19,1467.55 
  "/>
<polyline clip-path="url(#clip840)" style="stroke:#000000; stroke-linecap:butt; stroke-linejoin:round; stroke-width:4; stroke-opacity:1; fill:none" points="
  1273.35,1486.45 1273.35,1467.55 
  "/>
<polyline clip-path="url(#clip840)" style="stroke:#000000; stroke-linecap:butt; stroke-linejoin:round; stroke-width:4; stroke-opacity:1; fill:none" points="
  1782.5,1486.45 1782.5,1467.55 
  "/>
<polyline clip-path="url(#clip840)" style="stroke:#000000; stroke-linecap:butt; stroke-linejoin:round; stroke-width:4; stroke-opacity:1; fill:none" points="
  2291.66,1486.45 2291.66,1467.55 
  "/>
<path clip-path="url(#clip840)" d="M217.338 1517.37 Q213.727 1517.37 211.898 1520.93 Q210.093 1524.47 210.093 1531.6 Q210.093 1538.71 211.898 1542.27 Q213.727 1545.82 217.338 1545.82 Q220.972 1545.82 222.778 1542.27 Q224.607 1538.71 224.607 1531.6 Q224.607 1524.47 222.778 1520.93 Q220.972 1517.37 217.338 1517.37 M217.338 1513.66 Q223.148 1513.66 226.204 1518.27 Q229.282 1522.85 229.282 1531.6 Q229.282 1540.33 226.204 1544.94 Q223.148 1549.52 217.338 1549.52 Q211.528 1549.52 208.449 1544.94 Q205.394 1540.33 205.394 1531.6 Q205.394 1522.85 208.449 1518.27 Q211.528 1513.66 217.338 1513.66 Z" fill="#000000" fill-rule="evenodd" fill-opacity="1" /><path clip-path="url(#clip840)" d="M237.5 1542.97 L242.384 1542.97 L242.384 1548.85 L237.5 1548.85 L237.5 1542.97 Z" fill="#000000" fill-rule="evenodd" fill-opacity="1" /><path clip-path="url(#clip840)" d="M262.569 1517.37 Q258.958 1517.37 257.13 1520.93 Q255.324 1524.47 255.324 1531.6 Q255.324 1538.71 257.13 1542.27 Q258.958 1545.82 262.569 1545.82 Q266.204 1545.82 268.009 1542.27 Q269.838 1538.71 269.838 1531.6 Q269.838 1524.47 268.009 1520.93 Q266.204 1517.37 262.569 1517.37 M262.569 1513.66 Q268.38 1513.66 271.435 1518.27 Q274.514 1522.85 274.514 1531.6 Q274.514 1540.33 271.435 1544.94 Q268.38 1549.52 262.569 1549.52 Q256.759 1549.52 253.681 1544.94 Q250.625 1540.33 250.625 1531.6 Q250.625 1522.85 253.681 1518.27 Q256.759 1513.66 262.569 1513.66 Z" fill="#000000" fill-rule="evenodd" fill-opacity="1" /><path clip-path="url(#clip840)" d="M292.731 1517.37 Q289.12 1517.37 287.291 1520.93 Q285.486 1524.47 285.486 1531.6 Q285.486 1538.71 287.291 1542.27 Q289.12 1545.82 292.731 1545.82 Q296.365 1545.82 298.171 1542.27 Q300 1538.71 300 1531.6 Q300 1524.47 298.171 1520.93 Q296.365 1517.37 292.731 1517.37 M292.731 1513.66 Q298.541 1513.66 301.597 1518.27 Q304.676 1522.85 304.676 1531.6 Q304.676 1540.33 301.597 1544.94 Q298.541 1549.52 292.731 1549.52 Q286.921 1549.52 283.842 1544.94 Q280.787 1540.33 280.787 1531.6 Q280.787 1522.85 283.842 1518.27 Q286.921 1513.66 292.731 1513.66 Z" fill="#000000" fill-rule="evenodd" fill-opacity="1" /><path clip-path="url(#clip840)" d="M726.991 1517.37 Q723.38 1517.37 721.552 1520.93 Q719.746 1524.47 719.746 1531.6 Q719.746 1538.71 721.552 1542.27 Q723.38 1545.82 726.991 1545.82 Q730.626 1545.82 732.431 1542.27 Q734.26 1538.71 734.26 1531.6 Q734.26 1524.47 732.431 1520.93 Q730.626 1517.37 726.991 1517.37 M726.991 1513.66 Q732.802 1513.66 735.857 1518.27 Q738.936 1522.85 738.936 1531.6 Q738.936 1540.33 735.857 1544.94 Q732.802 1549.52 726.991 1549.52 Q721.181 1549.52 718.103 1544.94 Q715.047 1540.33 715.047 1531.6 Q715.047 1522.85 718.103 1518.27 Q721.181 1513.66 726.991 1513.66 Z" fill="#000000" fill-rule="evenodd" fill-opacity="1" /><path clip-path="url(#clip840)" d="M747.153 1542.97 L752.038 1542.97 L752.038 1548.85 L747.153 1548.85 L747.153 1542.97 Z" fill="#000000" fill-rule="evenodd" fill-opacity="1" /><path clip-path="url(#clip840)" d="M766.25 1544.91 L782.57 1544.91 L782.57 1548.85 L760.626 1548.85 L760.626 1544.91 Q763.288 1542.16 767.871 1537.53 Q772.477 1532.88 773.658 1531.53 Q775.903 1529.01 776.783 1527.27 Q777.686 1525.51 777.686 1523.82 Q777.686 1521.07 775.741 1519.33 Q773.82 1517.6 770.718 1517.6 Q768.519 1517.6 766.065 1518.36 Q763.635 1519.13 760.857 1520.68 L760.857 1515.95 Q763.681 1514.82 766.135 1514.24 Q768.588 1513.66 770.625 1513.66 Q775.996 1513.66 779.19 1516.35 Q782.385 1519.03 782.385 1523.52 Q782.385 1525.65 781.574 1527.57 Q780.787 1529.47 778.681 1532.07 Q778.102 1532.74 775 1535.95 Q771.899 1539.15 766.25 1544.91 Z" fill="#000000" fill-rule="evenodd" fill-opacity="1" /><path clip-path="url(#clip840)" d="M792.431 1514.29 L810.787 1514.29 L810.787 1518.22 L796.713 1518.22 L796.713 1526.7 Q797.732 1526.35 798.75 1526.19 Q799.769 1526 800.787 1526 Q806.574 1526 809.954 1529.17 Q813.334 1532.34 813.334 1537.76 Q813.334 1543.34 809.861 1546.44 Q806.389 1549.52 800.07 1549.52 Q797.894 1549.52 795.625 1549.15 Q793.38 1548.78 790.973 1548.04 L790.973 1543.34 Q793.056 1544.47 795.278 1545.03 Q797.5 1545.58 799.977 1545.58 Q803.982 1545.58 806.32 1543.48 Q808.658 1541.37 808.658 1537.76 Q808.658 1534.15 806.32 1532.04 Q803.982 1529.94 799.977 1529.94 Q798.102 1529.94 796.227 1530.35 Q794.375 1530.77 792.431 1531.65 L792.431 1514.29 Z" fill="#000000" fill-rule="evenodd" fill-opacity="1" /><path clip-path="url(#clip840)" d="M1235.65 1517.37 Q1232.04 1517.37 1230.21 1520.93 Q1228.4 1524.47 1228.4 1531.6 Q1228.4 1538.71 1230.21 1542.27 Q1232.04 1545.82 1235.65 1545.82 Q1239.28 1545.82 1241.09 1542.27 Q1242.92 1538.71 1242.92 1531.6 Q1242.92 1524.47 1241.09 1520.93 Q1239.28 1517.37 1235.65 1517.37 M1235.65 1513.66 Q1241.46 1513.66 1244.52 1518.27 Q1247.59 1522.85 1247.59 1531.6 Q1247.59 1540.33 1244.52 1544.94 Q1241.46 1549.52 1235.65 1549.52 Q1229.84 1549.52 1226.76 1544.94 Q1223.71 1540.33 1223.71 1531.6 Q1223.71 1522.85 1226.76 1518.27 Q1229.84 1513.66 1235.65 1513.66 Z" fill="#000000" fill-rule="evenodd" fill-opacity="1" /><path clip-path="url(#clip840)" d="M1255.81 1542.97 L1260.7 1542.97 L1260.7 1548.85 L1255.81 1548.85 L1255.81 1542.97 Z" fill="#000000" fill-rule="evenodd" fill-opacity="1" /><path clip-path="url(#clip840)" d="M1270.93 1514.29 L1289.28 1514.29 L1289.28 1518.22 L1275.21 1518.22 L1275.21 1526.7 Q1276.23 1526.35 1277.25 1526.19 Q1278.26 1526 1279.28 1526 Q1285.07 1526 1288.45 1529.17 Q1291.83 1532.34 1291.83 1537.76 Q1291.83 1543.34 1288.36 1546.44 Q1284.89 1549.52 1278.57 1549.52 Q1276.39 1549.52 1274.12 1549.15 Q1271.88 1548.78 1269.47 1548.04 L1269.47 1543.34 Q1271.55 1544.47 1273.77 1545.03 Q1276 1545.58 1278.47 1545.58 Q1282.48 1545.58 1284.82 1543.48 Q1287.15 1541.37 1287.15 1537.76 Q1287.15 1534.15 1284.82 1532.04 Q1282.48 1529.94 1278.47 1529.94 Q1276.6 1529.94 1274.72 1530.35 Q1272.87 1530.77 1270.93 1531.65 L1270.93 1514.29 Z" fill="#000000" fill-rule="evenodd" fill-opacity="1" /><path clip-path="url(#clip840)" d="M1311.04 1517.37 Q1307.43 1517.37 1305.6 1520.93 Q1303.8 1524.47 1303.8 1531.6 Q1303.8 1538.71 1305.6 1542.27 Q1307.43 1545.82 1311.04 1545.82 Q1314.68 1545.82 1316.48 1542.27 Q1318.31 1538.71 1318.31 1531.6 Q1318.31 1524.47 1316.48 1520.93 Q1314.68 1517.37 1311.04 1517.37 M1311.04 1513.66 Q1316.85 1513.66 1319.91 1518.27 Q1322.99 1522.85 1322.99 1531.6 Q1322.99 1540.33 1319.91 1544.94 Q1316.85 1549.52 1311.04 1549.52 Q1305.23 1549.52 1302.15 1544.94 Q1299.1 1540.33 1299.1 1531.6 Q1299.1 1522.85 1302.15 1518.27 Q1305.23 1513.66 1311.04 1513.66 Z" fill="#000000" fill-rule="evenodd" fill-opacity="1" /><path clip-path="url(#clip840)" d="M1745.3 1517.37 Q1741.69 1517.37 1739.86 1520.93 Q1738.06 1524.47 1738.06 1531.6 Q1738.06 1538.71 1739.86 1542.27 Q1741.69 1545.82 1745.3 1545.82 Q1748.94 1545.82 1750.74 1542.27 Q1752.57 1538.71 1752.57 1531.6 Q1752.57 1524.47 1750.74 1520.93 Q1748.94 1517.37 1745.3 1517.37 M1745.3 1513.66 Q1751.11 1513.66 1754.17 1518.27 Q1757.25 1522.85 1757.25 1531.6 Q1757.25 1540.33 1754.17 1544.94 Q1751.11 1549.52 1745.3 1549.52 Q1739.49 1549.52 1736.41 1544.94 Q1733.36 1540.33 1733.36 1531.6 Q1733.36 1522.85 1736.41 1518.27 Q1739.49 1513.66 1745.3 1513.66 Z" fill="#000000" fill-rule="evenodd" fill-opacity="1" /><path clip-path="url(#clip840)" d="M1765.46 1542.97 L1770.35 1542.97 L1770.35 1548.85 L1765.46 1548.85 L1765.46 1542.97 Z" fill="#000000" fill-rule="evenodd" fill-opacity="1" /><path clip-path="url(#clip840)" d="M1779.35 1514.29 L1801.58 1514.29 L1801.58 1516.28 L1789.03 1548.85 L1784.15 1548.85 L1795.95 1518.22 L1779.35 1518.22 L1779.35 1514.29 Z" fill="#000000" fill-rule="evenodd" fill-opacity="1" /><path clip-path="url(#clip840)" d="M1810.74 1514.29 L1829.1 1514.29 L1829.1 1518.22 L1815.02 1518.22 L1815.02 1526.7 Q1816.04 1526.35 1817.06 1526.19 Q1818.08 1526 1819.1 1526 Q1824.89 1526 1828.27 1529.17 Q1831.64 1532.34 1831.64 1537.76 Q1831.64 1543.34 1828.17 1546.44 Q1824.7 1549.52 1818.38 1549.52 Q1816.21 1549.52 1813.94 1549.15 Q1811.69 1548.78 1809.28 1548.04 L1809.28 1543.34 Q1811.37 1544.47 1813.59 1545.03 Q1815.81 1545.58 1818.29 1545.58 Q1822.29 1545.58 1824.63 1543.48 Q1826.97 1541.37 1826.97 1537.76 Q1826.97 1534.15 1824.63 1532.04 Q1822.29 1529.94 1818.29 1529.94 Q1816.41 1529.94 1814.54 1530.35 Q1812.69 1530.77 1810.74 1531.65 L1810.74 1514.29 Z" fill="#000000" fill-rule="evenodd" fill-opacity="1" /><path clip-path="url(#clip840)" d="M2243.73 1544.91 L2251.37 1544.91 L2251.37 1518.55 L2243.06 1520.21 L2243.06 1515.95 L2251.32 1514.29 L2256 1514.29 L2256 1544.91 L2263.64 1544.91 L2263.64 1548.85 L2243.73 1548.85 L2243.73 1544.91 Z" fill="#000000" fill-rule="evenodd" fill-opacity="1" /><path clip-path="url(#clip840)" d="M2273.08 1542.97 L2277.97 1542.97 L2277.97 1548.85 L2273.08 1548.85 L2273.08 1542.97 Z" fill="#000000" fill-rule="evenodd" fill-opacity="1" /><path clip-path="url(#clip840)" d="M2298.15 1517.37 Q2294.54 1517.37 2292.71 1520.93 Q2290.9 1524.47 2290.9 1531.6 Q2290.9 1538.71 2292.71 1542.27 Q2294.54 1545.82 2298.15 1545.82 Q2301.78 1545.82 2303.59 1542.27 Q2305.42 1538.71 2305.42 1531.6 Q2305.42 1524.47 2303.59 1520.93 Q2301.78 1517.37 2298.15 1517.37 M2298.15 1513.66 Q2303.96 1513.66 2307.02 1518.27 Q2310.09 1522.85 2310.09 1531.6 Q2310.09 1540.33 2307.02 1544.94 Q2303.96 1549.52 2298.15 1549.52 Q2292.34 1549.52 2289.26 1544.94 Q2286.21 1540.33 2286.21 1531.6 Q2286.21 1522.85 2289.26 1518.27 Q2292.34 1513.66 2298.15 1513.66 Z" fill="#000000" fill-rule="evenodd" fill-opacity="1" /><path clip-path="url(#clip840)" d="M2328.31 1517.37 Q2324.7 1517.37 2322.87 1520.93 Q2321.07 1524.47 2321.07 1531.6 Q2321.07 1538.71 2322.87 1542.27 Q2324.7 1545.82 2328.31 1545.82 Q2331.95 1545.82 2333.75 1542.27 Q2335.58 1538.71 2335.58 1531.6 Q2335.58 1524.47 2333.75 1520.93 Q2331.95 1517.37 2328.31 1517.37 M2328.31 1513.66 Q2334.12 1513.66 2337.18 1518.27 Q2340.26 1522.85 2340.26 1531.6 Q2340.26 1540.33 2337.18 1544.94 Q2334.12 1549.52 2328.31 1549.52 Q2322.5 1549.52 2319.42 1544.94 Q2316.37 1540.33 2316.37 1531.6 Q2316.37 1522.85 2319.42 1518.27 Q2322.5 1513.66 2328.31 1513.66 Z" fill="#000000" fill-rule="evenodd" fill-opacity="1" /><polyline clip-path="url(#clip842)" style="stroke:#000000; stroke-linecap:butt; stroke-linejoin:round; stroke-width:2; stroke-opacity:0.1; fill:none" points="
  193.936,1445.72 2352.76,1445.72 
  "/>
<polyline clip-path="url(#clip842)" style="stroke:#000000; stroke-linecap:butt; stroke-linejoin:round; stroke-width:2; stroke-opacity:0.1; fill:none" points="
  193.936,1106.28 2352.76,1106.28 
  "/>
<polyline clip-path="url(#clip842)" style="stroke:#000000; stroke-linecap:butt; stroke-linejoin:round; stroke-width:2; stroke-opacity:0.1; fill:none" points="
  193.936,766.846 2352.76,766.846 
  "/>
<polyline clip-path="url(#clip842)" style="stroke:#000000; stroke-linecap:butt; stroke-linejoin:round; stroke-width:2; stroke-opacity:0.1; fill:none" points="
  193.936,427.411 2352.76,427.411 
  "/>
<polyline clip-path="url(#clip842)" style="stroke:#000000; stroke-linecap:butt; stroke-linejoin:round; stroke-width:2; stroke-opacity:0.1; fill:none" points="
  193.936,87.9763 2352.76,87.9763 
  "/>
<polyline clip-path="url(#clip840)" style="stroke:#000000; stroke-linecap:butt; stroke-linejoin:round; stroke-width:4; stroke-opacity:1; fill:none" points="
  193.936,1486.45 193.936,47.2441 
  "/>
<polyline clip-path="url(#clip840)" style="stroke:#000000; stroke-linecap:butt; stroke-linejoin:round; stroke-width:4; stroke-opacity:1; fill:none" points="
  193.936,1445.72 212.834,1445.72 
  "/>
<polyline clip-path="url(#clip840)" style="stroke:#000000; stroke-linecap:butt; stroke-linejoin:round; stroke-width:4; stroke-opacity:1; fill:none" points="
  193.936,1106.28 212.834,1106.28 
  "/>
<polyline clip-path="url(#clip840)" style="stroke:#000000; stroke-linecap:butt; stroke-linejoin:round; stroke-width:4; stroke-opacity:1; fill:none" points="
  193.936,766.846 212.834,766.846 
  "/>
<polyline clip-path="url(#clip840)" style="stroke:#000000; stroke-linecap:butt; stroke-linejoin:round; stroke-width:4; stroke-opacity:1; fill:none" points="
  193.936,427.411 212.834,427.411 
  "/>
<polyline clip-path="url(#clip840)" style="stroke:#000000; stroke-linecap:butt; stroke-linejoin:round; stroke-width:4; stroke-opacity:1; fill:none" points="
  193.936,87.9763 212.834,87.9763 
  "/>
<path clip-path="url(#clip840)" d="M50.9921 1446.17 L80.6679 1446.17 L80.6679 1450.1 L50.9921 1450.1 L50.9921 1446.17 Z" fill="#000000" fill-rule="evenodd" fill-opacity="1" /><path clip-path="url(#clip840)" d="M91.5706 1459.06 L99.2095 1459.06 L99.2095 1432.69 L90.8993 1434.36 L90.8993 1430.1 L99.1632 1428.44 L103.839 1428.44 L103.839 1459.06 L111.478 1459.06 L111.478 1463 L91.5706 1463 L91.5706 1459.06 Z" fill="#000000" fill-rule="evenodd" fill-opacity="1" /><path clip-path="url(#clip840)" d="M120.922 1457.12 L125.807 1457.12 L125.807 1463 L120.922 1463 L120.922 1457.12 Z" fill="#000000" fill-rule="evenodd" fill-opacity="1" /><path clip-path="url(#clip840)" d="M145.992 1431.51 Q142.381 1431.51 140.552 1435.08 Q138.746 1438.62 138.746 1445.75 Q138.746 1452.86 140.552 1456.42 Q142.381 1459.96 145.992 1459.96 Q149.626 1459.96 151.431 1456.42 Q153.26 1452.86 153.26 1445.75 Q153.26 1438.62 151.431 1435.08 Q149.626 1431.51 145.992 1431.51 M145.992 1427.81 Q151.802 1427.81 154.857 1432.42 Q157.936 1437 157.936 1445.75 Q157.936 1454.48 154.857 1459.08 Q151.802 1463.67 145.992 1463.67 Q140.181 1463.67 137.103 1459.08 Q134.047 1454.48 134.047 1445.75 Q134.047 1437 137.103 1432.42 Q140.181 1427.81 145.992 1427.81 Z" fill="#000000" fill-rule="evenodd" fill-opacity="1" /><path clip-path="url(#clip840)" d="M51.9875 1106.73 L81.6633 1106.73 L81.6633 1110.67 L51.9875 1110.67 L51.9875 1106.73 Z" fill="#000000" fill-rule="evenodd" fill-opacity="1" /><path clip-path="url(#clip840)" d="M101.756 1092.08 Q98.1447 1092.08 96.316 1095.64 Q94.5104 1099.19 94.5104 1106.32 Q94.5104 1113.42 96.316 1116.99 Q98.1447 1120.53 101.756 1120.53 Q105.39 1120.53 107.196 1116.99 Q109.024 1113.42 109.024 1106.32 Q109.024 1099.19 107.196 1095.64 Q105.39 1092.08 101.756 1092.08 M101.756 1088.38 Q107.566 1088.38 110.621 1092.98 Q113.7 1097.57 113.7 1106.32 Q113.7 1115.04 110.621 1119.65 Q107.566 1124.23 101.756 1124.23 Q95.9456 1124.23 92.8669 1119.65 Q89.8114 1115.04 89.8114 1106.32 Q89.8114 1097.57 92.8669 1092.98 Q95.9456 1088.38 101.756 1088.38 Z" fill="#000000" fill-rule="evenodd" fill-opacity="1" /><path clip-path="url(#clip840)" d="M121.918 1117.68 L126.802 1117.68 L126.802 1123.56 L121.918 1123.56 L121.918 1117.68 Z" fill="#000000" fill-rule="evenodd" fill-opacity="1" /><path clip-path="url(#clip840)" d="M137.033 1089 L155.39 1089 L155.39 1092.94 L141.316 1092.94 L141.316 1101.41 Q142.334 1101.06 143.353 1100.9 Q144.371 1100.71 145.39 1100.71 Q151.177 1100.71 154.556 1103.89 Q157.936 1107.06 157.936 1112.47 Q157.936 1118.05 154.464 1121.15 Q150.992 1124.23 144.672 1124.23 Q142.496 1124.23 140.228 1123.86 Q137.982 1123.49 135.575 1122.75 L135.575 1118.05 Q137.658 1119.19 139.881 1119.74 Q142.103 1120.3 144.58 1120.3 Q148.584 1120.3 150.922 1118.19 Q153.26 1116.08 153.26 1112.47 Q153.26 1108.86 150.922 1106.76 Q148.584 1104.65 144.58 1104.65 Q142.705 1104.65 140.83 1105.07 Q138.978 1105.48 137.033 1106.36 L137.033 1089 Z" fill="#000000" fill-rule="evenodd" fill-opacity="1" /><path clip-path="url(#clip840)" d="M100.76 752.645 Q97.1493 752.645 95.3206 756.209 Q93.515 759.751 93.515 766.881 Q93.515 773.987 95.3206 777.552 Q97.1493 781.094 100.76 781.094 Q104.395 781.094 106.2 777.552 Q108.029 773.987 108.029 766.881 Q108.029 759.751 106.2 756.209 Q104.395 752.645 100.76 752.645 M100.76 748.941 Q106.571 748.941 109.626 753.547 Q112.705 758.131 112.705 766.881 Q112.705 775.608 109.626 780.214 Q106.571 784.797 100.76 784.797 Q94.9502 784.797 91.8715 780.214 Q88.816 775.608 88.816 766.881 Q88.816 758.131 91.8715 753.547 Q94.9502 748.941 100.76 748.941 Z" fill="#000000" fill-rule="evenodd" fill-opacity="1" /><path clip-path="url(#clip840)" d="M120.922 778.246 L125.807 778.246 L125.807 784.126 L120.922 784.126 L120.922 778.246 Z" fill="#000000" fill-rule="evenodd" fill-opacity="1" /><path clip-path="url(#clip840)" d="M145.992 752.645 Q142.381 752.645 140.552 756.209 Q138.746 759.751 138.746 766.881 Q138.746 773.987 140.552 777.552 Q142.381 781.094 145.992 781.094 Q149.626 781.094 151.431 777.552 Q153.26 773.987 153.26 766.881 Q153.26 759.751 151.431 756.209 Q149.626 752.645 145.992 752.645 M145.992 748.941 Q151.802 748.941 154.857 753.547 Q157.936 758.131 157.936 766.881 Q157.936 775.608 154.857 780.214 Q151.802 784.797 145.992 784.797 Q140.181 784.797 137.103 780.214 Q134.047 775.608 134.047 766.881 Q134.047 758.131 137.103 753.547 Q140.181 748.941 145.992 748.941 Z" fill="#000000" fill-rule="evenodd" fill-opacity="1" /><path clip-path="url(#clip840)" d="M101.756 413.21 Q98.1447 413.21 96.316 416.775 Q94.5104 420.316 94.5104 427.446 Q94.5104 434.552 96.316 438.117 Q98.1447 441.659 101.756 441.659 Q105.39 441.659 107.196 438.117 Q109.024 434.552 109.024 427.446 Q109.024 420.316 107.196 416.775 Q105.39 413.21 101.756 413.21 M101.756 409.506 Q107.566 409.506 110.621 414.113 Q113.7 418.696 113.7 427.446 Q113.7 436.173 110.621 440.779 Q107.566 445.362 101.756 445.362 Q95.9456 445.362 92.8669 440.779 Q89.8114 436.173 89.8114 427.446 Q89.8114 418.696 92.8669 414.113 Q95.9456 409.506 101.756 409.506 Z" fill="#000000" fill-rule="evenodd" fill-opacity="1" /><path clip-path="url(#clip840)" d="M121.918 438.812 L126.802 438.812 L126.802 444.691 L121.918 444.691 L121.918 438.812 Z" fill="#000000" fill-rule="evenodd" fill-opacity="1" /><path clip-path="url(#clip840)" d="M137.033 410.131 L155.39 410.131 L155.39 414.066 L141.316 414.066 L141.316 422.538 Q142.334 422.191 143.353 422.029 Q144.371 421.844 145.39 421.844 Q151.177 421.844 154.556 425.015 Q157.936 428.187 157.936 433.603 Q157.936 439.182 154.464 442.284 Q150.992 445.362 144.672 445.362 Q142.496 445.362 140.228 444.992 Q137.982 444.622 135.575 443.881 L135.575 439.182 Q137.658 440.316 139.881 440.872 Q142.103 441.427 144.58 441.427 Q148.584 441.427 150.922 439.321 Q153.26 437.214 153.26 433.603 Q153.26 429.992 150.922 427.886 Q148.584 425.779 144.58 425.779 Q142.705 425.779 140.83 426.196 Q138.978 426.613 137.033 427.492 L137.033 410.131 Z" fill="#000000" fill-rule="evenodd" fill-opacity="1" /><path clip-path="url(#clip840)" d="M91.5706 101.321 L99.2095 101.321 L99.2095 74.9555 L90.8993 76.6222 L90.8993 72.3629 L99.1632 70.6963 L103.839 70.6963 L103.839 101.321 L111.478 101.321 L111.478 105.256 L91.5706 105.256 L91.5706 101.321 Z" fill="#000000" fill-rule="evenodd" fill-opacity="1" /><path clip-path="url(#clip840)" d="M120.922 99.3767 L125.807 99.3767 L125.807 105.256 L120.922 105.256 L120.922 99.3767 Z" fill="#000000" fill-rule="evenodd" fill-opacity="1" /><path clip-path="url(#clip840)" d="M145.992 73.775 Q142.381 73.775 140.552 77.3398 Q138.746 80.8814 138.746 88.011 Q138.746 95.1174 140.552 98.6822 Q142.381 102.224 145.992 102.224 Q149.626 102.224 151.431 98.6822 Q153.26 95.1174 153.26 88.011 Q153.26 80.8814 151.431 77.3398 Q149.626 73.775 145.992 73.775 M145.992 70.0713 Q151.802 70.0713 154.857 74.6777 Q157.936 79.261 157.936 88.011 Q157.936 96.7378 154.857 101.344 Q151.802 105.928 145.992 105.928 Q140.181 105.928 137.103 101.344 Q134.047 96.7378 134.047 88.011 Q134.047 79.261 137.103 74.6777 Q140.181 70.0713 145.992 70.0713 Z" fill="#000000" fill-rule="evenodd" fill-opacity="1" /><polyline clip-path="url(#clip842)" style="stroke:#009af9; stroke-linecap:butt; stroke-linejoin:round; stroke-width:4; stroke-opacity:1; fill:none" points="
  255.035,1445.72 261.823,1441.42 268.612,1437.1 275.401,1432.74 282.19,1428.34 288.978,1423.91 295.767,1419.45 302.556,1414.95 309.345,1410.42 316.133,1405.85 
  322.922,1401.24 329.711,1396.6 336.5,1391.93 343.288,1387.22 350.077,1382.47 356.866,1377.69 363.655,1372.87 370.443,1368.01 377.232,1363.12 384.021,1358.19 
  390.81,1353.23 397.598,1348.23 404.387,1343.19 411.176,1338.11 417.964,1333 424.753,1327.85 431.542,1322.67 438.331,1317.45 445.119,1312.19 451.908,1306.89 
  458.697,1301.56 465.486,1296.19 472.274,1290.78 479.063,1285.34 485.852,1279.86 492.641,1274.34 499.429,1268.79 506.218,1263.2 513.007,1257.58 519.796,1251.92 
  526.584,1246.22 533.373,1240.49 540.162,1234.72 546.951,1228.92 553.739,1223.08 560.528,1217.21 567.317,1211.3 574.106,1205.36 580.894,1199.39 587.683,1193.38 
  594.472,1187.34 601.261,1181.26 608.049,1175.16 614.838,1169.02 621.627,1162.85 628.415,1156.65 635.204,1150.41 641.993,1144.15 648.782,1137.86 655.57,1131.53 
  662.359,1125.18 669.148,1118.8 675.937,1112.39 682.725,1105.95 689.514,1099.49 696.303,1093 703.092,1086.49 709.88,1079.95 716.669,1073.38 723.458,1066.79 
  730.247,1060.18 737.035,1053.54 743.824,1046.89 750.613,1040.21 757.402,1033.51 764.19,1026.79 770.979,1020.06 777.768,1013.3 784.557,1006.53 791.345,999.736 
  798.134,992.93 804.923,986.109 811.712,979.273 818.5,972.424 825.289,965.562 832.078,958.688 838.866,951.803 845.655,944.908 852.444,938.004 859.233,931.091 
  866.021,924.17 872.81,917.243 879.599,910.31 886.388,903.372 893.176,896.43 899.965,889.485 906.754,882.538 913.543,875.59 920.331,868.641 927.12,861.693 
  933.909,854.747 940.698,847.803 947.486,840.862 954.275,833.926 961.064,826.995 967.853,820.07 974.641,813.152 981.43,806.242 988.219,799.342 995.008,792.451 
  1001.8,785.571 1008.59,778.702 1015.37,771.846 1022.16,765.004 1028.95,758.176 1035.74,751.364 1042.53,744.568 1049.32,737.788 1056.11,731.027 1062.89,724.284 
  1069.68,717.561 1076.47,710.859 1083.26,704.178 1090.05,697.519 1096.84,690.883 1103.63,684.27 1110.42,677.682 1117.2,671.12 1123.99,664.583 1130.78,658.073 
  1137.57,651.591 1144.36,645.137 1151.15,638.712 1157.94,632.316 1164.73,625.951 1171.51,619.617 1178.3,613.315 1185.09,607.044 1191.88,600.807 1198.67,594.603 
  1205.46,588.433 1212.25,582.298 1219.04,576.198 1225.82,570.134 1232.61,564.106 1239.4,558.115 1246.19,552.161 1252.98,546.244 1259.77,540.366 1266.56,534.527 
  1273.35,528.726 1280.13,522.965 1286.92,517.244 1293.71,511.563 1300.5,505.922 1307.29,500.322 1314.08,494.764 1320.87,489.247 1327.66,483.771 1334.44,478.338 
  1341.23,472.947 1348.02,467.599 1354.81,462.293 1361.6,457.031 1368.39,451.811 1375.18,446.635 1381.97,441.502 1388.75,436.413 1395.54,431.367 1402.33,426.366 
  1409.12,421.408 1415.91,416.495 1422.7,411.625 1429.49,406.8 1436.28,402.019 1443.06,397.282 1449.85,392.59 1456.64,387.941 1463.43,383.337 1470.22,378.777 
  1477.01,374.261 1483.8,369.79 1490.59,365.362 1497.37,360.979 1504.16,356.639 1510.95,352.343 1517.74,348.091 1524.53,343.883 1531.32,339.718 1538.11,335.596 
  1544.9,331.518 1551.68,327.483 1558.47,323.49 1565.26,319.54 1572.05,315.633 1578.84,311.769 1585.63,307.946 1592.42,304.165 1599.21,300.426 1605.99,296.729 
  1612.78,293.073 1619.57,289.458 1626.36,285.884 1633.15,282.351 1639.94,278.858 1646.73,275.405 1653.52,271.992 1660.3,268.619 1667.09,265.285 1673.88,261.99 
  1680.67,258.734 1687.46,255.517 1694.25,252.337 1701.04,249.196 1707.83,246.093 1714.61,243.027 1721.4,239.998 1728.19,237.005 1734.98,234.05 1741.77,231.13 
  1748.56,228.247 1755.35,225.399 1762.14,222.587 1768.92,219.809 1775.71,217.066 1782.5,214.358 1789.29,211.684 1796.08,209.043 1802.87,206.436 1809.66,203.862 
  1816.45,201.321 1823.23,198.813 1830.02,196.337 1836.81,193.892 1843.6,191.48 1850.39,189.098 1857.18,186.748 1863.97,184.428 1870.76,182.139 1877.54,179.88 
  1884.33,177.651 1891.12,175.451 1897.91,173.28 1904.7,171.138 1911.49,169.025 1918.28,166.94 1925.07,164.883 1931.85,162.853 1938.64,160.851 1945.43,158.876 
  1952.22,156.928 1959.01,155.007 1965.8,153.111 1972.59,151.242 1979.38,149.398 1986.16,147.58 1992.95,145.787 1999.74,144.018 2006.53,142.275 2013.32,140.555 
  2020.11,138.859 2026.9,137.188 2033.69,135.539 2040.47,133.914 2047.26,132.312 2054.05,130.733 2060.84,129.176 2067.63,127.641 2074.42,126.129 2081.21,124.638 
  2087.99,123.168 2094.78,121.72 2101.57,120.293 2108.36,118.886 2115.15,117.5 2121.94,116.134 2128.73,114.789 2135.52,113.463 2142.3,112.157 2149.09,110.87 
  2155.88,109.603 2162.67,108.354 2169.46,107.125 2176.25,105.913 2183.04,104.721 2189.83,103.546 2196.61,102.389 2203.4,101.25 2210.19,100.129 2216.98,99.025 
  2223.77,97.9382 2230.56,96.8685 2237.35,95.8155 2244.14,94.7792 2250.92,93.7594 2257.71,92.7558 2264.5,91.7683 2271.29,90.7968 2278.08,89.8411 2284.87,88.901 
  2291.66,87.9763 
  "/>
<polyline clip-path="url(#clip842)" style="stroke:#e26f46; stroke-linecap:butt; stroke-linejoin:round; stroke-width:4; stroke-opacity:1; fill:none" points="
  255.035,1445.72 261.823,1442.83 268.612,1439.9 275.401,1436.93 282.19,1433.91 288.978,1430.85 295.767,1427.73 302.556,1424.55 309.345,1421.32 316.133,1418.03 
  322.922,1414.68 329.711,1411.26 336.5,1407.77 343.288,1404.2 350.077,1400.56 356.866,1396.84 363.655,1393.03 370.443,1389.13 377.232,1385.14 384.021,1381.05 
  390.81,1376.86 397.598,1372.55 404.387,1368.13 411.176,1363.6 417.964,1358.93 424.753,1354.14 431.542,1349.21 438.331,1344.13 445.119,1338.91 451.908,1333.52 
  458.697,1327.98 465.486,1322.26 472.274,1316.37 479.063,1310.29 485.852,1304.02 492.641,1297.55 499.429,1290.87 506.218,1283.98 513.007,1276.86 519.796,1269.52 
  526.584,1261.94 533.373,1254.11 540.162,1246.04 546.951,1237.7 553.739,1229.1 560.528,1220.23 567.317,1211.08 574.106,1201.64 580.894,1191.92 587.683,1181.91 
  594.472,1171.59 601.261,1160.98 608.049,1150.06 614.838,1138.84 621.627,1127.31 628.415,1115.47 635.204,1103.33 641.993,1090.89 648.782,1078.14 655.57,1065.1 
  662.359,1051.77 669.148,1038.16 675.937,1024.27 682.725,1010.12 689.514,995.705 696.303,981.051 703.092,966.167 709.88,951.066 716.669,935.765 723.458,920.281 
  730.247,904.63 737.035,888.833 743.824,872.909 750.613,856.878 757.402,840.761 764.19,824.581 770.979,808.36 777.768,792.12 784.557,775.884 791.345,759.675 
  798.134,743.515 804.923,727.427 811.712,711.434 818.5,695.556 825.289,679.814 832.078,664.23 838.866,648.821 845.655,633.607 852.444,618.605 859.233,603.831 
  866.021,589.3 872.81,575.026 879.599,561.021 886.388,547.297 893.176,533.864 899.965,520.73 906.754,507.903 913.543,495.389 920.331,483.193 927.12,471.318 
  933.909,459.767 940.698,448.542 947.486,437.643 954.275,427.069 961.064,416.818 967.853,406.889 974.641,397.278 981.43,387.982 988.219,378.995 995.008,370.312 
  1001.8,361.929 1008.59,353.839 1015.37,346.034 1022.16,338.51 1028.95,331.258 1035.74,324.271 1042.53,317.541 1049.32,311.062 1056.11,304.824 1062.89,298.821 
  1069.68,293.044 1076.47,287.487 1083.26,282.14 1090.05,276.996 1096.84,272.048 1103.63,267.289 1110.42,262.71 1117.2,258.305 1123.99,254.067 1130.78,249.988 
  1137.57,246.063 1144.36,242.284 1151.15,238.646 1157.94,235.142 1164.73,231.766 1171.51,228.513 1178.3,225.377 1185.09,222.353 1191.88,219.436 1198.67,216.62 
  1205.46,213.902 1212.25,211.276 1219.04,208.738 1225.82,206.285 1232.61,203.912 1239.4,201.615 1246.19,199.391 1252.98,197.236 1259.77,195.148 1266.56,193.122 
  1273.35,191.156 1280.13,189.247 1286.92,187.392 1293.71,185.59 1300.5,183.836 1307.29,182.129 1314.08,180.468 1320.87,178.848 1327.66,177.27 1334.44,175.73 
  1341.23,174.227 1348.02,172.759 1354.81,171.325 1361.6,169.922 1368.39,168.551 1375.18,167.209 1381.97,165.894 1388.75,164.606 1395.54,163.344 1402.33,162.107 
  1409.12,160.892 1415.91,159.701 1422.7,158.53 1429.49,157.38 1436.28,156.251 1443.06,155.14 1449.85,154.047 1456.64,152.972 1463.43,151.913 1470.22,150.871 
  1477.01,149.845 1483.8,148.834 1490.59,147.837 1497.37,146.855 1504.16,145.886 1510.95,144.931 1517.74,143.988 1524.53,143.057 1531.32,142.139 1538.11,141.232 
  1544.9,140.337 1551.68,139.453 1558.47,138.579 1565.26,137.717 1572.05,136.864 1578.84,136.021 1585.63,135.188 1592.42,134.365 1599.21,133.551 1605.99,132.746 
  1612.78,131.95 1619.57,131.163 1626.36,130.385 1633.15,129.615 1639.94,128.854 1646.73,128.101 1653.52,127.355 1660.3,126.618 1667.09,125.889 1673.88,125.168 
  1680.67,124.454 1687.46,123.749 1694.25,123.05 1701.04,122.359 1707.83,121.676 1714.61,120.999 1721.4,120.33 1728.19,119.669 1734.98,119.014 1741.77,118.366 
  1748.56,117.726 1755.35,117.092 1762.14,116.466 1768.92,115.846 1775.71,115.233 1782.5,114.627 1789.29,114.028 1796.08,113.436 1802.87,112.85 1809.66,112.271 
  1816.45,111.699 1823.23,111.133 1830.02,110.574 1836.81,110.022 1843.6,109.476 1850.39,108.937 1857.18,108.405 1863.97,107.879 1870.76,107.359 1877.54,106.847 
  1884.33,106.34 1891.12,105.841 1897.91,105.347 1904.7,104.861 1911.49,104.381 1918.28,103.907 1925.07,103.44 1931.85,102.979 1938.64,102.525 1945.43,102.077 
  1952.22,101.636 1959.01,101.202 1965.8,100.773 1972.59,100.352 1979.38,99.9366 1986.16,99.528 1992.95,99.1258 1999.74,98.7302 2006.53,98.3411 2013.32,97.9585 
  2020.11,97.5824 2026.9,97.2128 2033.69,96.8498 2040.47,96.4933 2047.26,96.1433 2054.05,95.7999 2060.84,95.463 2067.63,95.1327 2074.42,94.809 2081.21,94.4918 
  2087.99,94.1812 2094.78,93.8773 2101.57,93.5799 2108.36,93.2891 2115.15,93.0049 2121.94,92.7274 2128.73,92.4565 2135.52,92.1923 2142.3,91.9347 2149.09,91.6837 
  2155.88,91.4395 2162.67,91.2019 2169.46,90.9711 2176.25,90.7469 2183.04,90.5295 2189.83,90.3189 2196.61,90.1149 2203.4,89.9178 2210.19,89.7274 2216.98,89.5438 
  2223.77,89.367 2230.56,89.197 2237.35,89.0339 2244.14,88.8775 2250.92,88.7281 2257.71,88.5855 2264.5,88.4498 2271.29,88.3211 2278.08,88.1992 2284.87,88.0843 
  2291.66,87.9763 
  "/>
<polyline clip-path="url(#clip842)" style="stroke:#3da44d; stroke-linecap:butt; stroke-linejoin:round; stroke-width:4; stroke-opacity:1; fill:none" points="
  255.035,1445.72 261.823,1443.43 268.612,1441.13 275.401,1438.82 282.19,1436.51 288.978,1434.19 295.767,1431.86 302.556,1429.52 309.345,1427.17 316.133,1424.82 
  322.922,1422.45 329.711,1420.08 336.5,1417.7 343.288,1415.31 350.077,1412.92 356.866,1410.51 363.655,1408.1 370.443,1405.68 377.232,1403.24 384.021,1400.8 
  390.81,1398.35 397.598,1395.89 404.387,1393.42 411.176,1390.95 417.964,1388.46 424.753,1385.96 431.542,1383.46 438.331,1380.94 445.119,1378.41 451.908,1375.88 
  458.697,1373.33 465.486,1370.77 472.274,1368.2 479.063,1365.62 485.852,1363.02 492.641,1360.41 499.429,1357.79 506.218,1355.14 513.007,1352.48 519.796,1349.8 
  526.584,1347.09 533.373,1344.35 540.162,1341.58 546.951,1338.76 553.739,1335.88 560.528,1332.93 567.317,1329.88 574.106,1326.73 580.894,1323.42 587.683,1319.93 
  594.472,1316.19 601.261,1312.14 608.049,1307.68 614.838,1302.7 621.627,1297.05 628.415,1290.54 635.204,1282.93 641.993,1273.94 648.782,1263.2 655.57,1250.27 
  662.359,1234.64 669.148,1215.71 675.937,1192.83 682.725,1165.3 689.514,1132.46 696.303,1093.77 703.092,1048.91 709.88,997.881 716.669,941.168 723.458,879.765 
  730.247,815.167 737.035,749.251 743.824,684.06 750.613,621.554 757.402,563.374 764.19,510.693 770.979,464.155 777.768,423.92 784.557,389.761 791.345,361.186 
  798.134,337.559 804.923,318.187 811.712,302.394 818.5,289.556 825.289,279.123 832.078,270.626 838.866,263.674 845.655,257.945 852.444,253.18 859.233,249.172 
  866.021,245.757 872.81,242.803 879.599,240.21 886.388,237.897 893.176,235.802 899.965,233.878 906.754,232.087 913.543,230.399 920.331,228.794 927.12,227.252 
  933.909,225.762 940.698,224.312 947.486,222.895 954.275,221.505 961.064,220.138 967.853,218.789 974.641,217.455 981.43,216.136 988.219,214.829 995.008,213.533 
  1001.8,212.247 1008.59,210.97 1015.37,209.702 1022.16,208.443 1028.95,207.191 1035.74,205.947 1042.53,204.71 1049.32,203.481 1056.11,202.259 1062.89,201.044 
  1069.68,199.837 1076.47,198.636 1083.26,197.442 1090.05,196.255 1096.84,195.075 1103.63,193.902 1110.42,192.735 1117.2,191.576 1123.99,190.423 1130.78,189.277 
  1137.57,188.137 1144.36,187.004 1151.15,185.878 1157.94,184.759 1164.73,183.646 1171.51,182.54 1178.3,181.44 1185.09,180.347 1191.88,179.261 1198.67,178.181 
  1205.46,177.108 1212.25,176.041 1219.04,174.981 1225.82,173.927 1232.61,172.88 1239.4,171.84 1246.19,170.806 1252.98,169.778 1259.77,168.757 1266.56,167.743 
  1273.35,166.735 1280.13,165.733 1286.92,164.738 1293.71,163.749 1300.5,162.767 1307.29,161.791 1314.08,160.821 1320.87,159.858 1327.66,158.902 1334.44,157.951 
  1341.23,157.007 1348.02,156.07 1354.81,155.139 1361.6,154.214 1368.39,153.296 1375.18,152.383 1381.97,151.478 1388.75,150.578 1395.54,149.685 1402.33,148.799 
  1409.12,147.918 1415.91,147.044 1422.7,146.176 1429.49,145.315 1436.28,144.46 1443.06,143.611 1449.85,142.769 1456.64,141.933 1463.43,141.103 1470.22,140.279 
  1477.01,139.462 1483.8,138.651 1490.59,137.846 1497.37,137.048 1504.16,136.255 1510.95,135.47 1517.74,134.69 1524.53,133.917 1531.32,133.15 1538.11,132.389 
  1544.9,131.634 1551.68,130.886 1558.47,130.144 1565.26,129.409 1572.05,128.679 1578.84,127.956 1585.63,127.239 1592.42,126.529 1599.21,125.824 1605.99,125.126 
  1612.78,124.435 1619.57,123.749 1626.36,123.07 1633.15,122.397 1639.94,121.73 1646.73,121.07 1653.52,120.416 1660.3,119.768 1667.09,119.127 1673.88,118.492 
  1680.67,117.863 1687.46,117.24 1694.25,116.624 1701.04,116.014 1707.83,115.411 1714.61,114.813 1721.4,114.222 1728.19,113.638 1734.98,113.059 1741.77,112.487 
  1748.56,111.922 1755.35,111.362 1762.14,110.809 1768.92,110.263 1775.71,109.722 1782.5,109.189 1789.29,108.661 1796.08,108.14 1802.87,107.625 1809.66,107.117 
  1816.45,106.615 1823.23,106.119 1830.02,105.63 1836.81,105.147 1843.6,104.671 1850.39,104.201 1857.18,103.738 1863.97,103.281 1870.76,102.83 1877.54,102.386 
  1884.33,101.948 1891.12,101.517 1897.91,101.092 1904.7,100.674 1911.49,100.263 1918.28,99.8575 1925.07,99.4589 1931.85,99.0669 1938.64,98.6813 1945.43,98.3024 
  1952.22,97.93 1959.01,97.5641 1965.8,97.2049 1972.59,96.8523 1979.38,96.5062 1986.16,96.1668 1992.95,95.834 1999.74,95.5079 2006.53,95.1884 2013.32,94.8756 
  2020.11,94.5695 2026.9,94.2701 2033.69,93.9774 2040.47,93.6914 2047.26,93.4122 2054.05,93.1396 2060.84,92.8739 2067.63,92.6149 2074.42,92.3627 2081.21,92.1174 
  2087.99,91.8788 2094.78,91.6471 2101.57,91.4222 2108.36,91.2042 2115.15,90.9931 2121.94,90.7889 2128.73,90.5916 2135.52,90.4012 2142.3,90.2177 2149.09,90.0413 
  2155.88,89.8718 2162.67,89.7093 2169.46,89.5538 2176.25,89.4053 2183.04,89.2639 2189.83,89.1296 2196.61,89.0024 2203.4,88.8822 2210.19,88.7692 2216.98,88.6633 
  2223.77,88.5646 2230.56,88.4731 2237.35,88.3888 2244.14,88.3117 2250.92,88.2419 2257.71,88.1793 2264.5,88.1241 2271.29,88.0761 2278.08,88.0355 2284.87,88.0022 
  2291.66,87.9763 
  "/>
<path clip-path="url(#clip840)" d="
M265.897 302.578 L673.542 302.578 L673.542 95.2176 L265.897 95.2176  Z
  " fill="#ffffff" fill-rule="evenodd" fill-opacity="1"/>
<polyline clip-path="url(#clip840)" style="stroke:#000000; stroke-linecap:butt; stroke-linejoin:round; stroke-width:4; stroke-opacity:1; fill:none" points="
  265.897,302.578 673.542,302.578 673.542,95.2176 265.897,95.2176 265.897,302.578 
  "/>
<polyline clip-path="url(#clip840)" style="stroke:#009af9; stroke-linecap:butt; stroke-linejoin:round; stroke-width:4; stroke-opacity:1; fill:none" points="
  289.884,147.058 433.805,147.058 
  "/>
<path clip-path="url(#clip840)" d="M471.056 132.37 L483.023 164.338 L478.509 164.338 L471.241 145.171 L462.306 164.338 L457.792 164.338 L469.157 139.477 L467.444 134.893 Q466.357 131.977 463.88 131.977 L461.657 131.977 L461.657 128.319 L464.366 128.366 Q469.597 128.435 471.056 132.37 Z" fill="#000000" fill-rule="evenodd" fill-opacity="1" /><path clip-path="url(#clip840)" d="M489.458 142.81 L519.134 142.81 L519.134 146.699 L489.458 146.699 L489.458 142.81 M489.458 152.254 L519.134 152.254 L519.134 156.189 L489.458 156.189 L489.458 152.254 Z" fill="#000000" fill-rule="evenodd" fill-opacity="1" /><path clip-path="url(#clip840)" d="M539.227 132.856 Q535.615 132.856 533.787 136.421 Q531.981 139.963 531.981 147.092 Q531.981 154.199 533.787 157.764 Q535.615 161.305 539.227 161.305 Q542.861 161.305 544.666 157.764 Q546.495 154.199 546.495 147.092 Q546.495 139.963 544.666 136.421 Q542.861 132.856 539.227 132.856 M539.227 129.153 Q545.037 129.153 548.092 133.759 Q551.171 138.342 551.171 147.092 Q551.171 155.819 548.092 160.426 Q545.037 165.009 539.227 165.009 Q533.416 165.009 530.338 160.426 Q527.282 155.819 527.282 147.092 Q527.282 138.342 530.338 133.759 Q533.416 129.153 539.227 129.153 Z" fill="#000000" fill-rule="evenodd" fill-opacity="1" /><path clip-path="url(#clip840)" d="M559.388 158.458 L564.273 158.458 L564.273 164.338 L559.388 164.338 L559.388 158.458 Z" fill="#000000" fill-rule="evenodd" fill-opacity="1" /><path clip-path="url(#clip840)" d="M578.486 160.402 L594.805 160.402 L594.805 164.338 L572.861 164.338 L572.861 160.402 Q575.523 157.648 580.106 153.018 Q584.712 148.365 585.893 147.023 Q588.138 144.5 589.018 142.764 Q589.921 141.004 589.921 139.315 Q589.921 136.56 587.976 134.824 Q586.055 133.088 582.953 133.088 Q580.754 133.088 578.3 133.852 Q575.87 134.615 573.092 136.166 L573.092 131.444 Q575.916 130.31 578.37 129.731 Q580.824 129.153 582.861 129.153 Q588.231 129.153 591.425 131.838 Q594.62 134.523 594.62 139.014 Q594.62 141.143 593.81 143.065 Q593.023 144.963 590.916 147.555 Q590.337 148.227 587.236 151.444 Q584.134 154.639 578.486 160.402 Z" fill="#000000" fill-rule="evenodd" fill-opacity="1" /><polyline clip-path="url(#clip840)" style="stroke:#e26f46; stroke-linecap:butt; stroke-linejoin:round; stroke-width:4; stroke-opacity:1; fill:none" points="
  289.884,198.898 433.805,198.898 
  "/>
<path clip-path="url(#clip840)" d="M471.056 184.21 L483.023 216.178 L478.509 216.178 L471.241 197.011 L462.306 216.178 L457.792 216.178 L469.157 191.317 L467.444 186.733 Q466.357 183.817 463.88 183.817 L461.657 183.817 L461.657 180.159 L464.366 180.206 Q469.597 180.275 471.056 184.21 Z" fill="#000000" fill-rule="evenodd" fill-opacity="1" /><path clip-path="url(#clip840)" d="M489.458 194.65 L519.134 194.65 L519.134 198.539 L489.458 198.539 L489.458 194.65 M489.458 204.094 L519.134 204.094 L519.134 208.029 L489.458 208.029 L489.458 204.094 Z" fill="#000000" fill-rule="evenodd" fill-opacity="1" /><path clip-path="url(#clip840)" d="M539.227 184.696 Q535.615 184.696 533.787 188.261 Q531.981 191.803 531.981 198.932 Q531.981 206.039 533.787 209.604 Q535.615 213.145 539.227 213.145 Q542.861 213.145 544.666 209.604 Q546.495 206.039 546.495 198.932 Q546.495 191.803 544.666 188.261 Q542.861 184.696 539.227 184.696 M539.227 180.993 Q545.037 180.993 548.092 185.599 Q551.171 190.182 551.171 198.932 Q551.171 207.659 548.092 212.266 Q545.037 216.849 539.227 216.849 Q533.416 216.849 530.338 212.266 Q527.282 207.659 527.282 198.932 Q527.282 190.182 530.338 185.599 Q533.416 180.993 539.227 180.993 Z" fill="#000000" fill-rule="evenodd" fill-opacity="1" /><path clip-path="url(#clip840)" d="M559.388 210.298 L564.273 210.298 L564.273 216.178 L559.388 216.178 L559.388 210.298 Z" fill="#000000" fill-rule="evenodd" fill-opacity="1" /><path clip-path="url(#clip840)" d="M584.458 184.696 Q580.847 184.696 579.018 188.261 Q577.212 191.803 577.212 198.932 Q577.212 206.039 579.018 209.604 Q580.847 213.145 584.458 213.145 Q588.092 213.145 589.898 209.604 Q591.726 206.039 591.726 198.932 Q591.726 191.803 589.898 188.261 Q588.092 184.696 584.458 184.696 M584.458 180.993 Q590.268 180.993 593.323 185.599 Q596.402 190.182 596.402 198.932 Q596.402 207.659 593.323 212.266 Q590.268 216.849 584.458 216.849 Q578.648 216.849 575.569 212.266 Q572.513 207.659 572.513 198.932 Q572.513 190.182 575.569 185.599 Q578.648 180.993 584.458 180.993 Z" fill="#000000" fill-rule="evenodd" fill-opacity="1" /><path clip-path="url(#clip840)" d="M604.666 181.618 L623.022 181.618 L623.022 185.553 L608.948 185.553 L608.948 194.025 Q609.967 193.678 610.985 193.516 Q612.004 193.33 613.022 193.33 Q618.809 193.33 622.189 196.502 Q625.569 199.673 625.569 205.09 Q625.569 210.668 622.096 213.77 Q618.624 216.849 612.305 216.849 Q610.129 216.849 607.86 216.478 Q605.615 216.108 603.208 215.367 L603.208 210.668 Q605.291 211.803 607.513 212.358 Q609.735 212.914 612.212 212.914 Q616.217 212.914 618.555 210.807 Q620.893 208.701 620.893 205.09 Q620.893 201.479 618.555 199.372 Q616.217 197.266 612.212 197.266 Q610.337 197.266 608.462 197.682 Q606.61 198.099 604.666 198.979 L604.666 181.618 Z" fill="#000000" fill-rule="evenodd" fill-opacity="1" /><polyline clip-path="url(#clip840)" style="stroke:#3da44d; stroke-linecap:butt; stroke-linejoin:round; stroke-width:4; stroke-opacity:1; fill:none" points="
  289.884,250.738 433.805,250.738 
  "/>
<path clip-path="url(#clip840)" d="M471.056 236.05 L483.023 268.018 L478.509 268.018 L471.241 248.851 L462.306 268.018 L457.792 268.018 L469.157 243.157 L467.444 238.573 Q466.357 235.657 463.88 235.657 L461.657 235.657 L461.657 231.999 L464.366 232.046 Q469.597 232.115 471.056 236.05 Z" fill="#000000" fill-rule="evenodd" fill-opacity="1" /><path clip-path="url(#clip840)" d="M489.458 246.49 L519.134 246.49 L519.134 250.379 L489.458 250.379 L489.458 246.49 M489.458 255.934 L519.134 255.934 L519.134 259.869 L489.458 259.869 L489.458 255.934 Z" fill="#000000" fill-rule="evenodd" fill-opacity="1" /><path clip-path="url(#clip840)" d="M539.227 236.536 Q535.615 236.536 533.787 240.101 Q531.981 243.643 531.981 250.772 Q531.981 257.879 533.787 261.444 Q535.615 264.985 539.227 264.985 Q542.861 264.985 544.666 261.444 Q546.495 257.879 546.495 250.772 Q546.495 243.643 544.666 240.101 Q542.861 236.536 539.227 236.536 M539.227 232.833 Q545.037 232.833 548.092 237.439 Q551.171 242.022 551.171 250.772 Q551.171 259.499 548.092 264.106 Q545.037 268.689 539.227 268.689 Q533.416 268.689 530.338 264.106 Q527.282 259.499 527.282 250.772 Q527.282 242.022 530.338 237.439 Q533.416 232.833 539.227 232.833 Z" fill="#000000" fill-rule="evenodd" fill-opacity="1" /><path clip-path="url(#clip840)" d="M559.388 262.138 L564.273 262.138 L564.273 268.018 L559.388 268.018 L559.388 262.138 Z" fill="#000000" fill-rule="evenodd" fill-opacity="1" /><path clip-path="url(#clip840)" d="M584.458 236.536 Q580.847 236.536 579.018 240.101 Q577.212 243.643 577.212 250.772 Q577.212 257.879 579.018 261.444 Q580.847 264.985 584.458 264.985 Q588.092 264.985 589.898 261.444 Q591.726 257.879 591.726 250.772 Q591.726 243.643 589.898 240.101 Q588.092 236.536 584.458 236.536 M584.458 232.833 Q590.268 232.833 593.323 237.439 Q596.402 242.022 596.402 250.772 Q596.402 259.499 593.323 264.106 Q590.268 268.689 584.458 268.689 Q578.648 268.689 575.569 264.106 Q572.513 259.499 572.513 250.772 Q572.513 242.022 575.569 237.439 Q578.648 232.833 584.458 232.833 Z" fill="#000000" fill-rule="evenodd" fill-opacity="1" /><path clip-path="url(#clip840)" d="M605.43 264.082 L613.069 264.082 L613.069 237.717 L604.759 239.383 L604.759 235.124 L613.022 233.458 L617.698 233.458 L617.698 264.082 L625.337 264.082 L625.337 268.018 L605.43 268.018 L605.43 264.082 Z" fill="#000000" fill-rule="evenodd" fill-opacity="1" /></svg>
