<?xml version="1.0" encoding="utf-8"?>
<svg xmlns="http://www.w3.org/2000/svg" xmlns:xlink="http://www.w3.org/1999/xlink" width="600" height="400" viewBox="0 0 2400 1600">
<defs>
  <clipPath id="clip000">
    <rect x="0" y="0" width="2400" height="1600"/>
  </clipPath>
</defs>
<path clip-path="url(#clip000)" d="
M0 1600 L2400 1600 L2400 0 L0 0  Z
  " fill="#ffffff" fill-rule="evenodd" fill-opacity="1"/>
<defs>
  <clipPath id="clip001">
    <rect x="480" y="0" width="1681" height="1600"/>
  </clipPath>
</defs>
<path clip-path="url(#clip000)" d="
M193.936 1486.45 L2352.76 1486.45 L2352.76 47.2441 L193.936 47.2441  Z
  " fill="#ffffff" fill-rule="evenodd" fill-opacity="1"/>
<defs>
  <clipPath id="clip002">
    <rect x="193" y="47" width="2160" height="1440"/>
  </clipPath>
</defs>
<polyline clip-path="url(#clip002)" style="stroke:#000000; stroke-linecap:butt; stroke-linejoin:round; stroke-width:2; stroke-opacity:0.1; fill:none" points="
  255.035,1486.45 255.035,47.2441 
  "/>
<polyline clip-path="url(#clip002)" style="stroke:#000000; stroke-linecap:butt; stroke-linejoin:round; stroke-width:2; stroke-opacity:0.1; fill:none" points="
  764.19,1486.45 764.19,47.2441 
  "/>
<polyline clip-path="url(#clip002)" style="stroke:#000000; stroke-linecap:butt; stroke-linejoin:round; stroke-width:2; stroke-opacity:0.1; fill:none" points="
  1273.35,1486.45 1273.35,47.2441 
  "/>
<polyline clip-path="url(#clip002)" style="stroke:#000000; stroke-linecap:butt; stroke-linejoin:round; stroke-width:2; stroke-opacity:0.1; fill:none" points="
  1782.5,1486.45 1782.5,47.2441 
  "/>
<polyline clip-path="url(#clip002)" style="stroke:#000000; stroke-linecap:butt; stroke-linejoin:round; stroke-width:2; stroke-opacity:0.1; fill:none" points="
  2291.66,1486.45 2291.66,47.2441 
  "/>
<polyline clip-path="url(#clip000)" style="stroke:#000000; stroke-linecap:butt; stroke-linejoin:round; stroke-width:4; stroke-opacity:1; fill:none" points="
  193.936,1486.45 2352.76,1486.45 
  "/>
<polyline clip-path="url(#clip000)" style="stroke:#000000; stroke-linecap:butt; stroke-linejoin:round; stroke-width:4; stroke-opacity:1; fill:none" points="
  255.035,1486.45 255.035,1467.55 
  "/>
<polyline clip-path="url(#clip000)" style="stroke:#000000; stroke-linecap:butt; stroke-linejoin:round; stroke-width:4; stroke-opacity:1; fill:none" points="
  764.19,1486.45 764.19,1467.55 
  "/>
<polyline clip-path="url(#clip000)" style="stroke:#000000; stroke-linecap:butt; stroke-linejoin:round; stroke-width:4; stroke-opacity:1; fill:none" points="
  1273.35,1486.45 1273.35,1467.55 
  "/>
<polyline clip-path="url(#clip000)" style="stroke:#000000; stroke-linecap:butt; stroke-linejoin:round; stroke-width:4; stroke-opacity:1; fill:none" points="
  1782.5,1486.45 1782.5,1467.55 
  "/>
<polyline clip-path="url(#clip000)" style="stroke:#000000; stroke-linecap:butt; stroke-linejoin:round; stroke-width:4; stroke-opacity:1; fill:none" points="
  2291.66,1486.45 2291.66,1467.55 
  "/>
<path clip-path="url(#clip000)" d="M217.338 1517.37 Q213.727 1517.37 211.898 1520.93 Q210.093 1524.47 210.093 1531.6 Q210.093 1538.71 211.898 1542.27 Q213.727 1545.82 217.338 1545.82 Q220.972 1545.82 222.778 1542.27 Q224.607 1538.71 224.607 1531.6 Q224.607 1524.47 222.778 1520.93 Q220.972 1517.37 217.338 1517.37 M217.338 1513.66 Q223.148 1513.66 226.204 1518.27 Q229.282 1522.85 229.282 1531.6 Q229.282 1540.33 226.204 1544.94 Q223.148 1549.52 217.338 1549.52 Q211.528 1549.52 208.449 1544.94 Q205.394 1540.33 205.394 1531.6 Q205.394 1522.85 208.449 1518.27 Q211.528 1513.66 217.338 1513.66 Z" fill="#000000" fill-rule="evenodd" fill-opacity="1" /><path clip-path="url(#clip000)" d="M237.5 1542.97 L242.384 1542.97 L242.384 1548.85 L237.5 1548.85 L237.5 1542.97 Z" fill="#000000" fill-rule="evenodd" fill-opacity="1" /><path clip-path="url(#clip000)" d="M262.569 1517.37 Q258.958 1517.37 257.13 1520.93 Q255.324 1524.47 255.324 1531.6 Q255.324 1538.71 257.13 1542.27 Q258.958 1545.82 262.569 1545.82 Q266.204 1545.82 268.009 1542.27 Q269.838 1538.71 269.838 1531.6 Q269.838 1524.47 268.009 1520.93 Q266.204 1517.37 262.569 1517.37 M262.569 1513.66 Q268.38 1513.66 271.435 1518.27 Q274.514 1522.85 274.514 1531.6 Q274.514 1540.33 271.435 1544.94 Q268.38 1549.52 262.569 1549.52 Q256.759 1549.52 253.681 1544.94 Q250.625 1540.33 250.625 1531.6 Q250.625 1522.85 253.681 1518.27 Q256.759 1513.66 262.569 1513.66 Z" fill="#000000" fill-rule="evenodd" fill-opacity="1" /><path clip-path="url(#clip000)" d="M292.731 1517.37 Q289.12 1517.37 287.291 1520.93 Q285.486 1524.47 285.486 1531.6 Q285.486 1538.71 287.291 1542.27 Q289.12 1545.82 292.731 1545.82 Q296.365 1545.82 298.171 1542.27 Q300 1538.71 300 1531.6 Q300 1524.47 298.171 1520.93 Q296.365 1517.37 292.731 1517.37 M292.731 1513.66 Q298.541 1513.66 301.597 1518.27 Q304.676 1522.85 304.676 1531.6 Q304.676 1540.33 301.597 1544.94 Q298.541 1549.52 292.731 1549.52 Q286.921 1549.52 283.842 1544.94 Q280.787 1540.33 280.787 1531.6 Q280.787 1522.85 283.842 1518.27 Q286.921 1513.66 292.731 1513.66 Z" fill="#000000" fill-rule="evenodd" fill-opacity="1" /><path clip-path="url(#clip000)" d="M726.991 1517.37 Q723.38 1517.37 721.552 1520.93 Q719.746 1524.47 719.746 1531.6 Q719.746 1538.71 721.552 1542.27 Q723.38 1545.82 726.991 1545.82 Q730.626 1545.82 732.431 1542.27 Q734.26 1538.71 734.26 1531.6 Q734.26 1524.47 732.431 1520.93 Q730.626 1517.37 726.991 1517.37 M726.991 1513.66 Q732.802 1513.66 735.857 1518.27 Q738.936 1522.85 738.936 1531.6 Q738.936 1540.33 735.857 1544.94 Q732.802 1549.52 726.991 1549.52 Q721.181 1549.52 718.103 1544.94 Q715.047 1540.33 715.047 1531.6 Q715.047 1522.85 718.103 1518.27 Q721.181 1513.66 726.991 1513.66 Z" fill="#000000" fill-rule="evenodd" fill-opacity="1" /><path clip-path="url(#clip000)" d="M747.153 1542.97 L752.038 1542.97 L752.038 1548.85 L747.153 1548.85 L747.153 1542.97 Z" fill="#000000" fill-rule="evenodd" fill-opacity="1" /><path clip-path="url(#clip000)" d="M766.25 1544.91 L782.57 1544.91 L782.57 1548.85 L760.626 1548.85 L760.626 1544.91 Q763.288 1542.16 767.871 1537.53 Q772.477 1532.88 773.658 1531.53 Q775.903 1529.01 776.783 1527.27 Q777.686 1525.51 777.686 1523.82 Q777.686 1521.07 775.741 1519.33 Q773.82 1517.6 770.718 1517.6 Q768.519 1517.6 766.065 1518.36 Q763.635 1519.13 760.857 1520.68 L760.857 1515.95 Q763.681 1514.82 766.135 1514.24 Q768.588 1513.66 770.625 1513.66 Q775.996 1513.66 779.19 1516.35 Q782.385 1519.03 782.385 1523.52 Q782.385 1525.65 781.574 1527.57 Q780.787 1529.47 778.681 1532.07 Q778.102 1532.74 775 1535.95 Q771.899 1539.15 766.25 1544.91 Z" fill="#000000" fill-rule="evenodd" fill-opacity="1" /><path clip-path="url(#clip000)" d="M792.431 1514.29 L810.787 1514.29 L810.787 1518.22 L796.713 1518.22 L796.713 1526.7 Q797.732 1526.35 798.75 1526.19 Q799.769 1526 800.787 1526 Q806.574 1526 809.954 1529.17 Q813.334 1532.34 813.334 1537.76 Q813.334 1543.34 809.861 1546.44 Q806.389 1549.52 800.07 1549.52 Q797.894 1549.52 795.625 1549.15 Q793.38 1548.78 790.973 1548.04 L790.973 1543.34 Q793.056 1544.47 795.278 1545.03 Q797.5 1545.58 799.977 1545.58 Q803.982 1545.58 806.32 1543.48 Q808.658 1541.37 808.658 1537.76 Q808.658 1534.15 806.32 1532.04 Q803.982 1529.94 799.977 1529.94 Q798.102 1529.94 796.227 1530.35 Q794.375 1530.77 792.431 1531.65 L792.431 1514.29 Z" fill="#000000" fill-rule="evenodd" fill-opacity="1" /><path clip-path="url(#clip000)" d="M1235.65 1517.37 Q1232.04 1517.37 1230.21 1520.93 Q1228.4 1524.47 1228.4 1531.6 Q1228.4 1538.71 1230.21 1542.27 Q1232.04 1545.82 1235.65 1545.82 Q1239.28 1545.82 1241.09 1542.27 Q1242.92 1538.71 1242.92 1531.6 Q1242.92 1524.47 1241.09 1520.93 Q1239.28 1517.37 1235.65 1517.37 M1235.65 1513.66 Q1241.46 1513.66 1244.52 1518.27 Q1247.59 1522.85 1247.59 1531.6 Q1247.59 1540.33 1244.52 1544.94 Q1241.46 1549.52 1235.65 1549.52 Q1229.84 1549.52 1226.76 1544.94 Q1223.71 1540.33 1223.71 1531.6 Q1223.71 1522.85 1226.76 1518.27 Q1229.84 1513.66 1235.65 1513.66 Z" fill="#000000" fill-rule="evenodd" fill-opacity="1" /><path clip-path="url(#clip000)" d="M1255.81 1542.97 L1260.7 1542.97 L1260.7 1548.85 L1255.81 1548.85 L1255.81 1542.97 Z" fill="#000000" fill-rule="evenodd" fill-opacity="1" /><path clip-path="url(#clip000)" d="M1270.93 1514.29 L1289.28 1514.29 L1289.28 1518.22 L1275.21 1518.22 L1275.21 1526.7 Q1276.23 1526.35 1277.25 1526.19 Q1278.26 1526 1279.28 1526 Q1285.07 1526 1288.45 1529.17 Q1291.83 1532.34 1291.83 1537.76 Q1291.83 1543.34 1288.36 1546.44 Q1284.89 1549.52 1278.57 1549.52 Q1276.39 1549.52 1274.12 1549.15 Q1271.88 1548.78 1269.47 1548.04 L1269.47 1543.34 Q1271.55 1544.47 1273.77 1545.03 Q1276 1545.58 1278.47 1545.58 Q1282.48 1545.58 1284.82 1543.48 Q1287.15 1541.37 1287.15 1537.76 Q1287.15 1534.15 1284.82 1532.04 Q1282.48 1529.94 1278.47 1529.94 Q1276.6 1529.94 1274.72 1530.35 Q1272.87 1530.77 1270.93 1531.65 L1270.93 1514.29 Z" fill="#000000" fill-rule="evenodd" fill-opacity="1" /><path clip-path="url(#clip000)" d="M1311.04 1517.37 Q1307.43 1517.37 1305.6 1520.93 Q1303.8 1524.47 1303.8 1531.6 Q1303.8 1538.71 1305.6 1542.27 Q1307.43 1545.82 1311.04 1545.82 Q1314.68 1545.82 1316.48 1542.27 Q1318.31 1538.71 1318.31 1531.6 Q1318.31 1524.47 1316.48 1520.93 Q1314.68 1517.37 1311.04 1517.37 M1311.04 1513.66 Q1316.85 1513.66 1319.91 1518.27 Q1322.99 1522.85 1322.99 1531.6 Q1322.99 1540.33 1319.91 1544.94 Q1316.85 1549.52 1311.04 1549.52 Q1305.23 1549.52 1302.15 1544.94 Q1299.1 1540.33 1299.1 1531.6 Q1299.1 1522.85 1302.15 1518.27 Q1305.23 1513.66 1311.04 1513.66 Z" fill="#000000" fill-rule="evenodd" fill-opacity="1" /><path clip-path="url(#clip000)" d="M1745.3 1517.37 Q1741.69 1517.37 1739.86 1520.93 Q1738.06 1524.47 1738.06 1531.6 Q1738.06 1538.71 1739.86 1542.27 Q1741.69 1545.82 1745.3 1545.82 Q1748.94 1545.82 1750.74 1542.27 Q1752.57 1538.71 1752.57 1531.6 Q1752.57 1524.47 1750.74 1520.93 Q1748.94 1517.37 1745.3 1517.37 M1745.3 1513.66 Q1751.11 1513.66 1754.17 1518.27 Q1757.25 1522.85 1757.25 1531.6 Q1757.25 1540.33 1754.17 1544.94 Q1751.11 1549.52 1745.3 1549.52 Q1739.49 1549.52 1736.41 1544.94 Q1733.36 1540.33 1733.36 1531.6 Q1733.36 1522.85 1736.41 1518.27 Q1739.49 1513.66 1745.3 1513.66 Z" fill="#000000" fill-rule="evenodd" fill-opacity="1" /><path clip-path="url(#clip000)" d="M1765.46 1542.97 L1770.35 1542.97 L1770.35 1548.85 L1765.46 1548.85 L1765.46 1542.97 Z" fill="#000000" fill-rule="evenodd" fill-opacity="1" /><path clip-path="url(#clip000)" d="M1779.35 1514.29 L1801.58 1514.29 L1801.58 1516.28 L1789.03 1548.85 L1784.15 1548.85 L1795.95 1518.22 L1779.35 1518.22 L1779.35 1514.29 Z" fill="#000000" fill-rule="evenodd" fill-opacity="1" /><path clip-path="url(#clip000)" d="M1810.74 1514.29 L1829.1 1514.29 L1829.1 1518.22 L1815.02 1518.22 L1815.02 1526.7 Q1816.04 1526.35 1817.06 1526.19 Q1818.08 1526 1819.1 1526 Q1824.89 1526 1828.27 1529.17 Q1831.64 1532.34 1831.64 1537.76 Q1831.64 1543.34 1828.17 1546.44 Q1824.7 1549.52 1818.38 1549.52 Q1816.21 1549.52 1813.94 1549.15 Q1811.69 1548.78 1809.28 1548.04 L1809.28 1543.34 Q1811.37 1544.47 1813.59 1545.03 Q1815.81 1545.58 1818.29 1545.58 Q1822.29 1545.58 1824.63 1543.48 Q1826.97 1541.37 1826.97 1537.76 Q1826.97 1534.15 1824.63 1532.04 Q1822.29 1529.94 1818.29 1529.94 Q1816.41 1529.94 1814.54 1530.35 Q1812.69 1530.77 1810.74 1531.65 L1810.74 1514.29 Z" fill="#000000" fill-rule="evenodd" fill-opacity="1" /><path clip-path="url(#clip000)" d="M2243.73 1544.91 L2251.37 1544.91 L2251.37 1518.55 L2243.06 1520.21 L2243.06 1515.95 L2251.32 1514.29 L2256 1514.29 L2256 1544.91 L2263.64 1544.91 L2263.64 1548.85 L2243.73 1548.85 L2243.73 1544.91 Z" fill="#000000" fill-rule="evenodd" fill-opacity="1" /><path clip-path="url(#clip000)" d="M2273.08 1542.97 L2277.97 1542.97 L2277.97 1548.85 L2273.08 1548.85 L2273.08 1542.97 Z" fill="#000000" fill-rule="evenodd" fill-opacity="1" /><path clip-path="url(#clip000)" d="M2298.15 1517.37 Q2294.54 1517.37 2292.71 1520.93 Q2290.9 1524.47 2290.9 1531.6 Q2290.9 1538.71 2292.71 1542.27 Q2294.54 1545.82 2298.15 1545.82 Q2301.78 1545.82 2303.59 1542.27 Q2305.42 1538.71 2305.42 1531.6 Q2305.42 1524.47 2303.59 1520.93 Q2301.78 1517.37 2298.15 1517.37 M2298.15 1513.66 Q2303.96 1513.66 2307.02 1518.27 Q2310.09 1522.85 2310.09 1531.6 Q2310.09 1540.33 2307.02 1544.94 Q2303.96 1549.52 2298.15 1549.52 Q2292.34 1549.52 2289.26 1544.94 Q2286.21 1540.33 2286.21 1531.6 Q2286.21 1522.85 2289.26 1518.27 Q2292.34 1513.66 2298.15 1513.66 Z" fill="#000000" fill-rule="evenodd" fill-opacity="1" /><path clip-path="url(#clip000)" d="M2328.31 1517.37 Q2324.7 1517.37 2322.87 1520.93 Q2321.07 1524.47 2321.07 1531.6 Q2321.07 1538.71 2322.87 1542.27 Q2324.7 1545.82 2328.31 1545.82 Q2331.95 1545.82 2333.75 1542.27 Q2335.58 1538.71 2335.58 1531.6 Q2335.58 1524.47 2333.75 1520.93 Q2331.95 1517.37 2328.31 1517.37 M2328.31 1513.66 Q2334.12 1513.66 2337.18 1518.27 Q2340.26 1522.85 2340.26 1531.6 Q2340.26 1540.33 2337.18 1544.94 Q2334.12 1549.52 2328.31 1549.52 Q2322.5 1549.52 2319.42 1544.94 Q2316.37 1540.33 2316.37 1531.6 Q2316.37 1522.85 2319.42 1518.27 Q2322.5 1513.66 2328.31 1513.66 Z" fill="#000000" fill-rule="evenodd" fill-opacity="1" /><polyline clip-path="url(#clip002)" style="stroke:#000000; stroke-linecap:butt; stroke-linejoin:round; stroke-width:2; stroke-opacity:0.1; fill:none" points="
  193.936,1445.72 2352.76,1445.72 
  "/>
<polyline clip-path="url(#clip002)" style="stroke:#000000; stroke-linecap:butt; stroke-linejoin:round; stroke-width:2; stroke-opacity:0.1; fill:none" points="
  193.936,1106.28 2352.76,1106.28 
  "/>
<polyline clip-path="url(#clip002)" style="stroke:#000000; stroke-linecap:butt; stroke-linejoin:round; stroke-width:2; stroke-opacity:0.1; fill:none" points="
  193.936,766.846 2352.76,766.846 
  "/>
<polyline clip-path="url(#clip002)" style="stroke:#000000; stroke-linecap:butt; stroke-linejoin:round; stroke-width:2; stroke-opacity:0.1; fill:none" points="
  193.936,427.411 2352.76,427.411 
  "/>
<polyline clip-path="url(#clip002)" style="stroke:#000000; stroke-linecap:butt; stroke-linejoin:round; stroke-width:2; stroke-opacity:0.1; fill:none" points="
  193.936,87.9763 2352.76,87.9763 
  "/>
<polyline clip-path="url(#clip000)" style="stroke:#000000; stroke-linecap:butt; stroke-linejoin:round; stroke-width:4; stroke-opacity:1; fill:none" points="
  193.936,1486.45 193.936,47.2441 
  "/>
<polyline clip-path="url(#clip000)" style="stroke:#000000; stroke-linecap:butt; stroke-linejoin:round; stroke-width:4; stroke-opacity:1; fill:none" points="
  193.936,1445.72 212.834,1445.72 
  "/>
<polyline clip-path="url(#clip000)" style="stroke:#000000; stroke-linecap:butt; stroke-linejoin:round; stroke-width:4; stroke-opacity:1; fill:none" points="
  193.936,1106.28 212.834,1106.28 
  "/>
<polyline clip-path="url(#clip000)" style="stroke:#000000; stroke-linecap:butt; stroke-linejoin:round; stroke-width:4; stroke-opacity:1; fill:none" points="
  193.936,766.846 212.834,766.846 
  "/>
<polyline clip-path="url(#clip000)" style="stroke:#000000; stroke-linecap:butt; stroke-linejoin:round; stroke-width:4; stroke-opacity:1; fill:none" points="
  193.936,427.411 212.834,427.411 
  "/>
<polyline clip-path="url(#clip000)" style="stroke:#000000; stroke-linecap:butt; stroke-linejoin:round; stroke-width:4; stroke-opacity:1; fill:none" points="
  193.936,87.9763 212.834,87.9763 
  "/>
<path clip-path="url(#clip000)" d="M50.9921 1446.17 L80.6679 1446.17 L80.6679 1450.1 L50.9921 1450.1 L50.9921 1446.17 Z" fill="#000000" fill-rule="evenodd" fill-opacity="1" /><path clip-path="url(#clip000)" d="M91.5706 1459.06 L99.2095 1459.06 L99.2095 1432.69 L90.8993 1434.36 L90.8993 1430.1 L99.1632 1428.44 L103.839 1428.44 L103.839 1459.06 L111.478 1459.06 L111.478 1463 L91.5706 1463 L91.5706 1459.06 Z" fill="#000000" fill-rule="evenodd" fill-opacity="1" /><path clip-path="url(#clip000)" d="M120.922 1457.12 L125.807 1457.12 L125.807 1463 L120.922 1463 L120.922 1457.12 Z" fill="#000000" fill-rule="evenodd" fill-opacity="1" /><path clip-path="url(#clip000)" d="M145.992 1431.51 Q142.381 1431.51 140.552 1435.08 Q138.746 1438.62 138.746 1445.75 Q138.746 1452.86 140.552 1456.42 Q142.381 1459.96 145.992 1459.96 Q149.626 1459.96 151.431 1456.42 Q153.26 1452.86 153.26 1445.75 Q153.26 1438.62 151.431 1435.08 Q149.626 1431.51 145.992 1431.51 M145.992 1427.81 Q151.802 1427.81 154.857 1432.42 Q157.936 1437 157.936 1445.75 Q157.936 1454.48 154.857 1459.08 Q151.802 1463.67 145.992 1463.67 Q140.181 1463.67 137.103 1459.08 Q134.047 1454.48 134.047 1445.75 Q134.047 1437 137.103 1432.42 Q140.181 1427.81 145.992 1427.81 Z" fill="#000000" fill-rule="evenodd" fill-opacity="1" /><path clip-path="url(#clip000)" d="M51.9875 1106.73 L81.6633 1106.73 L81.6633 1110.67 L51.9875 1110.67 L51.9875 1106.73 Z" fill="#000000" fill-rule="evenodd" fill-opacity="1" /><path clip-path="url(#clip000)" d="M101.756 1092.08 Q98.1447 1092.08 96.316 1095.64 Q94.5104 1099.19 94.5104 1106.32 Q94.5104 1113.42 96.316 1116.99 Q98.1447 1120.53 101.756 1120.53 Q105.39 1120.53 107.196 1116.99 Q109.024 1113.42 109.024 1106.32 Q109.024 1099.19 107.196 1095.64 Q105.39 1092.08 101.756 1092.08 M101.756 1088.38 Q107.566 1088.38 110.621 1092.98 Q113.7 1097.57 113.7 1106.32 Q113.7 1115.04 110.621 1119.65 Q107.566 1124.23 101.756 1124.23 Q95.9456 1124.23 92.8669 1119.65 Q89.8114 1115.04 89.8114 1106.32 Q89.8114 1097.57 92.8669 1092.98 Q95.9456 1088.38 101.756 1088.38 Z" fill="#000000" fill-rule="evenodd" fill-opacity="1" /><path clip-path="url(#clip000)" d="M121.918 1117.68 L126.802 1117.68 L126.802 1123.56 L121.918 1123.56 L121.918 1117.68 Z" fill="#000000" fill-rule="evenodd" fill-opacity="1" /><path clip-path="url(#clip000)" d="M137.033 1089 L155.39 1089 L155.39 1092.94 L141.316 1092.94 L141.316 1101.41 Q142.334 1101.06 143.353 1100.9 Q144.371 1100.71 145.39 1100.71 Q151.177 1100.71 154.556 1103.89 Q157.936 1107.06 157.936 1112.47 Q157.936 1118.05 154.464 1121.15 Q150.992 1124.23 144.672 1124.23 Q142.496 1124.23 140.228 1123.86 Q137.982 1123.49 135.575 1122.75 L135.575 1118.05 Q137.658 1119.19 139.881 1119.74 Q142.103 1120.3 144.58 1120.3 Q148.584 1120.3 150.922 1118.19 Q153.26 1116.08 153.26 1112.47 Q153.26 1108.86 150.922 1106.76 Q148.584 1104.65 144.58 1104.65 Q142.705 1104.65 140.83 1105.07 Q138.978 1105.48 137.033 1106.36 L137.033 1089 Z" fill="#000000" fill-rule="evenodd" fill-opacity="1" /><path clip-path="url(#clip000)" d="M100.76 752.645 Q97.1493 752.645 95.3206 756.209 Q93.515 759.751 93.515 766.881 Q93.515 773.987 95.3206 777.552 Q97.1493 781.094 100.76 781.094 Q104.395 781.094 106.2 777.552 Q108.029 773.987 108.029 766.881 Q108.029 759.751 106.2 756.209 Q104.395 752.645 100.76 752.645 M100.76 748.941 Q106.571 748.941 109.626 753.547 Q112.705 758.131 112.705 766.881 Q112.705 775.608 109.626 780.214 Q106.571 784.797 100.76 784.797 Q94.9502 784.797 91.8715 780.214 Q88.816 775.608 88.816 766.881 Q88.816 758.131 91.8715 753.547 Q94.9502 748.941 100.76 748.941 Z" fill="#000000" fill-rule="evenodd" fill-opacity="1" /><path clip-path="url(#clip000)" d="M120.922 778.246 L125.807 778.246 L125.807 784.126 L120.922 784.126 L120.922 778.246 Z" fill="#000000" fill-rule="evenodd" fill-opacity="1" /><path clip-path="url(#clip000)" d="M145.992 752.645 Q142.381 752.645 140.552 756.209 Q138.746 759.751 138.746 766.881 Q138.746 773.987 140.552 777.552 Q142.381 781.094 145.992 781.094 Q149.626 781.094 151.431 777.552 Q153.26 773.987 153.26 766.881 Q153.26 759.751 151.431 756.209 Q149.626 752.645 145.992 752.645 M145.992 748.941 Q151.802 748.941 154.857 753.547 Q157.936 758.131 157.936 766.881 Q157.936 775.608 154.857 780.214 Q151.802 784.797 145.992 784.797 Q140.181 784.797 137.103 780.214 Q134.047 775.608 134.047 766.881 Q134.047 758.131 137.103 753.547 Q140.181 748.941 145.992 748.941 Z" fill="#000000" fill-rule="evenodd" fill-opacity="1" /><path clip-path="url(#clip000)" d="M101.756 413.21 Q98.1447 413.21 96.316 416.775 Q94.5104 420.316 94.5104 427.446 Q94.5104 434.552 96.316 438.117 Q98.1447 441.659 101.756 441.659 Q105.39 441.659 107.196 438.117 Q109.024 434.552 109.024 427.446 Q109.024 420.316 107.196 416.775 Q105.39 413.21 101.756 413.21 M101.756 409.506 Q107.566 409.506 110.621 414.113 Q113.7 418.696 113.7 427.446 Q113.7 436.173 110.621 440.779 Q107.566 445.362 101.756 445.362 Q95.9456 445.362 92.8669 440.779 Q89.8114 436.173 89.8114 427.446 Q89.8114 418.696 92.8669 414.113 Q95.9456 409.506 101.756 409.506 Z" fill="#000000" fill-rule="evenodd" fill-opacity="1" /><path clip-path="url(#clip000)" d="M121.918 438.812 L126.802 438.812 L126.802 444.691 L121.918 444.691 L121.918 438.812 Z" fill="#000000" fill-rule="evenodd" fill-opacity="1" /><path clip-path="url(#clip000)" d="M137.033 410.131 L155.39 410.131 L155.39 414.066 L141.316 414.066 L141.316 422.538 Q142.334 422.191 143.353 422.029 Q144.371 421.844 145.39 421.844 Q151.177 421.844 154.556 425.015 Q157.936 428.187 157.936 433.603 Q157.936 439.182 154.464 442.284 Q150.992 445.362 144.672 445.362 Q142.496 445.362 140.228 444.992 Q137.982 444.622 135.575 443.881 L135.575 439.182 Q137.658 440.316 139.881 440.872 Q142.103 441.427 144.58 441.427 Q148.584 441.427 150.922 439.321 Q153.26 437.214 153.26 433.603 Q153.26 429.992 150.922 427.886 Q148.584 425.779 144.58 425.779 Q142.705 425.779 140.83 426.196 Q138.978 426.613 137.033 427.492 L137.033 410.131 Z" fill="#000000" fill-rule="evenodd" fill-opacity="1" /><path clip-path="url(#clip000)" d="M91.5706 101.321 L99.2095 101.321 L99.2095 74.9555 L90.8993 76.6222 L90.8993 72.3629 L99.1632 70.6963 L103.839 70.6963 L103.839 101.321 L111.478 101.321 L111.478 105.256 L91.5706 105.256 L91.5706 101.321 Z" fill="#000000" fill-rule="evenodd" fill-opacity="1" /><path clip-path="url(#clip000)" d="M120.922 99.3767 L125.807 99.3767 L125.807 105.256 L120.922 105.256 L120.922 99.3767 Z" fill="#000000" fill-rule="evenodd" fill-opacity="1" /><path clip-path="url(#clip000)" d="M145.992 73.775 Q142.381 73.775 140.552 77.3398 Q138.746 80.8814 138.746 88.011 Q138.746 95.1174 140.552 98.6822 Q142.381 102.224 145.992 102.224 Q149.626 102.224 151.431 98.6822 Q153.26 95.1174 153.26 88.011 Q153.26 80.8814 151.431 77.3398 Q149.626 73.775 145.992 73.775 M145.992 70.0713 Q151.802 70.0713 154.857 74.6777 Q157.936 79.261 157.936 88.011 Q157.936 96.7378 154.857 101.344 Q151.802 105.928 145.992 105.928 Q140.181 105.928 137.103 101.344 Q134.047 96.7378 134.047 88.011 Q134.047 79.261 137.103 74.6777 Q140.181 70.0713 145.992 70.0713 Z" fill="#000000" fill-rule="evenodd" fill-opacity="1" /><polyline clip-path="url(#clip002)" style="stroke:#009af9; stroke-linecap:butt; stroke-linejoin:round; stroke-width:4; stroke-opacity:1; fill:none" points="
  255.035,1445.72 265.218,1426.95 275.401,1408.18 285.584,1389.41 295.767,1370.61 305.95,1351.8 316.133,1332.96 326.316,1314.11 336.5,1295.23 346.683,1276.33 
  356.866,1257.41 367.049,1238.46 377.232,1219.5 387.415,1200.52 397.598,1181.53 407.781,1162.53 417.964,1143.52 428.148,1124.52 438.331,1105.53 448.514,1086.54 
  458.697,1067.58 468.88,1048.64 479.063,1029.74 489.246,1010.87 499.429,992.058 509.612,973.301 519.796,954.61 529.979,935.992 540.162,917.458 550.345,899.015 
  560.528,880.674 570.711,862.443 580.894,844.33 591.077,826.346 601.261,808.5 611.444,790.799 621.627,773.254 631.81,755.874 641.993,738.666 652.176,721.639 
  662.359,704.803 672.542,688.164 682.725,671.73 692.909,655.51 703.092,639.51 713.275,623.737 723.458,608.199 733.641,592.901 743.824,577.85 754.007,563.051 
  764.19,548.51 774.373,534.231 784.557,520.219 794.74,506.478 804.923,493.013 815.106,479.826 825.289,466.921 835.472,454.3 845.655,441.967 855.838,429.922 
  866.021,418.168 876.205,406.705 886.388,395.536 896.571,384.66 906.754,374.077 916.937,363.788 927.12,353.793 937.303,344.09 947.486,334.68 957.669,325.56 
  967.853,316.729 978.036,308.186 988.219,299.928 998.402,291.954 1008.59,284.261 1018.77,276.847 1028.95,269.708 1039.13,262.842 1049.32,256.246 1059.5,249.916 
  1069.68,243.849 1079.87,238.042 1090.05,232.49 1100.23,227.19 1110.42,222.137 1120.6,217.329 1130.78,212.76 1140.97,208.426 1151.15,204.324 1161.33,200.448 
  1171.51,196.794 1181.7,193.357 1191.88,190.134 1202.06,187.119 1212.25,184.308 1222.43,181.696 1232.61,179.278 1242.8,177.049 1252.98,175.005 1263.16,173.14 
  1273.35,171.45 1283.53,169.931 1293.71,168.576 1303.9,167.381 1314.08,166.341 1324.26,165.452 1334.44,164.708 1344.63,164.104 1354.81,163.635 1364.99,163.297 
  1375.18,163.084 1385.36,162.991 1395.54,163.014 1405.73,163.148 1415.91,163.387 1426.09,163.726 1436.28,164.161 1446.46,164.687 1456.64,165.298 1466.83,165.99 
  1477.01,166.759 1487.19,167.598 1497.37,168.503 1507.56,169.469 1517.74,170.491 1527.92,171.565 1538.11,172.685 1548.29,173.847 1558.47,175.046 1568.66,176.277 
  1578.84,177.535 1589.02,178.815 1599.21,180.114 1609.39,181.425 1619.57,182.744 1629.75,184.067 1639.94,185.388 1650.12,186.704 1660.3,188.009 1670.49,189.3 
  1680.67,190.571 1690.85,191.817 1701.04,193.035 1711.22,194.22 1721.4,195.368 1731.59,196.474 1741.77,197.533 1751.95,198.542 1762.14,199.497 1772.32,200.392 
  1782.5,201.224 1792.68,201.99 1802.87,202.683 1813.05,203.302 1823.23,203.841 1833.42,204.298 1843.6,204.667 1853.78,204.946 1863.97,205.13 1874.15,205.216 
  1884.33,205.201 1894.52,205.08 1904.7,204.851 1914.88,204.509 1925.07,204.053 1935.25,203.478 1945.43,202.781 1955.61,201.959 1965.8,201.009 1975.98,199.928 
  1986.16,198.713 1996.35,197.362 2006.53,195.871 2016.71,194.239 2026.9,192.461 2037.08,190.536 2047.26,188.461 2057.45,186.234 2067.63,183.852 2077.81,181.313 
  2087.99,178.614 2098.18,175.755 2108.36,172.731 2118.54,169.541 2128.73,166.184 2138.91,162.656 2149.09,158.956 2159.28,155.083 2169.46,151.033 2179.64,146.805 
  2189.83,142.397 2200.01,137.807 2210.19,133.033 2220.38,128.074 2230.56,122.926 2240.74,117.588 2250.92,112.059 2261.11,106.335 2271.29,100.415 2281.47,94.296 
  2291.66,87.9763 
  "/>
<polyline clip-path="url(#clip002)" style="stroke:#e26f46; stroke-linecap:butt; stroke-linejoin:round; stroke-width:4; stroke-opacity:1; fill:none" points="
  255.035,1269.1 265.218,1266.86 275.401,1264.55 285.584,1262.17 295.767,1259.72 305.95,1257.2 316.133,1254.62 326.316,1251.98 336.5,1249.28 346.683,1246.52 
  356.866,1243.7 367.049,1240.83 377.232,1237.91 387.415,1234.94 397.598,1231.92 407.781,1228.86 417.964,1225.76 428.148,1222.62 438.331,1219.44 448.514,1216.23 
  458.697,1213 468.88,1209.73 479.063,1206.44 489.246,1203.13 499.429,1199.81 509.612,1196.46 519.796,1193.11 529.979,1189.74 540.162,1186.36 550.345,1182.97 
  560.528,1179.58 570.711,1176.19 580.894,1172.79 591.077,1169.4 601.261,1166 611.444,1162.61 621.627,1159.23 631.81,1155.85 641.993,1152.48 652.176,1149.12 
  662.359,1145.77 672.542,1142.43 682.725,1139.1 692.909,1135.79 703.092,1132.49 713.275,1129.21 723.458,1125.94 733.641,1122.69 743.824,1119.46 754.007,1116.25 
  764.19,1113.05 774.373,1109.88 784.557,1106.72 794.74,1103.58 804.923,1100.47 815.106,1097.37 825.289,1094.29 835.472,1091.23 845.655,1088.19 855.838,1085.17 
  866.021,1082.17 876.205,1079.19 886.388,1076.22 896.571,1073.27 906.754,1070.34 916.937,1067.42 927.12,1064.52 937.303,1061.63 947.486,1058.76 957.669,1055.89 
  967.853,1053.04 978.036,1050.2 988.219,1047.36 998.402,1044.54 1008.59,1041.72 1018.77,1038.9 1028.95,1036.09 1039.13,1033.27 1049.32,1030.46 1059.5,1027.65 
  1069.68,1024.83 1079.87,1022.01 1090.05,1019.18 1100.23,1016.34 1110.42,1013.5 1120.6,1010.64 1130.78,1007.76 1140.97,1004.87 1151.15,1001.96 1161.33,999.033 
  1171.51,996.083 1181.7,993.108 1191.88,990.108 1202.06,987.08 1212.25,984.021 1222.43,980.931 1232.61,977.806 1242.8,974.646 1252.98,971.447 1263.16,968.208 
  1273.35,964.927 1283.53,961.602 1293.71,958.231 1303.9,954.812 1314.08,951.343 1324.26,947.823 1334.44,944.248 1344.63,940.619 1354.81,936.932 1364.99,933.186 
  1375.18,929.38 1385.36,925.512 1395.54,921.579 1405.73,917.582 1415.91,913.517 1426.09,909.384 1436.28,905.182 1446.46,900.908 1456.64,896.563 1466.83,892.143 
  1477.01,887.649 1487.19,883.08 1497.37,878.433 1507.56,873.709 1517.74,868.907 1527.92,864.024 1538.11,859.062 1548.29,854.019 1558.47,848.894 1568.66,843.687 
  1578.84,838.397 1589.02,833.024 1599.21,827.567 1609.39,822.026 1619.57,816.401 1629.75,810.692 1639.94,804.898 1650.12,799.019 1660.3,793.055 1670.49,787.006 
  1680.67,780.872 1690.85,774.654 1701.04,768.35 1711.22,761.961 1721.4,755.488 1731.59,748.93 1741.77,742.288 1751.95,735.562 1762.14,728.752 1772.32,721.859 
  1782.5,714.882 1792.68,707.822 1802.87,700.68 1813.05,693.455 1823.23,686.148 1833.42,678.759 1843.6,671.289 1853.78,663.737 1863.97,656.105 1874.15,648.392 
  1884.33,640.599 1894.52,632.726 1904.7,624.774 1914.88,616.742 1925.07,608.631 1935.25,600.441 1945.43,592.172 1955.61,583.826 1965.8,575.401 1975.98,566.898 
  1986.16,558.317 1996.35,549.659 2006.53,540.922 2016.71,532.108 2026.9,523.216 2037.08,514.246 2047.26,505.198 2057.45,496.072 2067.63,486.868 2077.81,477.587 
  2087.99,468.229 2098.18,458.795 2108.36,449.286 2118.54,439.703 2128.73,430.046 2138.91,420.317 2149.09,410.517 2159.28,400.645 2169.46,390.701 2179.64,380.682 
  2189.83,370.586 2200.01,360.407 2210.19,350.142 2220.38,339.781 2230.56,329.318 2240.74,318.741 2250.92,308.044 2261.11,297.215 2271.29,286.248 2281.47,275.134 
  2291.66,263.872 
  "/>
<polyline clip-path="url(#clip002)" style="stroke:#3da44d; stroke-linecap:butt; stroke-linejoin:round; stroke-width:4; stroke-opacity:1; fill:none" points="
  255.035,1445.72 265.218,1425.47 275.401,1405.21 285.584,1384.94 295.767,1364.65 305.95,1344.34 316.133,1324 326.316,1303.63 336.5,1283.23 346.683,1262.81 
  356.866,1242.35 367.049,1221.87 377.232,1201.36 387.415,1180.83 397.598,1160.29 407.781,1139.74 417.964,1119.18 428.148,1098.63 438.331,1078.09 448.514,1057.56 
  458.697,1037.06 468.88,1016.6 479.063,996.175 489.246,975.808 499.429,955.506 509.612,935.278 519.796,915.136 529.979,895.09 540.162,875.152 550.345,855.332 
  560.528,835.641 570.711,816.092 580.894,796.695 591.077,777.461 601.261,758.401 611.444,739.527 621.627,720.848 631.81,702.376 641.993,684.12 652.176,666.091 
  662.359,648.297 672.542,630.748 682.725,613.453 692.909,596.421 703.092,579.659 713.275,563.174 723.458,546.975 733.641,531.067 743.824,515.457 754.007,500.151 
  764.19,485.153 774.373,470.468 784.557,456.101 794.74,442.056 804.923,428.335 815.106,414.941 825.289,401.877 835.472,389.145 845.655,376.746 855.838,364.68 
  866.021,352.95 876.205,341.554 886.388,330.492 896.571,319.765 906.754,309.37 916.937,299.307 927.12,289.573 937.303,280.168 947.486,271.088 957.669,262.331 
  967.853,253.895 978.036,245.776 988.219,237.97 998.402,230.475 1008.59,223.287 1018.77,216.401 1028.95,209.814 1039.13,203.521 1049.32,197.519 1059.5,191.802 
  1069.68,186.366 1079.87,181.206 1090.05,176.317 1100.23,171.695 1110.42,167.335 1120.6,163.23 1130.78,159.378 1140.97,155.771 1151.15,152.405 1161.33,149.275 
  1171.51,146.376 1181.7,143.701 1191.88,141.246 1202.06,139.006 1212.25,136.975 1222.43,135.148 1232.61,133.519 1242.8,132.083 1252.98,130.836 1263.16,129.77 
  1273.35,128.882 1283.53,128.165 1293.71,127.614 1303.9,127.225 1314.08,126.992 1324.26,126.909 1334.44,126.971 1344.63,127.173 1354.81,127.51 1364.99,127.977 
  1375.18,128.567 1385.36,129.277 1395.54,130.1 1405.73,131.032 1415.91,132.067 1426.09,133.2 1436.28,134.427 1446.46,135.741 1456.64,137.138 1466.83,138.613 
  1477.01,140.16 1487.19,141.774 1497.37,143.45 1507.56,145.184 1517.74,146.97 1527.92,148.802 1538.11,150.676 1548.29,152.587 1558.47,154.53 1568.66,156.499 
  1578.84,158.49 1589.02,160.497 1599.21,162.516 1609.39,164.542 1619.57,166.569 1629.75,168.592 1639.94,170.608 1650.12,172.61 1660.3,174.594 1670.49,176.554 
  1680.67,178.487 1690.85,180.387 1701.04,182.25 1711.22,184.07 1721.4,185.843 1731.59,187.565 1741.77,189.23 1751.95,190.833 1762.14,192.372 1772.32,193.84 
  1782.5,195.233 1792.68,196.547 1802.87,197.778 1813.05,198.92 1823.23,199.971 1833.42,200.925 1843.6,201.778 1853.78,202.526 1863.97,203.166 1874.15,203.693 
  1884.33,204.103 1894.52,204.393 1904.7,204.558 1914.88,204.595 1925.07,204.5 1935.25,204.27 1945.43,203.901 1955.61,203.39 1965.8,202.733 1975.98,201.927 
  1986.16,200.969 1996.35,199.855 2006.53,198.583 2016.71,197.15 2026.9,195.553 2037.08,193.788 2047.26,191.853 2057.45,189.746 2067.63,187.463 2077.81,185.003 
  2087.99,182.362 2098.18,179.537 2108.36,176.528 2118.54,173.33 2128.73,169.943 2138.91,166.363 2149.09,162.588 2159.28,158.615 2169.46,154.444 2179.64,150.07 
  2189.83,145.493 2200.01,140.71 2210.19,135.717 2220.38,130.514 2230.56,125.098 2240.74,119.466 2250.92,113.615 2261.11,107.544 2271.29,101.249 2281.47,94.7272 
  2291.66,87.9763 
  "/>
<path clip-path="url(#clip000)" d="
M1831.99 1438.47 L2280.8 1438.47 L2280.8 1231.11 L1831.99 1231.11  Z
  " fill="#ffffff" fill-rule="evenodd" fill-opacity="1"/>
<polyline clip-path="url(#clip000)" style="stroke:#000000; stroke-linecap:butt; stroke-linejoin:round; stroke-width:4; stroke-opacity:1; fill:none" points="
  1831.99,1438.47 2280.8,1438.47 2280.8,1231.11 1831.99,1231.11 1831.99,1438.47 
  "/>
<polyline clip-path="url(#clip000)" style="stroke:#009af9; stroke-linecap:butt; stroke-linejoin:round; stroke-width:4; stroke-opacity:1; fill:none" points="
  1855.98,1282.95 1999.9,1282.95 
  "/>
<path clip-path="url(#clip000)" d="M2037.15 1268.27 L2049.12 1300.23 L2044.6 1300.23 L2037.34 1281.07 L2028.4 1300.23 L2023.89 1300.23 L2035.25 1275.37 L2033.54 1270.79 Q2032.45 1267.87 2029.98 1267.87 L2027.75 1267.87 L2027.75 1264.22 L2030.46 1264.26 Q2035.69 1264.33 2037.15 1268.27 Z" fill="#000000" fill-rule="evenodd" fill-opacity="1" /><path clip-path="url(#clip000)" d="M2055.55 1278.71 L2085.23 1278.71 L2085.23 1282.6 L2055.55 1282.6 L2055.55 1278.71 M2055.55 1288.15 L2085.23 1288.15 L2085.23 1292.09 L2055.55 1292.09 L2055.55 1288.15 Z" fill="#000000" fill-rule="evenodd" fill-opacity="1" /><path clip-path="url(#clip000)" d="M2105.32 1268.75 Q2101.71 1268.75 2099.88 1272.32 Q2098.08 1275.86 2098.08 1282.99 Q2098.08 1290.1 2099.88 1293.66 Q2101.71 1297.2 2105.32 1297.2 Q2108.96 1297.2 2110.76 1293.66 Q2112.59 1290.1 2112.59 1282.99 Q2112.59 1275.86 2110.76 1272.32 Q2108.96 1268.75 2105.32 1268.75 M2105.32 1265.05 Q2111.13 1265.05 2114.19 1269.66 Q2117.27 1274.24 2117.27 1282.99 Q2117.27 1291.72 2114.19 1296.32 Q2111.13 1300.91 2105.32 1300.91 Q2099.51 1300.91 2096.43 1296.32 Q2093.38 1291.72 2093.38 1282.99 Q2093.38 1274.24 2096.43 1269.66 Q2099.51 1265.05 2105.32 1265.05 Z" fill="#000000" fill-rule="evenodd" fill-opacity="1" /><path clip-path="url(#clip000)" d="M2125.48 1294.35 L2130.37 1294.35 L2130.37 1300.23 L2125.48 1300.23 L2125.48 1294.35 Z" fill="#000000" fill-rule="evenodd" fill-opacity="1" /><path clip-path="url(#clip000)" d="M2150.55 1268.75 Q2146.94 1268.75 2145.11 1272.32 Q2143.31 1275.86 2143.31 1282.99 Q2143.31 1290.1 2145.11 1293.66 Q2146.94 1297.2 2150.55 1297.2 Q2154.19 1297.2 2155.99 1293.66 Q2157.82 1290.1 2157.82 1282.99 Q2157.82 1275.86 2155.99 1272.32 Q2154.19 1268.75 2150.55 1268.75 M2150.55 1265.05 Q2156.36 1265.05 2159.42 1269.66 Q2162.5 1274.24 2162.5 1282.99 Q2162.5 1291.72 2159.42 1296.32 Q2156.36 1300.91 2150.55 1300.91 Q2144.74 1300.91 2141.66 1296.32 Q2138.61 1291.72 2138.61 1282.99 Q2138.61 1274.24 2141.66 1269.66 Q2144.74 1265.05 2150.55 1265.05 Z" fill="#000000" fill-rule="evenodd" fill-opacity="1" /><path clip-path="url(#clip000)" d="M2180.72 1283.82 Q2177.38 1283.82 2175.46 1285.6 Q2173.56 1287.39 2173.56 1290.51 Q2173.56 1293.64 2175.46 1295.42 Q2177.38 1297.2 2180.72 1297.2 Q2184.05 1297.2 2185.97 1295.42 Q2187.89 1293.61 2187.89 1290.51 Q2187.89 1287.39 2185.97 1285.6 Q2184.07 1283.82 2180.72 1283.82 M2176.04 1281.83 Q2173.03 1281.09 2171.34 1279.03 Q2169.67 1276.97 2169.67 1274.01 Q2169.67 1269.86 2172.61 1267.46 Q2175.58 1265.05 2180.72 1265.05 Q2185.88 1265.05 2188.82 1267.46 Q2191.76 1269.86 2191.76 1274.01 Q2191.76 1276.97 2190.07 1279.03 Q2188.4 1281.09 2185.41 1281.83 Q2188.79 1282.62 2190.67 1284.91 Q2192.57 1287.2 2192.57 1290.51 Q2192.57 1295.54 2189.49 1298.22 Q2186.43 1300.91 2180.72 1300.91 Q2175 1300.91 2171.92 1298.22 Q2168.86 1295.54 2168.86 1290.51 Q2168.86 1287.2 2170.76 1284.91 Q2172.66 1282.62 2176.04 1281.83 M2174.33 1274.45 Q2174.33 1277.13 2175.99 1278.64 Q2177.68 1280.14 2180.72 1280.14 Q2183.72 1280.14 2185.41 1278.64 Q2187.13 1277.13 2187.13 1274.45 Q2187.13 1271.76 2185.41 1270.26 Q2183.72 1268.75 2180.72 1268.75 Q2177.68 1268.75 2175.99 1270.26 Q2174.33 1271.76 2174.33 1274.45 Z" fill="#000000" fill-rule="evenodd" fill-opacity="1" /><polyline clip-path="url(#clip000)" style="stroke:#e26f46; stroke-linecap:butt; stroke-linejoin:round; stroke-width:4; stroke-opacity:1; fill:none" points="
  1855.98,1334.79 1999.9,1334.79 
  "/>
<path clip-path="url(#clip000)" d="M2037.15 1320.11 L2049.12 1352.07 L2044.6 1352.07 L2037.34 1332.91 L2028.4 1352.07 L2023.89 1352.07 L2035.25 1327.21 L2033.54 1322.63 Q2032.45 1319.71 2029.98 1319.71 L2027.75 1319.71 L2027.75 1316.06 L2030.46 1316.1 Q2035.69 1316.17 2037.15 1320.11 Z" fill="#000000" fill-rule="evenodd" fill-opacity="1" /><path clip-path="url(#clip000)" d="M2055.55 1330.55 L2085.23 1330.55 L2085.23 1334.44 L2055.55 1334.44 L2055.55 1330.55 M2055.55 1339.99 L2085.23 1339.99 L2085.23 1343.93 L2055.55 1343.93 L2055.55 1339.99 Z" fill="#000000" fill-rule="evenodd" fill-opacity="1" /><path clip-path="url(#clip000)" d="M2105.32 1320.59 Q2101.71 1320.59 2099.88 1324.16 Q2098.08 1327.7 2098.08 1334.83 Q2098.08 1341.94 2099.88 1345.5 Q2101.71 1349.04 2105.32 1349.04 Q2108.96 1349.04 2110.76 1345.5 Q2112.59 1341.94 2112.59 1334.83 Q2112.59 1327.7 2110.76 1324.16 Q2108.96 1320.59 2105.32 1320.59 M2105.32 1316.89 Q2111.13 1316.89 2114.19 1321.5 Q2117.27 1326.08 2117.27 1334.83 Q2117.27 1343.56 2114.19 1348.16 Q2111.13 1352.75 2105.32 1352.75 Q2099.51 1352.75 2096.43 1348.16 Q2093.38 1343.56 2093.38 1334.83 Q2093.38 1326.08 2096.43 1321.5 Q2099.51 1316.89 2105.32 1316.89 Z" fill="#000000" fill-rule="evenodd" fill-opacity="1" /><path clip-path="url(#clip000)" d="M2125.48 1346.19 L2130.37 1346.19 L2130.37 1352.07 L2125.48 1352.07 L2125.48 1346.19 Z" fill="#000000" fill-rule="evenodd" fill-opacity="1" /><path clip-path="url(#clip000)" d="M2150.55 1320.59 Q2146.94 1320.59 2145.11 1324.16 Q2143.31 1327.7 2143.31 1334.83 Q2143.31 1341.94 2145.11 1345.5 Q2146.94 1349.04 2150.55 1349.04 Q2154.19 1349.04 2155.99 1345.5 Q2157.82 1341.94 2157.82 1334.83 Q2157.82 1327.7 2155.99 1324.16 Q2154.19 1320.59 2150.55 1320.59 M2150.55 1316.89 Q2156.36 1316.89 2159.42 1321.5 Q2162.5 1326.08 2162.5 1334.83 Q2162.5 1343.56 2159.42 1348.16 Q2156.36 1352.75 2150.55 1352.75 Q2144.74 1352.75 2141.66 1348.16 Q2138.61 1343.56 2138.61 1334.83 Q2138.61 1326.08 2141.66 1321.5 Q2144.74 1316.89 2150.55 1316.89 Z" fill="#000000" fill-rule="evenodd" fill-opacity="1" /><path clip-path="url(#clip000)" d="M2169.53 1317.51 L2191.76 1317.51 L2191.76 1319.51 L2179.21 1352.07 L2174.33 1352.07 L2186.13 1321.45 L2169.53 1321.45 L2169.53 1317.51 Z" fill="#000000" fill-rule="evenodd" fill-opacity="1" /><path clip-path="url(#clip000)" d="M2204.86 1346.19 L2209.56 1346.19 L2209.56 1352.07 L2204.86 1352.07 L2204.86 1346.19 M2209.42 1342.79 L2205 1342.79 L2205 1339.23 Q2205 1336.89 2205.65 1335.38 Q2206.29 1333.88 2208.38 1331.89 L2210.46 1329.83 Q2211.78 1328.6 2212.36 1327.51 Q2212.96 1326.43 2212.96 1325.29 Q2212.96 1323.23 2211.43 1321.96 Q2209.93 1320.69 2207.43 1320.69 Q2205.6 1320.69 2203.52 1321.5 Q2201.46 1322.31 2199.21 1323.86 L2199.21 1319.51 Q2201.39 1318.19 2203.61 1317.54 Q2205.85 1316.89 2208.24 1316.89 Q2212.5 1316.89 2215.07 1319.13 Q2217.66 1321.38 2217.66 1325.06 Q2217.66 1326.82 2216.83 1328.42 Q2215.99 1329.99 2213.91 1331.98 L2211.87 1333.97 Q2210.78 1335.06 2210.32 1335.69 Q2209.88 1336.29 2209.7 1336.87 Q2209.56 1337.35 2209.49 1338.05 Q2209.42 1338.74 2209.42 1339.94 L2209.42 1342.79 Z" fill="#000000" fill-rule="evenodd" fill-opacity="1" /><path clip-path="url(#clip000)" d="M2228.12 1346.19 L2232.82 1346.19 L2232.82 1352.07 L2228.12 1352.07 L2228.12 1346.19 M2228.12 1317.51 L2232.82 1317.51 L2232.82 1332.68 L2232.36 1340.94 L2228.61 1340.94 L2228.12 1332.68 L2228.12 1317.51 Z" fill="#000000" fill-rule="evenodd" fill-opacity="1" /><polyline clip-path="url(#clip000)" style="stroke:#3da44d; stroke-linecap:butt; stroke-linejoin:round; stroke-width:4; stroke-opacity:1; fill:none" points="
  1855.98,1386.63 1999.9,1386.63 
  "/>
<path clip-path="url(#clip000)" d="M2037.15 1371.95 L2049.12 1403.91 L2044.6 1403.91 L2037.34 1384.75 L2028.4 1403.91 L2023.89 1403.91 L2035.25 1379.05 L2033.54 1374.47 Q2032.45 1371.55 2029.98 1371.55 L2027.75 1371.55 L2027.75 1367.9 L2030.46 1367.94 Q2035.69 1368.01 2037.15 1371.95 Z" fill="#000000" fill-rule="evenodd" fill-opacity="1" /><path clip-path="url(#clip000)" d="M2055.55 1382.39 L2085.23 1382.39 L2085.23 1386.28 L2055.55 1386.28 L2055.55 1382.39 M2055.55 1391.83 L2085.23 1391.83 L2085.23 1395.77 L2055.55 1395.77 L2055.55 1391.83 Z" fill="#000000" fill-rule="evenodd" fill-opacity="1" /><path clip-path="url(#clip000)" d="M2105.32 1372.43 Q2101.71 1372.43 2099.88 1376 Q2098.08 1379.54 2098.08 1386.67 Q2098.08 1393.78 2099.88 1397.34 Q2101.71 1400.88 2105.32 1400.88 Q2108.96 1400.88 2110.76 1397.34 Q2112.59 1393.78 2112.59 1386.67 Q2112.59 1379.54 2110.76 1376 Q2108.96 1372.43 2105.32 1372.43 M2105.32 1368.73 Q2111.13 1368.73 2114.19 1373.34 Q2117.27 1377.92 2117.27 1386.67 Q2117.27 1395.4 2114.19 1400 Q2111.13 1404.59 2105.32 1404.59 Q2099.51 1404.59 2096.43 1400 Q2093.38 1395.4 2093.38 1386.67 Q2093.38 1377.92 2096.43 1373.34 Q2099.51 1368.73 2105.32 1368.73 Z" fill="#000000" fill-rule="evenodd" fill-opacity="1" /><path clip-path="url(#clip000)" d="M2125.48 1398.03 L2130.37 1398.03 L2130.37 1403.91 L2125.48 1403.91 L2125.48 1398.03 Z" fill="#000000" fill-rule="evenodd" fill-opacity="1" /><path clip-path="url(#clip000)" d="M2150.55 1372.43 Q2146.94 1372.43 2145.11 1376 Q2143.31 1379.54 2143.31 1386.67 Q2143.31 1393.78 2145.11 1397.34 Q2146.94 1400.88 2150.55 1400.88 Q2154.19 1400.88 2155.99 1397.34 Q2157.82 1393.78 2157.82 1386.67 Q2157.82 1379.54 2155.99 1376 Q2154.19 1372.43 2150.55 1372.43 M2150.55 1368.73 Q2156.36 1368.73 2159.42 1373.34 Q2162.5 1377.92 2162.5 1386.67 Q2162.5 1395.4 2159.42 1400 Q2156.36 1404.59 2150.55 1404.59 Q2144.74 1404.59 2141.66 1400 Q2138.61 1395.4 2138.61 1386.67 Q2138.61 1377.92 2141.66 1373.34 Q2144.74 1368.73 2150.55 1368.73 Z" fill="#000000" fill-rule="evenodd" fill-opacity="1" /><path clip-path="url(#clip000)" d="M2169.53 1369.35 L2191.76 1369.35 L2191.76 1371.35 L2179.21 1403.91 L2174.33 1403.91 L2186.13 1373.29 L2169.53 1373.29 L2169.53 1369.35 Z" fill="#000000" fill-rule="evenodd" fill-opacity="1" /></svg>
