<?xml version="1.0" encoding="utf-8"?>
<svg xmlns="http://www.w3.org/2000/svg" xmlns:xlink="http://www.w3.org/1999/xlink" width="600" height="400" viewBox="0 0 2400 1600">
<defs>
  <clipPath id="clip660">
    <rect x="0" y="0" width="2400" height="1600"/>
  </clipPath>
</defs>
<path clip-path="url(#clip660)" d="
M0 1600 L2400 1600 L2400 0 L0 0  Z
  " fill="#ffffff" fill-rule="evenodd" fill-opacity="1"/>
<defs>
  <clipPath id="clip661">
    <rect x="480" y="0" width="1681" height="1600"/>
  </clipPath>
</defs>
<path clip-path="url(#clip660)" d="
M180.66 1487.47 L2352.76 1487.47 L2352.76 121.675 L180.66 121.675  Z
  " fill="#ffffff" fill-rule="evenodd" fill-opacity="1"/>
<defs>
  <clipPath id="clip662">
    <rect x="180" y="121" width="2173" height="1367"/>
  </clipPath>
</defs>
<polyline clip-path="url(#clip662)" style="stroke:#000000; stroke-linecap:butt; stroke-linejoin:round; stroke-width:2; stroke-opacity:0.1; fill:none" points="
  242.135,1487.47 242.135,121.675 
  "/>
<polyline clip-path="url(#clip662)" style="stroke:#000000; stroke-linecap:butt; stroke-linejoin:round; stroke-width:2; stroke-opacity:0.1; fill:none" points="
  754.421,1487.47 754.421,121.675 
  "/>
<polyline clip-path="url(#clip662)" style="stroke:#000000; stroke-linecap:butt; stroke-linejoin:round; stroke-width:2; stroke-opacity:0.1; fill:none" points="
  1266.71,1487.47 1266.71,121.675 
  "/>
<polyline clip-path="url(#clip662)" style="stroke:#000000; stroke-linecap:butt; stroke-linejoin:round; stroke-width:2; stroke-opacity:0.1; fill:none" points="
  1778.99,1487.47 1778.99,121.675 
  "/>
<polyline clip-path="url(#clip662)" style="stroke:#000000; stroke-linecap:butt; stroke-linejoin:round; stroke-width:2; stroke-opacity:0.1; fill:none" points="
  2291.28,1487.47 2291.28,121.675 
  "/>
<polyline clip-path="url(#clip660)" style="stroke:#000000; stroke-linecap:butt; stroke-linejoin:round; stroke-width:4; stroke-opacity:1; fill:none" points="
  180.66,1487.47 2352.76,1487.47 
  "/>
<polyline clip-path="url(#clip660)" style="stroke:#000000; stroke-linecap:butt; stroke-linejoin:round; stroke-width:4; stroke-opacity:1; fill:none" points="
  242.135,1487.47 242.135,1468.58 
  "/>
<polyline clip-path="url(#clip660)" style="stroke:#000000; stroke-linecap:butt; stroke-linejoin:round; stroke-width:4; stroke-opacity:1; fill:none" points="
  754.421,1487.47 754.421,1468.58 
  "/>
<polyline clip-path="url(#clip660)" style="stroke:#000000; stroke-linecap:butt; stroke-linejoin:round; stroke-width:4; stroke-opacity:1; fill:none" points="
  1266.71,1487.47 1266.71,1468.58 
  "/>
<polyline clip-path="url(#clip660)" style="stroke:#000000; stroke-linecap:butt; stroke-linejoin:round; stroke-width:4; stroke-opacity:1; fill:none" points="
  1778.99,1487.47 1778.99,1468.58 
  "/>
<polyline clip-path="url(#clip660)" style="stroke:#000000; stroke-linecap:butt; stroke-linejoin:round; stroke-width:4; stroke-opacity:1; fill:none" points="
  2291.28,1487.47 2291.28,1468.58 
  "/>
<g clip-path="url(#clip660)">
<text style="fill:#000000; fill-opacity:1; font-family:Arial,Helvetica Neue,Helvetica,sans-serif; font-size:48px; text-anchor:middle;" transform="rotate(0, 242.135, 1549.32)" x="242.135" y="1549.32">0.00</text>
</g>
<g clip-path="url(#clip660)">
<text style="fill:#000000; fill-opacity:1; font-family:Arial,Helvetica Neue,Helvetica,sans-serif; font-size:48px; text-anchor:middle;" transform="rotate(0, 754.421, 1549.32)" x="754.421" y="1549.32">0.25</text>
</g>
<g clip-path="url(#clip660)">
<text style="fill:#000000; fill-opacity:1; font-family:Arial,Helvetica Neue,Helvetica,sans-serif; font-size:48px; text-anchor:middle;" transform="rotate(0, 1266.71, 1549.32)" x="1266.71" y="1549.32">0.50</text>
</g>
<g clip-path="url(#clip660)">
<text style="fill:#000000; fill-opacity:1; font-family:Arial,Helvetica Neue,Helvetica,sans-serif; font-size:48px; text-anchor:middle;" transform="rotate(0, 1778.99, 1549.32)" x="1778.99" y="1549.32">0.75</text>
</g>
<g clip-path="url(#clip660)">
<text style="fill:#000000; fill-opacity:1; font-family:Arial,Helvetica Neue,Helvetica,sans-serif; font-size:48px; text-anchor:middle;" transform="rotate(0, 2291.28, 1549.32)" x="2291.28" y="1549.32">1.00</text>
</g>
<polyline clip-path="url(#clip662)" style="stroke:#000000; stroke-linecap:butt; stroke-linejoin:round; stroke-width:2; stroke-opacity:0.1; fill:none" points="
  180.66,1336.03 2352.76,1336.03 
  "/>
<polyline clip-path="url(#clip662)" style="stroke:#000000; stroke-linecap:butt; stroke-linejoin:round; stroke-width:2; stroke-opacity:0.1; fill:none" points="
  180.66,1100.89 2352.76,1100.89 
  "/>
<polyline clip-path="url(#clip662)" style="stroke:#000000; stroke-linecap:butt; stroke-linejoin:round; stroke-width:2; stroke-opacity:0.1; fill:none" points="
  180.66,865.749 2352.76,865.749 
  "/>
<polyline clip-path="url(#clip662)" style="stroke:#000000; stroke-linecap:butt; stroke-linejoin:round; stroke-width:2; stroke-opacity:0.1; fill:none" points="
  180.66,630.609 2352.76,630.609 
  "/>
<polyline clip-path="url(#clip662)" style="stroke:#000000; stroke-linecap:butt; stroke-linejoin:round; stroke-width:2; stroke-opacity:0.1; fill:none" points="
  180.66,395.47 2352.76,395.47 
  "/>
<polyline clip-path="url(#clip662)" style="stroke:#000000; stroke-linecap:butt; stroke-linejoin:round; stroke-width:2; stroke-opacity:0.1; fill:none" points="
  180.66,160.33 2352.76,160.33 
  "/>
<polyline clip-path="url(#clip660)" style="stroke:#000000; stroke-linecap:butt; stroke-linejoin:round; stroke-width:4; stroke-opacity:1; fill:none" points="
  180.66,1487.47 180.66,121.675 
  "/>
<polyline clip-path="url(#clip660)" style="stroke:#000000; stroke-linecap:butt; stroke-linejoin:round; stroke-width:4; stroke-opacity:1; fill:none" points="
  180.66,1336.03 199.558,1336.03 
  "/>
<polyline clip-path="url(#clip660)" style="stroke:#000000; stroke-linecap:butt; stroke-linejoin:round; stroke-width:4; stroke-opacity:1; fill:none" points="
  180.66,1100.89 199.558,1100.89 
  "/>
<polyline clip-path="url(#clip660)" style="stroke:#000000; stroke-linecap:butt; stroke-linejoin:round; stroke-width:4; stroke-opacity:1; fill:none" points="
  180.66,865.749 199.558,865.749 
  "/>
<polyline clip-path="url(#clip660)" style="stroke:#000000; stroke-linecap:butt; stroke-linejoin:round; stroke-width:4; stroke-opacity:1; fill:none" points="
  180.66,630.609 199.558,630.609 
  "/>
<polyline clip-path="url(#clip660)" style="stroke:#000000; stroke-linecap:butt; stroke-linejoin:round; stroke-width:4; stroke-opacity:1; fill:none" points="
  180.66,395.47 199.558,395.47 
  "/>
<polyline clip-path="url(#clip660)" style="stroke:#000000; stroke-linecap:butt; stroke-linejoin:round; stroke-width:4; stroke-opacity:1; fill:none" points="
  180.66,160.33 199.558,160.33 
  "/>
<g clip-path="url(#clip660)">
<text style="fill:#000000; fill-opacity:1; font-family:Arial,Helvetica Neue,Helvetica,sans-serif; font-size:48px; text-anchor:middle;" transform="rotate(0, 97.8262, 1353.53)" x="97.8262" y="1353.53">−0.5</text>
</g>
<g clip-path="url(#clip660)">
<text style="fill:#000000; fill-opacity:1; font-family:Arial,Helvetica Neue,Helvetica,sans-serif; font-size:48px; text-anchor:middle;" transform="rotate(0, 111.207, 1118.39)" x="111.207" y="1118.39">0.0</text>
</g>
<g clip-path="url(#clip660)">
<text style="fill:#000000; fill-opacity:1; font-family:Arial,Helvetica Neue,Helvetica,sans-serif; font-size:48px; text-anchor:middle;" transform="rotate(0, 111.207, 883.249)" x="111.207" y="883.249">0.5</text>
</g>
<g clip-path="url(#clip660)">
<text style="fill:#000000; fill-opacity:1; font-family:Arial,Helvetica Neue,Helvetica,sans-serif; font-size:48px; text-anchor:middle;" transform="rotate(0, 111.207, 648.109)" x="111.207" y="648.109">1.0</text>
</g>
<g clip-path="url(#clip660)">
<text style="fill:#000000; fill-opacity:1; font-family:Arial,Helvetica Neue,Helvetica,sans-serif; font-size:48px; text-anchor:middle;" transform="rotate(0, 111.207, 412.97)" x="111.207" y="412.97">1.5</text>
</g>
<g clip-path="url(#clip660)">
<text style="fill:#000000; fill-opacity:1; font-family:Arial,Helvetica Neue,Helvetica,sans-serif; font-size:48px; text-anchor:middle;" transform="rotate(0, 111.207, 177.83)" x="111.207" y="177.83">2.0</text>
</g>
<g clip-path="url(#clip660)">
<text style="fill:#000000; fill-opacity:1; font-family:Arial,Helvetica Neue,Helvetica,sans-serif; font-size:84px; text-anchor:middle;" transform="rotate(0, 1266.71, 73.2)" x="1266.71" y="73.2">residual norm = 2.184208369726548e-11</text>
</g>
<polyline clip-path="url(#clip662)" style="stroke:#009af9; stroke-linecap:butt; stroke-linejoin:round; stroke-width:8; stroke-opacity:1; fill:none" points="
  242.135,395.47 252.38,395.464 262.626,395.446 272.872,395.417 283.118,395.376 293.363,395.323 303.609,395.258 313.855,395.182 324.101,395.093 334.346,394.993 
  344.592,394.882 354.838,394.758 365.084,394.623 375.329,394.476 385.575,394.317 395.821,394.147 406.066,393.965 416.312,393.771 426.558,393.565 436.804,393.348 
  447.049,393.118 457.295,392.877 467.541,392.624 477.787,392.36 488.032,392.084 498.278,391.796 508.524,391.496 518.77,391.184 529.015,390.861 539.261,390.526 
  549.507,390.179 559.752,389.82 569.998,389.45 580.244,389.068 590.49,388.674 600.735,388.269 610.981,387.851 621.227,387.422 631.473,386.981 641.718,386.528 
  651.964,386.064 662.21,385.588 672.456,385.1 682.701,384.6 692.947,384.089 703.193,383.566 713.438,383.031 723.684,382.484 733.93,381.926 744.176,381.355 
  754.421,380.773 764.667,380.18 774.913,379.574 785.159,378.957 795.404,378.328 805.65,377.687 815.896,377.035 826.142,376.37 836.387,375.694 846.633,375.007 
  856.879,374.307 867.124,373.596 877.37,372.873 887.616,372.138 897.862,371.391 908.107,370.633 918.353,369.863 928.599,369.081 938.845,368.287 949.09,367.482 
  959.336,366.665 969.582,365.836 979.828,364.996 990.073,364.143 1000.32,363.279 1010.56,362.403 1020.81,361.515 1031.06,360.616 1041.3,359.705 1051.55,358.782 
  1061.79,357.847 1072.04,356.901 1082.28,355.943 1092.53,354.973 1102.78,353.991 1113.02,352.998 1123.27,351.992 1133.51,350.975 1143.76,349.947 1154.01,348.906 
  1164.25,347.854 1174.5,346.79 1184.74,345.714 1194.99,344.627 1205.23,343.527 1215.48,342.416 1225.73,341.293 1235.97,340.159 1246.22,339.013 1256.46,337.855 
  1266.71,336.685 1276.95,335.503 1287.2,334.31 1297.45,333.105 1307.69,331.888 1317.94,330.659 1328.18,329.419 1338.43,328.167 1348.67,326.903 1358.92,325.627 
  1369.17,324.34 1379.41,323.041 1389.66,321.73 1399.9,320.407 1410.15,319.073 1420.39,317.727 1430.64,316.369 1440.89,314.999 1451.13,313.617 1461.38,312.224 
  1471.62,310.819 1481.87,309.403 1492.11,307.974 1502.36,306.534 1512.61,305.082 1522.85,303.618 1533.1,302.143 1543.34,300.655 1553.59,299.156 1563.83,297.646 
  1574.08,296.123 1584.33,294.589 1594.57,293.043 1604.82,291.485 1615.06,289.915 1625.31,288.334 1635.55,286.741 1645.8,285.136 1656.05,283.52 1666.29,281.891 
  1676.54,280.251 1686.78,278.599 1697.03,276.936 1707.27,275.26 1717.52,273.573 1727.77,271.874 1738.01,270.164 1748.26,268.441 1758.5,266.707 1768.75,264.961 
  1778.99,263.204 1789.24,261.434 1799.49,259.653 1809.73,257.86 1819.98,256.055 1830.22,254.239 1840.47,252.411 1850.71,250.571 1860.96,248.719 1871.21,246.855 
  1881.45,244.98 1891.7,243.093 1901.94,241.194 1912.19,239.284 1922.44,237.362 1932.68,235.428 1942.93,233.482 1953.17,231.524 1963.42,229.555 1973.66,227.574 
  1983.91,225.581 1994.16,223.577 2004.4,221.56 2014.65,219.532 2024.89,217.492 2035.14,215.441 2045.38,213.377 2055.63,211.302 2065.88,209.215 2076.12,207.117 
  2086.37,205.006 2096.61,202.884 2106.86,200.75 2117.1,198.605 2127.35,196.447 2137.6,194.278 2147.84,192.097 2158.09,189.905 2168.33,187.7 2178.58,185.484 
  2188.82,183.256 2199.07,181.016 2209.32,178.765 2219.56,176.502 2229.81,174.227 2240.05,171.94 2250.3,169.641 2260.54,167.331 2270.79,165.009 2281.04,162.675 
  2291.28,160.33 
  "/>
<polyline clip-path="url(#clip662)" style="stroke:#e26f46; stroke-linecap:butt; stroke-linejoin:round; stroke-width:8; stroke-opacity:1; fill:none" points="
  242.135,1448.82 252.38,1447.27 262.626,1445.67 272.872,1444.02 283.118,1442.32 293.363,1440.58 303.609,1438.79 313.855,1436.96 324.101,1435.09 334.346,1433.18 
  344.592,1431.23 354.838,1429.24 365.084,1427.21 375.329,1425.16 385.575,1423.07 395.821,1420.95 406.066,1418.8 416.312,1416.62 426.558,1414.42 436.804,1412.2 
  447.049,1409.95 457.295,1407.69 467.541,1405.42 477.787,1403.12 488.032,1400.82 498.278,1398.5 508.524,1396.18 518.77,1393.84 529.015,1391.5 539.261,1389.16 
  549.507,1386.81 559.752,1384.46 569.998,1382.1 580.244,1379.75 590.49,1377.4 600.735,1375.05 610.981,1372.71 621.227,1370.37 631.473,1368.03 641.718,1365.7 
  651.964,1363.38 662.21,1361.07 672.456,1358.76 682.701,1356.47 692.947,1354.18 703.193,1351.91 713.438,1349.65 723.684,1347.4 733.93,1345.16 744.176,1342.93 
  754.421,1340.72 764.667,1338.52 774.913,1336.33 785.159,1334.16 795.404,1332 805.65,1329.85 815.896,1327.72 826.142,1325.6 836.387,1323.5 846.633,1321.41 
  856.879,1319.33 867.124,1317.26 877.37,1315.2 887.616,1313.16 897.862,1311.13 908.107,1309.11 918.353,1307.1 928.599,1305.1 938.845,1303.11 949.09,1301.12 
  959.336,1299.15 969.582,1297.18 979.828,1295.22 990.073,1293.26 1000.32,1291.3 1010.56,1289.35 1020.81,1287.4 1031.06,1285.45 1041.3,1283.51 1051.55,1281.56 
  1061.79,1279.61 1072.04,1277.65 1082.28,1275.69 1092.53,1273.73 1102.78,1271.75 1113.02,1269.77 1123.27,1267.78 1133.51,1265.78 1143.76,1263.76 1154.01,1261.73 
  1164.25,1259.69 1174.5,1257.63 1184.74,1255.55 1194.99,1253.45 1205.23,1251.33 1215.48,1249.19 1225.73,1247.03 1235.97,1244.84 1246.22,1242.62 1256.46,1240.38 
  1266.71,1238.11 1276.95,1235.8 1287.2,1233.47 1297.45,1231.1 1307.69,1228.7 1317.94,1226.26 1328.18,1223.78 1338.43,1221.27 1348.67,1218.71 1358.92,1216.12 
  1369.17,1213.48 1379.41,1210.8 1389.66,1208.08 1399.9,1205.31 1410.15,1202.49 1420.39,1199.63 1430.64,1196.72 1440.89,1193.76 1451.13,1190.75 1461.38,1187.69 
  1471.62,1184.57 1481.87,1181.41 1492.11,1178.19 1502.36,1174.92 1512.61,1171.59 1522.85,1168.21 1533.1,1164.77 1543.34,1161.28 1553.59,1157.73 1563.83,1154.12 
  1574.08,1150.46 1584.33,1146.73 1594.57,1142.95 1604.82,1139.11 1615.06,1135.22 1625.31,1131.26 1635.55,1127.25 1645.8,1123.18 1656.05,1119.05 1666.29,1114.85 
  1676.54,1110.61 1686.78,1106.3 1697.03,1101.93 1707.27,1097.51 1717.52,1093.02 1727.77,1088.48 1738.01,1083.88 1748.26,1079.22 1758.5,1074.5 1768.75,1069.72 
  1778.99,1064.89 1789.24,1060 1799.49,1055.05 1809.73,1050.05 1819.98,1044.99 1830.22,1039.87 1840.47,1034.69 1850.71,1029.46 1860.96,1024.17 1871.21,1018.83 
  1881.45,1013.43 1891.7,1007.98 1901.94,1002.47 1912.19,996.906 1922.44,991.287 1932.68,985.614 1942.93,979.886 1953.17,974.104 1963.42,968.268 1973.66,962.377 
  1983.91,956.433 1994.16,950.435 2004.4,944.383 2014.65,938.277 2024.89,932.117 2035.14,925.903 2045.38,919.635 2055.63,913.313 2065.88,906.937 2076.12,900.508 
  2086.37,894.026 2096.61,887.49 2106.86,880.903 2117.1,874.264 2127.35,867.575 2137.6,860.835 2147.84,854.046 2158.09,847.207 2168.33,840.319 2178.58,833.378 
  2188.82,826.384 2199.07,819.333 2209.32,812.222 2219.56,805.045 2229.81,797.796 2240.05,790.47 2250.3,783.059 2260.54,775.558 2270.79,767.96 2281.04,760.261 
  2291.28,752.459 
  "/>
<path clip-path="url(#clip660)" d="
M1850.32 267.801 L2280.35 267.801 L2280.35 167.202 L1850.32 167.202  Z
  " fill="#ffffff" fill-rule="evenodd" fill-opacity="1"/>
<polyline clip-path="url(#clip660)" style="stroke:#000000; stroke-linecap:butt; stroke-linejoin:round; stroke-width:4; stroke-opacity:1; fill:none" points="
  1850.32,267.801 2280.35,267.801 2280.35,167.202 1850.32,167.202 1850.32,267.801 
  "/>
<polyline clip-path="url(#clip660)" style="stroke:#e26f46; stroke-linecap:butt; stroke-linejoin:round; stroke-width:4; stroke-opacity:1; fill:none" points="
  1874.46,217.502 2019.27,217.502 
  "/>
<g clip-path="url(#clip660)">
<text style="fill:#000000; fill-opacity:1; font-family:Arial,Helvetica Neue,Helvetica,sans-serif; font-size:48px; text-anchor:start;" transform="rotate(0, 2043.4, 235.002)" x="2043.4" y="235.002">λ=0.07?!</text>
</g>
</svg>
