<?xml version="1.0" encoding="utf-8"?>
<svg xmlns="http://www.w3.org/2000/svg" xmlns:xlink="http://www.w3.org/1999/xlink" width="600" height="400" viewBox="0 0 2400 1600">
<defs>
  <clipPath id="clip080">
    <rect x="0" y="0" width="2400" height="1600"/>
  </clipPath>
</defs>
<path clip-path="url(#clip080)" d="
M0 1600 L2400 1600 L2400 0 L0 0  Z
  " fill="#ffffff" fill-rule="evenodd" fill-opacity="1"/>
<defs>
  <clipPath id="clip081">
    <rect x="480" y="0" width="1681" height="1600"/>
  </clipPath>
</defs>
<path clip-path="url(#clip080)" d="
M153.898 1487.47 L2352.76 1487.47 L2352.76 121.675 L153.898 121.675  Z
  " fill="#ffffff" fill-rule="evenodd" fill-opacity="1"/>
<defs>
  <clipPath id="clip082">
    <rect x="153" y="121" width="2200" height="1367"/>
  </clipPath>
</defs>
<polyline clip-path="url(#clip082)" style="stroke:#000000; stroke-linecap:butt; stroke-linejoin:round; stroke-width:2; stroke-opacity:0.1; fill:none" points="
  216.13,1487.47 216.13,121.675 
  "/>
<polyline clip-path="url(#clip082)" style="stroke:#000000; stroke-linecap:butt; stroke-linejoin:round; stroke-width:2; stroke-opacity:0.1; fill:none" points="
  734.728,1487.47 734.728,121.675 
  "/>
<polyline clip-path="url(#clip082)" style="stroke:#000000; stroke-linecap:butt; stroke-linejoin:round; stroke-width:2; stroke-opacity:0.1; fill:none" points="
  1253.33,1487.47 1253.33,121.675 
  "/>
<polyline clip-path="url(#clip082)" style="stroke:#000000; stroke-linecap:butt; stroke-linejoin:round; stroke-width:2; stroke-opacity:0.1; fill:none" points="
  1771.93,1487.47 1771.93,121.675 
  "/>
<polyline clip-path="url(#clip082)" style="stroke:#000000; stroke-linecap:butt; stroke-linejoin:round; stroke-width:2; stroke-opacity:0.1; fill:none" points="
  2290.52,1487.47 2290.52,121.675 
  "/>
<polyline clip-path="url(#clip080)" style="stroke:#000000; stroke-linecap:butt; stroke-linejoin:round; stroke-width:4; stroke-opacity:1; fill:none" points="
  153.898,1487.47 2352.76,1487.47 
  "/>
<polyline clip-path="url(#clip080)" style="stroke:#000000; stroke-linecap:butt; stroke-linejoin:round; stroke-width:4; stroke-opacity:1; fill:none" points="
  216.13,1487.47 216.13,1468.58 
  "/>
<polyline clip-path="url(#clip080)" style="stroke:#000000; stroke-linecap:butt; stroke-linejoin:round; stroke-width:4; stroke-opacity:1; fill:none" points="
  734.728,1487.47 734.728,1468.58 
  "/>
<polyline clip-path="url(#clip080)" style="stroke:#000000; stroke-linecap:butt; stroke-linejoin:round; stroke-width:4; stroke-opacity:1; fill:none" points="
  1253.33,1487.47 1253.33,1468.58 
  "/>
<polyline clip-path="url(#clip080)" style="stroke:#000000; stroke-linecap:butt; stroke-linejoin:round; stroke-width:4; stroke-opacity:1; fill:none" points="
  1771.93,1487.47 1771.93,1468.58 
  "/>
<polyline clip-path="url(#clip080)" style="stroke:#000000; stroke-linecap:butt; stroke-linejoin:round; stroke-width:4; stroke-opacity:1; fill:none" points="
  2290.52,1487.47 2290.52,1468.58 
  "/>
<g clip-path="url(#clip080)">
<text style="fill:#000000; fill-opacity:1; font-family:Arial,Helvetica Neue,Helvetica,sans-serif; font-size:48px; text-anchor:middle;" transform="rotate(0, 216.13, 1549.32)" x="216.13" y="1549.32">0.00</text>
</g>
<g clip-path="url(#clip080)">
<text style="fill:#000000; fill-opacity:1; font-family:Arial,Helvetica Neue,Helvetica,sans-serif; font-size:48px; text-anchor:middle;" transform="rotate(0, 734.728, 1549.32)" x="734.728" y="1549.32">0.25</text>
</g>
<g clip-path="url(#clip080)">
<text style="fill:#000000; fill-opacity:1; font-family:Arial,Helvetica Neue,Helvetica,sans-serif; font-size:48px; text-anchor:middle;" transform="rotate(0, 1253.33, 1549.32)" x="1253.33" y="1549.32">0.50</text>
</g>
<g clip-path="url(#clip080)">
<text style="fill:#000000; fill-opacity:1; font-family:Arial,Helvetica Neue,Helvetica,sans-serif; font-size:48px; text-anchor:middle;" transform="rotate(0, 1771.93, 1549.32)" x="1771.93" y="1549.32">0.75</text>
</g>
<g clip-path="url(#clip080)">
<text style="fill:#000000; fill-opacity:1; font-family:Arial,Helvetica Neue,Helvetica,sans-serif; font-size:48px; text-anchor:middle;" transform="rotate(0, 2290.52, 1549.32)" x="2290.52" y="1549.32">1.00</text>
</g>
<polyline clip-path="url(#clip082)" style="stroke:#000000; stroke-linecap:butt; stroke-linejoin:round; stroke-width:2; stroke-opacity:0.1; fill:none" points="
  153.898,1448.82 2352.76,1448.82 
  "/>
<polyline clip-path="url(#clip082)" style="stroke:#000000; stroke-linecap:butt; stroke-linejoin:round; stroke-width:2; stroke-opacity:0.1; fill:none" points="
  153.898,1191.12 2352.76,1191.12 
  "/>
<polyline clip-path="url(#clip082)" style="stroke:#000000; stroke-linecap:butt; stroke-linejoin:round; stroke-width:2; stroke-opacity:0.1; fill:none" points="
  153.898,933.424 2352.76,933.424 
  "/>
<polyline clip-path="url(#clip082)" style="stroke:#000000; stroke-linecap:butt; stroke-linejoin:round; stroke-width:2; stroke-opacity:0.1; fill:none" points="
  153.898,675.726 2352.76,675.726 
  "/>
<polyline clip-path="url(#clip082)" style="stroke:#000000; stroke-linecap:butt; stroke-linejoin:round; stroke-width:2; stroke-opacity:0.1; fill:none" points="
  153.898,418.028 2352.76,418.028 
  "/>
<polyline clip-path="url(#clip082)" style="stroke:#000000; stroke-linecap:butt; stroke-linejoin:round; stroke-width:2; stroke-opacity:0.1; fill:none" points="
  153.898,160.33 2352.76,160.33 
  "/>
<polyline clip-path="url(#clip080)" style="stroke:#000000; stroke-linecap:butt; stroke-linejoin:round; stroke-width:4; stroke-opacity:1; fill:none" points="
  153.898,1487.47 153.898,121.675 
  "/>
<polyline clip-path="url(#clip080)" style="stroke:#000000; stroke-linecap:butt; stroke-linejoin:round; stroke-width:4; stroke-opacity:1; fill:none" points="
  153.898,1448.82 172.796,1448.82 
  "/>
<polyline clip-path="url(#clip080)" style="stroke:#000000; stroke-linecap:butt; stroke-linejoin:round; stroke-width:4; stroke-opacity:1; fill:none" points="
  153.898,1191.12 172.796,1191.12 
  "/>
<polyline clip-path="url(#clip080)" style="stroke:#000000; stroke-linecap:butt; stroke-linejoin:round; stroke-width:4; stroke-opacity:1; fill:none" points="
  153.898,933.424 172.796,933.424 
  "/>
<polyline clip-path="url(#clip080)" style="stroke:#000000; stroke-linecap:butt; stroke-linejoin:round; stroke-width:4; stroke-opacity:1; fill:none" points="
  153.898,675.726 172.796,675.726 
  "/>
<polyline clip-path="url(#clip080)" style="stroke:#000000; stroke-linecap:butt; stroke-linejoin:round; stroke-width:4; stroke-opacity:1; fill:none" points="
  153.898,418.028 172.796,418.028 
  "/>
<polyline clip-path="url(#clip080)" style="stroke:#000000; stroke-linecap:butt; stroke-linejoin:round; stroke-width:4; stroke-opacity:1; fill:none" points="
  153.898,160.33 172.796,160.33 
  "/>
<g clip-path="url(#clip080)">
<text style="fill:#000000; fill-opacity:1; font-family:Arial,Helvetica Neue,Helvetica,sans-serif; font-size:48px; text-anchor:middle;" transform="rotate(0, 84.4451, 1466.32)" x="84.4451" y="1466.32">1.5</text>
</g>
<g clip-path="url(#clip080)">
<text style="fill:#000000; fill-opacity:1; font-family:Arial,Helvetica Neue,Helvetica,sans-serif; font-size:48px; text-anchor:middle;" transform="rotate(0, 84.4451, 1208.62)" x="84.4451" y="1208.62">1.6</text>
</g>
<g clip-path="url(#clip080)">
<text style="fill:#000000; fill-opacity:1; font-family:Arial,Helvetica Neue,Helvetica,sans-serif; font-size:48px; text-anchor:middle;" transform="rotate(0, 84.4451, 950.924)" x="84.4451" y="950.924">1.7</text>
</g>
<g clip-path="url(#clip080)">
<text style="fill:#000000; fill-opacity:1; font-family:Arial,Helvetica Neue,Helvetica,sans-serif; font-size:48px; text-anchor:middle;" transform="rotate(0, 84.4451, 693.226)" x="84.4451" y="693.226">1.8</text>
</g>
<g clip-path="url(#clip080)">
<text style="fill:#000000; fill-opacity:1; font-family:Arial,Helvetica Neue,Helvetica,sans-serif; font-size:48px; text-anchor:middle;" transform="rotate(0, 84.4451, 435.528)" x="84.4451" y="435.528">1.9</text>
</g>
<g clip-path="url(#clip080)">
<text style="fill:#000000; fill-opacity:1; font-family:Arial,Helvetica Neue,Helvetica,sans-serif; font-size:48px; text-anchor:middle;" transform="rotate(0, 84.4451, 177.83)" x="84.4451" y="177.83">2.0</text>
</g>
<g clip-path="url(#clip080)">
<text style="fill:#000000; fill-opacity:1; font-family:Arial,Helvetica Neue,Helvetica,sans-serif; font-size:84px; text-anchor:middle;" transform="rotate(0, 1253.33, 73.2)" x="1253.33" y="73.2">residual norm = 2.184208369726548e-11</text>
</g>
<polyline clip-path="url(#clip082)" style="stroke:#009af9; stroke-linecap:butt; stroke-linejoin:round; stroke-width:8; stroke-opacity:1; fill:none" points="
  216.13,1448.82 226.502,1448.79 236.874,1448.69 247.246,1448.53 257.618,1448.3 267.99,1448.01 278.362,1447.66 288.734,1447.24 299.106,1446.76 309.478,1446.21 
  319.85,1445.6 330.221,1444.92 340.593,1444.18 350.965,1443.38 361.337,1442.51 371.709,1441.57 382.081,1440.57 392.453,1439.51 402.825,1438.38 413.197,1437.19 
  423.569,1435.94 433.941,1434.61 444.313,1433.23 454.685,1431.78 465.057,1430.27 475.429,1428.69 485.801,1427.04 496.173,1425.34 506.545,1423.57 516.917,1421.73 
  527.289,1419.83 537.661,1417.86 548.033,1415.83 558.405,1413.74 568.777,1411.58 579.149,1409.36 589.521,1407.07 599.893,1404.72 610.265,1402.31 620.637,1399.83 
  631.009,1397.28 641.381,1394.67 651.753,1392 662.125,1389.26 672.497,1386.46 682.869,1383.59 693.24,1380.66 703.612,1377.66 713.984,1374.6 724.356,1371.48 
  734.728,1368.29 745.1,1365.04 755.472,1361.72 765.844,1358.34 776.216,1354.89 786.588,1351.38 796.96,1347.8 807.332,1344.16 817.704,1340.46 828.076,1336.69 
  838.448,1332.86 848.82,1328.96 859.192,1325 869.564,1320.97 879.936,1316.88 890.308,1312.72 900.68,1308.5 911.052,1304.22 921.424,1299.87 931.796,1295.46 
  942.168,1290.98 952.54,1286.44 962.912,1281.83 973.284,1277.16 983.656,1272.43 994.028,1267.63 1004.4,1262.76 1014.77,1257.83 1025.14,1252.84 1035.52,1247.78 
  1045.89,1242.66 1056.26,1237.48 1066.63,1232.22 1077,1226.91 1087.38,1221.53 1097.75,1216.09 1108.12,1210.58 1118.49,1205.01 1128.86,1199.37 1139.24,1193.67 
  1149.61,1187.9 1159.98,1182.07 1170.35,1176.18 1180.72,1170.22 1191.1,1164.19 1201.47,1158.1 1211.84,1151.95 1222.21,1145.73 1232.58,1139.45 1242.95,1133.11 
  1253.33,1126.7 1263.7,1120.22 1274.07,1113.68 1284.44,1107.08 1294.81,1100.41 1305.19,1093.68 1315.56,1086.88 1325.93,1080.02 1336.3,1073.1 1346.67,1066.11 
  1357.05,1059.05 1367.42,1051.93 1377.79,1044.75 1388.16,1037.5 1398.53,1030.19 1408.91,1022.81 1419.28,1015.37 1429.65,1007.87 1440.02,1000.3 1450.39,992.662 
  1460.77,984.964 1471.14,977.2 1481.51,969.373 1491.88,961.481 1502.25,953.524 1512.63,945.504 1523,937.418 1533.37,929.269 1543.74,921.054 1554.11,912.776 
  1564.49,904.433 1574.86,896.026 1585.23,887.554 1595.6,879.017 1605.97,870.417 1616.35,861.752 1626.72,853.022 1637.09,844.228 1647.46,835.37 1657.83,826.447 
  1668.21,817.46 1678.58,808.408 1688.95,799.292 1699.32,790.112 1709.69,780.867 1720.07,771.557 1730.44,762.184 1740.81,752.745 1751.18,743.243 1761.55,733.676 
  1771.93,724.044 1782.3,714.348 1792.67,704.588 1803.04,694.763 1813.41,684.874 1823.79,674.921 1834.16,664.903 1844.53,654.82 1854.9,644.673 1865.27,634.462 
  1875.65,624.186 1886.02,613.846 1896.39,603.442 1906.76,592.973 1917.13,582.439 1927.51,571.841 1937.88,561.179 1948.25,550.452 1958.62,539.661 1968.99,528.806 
  1979.36,517.886 1989.74,506.901 2000.11,495.853 2010.48,484.739 2020.85,473.562 2031.22,462.32 2041.6,451.013 2051.97,439.642 2062.34,428.207 2072.71,416.707 
  2083.08,405.143 2093.46,393.514 2103.83,381.821 2114.2,370.064 2124.57,358.242 2134.94,346.356 2145.32,334.405 2155.69,322.39 2166.06,310.31 2176.43,298.166 
  2186.8,285.958 2197.18,273.685 2207.55,261.347 2217.92,248.946 2228.29,236.48 2238.66,223.949 2249.04,211.354 2259.41,198.695 2269.78,185.971 2280.15,173.183 
  2290.52,160.33 
  "/>
</svg>
