<?xml version="1.0" encoding="utf-8"?>
<svg xmlns="http://www.w3.org/2000/svg" xmlns:xlink="http://www.w3.org/1999/xlink" width="600" height="400" viewBox="0 0 2400 1600">
<defs>
  <clipPath id="clip300">
    <rect x="0" y="0" width="2400" height="1600"/>
  </clipPath>
</defs>
<path clip-path="url(#clip300)" d="
M0 1600 L2400 1600 L2400 0 L0 0  Z
  " fill="#ffffff" fill-rule="evenodd" fill-opacity="1"/>
<defs>
  <clipPath id="clip301">
    <rect x="480" y="0" width="1681" height="1600"/>
  </clipPath>
</defs>
<path clip-path="url(#clip300)" d="
M155.765 1486.45 L2352.76 1486.45 L2352.76 123.472 L155.765 123.472  Z
  " fill="#ffffff" fill-rule="evenodd" fill-opacity="1"/>
<defs>
  <clipPath id="clip302">
    <rect x="155" y="123" width="2198" height="1364"/>
  </clipPath>
</defs>
<polyline clip-path="url(#clip302)" style="stroke:#000000; stroke-linecap:round; stroke-linejoin:round; stroke-width:2; stroke-opacity:0.1; fill:none" points="
  217.944,1486.45 217.944,123.472 
  "/>
<polyline clip-path="url(#clip302)" style="stroke:#000000; stroke-linecap:round; stroke-linejoin:round; stroke-width:2; stroke-opacity:0.1; fill:none" points="
  736.102,1486.45 736.102,123.472 
  "/>
<polyline clip-path="url(#clip302)" style="stroke:#000000; stroke-linecap:round; stroke-linejoin:round; stroke-width:2; stroke-opacity:0.1; fill:none" points="
  1254.26,1486.45 1254.26,123.472 
  "/>
<polyline clip-path="url(#clip302)" style="stroke:#000000; stroke-linecap:round; stroke-linejoin:round; stroke-width:2; stroke-opacity:0.1; fill:none" points="
  1772.42,1486.45 1772.42,123.472 
  "/>
<polyline clip-path="url(#clip302)" style="stroke:#000000; stroke-linecap:round; stroke-linejoin:round; stroke-width:2; stroke-opacity:0.1; fill:none" points="
  2290.58,1486.45 2290.58,123.472 
  "/>
<polyline clip-path="url(#clip300)" style="stroke:#000000; stroke-linecap:round; stroke-linejoin:round; stroke-width:4; stroke-opacity:1; fill:none" points="
  155.765,1486.45 2352.76,1486.45 
  "/>
<polyline clip-path="url(#clip300)" style="stroke:#000000; stroke-linecap:round; stroke-linejoin:round; stroke-width:4; stroke-opacity:1; fill:none" points="
  217.944,1486.45 217.944,1467.55 
  "/>
<polyline clip-path="url(#clip300)" style="stroke:#000000; stroke-linecap:round; stroke-linejoin:round; stroke-width:4; stroke-opacity:1; fill:none" points="
  736.102,1486.45 736.102,1467.55 
  "/>
<polyline clip-path="url(#clip300)" style="stroke:#000000; stroke-linecap:round; stroke-linejoin:round; stroke-width:4; stroke-opacity:1; fill:none" points="
  1254.26,1486.45 1254.26,1467.55 
  "/>
<polyline clip-path="url(#clip300)" style="stroke:#000000; stroke-linecap:round; stroke-linejoin:round; stroke-width:4; stroke-opacity:1; fill:none" points="
  1772.42,1486.45 1772.42,1467.55 
  "/>
<polyline clip-path="url(#clip300)" style="stroke:#000000; stroke-linecap:round; stroke-linejoin:round; stroke-width:4; stroke-opacity:1; fill:none" points="
  2290.58,1486.45 2290.58,1467.55 
  "/>
<path clip-path="url(#clip300)" d="M180.247 1517.37 Q176.636 1517.37 174.808 1520.93 Q173.002 1524.47 173.002 1531.6 Q173.002 1538.71 174.808 1542.27 Q176.636 1545.82 180.247 1545.82 Q183.882 1545.82 185.687 1542.27 Q187.516 1538.71 187.516 1531.6 Q187.516 1524.47 185.687 1520.93 Q183.882 1517.37 180.247 1517.37 M180.247 1513.66 Q186.057 1513.66 189.113 1518.27 Q192.192 1522.85 192.192 1531.6 Q192.192 1540.33 189.113 1544.94 Q186.057 1549.52 180.247 1549.52 Q174.437 1549.52 171.358 1544.94 Q168.303 1540.33 168.303 1531.6 Q168.303 1522.85 171.358 1518.27 Q174.437 1513.66 180.247 1513.66 Z" fill="#000000" fill-rule="evenodd" fill-opacity="1" /><path clip-path="url(#clip300)" d="M200.409 1542.97 L205.294 1542.97 L205.294 1548.85 L200.409 1548.85 L200.409 1542.97 Z" fill="#000000" fill-rule="evenodd" fill-opacity="1" /><path clip-path="url(#clip300)" d="M225.479 1517.37 Q221.867 1517.37 220.039 1520.93 Q218.233 1524.47 218.233 1531.6 Q218.233 1538.71 220.039 1542.27 Q221.867 1545.82 225.479 1545.82 Q229.113 1545.82 230.918 1542.27 Q232.747 1538.71 232.747 1531.6 Q232.747 1524.47 230.918 1520.93 Q229.113 1517.37 225.479 1517.37 M225.479 1513.66 Q231.289 1513.66 234.344 1518.27 Q237.423 1522.85 237.423 1531.6 Q237.423 1540.33 234.344 1544.94 Q231.289 1549.52 225.479 1549.52 Q219.668 1549.52 216.59 1544.94 Q213.534 1540.33 213.534 1531.6 Q213.534 1522.85 216.59 1518.27 Q219.668 1513.66 225.479 1513.66 Z" fill="#000000" fill-rule="evenodd" fill-opacity="1" /><path clip-path="url(#clip300)" d="M255.64 1517.37 Q252.029 1517.37 250.201 1520.93 Q248.395 1524.47 248.395 1531.6 Q248.395 1538.71 250.201 1542.27 Q252.029 1545.82 255.64 1545.82 Q259.275 1545.82 261.08 1542.27 Q262.909 1538.71 262.909 1531.6 Q262.909 1524.47 261.08 1520.93 Q259.275 1517.37 255.64 1517.37 M255.64 1513.66 Q261.451 1513.66 264.506 1518.27 Q267.585 1522.85 267.585 1531.6 Q267.585 1540.33 264.506 1544.94 Q261.451 1549.52 255.64 1549.52 Q249.83 1549.52 246.752 1544.94 Q243.696 1540.33 243.696 1531.6 Q243.696 1522.85 246.752 1518.27 Q249.83 1513.66 255.64 1513.66 Z" fill="#000000" fill-rule="evenodd" fill-opacity="1" /><path clip-path="url(#clip300)" d="M698.903 1517.37 Q695.292 1517.37 693.463 1520.93 Q691.658 1524.47 691.658 1531.6 Q691.658 1538.71 693.463 1542.27 Q695.292 1545.82 698.903 1545.82 Q702.538 1545.82 704.343 1542.27 Q706.172 1538.71 706.172 1531.6 Q706.172 1524.47 704.343 1520.93 Q702.538 1517.37 698.903 1517.37 M698.903 1513.66 Q704.713 1513.66 707.769 1518.27 Q710.848 1522.85 710.848 1531.6 Q710.848 1540.33 707.769 1544.94 Q704.713 1549.52 698.903 1549.52 Q693.093 1549.52 690.014 1544.94 Q686.959 1540.33 686.959 1531.6 Q686.959 1522.85 690.014 1518.27 Q693.093 1513.66 698.903 1513.66 Z" fill="#000000" fill-rule="evenodd" fill-opacity="1" /><path clip-path="url(#clip300)" d="M719.065 1542.97 L723.949 1542.97 L723.949 1548.85 L719.065 1548.85 L719.065 1542.97 Z" fill="#000000" fill-rule="evenodd" fill-opacity="1" /><path clip-path="url(#clip300)" d="M738.162 1544.91 L754.482 1544.91 L754.482 1548.85 L732.537 1548.85 L732.537 1544.91 Q735.199 1542.16 739.783 1537.53 Q744.389 1532.88 745.57 1531.53 Q747.815 1529.01 748.695 1527.27 Q749.597 1525.51 749.597 1523.82 Q749.597 1521.07 747.653 1519.33 Q745.732 1517.6 742.63 1517.6 Q740.431 1517.6 737.977 1518.36 Q735.547 1519.13 732.769 1520.68 L732.769 1515.95 Q735.593 1514.82 738.047 1514.24 Q740.5 1513.66 742.537 1513.66 Q747.908 1513.66 751.102 1516.35 Q754.296 1519.03 754.296 1523.52 Q754.296 1525.65 753.486 1527.57 Q752.699 1529.47 750.593 1532.07 Q750.014 1532.74 746.912 1535.95 Q743.81 1539.15 738.162 1544.91 Z" fill="#000000" fill-rule="evenodd" fill-opacity="1" /><path clip-path="url(#clip300)" d="M764.343 1514.29 L782.699 1514.29 L782.699 1518.22 L768.625 1518.22 L768.625 1526.7 Q769.644 1526.35 770.662 1526.19 Q771.681 1526 772.699 1526 Q778.486 1526 781.866 1529.17 Q785.245 1532.34 785.245 1537.76 Q785.245 1543.34 781.773 1546.44 Q778.301 1549.52 771.982 1549.52 Q769.806 1549.52 767.537 1549.15 Q765.292 1548.78 762.884 1548.04 L762.884 1543.34 Q764.968 1544.47 767.19 1545.03 Q769.412 1545.58 771.889 1545.58 Q775.894 1545.58 778.232 1543.48 Q780.57 1541.37 780.57 1537.76 Q780.57 1534.15 778.232 1532.04 Q775.894 1529.94 771.889 1529.94 Q770.014 1529.94 768.139 1530.35 Q766.287 1530.77 764.343 1531.65 L764.343 1514.29 Z" fill="#000000" fill-rule="evenodd" fill-opacity="1" /><path clip-path="url(#clip300)" d="M1216.56 1517.37 Q1212.95 1517.37 1211.12 1520.93 Q1209.32 1524.47 1209.32 1531.6 Q1209.32 1538.71 1211.12 1542.27 Q1212.95 1545.82 1216.56 1545.82 Q1220.2 1545.82 1222 1542.27 Q1223.83 1538.71 1223.83 1531.6 Q1223.83 1524.47 1222 1520.93 Q1220.2 1517.37 1216.56 1517.37 M1216.56 1513.66 Q1222.37 1513.66 1225.43 1518.27 Q1228.51 1522.85 1228.51 1531.6 Q1228.51 1540.33 1225.43 1544.94 Q1222.37 1549.52 1216.56 1549.52 Q1210.75 1549.52 1207.68 1544.94 Q1204.62 1540.33 1204.62 1531.6 Q1204.62 1522.85 1207.68 1518.27 Q1210.75 1513.66 1216.56 1513.66 Z" fill="#000000" fill-rule="evenodd" fill-opacity="1" /><path clip-path="url(#clip300)" d="M1236.73 1542.97 L1241.61 1542.97 L1241.61 1548.85 L1236.73 1548.85 L1236.73 1542.97 Z" fill="#000000" fill-rule="evenodd" fill-opacity="1" /><path clip-path="url(#clip300)" d="M1251.84 1514.29 L1270.2 1514.29 L1270.2 1518.22 L1256.12 1518.22 L1256.12 1526.7 Q1257.14 1526.35 1258.16 1526.19 Q1259.18 1526 1260.2 1526 Q1265.98 1526 1269.36 1529.17 Q1272.74 1532.34 1272.74 1537.76 Q1272.74 1543.34 1269.27 1546.44 Q1265.8 1549.52 1259.48 1549.52 Q1257.3 1549.52 1255.04 1549.15 Q1252.79 1548.78 1250.38 1548.04 L1250.38 1543.34 Q1252.47 1544.47 1254.69 1545.03 Q1256.91 1545.58 1259.39 1545.58 Q1263.39 1545.58 1265.73 1543.48 Q1268.07 1541.37 1268.07 1537.76 Q1268.07 1534.15 1265.73 1532.04 Q1263.39 1529.94 1259.39 1529.94 Q1257.51 1529.94 1255.64 1530.35 Q1253.79 1530.77 1251.84 1531.65 L1251.84 1514.29 Z" fill="#000000" fill-rule="evenodd" fill-opacity="1" /><path clip-path="url(#clip300)" d="M1291.96 1517.37 Q1288.35 1517.37 1286.52 1520.93 Q1284.71 1524.47 1284.71 1531.6 Q1284.71 1538.71 1286.52 1542.27 Q1288.35 1545.82 1291.96 1545.82 Q1295.59 1545.82 1297.4 1542.27 Q1299.23 1538.71 1299.23 1531.6 Q1299.23 1524.47 1297.4 1520.93 Q1295.59 1517.37 1291.96 1517.37 M1291.96 1513.66 Q1297.77 1513.66 1300.82 1518.27 Q1303.9 1522.85 1303.9 1531.6 Q1303.9 1540.33 1300.82 1544.94 Q1297.77 1549.52 1291.96 1549.52 Q1286.15 1549.52 1283.07 1544.94 Q1280.01 1540.33 1280.01 1531.6 Q1280.01 1522.85 1283.07 1518.27 Q1286.15 1513.66 1291.96 1513.66 Z" fill="#000000" fill-rule="evenodd" fill-opacity="1" /><path clip-path="url(#clip300)" d="M1735.22 1517.37 Q1731.61 1517.37 1729.78 1520.93 Q1727.97 1524.47 1727.97 1531.6 Q1727.97 1538.71 1729.78 1542.27 Q1731.61 1545.82 1735.22 1545.82 Q1738.85 1545.82 1740.66 1542.27 Q1742.49 1538.71 1742.49 1531.6 Q1742.49 1524.47 1740.66 1520.93 Q1738.85 1517.37 1735.22 1517.37 M1735.22 1513.66 Q1741.03 1513.66 1744.09 1518.27 Q1747.16 1522.85 1747.16 1531.6 Q1747.16 1540.33 1744.09 1544.94 Q1741.03 1549.52 1735.22 1549.52 Q1729.41 1549.52 1726.33 1544.94 Q1723.28 1540.33 1723.28 1531.6 Q1723.28 1522.85 1726.33 1518.27 Q1729.41 1513.66 1735.22 1513.66 Z" fill="#000000" fill-rule="evenodd" fill-opacity="1" /><path clip-path="url(#clip300)" d="M1755.38 1542.97 L1760.27 1542.97 L1760.27 1548.85 L1755.38 1548.85 L1755.38 1542.97 Z" fill="#000000" fill-rule="evenodd" fill-opacity="1" /><path clip-path="url(#clip300)" d="M1769.27 1514.29 L1791.49 1514.29 L1791.49 1516.28 L1778.95 1548.85 L1774.06 1548.85 L1785.87 1518.22 L1769.27 1518.22 L1769.27 1514.29 Z" fill="#000000" fill-rule="evenodd" fill-opacity="1" /><path clip-path="url(#clip300)" d="M1800.66 1514.29 L1819.02 1514.29 L1819.02 1518.22 L1804.94 1518.22 L1804.94 1526.7 Q1805.96 1526.35 1806.98 1526.19 Q1808 1526 1809.02 1526 Q1814.8 1526 1818.18 1529.17 Q1821.56 1532.34 1821.56 1537.76 Q1821.56 1543.34 1818.09 1546.44 Q1814.62 1549.52 1808.3 1549.52 Q1806.12 1549.52 1803.85 1549.15 Q1801.61 1548.78 1799.2 1548.04 L1799.2 1543.34 Q1801.28 1544.47 1803.51 1545.03 Q1805.73 1545.58 1808.21 1545.58 Q1812.21 1545.58 1814.55 1543.48 Q1816.89 1541.37 1816.89 1537.76 Q1816.89 1534.15 1814.55 1532.04 Q1812.21 1529.94 1808.21 1529.94 Q1806.33 1529.94 1804.46 1530.35 Q1802.6 1530.77 1800.66 1531.65 L1800.66 1514.29 Z" fill="#000000" fill-rule="evenodd" fill-opacity="1" /><path clip-path="url(#clip300)" d="M2242.65 1544.91 L2250.29 1544.91 L2250.29 1518.55 L2241.98 1520.21 L2241.98 1515.95 L2250.24 1514.29 L2254.92 1514.29 L2254.92 1544.91 L2262.56 1544.91 L2262.56 1548.85 L2242.65 1548.85 L2242.65 1544.91 Z" fill="#000000" fill-rule="evenodd" fill-opacity="1" /><path clip-path="url(#clip300)" d="M2272 1542.97 L2276.88 1542.97 L2276.88 1548.85 L2272 1548.85 L2272 1542.97 Z" fill="#000000" fill-rule="evenodd" fill-opacity="1" /><path clip-path="url(#clip300)" d="M2297.07 1517.37 Q2293.46 1517.37 2291.63 1520.93 Q2289.82 1524.47 2289.82 1531.6 Q2289.82 1538.71 2291.63 1542.27 Q2293.46 1545.82 2297.07 1545.82 Q2300.7 1545.82 2302.51 1542.27 Q2304.34 1538.71 2304.34 1531.6 Q2304.34 1524.47 2302.51 1520.93 Q2300.7 1517.37 2297.07 1517.37 M2297.07 1513.66 Q2302.88 1513.66 2305.94 1518.27 Q2309.01 1522.85 2309.01 1531.6 Q2309.01 1540.33 2305.94 1544.94 Q2302.88 1549.52 2297.07 1549.52 Q2291.26 1549.52 2288.18 1544.94 Q2285.13 1540.33 2285.13 1531.6 Q2285.13 1522.85 2288.18 1518.27 Q2291.26 1513.66 2297.07 1513.66 Z" fill="#000000" fill-rule="evenodd" fill-opacity="1" /><path clip-path="url(#clip300)" d="M2327.23 1517.37 Q2323.62 1517.37 2321.79 1520.93 Q2319.99 1524.47 2319.99 1531.6 Q2319.99 1538.71 2321.79 1542.27 Q2323.62 1545.82 2327.23 1545.82 Q2330.87 1545.82 2332.67 1542.27 Q2334.5 1538.71 2334.5 1531.6 Q2334.5 1524.47 2332.67 1520.93 Q2330.87 1517.37 2327.23 1517.37 M2327.23 1513.66 Q2333.04 1513.66 2336.1 1518.27 Q2339.18 1522.85 2339.18 1531.6 Q2339.18 1540.33 2336.1 1544.94 Q2333.04 1549.52 2327.23 1549.52 Q2321.42 1549.52 2318.34 1544.94 Q2315.29 1540.33 2315.29 1531.6 Q2315.29 1522.85 2318.34 1518.27 Q2321.42 1513.66 2327.23 1513.66 Z" fill="#000000" fill-rule="evenodd" fill-opacity="1" /><polyline clip-path="url(#clip302)" style="stroke:#000000; stroke-linecap:round; stroke-linejoin:round; stroke-width:2; stroke-opacity:0.1; fill:none" points="
  155.765,1447.87 2352.76,1447.87 
  "/>
<polyline clip-path="url(#clip302)" style="stroke:#000000; stroke-linecap:round; stroke-linejoin:round; stroke-width:2; stroke-opacity:0.1; fill:none" points="
  155.765,1190.71 2352.76,1190.71 
  "/>
<polyline clip-path="url(#clip302)" style="stroke:#000000; stroke-linecap:round; stroke-linejoin:round; stroke-width:2; stroke-opacity:0.1; fill:none" points="
  155.765,933.543 2352.76,933.543 
  "/>
<polyline clip-path="url(#clip302)" style="stroke:#000000; stroke-linecap:round; stroke-linejoin:round; stroke-width:2; stroke-opacity:0.1; fill:none" points="
  155.765,676.377 2352.76,676.377 
  "/>
<polyline clip-path="url(#clip302)" style="stroke:#000000; stroke-linecap:round; stroke-linejoin:round; stroke-width:2; stroke-opacity:0.1; fill:none" points="
  155.765,419.212 2352.76,419.212 
  "/>
<polyline clip-path="url(#clip302)" style="stroke:#000000; stroke-linecap:round; stroke-linejoin:round; stroke-width:2; stroke-opacity:0.1; fill:none" points="
  155.765,162.047 2352.76,162.047 
  "/>
<polyline clip-path="url(#clip300)" style="stroke:#000000; stroke-linecap:round; stroke-linejoin:round; stroke-width:4; stroke-opacity:1; fill:none" points="
  155.765,1486.45 155.765,123.472 
  "/>
<polyline clip-path="url(#clip300)" style="stroke:#000000; stroke-linecap:round; stroke-linejoin:round; stroke-width:4; stroke-opacity:1; fill:none" points="
  155.765,1447.87 174.663,1447.87 
  "/>
<polyline clip-path="url(#clip300)" style="stroke:#000000; stroke-linecap:round; stroke-linejoin:round; stroke-width:4; stroke-opacity:1; fill:none" points="
  155.765,1190.71 174.663,1190.71 
  "/>
<polyline clip-path="url(#clip300)" style="stroke:#000000; stroke-linecap:round; stroke-linejoin:round; stroke-width:4; stroke-opacity:1; fill:none" points="
  155.765,933.543 174.663,933.543 
  "/>
<polyline clip-path="url(#clip300)" style="stroke:#000000; stroke-linecap:round; stroke-linejoin:round; stroke-width:4; stroke-opacity:1; fill:none" points="
  155.765,676.377 174.663,676.377 
  "/>
<polyline clip-path="url(#clip300)" style="stroke:#000000; stroke-linecap:round; stroke-linejoin:round; stroke-width:4; stroke-opacity:1; fill:none" points="
  155.765,419.212 174.663,419.212 
  "/>
<polyline clip-path="url(#clip300)" style="stroke:#000000; stroke-linecap:round; stroke-linejoin:round; stroke-width:4; stroke-opacity:1; fill:none" points="
  155.765,162.047 174.663,162.047 
  "/>
<path clip-path="url(#clip300)" d="M54.3949 1461.22 L62.0337 1461.22 L62.0337 1434.85 L53.7236 1436.52 L53.7236 1432.26 L61.9874 1430.59 L66.6633 1430.59 L66.6633 1461.22 L74.3022 1461.22 L74.3022 1465.15 L54.3949 1465.15 L54.3949 1461.22 Z" fill="#000000" fill-rule="evenodd" fill-opacity="1" /><path clip-path="url(#clip300)" d="M83.7466 1459.27 L88.6308 1459.27 L88.6308 1465.15 L83.7466 1465.15 L83.7466 1459.27 Z" fill="#000000" fill-rule="evenodd" fill-opacity="1" /><path clip-path="url(#clip300)" d="M98.8622 1430.59 L117.219 1430.59 L117.219 1434.53 L103.145 1434.53 L103.145 1443 Q104.163 1442.65 105.182 1442.49 Q106.2 1442.31 107.219 1442.31 Q113.006 1442.31 116.385 1445.48 Q119.765 1448.65 119.765 1454.07 Q119.765 1459.64 116.293 1462.75 Q112.82 1465.82 106.501 1465.82 Q104.325 1465.82 102.057 1465.45 Q99.8113 1465.08 97.4039 1464.34 L97.4039 1459.64 Q99.4872 1460.78 101.709 1461.33 Q103.932 1461.89 106.408 1461.89 Q110.413 1461.89 112.751 1459.78 Q115.089 1457.68 115.089 1454.07 Q115.089 1450.45 112.751 1448.35 Q110.413 1446.24 106.408 1446.24 Q104.534 1446.24 102.659 1446.66 Q100.807 1447.07 98.8622 1447.95 L98.8622 1430.59 Z" fill="#000000" fill-rule="evenodd" fill-opacity="1" /><path clip-path="url(#clip300)" d="M53.2375 1204.05 L60.8763 1204.05 L60.8763 1177.69 L52.5662 1179.35 L52.5662 1175.09 L60.83 1173.43 L65.5059 1173.43 L65.5059 1204.05 L73.1448 1204.05 L73.1448 1207.99 L53.2375 1207.99 L53.2375 1204.05 Z" fill="#000000" fill-rule="evenodd" fill-opacity="1" /><path clip-path="url(#clip300)" d="M82.5892 1202.11 L87.4734 1202.11 L87.4734 1207.99 L82.5892 1207.99 L82.5892 1202.11 Z" fill="#000000" fill-rule="evenodd" fill-opacity="1" /><path clip-path="url(#clip300)" d="M108.237 1188.84 Q105.089 1188.84 103.237 1191 Q101.409 1193.15 101.409 1196.9 Q101.409 1200.63 103.237 1202.8 Q105.089 1204.96 108.237 1204.96 Q111.385 1204.96 113.214 1202.8 Q115.066 1200.63 115.066 1196.9 Q115.066 1193.15 113.214 1191 Q111.385 1188.84 108.237 1188.84 M117.52 1174.19 L117.52 1178.45 Q115.76 1177.62 113.955 1177.18 Q112.172 1176.74 110.413 1176.74 Q105.783 1176.74 103.33 1179.86 Q100.899 1182.99 100.552 1189.31 Q101.918 1187.29 103.978 1186.23 Q106.038 1185.14 108.515 1185.14 Q113.723 1185.14 116.733 1188.31 Q119.765 1191.46 119.765 1196.9 Q119.765 1202.22 116.617 1205.44 Q113.469 1208.66 108.237 1208.66 Q102.242 1208.66 99.0706 1204.08 Q95.8993 1199.47 95.8993 1190.74 Q95.8993 1182.55 99.7882 1177.69 Q103.677 1172.8 110.228 1172.8 Q111.987 1172.8 113.77 1173.15 Q115.575 1173.5 117.52 1174.19 Z" fill="#000000" fill-rule="evenodd" fill-opacity="1" /><path clip-path="url(#clip300)" d="M54.3023 946.887 L61.9411 946.887 L61.9411 920.522 L53.631 922.189 L53.631 917.929 L61.8948 916.263 L66.5707 916.263 L66.5707 946.887 L74.2096 946.887 L74.2096 950.823 L54.3023 950.823 L54.3023 946.887 Z" fill="#000000" fill-rule="evenodd" fill-opacity="1" /><path clip-path="url(#clip300)" d="M83.654 944.943 L88.5382 944.943 L88.5382 950.823 L83.654 950.823 L83.654 944.943 Z" fill="#000000" fill-rule="evenodd" fill-opacity="1" /><path clip-path="url(#clip300)" d="M97.5428 916.263 L119.765 916.263 L119.765 918.253 L107.219 950.823 L102.334 950.823 L114.14 920.198 L97.5428 920.198 L97.5428 916.263 Z" fill="#000000" fill-rule="evenodd" fill-opacity="1" /><path clip-path="url(#clip300)" d="M53.4921 689.722 L61.131 689.722 L61.131 663.357 L52.8208 665.023 L52.8208 660.764 L61.0847 659.097 L65.7606 659.097 L65.7606 689.722 L73.3994 689.722 L73.3994 693.657 L53.4921 693.657 L53.4921 689.722 Z" fill="#000000" fill-rule="evenodd" fill-opacity="1" /><path clip-path="url(#clip300)" d="M82.8438 687.778 L87.728 687.778 L87.728 693.657 L82.8438 693.657 L82.8438 687.778 Z" fill="#000000" fill-rule="evenodd" fill-opacity="1" /><path clip-path="url(#clip300)" d="M107.913 677.245 Q104.58 677.245 102.659 679.028 Q100.76 680.81 100.76 683.935 Q100.76 687.06 102.659 688.843 Q104.58 690.625 107.913 690.625 Q111.246 690.625 113.168 688.843 Q115.089 687.037 115.089 683.935 Q115.089 680.81 113.168 679.028 Q111.27 677.245 107.913 677.245 M103.237 675.255 Q100.228 674.514 98.5382 672.454 Q96.8715 670.394 96.8715 667.431 Q96.8715 663.287 99.8113 660.88 Q102.774 658.472 107.913 658.472 Q113.075 658.472 116.015 660.88 Q118.955 663.287 118.955 667.431 Q118.955 670.394 117.265 672.454 Q115.598 674.514 112.612 675.255 Q115.992 676.042 117.867 678.333 Q119.765 680.625 119.765 683.935 Q119.765 688.958 116.686 691.644 Q113.631 694.329 107.913 694.329 Q102.196 694.329 99.1169 691.644 Q96.0613 688.958 96.0613 683.935 Q96.0613 680.625 97.9595 678.333 Q99.8576 676.042 103.237 675.255 M101.524 667.87 Q101.524 670.556 103.191 672.06 Q104.881 673.565 107.913 673.565 Q110.922 673.565 112.612 672.06 Q114.325 670.556 114.325 667.87 Q114.325 665.185 112.612 663.681 Q110.922 662.176 107.913 662.176 Q104.881 662.176 103.191 663.681 Q101.524 665.185 101.524 667.87 Z" fill="#000000" fill-rule="evenodd" fill-opacity="1" /><path clip-path="url(#clip300)" d="M53.5847 432.557 L61.2236 432.557 L61.2236 406.191 L52.9134 407.858 L52.9134 403.599 L61.1773 401.932 L65.8532 401.932 L65.8532 432.557 L73.492 432.557 L73.492 436.492 L53.5847 436.492 L53.5847 432.557 Z" fill="#000000" fill-rule="evenodd" fill-opacity="1" /><path clip-path="url(#clip300)" d="M82.9364 430.613 L87.8206 430.613 L87.8206 436.492 L82.9364 436.492 L82.9364 430.613 Z" fill="#000000" fill-rule="evenodd" fill-opacity="1" /><path clip-path="url(#clip300)" d="M98.1447 435.775 L98.1447 431.515 Q99.9039 432.349 101.709 432.788 Q103.515 433.228 105.251 433.228 Q109.881 433.228 112.311 430.126 Q114.765 427.001 115.112 420.659 Q113.77 422.65 111.709 423.714 Q109.649 424.779 107.149 424.779 Q101.964 424.779 98.9317 421.654 Q95.9224 418.506 95.9224 413.066 Q95.9224 407.742 99.0706 404.525 Q102.219 401.307 107.45 401.307 Q113.445 401.307 116.594 405.914 Q119.765 410.497 119.765 419.247 Q119.765 427.418 115.876 432.302 Q112.01 437.163 105.459 437.163 Q103.7 437.163 101.895 436.816 Q100.089 436.469 98.1447 435.775 M107.45 421.122 Q110.598 421.122 112.427 418.969 Q114.279 416.816 114.279 413.066 Q114.279 409.34 112.427 407.187 Q110.598 405.011 107.45 405.011 Q104.302 405.011 102.45 407.187 Q100.621 409.34 100.621 413.066 Q100.621 416.816 102.45 418.969 Q104.302 421.122 107.45 421.122 Z" fill="#000000" fill-rule="evenodd" fill-opacity="1" /><path clip-path="url(#clip300)" d="M56.6171 175.392 L72.9365 175.392 L72.9365 179.327 L50.9921 179.327 L50.9921 175.392 Q53.6541 172.637 58.2375 168.008 Q62.8439 163.355 64.0245 162.012 Q66.2698 159.489 67.1494 157.753 Q68.0522 155.994 68.0522 154.304 Q68.0522 151.549 66.1078 149.813 Q64.1865 148.077 61.0847 148.077 Q58.8856 148.077 56.4319 148.841 Q54.0014 149.605 51.2236 151.156 L51.2236 146.434 Q54.0477 145.299 56.5014 144.721 Q58.955 144.142 60.9921 144.142 Q66.3624 144.142 69.5568 146.827 Q72.7513 149.512 72.7513 154.003 Q72.7513 156.133 71.9411 158.054 Q71.1541 159.952 69.0476 162.545 Q68.4689 163.216 65.367 166.433 Q62.2652 169.628 56.6171 175.392 Z" fill="#000000" fill-rule="evenodd" fill-opacity="1" /><path clip-path="url(#clip300)" d="M82.7512 173.447 L87.6354 173.447 L87.6354 179.327 L82.7512 179.327 L82.7512 173.447 Z" fill="#000000" fill-rule="evenodd" fill-opacity="1" /><path clip-path="url(#clip300)" d="M107.821 147.846 Q104.209 147.846 102.381 151.41 Q100.575 154.952 100.575 162.082 Q100.575 169.188 102.381 172.753 Q104.209 176.295 107.821 176.295 Q111.455 176.295 113.26 172.753 Q115.089 169.188 115.089 162.082 Q115.089 154.952 113.26 151.41 Q111.455 147.846 107.821 147.846 M107.821 144.142 Q113.631 144.142 116.686 148.748 Q119.765 153.332 119.765 162.082 Q119.765 170.808 116.686 175.415 Q113.631 179.998 107.821 179.998 Q102.01 179.998 98.9317 175.415 Q95.8761 170.808 95.8761 162.082 Q95.8761 153.332 98.9317 148.748 Q102.01 144.142 107.821 144.142 Z" fill="#000000" fill-rule="evenodd" fill-opacity="1" /><path clip-path="url(#clip300)" d="M412.624 34.1734 Q411.369 33.4443 409.87 33.1202 Q408.411 32.7556 406.629 32.7556 Q400.31 32.7556 396.907 36.8875 Q393.545 40.9789 393.545 48.6757 L393.545 72.576 L386.05 72.576 L386.05 27.2059 L393.545 27.2059 L393.545 34.2544 Q395.894 30.1225 399.661 28.1376 Q403.429 26.1121 408.816 26.1121 Q409.586 26.1121 410.518 26.2337 Q411.45 26.3147 412.584 26.5172 L412.624 34.1734 Z" fill="#000000" fill-rule="evenodd" fill-opacity="1" /><path clip-path="url(#clip300)" d="M457.427 48.0275 L457.427 51.6733 L423.157 51.6733 Q423.643 59.3701 427.775 63.421 Q431.947 67.4314 439.36 67.4314 Q443.654 67.4314 447.665 66.3781 Q451.716 65.3249 455.685 63.2184 L455.685 70.267 Q451.675 71.9684 447.462 72.8596 Q443.249 73.7508 438.915 73.7508 Q428.058 73.7508 421.698 67.4314 Q415.379 61.1119 415.379 50.3365 Q415.379 39.1965 421.374 32.6746 Q427.41 26.1121 437.618 26.1121 Q446.773 26.1121 452.08 32.0264 Q457.427 37.9003 457.427 48.0275 M449.974 45.84 Q449.893 39.7232 446.53 36.0774 Q443.209 32.4315 437.699 32.4315 Q431.461 32.4315 427.694 35.9558 Q423.967 39.4801 423.4 45.8805 L449.974 45.84 Z" fill="#000000" fill-rule="evenodd" fill-opacity="1" /><path clip-path="url(#clip300)" d="M498.584 28.5427 L498.584 35.5912 Q495.425 33.9709 492.022 33.1607 Q488.619 32.3505 484.973 32.3505 Q479.424 32.3505 476.629 34.0519 Q473.874 35.7533 473.874 39.156 Q473.874 41.7486 475.859 43.2475 Q477.844 44.7058 483.839 46.0426 L486.391 46.6097 Q494.331 48.3111 497.653 51.4303 Q501.015 54.509 501.015 60.0587 Q501.015 66.3781 495.992 70.0644 Q491.009 73.7508 482.259 73.7508 Q478.614 73.7508 474.644 73.0216 Q470.714 72.3329 466.339 70.9151 L466.339 63.2184 Q470.471 65.3654 474.482 66.4591 Q478.492 67.5124 482.421 67.5124 Q487.688 67.5124 490.523 65.73 Q493.359 63.9071 493.359 60.6258 Q493.359 57.5877 491.293 55.9673 Q489.267 54.3469 482.34 52.8481 L479.748 52.2405 Q472.821 50.7821 469.742 47.7845 Q466.663 44.7463 466.663 39.4801 Q466.663 33.0797 471.2 29.5959 Q475.737 26.1121 484.082 26.1121 Q488.214 26.1121 491.86 26.7198 Q495.506 27.3274 498.584 28.5427 Z" fill="#000000" fill-rule="evenodd" fill-opacity="1" /><path clip-path="url(#clip300)" d="M512.884 27.2059 L520.338 27.2059 L520.338 72.576 L512.884 72.576 L512.884 27.2059 M512.884 9.54393 L520.338 9.54393 L520.338 18.9825 L512.884 18.9825 L512.884 9.54393 Z" fill="#000000" fill-rule="evenodd" fill-opacity="1" /><path clip-path="url(#clip300)" d="M565.789 34.0924 L565.789 9.54393 L573.243 9.54393 L573.243 72.576 L565.789 72.576 L565.789 65.7705 Q563.439 69.8214 559.834 71.8063 Q556.269 73.7508 551.246 73.7508 Q543.023 73.7508 537.838 67.1883 Q532.693 60.6258 532.693 49.9314 Q532.693 39.2371 537.838 32.6746 Q543.023 26.1121 551.246 26.1121 Q556.269 26.1121 559.834 28.0971 Q563.439 30.0415 565.789 34.0924 M540.39 49.9314 Q540.39 58.1548 543.752 62.8538 Q547.155 67.5124 553.069 67.5124 Q558.983 67.5124 562.386 62.8538 Q565.789 58.1548 565.789 49.9314 Q565.789 41.7081 562.386 37.0496 Q558.983 32.3505 553.069 32.3505 Q547.155 32.3505 543.752 37.0496 Q540.39 41.7081 540.39 49.9314 Z" fill="#000000" fill-rule="evenodd" fill-opacity="1" /><path clip-path="url(#clip300)" d="M587.826 54.671 L587.826 27.2059 L595.28 27.2059 L595.28 54.3874 Q595.28 60.8284 597.791 64.0691 Q600.303 67.2693 605.326 67.2693 Q611.362 67.2693 614.845 63.421 Q618.37 59.5726 618.37 52.9291 L618.37 27.2059 L625.823 27.2059 L625.823 72.576 L618.37 72.576 L618.37 65.6084 Q615.656 69.7404 612.05 71.7658 Q608.486 73.7508 603.746 73.7508 Q595.928 73.7508 591.877 68.8897 Q587.826 64.0286 587.826 54.671 M606.582 26.1121 L606.582 26.1121 Z" fill="#000000" fill-rule="evenodd" fill-opacity="1" /><path clip-path="url(#clip300)" d="M661.795 49.7694 Q652.762 49.7694 649.278 51.8354 Q645.794 53.9013 645.794 58.8839 Q645.794 62.8538 648.387 65.2034 Q651.02 67.5124 655.517 67.5124 Q661.714 67.5124 665.441 63.1374 Q669.209 58.7219 669.209 51.4303 L669.209 49.7694 L661.795 49.7694 M676.662 46.6907 L676.662 72.576 L669.209 72.576 L669.209 65.6895 Q666.656 69.8214 662.849 71.8063 Q659.041 73.7508 653.532 73.7508 Q646.564 73.7508 642.432 69.8619 Q638.341 65.9325 638.341 59.3701 Q638.341 51.7138 643.445 47.825 Q648.589 43.9361 658.757 43.9361 L669.209 43.9361 L669.209 43.2069 Q669.209 38.0623 665.806 35.2672 Q662.444 32.4315 656.327 32.4315 Q652.438 32.4315 648.751 33.3632 Q645.065 34.295 641.662 36.1584 L641.662 29.2718 Q645.754 27.692 649.602 26.9223 Q653.451 26.1121 657.096 26.1121 Q666.94 26.1121 671.801 31.2163 Q676.662 36.3204 676.662 46.6907 Z" fill="#000000" fill-rule="evenodd" fill-opacity="1" /><path clip-path="url(#clip300)" d="M692.015 9.54393 L699.469 9.54393 L699.469 72.576 L692.015 72.576 L692.015 9.54393 Z" fill="#000000" fill-rule="evenodd" fill-opacity="1" /><path clip-path="url(#clip300)" d="M779.15 45.1919 L779.15 72.576 L771.696 72.576 L771.696 45.4349 Q771.696 38.994 769.185 35.7938 Q766.673 32.5936 761.65 32.5936 Q755.614 32.5936 752.131 36.4419 Q748.647 40.2903 748.647 46.9338 L748.647 72.576 L741.153 72.576 L741.153 27.2059 L748.647 27.2059 L748.647 34.2544 Q751.32 30.163 754.926 28.1376 Q758.572 26.1121 763.311 26.1121 Q771.129 26.1121 775.14 30.9732 Q779.15 35.7938 779.15 45.1919 Z" fill="#000000" fill-rule="evenodd" fill-opacity="1" /><path clip-path="url(#clip300)" d="M811.598 32.4315 Q805.603 32.4315 802.119 37.1306 Q798.635 41.7891 798.635 49.9314 Q798.635 58.0738 802.078 62.7728 Q805.562 67.4314 811.598 67.4314 Q817.553 67.4314 821.036 62.7323 Q824.52 58.0333 824.52 49.9314 Q824.52 41.8701 821.036 37.1711 Q817.553 32.4315 811.598 32.4315 M811.598 26.1121 Q821.32 26.1121 826.87 32.4315 Q832.419 38.7509 832.419 49.9314 Q832.419 61.0714 826.87 67.4314 Q821.32 73.7508 811.598 73.7508 Q801.835 73.7508 796.285 67.4314 Q790.776 61.0714 790.776 49.9314 Q790.776 38.7509 796.285 32.4315 Q801.835 26.1121 811.598 26.1121 Z" fill="#000000" fill-rule="evenodd" fill-opacity="1" /><path clip-path="url(#clip300)" d="M871.065 34.1734 Q869.809 33.4443 868.311 33.1202 Q866.852 32.7556 865.07 32.7556 Q858.75 32.7556 855.348 36.8875 Q851.985 40.9789 851.985 48.6757 L851.985 72.576 L844.491 72.576 L844.491 27.2059 L851.985 27.2059 L851.985 34.2544 Q854.335 30.1225 858.102 28.1376 Q861.87 26.1121 867.257 26.1121 Q868.027 26.1121 868.959 26.2337 Q869.89 26.3147 871.025 26.5172 L871.065 34.1734 Z" fill="#000000" fill-rule="evenodd" fill-opacity="1" /><path clip-path="url(#clip300)" d="M912.749 35.9153 Q915.544 30.8922 919.433 28.5022 Q923.322 26.1121 928.588 26.1121 Q935.677 26.1121 939.525 31.0947 Q943.374 36.0368 943.374 45.1919 L943.374 72.576 L935.88 72.576 L935.88 45.4349 Q935.88 38.913 933.571 35.7533 Q931.262 32.5936 926.522 32.5936 Q920.729 32.5936 917.367 36.4419 Q914.005 40.2903 914.005 46.9338 L914.005 72.576 L906.511 72.576 L906.511 45.4349 Q906.511 38.8725 904.202 35.7533 Q901.893 32.5936 897.072 32.5936 Q891.36 32.5936 887.998 36.4824 Q884.636 40.3308 884.636 46.9338 L884.636 72.576 L877.141 72.576 L877.141 27.2059 L884.636 27.2059 L884.636 34.2544 Q887.188 30.082 890.753 28.0971 Q894.317 26.1121 899.219 26.1121 Q904.161 26.1121 907.604 28.6237 Q911.088 31.1352 912.749 35.9153 Z" fill="#000000" fill-rule="evenodd" fill-opacity="1" /><path clip-path="url(#clip300)" d="M985.584 34.9026 L1037.52 34.9026 L1037.52 41.7081 L985.584 41.7081 L985.584 34.9026 M985.584 51.4303 L1037.52 51.4303 L1037.52 58.3168 L985.584 58.3168 L985.584 51.4303 Z" fill="#000000" fill-rule="evenodd" fill-opacity="1" /><path clip-path="url(#clip300)" d="M1088.6 65.6895 L1117.16 65.6895 L1117.16 72.576 L1078.75 72.576 L1078.75 65.6895 Q1083.41 60.8689 1091.43 52.7671 Q1099.5 44.6248 1101.56 42.2752 Q1105.49 37.8598 1107.03 34.8216 Q1108.61 31.7429 1108.61 28.7857 Q1108.61 23.9651 1105.21 20.927 Q1101.85 17.8888 1096.42 17.8888 Q1092.57 17.8888 1088.27 19.2256 Q1084.02 20.5624 1079.16 23.2765 L1079.16 15.0127 Q1084.1 13.0277 1088.4 12.015 Q1092.69 11.0023 1096.25 11.0023 Q1105.65 11.0023 1111.24 15.7013 Q1116.83 20.4004 1116.83 28.2591 Q1116.83 31.9859 1115.42 35.3482 Q1114.04 38.6699 1110.35 43.2069 Q1109.34 44.3817 1103.91 50.0125 Q1098.48 55.6027 1088.6 65.6895 Z" fill="#000000" fill-rule="evenodd" fill-opacity="1" /><path clip-path="url(#clip300)" d="M1134.33 62.2867 L1142.88 62.2867 L1142.88 72.576 L1134.33 72.576 L1134.33 62.2867 Z" fill="#000000" fill-rule="evenodd" fill-opacity="1" /><path clip-path="url(#clip300)" d="M1162.12 65.6895 L1175.49 65.6895 L1175.49 19.5497 L1160.95 22.4663 L1160.95 15.0127 L1175.41 12.096 L1183.59 12.096 L1183.59 65.6895 L1196.96 65.6895 L1196.96 72.576 L1162.12 72.576 L1162.12 65.6895 Z" fill="#000000" fill-rule="evenodd" fill-opacity="1" /><path clip-path="url(#clip300)" d="M1230.99 43.8551 Q1225.15 43.8551 1221.79 46.9743 Q1218.47 50.0935 1218.47 55.5622 Q1218.47 61.0309 1221.79 64.1501 Q1225.15 67.2693 1230.99 67.2693 Q1236.82 67.2693 1240.18 64.1501 Q1243.55 60.9904 1243.55 55.5622 Q1243.55 50.0935 1240.18 46.9743 Q1236.86 43.8551 1230.99 43.8551 M1222.81 40.3713 Q1217.54 39.075 1214.58 35.4697 Q1211.67 31.8644 1211.67 26.6793 Q1211.67 19.4281 1216.81 15.2152 Q1221.99 11.0023 1230.99 11.0023 Q1240.02 11.0023 1245.17 15.2152 Q1250.31 19.4281 1250.31 26.6793 Q1250.31 31.8644 1247.35 35.4697 Q1244.44 39.075 1239.21 40.3713 Q1245.13 41.7486 1248.41 45.759 Q1251.73 49.7694 1251.73 55.5622 Q1251.73 64.3527 1246.34 69.0517 Q1240.99 73.7508 1230.99 73.7508 Q1220.98 73.7508 1215.59 69.0517 Q1210.25 64.3527 1210.25 55.5622 Q1210.25 49.7694 1213.57 45.759 Q1216.89 41.7486 1222.81 40.3713 M1219.81 27.4489 Q1219.81 32.148 1222.72 34.7811 Q1225.68 37.4142 1230.99 37.4142 Q1236.25 37.4142 1239.21 34.7811 Q1242.21 32.148 1242.21 27.4489 Q1242.21 22.7499 1239.21 20.1168 Q1236.25 17.4837 1230.99 17.4837 Q1225.68 17.4837 1222.72 20.1168 Q1219.81 22.7499 1219.81 27.4489 Z" fill="#000000" fill-rule="evenodd" fill-opacity="1" /><path clip-path="url(#clip300)" d="M1288.75 19.2256 L1268.09 51.5113 L1288.75 51.5113 L1288.75 19.2256 M1286.61 12.096 L1296.9 12.096 L1296.9 51.5113 L1305.52 51.5113 L1305.52 58.3168 L1296.9 58.3168 L1296.9 72.576 L1288.75 72.576 L1288.75 58.3168 L1261.45 58.3168 L1261.45 50.4176 L1286.61 12.096 Z" fill="#000000" fill-rule="evenodd" fill-opacity="1" /><path clip-path="url(#clip300)" d="M1326.1 65.6895 L1354.66 65.6895 L1354.66 72.576 L1316.26 72.576 L1316.26 65.6895 Q1320.92 60.8689 1328.94 52.7671 Q1337 44.6248 1339.07 42.2752 Q1343 37.8598 1344.53 34.8216 Q1346.11 31.7429 1346.11 28.7857 Q1346.11 23.9651 1342.71 20.927 Q1339.35 17.8888 1333.92 17.8888 Q1330.07 17.8888 1325.78 19.2256 Q1321.53 20.5624 1316.66 23.2765 L1316.66 15.0127 Q1321.61 13.0277 1325.9 12.015 Q1330.19 11.0023 1333.76 11.0023 Q1343.16 11.0023 1348.75 15.7013 Q1354.34 20.4004 1354.34 28.2591 Q1354.34 31.9859 1352.92 35.3482 Q1351.54 38.6699 1347.86 43.2069 Q1346.84 44.3817 1341.42 50.0125 Q1335.99 55.6027 1326.1 65.6895 Z" fill="#000000" fill-rule="evenodd" fill-opacity="1" /><path clip-path="url(#clip300)" d="M1389.34 17.4837 Q1383.02 17.4837 1379.82 23.7221 Q1376.66 29.92 1376.66 42.3968 Q1376.66 54.833 1379.82 61.0714 Q1383.02 67.2693 1389.34 67.2693 Q1395.7 67.2693 1398.86 61.0714 Q1402.06 54.833 1402.06 42.3968 Q1402.06 29.92 1398.86 23.7221 Q1395.7 17.4837 1389.34 17.4837 M1389.34 11.0023 Q1399.51 11.0023 1404.85 19.0636 Q1410.24 27.0843 1410.24 42.3968 Q1410.24 57.6687 1404.85 65.73 Q1399.51 73.7508 1389.34 73.7508 Q1379.17 73.7508 1373.78 65.73 Q1368.44 57.6687 1368.44 42.3968 Q1368.44 27.0843 1373.78 19.0636 Q1379.17 11.0023 1389.34 11.0023 Z" fill="#000000" fill-rule="evenodd" fill-opacity="1" /><path clip-path="url(#clip300)" d="M1442.12 43.8551 Q1436.29 43.8551 1432.93 46.9743 Q1429.6 50.0935 1429.6 55.5622 Q1429.6 61.0309 1432.93 64.1501 Q1436.29 67.2693 1442.12 67.2693 Q1447.95 67.2693 1451.32 64.1501 Q1454.68 60.9904 1454.68 55.5622 Q1454.68 50.0935 1451.32 46.9743 Q1447.99 43.8551 1442.12 43.8551 M1433.94 40.3713 Q1428.67 39.075 1425.71 35.4697 Q1422.8 31.8644 1422.8 26.6793 Q1422.8 19.4281 1427.94 15.2152 Q1433.13 11.0023 1442.12 11.0023 Q1451.15 11.0023 1456.3 15.2152 Q1461.44 19.4281 1461.44 26.6793 Q1461.44 31.8644 1458.49 35.4697 Q1455.57 39.075 1450.34 40.3713 Q1456.26 41.7486 1459.54 45.759 Q1462.86 49.7694 1462.86 55.5622 Q1462.86 64.3527 1457.47 69.0517 Q1452.13 73.7508 1442.12 73.7508 Q1432.12 73.7508 1426.73 69.0517 Q1421.38 64.3527 1421.38 55.5622 Q1421.38 49.7694 1424.7 45.759 Q1428.02 41.7486 1433.94 40.3713 M1430.94 27.4489 Q1430.94 32.148 1433.86 34.7811 Q1436.81 37.4142 1442.12 37.4142 Q1447.39 37.4142 1450.34 34.7811 Q1453.34 32.148 1453.34 27.4489 Q1453.34 22.7499 1450.34 20.1168 Q1447.39 17.4837 1442.12 17.4837 Q1436.81 17.4837 1433.86 20.1168 Q1430.94 22.7499 1430.94 27.4489 Z" fill="#000000" fill-rule="evenodd" fill-opacity="1" /><path clip-path="url(#clip300)" d="M1502.2 39.9662 Q1508.07 41.222 1511.35 45.1919 Q1514.67 49.1618 1514.67 54.9951 Q1514.67 63.9476 1508.52 68.8492 Q1502.36 73.7508 1491.02 73.7508 Q1487.21 73.7508 1483.16 72.9811 Q1479.15 72.2519 1474.85 70.7531 L1474.85 62.8538 Q1478.26 64.8388 1482.31 65.8515 Q1486.36 66.8642 1490.77 66.8642 Q1498.47 66.8642 1502.48 63.826 Q1506.53 60.7879 1506.53 54.9951 Q1506.53 49.6479 1502.76 46.6502 Q1499.04 43.612 1492.35 43.612 L1485.3 43.612 L1485.3 36.8875 L1492.68 36.8875 Q1498.71 36.8875 1501.91 34.4975 Q1505.11 32.067 1505.11 27.5299 Q1505.11 22.8714 1501.79 20.4004 Q1498.51 17.8888 1492.35 17.8888 Q1488.99 17.8888 1485.14 18.618 Q1481.29 19.3471 1476.68 20.8865 L1476.68 13.5948 Q1481.33 12.2985 1485.38 11.6504 Q1489.48 11.0023 1493.08 11.0023 Q1502.4 11.0023 1507.83 15.2557 Q1513.25 19.4686 1513.25 26.6793 Q1513.25 31.7024 1510.38 35.1862 Q1507.5 38.6294 1502.2 39.9662 Z" fill="#000000" fill-rule="evenodd" fill-opacity="1" /><path clip-path="url(#clip300)" d="M1548.7 39.075 Q1543.19 39.075 1539.95 42.8424 Q1536.75 46.6097 1536.75 53.1722 Q1536.75 59.6941 1539.95 63.502 Q1543.19 67.2693 1548.7 67.2693 Q1554.21 67.2693 1557.41 63.502 Q1560.65 59.6941 1560.65 53.1722 Q1560.65 46.6097 1557.41 42.8424 Q1554.21 39.075 1548.7 39.075 M1564.94 13.4328 L1564.94 20.8865 Q1561.87 19.4281 1558.71 18.6585 Q1555.59 17.8888 1552.51 17.8888 Q1544.41 17.8888 1540.11 23.3575 Q1535.86 28.8262 1535.25 39.8852 Q1537.64 36.3609 1541.25 34.4975 Q1544.85 32.5936 1549.19 32.5936 Q1558.3 32.5936 1563.57 38.1433 Q1568.87 43.6525 1568.87 53.1722 Q1568.87 62.4892 1563.36 68.12 Q1557.86 73.7508 1548.7 73.7508 Q1538.21 73.7508 1532.66 65.73 Q1527.11 57.6687 1527.11 42.3968 Q1527.11 28.0566 1533.91 19.5497 Q1540.72 11.0023 1552.18 11.0023 Q1555.26 11.0023 1558.38 11.6099 Q1561.54 12.2175 1564.94 13.4328 Z" fill="#000000" fill-rule="evenodd" fill-opacity="1" /><path clip-path="url(#clip300)" d="M1583.21 71.3202 L1583.21 63.8666 Q1586.29 65.3249 1589.45 66.0946 Q1592.61 66.8642 1595.65 66.8642 Q1603.75 66.8642 1608.01 61.436 Q1612.3 55.9673 1612.91 44.8678 Q1610.56 48.3516 1606.95 50.215 Q1603.35 52.0784 1598.97 52.0784 Q1589.9 52.0784 1584.59 46.6097 Q1579.33 41.1005 1579.33 31.5808 Q1579.33 22.2638 1584.83 16.633 Q1590.34 11.0023 1599.5 11.0023 Q1609.99 11.0023 1615.5 19.0636 Q1621.05 27.0843 1621.05 42.3968 Q1621.05 56.6965 1614.24 65.2439 Q1607.48 73.7508 1596.01 73.7508 Q1592.94 73.7508 1589.78 73.1431 Q1586.62 72.5355 1583.21 71.3202 M1599.5 45.678 Q1605.01 45.678 1608.21 41.9107 Q1611.45 38.1433 1611.45 31.5808 Q1611.45 25.0589 1608.21 21.2916 Q1605.01 17.4837 1599.5 17.4837 Q1593.99 17.4837 1590.75 21.2916 Q1587.55 25.0589 1587.55 31.5808 Q1587.55 38.1433 1590.75 41.9107 Q1593.99 45.678 1599.5 45.678 Z" fill="#000000" fill-rule="evenodd" fill-opacity="1" /><path clip-path="url(#clip300)" d="M1633.69 12.096 L1672.58 12.096 L1672.58 15.5798 L1650.62 72.576 L1642.07 72.576 L1662.73 18.9825 L1633.69 18.9825 L1633.69 12.096 Z" fill="#000000" fill-rule="evenodd" fill-opacity="1" /><path clip-path="url(#clip300)" d="M1695.59 65.6895 L1724.15 65.6895 L1724.15 72.576 L1685.74 72.576 L1685.74 65.6895 Q1690.4 60.8689 1698.42 52.7671 Q1706.48 44.6248 1708.55 42.2752 Q1712.48 37.8598 1714.02 34.8216 Q1715.6 31.7429 1715.6 28.7857 Q1715.6 23.9651 1712.19 20.927 Q1708.83 17.8888 1703.4 17.8888 Q1699.56 17.8888 1695.26 19.2256 Q1691.01 20.5624 1686.15 23.2765 L1686.15 15.0127 Q1691.09 13.0277 1695.38 12.015 Q1699.68 11.0023 1703.24 11.0023 Q1712.64 11.0023 1718.23 15.7013 Q1723.82 20.4004 1723.82 28.2591 Q1723.82 31.9859 1722.4 35.3482 Q1721.03 38.6699 1717.34 43.2069 Q1716.33 44.3817 1710.9 50.0125 Q1705.47 55.6027 1695.59 65.6895 Z" fill="#000000" fill-rule="evenodd" fill-opacity="1" /><path clip-path="url(#clip300)" d="M1759.83 39.075 Q1754.32 39.075 1751.08 42.8424 Q1747.88 46.6097 1747.88 53.1722 Q1747.88 59.6941 1751.08 63.502 Q1754.32 67.2693 1759.83 67.2693 Q1765.34 67.2693 1768.54 63.502 Q1771.78 59.6941 1771.78 53.1722 Q1771.78 46.6097 1768.54 42.8424 Q1765.34 39.075 1759.83 39.075 M1776.08 13.4328 L1776.08 20.8865 Q1773 19.4281 1769.84 18.6585 Q1766.72 17.8888 1763.64 17.8888 Q1755.54 17.8888 1751.25 23.3575 Q1746.99 28.8262 1746.38 39.8852 Q1748.77 36.3609 1752.38 34.4975 Q1755.99 32.5936 1760.32 32.5936 Q1769.43 32.5936 1774.7 38.1433 Q1780.01 43.6525 1780.01 53.1722 Q1780.01 62.4892 1774.5 68.12 Q1768.99 73.7508 1759.83 73.7508 Q1749.34 73.7508 1743.79 65.73 Q1738.24 57.6687 1738.24 42.3968 Q1738.24 28.0566 1745.05 19.5497 Q1751.85 11.0023 1763.32 11.0023 Q1766.4 11.0023 1769.52 11.6099 Q1772.67 12.2175 1776.08 13.4328 Z" fill="#000000" fill-rule="evenodd" fill-opacity="1" /><path clip-path="url(#clip300)" d="M1794.19 12.096 L1826.31 12.096 L1826.31 18.9825 L1801.68 18.9825 L1801.68 33.8088 Q1803.46 33.2012 1805.24 32.9176 Q1807.03 32.5936 1808.81 32.5936 Q1818.94 32.5936 1824.85 38.1433 Q1830.76 43.6931 1830.76 53.1722 Q1830.76 62.9348 1824.69 68.3631 Q1818.61 73.7508 1807.55 73.7508 Q1803.75 73.7508 1799.78 73.1026 Q1795.85 72.4545 1791.63 71.1582 L1791.63 62.9348 Q1795.28 64.9198 1799.17 65.892 Q1803.06 66.8642 1807.39 66.8642 Q1814.4 66.8642 1818.49 63.1779 Q1822.58 59.4916 1822.58 53.1722 Q1822.58 46.8528 1818.49 43.1664 Q1814.4 39.4801 1807.39 39.4801 Q1804.11 39.4801 1800.83 40.2093 Q1797.59 40.9384 1794.19 42.4778 L1794.19 12.096 Z" fill="#000000" fill-rule="evenodd" fill-opacity="1" /><path clip-path="url(#clip300)" d="M1869.37 19.2256 L1848.71 51.5113 L1869.37 51.5113 L1869.37 19.2256 M1867.22 12.096 L1877.51 12.096 L1877.51 51.5113 L1886.14 51.5113 L1886.14 58.3168 L1877.51 58.3168 L1877.51 72.576 L1869.37 72.576 L1869.37 58.3168 L1842.07 58.3168 L1842.07 50.4176 L1867.22 12.096 Z" fill="#000000" fill-rule="evenodd" fill-opacity="1" /><path clip-path="url(#clip300)" d="M1917.17 43.8551 Q1911.34 43.8551 1907.98 46.9743 Q1904.65 50.0935 1904.65 55.5622 Q1904.65 61.0309 1907.98 64.1501 Q1911.34 67.2693 1917.17 67.2693 Q1923 67.2693 1926.37 64.1501 Q1929.73 60.9904 1929.73 55.5622 Q1929.73 50.0935 1926.37 46.9743 Q1923.04 43.8551 1917.17 43.8551 M1908.99 40.3713 Q1903.72 39.075 1900.76 35.4697 Q1897.85 31.8644 1897.85 26.6793 Q1897.85 19.4281 1902.99 15.2152 Q1908.18 11.0023 1917.17 11.0023 Q1926.2 11.0023 1931.35 15.2152 Q1936.49 19.4281 1936.49 26.6793 Q1936.49 31.8644 1933.54 35.4697 Q1930.62 39.075 1925.39 40.3713 Q1931.31 41.7486 1934.59 45.759 Q1937.91 49.7694 1937.91 55.5622 Q1937.91 64.3527 1932.52 69.0517 Q1927.18 73.7508 1917.17 73.7508 Q1907.16 73.7508 1901.78 69.0517 Q1896.43 64.3527 1896.43 55.5622 Q1896.43 49.7694 1899.75 45.759 Q1903.07 41.7486 1908.99 40.3713 M1905.99 27.4489 Q1905.99 32.148 1908.91 34.7811 Q1911.86 37.4142 1917.17 37.4142 Q1922.44 37.4142 1925.39 34.7811 Q1928.39 32.148 1928.39 27.4489 Q1928.39 22.7499 1925.39 20.1168 Q1922.44 17.4837 1917.17 17.4837 Q1911.86 17.4837 1908.91 20.1168 Q1905.99 22.7499 1905.99 27.4489 Z" fill="#000000" fill-rule="evenodd" fill-opacity="1" /><path clip-path="url(#clip300)" d="M1990.21 48.0275 L1990.21 51.6733 L1955.94 51.6733 Q1956.42 59.3701 1960.56 63.421 Q1964.73 67.4314 1972.14 67.4314 Q1976.44 67.4314 1980.45 66.3781 Q1984.5 65.3249 1988.47 63.2184 L1988.47 70.267 Q1984.46 71.9684 1980.24 72.8596 Q1976.03 73.7508 1971.7 73.7508 Q1960.84 73.7508 1954.48 67.4314 Q1948.16 61.1119 1948.16 50.3365 Q1948.16 39.1965 1954.16 32.6746 Q1960.19 26.1121 1970.4 26.1121 Q1979.55 26.1121 1984.86 32.0264 Q1990.21 37.9003 1990.21 48.0275 M1982.75 45.84 Q1982.67 39.7232 1979.31 36.0774 Q1975.99 32.4315 1970.48 32.4315 Q1964.24 32.4315 1960.47 35.9558 Q1956.75 39.4801 1956.18 45.8805 L1982.75 45.84 Z" fill="#000000" fill-rule="evenodd" fill-opacity="1" /><path clip-path="url(#clip300)" d="M1998.67 46.5287 L2020.51 46.5287 L2020.51 53.1722 L1998.67 53.1722 L1998.67 46.5287 Z" fill="#000000" fill-rule="evenodd" fill-opacity="1" /><path clip-path="url(#clip300)" d="M2034.85 65.6895 L2048.22 65.6895 L2048.22 19.5497 L2033.67 22.4663 L2033.67 15.0127 L2048.14 12.096 L2056.32 12.096 L2056.32 65.6895 L2069.69 65.6895 L2069.69 72.576 L2034.85 72.576 L2034.85 65.6895 Z" fill="#000000" fill-rule="evenodd" fill-opacity="1" /><path clip-path="url(#clip300)" d="M2087.63 65.6895 L2101 65.6895 L2101 19.5497 L2086.46 22.4663 L2086.46 15.0127 L2100.92 12.096 L2109.1 12.096 L2109.1 65.6895 L2122.47 65.6895 L2122.47 72.576 L2087.63 72.576 L2087.63 65.6895 Z" fill="#000000" fill-rule="evenodd" fill-opacity="1" /><polyline clip-path="url(#clip302)" style="stroke:#009af9; stroke-linecap:round; stroke-linejoin:round; stroke-width:4; stroke-opacity:1; fill:none" points="
  217.944,1447.87 228.307,1447.84 238.67,1447.74 249.033,1447.58 259.397,1447.36 269.76,1447.07 280.123,1446.72 290.486,1446.3 300.849,1445.82 311.212,1445.27 
  321.576,1444.66 331.939,1443.98 342.302,1443.24 352.665,1442.44 363.028,1441.57 373.391,1440.64 383.755,1439.64 394.118,1438.58 404.481,1437.46 414.844,1436.27 
  425.207,1435.01 435.57,1433.7 445.934,1432.31 456.297,1430.87 466.66,1429.36 477.023,1427.78 487.386,1426.14 497.749,1424.44 508.113,1422.67 518.476,1420.84 
  528.839,1418.94 539.202,1416.98 549.565,1414.96 559.928,1412.87 570.292,1410.71 580.655,1408.49 591.018,1406.21 601.381,1403.87 611.744,1401.45 622.107,1398.98 
  632.47,1396.44 642.834,1393.84 653.197,1391.17 663.56,1388.44 673.923,1385.64 684.286,1382.78 694.649,1379.85 705.013,1376.86 715.376,1373.81 725.739,1370.69 
  736.102,1367.51 746.465,1364.26 756.828,1360.95 767.192,1357.58 777.555,1354.14 787.918,1350.63 798.281,1347.06 808.644,1343.43 819.007,1339.74 829.371,1335.97 
  839.734,1332.15 850.097,1328.26 860.46,1324.31 870.823,1320.29 881.186,1316.2 891.55,1312.06 901.913,1307.85 912.276,1303.57 922.639,1299.23 933.002,1294.83 
  943.365,1290.36 953.729,1285.83 964.092,1281.23 974.455,1276.57 984.818,1271.84 995.181,1267.05 1005.54,1262.2 1015.91,1257.28 1026.27,1252.3 1036.63,1247.25 
  1047,1242.14 1057.36,1236.97 1067.72,1231.73 1078.09,1226.42 1088.45,1221.05 1098.81,1215.62 1109.18,1210.12 1119.54,1204.56 1129.9,1198.94 1140.27,1193.25 
  1150.63,1187.49 1160.99,1181.67 1171.36,1175.79 1181.72,1169.85 1192.08,1163.83 1202.44,1157.76 1212.81,1151.62 1223.17,1145.41 1233.53,1139.15 1243.9,1132.81 
  1254.26,1126.42 1264.62,1119.96 1274.99,1113.43 1285.35,1106.84 1295.71,1100.19 1306.08,1093.47 1316.44,1086.68 1326.8,1079.84 1337.17,1072.93 1347.53,1065.95 
  1357.89,1058.91 1368.26,1051.81 1378.62,1044.64 1388.98,1037.41 1399.34,1030.11 1409.71,1022.75 1420.07,1015.32 1430.43,1007.83 1440.8,1000.28 1451.16,992.658 
  1461.52,984.976 1471.89,977.229 1482.25,969.417 1492.61,961.541 1502.98,953.602 1513.34,945.597 1523.7,937.529 1534.07,929.396 1544.43,921.199 1554.79,912.937 
  1565.16,904.612 1575.52,896.222 1585.88,887.767 1596.24,879.249 1606.61,870.666 1616.97,862.019 1627.33,853.307 1637.7,844.531 1648.06,835.691 1658.42,826.787 
  1668.79,817.818 1679.15,808.785 1689.51,799.688 1699.88,790.527 1710.24,781.301 1720.6,772.011 1730.97,762.656 1741.33,753.238 1751.69,743.755 1762.06,734.207 
  1772.42,724.596 1782.78,714.92 1793.14,705.18 1803.51,695.375 1813.87,685.507 1824.23,675.574 1834.6,665.576 1844.96,655.515 1855.32,645.389 1865.69,635.199 
  1876.05,624.944 1886.41,614.626 1896.78,604.243 1907.14,593.795 1917.5,583.284 1927.87,572.708 1938.23,562.067 1948.59,551.363 1958.96,540.594 1969.32,529.761 
  1979.68,518.864 1990.05,507.902 2000.41,496.876 2010.77,485.786 2021.13,474.631 2031.5,463.412 2041.86,452.129 2052.22,440.782 2062.59,429.37 2072.95,417.894 
  2083.31,406.354 2093.68,394.749 2104.04,383.08 2114.4,371.347 2124.77,359.55 2135.13,347.688 2145.49,335.762 2155.86,323.772 2166.22,311.717 2176.58,299.598 
  2186.95,287.415 2197.31,275.167 2207.67,262.856 2218.03,250.48 2228.4,238.039 2238.76,225.535 2249.12,212.966 2259.49,200.332 2269.85,187.635 2280.21,174.873 
  2290.58,162.047 
  "/>
<path clip-path="url(#clip300)" d="
M1982.98 272.585 L2279.52 272.585 L2279.52 168.905 L1982.98 168.905  Z
  " fill="#ffffff" fill-rule="evenodd" fill-opacity="1"/>
<polyline clip-path="url(#clip300)" style="stroke:#000000; stroke-linecap:round; stroke-linejoin:round; stroke-width:4; stroke-opacity:1; fill:none" points="
  1982.98,272.585 2279.52,272.585 2279.52,168.905 1982.98,168.905 1982.98,272.585 
  "/>
<polyline clip-path="url(#clip300)" style="stroke:#009af9; stroke-linecap:round; stroke-linejoin:round; stroke-width:4; stroke-opacity:1; fill:none" points="
  2007.39,220.745 2153.86,220.745 
  "/>
<path clip-path="url(#clip300)" d="M2192.11 240.432 Q2190.31 245.062 2188.59 246.474 Q2186.88 247.886 2184.01 247.886 L2180.61 247.886 L2180.61 244.321 L2183.11 244.321 Q2184.87 244.321 2185.84 243.488 Q2186.81 242.654 2187.99 239.552 L2188.76 237.608 L2178.27 212.099 L2182.78 212.099 L2190.89 232.377 L2198.99 212.099 L2203.5 212.099 L2192.11 240.432 Z" fill="#000000" fill-rule="evenodd" fill-opacity="1" /><path clip-path="url(#clip300)" d="M2210.79 234.089 L2218.43 234.089 L2218.43 207.724 L2210.12 209.391 L2210.12 205.131 L2218.39 203.465 L2223.06 203.465 L2223.06 234.089 L2230.7 234.089 L2230.7 238.025 L2210.79 238.025 L2210.79 234.089 Z" fill="#000000" fill-rule="evenodd" fill-opacity="1" /></svg>
