<?xml version="1.0" encoding="utf-8"?>
<svg xmlns="http://www.w3.org/2000/svg" xmlns:xlink="http://www.w3.org/1999/xlink" width="600" height="400" viewBox="0 0 2400 1600">
<defs>
  <clipPath id="clip700">
    <rect x="0" y="0" width="2400" height="1600"/>
  </clipPath>
</defs>
<path clip-path="url(#clip700)" d="
M0 1600 L2400 1600 L2400 0 L0 0  Z
  " fill="#ffffff" fill-rule="evenodd" fill-opacity="1"/>
<defs>
  <clipPath id="clip701">
    <rect x="480" y="0" width="1681" height="1600"/>
  </clipPath>
</defs>
<path clip-path="url(#clip700)" d="
M140.517 1487.47 L2352.76 1487.47 L2352.76 121.675 L140.517 121.675  Z
  " fill="#ffffff" fill-rule="evenodd" fill-opacity="1"/>
<defs>
  <clipPath id="clip702">
    <rect x="140" y="121" width="2213" height="1367"/>
  </clipPath>
</defs>
<polyline clip-path="url(#clip702)" style="stroke:#000000; stroke-linecap:butt; stroke-linejoin:round; stroke-width:2; stroke-opacity:0.1; fill:none" points="
  203.127,1487.47 203.127,121.675 
  "/>
<polyline clip-path="url(#clip702)" style="stroke:#000000; stroke-linecap:butt; stroke-linejoin:round; stroke-width:2; stroke-opacity:0.1; fill:none" points="
  724.882,1487.47 724.882,121.675 
  "/>
<polyline clip-path="url(#clip702)" style="stroke:#000000; stroke-linecap:butt; stroke-linejoin:round; stroke-width:2; stroke-opacity:0.1; fill:none" points="
  1246.64,1487.47 1246.64,121.675 
  "/>
<polyline clip-path="url(#clip702)" style="stroke:#000000; stroke-linecap:butt; stroke-linejoin:round; stroke-width:2; stroke-opacity:0.1; fill:none" points="
  1768.39,1487.47 1768.39,121.675 
  "/>
<polyline clip-path="url(#clip702)" style="stroke:#000000; stroke-linecap:butt; stroke-linejoin:round; stroke-width:2; stroke-opacity:0.1; fill:none" points="
  2290.15,1487.47 2290.15,121.675 
  "/>
<polyline clip-path="url(#clip700)" style="stroke:#000000; stroke-linecap:butt; stroke-linejoin:round; stroke-width:4; stroke-opacity:1; fill:none" points="
  140.517,1487.47 2352.76,1487.47 
  "/>
<polyline clip-path="url(#clip700)" style="stroke:#000000; stroke-linecap:butt; stroke-linejoin:round; stroke-width:4; stroke-opacity:1; fill:none" points="
  203.127,1487.47 203.127,1468.58 
  "/>
<polyline clip-path="url(#clip700)" style="stroke:#000000; stroke-linecap:butt; stroke-linejoin:round; stroke-width:4; stroke-opacity:1; fill:none" points="
  724.882,1487.47 724.882,1468.58 
  "/>
<polyline clip-path="url(#clip700)" style="stroke:#000000; stroke-linecap:butt; stroke-linejoin:round; stroke-width:4; stroke-opacity:1; fill:none" points="
  1246.64,1487.47 1246.64,1468.58 
  "/>
<polyline clip-path="url(#clip700)" style="stroke:#000000; stroke-linecap:butt; stroke-linejoin:round; stroke-width:4; stroke-opacity:1; fill:none" points="
  1768.39,1487.47 1768.39,1468.58 
  "/>
<polyline clip-path="url(#clip700)" style="stroke:#000000; stroke-linecap:butt; stroke-linejoin:round; stroke-width:4; stroke-opacity:1; fill:none" points="
  2290.15,1487.47 2290.15,1468.58 
  "/>
<g clip-path="url(#clip700)">
<text style="fill:#000000; fill-opacity:1; font-family:Arial,Helvetica Neue,Helvetica,sans-serif; font-size:48px; text-anchor:middle;" transform="rotate(0, 203.127, 1549.32)" x="203.127" y="1549.32">0.00</text>
</g>
<g clip-path="url(#clip700)">
<text style="fill:#000000; fill-opacity:1; font-family:Arial,Helvetica Neue,Helvetica,sans-serif; font-size:48px; text-anchor:middle;" transform="rotate(0, 724.882, 1549.32)" x="724.882" y="1549.32">0.25</text>
</g>
<g clip-path="url(#clip700)">
<text style="fill:#000000; fill-opacity:1; font-family:Arial,Helvetica Neue,Helvetica,sans-serif; font-size:48px; text-anchor:middle;" transform="rotate(0, 1246.64, 1549.32)" x="1246.64" y="1549.32">0.50</text>
</g>
<g clip-path="url(#clip700)">
<text style="fill:#000000; fill-opacity:1; font-family:Arial,Helvetica Neue,Helvetica,sans-serif; font-size:48px; text-anchor:middle;" transform="rotate(0, 1768.39, 1549.32)" x="1768.39" y="1549.32">0.75</text>
</g>
<g clip-path="url(#clip700)">
<text style="fill:#000000; fill-opacity:1; font-family:Arial,Helvetica Neue,Helvetica,sans-serif; font-size:48px; text-anchor:middle;" transform="rotate(0, 2290.15, 1549.32)" x="2290.15" y="1549.32">1.00</text>
</g>
<polyline clip-path="url(#clip702)" style="stroke:#000000; stroke-linecap:butt; stroke-linejoin:round; stroke-width:2; stroke-opacity:0.1; fill:none" points="
  140.517,1448.82 2352.76,1448.82 
  "/>
<polyline clip-path="url(#clip702)" style="stroke:#000000; stroke-linecap:butt; stroke-linejoin:round; stroke-width:2; stroke-opacity:0.1; fill:none" points="
  140.517,1019.32 2352.76,1019.32 
  "/>
<polyline clip-path="url(#clip702)" style="stroke:#000000; stroke-linecap:butt; stroke-linejoin:round; stroke-width:2; stroke-opacity:0.1; fill:none" points="
  140.517,589.827 2352.76,589.827 
  "/>
<polyline clip-path="url(#clip702)" style="stroke:#000000; stroke-linecap:butt; stroke-linejoin:round; stroke-width:2; stroke-opacity:0.1; fill:none" points="
  140.517,160.33 2352.76,160.33 
  "/>
<polyline clip-path="url(#clip700)" style="stroke:#000000; stroke-linecap:butt; stroke-linejoin:round; stroke-width:4; stroke-opacity:1; fill:none" points="
  140.517,1487.47 140.517,121.675 
  "/>
<polyline clip-path="url(#clip700)" style="stroke:#000000; stroke-linecap:butt; stroke-linejoin:round; stroke-width:4; stroke-opacity:1; fill:none" points="
  140.517,1448.82 159.414,1448.82 
  "/>
<polyline clip-path="url(#clip700)" style="stroke:#000000; stroke-linecap:butt; stroke-linejoin:round; stroke-width:4; stroke-opacity:1; fill:none" points="
  140.517,1019.32 159.414,1019.32 
  "/>
<polyline clip-path="url(#clip700)" style="stroke:#000000; stroke-linecap:butt; stroke-linejoin:round; stroke-width:4; stroke-opacity:1; fill:none" points="
  140.517,589.827 159.414,589.827 
  "/>
<polyline clip-path="url(#clip700)" style="stroke:#000000; stroke-linecap:butt; stroke-linejoin:round; stroke-width:4; stroke-opacity:1; fill:none" points="
  140.517,160.33 159.414,160.33 
  "/>
<g clip-path="url(#clip700)">
<text style="fill:#000000; fill-opacity:1; font-family:Arial,Helvetica Neue,Helvetica,sans-serif; font-size:48px; text-anchor:middle;" transform="rotate(0, 77.7545, 1466.32)" x="77.7545" y="1466.32">−1</text>
</g>
<g clip-path="url(#clip700)">
<text style="fill:#000000; fill-opacity:1; font-family:Arial,Helvetica Neue,Helvetica,sans-serif; font-size:48px; text-anchor:middle;" transform="rotate(0, 91.1356, 1036.82)" x="91.1356" y="1036.82">0</text>
</g>
<g clip-path="url(#clip700)">
<text style="fill:#000000; fill-opacity:1; font-family:Arial,Helvetica Neue,Helvetica,sans-serif; font-size:48px; text-anchor:middle;" transform="rotate(0, 91.1356, 607.327)" x="91.1356" y="607.327">1</text>
</g>
<g clip-path="url(#clip700)">
<text style="fill:#000000; fill-opacity:1; font-family:Arial,Helvetica Neue,Helvetica,sans-serif; font-size:48px; text-anchor:middle;" transform="rotate(0, 91.1356, 177.83)" x="91.1356" y="177.83">2</text>
</g>
<g clip-path="url(#clip700)">
<text style="fill:#000000; fill-opacity:1; font-family:Arial,Helvetica Neue,Helvetica,sans-serif; font-size:84px; text-anchor:middle;" transform="rotate(0, 1246.64, 73.2)" x="1246.64" y="73.2">residual norm = 2.184208369726548e-11</text>
</g>
<polyline clip-path="url(#clip702)" style="stroke:#009af9; stroke-linecap:butt; stroke-linejoin:round; stroke-width:8; stroke-opacity:1; fill:none" points="
  203.127,375.078 213.562,375.073 223.998,375.057 234.433,375.03 244.868,374.992 255.303,374.944 265.738,374.885 276.173,374.815 286.608,374.735 297.043,374.643 
  307.478,374.541 317.913,374.429 328.348,374.305 338.784,374.171 349.219,374.026 359.654,373.87 370.089,373.704 380.524,373.527 390.959,373.339 401.394,373.14 
  411.829,372.931 422.264,372.711 432.699,372.48 443.134,372.238 453.57,371.986 464.005,371.723 474.44,371.449 484.875,371.164 495.31,370.869 505.745,370.563 
  516.18,370.246 526.615,369.919 537.05,369.581 547.485,369.232 557.92,368.872 568.355,368.502 578.791,368.12 589.226,367.728 599.661,367.326 610.096,366.912 
  620.531,366.488 630.966,366.053 641.401,365.608 651.836,365.151 662.271,364.684 672.706,364.207 683.141,363.718 693.577,363.219 704.012,362.709 714.447,362.188 
  724.882,361.656 735.317,361.114 745.752,360.561 756.187,359.997 766.622,359.423 777.057,358.838 787.492,358.242 797.927,357.635 808.363,357.018 818.798,356.39 
  829.233,355.751 839.668,355.101 850.103,354.441 860.538,353.77 870.973,353.088 881.408,352.395 891.843,351.692 902.278,350.978 912.713,350.253 923.149,349.518 
  933.584,348.772 944.019,348.015 954.454,347.247 964.889,346.468 975.324,345.679 985.759,344.879 996.194,344.069 1006.63,343.247 1017.06,342.415 1027.5,341.572 
  1037.93,340.718 1048.37,339.854 1058.8,338.979 1069.24,338.093 1079.67,337.197 1090.11,336.289 1100.55,335.371 1110.98,334.442 1121.42,333.503 1131.85,332.553 
  1142.29,331.592 1152.72,330.62 1163.16,329.637 1173.59,328.644 1184.03,327.64 1194.46,326.626 1204.9,325.6 1215.33,324.564 1225.77,323.517 1236.2,322.459 
  1246.64,321.391 1257.07,320.312 1267.51,319.222 1277.94,318.122 1288.38,317.01 1298.81,315.888 1309.25,314.755 1319.68,313.612 1330.12,312.458 1340.55,311.293 
  1350.99,310.117 1361.42,308.93 1371.86,307.733 1382.29,306.525 1392.73,305.306 1403.16,304.077 1413.6,302.837 1424.03,301.586 1434.47,300.324 1444.9,299.052 
  1455.34,297.769 1465.77,296.475 1476.21,295.17 1486.64,293.855 1497.08,292.529 1507.51,291.192 1517.95,289.845 1528.38,288.486 1538.82,287.117 1549.25,285.738 
  1559.69,284.347 1570.12,282.946 1580.56,281.534 1590.99,280.111 1601.43,278.678 1611.86,277.233 1622.3,275.779 1632.73,274.313 1643.17,272.837 1653.6,271.349 
  1664.04,269.852 1674.48,268.343 1684.91,266.824 1695.35,265.293 1705.78,263.753 1716.22,262.201 1726.65,260.639 1737.09,259.066 1747.52,257.482 1757.96,255.887 
  1768.39,254.282 1778.83,252.666 1789.26,251.04 1799.7,249.402 1810.13,247.754 1820.57,246.095 1831,244.425 1841.44,242.745 1851.87,241.054 1862.31,239.352 
  1872.74,237.639 1883.18,235.916 1893.61,234.182 1904.05,232.437 1914.48,230.681 1924.92,228.915 1935.35,227.138 1945.79,225.35 1956.22,223.552 1966.66,221.743 
  1977.09,219.923 1987.53,218.092 1997.96,216.25 2008.4,214.398 2018.83,212.535 2029.27,210.661 2039.7,208.777 2050.14,206.882 2060.57,204.976 2071.01,203.059 
  2081.44,201.132 2091.88,199.194 2102.31,197.245 2112.75,195.286 2123.18,193.315 2133.62,191.334 2144.05,189.342 2154.49,187.34 2164.92,185.327 2175.36,183.303 
  2185.79,181.268 2196.23,179.222 2206.66,177.166 2217.1,175.099 2227.53,173.021 2237.97,170.933 2248.41,168.834 2258.84,166.724 2269.28,164.603 2279.71,162.472 
  2290.15,160.33 
  "/>
<polyline clip-path="url(#clip702)" style="stroke:#e26f46; stroke-linecap:butt; stroke-linejoin:round; stroke-width:8; stroke-opacity:1; fill:none" points="
  203.127,1337.08 213.562,1335.67 223.998,1334.2 234.433,1332.7 244.868,1331.14 255.303,1329.55 265.738,1327.92 276.173,1326.25 286.608,1324.54 297.043,1322.79 
  307.478,1321.01 317.913,1319.2 328.348,1317.35 338.784,1315.47 349.219,1313.56 359.654,1311.62 370.089,1309.66 380.524,1307.67 390.959,1305.66 401.394,1303.63 
  411.829,1301.59 422.264,1299.52 432.699,1297.44 443.134,1295.35 453.57,1293.24 464.005,1291.13 474.44,1289 484.875,1286.87 495.31,1284.73 505.745,1282.59 
  516.18,1280.45 526.615,1278.3 537.05,1276.15 547.485,1274 557.92,1271.86 568.355,1269.71 578.791,1267.57 589.226,1265.43 599.661,1263.3 610.096,1261.17 
  620.531,1259.05 630.966,1256.94 641.401,1254.83 651.836,1252.74 662.271,1250.65 672.706,1248.58 683.141,1246.51 693.577,1244.45 704.012,1242.41 714.447,1240.38 
  724.882,1238.36 735.317,1236.35 745.752,1234.35 756.187,1232.37 766.622,1230.39 777.057,1228.43 787.492,1226.49 797.927,1224.55 808.363,1222.63 818.798,1220.72 
  829.233,1218.82 839.668,1216.93 850.103,1215.05 860.538,1213.19 870.973,1211.33 881.408,1209.49 891.843,1207.65 902.278,1205.82 912.713,1204 923.149,1202.19 
  933.584,1200.39 944.019,1198.59 954.454,1196.8 964.889,1195.01 975.324,1193.22 985.759,1191.44 996.194,1189.66 1006.63,1187.88 1017.06,1186.1 1027.5,1184.32 
  1037.93,1182.54 1048.37,1180.76 1058.8,1178.97 1069.24,1177.17 1079.67,1175.37 1090.11,1173.56 1100.55,1171.74 1110.98,1169.91 1121.42,1168.07 1131.85,1166.22 
  1142.29,1164.35 1152.72,1162.47 1163.16,1160.57 1173.59,1158.66 1184.03,1156.72 1194.46,1154.77 1204.9,1152.79 1215.33,1150.79 1225.77,1148.77 1236.2,1146.72 
  1246.64,1144.64 1257.07,1142.54 1267.51,1140.41 1277.94,1138.24 1288.38,1136.05 1298.81,1133.82 1309.25,1131.56 1319.68,1129.26 1330.12,1126.93 1340.55,1124.56 
  1350.99,1122.15 1361.42,1119.71 1371.86,1117.22 1382.29,1114.69 1392.73,1112.12 1403.16,1109.5 1413.6,1106.84 1424.03,1104.14 1434.47,1101.39 1444.9,1098.59 
  1455.34,1095.75 1465.77,1092.86 1476.21,1089.92 1486.64,1086.93 1497.08,1083.89 1507.51,1080.8 1517.95,1077.67 1528.38,1074.47 1538.82,1071.23 1549.25,1067.94 
  1559.69,1064.59 1570.12,1061.19 1580.56,1057.74 1590.99,1054.23 1601.43,1050.68 1611.86,1047.06 1622.3,1043.4 1632.73,1039.68 1643.17,1035.9 1653.6,1032.08 
  1664.04,1028.2 1674.48,1024.26 1684.91,1020.27 1695.35,1016.23 1705.78,1012.14 1716.22,1007.99 1726.65,1003.79 1737.09,999.531 1747.52,995.223 1757.96,990.862 
  1768.39,986.448 1778.83,981.981 1789.26,977.462 1799.7,972.891 1810.13,968.268 1820.57,963.594 1831,958.868 1841.44,954.09 1851.87,949.261 1862.31,944.382 
  1872.74,939.451 1883.18,934.471 1893.61,929.439 1904.05,924.358 1914.48,919.226 1924.92,914.045 1935.35,908.814 1945.79,903.533 1956.22,898.203 1966.66,892.823 
  1977.09,887.395 1987.53,881.917 1997.96,876.389 2008.4,870.813 2018.83,865.187 2029.27,859.512 2039.7,853.788 2050.14,848.014 2060.57,842.191 2071.01,836.319 
  2081.44,830.399 2091.88,824.43 2102.31,818.414 2112.75,812.351 2123.18,806.242 2133.62,800.087 2144.05,793.887 2154.49,787.641 2164.92,781.35 2175.36,775.011 
  2185.79,768.623 2196.23,762.184 2206.66,755.689 2217.1,749.135 2227.53,742.515 2237.97,735.824 2248.41,729.056 2258.84,722.205 2269.28,715.266 2279.71,708.235 
  2290.15,701.109 
  "/>
<polyline clip-path="url(#clip702)" style="stroke:#3da44d; stroke-linecap:butt; stroke-linejoin:round; stroke-width:8; stroke-opacity:1; fill:none" points="
  203.127,1448.82 213.562,1436.01 223.998,1423.2 234.433,1410.37 244.868,1397.53 255.303,1384.68 265.738,1371.82 276.173,1358.93 286.608,1346.02 297.043,1333.1 
  307.478,1320.16 317.913,1307.2 328.348,1294.23 338.784,1281.24 349.219,1268.24 359.654,1255.24 370.089,1242.24 380.524,1229.23 390.959,1216.23 401.394,1203.25 
  411.829,1190.28 422.264,1177.33 432.699,1164.41 443.134,1151.53 453.57,1138.68 464.005,1125.88 474.44,1113.14 484.875,1100.46 495.31,1087.84 505.745,1075.31 
  516.18,1062.85 526.615,1050.48 537.05,1038.21 547.485,1026.04 557.92,1013.98 568.355,1002.04 578.791,990.222 589.226,978.535 599.661,966.986 610.096,955.579 
  620.531,944.321 630.966,933.219 641.401,922.277 651.836,911.501 662.271,900.897 672.706,890.468 683.141,880.219 693.577,870.155 704.012,860.279 714.447,850.595 
  724.882,841.106 735.317,831.816 745.752,822.726 756.187,813.84 766.622,805.159 777.057,796.686 787.492,788.421 797.927,780.365 808.363,772.521 818.798,764.887 
  829.233,757.466 839.668,750.256 850.103,743.258 860.538,736.471 870.973,729.894 881.408,723.528 891.843,717.37 902.278,711.419 912.713,705.675 923.149,700.135 
  933.584,694.797 944.019,689.661 954.454,684.722 964.889,679.98 975.324,675.433 985.759,671.076 996.194,666.909 1006.63,662.928 1017.06,659.13 1027.5,655.513 
  1037.93,652.074 1048.37,648.81 1058.8,645.717 1069.24,642.793 1079.67,640.034 1090.11,637.437 1100.55,635 1110.98,632.718 1121.42,630.588 1131.85,628.608 
  1142.29,626.774 1152.72,625.082 1163.16,623.529 1173.59,622.111 1184.03,620.826 1194.46,619.67 1204.9,618.64 1215.33,617.732 1225.77,616.942 1236.2,616.268 
  1246.64,615.706 1257.07,615.252 1267.51,614.904 1277.94,614.658 1288.38,614.51 1298.81,614.458 1309.25,614.497 1319.68,614.625 1330.12,614.838 1340.55,615.133 
  1350.99,615.507 1361.42,615.956 1371.86,616.477 1382.29,617.066 1392.73,617.721 1403.16,618.438 1413.6,619.214 1424.03,620.046 1434.47,620.93 1444.9,621.862 
  1455.34,622.841 1465.77,623.862 1476.21,624.923 1486.64,626.02 1497.08,627.149 1507.51,628.309 1517.95,629.495 1528.38,630.704 1538.82,631.933 1549.25,633.178 
  1559.69,634.438 1570.12,635.708 1580.56,636.985 1590.99,638.267 1601.43,639.549 1611.86,640.829 1622.3,642.104 1632.73,643.371 1643.17,644.626 1653.6,645.867 
  1664.04,647.09 1674.48,648.292 1684.91,649.47 1695.35,650.622 1705.78,651.744 1716.22,652.833 1726.65,653.886 1737.09,654.901 1747.52,655.874 1757.96,656.803 
  1768.39,657.684 1778.83,658.515 1789.26,659.294 1799.7,660.017 1810.13,660.681 1820.57,661.285 1831,661.825 1841.44,662.298 1851.87,662.703 1862.31,663.036 
  1872.74,663.296 1883.18,663.479 1893.61,663.584 1904.05,663.607 1914.48,663.547 1924.92,663.402 1935.35,663.168 1945.79,662.845 1956.22,662.429 1966.66,661.919 
  1977.09,661.313 1987.53,660.608 1997.96,659.804 2008.4,658.897 2018.83,657.886 2029.27,656.77 2039.7,655.546 2050.14,654.213 2060.57,652.768 2071.01,651.212 
  2081.44,649.541 2091.88,647.754 2102.31,645.85 2112.75,643.827 2123.18,641.684 2133.62,639.419 2144.05,637.031 2154.49,634.517 2164.92,631.878 2175.36,629.111 
  2185.79,626.215 2196.23,623.189 2206.66,620.031 2217.1,616.739 2227.53,613.312 2237.97,609.749 2248.41,606.047 2258.84,602.206 2269.28,598.224 2279.71,594.098 
  2290.15,589.827 
  "/>
<path clip-path="url(#clip700)" d="
M1844.53 318.101 L2279.01 318.101 L2279.01 167.202 L1844.53 167.202  Z
  " fill="#ffffff" fill-rule="evenodd" fill-opacity="1"/>
<polyline clip-path="url(#clip700)" style="stroke:#000000; stroke-linecap:butt; stroke-linejoin:round; stroke-width:4; stroke-opacity:1; fill:none" points="
  1844.53,318.101 2279.01,318.101 2279.01,167.202 1844.53,167.202 1844.53,318.101 
  "/>
<polyline clip-path="url(#clip700)" style="stroke:#e26f46; stroke-linecap:butt; stroke-linejoin:round; stroke-width:4; stroke-opacity:1; fill:none" points="
  1869.11,217.502 2016.59,217.502 
  "/>
<g clip-path="url(#clip700)">
<text style="fill:#000000; fill-opacity:1; font-family:Arial,Helvetica Neue,Helvetica,sans-serif; font-size:48px; text-anchor:start;" transform="rotate(0, 2041.17, 235.002)" x="2041.17" y="235.002">λ=0.07?!</text>
</g>
<polyline clip-path="url(#clip700)" style="stroke:#3da44d; stroke-linecap:butt; stroke-linejoin:round; stroke-width:4; stroke-opacity:1; fill:none" points="
  1869.11,267.801 2016.59,267.801 
  "/>
<g clip-path="url(#clip700)">
<text style="fill:#000000; fill-opacity:1; font-family:Arial,Helvetica Neue,Helvetica,sans-serif; font-size:48px; text-anchor:start;" transform="rotate(0, 2041.17, 285.301)" x="2041.17" y="285.301">λ=0.07</text>
</g>
</svg>
