<?xml version="1.0" encoding="utf-8"?>
<svg xmlns="http://www.w3.org/2000/svg" xmlns:xlink="http://www.w3.org/1999/xlink" width="600" height="400" viewBox="0 0 2400 1600">
<defs>
  <clipPath id="clip040">
    <rect x="0" y="0" width="2400" height="1600"/>
  </clipPath>
</defs>
<path clip-path="url(#clip040)" d="
M0 1600 L2400 1600 L2400 0 L0 0  Z
  " fill="#ffffff" fill-rule="evenodd" fill-opacity="1"/>
<defs>
  <clipPath id="clip041">
    <rect x="480" y="0" width="1681" height="1600"/>
  </clipPath>
</defs>
<path clip-path="url(#clip040)" d="
M180.66 1487.47 L2352.76 1487.47 L2352.76 47.2441 L180.66 47.2441  Z
  " fill="#ffffff" fill-rule="evenodd" fill-opacity="1"/>
<defs>
  <clipPath id="clip042">
    <rect x="180" y="47" width="2173" height="1441"/>
  </clipPath>
</defs>
<polyline clip-path="url(#clip042)" style="stroke:#000000; stroke-linecap:butt; stroke-linejoin:round; stroke-width:2; stroke-opacity:0.1; fill:none" points="
  242.135,1487.47 242.135,47.2441 
  "/>
<polyline clip-path="url(#clip042)" style="stroke:#000000; stroke-linecap:butt; stroke-linejoin:round; stroke-width:2; stroke-opacity:0.1; fill:none" points="
  754.421,1487.47 754.421,47.2441 
  "/>
<polyline clip-path="url(#clip042)" style="stroke:#000000; stroke-linecap:butt; stroke-linejoin:round; stroke-width:2; stroke-opacity:0.1; fill:none" points="
  1266.71,1487.47 1266.71,47.2441 
  "/>
<polyline clip-path="url(#clip042)" style="stroke:#000000; stroke-linecap:butt; stroke-linejoin:round; stroke-width:2; stroke-opacity:0.1; fill:none" points="
  1778.99,1487.47 1778.99,47.2441 
  "/>
<polyline clip-path="url(#clip042)" style="stroke:#000000; stroke-linecap:butt; stroke-linejoin:round; stroke-width:2; stroke-opacity:0.1; fill:none" points="
  2291.28,1487.47 2291.28,47.2441 
  "/>
<polyline clip-path="url(#clip040)" style="stroke:#000000; stroke-linecap:butt; stroke-linejoin:round; stroke-width:4; stroke-opacity:1; fill:none" points="
  180.66,1487.47 2352.76,1487.47 
  "/>
<polyline clip-path="url(#clip040)" style="stroke:#000000; stroke-linecap:butt; stroke-linejoin:round; stroke-width:4; stroke-opacity:1; fill:none" points="
  242.135,1487.47 242.135,1468.58 
  "/>
<polyline clip-path="url(#clip040)" style="stroke:#000000; stroke-linecap:butt; stroke-linejoin:round; stroke-width:4; stroke-opacity:1; fill:none" points="
  754.421,1487.47 754.421,1468.58 
  "/>
<polyline clip-path="url(#clip040)" style="stroke:#000000; stroke-linecap:butt; stroke-linejoin:round; stroke-width:4; stroke-opacity:1; fill:none" points="
  1266.71,1487.47 1266.71,1468.58 
  "/>
<polyline clip-path="url(#clip040)" style="stroke:#000000; stroke-linecap:butt; stroke-linejoin:round; stroke-width:4; stroke-opacity:1; fill:none" points="
  1778.99,1487.47 1778.99,1468.58 
  "/>
<polyline clip-path="url(#clip040)" style="stroke:#000000; stroke-linecap:butt; stroke-linejoin:round; stroke-width:4; stroke-opacity:1; fill:none" points="
  2291.28,1487.47 2291.28,1468.58 
  "/>
<g clip-path="url(#clip040)">
<text style="fill:#000000; fill-opacity:1; font-family:Arial,Helvetica Neue,Helvetica,sans-serif; font-size:48px; text-anchor:middle;" transform="rotate(0, 242.135, 1549.32)" x="242.135" y="1549.32">0.00</text>
</g>
<g clip-path="url(#clip040)">
<text style="fill:#000000; fill-opacity:1; font-family:Arial,Helvetica Neue,Helvetica,sans-serif; font-size:48px; text-anchor:middle;" transform="rotate(0, 754.421, 1549.32)" x="754.421" y="1549.32">0.25</text>
</g>
<g clip-path="url(#clip040)">
<text style="fill:#000000; fill-opacity:1; font-family:Arial,Helvetica Neue,Helvetica,sans-serif; font-size:48px; text-anchor:middle;" transform="rotate(0, 1266.71, 1549.32)" x="1266.71" y="1549.32">0.50</text>
</g>
<g clip-path="url(#clip040)">
<text style="fill:#000000; fill-opacity:1; font-family:Arial,Helvetica Neue,Helvetica,sans-serif; font-size:48px; text-anchor:middle;" transform="rotate(0, 1778.99, 1549.32)" x="1778.99" y="1549.32">0.75</text>
</g>
<g clip-path="url(#clip040)">
<text style="fill:#000000; fill-opacity:1; font-family:Arial,Helvetica Neue,Helvetica,sans-serif; font-size:48px; text-anchor:middle;" transform="rotate(0, 2291.28, 1549.32)" x="2291.28" y="1549.32">1.00</text>
</g>
<polyline clip-path="url(#clip042)" style="stroke:#000000; stroke-linecap:butt; stroke-linejoin:round; stroke-width:2; stroke-opacity:0.1; fill:none" points="
  180.66,1446.71 2352.76,1446.71 
  "/>
<polyline clip-path="url(#clip042)" style="stroke:#000000; stroke-linecap:butt; stroke-linejoin:round; stroke-width:2; stroke-opacity:0.1; fill:none" points="
  180.66,1107.04 2352.76,1107.04 
  "/>
<polyline clip-path="url(#clip042)" style="stroke:#000000; stroke-linecap:butt; stroke-linejoin:round; stroke-width:2; stroke-opacity:0.1; fill:none" points="
  180.66,767.359 2352.76,767.359 
  "/>
<polyline clip-path="url(#clip042)" style="stroke:#000000; stroke-linecap:butt; stroke-linejoin:round; stroke-width:2; stroke-opacity:0.1; fill:none" points="
  180.66,427.682 2352.76,427.682 
  "/>
<polyline clip-path="url(#clip042)" style="stroke:#000000; stroke-linecap:butt; stroke-linejoin:round; stroke-width:2; stroke-opacity:0.1; fill:none" points="
  180.66,88.0053 2352.76,88.0053 
  "/>
<polyline clip-path="url(#clip040)" style="stroke:#000000; stroke-linecap:butt; stroke-linejoin:round; stroke-width:4; stroke-opacity:1; fill:none" points="
  180.66,1487.47 180.66,47.2441 
  "/>
<polyline clip-path="url(#clip040)" style="stroke:#000000; stroke-linecap:butt; stroke-linejoin:round; stroke-width:4; stroke-opacity:1; fill:none" points="
  180.66,1446.71 199.558,1446.71 
  "/>
<polyline clip-path="url(#clip040)" style="stroke:#000000; stroke-linecap:butt; stroke-linejoin:round; stroke-width:4; stroke-opacity:1; fill:none" points="
  180.66,1107.04 199.558,1107.04 
  "/>
<polyline clip-path="url(#clip040)" style="stroke:#000000; stroke-linecap:butt; stroke-linejoin:round; stroke-width:4; stroke-opacity:1; fill:none" points="
  180.66,767.359 199.558,767.359 
  "/>
<polyline clip-path="url(#clip040)" style="stroke:#000000; stroke-linecap:butt; stroke-linejoin:round; stroke-width:4; stroke-opacity:1; fill:none" points="
  180.66,427.682 199.558,427.682 
  "/>
<polyline clip-path="url(#clip040)" style="stroke:#000000; stroke-linecap:butt; stroke-linejoin:round; stroke-width:4; stroke-opacity:1; fill:none" points="
  180.66,88.0053 199.558,88.0053 
  "/>
<g clip-path="url(#clip040)">
<text style="fill:#000000; fill-opacity:1; font-family:Arial,Helvetica Neue,Helvetica,sans-serif; font-size:48px; text-anchor:middle;" transform="rotate(0, 97.8262, 1464.21)" x="97.8262" y="1464.21">−1.0</text>
</g>
<g clip-path="url(#clip040)">
<text style="fill:#000000; fill-opacity:1; font-family:Arial,Helvetica Neue,Helvetica,sans-serif; font-size:48px; text-anchor:middle;" transform="rotate(0, 97.8262, 1124.54)" x="97.8262" y="1124.54">−0.5</text>
</g>
<g clip-path="url(#clip040)">
<text style="fill:#000000; fill-opacity:1; font-family:Arial,Helvetica Neue,Helvetica,sans-serif; font-size:48px; text-anchor:middle;" transform="rotate(0, 111.207, 784.859)" x="111.207" y="784.859">0.0</text>
</g>
<g clip-path="url(#clip040)">
<text style="fill:#000000; fill-opacity:1; font-family:Arial,Helvetica Neue,Helvetica,sans-serif; font-size:48px; text-anchor:middle;" transform="rotate(0, 111.207, 445.182)" x="111.207" y="445.182">0.5</text>
</g>
<g clip-path="url(#clip040)">
<text style="fill:#000000; fill-opacity:1; font-family:Arial,Helvetica Neue,Helvetica,sans-serif; font-size:48px; text-anchor:middle;" transform="rotate(0, 111.207, 105.505)" x="111.207" y="105.505">1.0</text>
</g>
<polyline clip-path="url(#clip042)" style="stroke:#009af9; stroke-linecap:butt; stroke-linejoin:round; stroke-width:8; stroke-opacity:1; fill:none" points="
  242.135,1446.71 248.965,1442.87 255.796,1438.98 262.626,1435.04 269.457,1431.03 276.287,1426.98 283.118,1422.86 289.948,1418.69 296.779,1414.45 303.609,1410.16 
  310.44,1405.8 317.27,1401.37 324.101,1396.89 330.931,1392.33 337.762,1387.71 344.592,1383.01 351.423,1378.25 358.253,1373.42 365.084,1368.51 371.914,1363.52 
  378.745,1358.47 385.575,1353.33 392.405,1348.11 399.236,1342.82 406.066,1337.45 412.897,1331.99 419.727,1326.45 426.558,1320.82 433.388,1315.11 440.219,1309.32 
  447.049,1303.43 453.88,1297.46 460.71,1291.39 467.541,1285.24 474.371,1278.99 481.202,1272.65 488.032,1266.22 494.863,1259.7 501.693,1253.07 508.524,1246.36 
  515.354,1239.55 522.185,1232.64 529.015,1225.63 535.846,1218.53 542.676,1211.33 549.507,1204.03 556.337,1196.64 563.168,1189.14 569.998,1181.55 576.829,1173.87 
  583.659,1166.08 590.49,1158.2 597.32,1150.22 604.151,1142.15 610.981,1133.99 617.812,1125.73 624.642,1117.38 631.473,1108.93 638.303,1100.4 645.134,1091.78 
  651.964,1083.07 658.795,1074.28 665.625,1065.4 672.456,1056.44 679.286,1047.41 686.117,1038.29 692.947,1029.1 699.778,1019.83 706.608,1010.5 713.438,1001.1 
  720.269,991.631 727.099,982.102 733.93,972.514 740.76,962.87 747.591,953.174 754.421,943.428 761.252,933.636 768.082,923.802 774.913,913.929 781.743,904.021 
  788.574,894.081 795.404,884.114 802.235,874.123 809.065,864.111 815.896,854.084 822.726,844.045 829.557,833.999 836.387,823.948 843.218,813.897 850.048,803.851 
  856.879,793.814 863.709,783.789 870.54,773.78 877.37,763.793 884.201,753.83 891.031,743.896 897.862,733.994 904.692,724.13 911.523,714.305 918.353,704.525 
  925.184,694.793 932.014,685.113 938.845,675.488 945.675,665.921 952.506,656.417 959.336,646.978 966.167,637.608 972.997,628.309 979.828,619.085 986.658,609.939 
  993.489,600.872 1000.32,591.889 1007.15,582.991 1013.98,574.181 1020.81,565.461 1027.64,556.833 1034.47,548.299 1041.3,539.862 1048.13,531.522 1054.96,523.282 
  1061.79,515.142 1068.62,507.105 1075.45,499.171 1082.28,491.342 1089.12,483.618 1095.95,476.001 1102.78,468.491 1109.61,461.089 1116.44,453.796 1123.27,446.611 
  1130.1,439.535 1136.93,432.568 1143.76,425.711 1150.59,418.963 1157.42,412.324 1164.25,405.794 1171.08,399.372 1177.91,393.059 1184.74,386.854 1191.57,380.756 
  1198.4,374.765 1205.23,368.88 1212.06,363.1 1218.89,357.425 1225.73,351.853 1232.56,346.383 1239.39,341.016 1246.22,335.748 1253.05,330.581 1259.88,325.512 
  1266.71,320.54 1273.54,315.664 1280.37,310.883 1287.2,306.195 1294.03,301.6 1300.86,297.096 1307.69,292.681 1314.52,288.355 1321.35,284.115 1328.18,279.961 
  1335.01,275.892 1341.84,271.905 1348.67,267.999 1355.5,264.174 1362.33,260.427 1369.17,256.757 1376,253.163 1382.83,249.644 1389.66,246.197 1396.49,242.822 
  1403.32,239.517 1410.15,236.281 1416.98,233.113 1423.81,230.01 1430.64,226.973 1437.47,223.999 1444.3,221.086 1451.13,218.235 1457.96,215.443 1464.79,212.71 
  1471.62,210.034 1478.45,207.413 1485.28,204.847 1492.11,202.334 1498.94,199.874 1505.78,197.464 1512.61,195.105 1519.44,192.794 1526.27,190.531 1533.1,188.315 
  1539.93,186.144 1546.76,184.017 1553.59,181.934 1560.42,179.894 1567.25,177.895 1574.08,175.936 1580.91,174.018 1587.74,172.138 1594.57,170.295 1601.4,168.49 
  1608.23,166.721 1615.06,164.986 1621.89,163.287 1628.72,161.62 1635.55,159.987 1642.39,158.386 1649.22,156.816 1656.05,155.276 1662.88,153.767 1669.71,152.286 
  1676.54,150.834 1683.37,149.41 1690.2,148.013 1697.03,146.643 1703.86,145.299 1710.69,143.98 1717.52,142.686 1724.35,141.416 1731.18,140.169 1738.01,138.946 
  1744.84,137.746 1751.67,136.567 1758.5,135.411 1765.33,134.275 1772.16,133.16 1778.99,132.066 1785.83,130.991 1792.66,129.936 1799.49,128.9 1806.32,127.882 
  1813.15,126.883 1819.98,125.901 1826.81,124.937 1833.64,123.99 1840.47,123.06 1847.3,122.146 1854.13,121.248 1860.96,120.366 1867.79,119.5 1874.62,118.649 
  1881.45,117.812 1888.28,116.991 1895.11,116.183 1901.94,115.39 1908.77,114.611 1915.6,113.845 1922.44,113.093 1929.27,112.353 1936.1,111.627 1942.93,110.914 
  1949.76,110.212 1956.59,109.524 1963.42,108.847 1970.25,108.182 1977.08,107.529 1983.91,106.888 1990.74,106.257 1997.57,105.639 2004.4,105.031 2011.23,104.434 
  2018.06,103.847 2024.89,103.272 2031.72,102.707 2038.55,102.152 2045.38,101.607 2052.21,101.073 2059.04,100.548 2065.88,100.034 2072.71,99.5286 2079.54,99.0332 
  2086.37,98.5473 2093.2,98.0709 2100.03,97.6037 2106.86,97.1458 2113.69,96.6971 2120.52,96.2573 2127.35,95.8265 2134.18,95.4046 2141.01,94.9915 2147.84,94.5872 
  2154.67,94.1914 2161.5,93.8043 2168.33,93.4257 2175.16,93.0555 2181.99,92.6937 2188.82,92.3403 2195.65,91.9951 2202.49,91.6582 2209.32,91.3294 2216.15,91.0088 
  2222.98,90.6962 2229.81,90.3916 2236.64,90.0951 2243.47,89.8064 2250.3,89.5257 2257.13,89.2529 2263.96,88.9878 2270.79,88.7306 2277.62,88.4811 2284.45,88.2394 
  2291.28,88.0053 
  "/>
<polyline clip-path="url(#clip042)" style="stroke:#e26f46; stroke-linecap:butt; stroke-linejoin:round; stroke-width:8; stroke-opacity:1; fill:none" points="
  242.135,1446.71 248.965,1443.83 255.796,1440.9 262.626,1437.92 269.457,1434.9 276.287,1431.83 283.118,1428.71 289.948,1425.54 296.779,1422.3 303.609,1419.01 
  310.44,1415.65 317.27,1412.23 324.101,1408.74 330.931,1405.17 337.762,1401.53 344.592,1397.8 351.423,1393.99 358.253,1390.09 365.084,1386.1 371.914,1382 
  378.745,1377.8 385.575,1373.5 392.405,1369.08 399.236,1364.54 406.066,1359.87 412.897,1355.07 419.727,1350.14 426.558,1345.06 433.388,1339.83 440.219,1334.44 
  447.049,1328.89 453.88,1323.17 460.71,1317.27 467.541,1311.19 474.371,1304.92 481.202,1298.44 488.032,1291.76 494.863,1284.86 501.693,1277.74 508.524,1270.39 
  515.354,1262.81 522.185,1254.98 529.015,1246.89 535.846,1238.55 542.676,1229.94 549.507,1221.07 556.337,1211.91 563.168,1202.47 569.998,1192.74 576.829,1182.72 
  583.659,1172.39 590.49,1161.77 597.32,1150.85 604.151,1139.62 610.981,1128.08 617.812,1116.23 624.642,1104.09 631.473,1091.63 638.303,1078.88 645.134,1065.83 
  651.964,1052.49 658.795,1038.87 665.625,1024.97 672.456,1010.8 679.286,996.382 686.117,981.717 692.947,966.822 699.778,951.711 706.608,936.399 713.438,920.904 
  720.269,905.242 727.099,889.434 733.93,873.498 740.76,857.455 747.591,841.327 754.421,825.136 761.252,808.903 768.082,792.651 774.913,776.404 781.743,760.183 
  788.574,744.012 795.404,727.913 802.235,711.908 809.065,696.018 815.896,680.266 822.726,664.67 829.557,649.25 836.387,634.026 843.218,619.013 850.048,604.228 
  856.879,589.687 863.709,575.402 870.54,561.388 877.37,547.654 884.201,534.211 891.031,521.068 897.862,508.232 904.692,495.709 911.523,483.504 918.353,471.621 
  925.184,460.062 932.014,448.829 938.845,437.921 945.675,427.34 952.506,417.082 959.336,407.146 966.167,397.528 972.997,388.225 979.828,379.231 986.658,370.543 
  993.489,362.154 1000.32,354.057 1007.15,346.248 1013.98,338.718 1020.81,331.46 1027.64,324.468 1034.47,317.734 1041.3,311.25 1048.13,305.008 1054.96,299.001 
  1061.79,293.22 1068.62,287.658 1075.45,282.307 1082.28,277.16 1089.12,272.209 1095.95,267.446 1102.78,262.864 1109.61,258.456 1116.44,254.214 1123.27,250.133 
  1130.1,246.205 1136.93,242.424 1143.76,238.783 1150.59,235.276 1157.42,231.898 1164.25,228.642 1171.08,225.504 1177.91,222.478 1184.74,219.558 1191.57,216.741 
  1198.4,214.02 1205.23,211.393 1212.06,208.853 1218.89,206.398 1225.73,204.023 1232.56,201.725 1239.39,199.499 1246.22,197.343 1253.05,195.253 1259.88,193.226 
  1266.71,191.259 1273.54,189.348 1280.37,187.492 1287.2,185.688 1294.03,183.934 1300.86,182.226 1307.69,180.563 1314.52,178.942 1321.35,177.362 1328.18,175.821 
  1335.01,174.317 1341.84,172.848 1348.67,171.413 1355.5,170.01 1362.33,168.637 1369.17,167.294 1376,165.979 1382.83,164.69 1389.66,163.427 1396.49,162.189 
  1403.32,160.974 1410.15,159.781 1416.98,158.61 1423.81,157.459 1430.64,156.328 1437.47,155.217 1444.3,154.123 1451.13,153.047 1457.96,151.988 1464.79,150.945 
  1471.62,149.918 1478.45,148.906 1485.28,147.909 1492.11,146.926 1498.94,145.957 1505.78,145 1512.61,144.057 1519.44,143.126 1526.27,142.207 1533.1,141.299 
  1539.93,140.404 1546.76,139.519 1553.59,138.645 1560.42,137.781 1567.25,136.928 1574.08,136.084 1580.91,135.251 1587.74,134.427 1594.57,133.612 1601.4,132.807 
  1608.23,132.011 1615.06,131.223 1621.89,130.444 1628.72,129.674 1635.55,128.912 1642.39,128.158 1649.22,127.413 1656.05,126.675 1662.88,125.945 1669.71,125.224 
  1676.54,124.51 1683.37,123.803 1690.2,123.104 1697.03,122.413 1703.86,121.729 1710.69,121.052 1717.52,120.382 1724.35,119.72 1731.18,119.065 1738.01,118.417 
  1744.84,117.776 1751.67,117.142 1758.5,116.515 1765.33,115.895 1772.16,115.282 1778.99,114.675 1785.83,114.076 1792.66,113.483 1799.49,112.897 1806.32,112.317 
  1813.15,111.745 1819.98,111.179 1826.81,110.619 1833.64,110.067 1840.47,109.521 1847.3,108.981 1854.13,108.448 1860.96,107.922 1867.79,107.402 1874.62,106.889 
  1881.45,106.382 1888.28,105.882 1895.11,105.389 1901.94,104.902 1908.77,104.421 1915.6,103.947 1922.44,103.48 1929.27,103.019 1936.1,102.564 1942.93,102.116 
  1949.76,101.675 1956.59,101.24 1963.42,100.812 1970.25,100.39 1977.08,99.9742 1983.91,99.5653 1990.74,99.1628 1997.57,98.7669 2004.4,98.3775 2011.23,97.9946 
  2018.06,97.6183 2024.89,97.2485 2031.72,96.8852 2038.55,96.5284 2045.38,96.1782 2052.21,95.8345 2059.04,95.4974 2065.88,95.1669 2072.71,94.8429 2079.54,94.5255 
  2086.37,94.2147 2093.2,93.9105 2100.03,93.6129 2106.86,93.3219 2113.69,93.0376 2120.52,92.7598 2127.35,92.4888 2134.18,92.2243 2141.01,91.9665 2147.84,91.7154 
  2154.67,91.471 2161.5,91.2333 2168.33,91.0023 2175.16,90.778 2181.99,90.5604 2188.82,90.3496 2195.65,90.1455 2202.49,89.9482 2209.32,89.7577 2216.15,89.574 
  2222.98,89.397 2229.81,89.2269 2236.64,89.0637 2243.47,88.9073 2250.3,88.7577 2257.13,88.615 2263.96,88.4792 2270.79,88.3504 2277.62,88.2284 2284.45,88.1134 
  2291.28,88.0053 
  "/>
<polyline clip-path="url(#clip042)" style="stroke:#3da44d; stroke-linecap:butt; stroke-linejoin:round; stroke-width:8; stroke-opacity:1; fill:none" points="
  242.135,1446.71 248.965,1444.42 255.796,1442.12 262.626,1439.81 269.457,1437.5 276.287,1435.18 283.118,1432.84 289.948,1430.5 296.779,1428.16 303.609,1425.8 
  310.44,1423.44 317.27,1421.06 324.101,1418.68 330.931,1416.29 337.762,1413.89 344.592,1411.49 351.423,1409.07 358.253,1406.64 365.084,1404.21 371.914,1401.77 
  378.745,1399.32 385.575,1396.86 392.405,1394.39 399.236,1391.91 406.066,1389.42 412.897,1386.92 419.727,1384.41 426.558,1381.89 433.388,1379.36 440.219,1376.82 
  447.049,1374.27 453.88,1371.71 460.71,1369.14 467.541,1366.56 474.371,1363.96 481.202,1361.35 488.032,1358.72 494.863,1356.08 501.693,1353.42 508.524,1350.73 
  515.354,1348.02 522.185,1345.28 529.015,1342.5 535.846,1339.68 542.676,1336.8 549.507,1333.84 556.337,1330.8 563.168,1327.64 569.998,1324.33 576.829,1320.84 
  583.659,1317.1 590.49,1313.04 597.32,1308.58 604.151,1303.59 610.981,1297.94 617.812,1291.42 624.642,1283.82 631.473,1274.82 638.303,1264.07 645.134,1251.13 
  651.964,1235.49 658.795,1216.55 665.625,1193.64 672.456,1166.09 679.286,1133.24 686.117,1094.52 692.947,1049.62 699.778,998.56 706.608,941.806 713.438,880.359 
  720.269,815.715 727.099,749.752 733.93,684.514 740.76,621.963 747.591,563.742 754.421,511.023 761.252,464.452 768.082,424.189 774.913,390.005 781.743,361.41 
  788.574,337.766 795.404,318.381 802.235,302.576 809.065,289.729 815.896,279.289 822.726,270.785 829.557,263.828 836.387,258.095 843.218,253.327 850.048,249.316 
  856.879,245.898 863.709,242.943 870.54,240.347 877.37,238.033 884.201,235.937 891.031,234.011 897.862,232.219 904.692,230.53 911.523,228.923 918.353,227.38 
  925.184,225.889 932.014,224.438 938.845,223.02 945.675,221.629 952.506,220.261 959.336,218.911 966.167,217.577 972.997,216.257 979.828,214.949 986.658,213.652 
  993.489,212.365 1000.32,211.087 1007.15,209.818 1013.98,208.558 1020.81,207.305 1027.64,206.06 1034.47,204.823 1041.3,203.593 1048.13,202.37 1054.96,201.154 
  1061.79,199.946 1068.62,198.744 1075.45,197.549 1082.28,196.361 1089.12,195.181 1095.95,194.006 1102.78,192.839 1109.61,191.679 1116.44,190.525 1123.27,189.378 
  1130.1,188.238 1136.93,187.104 1143.76,185.977 1150.59,184.857 1157.42,183.743 1164.25,182.636 1171.08,181.536 1177.91,180.442 1184.74,179.355 1191.57,178.274 
  1198.4,177.2 1205.23,176.133 1212.06,175.072 1218.89,174.018 1225.73,172.97 1232.56,171.929 1239.39,170.894 1246.22,169.866 1253.05,168.844 1259.88,167.829 
  1266.71,166.82 1273.54,165.818 1280.37,164.822 1287.2,163.832 1294.03,162.849 1300.86,161.873 1307.69,160.902 1314.52,159.939 1321.35,158.981 1328.18,158.03 
  1335.01,157.086 1341.84,156.148 1348.67,155.216 1355.5,154.29 1362.33,153.371 1369.17,152.458 1376,151.552 1382.83,150.652 1389.66,149.758 1396.49,148.871 
  1403.32,147.99 1410.15,147.115 1416.98,146.247 1423.81,145.385 1430.64,144.529 1437.47,143.68 1444.3,142.837 1451.13,142 1457.96,141.17 1464.79,140.345 
  1471.62,139.528 1478.45,138.716 1485.28,137.911 1492.11,137.112 1498.94,136.319 1505.78,135.532 1512.61,134.752 1519.44,133.978 1526.27,133.211 1533.1,132.45 
  1539.93,131.695 1546.76,130.946 1553.59,130.203 1560.42,129.467 1567.25,128.737 1574.08,128.014 1580.91,127.296 1587.74,126.585 1594.57,125.88 1601.4,125.182 
  1608.23,124.49 1615.06,123.804 1621.89,123.124 1628.72,122.451 1635.55,121.784 1642.39,121.123 1649.22,120.468 1656.05,119.82 1662.88,119.178 1669.71,118.543 
  1676.54,117.913 1683.37,117.29 1690.2,116.674 1697.03,116.063 1703.86,115.459 1710.69,114.862 1717.52,114.27 1724.35,113.685 1731.18,113.106 1738.01,112.534 
  1744.84,111.968 1751.67,111.408 1758.5,110.855 1765.33,110.308 1772.16,109.767 1778.99,109.233 1785.83,108.705 1792.66,108.183 1799.49,107.668 1806.32,107.16 
  1813.15,106.657 1819.98,106.161 1826.81,105.672 1833.64,105.189 1840.47,104.712 1847.3,104.242 1854.13,103.778 1860.96,103.321 1867.79,102.87 1874.62,102.425 
  1881.45,101.987 1888.28,101.556 1895.11,101.131 1901.94,100.712 1908.77,100.301 1915.6,99.8951 1922.44,99.4962 1929.27,99.1038 1936.1,98.718 1942.93,98.3388 
  1949.76,97.9661 1956.59,97.6 1963.42,97.2405 1970.25,96.8876 1977.08,96.5414 1983.91,96.2017 1990.74,95.8687 1997.57,95.5424 2004.4,95.2227 2011.23,94.9096 
  2018.06,94.6033 2024.89,94.3037 2031.72,94.0107 2038.55,93.7245 2045.38,93.4451 2052.21,93.1724 2059.04,92.9065 2065.88,92.6473 2072.71,92.3949 2079.54,92.1494 
  2086.37,91.9107 2093.2,91.6788 2100.03,91.4537 2106.86,91.2356 2113.69,91.0243 2120.52,90.8199 2127.35,90.6225 2134.18,90.432 2141.01,90.2484 2147.84,90.0718 
  2154.67,89.9022 2161.5,89.7396 2168.33,89.584 2175.16,89.4354 2181.99,89.2939 2188.82,89.1595 2195.65,89.0322 2202.49,88.9119 2209.32,88.7988 2216.15,88.6929 
  2222.98,88.5941 2229.81,88.5026 2236.64,88.4182 2243.47,88.341 2250.3,88.2712 2257.13,88.2085 2263.96,88.1532 2270.79,88.1052 2277.62,88.0646 2284.45,88.0313 
  2291.28,88.0053 
  "/>
<path clip-path="url(#clip040)" d="
M253.064 296.451 L642.948 296.451 L642.948 95.2518 L253.064 95.2518  Z
  " fill="#ffffff" fill-rule="evenodd" fill-opacity="1"/>
<polyline clip-path="url(#clip040)" style="stroke:#000000; stroke-linecap:butt; stroke-linejoin:round; stroke-width:4; stroke-opacity:1; fill:none" points="
  253.064,296.451 642.948,296.451 642.948,95.2518 253.064,95.2518 253.064,296.451 
  "/>
<polyline clip-path="url(#clip040)" style="stroke:#009af9; stroke-linecap:butt; stroke-linejoin:round; stroke-width:4; stroke-opacity:1; fill:none" points="
  277.198,145.552 422.004,145.552 
  "/>
<g clip-path="url(#clip040)">
<text style="fill:#000000; fill-opacity:1; font-family:Arial,Helvetica Neue,Helvetica,sans-serif; font-size:48px; text-anchor:start;" transform="rotate(0, 446.139, 163.052)" x="446.139" y="163.052">λ=0.1</text>
</g>
<polyline clip-path="url(#clip040)" style="stroke:#e26f46; stroke-linecap:butt; stroke-linejoin:round; stroke-width:4; stroke-opacity:1; fill:none" points="
  277.198,195.851 422.004,195.851 
  "/>
<g clip-path="url(#clip040)">
<text style="fill:#000000; fill-opacity:1; font-family:Arial,Helvetica Neue,Helvetica,sans-serif; font-size:48px; text-anchor:start;" transform="rotate(0, 446.139, 213.351)" x="446.139" y="213.351">λ=0.05</text>
</g>
<polyline clip-path="url(#clip040)" style="stroke:#3da44d; stroke-linecap:butt; stroke-linejoin:round; stroke-width:4; stroke-opacity:1; fill:none" points="
  277.198,246.151 422.004,246.151 
  "/>
<g clip-path="url(#clip040)">
<text style="fill:#000000; fill-opacity:1; font-family:Arial,Helvetica Neue,Helvetica,sans-serif; font-size:48px; text-anchor:start;" transform="rotate(0, 446.139, 263.651)" x="446.139" y="263.651">λ=0.01</text>
</g>
</svg>
