<?xml version="1.0" encoding="utf-8"?>
<svg xmlns="http://www.w3.org/2000/svg" xmlns:xlink="http://www.w3.org/1999/xlink" width="600" height="400" viewBox="0 0 2400 1600">
<defs>
  <clipPath id="clip260">
    <rect x="0" y="0" width="2400" height="1600"/>
  </clipPath>
</defs>
<path clip-path="url(#clip260)" d="
M0 1600 L2400 1600 L2400 0 L0 0  Z
  " fill="#ffffff" fill-rule="evenodd" fill-opacity="1"/>
<defs>
  <clipPath id="clip261">
    <rect x="480" y="0" width="1681" height="1600"/>
  </clipPath>
</defs>
<path clip-path="url(#clip260)" d="
M155.765 1486.45 L2352.76 1486.45 L2352.76 123.472 L155.765 123.472  Z
  " fill="#ffffff" fill-rule="evenodd" fill-opacity="1"/>
<defs>
  <clipPath id="clip262">
    <rect x="155" y="123" width="2198" height="1364"/>
  </clipPath>
</defs>
<polyline clip-path="url(#clip262)" style="stroke:#000000; stroke-linecap:round; stroke-linejoin:round; stroke-width:2; stroke-opacity:0.1; fill:none" points="
  217.944,1486.45 217.944,123.472 
  "/>
<polyline clip-path="url(#clip262)" style="stroke:#000000; stroke-linecap:round; stroke-linejoin:round; stroke-width:2; stroke-opacity:0.1; fill:none" points="
  736.102,1486.45 736.102,123.472 
  "/>
<polyline clip-path="url(#clip262)" style="stroke:#000000; stroke-linecap:round; stroke-linejoin:round; stroke-width:2; stroke-opacity:0.1; fill:none" points="
  1254.26,1486.45 1254.26,123.472 
  "/>
<polyline clip-path="url(#clip262)" style="stroke:#000000; stroke-linecap:round; stroke-linejoin:round; stroke-width:2; stroke-opacity:0.1; fill:none" points="
  1772.42,1486.45 1772.42,123.472 
  "/>
<polyline clip-path="url(#clip262)" style="stroke:#000000; stroke-linecap:round; stroke-linejoin:round; stroke-width:2; stroke-opacity:0.1; fill:none" points="
  2290.58,1486.45 2290.58,123.472 
  "/>
<polyline clip-path="url(#clip260)" style="stroke:#000000; stroke-linecap:round; stroke-linejoin:round; stroke-width:4; stroke-opacity:1; fill:none" points="
  155.765,1486.45 2352.76,1486.45 
  "/>
<polyline clip-path="url(#clip260)" style="stroke:#000000; stroke-linecap:round; stroke-linejoin:round; stroke-width:4; stroke-opacity:1; fill:none" points="
  217.944,1486.45 217.944,1467.55 
  "/>
<polyline clip-path="url(#clip260)" style="stroke:#000000; stroke-linecap:round; stroke-linejoin:round; stroke-width:4; stroke-opacity:1; fill:none" points="
  736.102,1486.45 736.102,1467.55 
  "/>
<polyline clip-path="url(#clip260)" style="stroke:#000000; stroke-linecap:round; stroke-linejoin:round; stroke-width:4; stroke-opacity:1; fill:none" points="
  1254.26,1486.45 1254.26,1467.55 
  "/>
<polyline clip-path="url(#clip260)" style="stroke:#000000; stroke-linecap:round; stroke-linejoin:round; stroke-width:4; stroke-opacity:1; fill:none" points="
  1772.42,1486.45 1772.42,1467.55 
  "/>
<polyline clip-path="url(#clip260)" style="stroke:#000000; stroke-linecap:round; stroke-linejoin:round; stroke-width:4; stroke-opacity:1; fill:none" points="
  2290.58,1486.45 2290.58,1467.55 
  "/>
<path clip-path="url(#clip260)" d="M180.247 1517.37 Q176.636 1517.37 174.808 1520.93 Q173.002 1524.47 173.002 1531.6 Q173.002 1538.71 174.808 1542.27 Q176.636 1545.82 180.247 1545.82 Q183.882 1545.82 185.687 1542.27 Q187.516 1538.71 187.516 1531.6 Q187.516 1524.47 185.687 1520.93 Q183.882 1517.37 180.247 1517.37 M180.247 1513.66 Q186.057 1513.66 189.113 1518.27 Q192.192 1522.85 192.192 1531.6 Q192.192 1540.33 189.113 1544.94 Q186.057 1549.52 180.247 1549.52 Q174.437 1549.52 171.358 1544.94 Q168.303 1540.33 168.303 1531.6 Q168.303 1522.85 171.358 1518.27 Q174.437 1513.66 180.247 1513.66 Z" fill="#000000" fill-rule="evenodd" fill-opacity="1" /><path clip-path="url(#clip260)" d="M200.409 1542.97 L205.294 1542.97 L205.294 1548.85 L200.409 1548.85 L200.409 1542.97 Z" fill="#000000" fill-rule="evenodd" fill-opacity="1" /><path clip-path="url(#clip260)" d="M225.479 1517.37 Q221.867 1517.37 220.039 1520.93 Q218.233 1524.47 218.233 1531.6 Q218.233 1538.71 220.039 1542.27 Q221.867 1545.82 225.479 1545.82 Q229.113 1545.82 230.918 1542.27 Q232.747 1538.71 232.747 1531.6 Q232.747 1524.47 230.918 1520.93 Q229.113 1517.37 225.479 1517.37 M225.479 1513.66 Q231.289 1513.66 234.344 1518.27 Q237.423 1522.85 237.423 1531.6 Q237.423 1540.33 234.344 1544.94 Q231.289 1549.52 225.479 1549.52 Q219.668 1549.52 216.59 1544.94 Q213.534 1540.33 213.534 1531.6 Q213.534 1522.85 216.59 1518.27 Q219.668 1513.66 225.479 1513.66 Z" fill="#000000" fill-rule="evenodd" fill-opacity="1" /><path clip-path="url(#clip260)" d="M255.64 1517.37 Q252.029 1517.37 250.201 1520.93 Q248.395 1524.47 248.395 1531.6 Q248.395 1538.71 250.201 1542.27 Q252.029 1545.82 255.64 1545.82 Q259.275 1545.82 261.08 1542.27 Q262.909 1538.71 262.909 1531.6 Q262.909 1524.47 261.08 1520.93 Q259.275 1517.37 255.64 1517.37 M255.64 1513.66 Q261.451 1513.66 264.506 1518.27 Q267.585 1522.85 267.585 1531.6 Q267.585 1540.33 264.506 1544.94 Q261.451 1549.52 255.64 1549.52 Q249.83 1549.52 246.752 1544.94 Q243.696 1540.33 243.696 1531.6 Q243.696 1522.85 246.752 1518.27 Q249.83 1513.66 255.64 1513.66 Z" fill="#000000" fill-rule="evenodd" fill-opacity="1" /><path clip-path="url(#clip260)" d="M698.903 1517.37 Q695.292 1517.37 693.463 1520.93 Q691.658 1524.47 691.658 1531.6 Q691.658 1538.71 693.463 1542.27 Q695.292 1545.82 698.903 1545.82 Q702.538 1545.82 704.343 1542.27 Q706.172 1538.71 706.172 1531.6 Q706.172 1524.47 704.343 1520.93 Q702.538 1517.37 698.903 1517.37 M698.903 1513.66 Q704.713 1513.66 707.769 1518.27 Q710.848 1522.85 710.848 1531.6 Q710.848 1540.33 707.769 1544.94 Q704.713 1549.52 698.903 1549.52 Q693.093 1549.52 690.014 1544.94 Q686.959 1540.33 686.959 1531.6 Q686.959 1522.85 690.014 1518.27 Q693.093 1513.66 698.903 1513.66 Z" fill="#000000" fill-rule="evenodd" fill-opacity="1" /><path clip-path="url(#clip260)" d="M719.065 1542.97 L723.949 1542.97 L723.949 1548.85 L719.065 1548.85 L719.065 1542.97 Z" fill="#000000" fill-rule="evenodd" fill-opacity="1" /><path clip-path="url(#clip260)" d="M738.162 1544.91 L754.482 1544.91 L754.482 1548.85 L732.537 1548.85 L732.537 1544.91 Q735.199 1542.16 739.783 1537.53 Q744.389 1532.88 745.57 1531.53 Q747.815 1529.01 748.695 1527.27 Q749.597 1525.51 749.597 1523.82 Q749.597 1521.07 747.653 1519.33 Q745.732 1517.6 742.63 1517.6 Q740.431 1517.6 737.977 1518.36 Q735.547 1519.13 732.769 1520.68 L732.769 1515.95 Q735.593 1514.82 738.047 1514.24 Q740.5 1513.66 742.537 1513.66 Q747.908 1513.66 751.102 1516.35 Q754.296 1519.03 754.296 1523.52 Q754.296 1525.65 753.486 1527.57 Q752.699 1529.47 750.593 1532.07 Q750.014 1532.74 746.912 1535.95 Q743.81 1539.15 738.162 1544.91 Z" fill="#000000" fill-rule="evenodd" fill-opacity="1" /><path clip-path="url(#clip260)" d="M764.343 1514.29 L782.699 1514.29 L782.699 1518.22 L768.625 1518.22 L768.625 1526.7 Q769.644 1526.35 770.662 1526.19 Q771.681 1526 772.699 1526 Q778.486 1526 781.866 1529.17 Q785.245 1532.34 785.245 1537.76 Q785.245 1543.34 781.773 1546.44 Q778.301 1549.52 771.982 1549.52 Q769.806 1549.52 767.537 1549.15 Q765.292 1548.78 762.884 1548.04 L762.884 1543.34 Q764.968 1544.47 767.19 1545.03 Q769.412 1545.58 771.889 1545.58 Q775.894 1545.58 778.232 1543.48 Q780.57 1541.37 780.57 1537.76 Q780.57 1534.15 778.232 1532.04 Q775.894 1529.94 771.889 1529.94 Q770.014 1529.94 768.139 1530.35 Q766.287 1530.77 764.343 1531.65 L764.343 1514.29 Z" fill="#000000" fill-rule="evenodd" fill-opacity="1" /><path clip-path="url(#clip260)" d="M1216.56 1517.37 Q1212.95 1517.37 1211.12 1520.93 Q1209.32 1524.47 1209.32 1531.6 Q1209.32 1538.71 1211.12 1542.27 Q1212.95 1545.82 1216.56 1545.82 Q1220.2 1545.82 1222 1542.27 Q1223.83 1538.71 1223.83 1531.6 Q1223.83 1524.47 1222 1520.93 Q1220.2 1517.37 1216.56 1517.37 M1216.56 1513.66 Q1222.37 1513.66 1225.43 1518.27 Q1228.51 1522.85 1228.51 1531.6 Q1228.51 1540.33 1225.43 1544.94 Q1222.37 1549.52 1216.56 1549.52 Q1210.75 1549.52 1207.68 1544.94 Q1204.62 1540.33 1204.62 1531.6 Q1204.62 1522.85 1207.68 1518.27 Q1210.75 1513.66 1216.56 1513.66 Z" fill="#000000" fill-rule="evenodd" fill-opacity="1" /><path clip-path="url(#clip260)" d="M1236.73 1542.97 L1241.61 1542.97 L1241.61 1548.85 L1236.73 1548.85 L1236.73 1542.97 Z" fill="#000000" fill-rule="evenodd" fill-opacity="1" /><path clip-path="url(#clip260)" d="M1251.84 1514.29 L1270.2 1514.29 L1270.2 1518.22 L1256.12 1518.22 L1256.12 1526.7 Q1257.14 1526.35 1258.16 1526.19 Q1259.18 1526 1260.2 1526 Q1265.98 1526 1269.36 1529.17 Q1272.74 1532.34 1272.74 1537.76 Q1272.74 1543.34 1269.27 1546.44 Q1265.8 1549.52 1259.48 1549.52 Q1257.3 1549.52 1255.04 1549.15 Q1252.79 1548.78 1250.38 1548.04 L1250.38 1543.34 Q1252.47 1544.47 1254.69 1545.03 Q1256.91 1545.58 1259.39 1545.58 Q1263.39 1545.58 1265.73 1543.48 Q1268.07 1541.37 1268.07 1537.76 Q1268.07 1534.15 1265.73 1532.04 Q1263.39 1529.94 1259.39 1529.94 Q1257.51 1529.94 1255.64 1530.35 Q1253.79 1530.77 1251.84 1531.65 L1251.84 1514.29 Z" fill="#000000" fill-rule="evenodd" fill-opacity="1" /><path clip-path="url(#clip260)" d="M1291.96 1517.37 Q1288.35 1517.37 1286.52 1520.93 Q1284.71 1524.47 1284.71 1531.6 Q1284.71 1538.71 1286.52 1542.27 Q1288.35 1545.82 1291.96 1545.82 Q1295.59 1545.82 1297.4 1542.27 Q1299.23 1538.71 1299.23 1531.6 Q1299.23 1524.47 1297.4 1520.93 Q1295.59 1517.37 1291.96 1517.37 M1291.96 1513.66 Q1297.77 1513.66 1300.82 1518.27 Q1303.9 1522.85 1303.9 1531.6 Q1303.9 1540.33 1300.82 1544.94 Q1297.77 1549.52 1291.96 1549.52 Q1286.15 1549.52 1283.07 1544.94 Q1280.01 1540.33 1280.01 1531.6 Q1280.01 1522.85 1283.07 1518.27 Q1286.15 1513.66 1291.96 1513.66 Z" fill="#000000" fill-rule="evenodd" fill-opacity="1" /><path clip-path="url(#clip260)" d="M1735.22 1517.37 Q1731.61 1517.37 1729.78 1520.93 Q1727.97 1524.47 1727.97 1531.6 Q1727.97 1538.71 1729.78 1542.27 Q1731.61 1545.82 1735.22 1545.82 Q1738.85 1545.82 1740.66 1542.27 Q1742.49 1538.71 1742.49 1531.6 Q1742.49 1524.47 1740.66 1520.93 Q1738.85 1517.37 1735.22 1517.37 M1735.22 1513.66 Q1741.03 1513.66 1744.09 1518.27 Q1747.16 1522.85 1747.16 1531.6 Q1747.16 1540.33 1744.09 1544.94 Q1741.03 1549.52 1735.22 1549.52 Q1729.41 1549.52 1726.33 1544.94 Q1723.28 1540.33 1723.28 1531.6 Q1723.28 1522.85 1726.33 1518.27 Q1729.41 1513.66 1735.22 1513.66 Z" fill="#000000" fill-rule="evenodd" fill-opacity="1" /><path clip-path="url(#clip260)" d="M1755.38 1542.97 L1760.27 1542.97 L1760.27 1548.85 L1755.38 1548.85 L1755.38 1542.97 Z" fill="#000000" fill-rule="evenodd" fill-opacity="1" /><path clip-path="url(#clip260)" d="M1769.27 1514.29 L1791.49 1514.29 L1791.49 1516.28 L1778.95 1548.85 L1774.06 1548.85 L1785.87 1518.22 L1769.27 1518.22 L1769.27 1514.29 Z" fill="#000000" fill-rule="evenodd" fill-opacity="1" /><path clip-path="url(#clip260)" d="M1800.66 1514.29 L1819.02 1514.29 L1819.02 1518.22 L1804.94 1518.22 L1804.94 1526.7 Q1805.96 1526.35 1806.98 1526.19 Q1808 1526 1809.02 1526 Q1814.8 1526 1818.18 1529.17 Q1821.56 1532.34 1821.56 1537.76 Q1821.56 1543.34 1818.09 1546.44 Q1814.62 1549.52 1808.3 1549.52 Q1806.12 1549.52 1803.85 1549.15 Q1801.61 1548.78 1799.2 1548.04 L1799.2 1543.34 Q1801.28 1544.47 1803.51 1545.03 Q1805.73 1545.58 1808.21 1545.58 Q1812.21 1545.58 1814.55 1543.48 Q1816.89 1541.37 1816.89 1537.76 Q1816.89 1534.15 1814.55 1532.04 Q1812.21 1529.94 1808.21 1529.94 Q1806.33 1529.94 1804.46 1530.35 Q1802.6 1530.77 1800.66 1531.65 L1800.66 1514.29 Z" fill="#000000" fill-rule="evenodd" fill-opacity="1" /><path clip-path="url(#clip260)" d="M2242.65 1544.91 L2250.29 1544.91 L2250.29 1518.55 L2241.98 1520.21 L2241.98 1515.95 L2250.24 1514.29 L2254.92 1514.29 L2254.92 1544.91 L2262.56 1544.91 L2262.56 1548.85 L2242.65 1548.85 L2242.65 1544.91 Z" fill="#000000" fill-rule="evenodd" fill-opacity="1" /><path clip-path="url(#clip260)" d="M2272 1542.97 L2276.88 1542.97 L2276.88 1548.85 L2272 1548.85 L2272 1542.97 Z" fill="#000000" fill-rule="evenodd" fill-opacity="1" /><path clip-path="url(#clip260)" d="M2297.07 1517.37 Q2293.46 1517.37 2291.63 1520.93 Q2289.82 1524.47 2289.82 1531.6 Q2289.82 1538.71 2291.63 1542.27 Q2293.46 1545.82 2297.07 1545.82 Q2300.7 1545.82 2302.51 1542.27 Q2304.34 1538.71 2304.34 1531.6 Q2304.34 1524.47 2302.51 1520.93 Q2300.7 1517.37 2297.07 1517.37 M2297.07 1513.66 Q2302.88 1513.66 2305.94 1518.27 Q2309.01 1522.85 2309.01 1531.6 Q2309.01 1540.33 2305.94 1544.94 Q2302.88 1549.52 2297.07 1549.52 Q2291.26 1549.52 2288.18 1544.94 Q2285.13 1540.33 2285.13 1531.6 Q2285.13 1522.85 2288.18 1518.27 Q2291.26 1513.66 2297.07 1513.66 Z" fill="#000000" fill-rule="evenodd" fill-opacity="1" /><path clip-path="url(#clip260)" d="M2327.23 1517.37 Q2323.62 1517.37 2321.79 1520.93 Q2319.99 1524.47 2319.99 1531.6 Q2319.99 1538.71 2321.79 1542.27 Q2323.62 1545.82 2327.23 1545.82 Q2330.87 1545.82 2332.67 1542.27 Q2334.5 1538.71 2334.5 1531.6 Q2334.5 1524.47 2332.67 1520.93 Q2330.87 1517.37 2327.23 1517.37 M2327.23 1513.66 Q2333.04 1513.66 2336.1 1518.27 Q2339.18 1522.85 2339.18 1531.6 Q2339.18 1540.33 2336.1 1544.94 Q2333.04 1549.52 2327.23 1549.52 Q2321.42 1549.52 2318.34 1544.94 Q2315.29 1540.33 2315.29 1531.6 Q2315.29 1522.85 2318.34 1518.27 Q2321.42 1513.66 2327.23 1513.66 Z" fill="#000000" fill-rule="evenodd" fill-opacity="1" /><polyline clip-path="url(#clip262)" style="stroke:#000000; stroke-linecap:round; stroke-linejoin:round; stroke-width:2; stroke-opacity:0.1; fill:none" points="
  155.765,1447.87 2352.76,1447.87 
  "/>
<polyline clip-path="url(#clip262)" style="stroke:#000000; stroke-linecap:round; stroke-linejoin:round; stroke-width:2; stroke-opacity:0.1; fill:none" points="
  155.765,1190.71 2352.76,1190.71 
  "/>
<polyline clip-path="url(#clip262)" style="stroke:#000000; stroke-linecap:round; stroke-linejoin:round; stroke-width:2; stroke-opacity:0.1; fill:none" points="
  155.765,933.543 2352.76,933.543 
  "/>
<polyline clip-path="url(#clip262)" style="stroke:#000000; stroke-linecap:round; stroke-linejoin:round; stroke-width:2; stroke-opacity:0.1; fill:none" points="
  155.765,676.377 2352.76,676.377 
  "/>
<polyline clip-path="url(#clip262)" style="stroke:#000000; stroke-linecap:round; stroke-linejoin:round; stroke-width:2; stroke-opacity:0.1; fill:none" points="
  155.765,419.212 2352.76,419.212 
  "/>
<polyline clip-path="url(#clip262)" style="stroke:#000000; stroke-linecap:round; stroke-linejoin:round; stroke-width:2; stroke-opacity:0.1; fill:none" points="
  155.765,162.047 2352.76,162.047 
  "/>
<polyline clip-path="url(#clip260)" style="stroke:#000000; stroke-linecap:round; stroke-linejoin:round; stroke-width:4; stroke-opacity:1; fill:none" points="
  155.765,1486.45 155.765,123.472 
  "/>
<polyline clip-path="url(#clip260)" style="stroke:#000000; stroke-linecap:round; stroke-linejoin:round; stroke-width:4; stroke-opacity:1; fill:none" points="
  155.765,1447.87 174.663,1447.87 
  "/>
<polyline clip-path="url(#clip260)" style="stroke:#000000; stroke-linecap:round; stroke-linejoin:round; stroke-width:4; stroke-opacity:1; fill:none" points="
  155.765,1190.71 174.663,1190.71 
  "/>
<polyline clip-path="url(#clip260)" style="stroke:#000000; stroke-linecap:round; stroke-linejoin:round; stroke-width:4; stroke-opacity:1; fill:none" points="
  155.765,933.543 174.663,933.543 
  "/>
<polyline clip-path="url(#clip260)" style="stroke:#000000; stroke-linecap:round; stroke-linejoin:round; stroke-width:4; stroke-opacity:1; fill:none" points="
  155.765,676.377 174.663,676.377 
  "/>
<polyline clip-path="url(#clip260)" style="stroke:#000000; stroke-linecap:round; stroke-linejoin:round; stroke-width:4; stroke-opacity:1; fill:none" points="
  155.765,419.212 174.663,419.212 
  "/>
<polyline clip-path="url(#clip260)" style="stroke:#000000; stroke-linecap:round; stroke-linejoin:round; stroke-width:4; stroke-opacity:1; fill:none" points="
  155.765,162.047 174.663,162.047 
  "/>
<path clip-path="url(#clip260)" d="M54.3949 1461.22 L62.0337 1461.22 L62.0337 1434.85 L53.7236 1436.52 L53.7236 1432.26 L61.9874 1430.59 L66.6633 1430.59 L66.6633 1461.22 L74.3022 1461.22 L74.3022 1465.15 L54.3949 1465.15 L54.3949 1461.22 Z" fill="#000000" fill-rule="evenodd" fill-opacity="1" /><path clip-path="url(#clip260)" d="M83.7466 1459.27 L88.6308 1459.27 L88.6308 1465.15 L83.7466 1465.15 L83.7466 1459.27 Z" fill="#000000" fill-rule="evenodd" fill-opacity="1" /><path clip-path="url(#clip260)" d="M98.8622 1430.59 L117.219 1430.59 L117.219 1434.53 L103.145 1434.53 L103.145 1443 Q104.163 1442.65 105.182 1442.49 Q106.2 1442.31 107.219 1442.31 Q113.006 1442.31 116.385 1445.48 Q119.765 1448.65 119.765 1454.07 Q119.765 1459.64 116.293 1462.75 Q112.82 1465.82 106.501 1465.82 Q104.325 1465.82 102.057 1465.45 Q99.8113 1465.08 97.4039 1464.34 L97.4039 1459.64 Q99.4872 1460.78 101.709 1461.33 Q103.932 1461.89 106.408 1461.89 Q110.413 1461.89 112.751 1459.78 Q115.089 1457.68 115.089 1454.07 Q115.089 1450.45 112.751 1448.35 Q110.413 1446.24 106.408 1446.24 Q104.534 1446.24 102.659 1446.66 Q100.807 1447.07 98.8622 1447.95 L98.8622 1430.59 Z" fill="#000000" fill-rule="evenodd" fill-opacity="1" /><path clip-path="url(#clip260)" d="M53.2375 1204.05 L60.8763 1204.05 L60.8763 1177.69 L52.5662 1179.35 L52.5662 1175.09 L60.83 1173.43 L65.5059 1173.43 L65.5059 1204.05 L73.1448 1204.05 L73.1448 1207.99 L53.2375 1207.99 L53.2375 1204.05 Z" fill="#000000" fill-rule="evenodd" fill-opacity="1" /><path clip-path="url(#clip260)" d="M82.5892 1202.11 L87.4734 1202.11 L87.4734 1207.99 L82.5892 1207.99 L82.5892 1202.11 Z" fill="#000000" fill-rule="evenodd" fill-opacity="1" /><path clip-path="url(#clip260)" d="M108.237 1188.84 Q105.089 1188.84 103.237 1191 Q101.409 1193.15 101.409 1196.9 Q101.409 1200.63 103.237 1202.8 Q105.089 1204.96 108.237 1204.96 Q111.385 1204.96 113.214 1202.8 Q115.066 1200.63 115.066 1196.9 Q115.066 1193.15 113.214 1191 Q111.385 1188.84 108.237 1188.84 M117.52 1174.19 L117.52 1178.45 Q115.76 1177.62 113.955 1177.18 Q112.172 1176.74 110.413 1176.74 Q105.783 1176.74 103.33 1179.86 Q100.899 1182.99 100.552 1189.31 Q101.918 1187.29 103.978 1186.23 Q106.038 1185.14 108.515 1185.14 Q113.723 1185.14 116.733 1188.31 Q119.765 1191.46 119.765 1196.9 Q119.765 1202.22 116.617 1205.44 Q113.469 1208.66 108.237 1208.66 Q102.242 1208.66 99.0706 1204.08 Q95.8993 1199.47 95.8993 1190.74 Q95.8993 1182.55 99.7882 1177.69 Q103.677 1172.8 110.228 1172.8 Q111.987 1172.8 113.77 1173.15 Q115.575 1173.5 117.52 1174.19 Z" fill="#000000" fill-rule="evenodd" fill-opacity="1" /><path clip-path="url(#clip260)" d="M54.3023 946.887 L61.9411 946.887 L61.9411 920.522 L53.631 922.189 L53.631 917.929 L61.8948 916.263 L66.5707 916.263 L66.5707 946.887 L74.2096 946.887 L74.2096 950.823 L54.3023 950.823 L54.3023 946.887 Z" fill="#000000" fill-rule="evenodd" fill-opacity="1" /><path clip-path="url(#clip260)" d="M83.654 944.943 L88.5382 944.943 L88.5382 950.823 L83.654 950.823 L83.654 944.943 Z" fill="#000000" fill-rule="evenodd" fill-opacity="1" /><path clip-path="url(#clip260)" d="M97.5428 916.263 L119.765 916.263 L119.765 918.253 L107.219 950.823 L102.334 950.823 L114.14 920.198 L97.5428 920.198 L97.5428 916.263 Z" fill="#000000" fill-rule="evenodd" fill-opacity="1" /><path clip-path="url(#clip260)" d="M53.4921 689.722 L61.131 689.722 L61.131 663.357 L52.8208 665.023 L52.8208 660.764 L61.0847 659.097 L65.7606 659.097 L65.7606 689.722 L73.3994 689.722 L73.3994 693.657 L53.4921 693.657 L53.4921 689.722 Z" fill="#000000" fill-rule="evenodd" fill-opacity="1" /><path clip-path="url(#clip260)" d="M82.8438 687.778 L87.728 687.778 L87.728 693.657 L82.8438 693.657 L82.8438 687.778 Z" fill="#000000" fill-rule="evenodd" fill-opacity="1" /><path clip-path="url(#clip260)" d="M107.913 677.245 Q104.58 677.245 102.659 679.028 Q100.76 680.81 100.76 683.935 Q100.76 687.06 102.659 688.843 Q104.58 690.625 107.913 690.625 Q111.246 690.625 113.168 688.843 Q115.089 687.037 115.089 683.935 Q115.089 680.81 113.168 679.028 Q111.27 677.245 107.913 677.245 M103.237 675.255 Q100.228 674.514 98.5382 672.454 Q96.8715 670.394 96.8715 667.431 Q96.8715 663.287 99.8113 660.88 Q102.774 658.472 107.913 658.472 Q113.075 658.472 116.015 660.88 Q118.955 663.287 118.955 667.431 Q118.955 670.394 117.265 672.454 Q115.598 674.514 112.612 675.255 Q115.992 676.042 117.867 678.333 Q119.765 680.625 119.765 683.935 Q119.765 688.958 116.686 691.644 Q113.631 694.329 107.913 694.329 Q102.196 694.329 99.1169 691.644 Q96.0613 688.958 96.0613 683.935 Q96.0613 680.625 97.9595 678.333 Q99.8576 676.042 103.237 675.255 M101.524 667.87 Q101.524 670.556 103.191 672.06 Q104.881 673.565 107.913 673.565 Q110.922 673.565 112.612 672.06 Q114.325 670.556 114.325 667.87 Q114.325 665.185 112.612 663.681 Q110.922 662.176 107.913 662.176 Q104.881 662.176 103.191 663.681 Q101.524 665.185 101.524 667.87 Z" fill="#000000" fill-rule="evenodd" fill-opacity="1" /><path clip-path="url(#clip260)" d="M53.5847 432.557 L61.2236 432.557 L61.2236 406.191 L52.9134 407.858 L52.9134 403.599 L61.1773 401.932 L65.8532 401.932 L65.8532 432.557 L73.492 432.557 L73.492 436.492 L53.5847 436.492 L53.5847 432.557 Z" fill="#000000" fill-rule="evenodd" fill-opacity="1" /><path clip-path="url(#clip260)" d="M82.9364 430.613 L87.8206 430.613 L87.8206 436.492 L82.9364 436.492 L82.9364 430.613 Z" fill="#000000" fill-rule="evenodd" fill-opacity="1" /><path clip-path="url(#clip260)" d="M98.1447 435.775 L98.1447 431.515 Q99.9039 432.349 101.709 432.788 Q103.515 433.228 105.251 433.228 Q109.881 433.228 112.311 430.126 Q114.765 427.001 115.112 420.659 Q113.77 422.65 111.709 423.714 Q109.649 424.779 107.149 424.779 Q101.964 424.779 98.9317 421.654 Q95.9224 418.506 95.9224 413.066 Q95.9224 407.742 99.0706 404.525 Q102.219 401.307 107.45 401.307 Q113.445 401.307 116.594 405.914 Q119.765 410.497 119.765 419.247 Q119.765 427.418 115.876 432.302 Q112.01 437.163 105.459 437.163 Q103.7 437.163 101.895 436.816 Q100.089 436.469 98.1447 435.775 M107.45 421.122 Q110.598 421.122 112.427 418.969 Q114.279 416.816 114.279 413.066 Q114.279 409.34 112.427 407.187 Q110.598 405.011 107.45 405.011 Q104.302 405.011 102.45 407.187 Q100.621 409.34 100.621 413.066 Q100.621 416.816 102.45 418.969 Q104.302 421.122 107.45 421.122 Z" fill="#000000" fill-rule="evenodd" fill-opacity="1" /><path clip-path="url(#clip260)" d="M56.6171 175.392 L72.9365 175.392 L72.9365 179.327 L50.9921 179.327 L50.9921 175.392 Q53.6541 172.637 58.2375 168.008 Q62.8439 163.355 64.0245 162.012 Q66.2698 159.489 67.1494 157.753 Q68.0522 155.994 68.0522 154.304 Q68.0522 151.549 66.1078 149.813 Q64.1865 148.077 61.0847 148.077 Q58.8856 148.077 56.4319 148.841 Q54.0014 149.605 51.2236 151.156 L51.2236 146.434 Q54.0477 145.299 56.5014 144.721 Q58.955 144.142 60.9921 144.142 Q66.3624 144.142 69.5568 146.827 Q72.7513 149.512 72.7513 154.003 Q72.7513 156.133 71.9411 158.054 Q71.1541 159.952 69.0476 162.545 Q68.4689 163.216 65.367 166.433 Q62.2652 169.628 56.6171 175.392 Z" fill="#000000" fill-rule="evenodd" fill-opacity="1" /><path clip-path="url(#clip260)" d="M82.7512 173.447 L87.6354 173.447 L87.6354 179.327 L82.7512 179.327 L82.7512 173.447 Z" fill="#000000" fill-rule="evenodd" fill-opacity="1" /><path clip-path="url(#clip260)" d="M107.821 147.846 Q104.209 147.846 102.381 151.41 Q100.575 154.952 100.575 162.082 Q100.575 169.188 102.381 172.753 Q104.209 176.295 107.821 176.295 Q111.455 176.295 113.26 172.753 Q115.089 169.188 115.089 162.082 Q115.089 154.952 113.26 151.41 Q111.455 147.846 107.821 147.846 M107.821 144.142 Q113.631 144.142 116.686 148.748 Q119.765 153.332 119.765 162.082 Q119.765 170.808 116.686 175.415 Q113.631 179.998 107.821 179.998 Q102.01 179.998 98.9317 175.415 Q95.8761 170.808 95.8761 162.082 Q95.8761 153.332 98.9317 148.748 Q102.01 144.142 107.821 144.142 Z" fill="#000000" fill-rule="evenodd" fill-opacity="1" /><path clip-path="url(#clip260)" d="M385.159 34.1734 Q383.903 33.4443 382.405 33.1202 Q380.946 32.7556 379.164 32.7556 Q372.844 32.7556 369.442 36.8875 Q366.079 40.9789 366.079 48.6757 L366.079 72.576 L358.585 72.576 L358.585 27.2059 L366.079 27.2059 L366.079 34.2544 Q368.429 30.1225 372.196 28.1376 Q375.964 26.1121 381.351 26.1121 Q382.121 26.1121 383.053 26.2337 Q383.984 26.3147 385.119 26.5172 L385.159 34.1734 Z" fill="#000000" fill-rule="evenodd" fill-opacity="1" /><path clip-path="url(#clip260)" d="M429.962 48.0275 L429.962 51.6733 L395.692 51.6733 Q396.178 59.3701 400.31 63.421 Q404.482 67.4314 411.895 67.4314 Q416.189 67.4314 420.199 66.3781 Q424.25 65.3249 428.22 63.2184 L428.22 70.267 Q424.21 71.9684 419.997 72.8596 Q415.784 73.7508 411.45 73.7508 Q400.593 73.7508 394.233 67.4314 Q387.914 61.1119 387.914 50.3365 Q387.914 39.1965 393.909 32.6746 Q399.945 26.1121 410.153 26.1121 Q419.308 26.1121 424.615 32.0264 Q429.962 37.9003 429.962 48.0275 M422.508 45.84 Q422.427 39.7232 419.065 36.0774 Q415.743 32.4315 410.234 32.4315 Q403.996 32.4315 400.229 35.9558 Q396.502 39.4801 395.935 45.8805 L422.508 45.84 Z" fill="#000000" fill-rule="evenodd" fill-opacity="1" /><path clip-path="url(#clip260)" d="M471.119 28.5427 L471.119 35.5912 Q467.96 33.9709 464.557 33.1607 Q461.154 32.3505 457.508 32.3505 Q451.959 32.3505 449.163 34.0519 Q446.409 35.7533 446.409 39.156 Q446.409 41.7486 448.394 43.2475 Q450.379 44.7058 456.374 46.0426 L458.926 46.6097 Q466.866 48.3111 470.188 51.4303 Q473.55 54.509 473.55 60.0587 Q473.55 66.3781 468.527 70.0644 Q463.544 73.7508 454.794 73.7508 Q451.148 73.7508 447.179 73.0216 Q443.249 72.3329 438.874 70.9151 L438.874 63.2184 Q443.006 65.3654 447.016 66.4591 Q451.027 67.5124 454.956 67.5124 Q460.222 67.5124 463.058 65.73 Q465.894 63.9071 465.894 60.6258 Q465.894 57.5877 463.828 55.9673 Q461.802 54.3469 454.875 52.8481 L452.283 52.2405 Q445.356 50.7821 442.277 47.7845 Q439.198 44.7463 439.198 39.4801 Q439.198 33.0797 443.735 29.5959 Q448.272 26.1121 456.617 26.1121 Q460.749 26.1121 464.395 26.7198 Q468.041 27.3274 471.119 28.5427 Z" fill="#000000" fill-rule="evenodd" fill-opacity="1" /><path clip-path="url(#clip260)" d="M485.419 27.2059 L492.873 27.2059 L492.873 72.576 L485.419 72.576 L485.419 27.2059 M485.419 9.54393 L492.873 9.54393 L492.873 18.9825 L485.419 18.9825 L485.419 9.54393 Z" fill="#000000" fill-rule="evenodd" fill-opacity="1" /><path clip-path="url(#clip260)" d="M538.324 34.0924 L538.324 9.54393 L545.778 9.54393 L545.778 72.576 L538.324 72.576 L538.324 65.7705 Q535.974 69.8214 532.369 71.8063 Q528.804 73.7508 523.781 73.7508 Q515.558 73.7508 510.373 67.1883 Q505.228 60.6258 505.228 49.9314 Q505.228 39.2371 510.373 32.6746 Q515.558 26.1121 523.781 26.1121 Q528.804 26.1121 532.369 28.0971 Q535.974 30.0415 538.324 34.0924 M512.925 49.9314 Q512.925 58.1548 516.287 62.8538 Q519.69 67.5124 525.604 67.5124 Q531.518 67.5124 534.921 62.8538 Q538.324 58.1548 538.324 49.9314 Q538.324 41.7081 534.921 37.0496 Q531.518 32.3505 525.604 32.3505 Q519.69 32.3505 516.287 37.0496 Q512.925 41.7081 512.925 49.9314 Z" fill="#000000" fill-rule="evenodd" fill-opacity="1" /><path clip-path="url(#clip260)" d="M560.361 54.671 L560.361 27.2059 L567.814 27.2059 L567.814 54.3874 Q567.814 60.8284 570.326 64.0691 Q572.838 67.2693 577.861 67.2693 Q583.897 67.2693 587.38 63.421 Q590.905 59.5726 590.905 52.9291 L590.905 27.2059 L598.358 27.2059 L598.358 72.576 L590.905 72.576 L590.905 65.6084 Q588.19 69.7404 584.585 71.7658 Q581.02 73.7508 576.281 73.7508 Q568.463 73.7508 564.412 68.8897 Q560.361 64.0286 560.361 54.671 M579.116 26.1121 L579.116 26.1121 Z" fill="#000000" fill-rule="evenodd" fill-opacity="1" /><path clip-path="url(#clip260)" d="M634.33 49.7694 Q625.297 49.7694 621.813 51.8354 Q618.329 53.9013 618.329 58.8839 Q618.329 62.8538 620.922 65.2034 Q623.555 67.5124 628.051 67.5124 Q634.249 67.5124 637.976 63.1374 Q641.743 58.7219 641.743 51.4303 L641.743 49.7694 L634.33 49.7694 M649.197 46.6907 L649.197 72.576 L641.743 72.576 L641.743 65.6895 Q639.191 69.8214 635.384 71.8063 Q631.576 73.7508 626.066 73.7508 Q619.099 73.7508 614.967 69.8619 Q610.876 65.9325 610.876 59.3701 Q610.876 51.7138 615.98 47.825 Q621.124 43.9361 631.292 43.9361 L641.743 43.9361 L641.743 43.2069 Q641.743 38.0623 638.341 35.2672 Q634.978 32.4315 628.862 32.4315 Q624.973 32.4315 621.286 33.3632 Q617.6 34.295 614.197 36.1584 L614.197 29.2718 Q618.289 27.692 622.137 26.9223 Q625.985 26.1121 629.631 26.1121 Q639.475 26.1121 644.336 31.2163 Q649.197 36.3204 649.197 46.6907 Z" fill="#000000" fill-rule="evenodd" fill-opacity="1" /><path clip-path="url(#clip260)" d="M664.55 9.54393 L672.004 9.54393 L672.004 72.576 L664.55 72.576 L664.55 9.54393 Z" fill="#000000" fill-rule="evenodd" fill-opacity="1" /><path clip-path="url(#clip260)" d="M751.685 45.1919 L751.685 72.576 L744.231 72.576 L744.231 45.4349 Q744.231 38.994 741.72 35.7938 Q739.208 32.5936 734.185 32.5936 Q728.149 32.5936 724.665 36.4419 Q721.182 40.2903 721.182 46.9338 L721.182 72.576 L713.687 72.576 L713.687 27.2059 L721.182 27.2059 L721.182 34.2544 Q723.855 30.163 727.461 28.1376 Q731.106 26.1121 735.846 26.1121 Q743.664 26.1121 747.675 30.9732 Q751.685 35.7938 751.685 45.1919 Z" fill="#000000" fill-rule="evenodd" fill-opacity="1" /><path clip-path="url(#clip260)" d="M784.133 32.4315 Q778.137 32.4315 774.654 37.1306 Q771.17 41.7891 771.17 49.9314 Q771.17 58.0738 774.613 62.7728 Q778.097 67.4314 784.133 67.4314 Q790.088 67.4314 793.571 62.7323 Q797.055 58.0333 797.055 49.9314 Q797.055 41.8701 793.571 37.1711 Q790.088 32.4315 784.133 32.4315 M784.133 26.1121 Q793.855 26.1121 799.405 32.4315 Q804.954 38.7509 804.954 49.9314 Q804.954 61.0714 799.405 67.4314 Q793.855 73.7508 784.133 73.7508 Q774.37 73.7508 768.82 67.4314 Q763.311 61.0714 763.311 49.9314 Q763.311 38.7509 768.82 32.4315 Q774.37 26.1121 784.133 26.1121 Z" fill="#000000" fill-rule="evenodd" fill-opacity="1" /><path clip-path="url(#clip260)" d="M843.6 34.1734 Q842.344 33.4443 840.845 33.1202 Q839.387 32.7556 837.605 32.7556 Q831.285 32.7556 827.882 36.8875 Q824.52 40.9789 824.52 48.6757 L824.52 72.576 L817.026 72.576 L817.026 27.2059 L824.52 27.2059 L824.52 34.2544 Q826.87 30.1225 830.637 28.1376 Q834.404 26.1121 839.792 26.1121 Q840.562 26.1121 841.494 26.2337 Q842.425 26.3147 843.559 26.5172 L843.6 34.1734 Z" fill="#000000" fill-rule="evenodd" fill-opacity="1" /><path clip-path="url(#clip260)" d="M885.284 35.9153 Q888.079 30.8922 891.968 28.5022 Q895.857 26.1121 901.123 26.1121 Q908.212 26.1121 912.06 31.0947 Q915.909 36.0368 915.909 45.1919 L915.909 72.576 L908.414 72.576 L908.414 45.4349 Q908.414 38.913 906.105 35.7533 Q903.796 32.5936 899.057 32.5936 Q893.264 32.5936 889.902 36.4419 Q886.54 40.2903 886.54 46.9338 L886.54 72.576 L879.045 72.576 L879.045 45.4349 Q879.045 38.8725 876.736 35.7533 Q874.427 32.5936 869.607 32.5936 Q863.895 32.5936 860.533 36.4824 Q857.171 40.3308 857.171 46.9338 L857.171 72.576 L849.676 72.576 L849.676 27.2059 L857.171 27.2059 L857.171 34.2544 Q859.723 30.082 863.287 28.0971 Q866.852 26.1121 871.754 26.1121 Q876.696 26.1121 880.139 28.6237 Q883.623 31.1352 885.284 35.9153 Z" fill="#000000" fill-rule="evenodd" fill-opacity="1" /><path clip-path="url(#clip260)" d="M958.119 34.9026 L1010.05 34.9026 L1010.05 41.7081 L958.119 41.7081 L958.119 34.9026 M958.119 51.4303 L1010.05 51.4303 L1010.05 58.3168 L958.119 58.3168 L958.119 51.4303 Z" fill="#000000" fill-rule="evenodd" fill-opacity="1" /><path clip-path="url(#clip260)" d="M1055.5 65.6895 L1068.87 65.6895 L1068.87 19.5497 L1054.33 22.4663 L1054.33 15.0127 L1068.79 12.096 L1076.97 12.096 L1076.97 65.6895 L1090.34 65.6895 L1090.34 72.576 L1055.5 72.576 L1055.5 65.6895 Z" fill="#000000" fill-rule="evenodd" fill-opacity="1" /><path clip-path="url(#clip260)" d="M1106.87 62.2867 L1115.42 62.2867 L1115.42 72.576 L1106.87 72.576 L1106.87 62.2867 Z" fill="#000000" fill-rule="evenodd" fill-opacity="1" /><path clip-path="url(#clip260)" d="M1140.29 65.6895 L1168.85 65.6895 L1168.85 72.576 L1130.44 72.576 L1130.44 65.6895 Q1135.1 60.8689 1143.12 52.7671 Q1151.19 44.6248 1153.25 42.2752 Q1157.18 37.8598 1158.72 34.8216 Q1160.3 31.7429 1160.3 28.7857 Q1160.3 23.9651 1156.9 20.927 Q1153.53 17.8888 1148.11 17.8888 Q1144.26 17.8888 1139.96 19.2256 Q1135.71 20.5624 1130.85 23.2765 L1130.85 15.0127 Q1135.79 13.0277 1140.09 12.015 Q1144.38 11.0023 1147.94 11.0023 Q1157.34 11.0023 1162.93 15.7013 Q1168.52 20.4004 1168.52 28.2591 Q1168.52 31.9859 1167.11 35.3482 Q1165.73 38.6699 1162.04 43.2069 Q1161.03 44.3817 1155.6 50.0125 Q1150.17 55.6027 1140.29 65.6895 Z" fill="#000000" fill-rule="evenodd" fill-opacity="1" /><path clip-path="url(#clip260)" d="M1208.51 19.2256 L1187.85 51.5113 L1208.51 51.5113 L1208.51 19.2256 M1206.36 12.096 L1216.65 12.096 L1216.65 51.5113 L1225.28 51.5113 L1225.28 58.3168 L1216.65 58.3168 L1216.65 72.576 L1208.51 72.576 L1208.51 58.3168 L1181.2 58.3168 L1181.2 50.4176 L1206.36 12.096 Z" fill="#000000" fill-rule="evenodd" fill-opacity="1" /><path clip-path="url(#clip260)" d="M1263.6 39.9662 Q1269.47 41.222 1272.75 45.1919 Q1276.07 49.1618 1276.07 54.9951 Q1276.07 63.9476 1269.92 68.8492 Q1263.76 73.7508 1252.42 73.7508 Q1248.61 73.7508 1244.56 72.9811 Q1240.55 72.2519 1236.25 70.7531 L1236.25 62.8538 Q1239.66 64.8388 1243.71 65.8515 Q1247.76 66.8642 1252.17 66.8642 Q1259.87 66.8642 1263.88 63.826 Q1267.93 60.7879 1267.93 54.9951 Q1267.93 49.6479 1264.16 46.6502 Q1260.44 43.612 1253.75 43.612 L1246.71 43.612 L1246.71 36.8875 L1254.08 36.8875 Q1260.11 36.8875 1263.31 34.4975 Q1266.51 32.067 1266.51 27.5299 Q1266.51 22.8714 1263.19 20.4004 Q1259.91 17.8888 1253.75 17.8888 Q1250.39 17.8888 1246.54 18.618 Q1242.7 19.3471 1238.08 20.8865 L1238.08 13.5948 Q1242.74 12.2985 1246.79 11.6504 Q1250.88 11.0023 1254.48 11.0023 Q1263.8 11.0023 1269.23 15.2557 Q1274.66 19.4686 1274.66 26.6793 Q1274.66 31.7024 1271.78 35.1862 Q1268.9 38.6294 1263.6 39.9662 Z" fill="#000000" fill-rule="evenodd" fill-opacity="1" /><path clip-path="url(#clip260)" d="M1293.01 65.6895 L1306.38 65.6895 L1306.38 19.5497 L1291.83 22.4663 L1291.83 15.0127 L1306.29 12.096 L1314.48 12.096 L1314.48 65.6895 L1327.85 65.6895 L1327.85 72.576 L1293.01 72.576 L1293.01 65.6895 Z" fill="#000000" fill-rule="evenodd" fill-opacity="1" /><path clip-path="url(#clip260)" d="M1344.45 12.096 L1376.58 12.096 L1376.58 18.9825 L1351.95 18.9825 L1351.95 33.8088 Q1353.73 33.2012 1355.51 32.9176 Q1357.3 32.5936 1359.08 32.5936 Q1369.2 32.5936 1375.12 38.1433 Q1381.03 43.6931 1381.03 53.1722 Q1381.03 62.9348 1374.96 68.3631 Q1368.88 73.7508 1357.82 73.7508 Q1354.01 73.7508 1350.04 73.1026 Q1346.11 72.4545 1341.9 71.1582 L1341.9 62.9348 Q1345.55 64.9198 1349.44 65.892 Q1353.33 66.8642 1357.66 66.8642 Q1364.67 66.8642 1368.76 63.1779 Q1372.85 59.4916 1372.85 53.1722 Q1372.85 46.8528 1368.76 43.1664 Q1364.67 39.4801 1357.66 39.4801 Q1354.38 39.4801 1351.1 40.2093 Q1347.86 40.9384 1344.45 42.4778 L1344.45 12.096 Z" fill="#000000" fill-rule="evenodd" fill-opacity="1" /><path clip-path="url(#clip260)" d="M1414.66 43.8551 Q1408.82 43.8551 1405.46 46.9743 Q1402.14 50.0935 1402.14 55.5622 Q1402.14 61.0309 1405.46 64.1501 Q1408.82 67.2693 1414.66 67.2693 Q1420.49 67.2693 1423.85 64.1501 Q1427.21 60.9904 1427.21 55.5622 Q1427.21 50.0935 1423.85 46.9743 Q1420.53 43.8551 1414.66 43.8551 M1406.47 40.3713 Q1401.21 39.075 1398.25 35.4697 Q1395.33 31.8644 1395.33 26.6793 Q1395.33 19.4281 1400.48 15.2152 Q1405.66 11.0023 1414.66 11.0023 Q1423.69 11.0023 1428.83 15.2152 Q1433.98 19.4281 1433.98 26.6793 Q1433.98 31.8644 1431.02 35.4697 Q1428.1 39.075 1422.88 40.3713 Q1428.79 41.7486 1432.07 45.759 Q1435.4 49.7694 1435.4 55.5622 Q1435.4 64.3527 1430.01 69.0517 Q1424.66 73.7508 1414.66 73.7508 Q1404.65 73.7508 1399.26 69.0517 Q1393.92 64.3527 1393.92 55.5622 Q1393.92 49.7694 1397.24 45.759 Q1400.56 41.7486 1406.47 40.3713 M1403.48 27.4489 Q1403.48 32.148 1406.39 34.7811 Q1409.35 37.4142 1414.66 37.4142 Q1419.92 37.4142 1422.88 34.7811 Q1425.88 32.148 1425.88 27.4489 Q1425.88 22.7499 1422.88 20.1168 Q1419.92 17.4837 1414.66 17.4837 Q1409.35 17.4837 1406.39 20.1168 Q1403.48 22.7499 1403.48 27.4489 Z" fill="#000000" fill-rule="evenodd" fill-opacity="1" /><path clip-path="url(#clip260)" d="M1467.44 17.4837 Q1461.12 17.4837 1457.92 23.7221 Q1454.76 29.92 1454.76 42.3968 Q1454.76 54.833 1457.92 61.0714 Q1461.12 67.2693 1467.44 67.2693 Q1473.8 67.2693 1476.96 61.0714 Q1480.16 54.833 1480.16 42.3968 Q1480.16 29.92 1476.96 23.7221 Q1473.8 17.4837 1467.44 17.4837 M1467.44 11.0023 Q1477.61 11.0023 1482.95 19.0636 Q1488.34 27.0843 1488.34 42.3968 Q1488.34 57.6687 1482.95 65.73 Q1477.61 73.7508 1467.44 73.7508 Q1457.27 73.7508 1451.88 65.73 Q1446.54 57.6687 1446.54 42.3968 Q1446.54 27.0843 1451.88 19.0636 Q1457.27 11.0023 1467.44 11.0023 Z" fill="#000000" fill-rule="evenodd" fill-opacity="1" /><path clip-path="url(#clip260)" d="M1504.14 65.6895 L1517.51 65.6895 L1517.51 19.5497 L1502.97 22.4663 L1502.97 15.0127 L1517.43 12.096 L1525.61 12.096 L1525.61 65.6895 L1538.98 65.6895 L1538.98 72.576 L1504.14 72.576 L1504.14 65.6895 Z" fill="#000000" fill-rule="evenodd" fill-opacity="1" /><path clip-path="url(#clip260)" d="M1562.55 65.6895 L1591.11 65.6895 L1591.11 72.576 L1552.71 72.576 L1552.71 65.6895 Q1557.37 60.8689 1565.39 52.7671 Q1573.45 44.6248 1575.52 42.2752 Q1579.45 37.8598 1580.99 34.8216 Q1582.57 31.7429 1582.57 28.7857 Q1582.57 23.9651 1579.16 20.927 Q1575.8 17.8888 1570.37 17.8888 Q1566.52 17.8888 1562.23 19.2256 Q1557.98 20.5624 1553.12 23.2765 L1553.12 15.0127 Q1558.06 13.0277 1562.35 12.015 Q1566.65 11.0023 1570.21 11.0023 Q1579.61 11.0023 1585.2 15.7013 Q1590.79 20.4004 1590.79 28.2591 Q1590.79 31.9859 1589.37 35.3482 Q1587.99 38.6699 1584.31 43.2069 Q1583.3 44.3817 1577.87 50.0125 Q1572.44 55.6027 1562.55 65.6895 Z" fill="#000000" fill-rule="evenodd" fill-opacity="1" /><path clip-path="url(#clip260)" d="M1609.71 65.6895 L1623.07 65.6895 L1623.07 19.5497 L1608.53 22.4663 L1608.53 15.0127 L1622.99 12.096 L1631.18 12.096 L1631.18 65.6895 L1644.54 65.6895 L1644.54 72.576 L1609.71 72.576 L1609.71 65.6895 Z" fill="#000000" fill-rule="evenodd" fill-opacity="1" /><path clip-path="url(#clip260)" d="M1683.55 19.2256 L1662.9 51.5113 L1683.55 51.5113 L1683.55 19.2256 M1681.41 12.096 L1691.7 12.096 L1691.7 51.5113 L1700.33 51.5113 L1700.33 58.3168 L1691.7 58.3168 L1691.7 72.576 L1683.55 72.576 L1683.55 58.3168 L1656.25 58.3168 L1656.25 50.4176 L1681.41 12.096 Z" fill="#000000" fill-rule="evenodd" fill-opacity="1" /><path clip-path="url(#clip260)" d="M1713.94 12.096 L1746.06 12.096 L1746.06 18.9825 L1721.43 18.9825 L1721.43 33.8088 Q1723.21 33.2012 1725 32.9176 Q1726.78 32.5936 1728.56 32.5936 Q1738.69 32.5936 1744.6 38.1433 Q1750.52 43.6931 1750.52 53.1722 Q1750.52 62.9348 1744.44 68.3631 Q1738.36 73.7508 1727.3 73.7508 Q1723.5 73.7508 1719.53 73.1026 Q1715.6 72.4545 1711.38 71.1582 L1711.38 62.9348 Q1715.03 64.9198 1718.92 65.892 Q1722.81 66.8642 1727.14 66.8642 Q1734.15 66.8642 1738.24 63.1779 Q1742.33 59.4916 1742.33 53.1722 Q1742.33 46.8528 1738.24 43.1664 Q1734.15 39.4801 1727.14 39.4801 Q1723.86 39.4801 1720.58 40.2093 Q1717.34 40.9384 1713.94 42.4778 L1713.94 12.096 Z" fill="#000000" fill-rule="evenodd" fill-opacity="1" /><path clip-path="url(#clip260)" d="M1784.14 17.4837 Q1777.82 17.4837 1774.62 23.7221 Q1771.46 29.92 1771.46 42.3968 Q1771.46 54.833 1774.62 61.0714 Q1777.82 67.2693 1784.14 67.2693 Q1790.5 67.2693 1793.66 61.0714 Q1796.86 54.833 1796.86 42.3968 Q1796.86 29.92 1793.66 23.7221 Q1790.5 17.4837 1784.14 17.4837 M1784.14 11.0023 Q1794.31 11.0023 1799.65 19.0636 Q1805.04 27.0843 1805.04 42.3968 Q1805.04 57.6687 1799.65 65.73 Q1794.31 73.7508 1784.14 73.7508 Q1773.97 73.7508 1768.58 65.73 Q1763.24 57.6687 1763.24 42.3968 Q1763.24 27.0843 1768.58 19.0636 Q1773.97 11.0023 1784.14 11.0023 Z" fill="#000000" fill-rule="evenodd" fill-opacity="1" /><path clip-path="url(#clip260)" d="M1836.92 17.4837 Q1830.6 17.4837 1827.4 23.7221 Q1824.24 29.92 1824.24 42.3968 Q1824.24 54.833 1827.4 61.0714 Q1830.6 67.2693 1836.92 67.2693 Q1843.28 67.2693 1846.44 61.0714 Q1849.64 54.833 1849.64 42.3968 Q1849.64 29.92 1846.44 23.7221 Q1843.28 17.4837 1836.92 17.4837 M1836.92 11.0023 Q1847.09 11.0023 1852.44 19.0636 Q1857.82 27.0843 1857.82 42.3968 Q1857.82 57.6687 1852.44 65.73 Q1847.09 73.7508 1836.92 73.7508 Q1826.75 73.7508 1821.37 65.73 Q1816.02 57.6687 1816.02 42.3968 Q1816.02 27.0843 1821.37 19.0636 Q1826.75 11.0023 1836.92 11.0023 Z" fill="#000000" fill-rule="evenodd" fill-opacity="1" /><path clip-path="url(#clip260)" d="M1894.69 19.2256 L1874.03 51.5113 L1894.69 51.5113 L1894.69 19.2256 M1892.54 12.096 L1902.83 12.096 L1902.83 51.5113 L1911.46 51.5113 L1911.46 58.3168 L1902.83 58.3168 L1902.83 72.576 L1894.69 72.576 L1894.69 58.3168 L1867.39 58.3168 L1867.39 50.4176 L1892.54 12.096 Z" fill="#000000" fill-rule="evenodd" fill-opacity="1" /><path clip-path="url(#clip260)" d="M1943.5 39.075 Q1937.99 39.075 1934.75 42.8424 Q1931.55 46.6097 1931.55 53.1722 Q1931.55 59.6941 1934.75 63.502 Q1937.99 67.2693 1943.5 67.2693 Q1949.01 67.2693 1952.21 63.502 Q1955.45 59.6941 1955.45 53.1722 Q1955.45 46.6097 1952.21 42.8424 Q1949.01 39.075 1943.5 39.075 M1959.75 13.4328 L1959.75 20.8865 Q1956.67 19.4281 1953.51 18.6585 Q1950.39 17.8888 1947.31 17.8888 Q1939.21 17.8888 1934.91 23.3575 Q1930.66 28.8262 1930.05 39.8852 Q1932.44 36.3609 1936.05 34.4975 Q1939.65 32.5936 1943.99 32.5936 Q1953.1 32.5936 1958.37 38.1433 Q1963.68 43.6525 1963.68 53.1722 Q1963.68 62.4892 1958.17 68.12 Q1952.66 73.7508 1943.5 73.7508 Q1933.01 73.7508 1927.46 65.73 Q1921.91 57.6687 1921.91 42.3968 Q1921.91 28.0566 1928.72 19.5497 Q1935.52 11.0023 1946.99 11.0023 Q1950.06 11.0023 1953.18 11.6099 Q1956.34 12.2175 1959.75 13.4328 Z" fill="#000000" fill-rule="evenodd" fill-opacity="1" /><path clip-path="url(#clip260)" d="M2015.53 48.0275 L2015.53 51.6733 L1981.26 51.6733 Q1981.74 59.3701 1985.87 63.421 Q1990.05 67.4314 1997.46 67.4314 Q2001.75 67.4314 2005.76 66.3781 Q2009.81 65.3249 2013.78 63.2184 L2013.78 70.267 Q2009.77 71.9684 2005.56 72.8596 Q2001.35 73.7508 1997.01 73.7508 Q1986.16 73.7508 1979.8 67.4314 Q1973.48 61.1119 1973.48 50.3365 Q1973.48 39.1965 1979.47 32.6746 Q1985.51 26.1121 1995.72 26.1121 Q2004.87 26.1121 2010.18 32.0264 Q2015.53 37.9003 2015.53 48.0275 M2008.07 45.84 Q2007.99 39.7232 2004.63 36.0774 Q2001.31 32.4315 1995.8 32.4315 Q1989.56 32.4315 1985.79 35.9558 Q1982.07 39.4801 1981.5 45.8805 L2008.07 45.84 Z" fill="#000000" fill-rule="evenodd" fill-opacity="1" /><path clip-path="url(#clip260)" d="M2023.99 46.5287 L2045.83 46.5287 L2045.83 53.1722 L2023.99 53.1722 L2023.99 46.5287 Z" fill="#000000" fill-rule="evenodd" fill-opacity="1" /><path clip-path="url(#clip260)" d="M2060.17 65.6895 L2073.54 65.6895 L2073.54 19.5497 L2058.99 22.4663 L2058.99 15.0127 L2073.45 12.096 L2081.64 12.096 L2081.64 65.6895 L2095.01 65.6895 L2095.01 72.576 L2060.17 72.576 L2060.17 65.6895 Z" fill="#000000" fill-rule="evenodd" fill-opacity="1" /><path clip-path="url(#clip260)" d="M2129.03 17.4837 Q2122.71 17.4837 2119.51 23.7221 Q2116.35 29.92 2116.35 42.3968 Q2116.35 54.833 2119.51 61.0714 Q2122.71 67.2693 2129.03 67.2693 Q2135.39 67.2693 2138.55 61.0714 Q2141.75 54.833 2141.75 42.3968 Q2141.75 29.92 2138.55 23.7221 Q2135.39 17.4837 2129.03 17.4837 M2129.03 11.0023 Q2139.2 11.0023 2144.55 19.0636 Q2149.94 27.0843 2149.94 42.3968 Q2149.94 57.6687 2144.55 65.73 Q2139.2 73.7508 2129.03 73.7508 Q2118.87 73.7508 2113.48 65.73 Q2108.13 57.6687 2108.13 42.3968 Q2108.13 27.0843 2113.48 19.0636 Q2118.87 11.0023 2129.03 11.0023 Z" fill="#000000" fill-rule="evenodd" fill-opacity="1" /><polyline clip-path="url(#clip262)" style="stroke:#009af9; stroke-linecap:round; stroke-linejoin:round; stroke-width:4; stroke-opacity:1; fill:none" points="
  217.944,1447.87 228.307,1447.84 238.67,1447.74 249.033,1447.58 259.397,1447.36 269.76,1447.07 280.123,1446.72 290.486,1446.3 300.849,1445.82 311.212,1445.27 
  321.576,1444.66 331.939,1443.98 342.302,1443.24 352.665,1442.44 363.028,1441.57 373.391,1440.64 383.755,1439.64 394.118,1438.58 404.481,1437.46 414.844,1436.27 
  425.207,1435.01 435.57,1433.7 445.934,1432.31 456.297,1430.87 466.66,1429.36 477.023,1427.78 487.386,1426.14 497.749,1424.44 508.113,1422.67 518.476,1420.84 
  528.839,1418.94 539.202,1416.98 549.565,1414.96 559.928,1412.87 570.292,1410.71 580.655,1408.49 591.018,1406.21 601.381,1403.87 611.744,1401.45 622.107,1398.98 
  632.47,1396.44 642.834,1393.84 653.197,1391.17 663.56,1388.44 673.923,1385.64 684.286,1382.78 694.649,1379.85 705.013,1376.86 715.376,1373.81 725.739,1370.69 
  736.102,1367.51 746.465,1364.26 756.828,1360.95 767.192,1357.58 777.555,1354.14 787.918,1350.63 798.281,1347.06 808.644,1343.43 819.007,1339.74 829.371,1335.97 
  839.734,1332.15 850.097,1328.26 860.46,1324.31 870.823,1320.29 881.186,1316.2 891.55,1312.06 901.913,1307.85 912.276,1303.57 922.639,1299.23 933.002,1294.83 
  943.365,1290.36 953.729,1285.83 964.092,1281.23 974.455,1276.57 984.818,1271.84 995.181,1267.05 1005.54,1262.2 1015.91,1257.28 1026.27,1252.3 1036.63,1247.25 
  1047,1242.14 1057.36,1236.97 1067.72,1231.73 1078.09,1226.42 1088.45,1221.05 1098.81,1215.62 1109.18,1210.12 1119.54,1204.56 1129.9,1198.94 1140.27,1193.25 
  1150.63,1187.49 1160.99,1181.67 1171.36,1175.79 1181.72,1169.85 1192.08,1163.83 1202.44,1157.76 1212.81,1151.62 1223.17,1145.41 1233.53,1139.15 1243.9,1132.81 
  1254.26,1126.42 1264.62,1119.96 1274.99,1113.43 1285.35,1106.84 1295.71,1100.19 1306.08,1093.47 1316.44,1086.68 1326.8,1079.84 1337.17,1072.93 1347.53,1065.95 
  1357.89,1058.91 1368.26,1051.81 1378.62,1044.64 1388.98,1037.41 1399.34,1030.11 1409.71,1022.75 1420.07,1015.32 1430.43,1007.83 1440.8,1000.28 1451.16,992.658 
  1461.52,984.976 1471.89,977.229 1482.25,969.417 1492.61,961.541 1502.98,953.602 1513.34,945.597 1523.7,937.529 1534.07,929.396 1544.43,921.199 1554.79,912.937 
  1565.16,904.612 1575.52,896.222 1585.88,887.767 1596.24,879.249 1606.61,870.666 1616.97,862.019 1627.33,853.307 1637.7,844.531 1648.06,835.691 1658.42,826.787 
  1668.79,817.818 1679.15,808.785 1689.51,799.688 1699.88,790.527 1710.24,781.301 1720.6,772.011 1730.97,762.656 1741.33,753.238 1751.69,743.755 1762.06,734.207 
  1772.42,724.596 1782.78,714.92 1793.14,705.18 1803.51,695.375 1813.87,685.507 1824.23,675.574 1834.6,665.576 1844.96,655.515 1855.32,645.389 1865.69,635.199 
  1876.05,624.944 1886.41,614.626 1896.78,604.243 1907.14,593.795 1917.5,583.284 1927.87,572.708 1938.23,562.067 1948.59,551.363 1958.96,540.594 1969.32,529.761 
  1979.68,518.864 1990.05,507.902 2000.41,496.876 2010.77,485.786 2021.13,474.631 2031.5,463.412 2041.86,452.129 2052.22,440.782 2062.59,429.37 2072.95,417.894 
  2083.31,406.354 2093.68,394.749 2104.04,383.08 2114.4,371.347 2124.77,359.55 2135.13,347.688 2145.49,335.762 2155.86,323.772 2166.22,311.717 2176.58,299.598 
  2186.95,287.415 2197.31,275.167 2207.67,262.856 2218.03,250.48 2228.4,238.039 2238.76,225.535 2249.12,212.966 2259.49,200.332 2269.85,187.635 2280.21,174.873 
  2290.58,162.047 
  "/>
</svg>
