<?xml version="1.0" encoding="utf-8"?>
<svg xmlns="http://www.w3.org/2000/svg" xmlns:xlink="http://www.w3.org/1999/xlink" width="500" height="300" viewBox="0 0 2000 1200">
<defs>
  <clipPath id="clip250">
    <rect x="0" y="0" width="2000" height="1200"/>
  </clipPath>
</defs>
<path clip-path="url(#clip250)" d="
M0 1200 L2000 1200 L2000 0 L0 0  Z
  " fill="#ffffff" fill-rule="evenodd" fill-opacity="1"/>
<defs>
  <clipPath id="clip251">
    <rect x="400" y="0" width="1401" height="1200"/>
  </clipPath>
</defs>
<path clip-path="url(#clip250)" d="
M136.517 1037.58 L1952.76 1037.58 L1952.76 47.2441 L136.517 47.2441  Z
  " fill="#ffffff" fill-rule="evenodd" fill-opacity="1"/>
<defs>
  <clipPath id="clip252">
    <rect x="136" y="47" width="1817" height="991"/>
  </clipPath>
</defs>
<polyline clip-path="url(#clip252)" style="stroke:#000000; stroke-linecap:butt; stroke-linejoin:round; stroke-width:2; stroke-opacity:0.1; fill:none" points="
  136.517,1037.58 136.517,47.2441 
  "/>
<polyline clip-path="url(#clip252)" style="stroke:#000000; stroke-linecap:butt; stroke-linejoin:round; stroke-width:2; stroke-opacity:0.1; fill:none" points="
  741.93,1037.58 741.93,47.2441 
  "/>
<polyline clip-path="url(#clip252)" style="stroke:#000000; stroke-linecap:butt; stroke-linejoin:round; stroke-width:2; stroke-opacity:0.1; fill:none" points="
  1347.34,1037.58 1347.34,47.2441 
  "/>
<polyline clip-path="url(#clip252)" style="stroke:#000000; stroke-linecap:butt; stroke-linejoin:round; stroke-width:2; stroke-opacity:0.1; fill:none" points="
  1952.76,1037.58 1952.76,47.2441 
  "/>
<polyline clip-path="url(#clip250)" style="stroke:#000000; stroke-linecap:butt; stroke-linejoin:round; stroke-width:4; stroke-opacity:1; fill:none" points="
  136.517,1037.58 1952.76,1037.58 
  "/>
<polyline clip-path="url(#clip250)" style="stroke:#000000; stroke-linecap:butt; stroke-linejoin:round; stroke-width:4; stroke-opacity:1; fill:none" points="
  136.517,1037.58 136.517,1018.69 
  "/>
<polyline clip-path="url(#clip250)" style="stroke:#000000; stroke-linecap:butt; stroke-linejoin:round; stroke-width:4; stroke-opacity:1; fill:none" points="
  741.93,1037.58 741.93,1018.69 
  "/>
<polyline clip-path="url(#clip250)" style="stroke:#000000; stroke-linecap:butt; stroke-linejoin:round; stroke-width:4; stroke-opacity:1; fill:none" points="
  1347.34,1037.58 1347.34,1018.69 
  "/>
<polyline clip-path="url(#clip250)" style="stroke:#000000; stroke-linecap:butt; stroke-linejoin:round; stroke-width:4; stroke-opacity:1; fill:none" points="
  1952.76,1037.58 1952.76,1018.69 
  "/>
<g clip-path="url(#clip250)">
<text style="fill:#000000; fill-opacity:1; font-family:Arial,Helvetica Neue,Helvetica,sans-serif; font-size:48px; text-anchor:middle;" transform="rotate(0, 136.517, 1096.23)" x="136.517" y="1096.23">0</text>
</g>
<g clip-path="url(#clip250)">
<text style="fill:#000000; fill-opacity:1; font-family:Arial,Helvetica Neue,Helvetica,sans-serif; font-size:48px; text-anchor:middle;" transform="rotate(0, 741.93, 1096.23)" x="741.93" y="1096.23">1</text>
</g>
<g clip-path="url(#clip250)">
<text style="fill:#000000; fill-opacity:1; font-family:Arial,Helvetica Neue,Helvetica,sans-serif; font-size:48px; text-anchor:middle;" transform="rotate(0, 1347.34, 1096.23)" x="1347.34" y="1096.23">2</text>
</g>
<g clip-path="url(#clip250)">
<text style="fill:#000000; fill-opacity:1; font-family:Arial,Helvetica Neue,Helvetica,sans-serif; font-size:48px; text-anchor:middle;" transform="rotate(0, 1952.76, 1096.23)" x="1952.76" y="1096.23">3</text>
</g>
<g clip-path="url(#clip250)">
<text style="fill:#000000; fill-opacity:1; font-family:Arial,Helvetica Neue,Helvetica,sans-serif; font-size:66px; text-anchor:middle;" transform="rotate(0, 1044.64, 1177.44)" x="1044.64" y="1177.44">t</text>
</g>
<polyline clip-path="url(#clip252)" style="stroke:#000000; stroke-linecap:butt; stroke-linejoin:round; stroke-width:2; stroke-opacity:0.1; fill:none" points="
  136.517,1036.12 1952.76,1036.12 
  "/>
<polyline clip-path="url(#clip252)" style="stroke:#000000; stroke-linecap:butt; stroke-linejoin:round; stroke-width:2; stroke-opacity:0.1; fill:none" points="
  136.517,770.459 1952.76,770.459 
  "/>
<polyline clip-path="url(#clip252)" style="stroke:#000000; stroke-linecap:butt; stroke-linejoin:round; stroke-width:2; stroke-opacity:0.1; fill:none" points="
  136.517,504.797 1952.76,504.797 
  "/>
<polyline clip-path="url(#clip252)" style="stroke:#000000; stroke-linecap:butt; stroke-linejoin:round; stroke-width:2; stroke-opacity:0.1; fill:none" points="
  136.517,239.136 1952.76,239.136 
  "/>
<polyline clip-path="url(#clip250)" style="stroke:#000000; stroke-linecap:butt; stroke-linejoin:round; stroke-width:4; stroke-opacity:1; fill:none" points="
  136.517,1037.58 136.517,47.2441 
  "/>
<polyline clip-path="url(#clip250)" style="stroke:#000000; stroke-linecap:butt; stroke-linejoin:round; stroke-width:4; stroke-opacity:1; fill:none" points="
  136.517,1036.12 155.414,1036.12 
  "/>
<polyline clip-path="url(#clip250)" style="stroke:#000000; stroke-linecap:butt; stroke-linejoin:round; stroke-width:4; stroke-opacity:1; fill:none" points="
  136.517,770.459 155.414,770.459 
  "/>
<polyline clip-path="url(#clip250)" style="stroke:#000000; stroke-linecap:butt; stroke-linejoin:round; stroke-width:4; stroke-opacity:1; fill:none" points="
  136.517,504.797 155.414,504.797 
  "/>
<polyline clip-path="url(#clip250)" style="stroke:#000000; stroke-linecap:butt; stroke-linejoin:round; stroke-width:4; stroke-opacity:1; fill:none" points="
  136.517,239.136 155.414,239.136 
  "/>
<g clip-path="url(#clip250)">
<text style="fill:#000000; fill-opacity:1; font-family:Arial,Helvetica Neue,Helvetica,sans-serif; font-size:48px; text-anchor:middle;" transform="rotate(0, 93.1356, 1053.62)" x="93.1356" y="1053.62">0</text>
</g>
<g clip-path="url(#clip250)">
<text style="fill:#000000; fill-opacity:1; font-family:Arial,Helvetica Neue,Helvetica,sans-serif; font-size:48px; text-anchor:middle;" transform="rotate(0, 79.7545, 787.959)" x="79.7545" y="787.959">10</text>
</g>
<g clip-path="url(#clip250)">
<text style="fill:#000000; fill-opacity:1; font-family:Arial,Helvetica Neue,Helvetica,sans-serif; font-size:48px; text-anchor:middle;" transform="rotate(0, 79.7545, 522.297)" x="79.7545" y="522.297">20</text>
</g>
<g clip-path="url(#clip250)">
<text style="fill:#000000; fill-opacity:1; font-family:Arial,Helvetica Neue,Helvetica,sans-serif; font-size:48px; text-anchor:middle;" transform="rotate(0, 79.7545, 256.636)" x="79.7545" y="256.636">30</text>
</g>
<polyline clip-path="url(#clip252)" style="stroke:#009af9; stroke-linecap:butt; stroke-linejoin:round; stroke-width:8; stroke-opacity:1; fill:none" points="
  136.517,1009.55 138.335,1009.47 140.153,1009.39 141.971,1009.31 143.789,1009.23 145.607,1009.15 147.425,1009.07 149.243,1008.98 151.061,1008.9 152.879,1008.82 
  154.697,1008.73 156.515,1008.65 158.333,1008.56 160.152,1008.48 161.97,1008.39 163.788,1008.3 165.606,1008.22 167.424,1008.13 169.242,1008.04 171.06,1007.95 
  172.878,1007.86 174.696,1007.77 176.514,1007.68 178.332,1007.59 180.15,1007.5 181.968,1007.41 183.786,1007.31 185.604,1007.22 187.422,1007.13 189.24,1007.03 
  191.059,1006.94 192.877,1006.84 194.695,1006.75 196.513,1006.65 198.331,1006.56 200.149,1006.46 201.967,1006.36 203.785,1006.26 205.603,1006.16 207.421,1006.06 
  209.239,1005.96 211.057,1005.86 212.875,1005.76 214.693,1005.66 216.511,1005.56 218.329,1005.46 220.147,1005.35 221.965,1005.25 223.784,1005.15 225.602,1005.04 
  227.42,1004.94 229.238,1004.83 231.056,1004.72 232.874,1004.62 234.692,1004.51 236.51,1004.4 238.328,1004.29 240.146,1004.18 241.964,1004.07 243.782,1003.96 
  245.6,1003.85 247.418,1003.74 249.236,1003.63 251.054,1003.51 252.872,1003.4 254.691,1003.29 256.509,1003.17 258.327,1003.06 260.145,1002.94 261.963,1002.83 
  263.781,1002.71 265.599,1002.59 267.417,1002.47 269.235,1002.36 271.053,1002.24 272.871,1002.12 274.689,1002 276.507,1001.87 278.325,1001.75 280.143,1001.63 
  281.961,1001.51 283.779,1001.38 285.597,1001.26 287.416,1001.14 289.234,1001.01 291.052,1000.89 292.87,1000.76 294.688,1000.63 296.506,1000.5 298.324,1000.38 
  300.142,1000.25 301.96,1000.12 303.778,999.987 305.596,999.856 307.414,999.724 309.232,999.592 311.05,999.459 312.868,999.326 314.686,999.192 316.504,999.057 
  318.323,998.922 320.141,998.786 321.959,998.649 323.777,998.512 325.595,998.374 327.413,998.235 329.231,998.096 331.049,997.956 332.867,997.816 334.685,997.674 
  336.503,997.532 338.321,997.39 340.139,997.247 341.957,997.103 343.775,996.958 345.593,996.813 347.411,996.667 349.229,996.52 351.048,996.373 352.866,996.225 
  354.684,996.076 356.502,995.927 358.32,995.777 360.138,995.626 361.956,995.475 363.774,995.323 365.592,995.17 367.41,995.017 369.228,994.862 371.046,994.707 
  372.864,994.552 374.682,994.396 376.5,994.238 378.318,994.081 380.136,993.922 381.955,993.763 383.773,993.603 385.591,993.443 387.409,993.281 389.227,993.119 
  391.045,992.956 392.863,992.793 394.681,992.629 396.499,992.464 398.317,992.298 400.135,992.131 401.953,991.964 403.771,991.796 405.589,991.627 407.407,991.458 
  409.225,991.288 411.043,991.117 412.861,990.945 414.68,990.773 416.498,990.6 418.316,990.426 420.134,990.251 421.952,990.075 423.77,989.899 425.588,989.722 
  427.406,989.544 429.224,989.366 431.042,989.186 432.86,989.006 434.678,988.825 436.496,988.643 438.314,988.461 440.132,988.278 441.95,988.094 443.768,987.909 
  445.587,987.723 447.405,987.537 449.223,987.349 451.041,987.161 452.859,986.972 454.677,986.783 456.495,986.592 458.313,986.401 460.131,986.209 461.949,986.016 
  463.767,985.822 465.585,985.628 467.403,985.432 469.221,985.236 471.039,985.039 472.857,984.841 474.675,984.642 476.493,984.443 478.312,984.242 480.13,984.041 
  481.948,983.839 483.766,983.636 485.584,983.432 487.402,983.228 489.22,983.022 491.038,982.816 492.856,982.609 494.674,982.4 496.492,982.192 498.31,981.982 
  500.128,981.771 501.946,981.559 503.764,981.347 505.582,981.134 507.4,980.919 509.219,980.704 511.037,980.488 512.855,980.271 514.673,980.054 516.491,979.835 
  518.309,979.616 520.127,979.395 521.945,979.174 523.763,978.951 525.581,978.728 527.399,978.504 529.217,978.279 531.035,978.053 532.853,977.826 534.671,977.599 
  536.489,977.37 538.307,977.14 540.125,976.91 541.944,976.679 543.762,976.446 545.58,976.213 547.398,975.979 549.216,975.743 551.034,975.507 552.852,975.27 
  554.67,975.032 556.488,974.793 558.306,974.553 560.124,974.312 561.942,974.07 563.76,973.827 565.578,973.584 567.396,973.339 569.214,973.093 571.032,972.846 
  572.851,972.598 574.669,972.35 576.487,972.1 578.305,971.849 580.123,971.598 581.941,971.345 583.759,971.091 585.577,970.836 587.395,970.581 589.213,970.324 
  591.031,970.066 592.849,969.807 594.667,969.548 596.485,969.287 598.303,969.025 600.121,968.762 601.939,968.498 603.757,968.233 605.576,967.967 607.394,967.7 
  609.212,967.432 611.03,967.163 612.848,966.893 614.666,966.622 616.484,966.35 618.302,966.076 620.12,965.802 621.938,965.527 623.756,965.25 625.574,964.972 
  627.392,964.694 629.21,964.414 631.028,964.133 632.846,963.851 634.664,963.568 636.483,963.284 638.301,962.999 640.119,962.713 641.937,962.425 643.755,962.137 
  645.573,961.847 647.391,961.557 649.209,961.265 651.027,960.972 652.845,960.678 654.663,960.383 656.481,960.087 658.299,959.789 660.117,959.491 661.935,959.191 
  663.753,958.89 665.571,958.588 667.389,958.285 669.208,957.981 671.026,957.676 672.844,957.369 674.662,957.061 676.48,956.753 678.298,956.442 680.116,956.131 
  681.934,955.819 683.752,955.505 685.57,955.191 687.388,954.875 689.206,954.557 691.024,954.239 692.842,953.92 694.66,953.599 696.478,953.277 698.296,952.954 
  700.115,952.629 701.933,952.304 703.751,951.977 705.569,951.649 707.387,951.32 709.205,950.989 711.023,950.657 712.841,950.324 714.659,949.99 716.477,949.655 
  718.295,949.318 720.113,948.98 721.931,948.641 723.749,948.3 725.567,947.959 727.385,947.616 729.203,947.271 731.021,946.926 732.84,946.579 734.658,946.231 
  736.476,945.881 738.294,945.531 740.112,945.179 741.93,944.825 743.748,944.471 745.566,944.115 747.384,943.758 749.202,943.399 751.02,943.039 752.838,942.678 
  754.656,942.315 756.474,941.952 758.292,941.586 760.11,941.22 761.928,940.852 763.747,940.483 765.565,940.112 767.383,939.74 769.201,939.367 771.019,938.993 
  772.837,938.617 774.655,938.239 776.473,937.861 778.291,937.481 780.109,937.099 781.927,936.716 783.745,936.332 785.563,935.946 787.381,935.559 789.199,935.171 
  791.017,934.781 792.835,934.39 794.653,933.997 796.472,933.603 798.29,933.208 800.108,932.811 801.926,932.412 803.744,932.013 805.562,931.611 807.38,931.209 
  809.198,930.805 811.016,930.399 812.834,929.992 814.652,929.584 816.47,929.174 818.288,928.762 820.106,928.349 821.924,927.935 823.742,927.519 825.56,927.101 
  827.379,926.683 829.197,926.262 831.015,925.84 832.833,925.417 834.651,924.992 836.469,924.565 838.287,924.137 840.105,923.708 841.923,923.277 843.741,922.844 
  845.559,922.41 847.377,921.974 849.195,921.537 851.013,921.098 852.831,920.658 854.649,920.216 856.467,919.773 858.285,919.328 860.104,918.881 861.922,918.433 
  863.74,917.983 865.558,917.531 867.376,917.078 869.194,916.624 871.012,916.168 872.83,915.71 874.648,915.25 876.466,914.789 878.284,914.326 880.102,913.862 
  881.92,913.396 883.738,912.928 885.556,912.459 887.374,911.988 889.192,911.516 891.011,911.041 892.829,910.566 894.647,910.088 896.465,909.609 898.283,909.128 
  900.101,908.645 901.919,908.161 903.737,907.675 905.555,907.187 907.373,906.698 909.191,906.207 911.009,905.714 912.827,905.219 914.645,904.723 916.463,904.225 
  918.281,903.726 920.099,903.224 921.917,902.721 923.736,902.216 925.554,901.709 927.372,901.201 929.19,900.691 931.008,900.179 932.826,899.665 934.644,899.15 
  936.462,898.632 938.28,898.113 940.098,897.592 941.916,897.07 943.734,896.545 945.552,896.019 947.37,895.491 949.188,894.961 951.006,894.429 952.824,893.895 
  954.643,893.36 956.461,892.822 958.279,892.283 960.097,891.742 961.915,891.199 963.733,890.654 965.551,890.107 967.369,889.559 969.187,889.008 971.005,888.456 
  972.823,887.901 974.641,887.345 976.459,886.787 978.277,886.227 980.095,885.665 981.913,885.101 983.731,884.535 985.549,883.967 987.368,883.398 989.186,882.826 
  991.004,882.252 992.822,881.677 994.64,881.099 996.458,880.519 998.276,879.938 1000.09,879.354 1001.91,878.769 1003.73,878.181 1005.55,877.591 1007.37,877 
  1009.18,876.406 1011,875.81 1012.82,875.213 1014.64,874.613 1016.46,874.011 1018.27,873.407 1020.09,872.801 1021.91,872.193 1023.73,871.583 1025.55,870.971 
  1027.36,870.357 1029.18,869.741 1031,869.122 1032.82,868.502 1034.64,867.879 1036.46,867.255 1038.27,866.628 1040.09,865.999 1041.91,865.368 1043.73,864.735 
  1045.55,864.099 1047.36,863.462 1049.18,862.822 1051,862.18 1052.82,861.536 1054.64,860.89 1056.45,860.242 1058.27,859.592 1060.09,858.939 1061.91,858.284 
  1063.73,857.627 1065.54,856.968 1067.36,856.306 1069.18,855.643 1071,854.977 1072.82,854.309 1074.63,853.638 1076.45,852.966 1078.27,852.291 1080.09,851.614 
  1081.91,850.934 1083.72,850.252 1085.54,849.568 1087.36,848.882 1089.18,848.194 1091,847.503 1092.81,846.809 1094.63,846.114 1096.45,845.416 1098.27,844.716 
  1100.09,844.013 1101.91,843.308 1103.72,842.601 1105.54,841.891 1107.36,841.179 1109.18,840.465 1111,839.748 1112.81,839.029 1114.63,838.307 1116.45,837.583 
  1118.27,836.857 1120.09,836.128 1121.9,835.396 1123.72,834.663 1125.54,833.926 1127.36,833.188 1129.18,832.447 1130.99,831.703 1132.81,830.957 1134.63,830.208 
  1136.45,829.457 1138.27,828.703 1140.08,827.947 1141.9,827.189 1143.72,826.428 1145.54,825.664 1147.36,824.898 1149.17,824.129 1150.99,823.357 1152.81,822.583 
  1154.63,821.807 1156.45,821.028 1158.26,820.246 1160.08,819.462 1161.9,818.675 1163.72,817.886 1165.54,817.093 1167.36,816.299 1169.17,815.501 1170.99,814.701 
  1172.81,813.899 1174.63,813.093 1176.45,812.285 1178.26,811.475 1180.08,810.661 1181.9,809.845 1183.72,809.027 1185.54,808.205 1187.35,807.381 1189.17,806.554 
  1190.99,805.725 1192.81,804.893 1194.63,804.057 1196.44,803.22 1198.26,802.379 1200.08,801.536 1201.9,800.69 1203.72,799.841 1205.53,798.989 1207.35,798.135 
  1209.17,797.278 1210.99,796.418 1212.81,795.555 1214.62,794.689 1216.44,793.821 1218.26,792.95 1220.08,792.076 1221.9,791.199 1223.71,790.319 1225.53,789.436 
  1227.35,788.55 1229.17,787.662 1230.99,786.771 1232.81,785.876 1234.62,784.979 1236.44,784.079 1238.26,783.176 1240.08,782.27 1241.9,781.361 1243.71,780.449 
  1245.53,779.534 1247.35,778.616 1249.17,777.695 1250.99,776.771 1252.8,775.844 1254.62,774.914 1256.44,773.981 1258.26,773.045 1260.08,772.105 1261.89,771.163 
  1263.71,770.218 1265.53,769.269 1267.35,768.318 1269.17,767.363 1270.98,766.405 1272.8,765.445 1274.62,764.481 1276.44,763.513 1278.26,762.543 1280.07,761.57 
  1281.89,760.593 1283.71,759.613 1285.53,758.63 1287.35,757.644 1289.17,756.654 1290.98,755.662 1292.8,754.666 1294.62,753.667 1296.44,752.664 1298.26,751.659 
  1300.07,750.65 1301.89,749.637 1303.71,748.622 1305.53,747.603 1307.35,746.581 1309.16,745.555 1310.98,744.527 1312.8,743.494 1314.62,742.459 1316.44,741.42 
  1318.25,740.378 1320.07,739.332 1321.89,738.283 1323.71,737.231 1325.53,736.175 1327.34,735.116 1329.16,734.053 1330.98,732.987 1332.8,731.917 1334.62,730.844 
  1336.43,729.768 1338.25,728.688 1340.07,727.604 1341.89,726.517 1343.71,725.427 1345.52,724.333 1347.34,723.235 1349.16,722.134 1350.98,721.03 1352.8,719.921 
  1354.62,718.81 1356.43,717.694 1358.25,716.576 1360.07,715.453 1361.89,714.327 1363.71,713.197 1365.52,712.064 1367.34,710.927 1369.16,709.786 1370.98,708.642 
  1372.8,707.494 1374.61,706.342 1376.43,705.187 1378.25,704.028 1380.07,702.866 1381.89,701.699 1383.7,700.529 1385.52,699.355 1387.34,698.178 1389.16,696.996 
  1390.98,695.811 1392.79,694.622 1394.61,693.429 1396.43,692.233 1398.25,691.033 1400.07,689.828 1401.88,688.62 1403.7,687.408 1405.52,686.192 1407.34,684.973 
  1409.16,683.749 1410.97,682.522 1412.79,681.29 1414.61,680.055 1416.43,678.815 1418.25,677.572 1420.07,676.325 1421.88,675.073 1423.7,673.818 1425.52,672.559 
  1427.34,671.295 1429.16,670.028 1430.97,668.756 1432.79,667.481 1434.61,666.201 1436.43,664.917 1438.25,663.63 1440.06,662.338 1441.88,661.041 1443.7,659.741 
  1445.52,658.437 1447.34,657.128 1449.15,655.815 1450.97,654.498 1452.79,653.177 1454.61,651.852 1456.43,650.522 1458.24,649.188 1460.06,647.85 1461.88,646.507 
  1463.7,645.161 1465.52,643.81 1467.33,642.454 1469.15,641.095 1470.97,639.73 1472.79,638.362 1474.61,636.989 1476.42,635.612 1478.24,634.231 1480.06,632.845 
  1481.88,631.454 1483.7,630.059 1485.52,628.66 1487.33,627.256 1489.15,625.848 1490.97,624.435 1492.79,623.018 1494.61,621.597 1496.42,620.17 1498.24,618.74 
  1500.06,617.304 1501.88,615.864 1503.7,614.42 1505.51,612.971 1507.33,611.517 1509.15,610.059 1510.97,608.596 1512.79,607.129 1514.6,605.657 1516.42,604.18 
  1518.24,602.698 1520.06,601.212 1521.88,599.721 1523.69,598.226 1525.51,596.725 1527.33,595.22 1529.15,593.71 1530.97,592.196 1532.78,590.676 1534.6,589.152 
  1536.42,587.623 1538.24,586.089 1540.06,584.551 1541.87,583.007 1543.69,581.459 1545.51,579.906 1547.33,578.348 1549.15,576.785 1550.97,575.217 1552.78,573.644 
  1554.6,572.066 1556.42,570.484 1558.24,568.896 1560.06,567.303 1561.87,565.706 1563.69,564.103 1565.51,562.495 1567.33,560.883 1569.15,559.265 1570.96,557.642 
  1572.78,556.014 1574.6,554.381 1576.42,552.742 1578.24,551.099 1580.05,549.45 1581.87,547.796 1583.69,546.137 1585.51,544.473 1587.33,542.803 1589.14,541.129 
  1590.96,539.448 1592.78,537.763 1594.6,536.072 1596.42,534.376 1598.23,532.675 1600.05,530.968 1601.87,529.256 1603.69,527.539 1605.51,525.816 1607.33,524.087 
  1609.14,522.353 1610.96,520.614 1612.78,518.869 1614.6,517.119 1616.42,515.363 1618.23,513.602 1620.05,511.835 1621.87,510.062 1623.69,508.284 1625.51,506.501 
  1627.32,504.711 1629.14,502.916 1630.96,501.116 1632.78,499.309 1634.6,497.497 1636.41,495.68 1638.23,493.856 1640.05,492.027 1641.87,490.192 1643.69,488.352 
  1645.5,486.505 1647.32,484.653 1649.14,482.795 1650.96,480.931 1652.78,479.061 1654.59,477.185 1656.41,475.303 1658.23,473.416 1660.05,471.522 1661.87,469.623 
  1663.68,467.718 1665.5,465.806 1667.32,463.889 1669.14,461.966 1670.96,460.036 1672.78,458.101 1674.59,456.159 1676.41,454.211 1678.23,452.258 1680.05,450.298 
  1681.87,448.332 1683.68,446.36 1685.5,444.381 1687.32,442.397 1689.14,440.406 1690.96,438.409 1692.77,436.406 1694.59,434.396 1696.41,432.381 1698.23,430.359 
  1700.05,428.33 1701.86,426.296 1703.68,424.255 1705.5,422.207 1707.32,420.154 1709.14,418.094 1710.95,416.027 1712.77,413.954 1714.59,411.875 1716.41,409.789 
  1718.23,407.696 1720.04,405.598 1721.86,403.492 1723.68,401.38 1725.5,399.262 1727.32,397.137 1729.13,395.005 1730.95,392.867 1732.77,390.722 1734.59,388.571 
  1736.41,386.413 1738.23,384.248 1740.04,382.077 1741.86,379.898 1743.68,377.713 1745.5,375.522 1747.32,373.323 1749.13,371.117 1750.95,368.905 1752.77,366.686 
  1754.59,364.46 1756.41,362.227 1758.22,359.987 1760.04,357.74 1761.86,355.486 1763.68,353.225 1765.5,350.957 1767.31,348.682 1769.13,346.399 1770.95,344.11 
  1772.77,341.814 1774.59,339.51 1776.4,337.199 1778.22,334.881 1780.04,332.556 1781.86,330.224 1783.68,327.884 1785.49,325.537 1787.31,323.183 1789.13,320.821 
  1790.95,318.452 1792.77,316.076 1794.58,313.692 1796.4,311.3 1798.22,308.902 1800.04,306.495 1801.86,304.082 1803.68,301.66 1805.49,299.232 1807.31,296.795 
  1809.13,294.351 1810.95,291.9 1812.77,289.44 1814.58,286.974 1816.4,284.499 1818.22,282.017 1820.04,279.527 1821.86,277.029 1823.67,274.523 1825.49,272.01 
  1827.31,269.489 1829.13,266.96 1830.95,264.423 1832.76,261.878 1834.58,259.325 1836.4,256.765 1838.22,254.196 1840.04,251.619 1841.85,249.035 1843.67,246.442 
  1845.49,243.841 1847.31,241.232 1849.13,238.616 1850.94,235.991 1852.76,233.357 1854.58,230.716 1856.4,228.066 1858.22,225.409 1860.03,222.743 1861.85,220.068 
  1863.67,217.386 1865.49,214.695 1867.31,211.996 1869.13,209.288 1870.94,206.572 1872.76,203.848 1874.58,201.115 1876.4,198.374 1878.22,195.624 1880.03,192.866 
  1881.85,190.099 1883.67,187.324 1885.49,184.54 1887.31,181.748 1889.12,178.947 1890.94,176.137 1892.76,173.319 1894.58,170.492 1896.4,167.657 1898.21,164.812 
  1900.03,161.959 1901.85,159.097 1903.67,156.226 1905.49,153.347 1907.3,150.458 1909.12,147.561 1910.94,144.654 1912.76,141.739 1914.58,138.815 1916.39,135.881 
  1918.21,132.939 1920.03,129.987 1921.85,127.026 1923.67,124.057 1925.49,121.078 1927.3,118.089 1929.12,115.092 1930.94,112.085 1932.76,109.069 1934.58,106.044 
  1936.39,103.009 1938.21,99.9653 1940.03,96.9118 1941.85,93.849 1943.67,90.7767 1945.48,87.695 1947.3,84.6037 1949.12,81.5029 1950.94,78.3925 1952.76,75.2725 
  
  "/>
</svg>
