<?xml version="1.0" encoding="utf-8"?>
<svg xmlns="http://www.w3.org/2000/svg" xmlns:xlink="http://www.w3.org/1999/xlink" width="500" height="300" viewBox="0 0 2000 1200">
<defs>
  <clipPath id="clip540">
    <rect x="0" y="0" width="2000" height="1200"/>
  </clipPath>
</defs>
<path clip-path="url(#clip540)" d="
M0 1200 L2000 1200 L2000 0 L0 0  Z
  " fill="#ffffff" fill-rule="evenodd" fill-opacity="1"/>
<defs>
  <clipPath id="clip541">
    <rect x="400" y="0" width="1401" height="1200"/>
  </clipPath>
</defs>
<path clip-path="url(#clip540)" d="
M137.853 1035.39 L1952.76 1035.39 L1952.76 47.2441 L137.853 47.2441  Z
  " fill="#ffffff" fill-rule="evenodd" fill-opacity="1"/>
<defs>
  <clipPath id="clip542">
    <rect x="137" y="47" width="1816" height="989"/>
  </clipPath>
</defs>
<polyline clip-path="url(#clip542)" style="stroke:#000000; stroke-linecap:round; stroke-linejoin:round; stroke-width:2; stroke-opacity:0.1; fill:none" points="
  137.853,1035.39 137.853,47.2441 
  "/>
<polyline clip-path="url(#clip542)" style="stroke:#000000; stroke-linecap:round; stroke-linejoin:round; stroke-width:2; stroke-opacity:0.1; fill:none" points="
  742.821,1035.39 742.821,47.2441 
  "/>
<polyline clip-path="url(#clip542)" style="stroke:#000000; stroke-linecap:round; stroke-linejoin:round; stroke-width:2; stroke-opacity:0.1; fill:none" points="
  1347.79,1035.39 1347.79,47.2441 
  "/>
<polyline clip-path="url(#clip542)" style="stroke:#000000; stroke-linecap:round; stroke-linejoin:round; stroke-width:2; stroke-opacity:0.1; fill:none" points="
  1952.76,1035.39 1952.76,47.2441 
  "/>
<polyline clip-path="url(#clip540)" style="stroke:#000000; stroke-linecap:round; stroke-linejoin:round; stroke-width:4; stroke-opacity:1; fill:none" points="
  137.853,1035.39 1952.76,1035.39 
  "/>
<polyline clip-path="url(#clip540)" style="stroke:#000000; stroke-linecap:round; stroke-linejoin:round; stroke-width:4; stroke-opacity:1; fill:none" points="
  137.853,1035.39 137.853,1016.49 
  "/>
<polyline clip-path="url(#clip540)" style="stroke:#000000; stroke-linecap:round; stroke-linejoin:round; stroke-width:4; stroke-opacity:1; fill:none" points="
  742.821,1035.39 742.821,1016.49 
  "/>
<polyline clip-path="url(#clip540)" style="stroke:#000000; stroke-linecap:round; stroke-linejoin:round; stroke-width:4; stroke-opacity:1; fill:none" points="
  1347.79,1035.39 1347.79,1016.49 
  "/>
<polyline clip-path="url(#clip540)" style="stroke:#000000; stroke-linecap:round; stroke-linejoin:round; stroke-width:4; stroke-opacity:1; fill:none" points="
  1952.76,1035.39 1952.76,1016.49 
  "/>
<path clip-path="url(#clip540)" d="M137.853 1063.11 Q134.242 1063.11 132.413 1066.67 Q130.608 1070.21 130.608 1077.34 Q130.608 1084.45 132.413 1088.01 Q134.242 1091.56 137.853 1091.56 Q141.487 1091.56 143.293 1088.01 Q145.121 1084.45 145.121 1077.34 Q145.121 1070.21 143.293 1066.67 Q141.487 1063.11 137.853 1063.11 M137.853 1059.4 Q143.663 1059.4 146.719 1064.01 Q149.797 1068.59 149.797 1077.34 Q149.797 1086.07 146.719 1090.68 Q143.663 1095.26 137.853 1095.26 Q132.043 1095.26 128.964 1090.68 Q125.909 1086.07 125.909 1077.34 Q125.909 1068.59 128.964 1064.01 Q132.043 1059.4 137.853 1059.4 Z" fill="#000000" fill-rule="evenodd" fill-opacity="1" /><path clip-path="url(#clip540)" d="M717.52 1060.03 L735.876 1060.03 L735.876 1063.96 L721.802 1063.96 L721.802 1072.44 Q722.821 1072.09 723.839 1071.93 Q724.858 1071.74 725.876 1071.74 Q731.663 1071.74 735.043 1074.91 Q738.422 1078.08 738.422 1083.5 Q738.422 1089.08 734.95 1092.18 Q731.478 1095.26 725.159 1095.26 Q722.983 1095.26 720.714 1094.89 Q718.469 1094.52 716.061 1093.78 L716.061 1089.08 Q718.145 1090.21 720.367 1090.77 Q722.589 1091.32 725.066 1091.32 Q729.071 1091.32 731.409 1089.22 Q733.747 1087.11 733.747 1083.5 Q733.747 1079.89 731.409 1077.78 Q729.071 1075.68 725.066 1075.68 Q723.191 1075.68 721.316 1076.09 Q719.464 1076.51 717.52 1077.39 L717.52 1060.03 Z" fill="#000000" fill-rule="evenodd" fill-opacity="1" /><path clip-path="url(#clip540)" d="M757.635 1063.11 Q754.024 1063.11 752.196 1066.67 Q750.39 1070.21 750.39 1077.34 Q750.39 1084.45 752.196 1088.01 Q754.024 1091.56 757.635 1091.56 Q761.27 1091.56 763.075 1088.01 Q764.904 1084.45 764.904 1077.34 Q764.904 1070.21 763.075 1066.67 Q761.27 1063.11 757.635 1063.11 M757.635 1059.4 Q763.445 1059.4 766.501 1064.01 Q769.58 1068.59 769.58 1077.34 Q769.58 1086.07 766.501 1090.68 Q763.445 1095.26 757.635 1095.26 Q751.825 1095.26 748.746 1090.68 Q745.691 1086.07 745.691 1077.34 Q745.691 1068.59 748.746 1064.01 Q751.825 1059.4 757.635 1059.4 Z" fill="#000000" fill-rule="evenodd" fill-opacity="1" /><path clip-path="url(#clip540)" d="M1307.39 1090.65 L1315.03 1090.65 L1315.03 1064.29 L1306.72 1065.95 L1306.72 1061.69 L1314.99 1060.03 L1319.66 1060.03 L1319.66 1090.65 L1327.3 1090.65 L1327.3 1094.59 L1307.39 1094.59 L1307.39 1090.65 Z" fill="#000000" fill-rule="evenodd" fill-opacity="1" /><path clip-path="url(#clip540)" d="M1346.75 1063.11 Q1343.14 1063.11 1341.31 1066.67 Q1339.5 1070.21 1339.5 1077.34 Q1339.5 1084.45 1341.31 1088.01 Q1343.14 1091.56 1346.75 1091.56 Q1350.38 1091.56 1352.19 1088.01 Q1354.02 1084.45 1354.02 1077.34 Q1354.02 1070.21 1352.19 1066.67 Q1350.38 1063.11 1346.75 1063.11 M1346.75 1059.4 Q1352.56 1059.4 1355.61 1064.01 Q1358.69 1068.59 1358.69 1077.34 Q1358.69 1086.07 1355.61 1090.68 Q1352.56 1095.26 1346.75 1095.26 Q1340.94 1095.26 1337.86 1090.68 Q1334.8 1086.07 1334.8 1077.34 Q1334.8 1068.59 1337.86 1064.01 Q1340.94 1059.4 1346.75 1059.4 Z" fill="#000000" fill-rule="evenodd" fill-opacity="1" /><path clip-path="url(#clip540)" d="M1376.91 1063.11 Q1373.3 1063.11 1371.47 1066.67 Q1369.66 1070.21 1369.66 1077.34 Q1369.66 1084.45 1371.47 1088.01 Q1373.3 1091.56 1376.91 1091.56 Q1380.54 1091.56 1382.35 1088.01 Q1384.18 1084.45 1384.18 1077.34 Q1384.18 1070.21 1382.35 1066.67 Q1380.54 1063.11 1376.91 1063.11 M1376.91 1059.4 Q1382.72 1059.4 1385.77 1064.01 Q1388.85 1068.59 1388.85 1077.34 Q1388.85 1086.07 1385.77 1090.68 Q1382.72 1095.26 1376.91 1095.26 Q1371.1 1095.26 1368.02 1090.68 Q1364.96 1086.07 1364.96 1077.34 Q1364.96 1068.59 1368.02 1064.01 Q1371.1 1059.4 1376.91 1059.4 Z" fill="#000000" fill-rule="evenodd" fill-opacity="1" /><path clip-path="url(#clip540)" d="M1912.36 1090.65 L1920 1090.65 L1920 1064.29 L1911.69 1065.95 L1911.69 1061.69 L1919.96 1060.03 L1924.63 1060.03 L1924.63 1090.65 L1932.27 1090.65 L1932.27 1094.59 L1912.36 1094.59 L1912.36 1090.65 Z" fill="#000000" fill-rule="evenodd" fill-opacity="1" /><path clip-path="url(#clip540)" d="M1941.76 1060.03 L1960.12 1060.03 L1960.12 1063.96 L1946.04 1063.96 L1946.04 1072.44 Q1947.06 1072.09 1948.08 1071.93 Q1949.1 1071.74 1950.12 1071.74 Q1955.9 1071.74 1959.28 1074.91 Q1962.66 1078.08 1962.66 1083.5 Q1962.66 1089.08 1959.19 1092.18 Q1955.72 1095.26 1949.4 1095.26 Q1947.22 1095.26 1944.96 1094.89 Q1942.71 1094.52 1940.3 1093.78 L1940.3 1089.08 Q1942.39 1090.21 1944.61 1090.77 Q1946.83 1091.32 1949.31 1091.32 Q1953.31 1091.32 1955.65 1089.22 Q1957.99 1087.11 1957.99 1083.5 Q1957.99 1079.89 1955.65 1077.78 Q1953.31 1075.68 1949.31 1075.68 Q1947.43 1075.68 1945.56 1076.09 Q1943.71 1076.51 1941.76 1077.39 L1941.76 1060.03 Z" fill="#000000" fill-rule="evenodd" fill-opacity="1" /><path clip-path="url(#clip540)" d="M1981.88 1063.11 Q1978.27 1063.11 1976.44 1066.67 Q1974.63 1070.21 1974.63 1077.34 Q1974.63 1084.45 1976.44 1088.01 Q1978.27 1091.56 1981.88 1091.56 Q1985.51 1091.56 1987.32 1088.01 Q1989.14 1084.45 1989.14 1077.34 Q1989.14 1070.21 1987.32 1066.67 Q1985.51 1063.11 1981.88 1063.11 M1981.88 1059.4 Q1987.69 1059.4 1990.74 1064.01 Q1993.82 1068.59 1993.82 1077.34 Q1993.82 1086.07 1990.74 1090.68 Q1987.69 1095.26 1981.88 1095.26 Q1976.07 1095.26 1972.99 1090.68 Q1969.93 1086.07 1969.93 1077.34 Q1969.93 1068.59 1972.99 1064.01 Q1976.07 1059.4 1981.88 1059.4 Z" fill="#000000" fill-rule="evenodd" fill-opacity="1" /><path clip-path="url(#clip540)" d="M1044.37 1128.48 L1044.37 1138.6 L1056.43 1138.6 L1056.43 1143.16 L1044.37 1143.16 L1044.37 1162.51 Q1044.37 1166.87 1045.54 1168.11 Q1046.75 1169.35 1050.41 1169.35 L1056.43 1169.35 L1056.43 1174.25 L1050.41 1174.25 Q1043.63 1174.25 1041.06 1171.74 Q1038.48 1169.19 1038.48 1162.51 L1038.48 1143.16 L1034.18 1143.16 L1034.18 1138.6 L1038.48 1138.6 L1038.48 1128.48 L1044.37 1128.48 Z" fill="#000000" fill-rule="evenodd" fill-opacity="1" /><polyline clip-path="url(#clip542)" style="stroke:#000000; stroke-linecap:round; stroke-linejoin:round; stroke-width:2; stroke-opacity:0.1; fill:none" points="
  137.853,1007.47 1952.76,1007.47 
  "/>
<polyline clip-path="url(#clip542)" style="stroke:#000000; stroke-linecap:round; stroke-linejoin:round; stroke-width:2; stroke-opacity:0.1; fill:none" points="
  137.853,778.289 1952.76,778.289 
  "/>
<polyline clip-path="url(#clip542)" style="stroke:#000000; stroke-linecap:round; stroke-linejoin:round; stroke-width:2; stroke-opacity:0.1; fill:none" points="
  137.853,549.104 1952.76,549.104 
  "/>
<polyline clip-path="url(#clip542)" style="stroke:#000000; stroke-linecap:round; stroke-linejoin:round; stroke-width:2; stroke-opacity:0.1; fill:none" points="
  137.853,319.919 1952.76,319.919 
  "/>
<polyline clip-path="url(#clip542)" style="stroke:#000000; stroke-linecap:round; stroke-linejoin:round; stroke-width:2; stroke-opacity:0.1; fill:none" points="
  137.853,90.7334 1952.76,90.7334 
  "/>
<polyline clip-path="url(#clip540)" style="stroke:#000000; stroke-linecap:round; stroke-linejoin:round; stroke-width:4; stroke-opacity:1; fill:none" points="
  137.853,1035.39 137.853,47.2441 
  "/>
<polyline clip-path="url(#clip540)" style="stroke:#000000; stroke-linecap:round; stroke-linejoin:round; stroke-width:4; stroke-opacity:1; fill:none" points="
  137.853,1007.47 156.751,1007.47 
  "/>
<polyline clip-path="url(#clip540)" style="stroke:#000000; stroke-linecap:round; stroke-linejoin:round; stroke-width:4; stroke-opacity:1; fill:none" points="
  137.853,778.289 156.751,778.289 
  "/>
<polyline clip-path="url(#clip540)" style="stroke:#000000; stroke-linecap:round; stroke-linejoin:round; stroke-width:4; stroke-opacity:1; fill:none" points="
  137.853,549.104 156.751,549.104 
  "/>
<polyline clip-path="url(#clip540)" style="stroke:#000000; stroke-linecap:round; stroke-linejoin:round; stroke-width:4; stroke-opacity:1; fill:none" points="
  137.853,319.919 156.751,319.919 
  "/>
<polyline clip-path="url(#clip540)" style="stroke:#000000; stroke-linecap:round; stroke-linejoin:round; stroke-width:4; stroke-opacity:1; fill:none" points="
  137.853,90.7334 156.751,90.7334 
  "/>
<path clip-path="url(#clip540)" d="M95.9086 993.273 Q92.2975 993.273 90.4688 996.838 Q88.6632 1000.38 88.6632 1007.51 Q88.6632 1014.62 90.4688 1018.18 Q92.2975 1021.72 95.9086 1021.72 Q99.5428 1021.72 101.348 1018.18 Q103.177 1014.62 103.177 1007.51 Q103.177 1000.38 101.348 996.838 Q99.5428 993.273 95.9086 993.273 M95.9086 989.569 Q101.719 989.569 104.774 994.176 Q107.853 998.759 107.853 1007.51 Q107.853 1016.24 104.774 1020.84 Q101.719 1025.43 95.9086 1025.43 Q90.0984 1025.43 87.0197 1020.84 Q83.9642 1016.24 83.9642 1007.51 Q83.9642 998.759 87.0197 994.176 Q90.0984 989.569 95.9086 989.569 Z" fill="#000000" fill-rule="evenodd" fill-opacity="1" /><path clip-path="url(#clip540)" d="M56.5569 791.634 L64.1958 791.634 L64.1958 765.268 L55.8856 766.935 L55.8856 762.676 L64.1495 761.009 L68.8254 761.009 L68.8254 791.634 L76.4642 791.634 L76.4642 795.569 L56.5569 795.569 L56.5569 791.634 Z" fill="#000000" fill-rule="evenodd" fill-opacity="1" /><path clip-path="url(#clip540)" d="M95.9086 764.088 Q92.2975 764.088 90.4688 767.653 Q88.6632 771.194 88.6632 778.324 Q88.6632 785.43 90.4688 788.995 Q92.2975 792.537 95.9086 792.537 Q99.5428 792.537 101.348 788.995 Q103.177 785.43 103.177 778.324 Q103.177 771.194 101.348 767.653 Q99.5428 764.088 95.9086 764.088 M95.9086 760.384 Q101.719 760.384 104.774 764.991 Q107.853 769.574 107.853 778.324 Q107.853 787.051 104.774 791.657 Q101.719 796.24 95.9086 796.24 Q90.0984 796.24 87.0197 791.657 Q83.9642 787.051 83.9642 778.324 Q83.9642 769.574 87.0197 764.991 Q90.0984 760.384 95.9086 760.384 Z" fill="#000000" fill-rule="evenodd" fill-opacity="1" /><path clip-path="url(#clip540)" d="M59.7745 562.449 L76.0939 562.449 L76.0939 566.384 L54.1495 566.384 L54.1495 562.449 Q56.8115 559.694 61.3949 555.064 Q66.0013 550.412 67.1819 549.069 Q69.4272 546.546 70.3068 544.81 Q71.2096 543.051 71.2096 541.361 Q71.2096 538.606 69.2652 536.87 Q67.3439 535.134 64.2421 535.134 Q62.043 535.134 59.5893 535.898 Q57.1588 536.662 54.381 538.213 L54.381 533.491 Q57.2051 532.356 59.6588 531.778 Q62.1124 531.199 64.1495 531.199 Q69.5198 531.199 72.7142 533.884 Q75.9087 536.569 75.9087 541.06 Q75.9087 543.19 75.0985 545.111 Q74.3115 547.009 72.205 549.602 Q71.6263 550.273 68.5245 553.49 Q65.4226 556.685 59.7745 562.449 Z" fill="#000000" fill-rule="evenodd" fill-opacity="1" /><path clip-path="url(#clip540)" d="M95.9086 534.903 Q92.2975 534.903 90.4688 538.467 Q88.6632 542.009 88.6632 549.139 Q88.6632 556.245 90.4688 559.81 Q92.2975 563.351 95.9086 563.351 Q99.5428 563.351 101.348 559.81 Q103.177 556.245 103.177 549.139 Q103.177 542.009 101.348 538.467 Q99.5428 534.903 95.9086 534.903 M95.9086 531.199 Q101.719 531.199 104.774 535.805 Q107.853 540.389 107.853 549.139 Q107.853 557.865 104.774 562.472 Q101.719 567.055 95.9086 567.055 Q90.0984 567.055 87.0197 562.472 Q83.9642 557.865 83.9642 549.139 Q83.9642 540.389 87.0197 535.805 Q90.0984 531.199 95.9086 531.199 Z" fill="#000000" fill-rule="evenodd" fill-opacity="1" /><path clip-path="url(#clip540)" d="M69.9133 318.564 Q73.2698 319.282 75.1448 321.551 Q77.0429 323.819 77.0429 327.152 Q77.0429 332.268 73.5244 335.069 Q70.0059 337.87 63.5245 337.87 Q61.3486 337.87 59.0338 337.43 Q56.7421 337.013 54.2884 336.157 L54.2884 331.643 Q56.2328 332.777 58.5477 333.356 Q60.8625 333.935 63.3856 333.935 Q67.7837 333.935 70.0754 332.199 Q72.3902 330.463 72.3902 327.152 Q72.3902 324.097 70.2374 322.384 Q68.1078 320.648 64.2884 320.648 L60.2606 320.648 L60.2606 316.805 L64.4735 316.805 Q67.9226 316.805 69.7513 315.439 Q71.58 314.051 71.58 311.458 Q71.58 308.796 69.6819 307.384 Q67.8069 305.949 64.2884 305.949 Q62.3671 305.949 60.168 306.365 Q57.969 306.782 55.3301 307.662 L55.3301 303.495 Q57.9921 302.754 60.3069 302.384 Q62.6449 302.014 64.705 302.014 Q70.0291 302.014 73.1309 304.444 Q76.2327 306.852 76.2327 310.972 Q76.2327 313.842 74.5892 315.833 Q72.9457 317.801 69.9133 318.564 Z" fill="#000000" fill-rule="evenodd" fill-opacity="1" /><path clip-path="url(#clip540)" d="M95.9086 305.717 Q92.2975 305.717 90.4688 309.282 Q88.6632 312.824 88.6632 319.953 Q88.6632 327.06 90.4688 330.625 Q92.2975 334.166 95.9086 334.166 Q99.5428 334.166 101.348 330.625 Q103.177 327.06 103.177 319.953 Q103.177 312.824 101.348 309.282 Q99.5428 305.717 95.9086 305.717 M95.9086 302.014 Q101.719 302.014 104.774 306.62 Q107.853 311.203 107.853 319.953 Q107.853 328.68 104.774 333.287 Q101.719 337.87 95.9086 337.87 Q90.0984 337.87 87.0197 333.287 Q83.9642 328.68 83.9642 319.953 Q83.9642 311.203 87.0197 306.62 Q90.0984 302.014 95.9086 302.014 Z" fill="#000000" fill-rule="evenodd" fill-opacity="1" /><path clip-path="url(#clip540)" d="M68.5939 77.5274 L56.7884 95.9764 L68.5939 95.9764 L68.5939 77.5274 M67.367 73.4534 L73.2466 73.4534 L73.2466 95.9764 L78.1772 95.9764 L78.1772 99.8653 L73.2466 99.8653 L73.2466 108.013 L68.5939 108.013 L68.5939 99.8653 L52.9921 99.8653 L52.9921 95.3514 L67.367 73.4534 Z" fill="#000000" fill-rule="evenodd" fill-opacity="1" /><path clip-path="url(#clip540)" d="M95.9086 76.5321 Q92.2975 76.5321 90.4688 80.0969 Q88.6632 83.6385 88.6632 90.7681 Q88.6632 97.8746 90.4688 101.439 Q92.2975 104.981 95.9086 104.981 Q99.5428 104.981 101.348 101.439 Q103.177 97.8746 103.177 90.7681 Q103.177 83.6385 101.348 80.0969 Q99.5428 76.5321 95.9086 76.5321 M95.9086 72.8284 Q101.719 72.8284 104.774 77.4349 Q107.853 82.0182 107.853 90.7681 Q107.853 99.4949 104.774 104.101 Q101.719 108.685 95.9086 108.685 Q90.0984 108.685 87.0197 104.101 Q83.9642 99.4949 83.9642 90.7681 Q83.9642 82.0182 87.0197 77.4349 Q90.0984 72.8284 95.9086 72.8284 Z" fill="#000000" fill-rule="evenodd" fill-opacity="1" /><polyline clip-path="url(#clip542)" style="stroke:#009af9; stroke-linecap:round; stroke-linejoin:round; stroke-width:4; stroke-opacity:1; fill:none" points="
  137.853,90.7334 139.67,94.5546 141.486,107.296 143.303,130.876 145.12,166.933 146.937,216.356 148.753,278.756 150.57,352.076 152.387,432.612 154.203,515.579 
  156.02,596.076 157.837,670.074 159.654,735.013 161.47,789.876 163.287,834.877 165.104,870.994 166.92,899.549 168.737,921.915 170.554,939.348 172.371,952.916 
  174.187,963.485 176.004,971.744 177.821,978.226 179.637,983.339 181.454,987.397 183.271,990.637 185.088,993.241 186.904,995.347 188.721,997.063 190.538,998.469 
  192.355,999.628 194.171,1000.59 195.988,1001.39 197.805,1002.07 199.621,1002.64 201.438,1003.12 203.255,1003.54 205.072,1003.89 206.888,1004.19 208.705,1004.46 
  210.522,1004.68 212.338,1004.88 214.155,1005.06 215.972,1005.21 217.789,1005.34 219.605,1005.46 221.422,1005.57 223.239,1005.66 225.055,1005.74 226.872,1005.81 
  228.689,1005.88 230.506,1005.94 232.322,1005.99 234.139,1006.03 235.956,1006.07 237.773,1006.11 239.589,1006.14 241.406,1006.17 243.223,1006.19 245.039,1006.21 
  246.856,1006.23 248.673,1006.25 250.49,1006.26 252.306,1006.27 254.123,1006.28 255.94,1006.29 257.756,1006.29 259.573,1006.3 261.39,1006.3 263.207,1006.3 
  265.023,1006.3 266.84,1006.29 268.657,1006.29 270.473,1006.28 272.29,1006.27 274.107,1006.27 275.924,1006.26 277.74,1006.25 279.557,1006.23 281.374,1006.22 
  283.191,1006.2 285.007,1006.19 286.824,1006.17 288.641,1006.15 290.457,1006.13 292.274,1006.11 294.091,1006.09 295.908,1006.07 297.724,1006.04 299.541,1006.02 
  301.358,1005.99 303.174,1005.96 304.991,1005.93 306.808,1005.9 308.625,1005.87 310.441,1005.84 312.258,1005.8 314.075,1005.76 315.891,1005.73 317.708,1005.69 
  319.525,1005.65 321.342,1005.6 323.158,1005.56 324.975,1005.52 326.792,1005.47 328.609,1005.42 330.425,1005.37 332.242,1005.32 334.059,1005.26 335.875,1005.21 
  337.692,1005.15 339.509,1005.09 341.326,1005.03 343.142,1004.96 344.959,1004.9 346.776,1004.83 348.592,1004.76 350.409,1004.68 352.226,1004.61 354.043,1004.53 
  355.859,1004.45 357.676,1004.37 359.493,1004.28 361.309,1004.19 363.126,1004.1 364.943,1004.01 366.76,1003.91 368.576,1003.81 370.393,1003.71 372.21,1003.6 
  374.027,1003.49 375.843,1003.38 377.66,1003.26 379.477,1003.14 381.293,1003.02 383.11,1002.89 384.927,1002.75 386.744,1002.62 388.56,1002.48 390.377,1002.33 
  392.194,1002.18 394.01,1002.03 395.827,1001.87 397.644,1001.7 399.461,1001.53 401.277,1001.36 403.094,1001.18 404.911,1000.99 406.727,1000.8 408.544,1000.6 
  410.361,1000.4 412.178,1000.19 413.994,999.973 415.811,999.75 417.628,999.52 419.444,999.284 421.261,999.039 423.078,998.788 424.895,998.528 426.711,998.261 
  428.528,997.985 430.345,997.701 432.162,997.408 433.978,997.106 435.795,996.795 437.612,996.474 439.428,996.144 441.245,995.803 443.062,995.452 444.879,995.09 
  446.695,994.717 448.512,994.333 450.329,993.937 452.145,993.529 453.962,993.108 455.779,992.674 457.596,992.228 459.412,991.767 461.229,991.293 463.046,990.803 
  464.862,990.299 466.679,989.78 468.496,989.245 470.313,988.693 472.129,988.124 473.946,987.538 475.763,986.935 477.58,986.312 479.396,985.671 481.213,985.01 
  483.03,984.329 484.846,983.627 486.663,982.904 488.48,982.159 490.297,981.391 492.113,980.599 493.93,979.784 495.747,978.943 497.563,978.077 499.38,977.184 
  501.197,976.265 503.014,975.317 504.83,974.34 506.647,973.333 508.464,972.296 510.28,971.227 512.097,970.126 513.914,968.991 515.731,967.821 517.547,966.615 
  519.364,965.373 521.181,964.093 522.998,962.774 524.814,961.415 526.631,960.014 528.448,958.571 530.264,957.084 532.081,955.551 533.898,953.971 535.715,952.344 
  537.531,950.667 539.348,948.938 541.165,947.157 542.981,945.322 544.798,943.431 546.615,941.482 548.432,939.474 550.248,937.404 552.065,935.272 553.882,933.075 
  555.698,930.81 557.515,928.477 559.332,926.072 561.149,923.595 562.965,921.041 564.782,918.41 566.599,915.699 568.416,912.906 570.232,910.027 572.049,907.06 
  573.866,904.003 575.682,900.853 577.499,897.607 579.316,894.263 581.133,890.816 582.949,887.264 584.766,883.605 586.583,879.833 588.399,875.947 590.216,871.943 
  592.033,867.816 593.85,863.565 595.666,859.183 597.483,854.669 599.3,850.017 601.116,845.224 602.933,840.285 604.75,835.196 606.567,829.951 608.383,824.547 
  610.2,818.978 612.017,813.239 613.833,807.326 615.65,801.233 617.467,794.955 619.284,788.486 621.1,781.821 622.917,774.953 624.734,767.877 626.551,760.586 
  628.367,753.073 630.184,745.333 632.001,737.358 633.817,729.141 635.634,720.674 637.451,711.951 639.268,702.964 641.084,693.704 642.901,684.164 644.718,674.336 
  646.534,664.21 648.351,653.779 650.168,643.033 651.985,631.963 653.801,620.561 655.618,608.816 657.435,596.72 659.251,584.263 661.068,571.434 662.885,558.226 
  664.702,544.631 666.518,530.634 668.335,516.224 670.152,501.391 671.969,486.126 673.785,470.425 675.602,454.281 677.419,437.689 679.235,420.644 681.052,403.142 
  682.869,385.184 684.686,366.771 686.502,347.912 688.319,328.625 690.136,308.936 691.952,288.888 693.769,268.539 695.586,247.945 697.403,227.161 699.219,206.412 
  701.036,185.911 702.853,165.904 704.669,146.725 706.486,128.851 708.303,112.938 710.12,99.8549 711.936,90.7023 713.753,86.8277 715.57,89.8272 717.387,101.54 
  719.203,124.034 721.02,159.237 722.837,207.809 724.653,269.495 726.47,342.561 728.287,423.504 730.104,507.375 731.92,588.707 733.737,663.045 735.554,728.882 
  737.37,785.076 739.187,831.266 741.004,868.394 742.821,897.776 744.637,920.793 746.454,938.701 748.271,952.556 750.087,963.266 751.904,971.635 753.721,978.191 
  755.538,983.354 757.354,987.449 759.171,990.719 760.988,993.339 762.805,995.446 764.621,997.156 766.438,998.561 768.255,999.719 770.071,1000.68 771.888,1001.48 
  773.705,1002.15 775.522,1002.72 777.338,1003.2 779.155,1003.61 780.972,1003.96 782.788,1004.26 784.605,1004.52 786.422,1004.74 788.239,1004.94 790.055,1005.11 
  791.872,1005.26 793.689,1005.4 795.505,1005.51 797.322,1005.62 799.139,1005.71 800.956,1005.79 802.772,1005.86 804.589,1005.92 806.406,1005.98 808.223,1006.03 
  810.039,1006.07 811.856,1006.11 813.673,1006.15 815.489,1006.18 817.306,1006.21 819.123,1006.23 820.94,1006.25 822.756,1006.27 824.573,1006.29 826.39,1006.3 
  828.206,1006.31 830.023,1006.32 831.84,1006.33 833.657,1006.33 835.473,1006.33 837.29,1006.34 839.107,1006.34 840.923,1006.34 842.74,1006.33 844.557,1006.33 
  846.374,1006.32 848.19,1006.32 850.007,1006.31 851.824,1006.3 853.64,1006.29 855.457,1006.28 857.274,1006.26 859.091,1006.25 860.907,1006.23 862.724,1006.22 
  864.541,1006.2 866.358,1006.18 868.174,1006.16 869.991,1006.14 871.808,1006.12 873.624,1006.09 875.441,1006.07 877.258,1006.04 879.075,1006.02 880.891,1005.99 
  882.708,1005.96 884.525,1005.93 886.341,1005.9 888.158,1005.86 889.975,1005.83 891.792,1005.79 893.608,1005.75 895.425,1005.71 897.242,1005.67 899.058,1005.63 
  900.875,1005.59 902.692,1005.54 904.509,1005.49 906.325,1005.45 908.142,1005.4 909.959,1005.34 911.776,1005.29 913.592,1005.23 915.409,1005.18 917.226,1005.12 
  919.042,1005.06 920.859,1004.99 922.676,1004.93 924.493,1004.86 926.309,1004.79 928.126,1004.72 929.943,1004.64 931.759,1004.56 933.576,1004.48 935.393,1004.4 
  937.21,1004.32 939.026,1004.23 940.843,1004.14 942.66,1004.04 944.476,1003.95 946.293,1003.85 948.11,1003.75 949.927,1003.64 951.743,1003.53 953.56,1003.42 
  955.377,1003.3 957.194,1003.18 959.01,1003.06 960.827,1002.93 962.644,1002.8 964.46,1002.66 966.277,1002.52 968.094,1002.38 969.911,1002.23 971.727,1002.08 
  973.544,1001.92 975.361,1001.75 977.177,1001.59 978.994,1001.41 980.811,1001.23 982.628,1001.05 984.444,1000.86 986.261,1000.66 988.078,1000.46 989.894,1000.25 
  991.711,1000.04 993.528,999.817 995.345,999.589 997.161,999.354 998.978,999.112 1000.79,998.862 1002.61,998.605 1004.43,998.339 1006.24,998.066 1008.06,997.784 
  1009.88,997.493 1011.7,997.194 1013.51,996.885 1015.33,996.567 1017.15,996.239 1018.96,995.901 1020.78,995.553 1022.6,995.194 1024.41,994.824 1026.23,994.443 
  1028.05,994.05 1029.86,993.645 1031.68,993.227 1033.5,992.797 1035.31,992.354 1037.13,991.897 1038.95,991.426 1040.76,990.941 1042.58,990.441 1044.4,989.926 
  1046.21,989.394 1048.03,988.847 1049.85,988.283 1051.66,987.702 1053.48,987.103 1055.3,986.485 1057.11,985.849 1058.93,985.194 1060.75,984.518 1062.56,983.822 
  1064.38,983.104 1066.2,982.365 1068.01,981.603 1069.83,980.818 1071.65,980.009 1073.46,979.175 1075.28,978.316 1077.1,977.43 1078.91,976.518 1080.73,975.577 
  1082.55,974.608 1084.36,973.61 1086.18,972.581 1088,971.52 1089.81,970.428 1091.63,969.301 1093.45,968.141 1095.26,966.945 1097.08,965.713 1098.9,964.443 
  1100.71,963.135 1102.53,961.786 1104.35,960.397 1106.16,958.965 1107.98,957.489 1109.8,955.969 1111.61,954.402 1113.43,952.787 1115.25,951.123 1117.06,949.409 
  1118.88,947.642 1120.7,945.821 1122.52,943.945 1124.33,942.012 1126.15,940.02 1127.97,937.967 1129.78,935.851 1131.6,933.671 1133.42,931.425 1135.23,929.11 
  1137.05,926.725 1138.87,924.267 1140.68,921.734 1142.5,919.124 1144.32,916.434 1146.13,913.662 1147.95,910.806 1149.77,907.863 1151.58,904.831 1153.4,901.706 
  1155.22,898.486 1157.03,895.167 1158.85,891.748 1160.67,888.225 1162.48,884.594 1164.3,880.853 1166.12,876.998 1167.93,873.025 1169.75,868.932 1171.57,864.714 
  1173.38,860.367 1175.2,855.888 1177.02,851.273 1178.83,846.517 1180.65,841.617 1182.47,836.567 1184.28,831.364 1186.1,826.002 1187.92,820.478 1189.73,814.785 
  1191.55,808.919 1193.37,802.875 1195.18,796.647 1197,790.23 1198.82,783.617 1200.63,776.803 1202.45,769.783 1204.27,762.549 1206.08,755.095 1207.9,747.415 
  1209.72,739.502 1211.53,731.348 1213.35,722.947 1215.17,714.292 1216.98,705.374 1218.8,696.186 1220.62,686.72 1222.43,676.967 1224.25,666.92 1226.07,656.571 
  1227.88,645.91 1229.7,634.927 1231.52,623.613 1233.33,611.957 1235.15,599.951 1236.97,587.586 1238.79,574.852 1240.6,561.739 1242.42,548.239 1244.24,534.34 
  1246.05,520.033 1247.87,505.307 1249.69,490.154 1251.5,474.563 1253.32,458.527 1255.14,442.039 1256.95,425.093 1258.77,407.688 1260.59,389.822 1262.4,371.499 
  1264.22,352.735 1266.04,333.539 1267.85,313.909 1269.67,293.878 1271.49,273.503 1273.3,252.862 1275.12,232.053 1276.94,211.201 1278.75,190.473 1280.57,170.096 
  1282.39,150.384 1284.2,131.769 1286.02,114.84 1287.84,100.388 1289.65,89.5836 1291.47,83.4843 1293.29,83.2693 1295.1,90.9143 1296.92,108.666 1298.74,138.547 
  1300.55,181.914 1302.37,239.073 1304.19,308.947 1306,388.797 1307.82,474.005 1309.64,558.173 1311.45,636.832 1313.27,706.892 1315.09,766.871 1316.9,816.692 
  1318.72,857.116 1320.54,889.314 1322.35,914.567 1324.17,934.1 1325.99,949.073 1327.8,960.669 1329.62,969.686 1331.44,976.732 1333.25,982.278 1335.07,986.664 
  1336.89,990.134 1338.7,992.878 1340.52,995.09 1342.34,996.894 1344.15,998.366 1345.97,999.574 1347.79,1000.57 1349.6,1001.41 1351.42,1002.1 1353.24,1002.68 
  1355.06,1003.18 1356.87,1003.6 1358.69,1003.96 1360.51,1004.27 1362.32,1004.53 1364.14,1004.76 1365.96,1004.96 1367.77,1005.14 1369.59,1005.29 1371.41,1005.43 
  1373.22,1005.55 1375.04,1005.65 1376.86,1005.74 1378.67,1005.82 1380.49,1005.9 1382.31,1005.96 1384.12,1006.02 1385.94,1006.07 1387.76,1006.11 1389.57,1006.15 
  1391.39,1006.19 1393.21,1006.22 1395.02,1006.25 1396.84,1006.27 1398.66,1006.29 1400.47,1006.31 1402.29,1006.33 1404.11,1006.34 1405.92,1006.35 1407.74,1006.36 
  1409.56,1006.37 1411.37,1006.38 1413.19,1006.38 1415.01,1006.38 1416.82,1006.38 1418.64,1006.38 1420.46,1006.38 1422.27,1006.38 1424.09,1006.37 1425.91,1006.36 
  1427.72,1006.36 1429.54,1006.35 1431.36,1006.34 1433.17,1006.33 1434.99,1006.32 1436.81,1006.3 1438.62,1006.29 1440.44,1006.27 1442.26,1006.26 1444.07,1006.24 
  1445.89,1006.22 1447.71,1006.2 1449.52,1006.18 1451.34,1006.16 1453.16,1006.14 1454.97,1006.11 1456.79,1006.09 1458.61,1006.06 1460.42,1006.03 1462.24,1006 
  1464.06,1005.97 1465.88,1005.94 1467.69,1005.91 1469.51,1005.87 1471.33,1005.84 1473.14,1005.8 1474.96,1005.76 1476.78,1005.72 1478.59,1005.68 1480.41,1005.64 
  1482.23,1005.59 1484.04,1005.55 1485.86,1005.5 1487.68,1005.45 1489.49,1005.4 1491.31,1005.35 1493.13,1005.29 1494.94,1005.24 1496.76,1005.18 1498.58,1005.12 
  1500.39,1005.05 1502.21,1004.99 1504.03,1004.92 1505.84,1004.85 1507.66,1004.78 1509.48,1004.71 1511.29,1004.64 1513.11,1004.56 1514.93,1004.48 1516.74,1004.39 
  1518.56,1004.31 1520.38,1004.22 1522.19,1004.13 1524.01,1004.03 1525.83,1003.94 1527.64,1003.84 1529.46,1003.73 1531.28,1003.62 1533.09,1003.51 1534.91,1003.4 
  1536.73,1003.28 1538.54,1003.16 1540.36,1003.04 1542.18,1002.91 1543.99,1002.78 1545.81,1002.64 1547.63,1002.5 1549.44,1002.35 1551.26,1002.2 1553.08,1002.05 
  1554.89,1001.89 1556.71,1001.72 1558.53,1001.55 1560.34,1001.38 1562.16,1001.2 1563.98,1001.01 1565.79,1000.82 1567.61,1000.62 1569.43,1000.42 1571.24,1000.21 
  1573.06,999.995 1574.88,999.772 1576.69,999.542 1578.51,999.305 1580.33,999.061 1582.15,998.81 1583.96,998.55 1585.78,998.283 1587.6,998.007 1589.41,997.723 
  1591.23,997.431 1593.05,997.129 1594.86,996.818 1596.68,996.498 1598.5,996.167 1600.31,995.827 1602.13,995.476 1603.95,995.115 1605.76,994.742 1607.58,994.358 
  1609.4,993.962 1611.21,993.554 1613.03,993.134 1614.85,992.7 1616.66,992.254 1618.48,991.794 1620.3,991.319 1622.11,990.831 1623.93,990.327 1625.75,989.808 
  1627.56,989.273 1629.38,988.722 1631.2,988.154 1633.01,987.568 1634.83,986.965 1636.65,986.343 1638.46,985.703 1640.28,985.042 1642.1,984.362 1643.91,983.661 
  1645.73,982.938 1647.55,982.193 1649.36,981.426 1651.18,980.635 1653,979.82 1654.81,978.981 1656.63,978.115 1658.45,977.223 1660.26,976.304 1662.08,975.357 
  1663.9,974.381 1665.71,973.376 1667.53,972.339 1669.35,971.271 1671.16,970.171 1672.98,969.037 1674.8,967.868 1676.61,966.664 1678.43,965.423 1680.25,964.144 
  1682.06,962.826 1683.88,961.468 1685.7,960.068 1687.51,958.626 1689.33,957.14 1691.15,955.609 1692.96,954.031 1694.78,952.405 1696.6,950.729 1698.42,949.002 
  1700.23,947.223 1702.05,945.389 1703.87,943.5 1705.68,941.553 1707.5,939.546 1709.32,937.479 1711.13,935.348 1712.95,933.152 1714.77,930.89 1716.58,928.559 
  1718.4,926.156 1720.22,923.681 1722.03,921.13 1723.85,918.501 1725.67,915.792 1727.48,913.001 1729.3,910.125 1731.12,907.161 1732.93,904.106 1734.75,900.959 
  1736.57,897.716 1738.38,894.374 1740.2,890.93 1742.02,887.382 1743.83,883.725 1745.65,879.957 1747.47,876.074 1749.28,872.073 1751.1,867.951 1752.92,863.702 
  1754.73,859.325 1756.55,854.814 1758.37,850.165 1760.18,845.376 1762,840.44 1763.82,835.354 1765.63,830.113 1767.45,824.713 1769.27,819.149 1771.08,813.415 
  1772.9,807.507 1774.72,801.419 1776.53,795.146 1778.35,788.682 1780.17,782.022 1781.98,775.159 1783.8,768.087 1785.62,760.801 1787.43,753.293 1789.25,745.558 
  1791.07,737.589 1792.88,729.379 1794.7,720.919 1796.52,712.203 1798.33,703.22 1800.15,693.965 1801.97,684.429 1803.78,674.603 1805.6,664.481 1807.42,654.053 
  1809.24,643.311 1811.05,632.246 1812.87,620.848 1814.69,609.108 1816.5,597.017 1818.32,584.563 1820.14,571.737 1821.95,558.529 1823.77,544.928 1825.59,530.923 
  1827.4,516.505 1829.22,501.664 1831.04,486.39 1832.85,470.676 1834.67,454.514 1836.49,437.897 1838.3,420.82 1840.12,403.284 1841.94,385.297 1843.75,366.833 
  1845.57,347.894 1847.39,328.5 1849.2,308.681 1851.02,288.478 1852.84,267.941 1854.65,247.132 1856.47,226.135 1858.29,205.07 1860.1,184.106 1861.92,163.482 
  1863.74,143.535 1865.55,124.723 1867.37,107.792 1869.19,93.6686 1871,82.6013 1872.82,75.7982 1874.64,75.2104 1876.45,83.1358 1878.27,101.838 1880.09,133.182 
  1881.9,178.292 1883.72,237.219 1885.54,308.63 1887.35,389.516 1889.17,475.066 1890.99,559.716 1892.8,638.484 1894.62,708.513 1896.44,768.607 1898.25,818.689 
  1900.07,859.367 1901.89,891.629 1903.7,916.646 1905.52,935.73 1907.34,950.439 1909.15,961.826 1910.97,970.674 1912.79,977.591 1914.6,983.021 1916.42,987.282 
  1918.24,990.627 1920.05,993.31 1921.87,995.477 1923.69,997.231 1925.51,998.662 1927.32,999.837 1929.14,1000.81 1930.96,1001.61 1932.77,1002.29 1934.59,1002.85 
  1936.41,1003.33 1938.22,1003.74 1940.04,1004.09 1941.86,1004.39 1943.67,1004.64 1945.49,1004.87 1947.31,1005.06 1949.12,1005.23 1950.94,1005.38 1952.76,1005.51 
  
  "/>
<polyline clip-path="url(#clip542)" style="stroke:#e26f46; stroke-linecap:round; stroke-linejoin:round; stroke-width:4; stroke-opacity:1; fill:none" points="
  137.853,961.637 139.67,948.332 141.486,931.368 143.303,910.114 145.12,884.131 146.937,853.384 148.753,818.472 150.57,780.765 152.387,742.334 154.203,705.623 
  156.02,672.951 157.837,646.039 159.654,625.767 161.47,612.193 163.287,604.769 165.104,602.607 166.92,604.707 168.737,610.11 170.554,617.975 172.371,627.608 
  174.187,638.457 176.004,650.094 177.821,662.194 179.637,674.514 181.454,686.874 183.271,699.143 185.088,711.224 186.904,723.05 188.721,734.575 190.538,745.766 
  192.355,756.603 194.171,767.075 195.988,777.176 197.805,786.906 199.621,796.267 201.438,805.266 203.255,813.91 205.072,822.208 206.888,830.169 208.705,837.804 
  210.522,845.123 212.338,852.137 214.155,858.857 215.972,865.294 217.789,871.459 219.605,877.362 221.422,883.013 223.239,888.422 225.055,893.6 226.872,898.555 
  228.689,903.297 230.506,907.834 232.322,912.176 234.139,916.33 235.956,920.304 237.773,924.105 239.589,927.742 241.406,931.221 243.223,934.549 245.039,937.732 
  246.856,940.776 248.673,943.688 250.49,946.474 252.306,949.137 254.123,951.685 255.94,954.121 257.756,956.452 259.573,958.68 261.39,960.811 263.207,962.849 
  265.023,964.798 266.84,966.662 268.657,968.445 270.473,970.149 272.29,971.779 274.107,973.338 275.924,974.829 277.74,976.254 279.557,977.617 281.374,978.921 
  283.191,980.167 285.007,981.359 286.824,982.498 288.641,983.588 290.457,984.63 292.274,985.627 294.091,986.58 295.908,987.491 297.724,988.362 299.541,989.195 
  301.358,989.992 303.174,990.754 304.991,991.482 306.808,992.179 308.625,992.845 310.441,993.482 312.258,994.091 314.075,994.673 315.891,995.23 317.708,995.763 
  319.525,996.272 321.342,996.759 323.158,997.225 324.975,997.67 326.792,998.096 328.609,998.503 330.425,998.892 332.242,999.264 334.059,999.62 335.875,999.961 
  337.692,1000.29 339.509,1000.6 341.326,1000.9 343.142,1001.18 344.959,1001.45 346.776,1001.71 348.592,1001.96 350.409,1002.2 352.226,1002.43 354.043,1002.64 
  355.859,1002.85 357.676,1003.05 359.493,1003.24 361.309,1003.42 363.126,1003.6 364.943,1003.77 366.76,1003.92 368.576,1004.08 370.393,1004.22 372.21,1004.36 
  374.027,1004.5 375.843,1004.62 377.66,1004.74 379.477,1004.86 381.293,1004.97 383.11,1005.08 384.927,1005.18 386.744,1005.28 388.56,1005.37 390.377,1005.46 
  392.194,1005.55 394.01,1005.63 395.827,1005.71 397.644,1005.78 399.461,1005.85 401.277,1005.92 403.094,1005.99 404.911,1006.05 406.727,1006.11 408.544,1006.17 
  410.361,1006.22 412.178,1006.27 413.994,1006.32 415.811,1006.37 417.628,1006.42 419.444,1006.46 421.261,1006.5 423.078,1006.54 424.895,1006.58 426.711,1006.62 
  428.528,1006.65 430.345,1006.69 432.162,1006.72 433.978,1006.75 435.795,1006.78 437.612,1006.81 439.428,1006.84 441.245,1006.86 443.062,1006.89 444.879,1006.91 
  446.695,1006.93 448.512,1006.95 450.329,1006.97 452.145,1006.99 453.962,1007.01 455.779,1007.03 457.596,1007.05 459.412,1007.07 461.229,1007.08 463.046,1007.1 
  464.862,1007.11 466.679,1007.13 468.496,1007.14 470.313,1007.15 472.129,1007.16 473.946,1007.18 475.763,1007.19 477.58,1007.2 479.396,1007.21 481.213,1007.22 
  483.03,1007.23 484.846,1007.24 486.663,1007.25 488.48,1007.25 490.297,1007.26 492.113,1007.27 493.93,1007.28 495.747,1007.28 497.563,1007.29 499.38,1007.3 
  501.197,1007.3 503.014,1007.31 504.83,1007.31 506.647,1007.32 508.464,1007.32 510.28,1007.33 512.097,1007.33 513.914,1007.34 515.731,1007.34 517.547,1007.35 
  519.364,1007.35 521.181,1007.35 522.998,1007.36 524.814,1007.36 526.631,1007.37 528.448,1007.37 530.264,1007.37 532.081,1007.37 533.898,1007.38 535.715,1007.38 
  537.531,1007.38 539.348,1007.38 541.165,1007.39 542.981,1007.39 544.798,1007.39 546.615,1007.39 548.432,1007.39 550.248,1007.4 552.065,1007.4 553.882,1007.4 
  555.698,1007.4 557.515,1007.4 559.332,1007.4 561.149,1007.41 562.965,1007.41 564.782,1007.41 566.599,1007.41 568.416,1007.41 570.232,1007.41 572.049,1007.41 
  573.866,1007.41 575.682,1007.41 577.499,1007.41 579.316,1007.41 581.133,1007.41 582.949,1007.41 584.766,1007.41 586.583,1007.42 588.399,1007.42 590.216,1007.42 
  592.033,1007.42 593.85,1007.42 595.666,1007.41 597.483,1007.41 599.3,1007.41 601.116,1007.41 602.933,1007.41 604.75,1007.41 606.567,1007.41 608.383,1007.41 
  610.2,1007.41 612.017,1007.41 613.833,1007.41 615.65,1007.41 617.467,1007.41 619.284,1007.4 621.1,1007.4 622.917,1007.4 624.734,1007.4 626.551,1007.39 
  628.367,1007.39 630.184,1007.39 632.001,1007.38 633.817,1007.38 635.634,1007.38 637.451,1007.37 639.268,1007.36 641.084,1007.36 642.901,1007.35 644.718,1007.34 
  646.534,1007.33 648.351,1007.32 650.168,1007.31 651.985,1007.3 653.801,1007.29 655.618,1007.27 657.435,1007.25 659.251,1007.23 661.068,1007.2 662.885,1007.17 
  664.702,1007.14 666.518,1007.1 668.335,1007.06 670.152,1007.01 671.969,1006.95 673.785,1006.88 675.602,1006.79 677.419,1006.69 679.235,1006.57 681.052,1006.42 
  682.869,1006.24 684.686,1006.03 686.502,1005.77 688.319,1005.44 690.136,1005.05 691.952,1004.55 693.769,1003.93 695.586,1003.15 697.403,1002.18 699.219,1000.94 
  701.036,999.331 702.853,997.254 704.669,994.573 706.486,991.098 708.303,986.566 710.12,980.637 711.936,972.886 713.753,962.803 715.57,949.797 717.387,933.207 
  719.203,912.315 721.02,886.561 722.837,855.995 724.653,821.167 726.47,783.322 728.287,744.449 730.104,707.069 731.92,673.771 733.737,646.493 735.554,625.64 
  737.37,611.326 739.187,603.273 741.004,600.606 742.821,602.321 744.637,607.451 746.454,615.157 748.271,624.756 750.087,635.663 751.904,647.367 753.721,659.548 
  755.538,671.958 757.354,684.41 759.171,696.771 760.988,708.948 762.805,720.876 764.621,732.501 766.438,743.785 768.255,754.712 770.071,765.269 771.888,775.453 
  773.705,785.261 775.522,794.698 777.338,803.769 779.155,812.482 780.972,820.845 782.788,828.869 784.605,836.563 786.422,843.939 788.239,851.007 790.055,857.779 
  791.872,864.265 793.689,870.477 795.505,876.424 797.322,882.118 799.139,887.568 800.956,892.785 802.772,897.777 804.589,902.554 806.406,907.125 808.223,911.499 
  810.039,915.684 811.856,919.687 813.673,923.517 815.489,927.18 817.306,930.685 819.123,934.037 820.94,937.243 822.756,940.31 824.573,943.243 826.39,946.048 
  828.206,948.731 830.023,951.298 831.84,953.752 833.657,956.099 835.473,958.343 837.29,960.49 839.107,962.543 840.923,964.506 842.74,966.383 844.557,968.178 
  846.374,969.895 848.19,971.536 850.007,973.106 851.824,974.607 853.64,976.043 855.457,977.415 857.274,978.728 859.091,979.983 860.907,981.184 862.724,982.331 
  864.541,983.429 866.358,984.478 868.174,985.482 869.991,986.441 871.808,987.359 873.624,988.236 875.441,989.075 877.258,989.877 879.075,990.645 880.891,991.378 
  882.708,992.079 884.525,992.75 886.341,993.391 888.158,994.005 889.975,994.591 891.792,995.152 893.608,995.688 895.425,996.201 897.242,996.691 899.058,997.16 
  900.875,997.608 902.692,998.037 904.509,998.447 906.325,998.839 908.142,999.214 909.959,999.572 911.776,999.915 913.592,1000.24 915.409,1000.56 917.226,1000.86 
  919.042,1001.14 920.859,1001.42 922.676,1001.68 924.493,1001.93 926.309,1002.17 928.126,1002.4 929.943,1002.62 931.759,1002.83 933.576,1003.03 935.393,1003.22 
  937.21,1003.4 939.026,1003.58 940.843,1003.74 942.66,1003.91 944.476,1004.06 946.293,1004.21 948.11,1004.35 949.927,1004.48 951.743,1004.61 953.56,1004.73 
  955.377,1004.85 957.194,1004.96 959.01,1005.07 960.827,1005.17 962.644,1005.27 964.46,1005.36 966.277,1005.45 968.094,1005.54 969.911,1005.62 971.727,1005.7 
  973.544,1005.77 975.361,1005.85 977.177,1005.91 978.994,1005.98 980.811,1006.04 982.628,1006.1 984.444,1006.16 986.261,1006.22 988.078,1006.27 989.894,1006.32 
  991.711,1006.37 993.528,1006.41 995.345,1006.46 997.161,1006.5 998.978,1006.54 1000.79,1006.58 1002.61,1006.62 1004.43,1006.65 1006.24,1006.69 1008.06,1006.72 
  1009.88,1006.75 1011.7,1006.78 1013.51,1006.81 1015.33,1006.83 1017.15,1006.86 1018.96,1006.88 1020.78,1006.91 1022.6,1006.93 1024.41,1006.95 1026.23,1006.97 
  1028.05,1006.99 1029.86,1007.01 1031.68,1007.03 1033.5,1007.05 1035.31,1007.07 1037.13,1007.08 1038.95,1007.1 1040.76,1007.11 1042.58,1007.13 1044.4,1007.14 
  1046.21,1007.15 1048.03,1007.16 1049.85,1007.18 1051.66,1007.19 1053.48,1007.2 1055.3,1007.21 1057.11,1007.22 1058.93,1007.23 1060.75,1007.24 1062.56,1007.25 
  1064.38,1007.25 1066.2,1007.26 1068.01,1007.27 1069.83,1007.28 1071.65,1007.28 1073.46,1007.29 1075.28,1007.3 1077.1,1007.3 1078.91,1007.31 1080.73,1007.31 
  1082.55,1007.32 1084.36,1007.33 1086.18,1007.33 1088,1007.34 1089.81,1007.34 1091.63,1007.34 1093.45,1007.35 1095.26,1007.35 1097.08,1007.36 1098.9,1007.36 
  1100.71,1007.36 1102.53,1007.37 1104.35,1007.37 1106.16,1007.37 1107.98,1007.38 1109.8,1007.38 1111.61,1007.38 1113.43,1007.38 1115.25,1007.39 1117.06,1007.39 
  1118.88,1007.39 1120.7,1007.39 1122.52,1007.39 1124.33,1007.4 1126.15,1007.4 1127.97,1007.4 1129.78,1007.4 1131.6,1007.4 1133.42,1007.4 1135.23,1007.41 
  1137.05,1007.41 1138.87,1007.41 1140.68,1007.41 1142.5,1007.41 1144.32,1007.41 1146.13,1007.41 1147.95,1007.41 1149.77,1007.41 1151.58,1007.41 1153.4,1007.42 
  1155.22,1007.42 1157.03,1007.42 1158.85,1007.42 1160.67,1007.42 1162.48,1007.42 1164.3,1007.42 1166.12,1007.42 1167.93,1007.42 1169.75,1007.42 1171.57,1007.42 
  1173.38,1007.42 1175.2,1007.42 1177.02,1007.42 1178.83,1007.42 1180.65,1007.42 1182.47,1007.42 1184.28,1007.42 1186.1,1007.41 1187.92,1007.41 1189.73,1007.41 
  1191.55,1007.41 1193.37,1007.41 1195.18,1007.41 1197,1007.41 1198.82,1007.41 1200.63,1007.4 1202.45,1007.4 1204.27,1007.4 1206.08,1007.4 1207.9,1007.39 
  1209.72,1007.39 1211.53,1007.38 1213.35,1007.38 1215.17,1007.38 1216.98,1007.37 1218.8,1007.36 1220.62,1007.36 1222.43,1007.35 1224.25,1007.34 1226.07,1007.33 
  1227.88,1007.32 1229.7,1007.31 1231.52,1007.3 1233.33,1007.28 1235.15,1007.26 1236.97,1007.25 1238.79,1007.22 1240.6,1007.2 1242.42,1007.17 1244.24,1007.13 
  1246.05,1007.09 1247.87,1007.04 1249.69,1006.99 1251.5,1006.92 1253.32,1006.84 1255.14,1006.75 1256.95,1006.64 1258.77,1006.51 1260.59,1006.35 1262.4,1006.15 
  1264.22,1005.91 1266.04,1005.61 1267.85,1005.25 1269.67,1004.81 1271.49,1004.26 1273.3,1003.56 1275.12,1002.67 1276.94,1001.54 1278.75,1000.09 1280.57,998.225 
  1282.39,995.821 1284.2,992.702 1286.02,988.633 1287.84,983.302 1289.65,976.244 1291.47,967.071 1293.29,955.364 1295.1,940.369 1296.92,921.273 1298.74,897.433 
  1300.55,868.583 1302.37,834.995 1304.19,797.601 1306,758.086 1307.82,718.931 1309.64,683.286 1311.45,653.096 1313.27,629.522 1315.09,612.863 1316.9,602.699 
  1318.72,598.231 1320.54,598.515 1322.35,602.622 1324.17,609.701 1325.99,618.949 1327.8,629.626 1329.62,641.241 1331.44,653.423 1333.25,665.891 1335.07,678.45 
  1336.89,690.963 1338.7,703.331 1340.52,715.45 1342.34,727.263 1344.15,738.742 1345.97,749.863 1347.79,760.613 1349.6,770.985 1351.42,780.978 1353.24,790.594 
  1355.06,799.838 1356.87,808.718 1358.69,817.243 1360.51,825.422 1362.32,833.265 1364.14,840.784 1365.96,847.99 1367.77,854.894 1369.59,861.506 1371.41,867.839 
  1373.22,873.902 1375.04,879.707 1376.86,885.264 1378.67,890.582 1380.49,895.671 1382.31,900.541 1384.12,905.202 1385.94,909.66 1387.76,913.926 1389.57,918.007 
  1391.39,921.912 1393.21,925.646 1395.02,929.219 1396.84,932.636 1398.66,935.904 1400.47,939.03 1402.29,942.02 1404.11,944.88 1405.92,947.615 1407.74,950.23 
  1409.56,952.732 1411.37,955.124 1413.19,957.412 1415.01,959.6 1416.82,961.692 1418.64,963.693 1420.46,965.607 1422.27,967.436 1424.09,969.186 1425.91,970.859 
  1427.72,972.459 1429.54,973.989 1431.36,975.452 1433.17,976.851 1434.99,978.189 1436.81,979.468 1438.62,980.691 1440.44,981.861 1442.26,982.979 1444.07,984.049 
  1445.89,985.072 1447.71,986.05 1449.52,986.985 1451.34,987.879 1453.16,988.734 1454.97,989.551 1456.79,990.333 1458.61,991.08 1460.42,991.795 1462.24,992.479 
  1464.06,993.132 1465.88,993.757 1467.69,994.355 1469.51,994.926 1471.33,995.472 1473.14,995.995 1474.96,996.494 1476.78,996.972 1478.59,997.429 1480.41,997.866 
  1482.23,998.283 1484.04,998.683 1485.86,999.064 1487.68,999.43 1489.49,999.779 1491.31,1000.11 1493.13,1000.43 1494.94,1000.74 1496.76,1001.03 1498.58,1001.31 
  1500.39,1001.58 1502.21,1001.83 1504.03,1002.07 1505.84,1002.31 1507.66,1002.53 1509.48,1002.74 1511.29,1002.95 1513.11,1003.14 1514.93,1003.33 1516.74,1003.51 
  1518.56,1003.68 1520.38,1003.84 1522.19,1004 1524.01,1004.15 1525.83,1004.29 1527.64,1004.43 1529.46,1004.56 1531.28,1004.68 1533.09,1004.8 1534.91,1004.92 
  1536.73,1005.03 1538.54,1005.13 1540.36,1005.23 1542.18,1005.33 1543.99,1005.42 1545.81,1005.51 1547.63,1005.59 1549.44,1005.67 1551.26,1005.75 1553.08,1005.82 
  1554.89,1005.89 1556.71,1005.96 1558.53,1006.02 1560.34,1006.08 1562.16,1006.14 1563.98,1006.2 1565.79,1006.25 1567.61,1006.3 1569.43,1006.35 1571.24,1006.4 
  1573.06,1006.44 1574.88,1006.49 1576.69,1006.53 1578.51,1006.57 1580.33,1006.6 1582.15,1006.64 1583.96,1006.67 1585.78,1006.71 1587.6,1006.74 1589.41,1006.77 
  1591.23,1006.8 1593.05,1006.83 1594.86,1006.85 1596.68,1006.88 1598.5,1006.9 1600.31,1006.92 1602.13,1006.95 1603.95,1006.97 1605.76,1006.99 1607.58,1007.01 
  1609.4,1007.03 1611.21,1007.04 1613.03,1007.06 1614.85,1007.08 1616.66,1007.09 1618.48,1007.11 1620.3,1007.12 1622.11,1007.14 1623.93,1007.15 1625.75,1007.16 
  1627.56,1007.17 1629.38,1007.19 1631.2,1007.2 1633.01,1007.21 1634.83,1007.22 1636.65,1007.23 1638.46,1007.24 1640.28,1007.24 1642.1,1007.25 1643.91,1007.26 
  1645.73,1007.27 1647.55,1007.28 1649.36,1007.28 1651.18,1007.29 1653,1007.3 1654.81,1007.3 1656.63,1007.31 1658.45,1007.31 1660.26,1007.32 1662.08,1007.33 
  1663.9,1007.33 1665.71,1007.34 1667.53,1007.34 1669.35,1007.34 1671.16,1007.35 1672.98,1007.35 1674.8,1007.36 1676.61,1007.36 1678.43,1007.36 1680.25,1007.37 
  1682.06,1007.37 1683.88,1007.37 1685.7,1007.38 1687.51,1007.38 1689.33,1007.38 1691.15,1007.38 1692.96,1007.39 1694.78,1007.39 1696.6,1007.39 1698.42,1007.39 
  1700.23,1007.4 1702.05,1007.4 1703.87,1007.4 1705.68,1007.4 1707.5,1007.4 1709.32,1007.4 1711.13,1007.41 1712.95,1007.41 1714.77,1007.41 1716.58,1007.41 
  1718.4,1007.41 1720.22,1007.41 1722.03,1007.41 1723.85,1007.41 1725.67,1007.42 1727.48,1007.42 1729.3,1007.42 1731.12,1007.42 1732.93,1007.42 1734.75,1007.42 
  1736.57,1007.42 1738.38,1007.42 1740.2,1007.42 1742.02,1007.42 1743.83,1007.42 1745.65,1007.42 1747.47,1007.42 1749.28,1007.42 1751.1,1007.42 1752.92,1007.42 
  1754.73,1007.42 1756.55,1007.42 1758.37,1007.42 1760.18,1007.42 1762,1007.42 1763.82,1007.42 1765.63,1007.42 1767.45,1007.42 1769.27,1007.42 1771.08,1007.42 
  1772.9,1007.41 1774.72,1007.41 1776.53,1007.41 1778.35,1007.41 1780.17,1007.41 1781.98,1007.41 1783.8,1007.4 1785.62,1007.4 1787.43,1007.4 1789.25,1007.4 
  1791.07,1007.39 1792.88,1007.39 1794.7,1007.38 1796.52,1007.38 1798.33,1007.37 1800.15,1007.37 1801.97,1007.36 1803.78,1007.36 1805.6,1007.35 1807.42,1007.34 
  1809.24,1007.33 1811.05,1007.32 1812.87,1007.31 1814.69,1007.29 1816.5,1007.28 1818.32,1007.26 1820.14,1007.23 1821.95,1007.21 1823.77,1007.18 1825.59,1007.14 
  1827.4,1007.11 1829.22,1007.06 1831.04,1007.01 1832.85,1006.94 1834.67,1006.87 1836.49,1006.78 1838.3,1006.67 1840.12,1006.54 1841.94,1006.37 1843.75,1006.18 
  1845.57,1005.95 1847.39,1005.67 1849.2,1005.32 1851.02,1004.88 1852.84,1004.33 1854.65,1003.63 1856.47,1002.75 1858.29,1001.62 1860.1,1000.19 1861.92,998.342 
  1863.74,995.947 1865.55,992.818 1867.37,988.652 1869.19,983.085 1871,976.082 1872.82,967.163 1874.64,955.537 1876.45,940.311 1878.27,920.679 1880.09,896.091 
  1881.9,866.405 1883.72,832.024 1885.54,794.004 1887.35,754.156 1889.17,715.036 1890.99,679.336 1892.8,649.284 1894.62,625.917 1896.44,609.383 1898.25,599.274 
  1900.07,594.875 1901.89,595.333 1903.7,599.756 1905.52,607.211 1907.34,616.712 1909.15,627.606 1910.97,639.406 1912.79,651.742 1914.6,664.352 1916.42,677.053 
  1918.24,689.703 1920.05,702.162 1921.87,714.36 1923.69,726.25 1925.51,737.799 1927.32,748.982 1929.14,759.789 1930.96,770.213 1932.77,780.253 1934.59,789.913 
  1936.41,799.197 1938.22,808.114 1940.04,816.673 1941.86,824.883 1943.67,832.756 1945.49,840.303 1947.31,847.535 1949.12,854.463 1950.94,861.098 1952.76,867.452 
  
  "/>
<path clip-path="url(#clip540)" d="
M1555.56 235.702 L1892.26 235.702 L1892.26 80.1822 L1555.56 80.1822  Z
  " fill="#ffffff" fill-rule="evenodd" fill-opacity="1"/>
<polyline clip-path="url(#clip540)" style="stroke:#000000; stroke-linecap:round; stroke-linejoin:round; stroke-width:4; stroke-opacity:1; fill:none" points="
  1555.56,235.702 1892.26,235.702 1892.26,80.1822 1555.56,80.1822 1555.56,235.702 
  "/>
<polyline clip-path="url(#clip540)" style="stroke:#009af9; stroke-linecap:round; stroke-linejoin:round; stroke-width:4; stroke-opacity:1; fill:none" points="
  1575.72,132.022 1696.72,132.022 
  "/>
<path clip-path="url(#clip540)" d="M1732.07 127.358 Q1731.35 126.941 1730.49 126.756 Q1729.66 126.548 1728.64 126.548 Q1725.03 126.548 1723.09 128.909 Q1721.16 131.247 1721.16 135.645 L1721.16 149.302 L1716.88 149.302 L1716.88 123.376 L1721.16 123.376 L1721.16 127.404 Q1722.51 125.043 1724.66 123.909 Q1726.81 122.751 1729.89 122.751 Q1730.33 122.751 1730.86 122.821 Q1731.4 122.867 1732.04 122.983 L1732.07 127.358 Z" fill="#000000" fill-rule="evenodd" fill-opacity="1" /><path clip-path="url(#clip540)" d="M1748.32 136.27 Q1743.16 136.27 1741.16 137.45 Q1739.17 138.631 1739.17 141.478 Q1739.17 143.747 1740.66 145.089 Q1742.16 146.409 1744.73 146.409 Q1748.27 146.409 1750.4 143.909 Q1752.55 141.386 1752.55 137.219 L1752.55 136.27 L1748.32 136.27 M1756.81 134.511 L1756.81 149.302 L1752.55 149.302 L1752.55 145.367 Q1751.1 147.728 1748.92 148.862 Q1746.74 149.974 1743.6 149.974 Q1739.61 149.974 1737.25 147.751 Q1734.91 145.506 1734.91 141.756 Q1734.91 137.381 1737.83 135.159 Q1740.77 132.937 1746.58 132.937 L1752.55 132.937 L1752.55 132.52 Q1752.55 129.58 1750.61 127.983 Q1748.69 126.363 1745.19 126.363 Q1742.97 126.363 1740.86 126.895 Q1738.76 127.427 1736.81 128.492 L1736.81 124.557 Q1739.15 123.654 1741.35 123.214 Q1743.55 122.751 1745.63 122.751 Q1751.26 122.751 1754.03 125.668 Q1756.81 128.585 1756.81 134.511 Z" fill="#000000" fill-rule="evenodd" fill-opacity="1" /><path clip-path="url(#clip540)" d="M1784.2 136.362 Q1784.2 131.663 1782.25 129.001 Q1780.33 126.316 1776.95 126.316 Q1773.57 126.316 1771.63 129.001 Q1769.71 131.663 1769.71 136.362 Q1769.71 141.062 1771.63 143.747 Q1773.57 146.409 1776.95 146.409 Q1780.33 146.409 1782.25 143.747 Q1784.2 141.062 1784.2 136.362 M1769.71 127.312 Q1771.05 124.997 1773.09 123.886 Q1775.15 122.751 1777.99 122.751 Q1782.72 122.751 1785.66 126.501 Q1788.62 130.251 1788.62 136.362 Q1788.62 142.474 1785.66 146.224 Q1782.72 149.974 1777.99 149.974 Q1775.15 149.974 1773.09 148.862 Q1771.05 147.728 1769.71 145.413 L1769.71 149.302 L1765.42 149.302 L1765.42 113.284 L1769.71 113.284 L1769.71 127.312 Z" fill="#000000" fill-rule="evenodd" fill-opacity="1" /><path clip-path="url(#clip540)" d="M1814.29 136.362 Q1814.29 131.663 1812.34 129.001 Q1810.42 126.316 1807.04 126.316 Q1803.66 126.316 1801.72 129.001 Q1799.8 131.663 1799.8 136.362 Q1799.8 141.062 1801.72 143.747 Q1803.66 146.409 1807.04 146.409 Q1810.42 146.409 1812.34 143.747 Q1814.29 141.062 1814.29 136.362 M1799.8 127.312 Q1801.14 124.997 1803.18 123.886 Q1805.24 122.751 1808.09 122.751 Q1812.81 122.751 1815.75 126.501 Q1818.71 130.251 1818.71 136.362 Q1818.71 142.474 1815.75 146.224 Q1812.81 149.974 1808.09 149.974 Q1805.24 149.974 1803.18 148.862 Q1801.14 147.728 1799.8 145.413 L1799.8 149.302 L1795.52 149.302 L1795.52 113.284 L1799.8 113.284 L1799.8 127.312 Z" fill="#000000" fill-rule="evenodd" fill-opacity="1" /><path clip-path="url(#clip540)" d="M1825.77 123.376 L1830.03 123.376 L1830.03 149.302 L1825.77 149.302 L1825.77 123.376 M1825.77 113.284 L1830.03 113.284 L1830.03 118.677 L1825.77 118.677 L1825.77 113.284 Z" fill="#000000" fill-rule="evenodd" fill-opacity="1" /><path clip-path="url(#clip540)" d="M1843.15 116.015 L1843.15 123.376 L1851.93 123.376 L1851.93 126.687 L1843.15 126.687 L1843.15 140.761 Q1843.15 143.932 1844.01 144.835 Q1844.89 145.737 1847.55 145.737 L1851.93 145.737 L1851.93 149.302 L1847.55 149.302 Q1842.62 149.302 1840.75 147.474 Q1838.87 145.622 1838.87 140.761 L1838.87 126.687 L1835.75 126.687 L1835.75 123.376 L1838.87 123.376 L1838.87 116.015 L1843.15 116.015 Z" fill="#000000" fill-rule="evenodd" fill-opacity="1" /><polyline clip-path="url(#clip540)" style="stroke:#e26f46; stroke-linecap:round; stroke-linejoin:round; stroke-width:4; stroke-opacity:1; fill:none" points="
  1575.72,183.862 1696.72,183.862 
  "/>
<path clip-path="url(#clip540)" d="M1733.39 165.124 L1733.39 168.666 L1729.31 168.666 Q1727.02 168.666 1726.12 169.591 Q1725.24 170.517 1725.24 172.925 L1725.24 175.216 L1732.25 175.216 L1732.25 178.527 L1725.24 178.527 L1725.24 201.142 L1720.96 201.142 L1720.96 178.527 L1716.88 178.527 L1716.88 175.216 L1720.96 175.216 L1720.96 173.411 Q1720.96 169.082 1722.97 167.115 Q1724.98 165.124 1729.36 165.124 L1733.39 165.124 Z" fill="#000000" fill-rule="evenodd" fill-opacity="1" /><path clip-path="url(#clip540)" d="M1747 178.203 Q1743.57 178.203 1741.58 180.888 Q1739.59 183.55 1739.59 188.202 Q1739.59 192.855 1741.56 195.54 Q1743.55 198.202 1747 198.202 Q1750.4 198.202 1752.39 195.517 Q1754.38 192.832 1754.38 188.202 Q1754.38 183.596 1752.39 180.911 Q1750.4 178.203 1747 178.203 M1747 174.591 Q1752.55 174.591 1755.72 178.203 Q1758.9 181.814 1758.9 188.202 Q1758.9 194.568 1755.72 198.202 Q1752.55 201.814 1747 201.814 Q1741.42 201.814 1738.25 198.202 Q1735.1 194.568 1735.1 188.202 Q1735.1 181.814 1738.25 178.203 Q1741.42 174.591 1747 174.591 Z" fill="#000000" fill-rule="evenodd" fill-opacity="1" /><path clip-path="url(#clip540)" d="M1786.05 175.216 L1776.67 187.832 L1786.53 201.142 L1781.51 201.142 L1773.97 190.957 L1766.42 201.142 L1761.4 201.142 L1771.47 187.577 L1762.25 175.216 L1767.28 175.216 L1774.15 184.452 L1781.03 175.216 L1786.05 175.216 Z" fill="#000000" fill-rule="evenodd" fill-opacity="1" /></svg>
