<?xml version="1.0" encoding="utf-8"?>
<svg xmlns="http://www.w3.org/2000/svg" xmlns:xlink="http://www.w3.org/1999/xlink" width="500" height="300" viewBox="0 0 2000 1200">
<defs>
  <clipPath id="clip460">
    <rect x="0" y="0" width="2000" height="1200"/>
  </clipPath>
</defs>
<path clip-path="url(#clip460)" d="
M0 1200 L2000 1200 L2000 0 L0 0  Z
  " fill="#ffffff" fill-rule="evenodd" fill-opacity="1"/>
<defs>
  <clipPath id="clip461">
    <rect x="400" y="0" width="1401" height="1200"/>
  </clipPath>
</defs>
<path clip-path="url(#clip460)" d="
M136.696 1093.9 L1952.76 1093.9 L1952.76 47.2441 L136.696 47.2441  Z
  " fill="#ffffff" fill-rule="evenodd" fill-opacity="1"/>
<defs>
  <clipPath id="clip462">
    <rect x="136" y="47" width="1817" height="1048"/>
  </clipPath>
</defs>
<polyline clip-path="url(#clip462)" style="stroke:#000000; stroke-linecap:round; stroke-linejoin:round; stroke-width:2; stroke-opacity:0.1; fill:none" points="
  188.093,1093.9 188.093,47.2441 
  "/>
<polyline clip-path="url(#clip462)" style="stroke:#000000; stroke-linecap:round; stroke-linejoin:round; stroke-width:2; stroke-opacity:0.1; fill:none" points="
  759.182,1093.9 759.182,47.2441 
  "/>
<polyline clip-path="url(#clip462)" style="stroke:#000000; stroke-linecap:round; stroke-linejoin:round; stroke-width:2; stroke-opacity:0.1; fill:none" points="
  1330.27,1093.9 1330.27,47.2441 
  "/>
<polyline clip-path="url(#clip462)" style="stroke:#000000; stroke-linecap:round; stroke-linejoin:round; stroke-width:2; stroke-opacity:0.1; fill:none" points="
  1901.36,1093.9 1901.36,47.2441 
  "/>
<polyline clip-path="url(#clip460)" style="stroke:#000000; stroke-linecap:round; stroke-linejoin:round; stroke-width:4; stroke-opacity:1; fill:none" points="
  136.696,1093.9 1952.76,1093.9 
  "/>
<polyline clip-path="url(#clip460)" style="stroke:#000000; stroke-linecap:round; stroke-linejoin:round; stroke-width:4; stroke-opacity:1; fill:none" points="
  188.093,1093.9 188.093,1075.01 
  "/>
<polyline clip-path="url(#clip460)" style="stroke:#000000; stroke-linecap:round; stroke-linejoin:round; stroke-width:4; stroke-opacity:1; fill:none" points="
  759.182,1093.9 759.182,1075.01 
  "/>
<polyline clip-path="url(#clip460)" style="stroke:#000000; stroke-linecap:round; stroke-linejoin:round; stroke-width:4; stroke-opacity:1; fill:none" points="
  1330.27,1093.9 1330.27,1075.01 
  "/>
<polyline clip-path="url(#clip460)" style="stroke:#000000; stroke-linecap:round; stroke-linejoin:round; stroke-width:4; stroke-opacity:1; fill:none" points="
  1901.36,1093.9 1901.36,1075.01 
  "/>
<path clip-path="url(#clip460)" d="M188.093 1121.62 Q184.482 1121.62 182.654 1125.19 Q180.848 1128.73 180.848 1135.86 Q180.848 1142.97 182.654 1146.53 Q184.482 1150.07 188.093 1150.07 Q191.728 1150.07 193.533 1146.53 Q195.362 1142.97 195.362 1135.86 Q195.362 1128.73 193.533 1125.19 Q191.728 1121.62 188.093 1121.62 M188.093 1117.92 Q193.904 1117.92 196.959 1122.53 Q200.038 1127.11 200.038 1135.86 Q200.038 1144.59 196.959 1149.19 Q193.904 1153.78 188.093 1153.78 Q182.283 1153.78 179.205 1149.19 Q176.149 1144.59 176.149 1135.86 Q176.149 1127.11 179.205 1122.53 Q182.283 1117.92 188.093 1117.92 Z" fill="#000000" fill-rule="evenodd" fill-opacity="1" /><path clip-path="url(#clip460)" d="M749.564 1149.17 L757.202 1149.17 L757.202 1122.8 L748.892 1124.47 L748.892 1120.21 L757.156 1118.54 L761.832 1118.54 L761.832 1149.17 L769.471 1149.17 L769.471 1153.1 L749.564 1153.1 L749.564 1149.17 Z" fill="#000000" fill-rule="evenodd" fill-opacity="1" /><path clip-path="url(#clip460)" d="M1324.92 1149.17 L1341.24 1149.17 L1341.24 1153.1 L1319.3 1153.1 L1319.3 1149.17 Q1321.96 1146.41 1326.54 1141.78 Q1331.15 1137.13 1332.33 1135.79 Q1334.58 1133.27 1335.45 1131.53 Q1336.36 1129.77 1336.36 1128.08 Q1336.36 1125.33 1334.41 1123.59 Q1332.49 1121.85 1329.39 1121.85 Q1327.19 1121.85 1324.74 1122.62 Q1322.31 1123.38 1319.53 1124.93 L1319.53 1120.21 Q1322.35 1119.08 1324.81 1118.5 Q1327.26 1117.92 1329.3 1117.92 Q1334.67 1117.92 1337.86 1120.6 Q1341.06 1123.29 1341.06 1127.78 Q1341.06 1129.91 1340.25 1131.83 Q1339.46 1133.73 1337.35 1136.32 Q1336.77 1136.99 1333.67 1140.21 Q1330.57 1143.4 1324.92 1149.17 Z" fill="#000000" fill-rule="evenodd" fill-opacity="1" /><path clip-path="url(#clip460)" d="M1905.61 1134.47 Q1908.96 1135.19 1910.84 1137.46 Q1912.74 1139.72 1912.74 1143.06 Q1912.74 1148.17 1909.22 1150.97 Q1905.7 1153.78 1899.22 1153.78 Q1897.04 1153.78 1894.73 1153.34 Q1892.43 1152.92 1889.98 1152.06 L1889.98 1147.55 Q1891.93 1148.68 1894.24 1149.26 Q1896.55 1149.84 1899.08 1149.84 Q1903.48 1149.84 1905.77 1148.1 Q1908.08 1146.37 1908.08 1143.06 Q1908.08 1140 1905.93 1138.29 Q1903.8 1136.55 1899.98 1136.55 L1895.95 1136.55 L1895.95 1132.71 L1900.17 1132.71 Q1903.61 1132.71 1905.44 1131.34 Q1907.27 1129.96 1907.27 1127.36 Q1907.27 1124.7 1905.37 1123.29 Q1903.5 1121.85 1899.98 1121.85 Q1898.06 1121.85 1895.86 1122.27 Q1893.66 1122.69 1891.02 1123.57 L1891.02 1119.4 Q1893.68 1118.66 1896 1118.29 Q1898.34 1117.92 1900.4 1117.92 Q1905.72 1117.92 1908.82 1120.35 Q1911.93 1122.76 1911.93 1126.88 Q1911.93 1129.75 1910.28 1131.74 Q1908.64 1133.71 1905.61 1134.47 Z" fill="#000000" fill-rule="evenodd" fill-opacity="1" /><polyline clip-path="url(#clip462)" style="stroke:#000000; stroke-linecap:round; stroke-linejoin:round; stroke-width:2; stroke-opacity:0.1; fill:none" points="
  136.696,1092.36 1952.76,1092.36 
  "/>
<polyline clip-path="url(#clip462)" style="stroke:#000000; stroke-linecap:round; stroke-linejoin:round; stroke-width:2; stroke-opacity:0.1; fill:none" points="
  136.696,811.588 1952.76,811.588 
  "/>
<polyline clip-path="url(#clip462)" style="stroke:#000000; stroke-linecap:round; stroke-linejoin:round; stroke-width:2; stroke-opacity:0.1; fill:none" points="
  136.696,530.819 1952.76,530.819 
  "/>
<polyline clip-path="url(#clip462)" style="stroke:#000000; stroke-linecap:round; stroke-linejoin:round; stroke-width:2; stroke-opacity:0.1; fill:none" points="
  136.696,250.049 1952.76,250.049 
  "/>
<polyline clip-path="url(#clip460)" style="stroke:#000000; stroke-linecap:round; stroke-linejoin:round; stroke-width:4; stroke-opacity:1; fill:none" points="
  136.696,1093.9 136.696,47.2441 
  "/>
<polyline clip-path="url(#clip460)" style="stroke:#000000; stroke-linecap:round; stroke-linejoin:round; stroke-width:4; stroke-opacity:1; fill:none" points="
  136.696,1092.36 155.593,1092.36 
  "/>
<polyline clip-path="url(#clip460)" style="stroke:#000000; stroke-linecap:round; stroke-linejoin:round; stroke-width:4; stroke-opacity:1; fill:none" points="
  136.696,811.588 155.593,811.588 
  "/>
<polyline clip-path="url(#clip460)" style="stroke:#000000; stroke-linecap:round; stroke-linejoin:round; stroke-width:4; stroke-opacity:1; fill:none" points="
  136.696,530.819 155.593,530.819 
  "/>
<polyline clip-path="url(#clip460)" style="stroke:#000000; stroke-linecap:round; stroke-linejoin:round; stroke-width:4; stroke-opacity:1; fill:none" points="
  136.696,250.049 155.593,250.049 
  "/>
<path clip-path="url(#clip460)" d="M94.7512 1078.16 Q91.1401 1078.16 89.3114 1081.72 Q87.5058 1085.26 87.5058 1092.39 Q87.5058 1099.5 89.3114 1103.06 Q91.1401 1106.61 94.7512 1106.61 Q98.3854 1106.61 100.191 1103.06 Q102.02 1099.5 102.02 1092.39 Q102.02 1085.26 100.191 1081.72 Q98.3854 1078.16 94.7512 1078.16 M94.7512 1074.45 Q100.561 1074.45 103.617 1079.06 Q106.696 1083.64 106.696 1092.39 Q106.696 1101.12 103.617 1105.73 Q100.561 1110.31 94.7512 1110.31 Q88.941 1110.31 85.8623 1105.73 Q82.8068 1101.12 82.8068 1092.39 Q82.8068 1083.64 85.8623 1079.06 Q88.941 1074.45 94.7512 1074.45 Z" fill="#000000" fill-rule="evenodd" fill-opacity="1" /><path clip-path="url(#clip460)" d="M55.3995 824.933 L63.0384 824.933 L63.0384 798.568 L54.7282 800.234 L54.7282 795.975 L62.9921 794.308 L67.668 794.308 L67.668 824.933 L75.3068 824.933 L75.3068 828.868 L55.3995 828.868 L55.3995 824.933 Z" fill="#000000" fill-rule="evenodd" fill-opacity="1" /><path clip-path="url(#clip460)" d="M94.7512 797.387 Q91.1401 797.387 89.3114 800.952 Q87.5058 804.494 87.5058 811.623 Q87.5058 818.73 89.3114 822.294 Q91.1401 825.836 94.7512 825.836 Q98.3854 825.836 100.191 822.294 Q102.02 818.73 102.02 811.623 Q102.02 804.494 100.191 800.952 Q98.3854 797.387 94.7512 797.387 M94.7512 793.683 Q100.561 793.683 103.617 798.29 Q106.696 802.873 106.696 811.623 Q106.696 820.35 103.617 824.956 Q100.561 829.54 94.7512 829.54 Q88.941 829.54 85.8623 824.956 Q82.8068 820.35 82.8068 811.623 Q82.8068 802.873 85.8623 798.29 Q88.941 793.683 94.7512 793.683 Z" fill="#000000" fill-rule="evenodd" fill-opacity="1" /><path clip-path="url(#clip460)" d="M58.6171 544.163 L74.9365 544.163 L74.9365 548.099 L52.9921 548.099 L52.9921 544.163 Q55.6541 541.409 60.2375 536.779 Q64.8439 532.126 66.0245 530.784 Q68.2698 528.261 69.1494 526.525 Q70.0522 524.765 70.0522 523.076 Q70.0522 520.321 68.1078 518.585 Q66.1865 516.849 63.0847 516.849 Q60.8856 516.849 58.4319 517.613 Q56.0014 518.376 53.2236 519.927 L53.2236 515.205 Q56.0477 514.071 58.5014 513.492 Q60.955 512.914 62.9921 512.914 Q68.3624 512.914 71.5568 515.599 Q74.7513 518.284 74.7513 522.775 Q74.7513 524.904 73.9411 526.826 Q73.1541 528.724 71.0476 531.316 Q70.4689 531.988 67.367 535.205 Q64.2652 538.4 58.6171 544.163 Z" fill="#000000" fill-rule="evenodd" fill-opacity="1" /><path clip-path="url(#clip460)" d="M94.7512 516.617 Q91.1401 516.617 89.3114 520.182 Q87.5058 523.724 87.5058 530.853 Q87.5058 537.96 89.3114 541.525 Q91.1401 545.066 94.7512 545.066 Q98.3854 545.066 100.191 541.525 Q102.02 537.96 102.02 530.853 Q102.02 523.724 100.191 520.182 Q98.3854 516.617 94.7512 516.617 M94.7512 512.914 Q100.561 512.914 103.617 517.52 Q106.696 522.103 106.696 530.853 Q106.696 539.58 103.617 544.187 Q100.561 548.77 94.7512 548.77 Q88.941 548.77 85.8623 544.187 Q82.8068 539.58 82.8068 530.853 Q82.8068 522.103 85.8623 517.52 Q88.941 512.914 94.7512 512.914 Z" fill="#000000" fill-rule="evenodd" fill-opacity="1" /><path clip-path="url(#clip460)" d="M68.7559 248.694 Q72.1124 249.412 73.9874 251.681 Q75.8855 253.949 75.8855 257.282 Q75.8855 262.398 72.367 265.199 Q68.8485 268 62.3671 268 Q60.1912 268 57.8764 267.56 Q55.5847 267.143 53.131 266.287 L53.131 261.773 Q55.0754 262.907 57.3903 263.486 Q59.7051 264.065 62.2282 264.065 Q66.6263 264.065 68.918 262.329 Q71.2328 260.593 71.2328 257.282 Q71.2328 254.227 69.08 252.514 Q66.9504 250.778 63.131 250.778 L59.1032 250.778 L59.1032 246.935 L63.3161 246.935 Q66.7652 246.935 68.5939 245.569 Q70.4226 244.181 70.4226 241.588 Q70.4226 238.926 68.5245 237.514 Q66.6495 236.079 63.131 236.079 Q61.2097 236.079 59.0106 236.495 Q56.8115 236.912 54.1727 237.792 L54.1727 233.625 Q56.8347 232.884 59.1495 232.514 Q61.4875 232.144 63.5476 232.144 Q68.8717 232.144 71.9735 234.574 Q75.0753 236.982 75.0753 241.102 Q75.0753 243.972 73.4318 245.963 Q71.7883 247.931 68.7559 248.694 Z" fill="#000000" fill-rule="evenodd" fill-opacity="1" /><path clip-path="url(#clip460)" d="M94.7512 235.847 Q91.1401 235.847 89.3114 239.412 Q87.5058 242.954 87.5058 250.083 Q87.5058 257.19 89.3114 260.755 Q91.1401 264.296 94.7512 264.296 Q98.3854 264.296 100.191 260.755 Q102.02 257.19 102.02 250.083 Q102.02 242.954 100.191 239.412 Q98.3854 235.847 94.7512 235.847 M94.7512 232.144 Q100.561 232.144 103.617 236.75 Q106.696 241.333 106.696 250.083 Q106.696 258.81 103.617 263.417 Q100.561 268 94.7512 268 Q88.941 268 85.8623 263.417 Q82.8068 258.81 82.8068 250.083 Q82.8068 241.333 85.8623 236.75 Q88.941 232.144 94.7512 232.144 Z" fill="#000000" fill-rule="evenodd" fill-opacity="1" /><circle clip-path="url(#clip462)" cx="188.093" cy="1064.28" r="14.4" fill="#009af9" fill-rule="evenodd" fill-opacity="1" stroke="#000000" stroke-opacity="1" stroke-width="2.4"/>
<circle clip-path="url(#clip462)" cx="215.105" cy="1062.89" r="14.4" fill="#009af9" fill-rule="evenodd" fill-opacity="1" stroke="#000000" stroke-opacity="1" stroke-width="2.4"/>
<circle clip-path="url(#clip462)" cx="259.151" cy="1060.33" r="14.4" fill="#009af9" fill-rule="evenodd" fill-opacity="1" stroke="#000000" stroke-opacity="1" stroke-width="2.4"/>
<circle clip-path="url(#clip462)" cx="313.036" cy="1056.69" r="14.4" fill="#009af9" fill-rule="evenodd" fill-opacity="1" stroke="#000000" stroke-opacity="1" stroke-width="2.4"/>
<circle clip-path="url(#clip462)" cx="382.775" cy="1051.04" r="14.4" fill="#009af9" fill-rule="evenodd" fill-opacity="1" stroke="#000000" stroke-opacity="1" stroke-width="2.4"/>
<circle clip-path="url(#clip462)" cx="464.662" cy="1042.89" r="14.4" fill="#009af9" fill-rule="evenodd" fill-opacity="1" stroke="#000000" stroke-opacity="1" stroke-width="2.4"/>
<circle clip-path="url(#clip462)" cx="560.303" cy="1030.98" r="14.4" fill="#009af9" fill-rule="evenodd" fill-opacity="1" stroke="#000000" stroke-opacity="1" stroke-width="2.4"/>
<circle clip-path="url(#clip462)" cx="667.653" cy="1013.97" r="14.4" fill="#009af9" fill-rule="evenodd" fill-opacity="1" stroke="#000000" stroke-opacity="1" stroke-width="2.4"/>
<circle clip-path="url(#clip462)" cx="786.512" cy="989.732" r="14.4" fill="#009af9" fill-rule="evenodd" fill-opacity="1" stroke="#000000" stroke-opacity="1" stroke-width="2.4"/>
<circle clip-path="url(#clip462)" cx="915.508" cy="955.496" r="14.4" fill="#009af9" fill-rule="evenodd" fill-opacity="1" stroke="#000000" stroke-opacity="1" stroke-width="2.4"/>
<circle clip-path="url(#clip462)" cx="1053.86" cy="907.281" r="14.4" fill="#009af9" fill-rule="evenodd" fill-opacity="1" stroke="#000000" stroke-opacity="1" stroke-width="2.4"/>
<circle clip-path="url(#clip462)" cx="1200.49" cy="839.639" r="14.4" fill="#009af9" fill-rule="evenodd" fill-opacity="1" stroke="#000000" stroke-opacity="1" stroke-width="2.4"/>
<circle clip-path="url(#clip462)" cx="1354.49" cy="744.894" r="14.4" fill="#009af9" fill-rule="evenodd" fill-opacity="1" stroke="#000000" stroke-opacity="1" stroke-width="2.4"/>
<circle clip-path="url(#clip462)" cx="1514.95" cy="612.353" r="14.4" fill="#009af9" fill-rule="evenodd" fill-opacity="1" stroke="#000000" stroke-opacity="1" stroke-width="2.4"/>
<circle clip-path="url(#clip462)" cx="1681.05" cy="427" r="14.4" fill="#009af9" fill-rule="evenodd" fill-opacity="1" stroke="#000000" stroke-opacity="1" stroke-width="2.4"/>
<circle clip-path="url(#clip462)" cx="1852.02" cy="167.787" r="14.4" fill="#009af9" fill-rule="evenodd" fill-opacity="1" stroke="#000000" stroke-opacity="1" stroke-width="2.4"/>
<circle clip-path="url(#clip462)" cx="1901.36" cy="76.8665" r="14.4" fill="#009af9" fill-rule="evenodd" fill-opacity="1" stroke="#000000" stroke-opacity="1" stroke-width="2.4"/>
<path clip-path="url(#clip460)" d="
M1638.01 185.813 L1892.22 185.813 L1892.22 82.1328 L1638.01 82.1328  Z
  " fill="#ffffff" fill-rule="evenodd" fill-opacity="1"/>
<polyline clip-path="url(#clip460)" style="stroke:#000000; stroke-linecap:round; stroke-linejoin:round; stroke-width:4; stroke-opacity:1; fill:none" points="
  1638.01,185.813 1892.22,185.813 1892.22,82.1328 1638.01,82.1328 1638.01,185.813 
  "/>
<circle clip-path="url(#clip460)" cx="1718.72" cy="133.973" r="23.04" fill="#009af9" fill-rule="evenodd" fill-opacity="1" stroke="#000000" stroke-opacity="1" stroke-width="3.84"/>
<path clip-path="url(#clip460)" d="M1813.28 153.66 Q1811.47 158.29 1809.76 159.702 Q1808.04 161.114 1805.17 161.114 L1801.77 161.114 L1801.77 157.549 L1804.27 157.549 Q1806.03 157.549 1807 156.716 Q1807.98 155.882 1809.16 152.781 L1809.92 150.836 L1799.43 125.327 L1803.95 125.327 L1812.05 145.605 L1820.15 125.327 L1824.66 125.327 L1813.28 153.66 Z" fill="#000000" fill-rule="evenodd" fill-opacity="1" /><path clip-path="url(#clip460)" d="M1831.96 147.318 L1839.6 147.318 L1839.6 120.952 L1831.29 122.619 L1831.29 118.359 L1839.55 116.693 L1844.22 116.693 L1844.22 147.318 L1851.86 147.318 L1851.86 151.253 L1831.96 151.253 L1831.96 147.318 Z" fill="#000000" fill-rule="evenodd" fill-opacity="1" /></svg>
