<?xml version="1.0" encoding="utf-8"?>
<svg xmlns="http://www.w3.org/2000/svg" xmlns:xlink="http://www.w3.org/1999/xlink" width="500" height="300" viewBox="0 0 2000 1200">
<defs>
  <clipPath id="clip340">
    <rect x="0" y="0" width="2000" height="1200"/>
  </clipPath>
</defs>
<path clip-path="url(#clip340)" d="
M0 1200 L2000 1200 L2000 0 L0 0  Z
  " fill="#ffffff" fill-rule="evenodd" fill-opacity="1"/>
<defs>
  <clipPath id="clip341">
    <rect x="400" y="0" width="1401" height="1200"/>
  </clipPath>
</defs>
<path clip-path="url(#clip340)" d="
M136.517 466.205 L1952.76 466.205 L1952.76 47.2441 L136.517 47.2441  Z
  " fill="#ffffff" fill-rule="evenodd" fill-opacity="1"/>
<defs>
  <clipPath id="clip342">
    <rect x="136" y="47" width="1817" height="420"/>
  </clipPath>
</defs>
<polyline clip-path="url(#clip342)" style="stroke:#000000; stroke-linecap:butt; stroke-linejoin:round; stroke-width:2; stroke-opacity:0.1; fill:none" points="
  136.517,466.205 136.517,47.2441 
  "/>
<polyline clip-path="url(#clip342)" style="stroke:#000000; stroke-linecap:butt; stroke-linejoin:round; stroke-width:2; stroke-opacity:0.1; fill:none" points="
  741.93,466.205 741.93,47.2441 
  "/>
<polyline clip-path="url(#clip342)" style="stroke:#000000; stroke-linecap:butt; stroke-linejoin:round; stroke-width:2; stroke-opacity:0.1; fill:none" points="
  1347.34,466.205 1347.34,47.2441 
  "/>
<polyline clip-path="url(#clip342)" style="stroke:#000000; stroke-linecap:butt; stroke-linejoin:round; stroke-width:2; stroke-opacity:0.1; fill:none" points="
  1952.76,466.205 1952.76,47.2441 
  "/>
<polyline clip-path="url(#clip340)" style="stroke:#000000; stroke-linecap:butt; stroke-linejoin:round; stroke-width:4; stroke-opacity:1; fill:none" points="
  136.517,466.205 1952.76,466.205 
  "/>
<polyline clip-path="url(#clip340)" style="stroke:#000000; stroke-linecap:butt; stroke-linejoin:round; stroke-width:4; stroke-opacity:1; fill:none" points="
  136.517,466.205 136.517,447.308 
  "/>
<polyline clip-path="url(#clip340)" style="stroke:#000000; stroke-linecap:butt; stroke-linejoin:round; stroke-width:4; stroke-opacity:1; fill:none" points="
  741.93,466.205 741.93,447.308 
  "/>
<polyline clip-path="url(#clip340)" style="stroke:#000000; stroke-linecap:butt; stroke-linejoin:round; stroke-width:4; stroke-opacity:1; fill:none" points="
  1347.34,466.205 1347.34,447.308 
  "/>
<polyline clip-path="url(#clip340)" style="stroke:#000000; stroke-linecap:butt; stroke-linejoin:round; stroke-width:4; stroke-opacity:1; fill:none" points="
  1952.76,466.205 1952.76,447.308 
  "/>
<g clip-path="url(#clip340)">
<text style="fill:#000000; fill-opacity:1; font-family:Arial,Helvetica Neue,Helvetica,sans-serif; font-size:48px; text-anchor:middle;" transform="rotate(0, 136.517, 524.855)" x="136.517" y="524.855">0</text>
</g>
<g clip-path="url(#clip340)">
<text style="fill:#000000; fill-opacity:1; font-family:Arial,Helvetica Neue,Helvetica,sans-serif; font-size:48px; text-anchor:middle;" transform="rotate(0, 741.93, 524.855)" x="741.93" y="524.855">50</text>
</g>
<g clip-path="url(#clip340)">
<text style="fill:#000000; fill-opacity:1; font-family:Arial,Helvetica Neue,Helvetica,sans-serif; font-size:48px; text-anchor:middle;" transform="rotate(0, 1347.34, 524.855)" x="1347.34" y="524.855">100</text>
</g>
<g clip-path="url(#clip340)">
<text style="fill:#000000; fill-opacity:1; font-family:Arial,Helvetica Neue,Helvetica,sans-serif; font-size:48px; text-anchor:middle;" transform="rotate(0, 1952.76, 524.855)" x="1952.76" y="524.855">150</text>
</g>
<g clip-path="url(#clip340)">
<text style="fill:#000000; fill-opacity:1; font-family:Arial,Helvetica Neue,Helvetica,sans-serif; font-size:66px; text-anchor:middle;" transform="rotate(0, 1044.64, 606.067)" x="1044.64" y="606.067">t</text>
</g>
<polyline clip-path="url(#clip342)" style="stroke:#000000; stroke-linecap:butt; stroke-linejoin:round; stroke-width:2; stroke-opacity:0.1; fill:none" points="
  136.517,454.348 1952.76,454.348 
  "/>
<polyline clip-path="url(#clip342)" style="stroke:#000000; stroke-linecap:butt; stroke-linejoin:round; stroke-width:2; stroke-opacity:0.1; fill:none" points="
  136.517,395.064 1952.76,395.064 
  "/>
<polyline clip-path="url(#clip342)" style="stroke:#000000; stroke-linecap:butt; stroke-linejoin:round; stroke-width:2; stroke-opacity:0.1; fill:none" points="
  136.517,335.78 1952.76,335.78 
  "/>
<polyline clip-path="url(#clip342)" style="stroke:#000000; stroke-linecap:butt; stroke-linejoin:round; stroke-width:2; stroke-opacity:0.1; fill:none" points="
  136.517,276.496 1952.76,276.496 
  "/>
<polyline clip-path="url(#clip342)" style="stroke:#000000; stroke-linecap:butt; stroke-linejoin:round; stroke-width:2; stroke-opacity:0.1; fill:none" points="
  136.517,217.212 1952.76,217.212 
  "/>
<polyline clip-path="url(#clip342)" style="stroke:#000000; stroke-linecap:butt; stroke-linejoin:round; stroke-width:2; stroke-opacity:0.1; fill:none" points="
  136.517,157.928 1952.76,157.928 
  "/>
<polyline clip-path="url(#clip342)" style="stroke:#000000; stroke-linecap:butt; stroke-linejoin:round; stroke-width:2; stroke-opacity:0.1; fill:none" points="
  136.517,98.6444 1952.76,98.6444 
  "/>
<polyline clip-path="url(#clip340)" style="stroke:#000000; stroke-linecap:butt; stroke-linejoin:round; stroke-width:4; stroke-opacity:1; fill:none" points="
  136.517,466.205 136.517,47.2441 
  "/>
<polyline clip-path="url(#clip340)" style="stroke:#000000; stroke-linecap:butt; stroke-linejoin:round; stroke-width:4; stroke-opacity:1; fill:none" points="
  136.517,454.348 155.414,454.348 
  "/>
<polyline clip-path="url(#clip340)" style="stroke:#000000; stroke-linecap:butt; stroke-linejoin:round; stroke-width:4; stroke-opacity:1; fill:none" points="
  136.517,395.064 155.414,395.064 
  "/>
<polyline clip-path="url(#clip340)" style="stroke:#000000; stroke-linecap:butt; stroke-linejoin:round; stroke-width:4; stroke-opacity:1; fill:none" points="
  136.517,335.78 155.414,335.78 
  "/>
<polyline clip-path="url(#clip340)" style="stroke:#000000; stroke-linecap:butt; stroke-linejoin:round; stroke-width:4; stroke-opacity:1; fill:none" points="
  136.517,276.496 155.414,276.496 
  "/>
<polyline clip-path="url(#clip340)" style="stroke:#000000; stroke-linecap:butt; stroke-linejoin:round; stroke-width:4; stroke-opacity:1; fill:none" points="
  136.517,217.212 155.414,217.212 
  "/>
<polyline clip-path="url(#clip340)" style="stroke:#000000; stroke-linecap:butt; stroke-linejoin:round; stroke-width:4; stroke-opacity:1; fill:none" points="
  136.517,157.928 155.414,157.928 
  "/>
<polyline clip-path="url(#clip340)" style="stroke:#000000; stroke-linecap:butt; stroke-linejoin:round; stroke-width:4; stroke-opacity:1; fill:none" points="
  136.517,98.6444 155.414,98.6444 
  "/>
<g clip-path="url(#clip340)">
<text style="fill:#000000; fill-opacity:1; font-family:Arial,Helvetica Neue,Helvetica,sans-serif; font-size:48px; text-anchor:middle;" transform="rotate(0, 93.1356, 471.848)" x="93.1356" y="471.848">0</text>
</g>
<g clip-path="url(#clip340)">
<text style="fill:#000000; fill-opacity:1; font-family:Arial,Helvetica Neue,Helvetica,sans-serif; font-size:48px; text-anchor:middle;" transform="rotate(0, 79.7545, 412.564)" x="79.7545" y="412.564">10</text>
</g>
<g clip-path="url(#clip340)">
<text style="fill:#000000; fill-opacity:1; font-family:Arial,Helvetica Neue,Helvetica,sans-serif; font-size:48px; text-anchor:middle;" transform="rotate(0, 79.7545, 353.28)" x="79.7545" y="353.28">20</text>
</g>
<g clip-path="url(#clip340)">
<text style="fill:#000000; fill-opacity:1; font-family:Arial,Helvetica Neue,Helvetica,sans-serif; font-size:48px; text-anchor:middle;" transform="rotate(0, 79.7545, 293.996)" x="79.7545" y="293.996">30</text>
</g>
<g clip-path="url(#clip340)">
<text style="fill:#000000; fill-opacity:1; font-family:Arial,Helvetica Neue,Helvetica,sans-serif; font-size:48px; text-anchor:middle;" transform="rotate(0, 79.7545, 234.712)" x="79.7545" y="234.712">40</text>
</g>
<g clip-path="url(#clip340)">
<text style="fill:#000000; fill-opacity:1; font-family:Arial,Helvetica Neue,Helvetica,sans-serif; font-size:48px; text-anchor:middle;" transform="rotate(0, 79.7545, 175.428)" x="79.7545" y="175.428">50</text>
</g>
<g clip-path="url(#clip340)">
<text style="fill:#000000; fill-opacity:1; font-family:Arial,Helvetica Neue,Helvetica,sans-serif; font-size:48px; text-anchor:middle;" transform="rotate(0, 79.7545, 116.144)" x="79.7545" y="116.144">60</text>
</g>
<polyline clip-path="url(#clip342)" style="stroke:#009af9; stroke-linecap:butt; stroke-linejoin:round; stroke-width:8; stroke-opacity:1; fill:none" points="
  136.517,217.212 138.335,214.769 140.153,215.634 141.971,221.997 143.789,236.624 145.607,261.704 147.425,296.498 149.243,335.764 151.061,372.061 152.879,400.398 
  154.697,420.005 156.515,432.627 158.333,440.484 160.152,445.333 161.97,448.349 163.788,450.253 165.606,451.48 167.424,452.288 169.242,452.832 171.06,453.206 
  172.878,453.469 174.696,453.657 176.514,453.795 178.332,453.897 180.15,453.974 181.968,454.033 183.786,454.079 185.604,454.115 187.422,454.144 189.24,454.167 
  191.059,454.185 192.877,454.201 194.695,454.213 196.513,454.224 198.331,454.233 200.149,454.24 201.967,454.246 203.785,454.251 205.603,454.256 207.421,454.259 
  209.239,454.263 211.057,454.265 212.875,454.267 214.693,454.269 216.511,454.271 218.329,454.272 220.147,454.273 221.965,454.273 223.784,454.274 225.602,454.274 
  227.42,454.274 229.238,454.274 231.056,454.274 232.874,454.274 234.692,454.273 236.51,454.272 238.328,454.272 240.146,454.271 241.964,454.27 243.782,454.269 
  245.6,454.267 247.418,454.266 249.236,454.265 251.054,454.263 252.872,454.261 254.691,454.26 256.509,454.258 258.327,454.256 260.145,454.254 261.963,454.252 
  263.781,454.249 265.599,454.247 267.417,454.245 269.235,454.242 271.053,454.239 272.871,454.237 274.689,454.234 276.507,454.231 278.325,454.228 280.143,454.224 
  281.961,454.221 283.779,454.218 285.597,454.214 287.416,454.21 289.234,454.206 291.052,454.202 292.87,454.198 294.688,454.194 296.506,454.19 298.324,454.185 
  300.142,454.18 301.96,454.175 303.778,454.17 305.596,454.165 307.414,454.16 309.232,454.154 311.05,454.149 312.868,454.143 314.686,454.137 316.504,454.13 
  318.323,454.124 320.141,454.117 321.959,454.11 323.777,454.103 325.595,454.096 327.413,454.088 329.231,454.081 331.049,454.073 332.867,454.064 334.685,454.056 
  336.503,454.047 338.321,454.038 340.139,454.029 341.957,454.019 343.775,454.009 345.593,453.999 347.411,453.988 349.229,453.977 351.048,453.966 352.866,453.955 
  354.684,453.943 356.502,453.93 358.32,453.918 360.138,453.905 361.956,453.891 363.774,453.877 365.592,453.863 367.41,453.848 369.228,453.833 371.046,453.817 
  372.864,453.801 374.682,453.785 376.5,453.767 378.318,453.75 380.136,453.732 381.955,453.713 383.773,453.694 385.591,453.674 387.409,453.653 389.227,453.632 
  391.045,453.61 392.863,453.588 394.681,453.564 396.499,453.541 398.317,453.516 400.135,453.491 401.953,453.465 403.771,453.438 405.589,453.41 407.407,453.381 
  409.225,453.352 411.043,453.322 412.861,453.29 414.68,453.258 416.498,453.225 418.316,453.191 420.134,453.155 421.952,453.119 423.77,453.082 425.588,453.043 
  427.406,453.003 429.224,452.962 431.042,452.92 432.86,452.876 434.678,452.832 436.496,452.785 438.314,452.738 440.132,452.689 441.95,452.638 443.768,452.586 
  445.587,452.532 447.405,452.477 449.223,452.42 451.041,452.361 452.859,452.301 454.677,452.238 456.495,452.174 458.313,452.108 460.131,452.039 461.949,451.969 
  463.767,451.896 465.585,451.822 467.403,451.745 469.221,451.665 471.039,451.583 472.857,451.499 474.675,451.412 476.493,451.323 478.312,451.231 480.13,451.136 
  481.948,451.038 483.766,450.937 485.584,450.833 487.402,450.726 489.22,450.615 491.038,450.501 492.856,450.384 494.674,450.263 496.492,450.139 498.31,450.01 
  500.128,449.878 501.946,449.742 503.764,449.601 505.582,449.457 507.4,449.308 509.219,449.154 511.037,448.996 512.855,448.832 514.673,448.664 516.491,448.491 
  518.309,448.313 520.127,448.129 521.945,447.939 523.763,447.744 525.581,447.542 527.399,447.335 529.217,447.121 531.035,446.901 532.853,446.674 534.671,446.44 
  536.489,446.199 538.307,445.95 540.125,445.694 541.944,445.43 543.762,445.158 545.58,444.878 547.398,444.59 549.216,444.292 551.034,443.986 552.852,443.67 
  554.67,443.344 556.488,443.009 558.306,442.663 560.124,442.307 561.942,441.94 563.76,441.561 565.578,441.172 567.396,440.77 569.214,440.356 571.032,439.929 
  572.851,439.49 574.669,439.037 576.487,438.57 578.305,438.089 580.123,437.593 581.941,437.083 583.759,436.556 585.577,436.014 587.395,435.455 589.213,434.879 
  591.031,434.286 592.849,433.674 594.667,433.044 596.485,432.394 598.303,431.725 600.121,431.035 601.939,430.325 603.757,429.592 605.576,428.838 607.394,428.06 
  609.212,427.259 611.03,426.433 612.848,425.582 614.666,424.705 616.484,423.801 618.302,422.87 620.12,421.91 621.938,420.922 623.756,419.903 625.574,418.852 
  627.392,417.77 629.21,416.655 631.028,415.506 632.846,414.322 634.664,413.102 636.483,411.845 638.301,410.549 640.119,409.214 641.937,407.838 643.755,406.42 
  645.573,404.959 647.391,403.453 649.209,401.901 651.027,400.303 652.845,398.655 654.663,396.957 656.481,395.208 658.299,393.405 660.117,391.547 661.935,389.632 
  663.753,387.659 665.571,385.626 667.389,383.531 669.208,381.373 671.026,379.148 672.844,376.855 674.662,374.493 676.48,372.059 678.298,369.55 680.116,366.965 
  681.934,364.301 683.752,361.556 685.57,358.727 687.388,355.812 689.206,352.808 691.024,349.713 692.842,346.523 694.66,343.236 696.478,339.849 698.296,336.359 
  700.115,332.762 701.933,329.056 703.751,325.237 705.569,321.302 707.387,317.246 709.205,313.068 711.023,308.763 712.841,304.327 714.659,299.756 716.477,295.048 
  718.295,290.198 720.113,285.203 721.931,280.059 723.749,274.766 725.567,269.321 727.385,263.725 729.203,257.983 731.021,252.106 732.84,246.119 734.658,240.046 
  736.476,233.961 738.294,227.999 740.112,222.374 741.93,217.463 743.748,213.962 745.566,213.18 747.384,216.54 749.202,226.782 751.02,246.986 752.838,278.119 
  754.656,317.232 756.474,356.574 758.292,389.115 760.11,412.66 761.928,428.247 763.747,437.986 765.565,443.867 767.383,447.483 769.201,449.75 771.019,451.184 
  772.837,452.1 774.655,452.715 776.473,453.133 778.291,453.423 780.109,453.629 781.927,453.778 783.745,453.887 785.563,453.969 787.381,454.032 789.199,454.08 
  791.017,454.117 792.835,454.147 794.653,454.171 796.472,454.19 798.29,454.206 800.108,454.218 801.926,454.229 803.744,454.238 805.562,454.245 807.38,454.251 
  809.198,454.257 811.016,454.261 812.834,454.265 814.652,454.268 816.47,454.271 818.288,454.273 820.106,454.275 821.924,454.276 823.742,454.277 825.56,454.278 
  827.379,454.279 829.197,454.28 831.015,454.28 832.833,454.28 834.651,454.28 836.469,454.28 838.287,454.28 840.105,454.279 841.923,454.279 843.741,454.278 
  845.559,454.277 847.377,454.276 849.195,454.275 851.013,454.274 852.831,454.273 854.649,454.272 856.467,454.271 858.285,454.269 860.104,454.267 861.922,454.266 
  863.74,454.264 865.558,454.262 867.376,454.26 869.194,454.258 871.012,454.256 872.83,454.254 874.648,454.252 876.466,454.249 878.284,454.247 880.102,454.244 
  881.92,454.241 883.738,454.239 885.556,454.236 887.374,454.233 889.192,454.23 891.011,454.226 892.829,454.223 894.647,454.219 896.465,454.216 898.283,454.212 
  900.101,454.208 901.919,454.204 903.737,454.2 905.555,454.196 907.373,454.192 909.191,454.187 911.009,454.182 912.827,454.177 914.645,454.172 916.463,454.167 
  918.281,454.162 920.099,454.156 921.917,454.151 923.736,454.145 925.554,454.139 927.372,454.133 929.19,454.126 931.008,454.12 932.826,454.113 934.644,454.106 
  936.462,454.098 938.28,454.091 940.098,454.083 941.916,454.075 943.734,454.067 945.552,454.058 947.37,454.05 949.188,454.041 951.006,454.031 952.824,454.022 
  954.643,454.012 956.461,454.002 958.279,453.991 960.097,453.98 961.915,453.969 963.733,453.958 965.551,453.946 967.369,453.934 969.187,453.921 971.005,453.908 
  972.823,453.895 974.641,453.881 976.459,453.867 978.277,453.852 980.095,453.837 981.913,453.822 983.731,453.806 985.549,453.789 987.368,453.772 989.186,453.755 
  991.004,453.737 992.822,453.718 994.64,453.699 996.458,453.679 998.276,453.659 1000.09,453.638 1001.91,453.616 1003.73,453.594 1005.55,453.571 1007.37,453.547 
  1009.18,453.523 1011,453.498 1012.82,453.472 1014.64,453.445 1016.46,453.418 1018.27,453.389 1020.09,453.36 1021.91,453.33 1023.73,453.299 1025.55,453.267 
  1027.36,453.234 1029.18,453.2 1031,453.165 1032.82,453.129 1034.64,453.092 1036.46,453.053 1038.27,453.014 1040.09,452.973 1041.91,452.931 1043.73,452.888 
  1045.55,452.844 1047.36,452.798 1049.18,452.751 1051,452.702 1052.82,452.652 1054.64,452.6 1056.45,452.547 1058.27,452.492 1060.09,452.435 1061.91,452.377 
  1063.73,452.317 1065.54,452.255 1067.36,452.191 1069.18,452.126 1071,452.058 1072.82,451.988 1074.63,451.916 1076.45,451.842 1078.27,451.765 1080.09,451.687 
  1081.91,451.606 1083.72,451.522 1085.54,451.436 1087.36,451.347 1089.18,451.256 1091,451.161 1092.81,451.064 1094.63,450.964 1096.45,450.861 1098.27,450.755 
  1100.09,450.645 1101.91,450.532 1103.72,450.416 1105.54,450.296 1107.36,450.173 1109.18,450.045 1111,449.914 1112.81,449.779 1114.63,449.64 1116.45,449.496 
  1118.27,449.348 1120.09,449.196 1121.9,449.039 1123.72,448.877 1125.54,448.71 1127.36,448.538 1129.18,448.361 1130.99,448.179 1132.81,447.99 1134.63,447.797 
  1136.45,447.597 1138.27,447.391 1140.08,447.179 1141.9,446.96 1143.72,446.735 1145.54,446.503 1147.36,446.264 1149.17,446.018 1150.99,445.764 1152.81,445.502 
  1154.63,445.232 1156.45,444.954 1158.26,444.668 1160.08,444.373 1161.9,444.069 1163.72,443.755 1165.54,443.433 1167.36,443.1 1169.17,442.757 1170.99,442.403 
  1172.81,442.039 1174.63,441.664 1176.45,441.277 1178.26,440.879 1180.08,440.468 1181.9,440.045 1183.72,439.609 1185.54,439.16 1187.35,438.697 1189.17,438.22 
  1190.99,437.728 1192.81,437.221 1194.63,436.699 1196.44,436.161 1198.26,435.607 1200.08,435.036 1201.9,434.447 1203.72,433.84 1205.53,433.215 1207.35,432.571 
  1209.17,431.907 1210.99,431.223 1212.81,430.518 1214.62,429.791 1216.44,429.043 1218.26,428.271 1220.08,427.476 1221.9,426.657 1223.71,425.813 1225.53,424.943 
  1227.35,424.047 1229.17,423.123 1230.99,422.171 1232.81,421.19 1234.62,420.179 1236.44,419.138 1238.26,418.064 1240.08,416.958 1241.9,415.818 1243.71,414.644 
  1245.53,413.434 1247.35,412.186 1249.17,410.901 1250.99,409.577 1252.8,408.212 1254.62,406.805 1256.44,405.356 1258.26,403.863 1260.08,402.324 1261.89,400.738 
  1263.71,399.103 1265.53,397.419 1267.35,395.684 1269.17,393.896 1270.98,392.053 1272.8,390.154 1274.62,388.197 1276.44,386.18 1278.26,384.102 1280.07,381.961 
  1281.89,379.754 1283.71,377.48 1285.53,375.137 1287.35,372.722 1289.17,370.234 1290.98,367.669 1292.8,365.027 1294.62,362.304 1296.44,359.498 1298.26,356.606 
  1300.07,353.627 1301.89,350.556 1303.71,347.392 1305.53,344.132 1307.35,340.772 1309.16,337.31 1310.98,333.742 1312.8,330.065 1314.62,326.277 1316.44,322.373 
  1318.25,318.35 1320.07,314.205 1321.89,309.934 1323.71,305.533 1325.53,300.999 1327.34,296.327 1329.16,291.514 1330.98,286.556 1332.8,281.45 1334.62,276.193 
  1336.43,270.782 1338.25,265.216 1340.07,259.498 1341.89,253.634 1343.71,247.634 1345.52,241.517 1347.34,235.334 1349.16,229.169 1350.98,223.159 1352.8,217.567 
  1354.62,212.91 1356.43,209.926 1358.25,209.795 1360.07,215.055 1361.89,228.777 1363.71,253.244 1365.52,288.279 1367.34,329.012 1369.16,367.29 1370.98,397.664 
  1372.8,418.86 1374.61,432.367 1376.43,440.52 1378.25,445.498 1380.07,448.561 1381.89,450.433 1383.7,451.635 1385.52,452.419 1387.34,452.941 1389.16,453.297 
  1390.98,453.545 1392.79,453.721 1394.61,453.849 1396.43,453.944 1398.25,454.015 1400.07,454.069 1401.88,454.111 1403.7,454.143 1405.52,454.169 1407.34,454.19 
  1409.16,454.207 1410.97,454.221 1412.79,454.232 1414.61,454.241 1416.43,454.249 1418.25,454.256 1420.07,454.261 1421.88,454.266 1423.7,454.27 1425.52,454.273 
  1427.34,454.276 1429.16,454.278 1430.97,454.28 1432.79,454.281 1434.61,454.283 1436.43,454.284 1438.25,454.285 1440.06,454.285 1441.88,454.286 1443.7,454.286 
  1445.52,454.286 1447.34,454.286 1449.15,454.286 1450.97,454.286 1452.79,454.285 1454.61,454.285 1456.43,454.284 1458.24,454.283 1460.06,454.283 1461.88,454.282 
  1463.7,454.281 1465.52,454.28 1467.33,454.278 1469.15,454.277 1470.97,454.276 1472.79,454.274 1474.61,454.273 1476.42,454.271 1478.24,454.27 1480.06,454.268 
  1481.88,454.266 1483.7,454.264 1485.52,454.262 1487.33,454.26 1489.15,454.258 1490.97,454.255 1492.79,454.253 1494.61,454.25 1496.42,454.248 1498.24,454.245 
  1500.06,454.242 1501.88,454.239 1503.7,454.236 1505.51,454.233 1507.33,454.23 1509.15,454.227 1510.97,454.223 1512.79,454.22 1514.6,454.216 1516.42,454.212 
  1518.24,454.209 1520.06,454.205 1521.88,454.2 1523.69,454.196 1525.51,454.192 1527.33,454.187 1529.15,454.182 1530.97,454.177 1532.78,454.172 1534.6,454.167 
  1536.42,454.162 1538.24,454.156 1540.06,454.151 1541.87,454.145 1543.69,454.139 1545.51,454.132 1547.33,454.126 1549.15,454.119 1550.97,454.112 1552.78,454.105 
  1554.6,454.098 1556.42,454.09 1558.24,454.083 1560.06,454.074 1561.87,454.066 1563.69,454.058 1565.51,454.049 1567.33,454.04 1569.15,454.031 1570.96,454.021 
  1572.78,454.011 1574.6,454.001 1576.42,453.99 1578.24,453.979 1580.05,453.968 1581.87,453.957 1583.69,453.945 1585.51,453.933 1587.33,453.92 1589.14,453.907 
  1590.96,453.894 1592.78,453.88 1594.6,453.865 1596.42,453.851 1598.23,453.836 1600.05,453.82 1601.87,453.804 1603.69,453.787 1605.51,453.77 1607.33,453.753 
  1609.14,453.735 1610.96,453.716 1612.78,453.697 1614.6,453.677 1616.42,453.656 1618.23,453.635 1620.05,453.614 1621.87,453.591 1623.69,453.568 1625.51,453.545 
  1627.32,453.52 1629.14,453.495 1630.96,453.469 1632.78,453.442 1634.6,453.414 1636.41,453.386 1638.23,453.357 1640.05,453.326 1641.87,453.295 1643.69,453.263 
  1645.5,453.23 1647.32,453.196 1649.14,453.161 1650.96,453.125 1652.78,453.088 1654.59,453.049 1656.41,453.01 1658.23,452.969 1660.05,452.927 1661.87,452.883 
  1663.68,452.839 1665.5,452.793 1667.32,452.745 1669.14,452.696 1670.96,452.646 1672.78,452.594 1674.59,452.541 1676.41,452.486 1678.23,452.429 1680.05,452.37 
  1681.87,452.31 1683.68,452.248 1685.5,452.184 1687.32,452.118 1689.14,452.05 1690.96,451.98 1692.77,451.908 1694.59,451.833 1696.41,451.757 1698.23,451.678 
  1700.05,451.596 1701.86,451.512 1703.68,451.426 1705.5,451.337 1707.32,451.245 1709.14,451.151 1710.95,451.053 1712.77,450.953 1714.59,450.849 1716.41,450.742 
  1718.23,450.633 1720.04,450.519 1721.86,450.403 1723.68,450.282 1725.5,450.158 1727.32,450.031 1729.13,449.899 1730.95,449.763 1732.77,449.624 1734.59,449.48 
  1736.41,449.331 1738.23,449.178 1740.04,449.021 1741.86,448.858 1743.68,448.691 1745.5,448.518 1747.32,448.341 1749.13,448.158 1750.95,447.969 1752.77,447.774 
  1754.59,447.574 1756.41,447.368 1758.22,447.155 1760.04,446.935 1761.86,446.709 1763.68,446.477 1765.5,446.237 1767.31,445.989 1769.13,445.735 1770.95,445.472 
  1772.77,445.201 1774.59,444.922 1776.4,444.635 1778.22,444.339 1780.04,444.034 1781.86,443.72 1783.68,443.395 1785.49,443.062 1787.31,442.718 1789.13,442.363 
  1790.95,441.998 1792.77,441.621 1794.58,441.233 1796.4,440.833 1798.22,440.421 1800.04,439.997 1801.86,439.559 1803.68,439.108 1805.49,438.644 1807.31,438.165 
  1809.13,437.672 1810.95,437.163 1812.77,436.639 1814.58,436.1 1816.4,435.543 1818.22,434.97 1820.04,434.379 1821.86,433.771 1823.67,433.143 1825.49,432.497 
  1827.31,431.831 1829.13,431.144 1830.95,430.437 1832.76,429.708 1834.58,428.957 1836.4,428.183 1838.22,427.385 1840.04,426.563 1841.85,425.716 1843.67,424.843 
  1845.49,423.944 1847.31,423.017 1849.13,422.062 1850.94,421.078 1852.76,420.063 1854.58,419.018 1856.4,417.941 1858.22,416.831 1860.03,415.688 1861.85,414.509 
  1863.67,413.295 1865.49,412.043 1867.31,410.753 1869.13,409.424 1870.94,408.055 1872.76,406.644 1874.58,405.189 1876.4,403.691 1878.22,402.146 1880.03,400.555 
  1881.85,398.915 1883.67,397.225 1885.49,395.484 1887.31,393.689 1889.12,391.84 1890.94,389.935 1892.76,387.971 1894.58,385.947 1896.4,383.862 1898.21,381.713 
  1900.03,379.499 1901.85,377.217 1903.67,374.866 1905.49,372.443 1907.3,369.946 1909.12,367.373 1910.94,364.722 1912.76,361.989 1914.58,359.174 1916.39,356.272 
  1918.21,353.282 1920.03,350.202 1921.85,347.027 1923.67,343.755 1925.49,340.384 1927.3,336.909 1929.12,333.329 1930.94,329.64 1932.76,325.839 1934.58,321.922 
  1936.39,317.885 1938.21,313.726 1940.03,309.44 1941.85,305.024 1943.67,300.473 1945.48,295.785 1947.3,290.955 1949.12,285.979 1950.94,280.855 1952.76,275.577 
  
  "/>
<polyline clip-path="url(#clip342)" style="stroke:#e26f46; stroke-linecap:butt; stroke-linejoin:round; stroke-width:8; stroke-opacity:1; fill:none" points="
  136.517,442.491 138.335,434.221 140.153,420.103 141.971,396.578 143.789,359.395 145.607,305.894 147.425,239.33 149.243,171.229 151.061,116.079 152.879,82.1651 
  154.697,68.8949 156.515,70.9351 158.333,82.5644 160.152,99.4891 161.97,118.935 163.788,139.248 165.606,159.481 167.424,179.114 169.242,197.873 171.06,215.628 
  172.878,232.33 174.696,247.981 176.514,262.606 178.332,276.249 180.15,288.958 181.968,300.787 183.786,311.788 185.604,322.015 187.422,331.518 189.24,340.346 
  191.059,348.546 192.877,356.16 194.695,363.229 196.513,369.791 198.331,375.883 200.149,381.538 201.967,386.786 203.785,391.657 205.603,396.177 207.421,400.372 
  209.239,404.265 211.057,407.877 212.875,411.229 214.693,414.34 216.511,417.226 218.329,419.904 220.147,422.389 221.965,424.695 223.784,426.835 225.602,428.82 
  227.42,430.662 229.238,432.371 231.056,433.957 232.874,435.428 234.692,436.793 236.51,438.06 238.328,439.235 240.146,440.325 241.964,441.337 243.782,442.275 
  245.6,443.146 247.418,443.954 249.236,444.704 251.054,445.4 252.872,446.045 254.691,446.644 256.509,447.199 258.327,447.715 260.145,448.193 261.963,448.637 
  263.781,449.049 265.599,449.431 267.417,449.785 269.235,450.114 271.053,450.419 272.871,450.702 274.689,450.965 276.507,451.209 278.325,451.435 280.143,451.645 
  281.961,451.84 283.779,452.02 285.597,452.188 287.416,452.344 289.234,452.488 291.052,452.622 292.87,452.746 294.688,452.861 296.506,452.968 298.324,453.068 
  300.142,453.16 301.96,453.245 303.778,453.324 305.596,453.398 307.414,453.466 309.232,453.53 311.05,453.589 312.868,453.643 314.686,453.694 316.504,453.741 
  318.323,453.784 320.141,453.825 321.959,453.862 323.777,453.897 325.595,453.93 327.413,453.96 329.231,453.987 331.049,454.013 332.867,454.037 334.685,454.06 
  336.503,454.08 338.321,454.099 340.139,454.117 341.957,454.134 343.775,454.149 345.593,454.163 347.411,454.176 349.229,454.189 351.048,454.2 352.866,454.211 
  354.684,454.22 356.502,454.23 358.32,454.238 360.138,454.246 361.956,454.253 363.774,454.26 365.592,454.266 367.41,454.272 369.228,454.277 371.046,454.282 
  372.864,454.287 374.682,454.291 376.5,454.295 378.318,454.299 380.136,454.303 381.955,454.306 383.773,454.309 385.591,454.312 387.409,454.314 389.227,454.317 
  391.045,454.319 392.863,454.321 394.681,454.323 396.499,454.325 398.317,454.326 400.135,454.328 401.953,454.329 403.771,454.33 405.589,454.332 407.407,454.333 
  409.225,454.334 411.043,454.335 412.861,454.336 414.68,454.337 416.498,454.337 418.316,454.338 420.134,454.339 421.952,454.34 423.77,454.34 425.588,454.341 
  427.406,454.341 429.224,454.342 431.042,454.342 432.86,454.342 434.678,454.343 436.496,454.343 438.314,454.344 440.132,454.344 441.95,454.344 443.768,454.344 
  445.587,454.345 447.405,454.345 449.223,454.345 451.041,454.345 452.859,454.345 454.677,454.346 456.495,454.346 458.313,454.346 460.131,454.346 461.949,454.346 
  463.767,454.346 465.585,454.346 467.403,454.347 469.221,454.347 471.039,454.347 472.857,454.347 474.675,454.347 476.493,454.347 478.312,454.347 480.13,454.347 
  481.948,454.347 483.766,454.347 485.584,454.347 487.402,454.347 489.22,454.347 491.038,454.347 492.856,454.347 494.674,454.347 496.492,454.348 498.31,454.348 
  500.128,454.348 501.946,454.348 503.764,454.348 505.582,454.348 507.4,454.348 509.219,454.348 511.037,454.348 512.855,454.348 514.673,454.348 516.491,454.348 
  518.309,454.348 520.127,454.348 521.945,454.348 523.763,454.348 525.581,454.348 527.399,454.348 529.217,454.348 531.035,454.348 532.853,454.348 534.671,454.348 
  536.489,454.348 538.307,454.348 540.125,454.348 541.944,454.348 543.762,454.348 545.58,454.348 547.398,454.348 549.216,454.348 551.034,454.348 552.852,454.348 
  554.67,454.348 556.488,454.348 558.306,454.348 560.124,454.348 561.942,454.348 563.76,454.348 565.578,454.348 567.396,454.348 569.214,454.348 571.032,454.348 
  572.851,454.348 574.669,454.348 576.487,454.348 578.305,454.348 580.123,454.348 581.941,454.348 583.759,454.348 585.577,454.348 587.395,454.348 589.213,454.348 
  591.031,454.348 592.849,454.348 594.667,454.348 596.485,454.348 598.303,454.348 600.121,454.348 601.939,454.348 603.757,454.348 605.576,454.348 607.394,454.348 
  609.212,454.348 611.03,454.348 612.848,454.348 614.666,454.348 616.484,454.348 618.302,454.348 620.12,454.348 621.938,454.348 623.756,454.348 625.574,454.348 
  627.392,454.348 629.21,454.348 631.028,454.348 632.846,454.348 634.664,454.348 636.483,454.348 638.301,454.348 640.119,454.348 641.937,454.348 643.755,454.348 
  645.573,454.348 647.391,454.348 649.209,454.348 651.027,454.348 652.845,454.348 654.663,454.348 656.481,454.348 658.299,454.348 660.117,454.348 661.935,454.348 
  663.753,454.348 665.571,454.348 667.389,454.348 669.208,454.348 671.026,454.348 672.844,454.348 674.662,454.348 676.48,454.348 678.298,454.348 680.116,454.348 
  681.934,454.348 683.752,454.348 685.57,454.348 687.388,454.347 689.206,454.347 691.024,454.347 692.842,454.347 694.66,454.347 696.478,454.347 698.296,454.346 
  700.115,454.346 701.933,454.345 703.751,454.345 705.569,454.344 707.387,454.342 709.205,454.34 711.023,454.338 712.841,454.334 714.659,454.329 716.477,454.322 
  718.295,454.311 720.113,454.297 721.931,454.276 723.749,454.244 725.567,454.194 727.385,454.12 729.203,454.004 731.021,453.821 732.84,453.52 734.658,453.052 
  736.476,452.287 738.294,450.992 740.112,448.801 741.93,445.074 743.748,438.643 745.566,427.31 747.384,408.838 749.202,378.764 751.02,332.519 752.838,270.04 
  754.656,198.813 756.474,134.764 758.292,90.5578 760.11,68.4712 761.928,64.4065 763.747,72.677 765.565,88.2277 767.383,107.257 769.201,127.665 771.019,148.308 
  772.837,168.53 774.655,187.909 776.473,206.294 778.291,223.615 780.109,239.861 781.927,255.05 783.745,269.225 785.563,282.432 787.381,294.726 789.199,306.162 
  791.017,316.793 792.835,326.672 794.653,335.85 796.472,344.374 798.29,352.289 800.108,359.638 801.926,366.46 803.744,372.793 805.562,378.671 807.38,384.127 
  809.198,389.191 811.016,393.889 812.834,398.25 814.652,402.297 816.47,406.052 818.288,409.536 820.106,412.769 821.924,415.77 823.742,418.553 825.56,421.136 
  827.379,423.533 829.197,425.757 831.015,427.82 832.833,429.735 834.651,431.511 836.469,433.159 838.287,434.688 840.105,436.107 841.923,437.423 843.741,438.645 
  845.559,439.778 847.377,440.829 849.195,441.805 851.013,442.71 852.831,443.549 854.649,444.329 856.467,445.051 858.285,445.722 860.104,446.344 861.922,446.922 
  863.74,447.457 865.558,447.954 867.376,448.416 869.194,448.843 871.012,449.24 872.83,449.609 874.648,449.95 876.466,450.267 878.284,450.562 880.102,450.835 
  881.92,451.088 883.738,451.323 885.556,451.541 887.374,451.743 889.192,451.931 891.011,452.105 892.829,452.267 894.647,452.416 896.465,452.556 898.283,452.685 
  900.101,452.804 901.919,452.916 903.737,453.019 905.555,453.114 907.373,453.203 909.191,453.286 911.009,453.362 912.827,453.433 914.645,453.499 916.463,453.56 
  918.281,453.616 920.099,453.669 921.917,453.718 923.736,453.763 925.554,453.805 927.372,453.844 929.19,453.88 931.008,453.914 932.826,453.945 934.644,453.974 
  936.462,454.001 938.28,454.026 940.098,454.049 941.916,454.07 943.734,454.09 945.552,454.109 947.37,454.126 949.188,454.142 951.006,454.157 952.824,454.17 
  954.643,454.183 956.461,454.195 958.279,454.206 960.097,454.216 961.915,454.225 963.733,454.234 965.551,454.242 967.369,454.25 969.187,454.257 971.005,454.263 
  972.823,454.269 974.641,454.275 976.459,454.28 978.277,454.285 980.095,454.289 981.913,454.294 983.731,454.297 985.549,454.301 987.368,454.304 989.186,454.308 
  991.004,454.31 992.822,454.313 994.64,454.316 996.458,454.318 998.276,454.32 1000.09,454.322 1001.91,454.324 1003.73,454.325 1005.55,454.327 1007.37,454.329 
  1009.18,454.33 1011,454.331 1012.82,454.332 1014.64,454.333 1016.46,454.335 1018.27,454.335 1020.09,454.336 1021.91,454.337 1023.73,454.338 1025.55,454.339 
  1027.36,454.339 1029.18,454.34 1031,454.34 1032.82,454.341 1034.64,454.341 1036.46,454.342 1038.27,454.342 1040.09,454.343 1041.91,454.343 1043.73,454.343 
  1045.55,454.344 1047.36,454.344 1049.18,454.344 1051,454.345 1052.82,454.345 1054.64,454.345 1056.45,454.345 1058.27,454.345 1060.09,454.346 1061.91,454.346 
  1063.73,454.346 1065.54,454.346 1067.36,454.346 1069.18,454.346 1071,454.346 1072.82,454.347 1074.63,454.347 1076.45,454.347 1078.27,454.347 1080.09,454.347 
  1081.91,454.347 1083.72,454.347 1085.54,454.347 1087.36,454.347 1089.18,454.347 1091,454.347 1092.81,454.347 1094.63,454.347 1096.45,454.347 1098.27,454.347 
  1100.09,454.347 1101.91,454.348 1103.72,454.348 1105.54,454.348 1107.36,454.348 1109.18,454.348 1111,454.348 1112.81,454.348 1114.63,454.348 1116.45,454.348 
  1118.27,454.348 1120.09,454.348 1121.9,454.348 1123.72,454.348 1125.54,454.348 1127.36,454.348 1129.18,454.348 1130.99,454.348 1132.81,454.348 1134.63,454.348 
  1136.45,454.348 1138.27,454.348 1140.08,454.348 1141.9,454.348 1143.72,454.348 1145.54,454.348 1147.36,454.348 1149.17,454.348 1150.99,454.348 1152.81,454.348 
  1154.63,454.348 1156.45,454.348 1158.26,454.348 1160.08,454.348 1161.9,454.348 1163.72,454.348 1165.54,454.348 1167.36,454.348 1169.17,454.348 1170.99,454.348 
  1172.81,454.348 1174.63,454.348 1176.45,454.348 1178.26,454.348 1180.08,454.348 1181.9,454.348 1183.72,454.348 1185.54,454.348 1187.35,454.348 1189.17,454.348 
  1190.99,454.348 1192.81,454.348 1194.63,454.348 1196.44,454.348 1198.26,454.348 1200.08,454.348 1201.9,454.348 1203.72,454.348 1205.53,454.348 1207.35,454.348 
  1209.17,454.348 1210.99,454.348 1212.81,454.348 1214.62,454.348 1216.44,454.348 1218.26,454.348 1220.08,454.348 1221.9,454.348 1223.71,454.348 1225.53,454.348 
  1227.35,454.348 1229.17,454.348 1230.99,454.348 1232.81,454.348 1234.62,454.348 1236.44,454.348 1238.26,454.348 1240.08,454.348 1241.9,454.348 1243.71,454.348 
  1245.53,454.348 1247.35,454.348 1249.17,454.348 1250.99,454.348 1252.8,454.348 1254.62,454.348 1256.44,454.348 1258.26,454.348 1260.08,454.348 1261.89,454.348 
  1263.71,454.348 1265.53,454.348 1267.35,454.348 1269.17,454.348 1270.98,454.348 1272.8,454.348 1274.62,454.348 1276.44,454.348 1278.26,454.348 1280.07,454.348 
  1281.89,454.348 1283.71,454.348 1285.53,454.348 1287.35,454.348 1289.17,454.348 1290.98,454.348 1292.8,454.348 1294.62,454.348 1296.44,454.348 1298.26,454.348 
  1300.07,454.348 1301.89,454.347 1303.71,454.347 1305.53,454.347 1307.35,454.347 1309.16,454.347 1310.98,454.346 1312.8,454.346 1314.62,454.346 1316.44,454.345 
  1318.25,454.344 1320.07,454.343 1321.89,454.341 1323.71,454.338 1325.53,454.335 1327.34,454.33 1329.16,454.323 1330.98,454.313 1332.8,454.298 1334.62,454.276 
  1336.43,454.242 1338.25,454.191 1340.07,454.112 1341.89,453.984 1343.71,453.784 1345.52,453.471 1347.34,452.95 1349.16,452.076 1350.98,450.607 1352.8,448.097 
  1354.62,443.661 1356.43,436.106 1358.25,423.488 1360.07,401.492 1361.89,365.289 1363.71,312.086 1365.52,244.112 1367.34,172.356 1369.16,112.929 1370.98,75.0355 
  1372.8,59.1015 1374.61,60.1606 1376.43,71.9843 1378.25,89.4123 1380.07,109.488 1381.89,130.558 1383.7,151.478 1385.52,171.745 1387.34,191.085 1389.16,209.372 
  1390.98,226.56 1392.79,242.654 1394.61,257.687 1396.43,271.703 1398.25,284.756 1400.07,296.9 1401.88,308.192 1403.7,318.687 1405.52,328.438 1407.34,337.495 
  1409.16,345.906 1410.97,353.715 1412.79,360.964 1414.61,367.694 1416.43,373.94 1418.25,379.738 1420.07,385.119 1421.88,390.112 1423.7,394.746 1425.52,399.046 
  1427.34,403.036 1429.16,406.739 1430.97,410.174 1432.79,413.362 1434.61,416.32 1436.43,419.065 1438.25,421.611 1440.06,423.974 1441.88,426.167 1443.7,428.201 
  1445.52,430.088 1447.34,431.839 1449.15,433.464 1450.97,434.971 1452.79,436.37 1454.61,437.668 1456.43,438.872 1458.24,439.989 1460.06,441.025 1461.88,441.987 
  1463.7,442.879 1465.52,443.706 1467.33,444.474 1469.15,445.187 1470.97,445.848 1472.79,446.461 1474.61,447.03 1476.42,447.558 1478.24,448.048 1480.06,448.503 
  1481.88,448.924 1483.7,449.315 1485.52,449.678 1487.33,450.015 1489.15,450.328 1490.97,450.618 1492.79,450.887 1494.61,451.136 1496.42,451.368 1498.24,451.583 
  1500.06,451.782 1501.88,451.967 1503.7,452.138 1505.51,452.298 1507.33,452.445 1509.15,452.583 1510.97,452.71 1512.79,452.828 1514.6,452.937 1516.42,453.039 
  1518.24,453.133 1520.06,453.221 1521.88,453.302 1523.69,453.377 1525.51,453.447 1527.33,453.512 1529.15,453.572 1530.97,453.628 1532.78,453.68 1534.6,453.728 
  1536.42,453.772 1538.24,453.814 1540.06,453.852 1541.87,453.888 1543.69,453.921 1545.51,453.951 1547.33,453.98 1549.15,454.006 1550.97,454.031 1552.78,454.054 
  1554.6,454.075 1556.42,454.094 1558.24,454.113 1560.06,454.129 1561.87,454.145 1563.69,454.16 1565.51,454.173 1567.33,454.186 1569.15,454.197 1570.96,454.208 
  1572.78,454.218 1574.6,454.227 1576.42,454.236 1578.24,454.244 1580.05,454.251 1581.87,454.258 1583.69,454.265 1585.51,454.271 1587.33,454.276 1589.14,454.281 
  1590.96,454.286 1592.78,454.29 1594.6,454.295 1596.42,454.298 1598.23,454.302 1600.05,454.305 1601.87,454.308 1603.69,454.311 1605.51,454.314 1607.33,454.316 
  1609.14,454.318 1610.96,454.32 1612.78,454.322 1614.6,454.324 1616.42,454.326 1618.23,454.327 1620.05,454.329 1621.87,454.33 1623.69,454.332 1625.51,454.333 
  1627.32,454.334 1629.14,454.335 1630.96,454.336 1632.78,454.337 1634.6,454.337 1636.41,454.338 1638.23,454.339 1640.05,454.339 1641.87,454.34 1643.69,454.341 
  1645.5,454.341 1647.32,454.342 1649.14,454.342 1650.96,454.342 1652.78,454.343 1654.59,454.343 1656.41,454.344 1658.23,454.344 1660.05,454.344 1661.87,454.344 
  1663.68,454.345 1665.5,454.345 1667.32,454.345 1669.14,454.345 1670.96,454.345 1672.78,454.346 1674.59,454.346 1676.41,454.346 1678.23,454.346 1680.05,454.346 
  1681.87,454.346 1683.68,454.346 1685.5,454.347 1687.32,454.347 1689.14,454.347 1690.96,454.347 1692.77,454.347 1694.59,454.347 1696.41,454.347 1698.23,454.347 
  1700.05,454.347 1701.86,454.347 1703.68,454.347 1705.5,454.347 1707.32,454.347 1709.14,454.347 1710.95,454.347 1712.77,454.347 1714.59,454.348 1716.41,454.348 
  1718.23,454.348 1720.04,454.348 1721.86,454.348 1723.68,454.348 1725.5,454.348 1727.32,454.348 1729.13,454.348 1730.95,454.348 1732.77,454.348 1734.59,454.348 
  1736.41,454.348 1738.23,454.348 1740.04,454.348 1741.86,454.348 1743.68,454.348 1745.5,454.348 1747.32,454.348 1749.13,454.348 1750.95,454.348 1752.77,454.348 
  1754.59,454.348 1756.41,454.348 1758.22,454.348 1760.04,454.348 1761.86,454.348 1763.68,454.348 1765.5,454.348 1767.31,454.348 1769.13,454.348 1770.95,454.348 
  1772.77,454.348 1774.59,454.348 1776.4,454.348 1778.22,454.348 1780.04,454.348 1781.86,454.348 1783.68,454.348 1785.49,454.348 1787.31,454.348 1789.13,454.348 
  1790.95,454.348 1792.77,454.348 1794.58,454.348 1796.4,454.348 1798.22,454.348 1800.04,454.348 1801.86,454.348 1803.68,454.348 1805.49,454.348 1807.31,454.348 
  1809.13,454.348 1810.95,454.348 1812.77,454.348 1814.58,454.348 1816.4,454.348 1818.22,454.348 1820.04,454.348 1821.86,454.348 1823.67,454.348 1825.49,454.348 
  1827.31,454.348 1829.13,454.348 1830.95,454.348 1832.76,454.348 1834.58,454.348 1836.4,454.348 1838.22,454.348 1840.04,454.348 1841.85,454.348 1843.67,454.348 
  1845.49,454.348 1847.31,454.348 1849.13,454.348 1850.94,454.348 1852.76,454.348 1854.58,454.348 1856.4,454.348 1858.22,454.348 1860.03,454.348 1861.85,454.348 
  1863.67,454.348 1865.49,454.348 1867.31,454.348 1869.13,454.348 1870.94,454.348 1872.76,454.348 1874.58,454.348 1876.4,454.348 1878.22,454.348 1880.03,454.348 
  1881.85,454.348 1883.67,454.348 1885.49,454.348 1887.31,454.348 1889.12,454.348 1890.94,454.348 1892.76,454.348 1894.58,454.348 1896.4,454.348 1898.21,454.348 
  1900.03,454.348 1901.85,454.348 1903.67,454.348 1905.49,454.348 1907.3,454.348 1909.12,454.348 1910.94,454.348 1912.76,454.348 1914.58,454.348 1916.39,454.348 
  1918.21,454.348 1920.03,454.348 1921.85,454.347 1923.67,454.347 1925.49,454.347 1927.3,454.347 1929.12,454.347 1930.94,454.346 1932.76,454.346 1934.58,454.345 
  1936.39,454.344 1938.21,454.343 1940.03,454.342 1941.85,454.34 1943.67,454.337 1945.48,454.332 1947.3,454.326 1949.12,454.317 1950.94,454.304 1952.76,454.285 
  
  "/>
<path clip-path="url(#clip340)" d="
M1591.45 212.109 L1892.21 212.109 L1892.21 61.2095 L1591.45 61.2095  Z
  " fill="#ffffff" fill-rule="evenodd" fill-opacity="1"/>
<polyline clip-path="url(#clip340)" style="stroke:#000000; stroke-linecap:butt; stroke-linejoin:round; stroke-width:4; stroke-opacity:1; fill:none" points="
  1591.45,212.109 1892.21,212.109 1892.21,61.2095 1591.45,61.2095 1591.45,212.109 
  "/>
<polyline clip-path="url(#clip340)" style="stroke:#009af9; stroke-linecap:butt; stroke-linejoin:round; stroke-width:4; stroke-opacity:1; fill:none" points="
  1611.63,111.509 1732.71,111.509 
  "/>
<g clip-path="url(#clip340)">
<text style="fill:#000000; fill-opacity:1; font-family:Arial,Helvetica Neue,Helvetica,sans-serif; font-size:48px; text-anchor:start;" transform="rotate(0, 1752.89, 129.009)" x="1752.89" y="129.009">u1(t)</text>
</g>
<polyline clip-path="url(#clip340)" style="stroke:#e26f46; stroke-linecap:butt; stroke-linejoin:round; stroke-width:4; stroke-opacity:1; fill:none" points="
  1611.63,161.809 1732.71,161.809 
  "/>
<g clip-path="url(#clip340)">
<text style="fill:#000000; fill-opacity:1; font-family:Arial,Helvetica Neue,Helvetica,sans-serif; font-size:48px; text-anchor:start;" transform="rotate(0, 1752.89, 179.309)" x="1752.89" y="179.309">u2(t)</text>
</g>
<path clip-path="url(#clip340)" d="
M136.517 1094.83 L1952.76 1094.83 L1952.76 675.867 L136.517 675.867  Z
  " fill="#ffffff" fill-rule="evenodd" fill-opacity="1"/>
<defs>
  <clipPath id="clip343">
    <rect x="136" y="675" width="1817" height="420"/>
  </clipPath>
</defs>
<polyline clip-path="url(#clip343)" style="stroke:#000000; stroke-linecap:butt; stroke-linejoin:round; stroke-width:2; stroke-opacity:0.1; fill:none" points="
  187.92,1094.83 187.92,675.867 
  "/>
<polyline clip-path="url(#clip343)" style="stroke:#000000; stroke-linecap:butt; stroke-linejoin:round; stroke-width:2; stroke-opacity:0.1; fill:none" points="
  759.064,1094.83 759.064,675.867 
  "/>
<polyline clip-path="url(#clip343)" style="stroke:#000000; stroke-linecap:butt; stroke-linejoin:round; stroke-width:2; stroke-opacity:0.1; fill:none" points="
  1330.21,1094.83 1330.21,675.867 
  "/>
<polyline clip-path="url(#clip343)" style="stroke:#000000; stroke-linecap:butt; stroke-linejoin:round; stroke-width:2; stroke-opacity:0.1; fill:none" points="
  1901.35,1094.83 1901.35,675.867 
  "/>
<polyline clip-path="url(#clip340)" style="stroke:#000000; stroke-linecap:butt; stroke-linejoin:round; stroke-width:4; stroke-opacity:1; fill:none" points="
  136.517,1094.83 1952.76,1094.83 
  "/>
<polyline clip-path="url(#clip340)" style="stroke:#000000; stroke-linecap:butt; stroke-linejoin:round; stroke-width:4; stroke-opacity:1; fill:none" points="
  187.92,1094.83 187.92,1075.93 
  "/>
<polyline clip-path="url(#clip340)" style="stroke:#000000; stroke-linecap:butt; stroke-linejoin:round; stroke-width:4; stroke-opacity:1; fill:none" points="
  759.064,1094.83 759.064,1075.93 
  "/>
<polyline clip-path="url(#clip340)" style="stroke:#000000; stroke-linecap:butt; stroke-linejoin:round; stroke-width:4; stroke-opacity:1; fill:none" points="
  1330.21,1094.83 1330.21,1075.93 
  "/>
<polyline clip-path="url(#clip340)" style="stroke:#000000; stroke-linecap:butt; stroke-linejoin:round; stroke-width:4; stroke-opacity:1; fill:none" points="
  1901.35,1094.83 1901.35,1075.93 
  "/>
<g clip-path="url(#clip340)">
<text style="fill:#000000; fill-opacity:1; font-family:Arial,Helvetica Neue,Helvetica,sans-serif; font-size:48px; text-anchor:middle;" transform="rotate(0, 187.92, 1153.48)" x="187.92" y="1153.48">0</text>
</g>
<g clip-path="url(#clip340)">
<text style="fill:#000000; fill-opacity:1; font-family:Arial,Helvetica Neue,Helvetica,sans-serif; font-size:48px; text-anchor:middle;" transform="rotate(0, 759.064, 1153.48)" x="759.064" y="1153.48">50</text>
</g>
<g clip-path="url(#clip340)">
<text style="fill:#000000; fill-opacity:1; font-family:Arial,Helvetica Neue,Helvetica,sans-serif; font-size:48px; text-anchor:middle;" transform="rotate(0, 1330.21, 1153.48)" x="1330.21" y="1153.48">100</text>
</g>
<g clip-path="url(#clip340)">
<text style="fill:#000000; fill-opacity:1; font-family:Arial,Helvetica Neue,Helvetica,sans-serif; font-size:48px; text-anchor:middle;" transform="rotate(0, 1901.35, 1153.48)" x="1901.35" y="1153.48">150</text>
</g>
<polyline clip-path="url(#clip343)" style="stroke:#000000; stroke-linecap:butt; stroke-linejoin:round; stroke-width:2; stroke-opacity:0.1; fill:none" points="
  136.517,1087.27 1952.76,1087.27 
  "/>
<polyline clip-path="url(#clip343)" style="stroke:#000000; stroke-linecap:butt; stroke-linejoin:round; stroke-width:2; stroke-opacity:0.1; fill:none" points="
  136.517,1020.64 1952.76,1020.64 
  "/>
<polyline clip-path="url(#clip343)" style="stroke:#000000; stroke-linecap:butt; stroke-linejoin:round; stroke-width:2; stroke-opacity:0.1; fill:none" points="
  136.517,954.01 1952.76,954.01 
  "/>
<polyline clip-path="url(#clip343)" style="stroke:#000000; stroke-linecap:butt; stroke-linejoin:round; stroke-width:2; stroke-opacity:0.1; fill:none" points="
  136.517,887.381 1952.76,887.381 
  "/>
<polyline clip-path="url(#clip343)" style="stroke:#000000; stroke-linecap:butt; stroke-linejoin:round; stroke-width:2; stroke-opacity:0.1; fill:none" points="
  136.517,820.751 1952.76,820.751 
  "/>
<polyline clip-path="url(#clip343)" style="stroke:#000000; stroke-linecap:butt; stroke-linejoin:round; stroke-width:2; stroke-opacity:0.1; fill:none" points="
  136.517,754.121 1952.76,754.121 
  "/>
<polyline clip-path="url(#clip343)" style="stroke:#000000; stroke-linecap:butt; stroke-linejoin:round; stroke-width:2; stroke-opacity:0.1; fill:none" points="
  136.517,687.492 1952.76,687.492 
  "/>
<polyline clip-path="url(#clip340)" style="stroke:#000000; stroke-linecap:butt; stroke-linejoin:round; stroke-width:4; stroke-opacity:1; fill:none" points="
  136.517,1094.83 136.517,675.867 
  "/>
<polyline clip-path="url(#clip340)" style="stroke:#000000; stroke-linecap:butt; stroke-linejoin:round; stroke-width:4; stroke-opacity:1; fill:none" points="
  136.517,1087.27 155.414,1087.27 
  "/>
<polyline clip-path="url(#clip340)" style="stroke:#000000; stroke-linecap:butt; stroke-linejoin:round; stroke-width:4; stroke-opacity:1; fill:none" points="
  136.517,1020.64 155.414,1020.64 
  "/>
<polyline clip-path="url(#clip340)" style="stroke:#000000; stroke-linecap:butt; stroke-linejoin:round; stroke-width:4; stroke-opacity:1; fill:none" points="
  136.517,954.01 155.414,954.01 
  "/>
<polyline clip-path="url(#clip340)" style="stroke:#000000; stroke-linecap:butt; stroke-linejoin:round; stroke-width:4; stroke-opacity:1; fill:none" points="
  136.517,887.381 155.414,887.381 
  "/>
<polyline clip-path="url(#clip340)" style="stroke:#000000; stroke-linecap:butt; stroke-linejoin:round; stroke-width:4; stroke-opacity:1; fill:none" points="
  136.517,820.751 155.414,820.751 
  "/>
<polyline clip-path="url(#clip340)" style="stroke:#000000; stroke-linecap:butt; stroke-linejoin:round; stroke-width:4; stroke-opacity:1; fill:none" points="
  136.517,754.121 155.414,754.121 
  "/>
<polyline clip-path="url(#clip340)" style="stroke:#000000; stroke-linecap:butt; stroke-linejoin:round; stroke-width:4; stroke-opacity:1; fill:none" points="
  136.517,687.492 155.414,687.492 
  "/>
<g clip-path="url(#clip340)">
<text style="fill:#000000; fill-opacity:1; font-family:Arial,Helvetica Neue,Helvetica,sans-serif; font-size:48px; text-anchor:middle;" transform="rotate(0, 93.1356, 1104.77)" x="93.1356" y="1104.77">0</text>
</g>
<g clip-path="url(#clip340)">
<text style="fill:#000000; fill-opacity:1; font-family:Arial,Helvetica Neue,Helvetica,sans-serif; font-size:48px; text-anchor:middle;" transform="rotate(0, 93.1356, 1038.14)" x="93.1356" y="1038.14">1</text>
</g>
<g clip-path="url(#clip340)">
<text style="fill:#000000; fill-opacity:1; font-family:Arial,Helvetica Neue,Helvetica,sans-serif; font-size:48px; text-anchor:middle;" transform="rotate(0, 93.1356, 971.51)" x="93.1356" y="971.51">2</text>
</g>
<g clip-path="url(#clip340)">
<text style="fill:#000000; fill-opacity:1; font-family:Arial,Helvetica Neue,Helvetica,sans-serif; font-size:48px; text-anchor:middle;" transform="rotate(0, 93.1356, 904.881)" x="93.1356" y="904.881">3</text>
</g>
<g clip-path="url(#clip340)">
<text style="fill:#000000; fill-opacity:1; font-family:Arial,Helvetica Neue,Helvetica,sans-serif; font-size:48px; text-anchor:middle;" transform="rotate(0, 93.1356, 838.251)" x="93.1356" y="838.251">4</text>
</g>
<g clip-path="url(#clip340)">
<text style="fill:#000000; fill-opacity:1; font-family:Arial,Helvetica Neue,Helvetica,sans-serif; font-size:48px; text-anchor:middle;" transform="rotate(0, 93.1356, 771.621)" x="93.1356" y="771.621">5</text>
</g>
<g clip-path="url(#clip340)">
<text style="fill:#000000; fill-opacity:1; font-family:Arial,Helvetica Neue,Helvetica,sans-serif; font-size:48px; text-anchor:middle;" transform="rotate(0, 93.1356, 704.992)" x="93.1356" y="704.992">6</text>
</g>
<polyline clip-path="url(#clip343)" style="stroke:#009af9; stroke-linecap:butt; stroke-linejoin:round; stroke-width:8; stroke-opacity:1; fill:none" points="
  187.92,1082.97 188.657,1078.38 190.181,1075.7 192.165,1073.17 194.583,1070.52 197.455,1065.76 201.143,1064.42 205.06,1062.92 209.235,1062.92 213.41,1060.25 
  218.043,1056.84 223.26,1051.25 229.435,1043.05 237.016,1028.88 247.027,1002.74 261.519,993.441 277.605,979.111 296.148,968.687 316.477,958.987 338.47,951.183 
  361.8,944.218 386.325,938.299 411.864,932.736 438.357,926.77 465.873,918.256 494.848,903.121 526.418,875.679 562.693,827.649 607.202,735.824 667.453,836.779 
  710.397,953.376 733.351,996.672 748.883,1016.36 761.04,1022.54 772.137,1039.78 780.278,1044.03 787.691,1048.14 794.398,1040.92 802.344,1034.09 811.46,1015.41 
  823.78,987.93 840.81,983.172 858.657,967.059 879.265,960.177 901.054,950.779 924.454,944.742 948.888,938.466 974.399,933.419 1000.77,927.956 1028.09,921.054 
  1056.58,909.073 1087.13,886.943 1121.48,848.236 1162.46,778.01 1215.47,687.724 1283.97,940.109 1309.2,999.81 1324.2,1016.72 1336.29,1023.28 1347.26,1037.91 
  1355.72,1046.6 1362.69,1050.52 1368.99,1045.76 1376.11,1040.27 1384.17,1027.45 1394.42,1004.67 1408.59,985.893 1425.97,978.026 1444.69,964.351 1465.77,957.149 
  1488.07,948.639 1511.84,942.683 1536.63,936.794 1562.43,931.739 1589.09,925.967 1616.74,917.699 1645.81,902.598 1677.47,875.368 1713.8,828.596 1758.15,742.625 
  1817.23,788.349 1868.48,948.343 1892.3,1034.45 
  "/>
</svg>
