<?xml version="1.0" encoding="utf-8"?>
<svg xmlns="http://www.w3.org/2000/svg" xmlns:xlink="http://www.w3.org/1999/xlink" width="500" height="300" viewBox="0 0 2000 1200">
<defs>
  <clipPath id="clip500">
    <rect x="0" y="0" width="2000" height="1200"/>
  </clipPath>
</defs>
<path clip-path="url(#clip500)" d="
M0 1200 L2000 1200 L2000 0 L0 0  Z
  " fill="#ffffff" fill-rule="evenodd" fill-opacity="1"/>
<defs>
  <clipPath id="clip501">
    <rect x="400" y="0" width="1401" height="1200"/>
  </clipPath>
</defs>
<path clip-path="url(#clip500)" d="
M136.696 1035.39 L1952.76 1035.39 L1952.76 47.2441 L136.696 47.2441  Z
  " fill="#ffffff" fill-rule="evenodd" fill-opacity="1"/>
<defs>
  <clipPath id="clip502">
    <rect x="136" y="47" width="1817" height="989"/>
  </clipPath>
</defs>
<polyline clip-path="url(#clip502)" style="stroke:#000000; stroke-linecap:round; stroke-linejoin:round; stroke-width:2; stroke-opacity:0.1; fill:none" points="
  136.696,1035.39 136.696,47.2441 
  "/>
<polyline clip-path="url(#clip502)" style="stroke:#000000; stroke-linecap:round; stroke-linejoin:round; stroke-width:2; stroke-opacity:0.1; fill:none" points="
  742.049,1035.39 742.049,47.2441 
  "/>
<polyline clip-path="url(#clip502)" style="stroke:#000000; stroke-linecap:round; stroke-linejoin:round; stroke-width:2; stroke-opacity:0.1; fill:none" points="
  1347.4,1035.39 1347.4,47.2441 
  "/>
<polyline clip-path="url(#clip502)" style="stroke:#000000; stroke-linecap:round; stroke-linejoin:round; stroke-width:2; stroke-opacity:0.1; fill:none" points="
  1952.76,1035.39 1952.76,47.2441 
  "/>
<polyline clip-path="url(#clip500)" style="stroke:#000000; stroke-linecap:round; stroke-linejoin:round; stroke-width:4; stroke-opacity:1; fill:none" points="
  136.696,1035.39 1952.76,1035.39 
  "/>
<polyline clip-path="url(#clip500)" style="stroke:#000000; stroke-linecap:round; stroke-linejoin:round; stroke-width:4; stroke-opacity:1; fill:none" points="
  136.696,1035.39 136.696,1016.49 
  "/>
<polyline clip-path="url(#clip500)" style="stroke:#000000; stroke-linecap:round; stroke-linejoin:round; stroke-width:4; stroke-opacity:1; fill:none" points="
  742.049,1035.39 742.049,1016.49 
  "/>
<polyline clip-path="url(#clip500)" style="stroke:#000000; stroke-linecap:round; stroke-linejoin:round; stroke-width:4; stroke-opacity:1; fill:none" points="
  1347.4,1035.39 1347.4,1016.49 
  "/>
<polyline clip-path="url(#clip500)" style="stroke:#000000; stroke-linecap:round; stroke-linejoin:round; stroke-width:4; stroke-opacity:1; fill:none" points="
  1952.76,1035.39 1952.76,1016.49 
  "/>
<path clip-path="url(#clip500)" d="M136.696 1063.11 Q133.084 1063.11 131.256 1066.67 Q129.45 1070.21 129.45 1077.34 Q129.45 1084.45 131.256 1088.01 Q133.084 1091.56 136.696 1091.56 Q140.33 1091.56 142.135 1088.01 Q143.964 1084.45 143.964 1077.34 Q143.964 1070.21 142.135 1066.67 Q140.33 1063.11 136.696 1063.11 M136.696 1059.4 Q142.506 1059.4 145.561 1064.01 Q148.64 1068.59 148.64 1077.34 Q148.64 1086.07 145.561 1090.68 Q142.506 1095.26 136.696 1095.26 Q130.885 1095.26 127.807 1090.68 Q124.751 1086.07 124.751 1077.34 Q124.751 1068.59 127.807 1064.01 Q130.885 1059.4 136.696 1059.4 Z" fill="#000000" fill-rule="evenodd" fill-opacity="1" /><path clip-path="url(#clip500)" d="M732.431 1090.65 L740.07 1090.65 L740.07 1064.29 L731.76 1065.95 L731.76 1061.69 L740.024 1060.03 L744.699 1060.03 L744.699 1090.65 L752.338 1090.65 L752.338 1094.59 L732.431 1094.59 L732.431 1090.65 Z" fill="#000000" fill-rule="evenodd" fill-opacity="1" /><path clip-path="url(#clip500)" d="M1342.06 1090.65 L1358.37 1090.65 L1358.37 1094.59 L1336.43 1094.59 L1336.43 1090.65 Q1339.09 1087.9 1343.68 1083.27 Q1348.28 1078.62 1349.46 1077.27 Q1351.71 1074.75 1352.59 1073.01 Q1353.49 1071.25 1353.49 1069.56 Q1353.49 1066.81 1351.55 1065.07 Q1349.62 1063.34 1346.52 1063.34 Q1344.32 1063.34 1341.87 1064.1 Q1339.44 1064.87 1336.66 1066.42 L1336.66 1061.69 Q1339.49 1060.56 1341.94 1059.98 Q1344.39 1059.4 1346.43 1059.4 Q1351.8 1059.4 1355 1062.09 Q1358.19 1064.77 1358.19 1069.26 Q1358.19 1071.39 1357.38 1073.31 Q1356.59 1075.21 1354.49 1077.81 Q1353.91 1078.48 1350.81 1081.69 Q1347.7 1084.89 1342.06 1090.65 Z" fill="#000000" fill-rule="evenodd" fill-opacity="1" /><path clip-path="url(#clip500)" d="M1957 1075.95 Q1960.36 1076.67 1962.24 1078.94 Q1964.13 1081.21 1964.13 1084.54 Q1964.13 1089.66 1960.61 1092.46 Q1957.1 1095.26 1950.61 1095.26 Q1948.44 1095.26 1946.12 1094.82 Q1943.83 1094.4 1941.38 1093.55 L1941.38 1089.03 Q1943.32 1090.17 1945.64 1090.75 Q1947.95 1091.32 1950.48 1091.32 Q1954.87 1091.32 1957.17 1089.59 Q1959.48 1087.85 1959.48 1084.54 Q1959.48 1081.49 1957.33 1079.77 Q1955.2 1078.04 1951.38 1078.04 L1947.35 1078.04 L1947.35 1074.19 L1951.56 1074.19 Q1955.01 1074.19 1956.84 1072.83 Q1958.67 1071.44 1958.67 1068.85 Q1958.67 1066.19 1956.77 1064.77 Q1954.9 1063.34 1951.38 1063.34 Q1949.46 1063.34 1947.26 1063.75 Q1945.06 1064.17 1942.42 1065.05 L1942.42 1060.88 Q1945.08 1060.14 1947.4 1059.77 Q1949.74 1059.4 1951.8 1059.4 Q1957.12 1059.4 1960.22 1061.83 Q1963.32 1064.24 1963.32 1068.36 Q1963.32 1071.23 1961.68 1073.22 Q1960.04 1075.19 1957 1075.95 Z" fill="#000000" fill-rule="evenodd" fill-opacity="1" /><path clip-path="url(#clip500)" d="M1043.79 1128.48 L1043.79 1138.6 L1055.85 1138.6 L1055.85 1143.16 L1043.79 1143.16 L1043.79 1162.51 Q1043.79 1166.87 1044.96 1168.11 Q1046.17 1169.35 1049.83 1169.35 L1055.85 1169.35 L1055.85 1174.25 L1049.83 1174.25 Q1043.05 1174.25 1040.48 1171.74 Q1037.9 1169.19 1037.9 1162.51 L1037.9 1143.16 L1033.6 1143.16 L1033.6 1138.6 L1037.9 1138.6 L1037.9 1128.48 L1043.79 1128.48 Z" fill="#000000" fill-rule="evenodd" fill-opacity="1" /><polyline clip-path="url(#clip502)" style="stroke:#000000; stroke-linecap:round; stroke-linejoin:round; stroke-width:2; stroke-opacity:0.1; fill:none" points="
  136.696,1033.93 1952.76,1033.93 
  "/>
<polyline clip-path="url(#clip502)" style="stroke:#000000; stroke-linecap:round; stroke-linejoin:round; stroke-width:2; stroke-opacity:0.1; fill:none" points="
  136.696,768.856 1952.76,768.856 
  "/>
<polyline clip-path="url(#clip502)" style="stroke:#000000; stroke-linecap:round; stroke-linejoin:round; stroke-width:2; stroke-opacity:0.1; fill:none" points="
  136.696,503.783 1952.76,503.783 
  "/>
<polyline clip-path="url(#clip502)" style="stroke:#000000; stroke-linecap:round; stroke-linejoin:round; stroke-width:2; stroke-opacity:0.1; fill:none" points="
  136.696,238.71 1952.76,238.71 
  "/>
<polyline clip-path="url(#clip500)" style="stroke:#000000; stroke-linecap:round; stroke-linejoin:round; stroke-width:4; stroke-opacity:1; fill:none" points="
  136.696,1035.39 136.696,47.2441 
  "/>
<polyline clip-path="url(#clip500)" style="stroke:#000000; stroke-linecap:round; stroke-linejoin:round; stroke-width:4; stroke-opacity:1; fill:none" points="
  136.696,1033.93 155.593,1033.93 
  "/>
<polyline clip-path="url(#clip500)" style="stroke:#000000; stroke-linecap:round; stroke-linejoin:round; stroke-width:4; stroke-opacity:1; fill:none" points="
  136.696,768.856 155.593,768.856 
  "/>
<polyline clip-path="url(#clip500)" style="stroke:#000000; stroke-linecap:round; stroke-linejoin:round; stroke-width:4; stroke-opacity:1; fill:none" points="
  136.696,503.783 155.593,503.783 
  "/>
<polyline clip-path="url(#clip500)" style="stroke:#000000; stroke-linecap:round; stroke-linejoin:round; stroke-width:4; stroke-opacity:1; fill:none" points="
  136.696,238.71 155.593,238.71 
  "/>
<path clip-path="url(#clip500)" d="M94.7512 1019.73 Q91.1401 1019.73 89.3114 1023.29 Q87.5058 1026.83 87.5058 1033.96 Q87.5058 1041.07 89.3114 1044.63 Q91.1401 1048.18 94.7512 1048.18 Q98.3854 1048.18 100.191 1044.63 Q102.02 1041.07 102.02 1033.96 Q102.02 1026.83 100.191 1023.29 Q98.3854 1019.73 94.7512 1019.73 M94.7512 1016.02 Q100.561 1016.02 103.617 1020.63 Q106.696 1025.21 106.696 1033.96 Q106.696 1042.69 103.617 1047.3 Q100.561 1051.88 94.7512 1051.88 Q88.941 1051.88 85.8623 1047.3 Q82.8068 1042.69 82.8068 1033.96 Q82.8068 1025.21 85.8623 1020.63 Q88.941 1016.02 94.7512 1016.02 Z" fill="#000000" fill-rule="evenodd" fill-opacity="1" /><path clip-path="url(#clip500)" d="M55.3995 782.201 L63.0384 782.201 L63.0384 755.835 L54.7282 757.502 L54.7282 753.243 L62.9921 751.576 L67.668 751.576 L67.668 782.201 L75.3068 782.201 L75.3068 786.136 L55.3995 786.136 L55.3995 782.201 Z" fill="#000000" fill-rule="evenodd" fill-opacity="1" /><path clip-path="url(#clip500)" d="M94.7512 754.655 Q91.1401 754.655 89.3114 758.219 Q87.5058 761.761 87.5058 768.891 Q87.5058 775.997 89.3114 779.562 Q91.1401 783.104 94.7512 783.104 Q98.3854 783.104 100.191 779.562 Q102.02 775.997 102.02 768.891 Q102.02 761.761 100.191 758.219 Q98.3854 754.655 94.7512 754.655 M94.7512 750.951 Q100.561 750.951 103.617 755.557 Q106.696 760.141 106.696 768.891 Q106.696 777.618 103.617 782.224 Q100.561 786.807 94.7512 786.807 Q88.941 786.807 85.8623 782.224 Q82.8068 777.618 82.8068 768.891 Q82.8068 760.141 85.8623 755.557 Q88.941 750.951 94.7512 750.951 Z" fill="#000000" fill-rule="evenodd" fill-opacity="1" /><path clip-path="url(#clip500)" d="M58.6171 517.128 L74.9365 517.128 L74.9365 521.063 L52.9921 521.063 L52.9921 517.128 Q55.6541 514.373 60.2375 509.744 Q64.8439 505.091 66.0245 503.748 Q68.2698 501.225 69.1494 499.489 Q70.0522 497.73 70.0522 496.04 Q70.0522 493.286 68.1078 491.549 Q66.1865 489.813 63.0847 489.813 Q60.8856 489.813 58.4319 490.577 Q56.0014 491.341 53.2236 492.892 L53.2236 488.17 Q56.0477 487.036 58.5014 486.457 Q60.955 485.878 62.9921 485.878 Q68.3624 485.878 71.5568 488.563 Q74.7513 491.249 74.7513 495.739 Q74.7513 497.869 73.9411 499.79 Q73.1541 501.688 71.0476 504.281 Q70.4689 504.952 67.367 508.17 Q64.2652 511.364 58.6171 517.128 Z" fill="#000000" fill-rule="evenodd" fill-opacity="1" /><path clip-path="url(#clip500)" d="M94.7512 489.582 Q91.1401 489.582 89.3114 493.147 Q87.5058 496.688 87.5058 503.818 Q87.5058 510.924 89.3114 514.489 Q91.1401 518.031 94.7512 518.031 Q98.3854 518.031 100.191 514.489 Q102.02 510.924 102.02 503.818 Q102.02 496.688 100.191 493.147 Q98.3854 489.582 94.7512 489.582 M94.7512 485.878 Q100.561 485.878 103.617 490.485 Q106.696 495.068 106.696 503.818 Q106.696 512.545 103.617 517.151 Q100.561 521.734 94.7512 521.734 Q88.941 521.734 85.8623 517.151 Q82.8068 512.545 82.8068 503.818 Q82.8068 495.068 85.8623 490.485 Q88.941 485.878 94.7512 485.878 Z" fill="#000000" fill-rule="evenodd" fill-opacity="1" /><path clip-path="url(#clip500)" d="M68.7559 237.356 Q72.1124 238.074 73.9874 240.342 Q75.8855 242.611 75.8855 245.944 Q75.8855 251.06 72.367 253.861 Q68.8485 256.662 62.3671 256.662 Q60.1912 256.662 57.8764 256.222 Q55.5847 255.805 53.131 254.949 L53.131 250.435 Q55.0754 251.569 57.3903 252.148 Q59.7051 252.726 62.2282 252.726 Q66.6263 252.726 68.918 250.99 Q71.2328 249.254 71.2328 245.944 Q71.2328 242.889 69.08 241.176 Q66.9504 239.44 63.131 239.44 L59.1032 239.44 L59.1032 235.597 L63.3161 235.597 Q66.7652 235.597 68.5939 234.231 Q70.4226 232.842 70.4226 230.25 Q70.4226 227.588 68.5245 226.176 Q66.6495 224.741 63.131 224.741 Q61.2097 224.741 59.0106 225.157 Q56.8115 225.574 54.1727 226.453 L54.1727 222.287 Q56.8347 221.546 59.1495 221.176 Q61.4875 220.805 63.5476 220.805 Q68.8717 220.805 71.9735 223.236 Q75.0753 225.643 75.0753 229.764 Q75.0753 232.634 73.4318 234.625 Q71.7883 236.592 68.7559 237.356 Z" fill="#000000" fill-rule="evenodd" fill-opacity="1" /><path clip-path="url(#clip500)" d="M94.7512 224.509 Q91.1401 224.509 89.3114 228.074 Q87.5058 231.615 87.5058 238.745 Q87.5058 245.852 89.3114 249.416 Q91.1401 252.958 94.7512 252.958 Q98.3854 252.958 100.191 249.416 Q102.02 245.852 102.02 238.745 Q102.02 231.615 100.191 228.074 Q98.3854 224.509 94.7512 224.509 M94.7512 220.805 Q100.561 220.805 103.617 225.412 Q106.696 229.995 106.696 238.745 Q106.696 247.472 103.617 252.078 Q100.561 256.662 94.7512 256.662 Q88.941 256.662 85.8623 252.078 Q82.8068 247.472 82.8068 238.745 Q82.8068 229.995 85.8623 225.412 Q88.941 220.805 94.7512 220.805 Z" fill="#000000" fill-rule="evenodd" fill-opacity="1" /><polyline clip-path="url(#clip502)" style="stroke:#009af9; stroke-linecap:round; stroke-linejoin:round; stroke-width:4; stroke-opacity:1; fill:none" points="
  136.696,1007.42 138.513,1007.34 140.331,1007.26 142.149,1007.18 143.967,1007.1 145.785,1007.02 147.603,1006.94 149.421,1006.85 151.239,1006.77 153.056,1006.69 
  154.874,1006.6 156.692,1006.52 158.51,1006.43 160.328,1006.35 162.146,1006.26 163.964,1006.17 165.782,1006.09 167.599,1006 169.417,1005.91 171.235,1005.82 
  173.053,1005.73 174.871,1005.64 176.689,1005.55 178.507,1005.46 180.325,1005.37 182.142,1005.28 183.96,1005.19 185.778,1005.09 187.596,1005 189.414,1004.91 
  191.232,1004.81 193.05,1004.72 194.868,1004.62 196.686,1004.53 198.503,1004.43 200.321,1004.33 202.139,1004.23 203.957,1004.14 205.775,1004.04 207.593,1003.94 
  209.411,1003.84 211.229,1003.74 213.046,1003.64 214.864,1003.54 216.682,1003.44 218.5,1003.33 220.318,1003.23 222.136,1003.13 223.954,1003.02 225.772,1002.92 
  227.589,1002.81 229.407,1002.71 231.225,1002.6 233.043,1002.49 234.861,1002.39 236.679,1002.28 238.497,1002.17 240.315,1002.06 242.132,1001.95 243.95,1001.84 
  245.768,1001.73 247.586,1001.62 249.404,1001.51 251.222,1001.4 253.04,1001.28 254.858,1001.17 256.676,1001.05 258.493,1000.94 260.311,1000.82 262.129,1000.71 
  263.947,1000.59 265.765,1000.47 267.583,1000.36 269.401,1000.24 271.219,1000.12 273.036,1000 274.854,999.88 276.672,999.759 278.49,999.638 280.308,999.516 
  282.126,999.393 283.944,999.27 285.762,999.146 287.579,999.022 289.397,998.897 291.215,998.772 293.033,998.645 294.851,998.518 296.669,998.391 298.487,998.263 
  300.305,998.134 302.122,998.005 303.94,997.875 305.758,997.744 307.576,997.613 309.394,997.481 311.212,997.349 313.03,997.216 314.848,997.082 316.665,996.948 
  318.483,996.813 320.301,996.677 322.119,996.541 323.937,996.404 325.755,996.266 327.573,996.128 329.391,995.989 331.209,995.849 333.026,995.709 334.844,995.568 
  336.662,995.426 338.48,995.284 340.298,995.141 342.116,994.998 343.934,994.853 345.752,994.708 347.569,994.563 349.387,994.416 351.205,994.27 353.023,994.122 
  354.841,993.974 356.659,993.825 358.477,993.675 360.295,993.524 362.112,993.373 363.93,993.222 365.748,993.069 367.566,992.916 369.384,992.762 371.202,992.608 
  373.02,992.452 374.838,992.296 376.655,992.14 378.473,991.982 380.291,991.824 382.109,991.665 383.927,991.506 385.745,991.345 387.563,991.184 389.381,991.023 
  391.198,990.86 393.016,990.697 394.834,990.533 396.652,990.369 398.47,990.203 400.288,990.037 402.106,989.87 403.924,989.703 405.742,989.534 407.559,989.365 
  409.377,989.196 411.195,989.025 413.013,988.854 414.831,988.682 416.649,988.509 418.467,988.335 420.285,988.161 422.102,987.986 423.92,987.81 425.738,987.633 
  427.556,987.456 429.374,987.278 431.192,987.099 433.01,986.919 434.828,986.738 436.645,986.557 438.463,986.375 440.281,986.192 442.099,986.008 443.917,985.824 
  445.735,985.639 447.553,985.453 449.371,985.266 451.188,985.078 453.006,984.89 454.824,984.7 456.642,984.51 458.46,984.32 460.278,984.128 462.096,983.935 
  463.914,983.742 465.732,983.548 467.549,983.353 469.367,983.157 471.185,982.961 473.003,982.763 474.821,982.565 476.639,982.366 478.457,982.166 480.275,981.965 
  482.092,981.763 483.91,981.561 485.728,981.357 487.546,981.153 489.364,980.948 491.182,980.742 493,980.535 494.818,980.328 496.635,980.119 498.453,979.91 
  500.271,979.7 502.089,979.489 503.907,979.277 505.725,979.064 507.543,978.85 509.361,978.635 511.178,978.42 512.996,978.204 514.814,977.986 516.632,977.768 
  518.45,977.549 520.268,977.329 522.086,977.108 523.904,976.886 525.721,976.664 527.539,976.44 529.357,976.216 531.175,975.99 532.993,975.764 534.811,975.537 
  536.629,975.309 538.447,975.08 540.265,974.85 542.082,974.619 543.9,974.387 545.718,974.154 547.536,973.92 549.354,973.686 551.172,973.45 552.99,973.213 
  554.808,972.976 556.625,972.737 558.443,972.498 560.261,972.257 562.079,972.016 563.897,971.774 565.715,971.53 567.533,971.286 569.351,971.041 571.168,970.795 
  572.986,970.548 574.804,970.299 576.622,970.05 578.44,969.8 580.258,969.549 582.076,969.297 583.894,969.044 585.711,968.789 587.529,968.534 589.347,968.278 
  591.165,968.021 592.983,967.763 594.801,967.504 596.619,967.243 598.437,966.982 600.254,966.72 602.072,966.457 603.89,966.192 605.708,965.927 607.526,965.66 
  609.344,965.393 611.162,965.124 612.98,964.855 614.798,964.584 616.615,964.313 618.433,964.04 620.251,963.766 622.069,963.491 623.887,963.215 625.705,962.938 
  627.523,962.66 629.341,962.381 631.158,962.101 632.976,961.82 634.794,961.537 636.612,961.254 638.43,960.97 640.248,960.684 642.066,960.397 643.884,960.109 
  645.701,959.82 647.519,959.53 649.337,959.239 651.155,958.947 652.973,958.654 654.791,958.359 656.609,958.064 658.427,957.767 660.244,957.469 662.062,957.17 
  663.88,956.87 665.698,956.569 667.516,956.266 669.334,955.963 671.152,955.658 672.97,955.352 674.788,955.045 676.605,954.737 678.423,954.427 680.241,954.117 
  682.059,953.805 683.877,953.492 685.695,953.178 687.513,952.863 689.331,952.547 691.148,952.229 692.966,951.91 694.784,951.59 696.602,951.269 698.42,950.946 
  700.238,950.623 702.056,950.298 703.874,949.972 705.691,949.644 707.509,949.316 709.327,948.986 711.145,948.655 712.963,948.323 714.781,947.989 716.599,947.655 
  718.417,947.319 720.234,946.982 722.052,946.643 723.87,946.303 725.688,945.962 727.506,945.62 729.324,945.277 731.142,944.932 732.96,944.586 734.777,944.238 
  736.595,943.89 738.413,943.54 740.231,943.189 742.049,942.836 743.867,942.482 745.685,942.127 747.503,941.771 749.321,941.413 751.138,941.054 752.956,940.693 
  754.774,940.332 756.592,939.969 758.41,939.604 760.228,939.239 762.046,938.872 763.864,938.503 765.681,938.133 767.499,937.762 769.317,937.39 771.135,937.016 
  772.953,936.641 774.771,936.265 776.589,935.887 778.407,935.507 780.224,935.127 782.042,934.745 783.86,934.362 785.678,933.977 787.496,933.591 789.314,933.203 
  791.132,932.814 792.95,932.424 794.767,932.032 796.585,931.639 798.403,931.244 800.221,930.848 802.039,930.451 803.857,930.052 805.675,929.651 807.493,929.25 
  809.31,928.846 811.128,928.442 812.946,928.036 814.764,927.628 816.582,927.219 818.4,926.808 820.218,926.396 822.036,925.983 823.854,925.568 825.671,925.151 
  827.489,924.733 829.307,924.314 831.125,923.893 832.943,923.471 834.761,923.047 836.579,922.621 838.397,922.194 840.214,921.765 842.032,921.335 843.85,920.904 
  845.668,920.471 847.486,920.036 849.304,919.6 851.122,919.162 852.94,918.722 854.757,918.281 856.575,917.839 858.393,917.395 860.211,916.949 862.029,916.502 
  863.847,916.053 865.665,915.603 867.483,915.151 869.3,914.697 871.118,914.242 872.936,913.785 874.754,913.326 876.572,912.866 878.39,912.405 880.208,911.941 
  882.026,911.476 883.843,911.01 885.661,910.542 887.479,910.072 889.297,909.6 891.115,909.127 892.933,908.652 894.751,908.176 896.569,907.697 898.387,907.218 
  900.204,906.736 902.022,906.253 903.84,905.768 905.658,905.281 907.476,904.793 909.294,904.303 911.112,903.811 912.93,903.318 914.747,902.823 916.565,902.326 
  918.383,901.827 920.201,901.327 922.019,900.825 923.837,900.321 925.655,899.816 927.473,899.308 929.29,898.799 931.108,898.289 932.926,897.776 934.744,897.262 
  936.562,896.745 938.38,896.227 940.198,895.708 942.016,895.186 943.833,894.663 945.651,894.138 947.469,893.611 949.287,893.082 951.105,892.551 952.923,892.019 
  954.741,891.484 956.559,890.948 958.377,890.41 960.194,889.87 962.012,889.328 963.83,888.785 965.648,888.239 967.466,887.692 969.284,887.143 971.102,886.591 
  972.92,886.038 974.737,885.483 976.555,884.926 978.373,884.368 980.191,883.807 982.009,883.244 983.827,882.68 985.645,882.113 987.463,881.544 989.28,880.974 
  991.098,880.402 992.916,879.827 994.734,879.251 996.552,878.673 998.37,878.092 1000.19,877.51 1002.01,876.926 1003.82,876.339 1005.64,875.751 1007.46,875.161 
  1009.28,874.568 1011.09,873.974 1012.91,873.378 1014.73,872.779 1016.55,872.179 1018.37,871.576 1020.18,870.972 1022,870.365 1023.82,869.756 1025.64,869.146 
  1027.46,868.533 1029.27,867.918 1031.09,867.301 1032.91,866.682 1034.73,866.06 1036.55,865.437 1038.36,864.812 1040.18,864.184 1042,863.555 1043.82,862.923 
  1045.63,862.289 1047.45,861.653 1049.27,861.015 1051.09,860.374 1052.91,859.732 1054.72,859.087 1056.54,858.44 1058.36,857.791 1060.18,857.14 1062,856.487 
  1063.81,855.831 1065.63,855.173 1067.45,854.513 1069.27,853.851 1071.08,853.187 1072.9,852.52 1074.72,851.851 1076.54,851.18 1078.36,850.507 1080.17,849.831 
  1081.99,849.153 1083.81,848.473 1085.63,847.79 1087.45,847.106 1089.26,846.418 1091.08,845.729 1092.9,845.037 1094.72,844.343 1096.54,843.647 1098.35,842.948 
  1100.17,842.247 1101.99,841.544 1103.81,840.838 1105.62,840.13 1107.44,839.42 1109.26,838.707 1111.08,837.992 1112.9,837.274 1114.71,836.554 1116.53,835.832 
  1118.35,835.107 1120.17,834.379 1121.99,833.65 1123.8,832.918 1125.62,832.183 1127.44,831.446 1129.26,830.706 1131.07,829.964 1132.89,829.22 1134.71,828.473 
  1136.53,827.723 1138.35,826.972 1140.16,826.217 1141.98,825.46 1143.8,824.701 1145.62,823.939 1147.44,823.174 1149.25,822.407 1151.07,821.637 1152.89,820.865 
  1154.71,820.09 1156.53,819.313 1158.34,818.533 1160.16,817.75 1161.98,816.965 1163.8,816.178 1165.61,815.387 1167.43,814.594 1169.25,813.799 1171.07,813 
  1172.89,812.199 1174.7,811.396 1176.52,810.59 1178.34,809.781 1180.16,808.969 1181.98,808.155 1183.79,807.338 1185.61,806.519 1187.43,805.696 1189.25,804.871 
  1191.06,804.044 1192.88,803.213 1194.7,802.38 1196.52,801.544 1198.34,800.706 1200.15,799.864 1201.97,799.02 1203.79,798.173 1205.61,797.323 1207.43,796.471 
  1209.24,795.616 1211.06,794.757 1212.88,793.897 1214.7,793.033 1216.52,792.166 1218.33,791.297 1220.15,790.425 1221.97,789.55 1223.79,788.672 1225.6,787.791 
  1227.42,786.907 1229.24,786.021 1231.06,785.132 1232.88,784.239 1234.69,783.344 1236.51,782.446 1238.33,781.545 1240.15,780.641 1241.97,779.734 1243.78,778.824 
  1245.6,777.911 1247.42,776.995 1249.24,776.076 1251.05,775.154 1252.87,774.229 1254.69,773.301 1256.51,772.37 1258.33,771.436 1260.14,770.499 1261.96,769.559 
  1263.78,768.615 1265.6,767.669 1267.42,766.72 1269.23,765.767 1271.05,764.812 1272.87,763.853 1274.69,762.891 1276.51,761.926 1278.32,760.958 1280.14,759.986 
  1281.96,759.012 1283.78,758.034 1285.59,757.053 1287.41,756.069 1289.23,755.082 1291.05,754.092 1292.87,753.098 1294.68,752.101 1296.5,751.101 1298.32,750.097 
  1300.14,749.091 1301.96,748.081 1303.77,747.067 1305.59,746.051 1307.41,745.031 1309.23,744.008 1311.04,742.981 1312.86,741.951 1314.68,740.918 1316.5,739.881 
  1318.32,738.842 1320.13,737.798 1321.95,736.752 1323.77,735.701 1325.59,734.648 1327.41,733.591 1329.22,732.531 1331.04,731.467 1332.86,730.4 1334.68,729.329 
  1336.5,728.255 1338.31,727.177 1340.13,726.096 1341.95,725.012 1343.77,723.924 1345.58,722.832 1347.4,721.737 1349.22,720.639 1351.04,719.536 1352.86,718.431 
  1354.67,717.321 1356.49,716.209 1358.31,715.092 1360.13,713.972 1361.95,712.849 1363.76,711.721 1365.58,710.59 1367.4,709.456 1369.22,708.318 1371.03,707.176 
  1372.85,706.031 1374.67,704.882 1376.49,703.729 1378.31,702.573 1380.12,701.412 1381.94,700.249 1383.76,699.081 1385.58,697.91 1387.4,696.735 1389.21,695.556 
  1391.03,694.374 1392.85,693.187 1394.67,691.997 1396.49,690.803 1398.3,689.606 1400.12,688.404 1401.94,687.199 1403.76,685.989 1405.57,684.776 1407.39,683.559 
  1409.21,682.338 1411.03,681.114 1412.85,679.885 1414.66,678.652 1416.48,677.416 1418.3,676.175 1420.12,674.93 1421.94,673.682 1423.75,672.429 1425.57,671.173 
  1427.39,669.912 1429.21,668.648 1431.02,667.379 1432.84,666.106 1434.66,664.829 1436.48,663.548 1438.3,662.263 1440.11,660.974 1441.93,659.681 1443.75,658.384 
  1445.57,657.082 1447.39,655.776 1449.2,654.467 1451.02,653.153 1452.84,651.834 1454.66,650.512 1456.48,649.185 1458.29,647.854 1460.11,646.519 1461.93,645.179 
  1463.75,643.836 1465.56,642.487 1467.38,641.135 1469.2,639.778 1471.02,638.417 1472.84,637.052 1474.65,635.682 1476.47,634.308 1478.29,632.93 1480.11,631.547 
  1481.93,630.159 1483.74,628.768 1485.56,627.371 1487.38,625.971 1489.2,624.566 1491.01,623.156 1492.83,621.742 1494.65,620.324 1496.47,618.901 1498.29,617.473 
  1500.1,616.041 1501.92,614.604 1503.74,613.163 1505.56,611.717 1507.38,610.267 1509.19,608.812 1511.01,607.352 1512.83,605.888 1514.65,604.419 1516.47,602.945 
  1518.28,601.467 1520.1,599.984 1521.92,598.497 1523.74,597.004 1525.55,595.507 1527.37,594.006 1529.19,592.499 1531.01,590.988 1532.83,589.472 1534.64,587.951 
  1536.46,586.425 1538.28,584.895 1540.1,583.36 1541.92,581.82 1543.73,580.275 1545.55,578.725 1547.37,577.171 1549.19,575.611 1551,574.047 1552.82,572.477 
  1554.64,570.903 1556.46,569.324 1558.28,567.74 1560.09,566.151 1561.91,564.557 1563.73,562.958 1565.55,561.353 1567.37,559.744 1569.18,558.13 1571,556.511 
  1572.82,554.886 1574.64,553.257 1576.46,551.622 1578.27,549.982 1580.09,548.337 1581.91,546.687 1583.73,545.031 1585.54,543.371 1587.36,541.705 1589.18,540.034 
  1591,538.358 1592.82,536.676 1594.63,534.989 1596.45,533.297 1598.27,531.599 1600.09,529.896 1601.91,528.188 1603.72,526.474 1605.54,524.755 1607.36,523.03 
  1609.18,521.3 1610.99,519.565 1612.81,517.824 1614.63,516.078 1616.45,514.326 1618.27,512.568 1620.08,510.805 1621.9,509.037 1623.72,507.262 1625.54,505.483 
  1627.36,503.697 1629.17,501.906 1630.99,500.11 1632.81,498.308 1634.63,496.5 1636.45,494.686 1638.26,492.867 1640.08,491.041 1641.9,489.211 1643.72,487.374 
  1645.53,485.532 1647.35,483.683 1649.17,481.829 1650.99,479.969 1652.81,478.104 1654.62,476.232 1656.44,474.355 1658.26,472.471 1660.08,470.582 1661.9,468.687 
  1663.71,466.786 1665.53,464.879 1667.35,462.965 1669.17,461.046 1670.98,459.121 1672.8,457.19 1674.62,455.253 1676.44,453.309 1678.26,451.36 1680.07,449.405 
  1681.89,447.443 1683.71,445.475 1685.53,443.501 1687.35,441.521 1689.16,439.535 1690.98,437.542 1692.8,435.543 1694.62,433.538 1696.44,431.527 1698.25,429.51 
  1700.07,427.486 1701.89,425.456 1703.71,423.419 1705.52,421.376 1707.34,419.327 1709.16,417.272 1710.98,415.21 1712.8,413.141 1714.61,411.067 1716.43,408.985 
  1718.25,406.898 1720.07,404.803 1721.89,402.703 1723.7,400.595 1725.52,398.482 1727.34,396.361 1729.16,394.235 1730.97,392.101 1732.79,389.961 1734.61,387.815 
  1736.43,385.661 1738.25,383.501 1740.06,381.335 1741.88,379.161 1743.7,376.981 1745.52,374.794 1747.34,372.6 1749.15,370.4 1750.97,368.192 1752.79,365.978 
  1754.61,363.757 1756.43,361.529 1758.24,359.294 1760.06,357.052 1761.88,354.803 1763.7,352.547 1765.51,350.284 1767.33,348.014 1769.15,345.736 1770.97,343.452 
  1772.79,341.161 1774.6,338.862 1776.42,336.557 1778.24,334.244 1780.06,331.924 1781.88,329.597 1783.69,327.262 1785.51,324.92 1787.33,322.571 1789.15,320.215 
  1790.96,317.851 1792.78,315.48 1794.6,313.101 1796.42,310.715 1798.24,308.322 1800.05,305.921 1801.87,303.512 1803.69,301.097 1805.51,298.673 1807.33,296.242 
  1809.14,293.804 1810.96,291.357 1812.78,288.904 1814.6,286.442 1816.42,283.973 1818.23,281.496 1820.05,279.012 1821.87,276.52 1823.69,274.02 1825.5,271.512 
  1827.32,268.996 1829.14,266.473 1830.96,263.941 1832.78,261.402 1834.59,258.855 1836.41,256.3 1838.23,253.737 1840.05,251.166 1841.87,248.587 1843.68,246 
  1845.5,243.406 1847.32,240.803 1849.14,238.191 1850.95,235.572 1852.77,232.945 1854.59,230.309 1856.41,227.666 1858.23,225.014 1860.04,222.354 1861.86,219.685 
  1863.68,217.009 1865.5,214.324 1867.32,211.631 1869.13,208.929 1870.95,206.219 1872.77,203.501 1874.59,200.774 1876.41,198.039 1878.22,195.295 1880.04,192.543 
  1881.86,189.783 1883.68,187.014 1885.49,184.236 1887.31,181.45 1889.13,178.655 1890.95,175.852 1892.77,173.04 1894.58,170.219 1896.4,167.39 1898.22,164.552 
  1900.04,161.705 1901.86,158.849 1903.67,155.985 1905.49,153.112 1907.31,150.229 1909.13,147.338 1910.94,144.439 1912.76,141.53 1914.58,138.612 1916.4,135.685 
  1918.22,132.749 1920.03,129.804 1921.85,126.85 1923.67,123.886 1925.49,120.914 1927.31,117.932 1929.12,114.942 1930.94,111.942 1932.76,108.932 1934.58,105.914 
  1936.4,102.886 1938.21,99.8484 1940.03,96.8018 1941.85,93.7457 1943.67,90.6802 1945.48,87.6053 1947.3,84.5209 1949.12,81.4269 1950.94,78.3235 1952.76,75.2104 
  
  "/>
</svg>
