<?xml version="1.0" encoding="utf-8"?>
<svg xmlns="http://www.w3.org/2000/svg" xmlns:xlink="http://www.w3.org/1999/xlink" width="600" height="400" viewBox="0 0 2400 1600">
<defs>
  <clipPath id="clip510">
    <rect x="0" y="0" width="2400" height="1600"/>
  </clipPath>
</defs>
<path clip-path="url(#clip510)" d="
M0 1600 L2400 1600 L2400 0 L0 0  Z
  " fill="#ffffff" fill-rule="evenodd" fill-opacity="1"/>
<defs>
  <clipPath id="clip511">
    <rect x="480" y="0" width="1681" height="1600"/>
  </clipPath>
</defs>
<path clip-path="url(#clip510)" d="
M215.754 1349.01 L2018.27 1349.01 L2018.27 198.283 L215.754 198.283  Z
  " fill="#ffffff" fill-rule="evenodd" fill-opacity="1"/>
<defs>
  <clipPath id="clip512">
    <rect x="215" y="198" width="1804" height="1152"/>
  </clipPath>
</defs>
<polyline clip-path="url(#clip512)" style="stroke:#000000; stroke-linecap:butt; stroke-linejoin:round; stroke-width:2; stroke-opacity:0.1; fill:none" points="
  302.817,1349.01 302.817,198.283 
  "/>
<polyline clip-path="url(#clip512)" style="stroke:#000000; stroke-linecap:butt; stroke-linejoin:round; stroke-width:2; stroke-opacity:0.1; fill:none" points="
  845.613,1349.01 845.613,198.283 
  "/>
<polyline clip-path="url(#clip512)" style="stroke:#000000; stroke-linecap:butt; stroke-linejoin:round; stroke-width:2; stroke-opacity:0.1; fill:none" points="
  1388.41,1349.01 1388.41,198.283 
  "/>
<polyline clip-path="url(#clip512)" style="stroke:#000000; stroke-linecap:butt; stroke-linejoin:round; stroke-width:2; stroke-opacity:0.1; fill:none" points="
  1931.2,1349.01 1931.2,198.283 
  "/>
<polyline clip-path="url(#clip510)" style="stroke:#000000; stroke-linecap:butt; stroke-linejoin:round; stroke-width:4; stroke-opacity:1; fill:none" points="
  215.754,1349.01 2018.27,1349.01 
  "/>
<polyline clip-path="url(#clip510)" style="stroke:#000000; stroke-linecap:butt; stroke-linejoin:round; stroke-width:4; stroke-opacity:1; fill:none" points="
  302.817,1349.01 302.817,1332.33 
  "/>
<polyline clip-path="url(#clip510)" style="stroke:#000000; stroke-linecap:butt; stroke-linejoin:round; stroke-width:4; stroke-opacity:1; fill:none" points="
  845.613,1349.01 845.613,1332.33 
  "/>
<polyline clip-path="url(#clip510)" style="stroke:#000000; stroke-linecap:butt; stroke-linejoin:round; stroke-width:4; stroke-opacity:1; fill:none" points="
  1388.41,1349.01 1388.41,1332.33 
  "/>
<polyline clip-path="url(#clip510)" style="stroke:#000000; stroke-linecap:butt; stroke-linejoin:round; stroke-width:4; stroke-opacity:1; fill:none" points="
  1931.2,1349.01 1931.2,1332.33 
  "/>
<g clip-path="url(#clip510)">
<text style="fill:#000000; fill-opacity:1; font-family:Arial,Helvetica Neue,Helvetica,sans-serif; font-size:48px; text-anchor:middle;" transform="rotate(0, 302.817, 1410.86)" x="302.817" y="1410.86">−1</text>
</g>
<g clip-path="url(#clip510)">
<text style="fill:#000000; fill-opacity:1; font-family:Arial,Helvetica Neue,Helvetica,sans-serif; font-size:48px; text-anchor:middle;" transform="rotate(0, 845.613, 1410.86)" x="845.613" y="1410.86">0</text>
</g>
<g clip-path="url(#clip510)">
<text style="fill:#000000; fill-opacity:1; font-family:Arial,Helvetica Neue,Helvetica,sans-serif; font-size:48px; text-anchor:middle;" transform="rotate(0, 1388.41, 1410.86)" x="1388.41" y="1410.86">1</text>
</g>
<g clip-path="url(#clip510)">
<text style="fill:#000000; fill-opacity:1; font-family:Arial,Helvetica Neue,Helvetica,sans-serif; font-size:48px; text-anchor:middle;" transform="rotate(0, 1931.2, 1410.86)" x="1931.2" y="1410.86">2</text>
</g>
<g clip-path="url(#clip510)">
<text style="fill:#000000; fill-opacity:1; font-family:Arial,Helvetica Neue,Helvetica,sans-serif; font-size:66px; text-anchor:middle;" transform="rotate(0, 1117.01, 1494.87)" x="1117.01" y="1494.87">x</text>
</g>
<polyline clip-path="url(#clip512)" style="stroke:#000000; stroke-linecap:butt; stroke-linejoin:round; stroke-width:2; stroke-opacity:0.1; fill:none" points="
  215.754,1316.44 2018.27,1316.44 
  "/>
<polyline clip-path="url(#clip512)" style="stroke:#000000; stroke-linecap:butt; stroke-linejoin:round; stroke-width:2; stroke-opacity:0.1; fill:none" points="
  215.754,1045.04 2018.27,1045.04 
  "/>
<polyline clip-path="url(#clip512)" style="stroke:#000000; stroke-linecap:butt; stroke-linejoin:round; stroke-width:2; stroke-opacity:0.1; fill:none" points="
  215.754,773.647 2018.27,773.647 
  "/>
<polyline clip-path="url(#clip512)" style="stroke:#000000; stroke-linecap:butt; stroke-linejoin:round; stroke-width:2; stroke-opacity:0.1; fill:none" points="
  215.754,502.249 2018.27,502.249 
  "/>
<polyline clip-path="url(#clip512)" style="stroke:#000000; stroke-linecap:butt; stroke-linejoin:round; stroke-width:2; stroke-opacity:0.1; fill:none" points="
  215.754,230.851 2018.27,230.851 
  "/>
<polyline clip-path="url(#clip510)" style="stroke:#000000; stroke-linecap:butt; stroke-linejoin:round; stroke-width:4; stroke-opacity:1; fill:none" points="
  215.754,1349.01 215.754,198.283 
  "/>
<polyline clip-path="url(#clip510)" style="stroke:#000000; stroke-linecap:butt; stroke-linejoin:round; stroke-width:4; stroke-opacity:1; fill:none" points="
  215.754,1316.44 232.431,1316.44 
  "/>
<polyline clip-path="url(#clip510)" style="stroke:#000000; stroke-linecap:butt; stroke-linejoin:round; stroke-width:4; stroke-opacity:1; fill:none" points="
  215.754,1045.04 232.431,1045.04 
  "/>
<polyline clip-path="url(#clip510)" style="stroke:#000000; stroke-linecap:butt; stroke-linejoin:round; stroke-width:4; stroke-opacity:1; fill:none" points="
  215.754,773.647 232.431,773.647 
  "/>
<polyline clip-path="url(#clip510)" style="stroke:#000000; stroke-linecap:butt; stroke-linejoin:round; stroke-width:4; stroke-opacity:1; fill:none" points="
  215.754,502.249 232.431,502.249 
  "/>
<polyline clip-path="url(#clip510)" style="stroke:#000000; stroke-linecap:butt; stroke-linejoin:round; stroke-width:4; stroke-opacity:1; fill:none" points="
  215.754,230.851 232.431,230.851 
  "/>
<g clip-path="url(#clip510)">
<text style="fill:#000000; fill-opacity:1; font-family:Arial,Helvetica Neue,Helvetica,sans-serif; font-size:48px; text-anchor:middle;" transform="rotate(0, 146.301, 1333.94)" x="146.301" y="1333.94">0.0</text>
</g>
<g clip-path="url(#clip510)">
<text style="fill:#000000; fill-opacity:1; font-family:Arial,Helvetica Neue,Helvetica,sans-serif; font-size:48px; text-anchor:middle;" transform="rotate(0, 146.301, 1062.54)" x="146.301" y="1062.54">0.5</text>
</g>
<g clip-path="url(#clip510)">
<text style="fill:#000000; fill-opacity:1; font-family:Arial,Helvetica Neue,Helvetica,sans-serif; font-size:48px; text-anchor:middle;" transform="rotate(0, 146.301, 791.147)" x="146.301" y="791.147">1.0</text>
</g>
<g clip-path="url(#clip510)">
<text style="fill:#000000; fill-opacity:1; font-family:Arial,Helvetica Neue,Helvetica,sans-serif; font-size:48px; text-anchor:middle;" transform="rotate(0, 146.301, 519.749)" x="146.301" y="519.749">1.5</text>
</g>
<g clip-path="url(#clip510)">
<text style="fill:#000000; fill-opacity:1; font-family:Arial,Helvetica Neue,Helvetica,sans-serif; font-size:48px; text-anchor:middle;" transform="rotate(0, 146.301, 248.351)" x="146.301" y="248.351">2.0</text>
</g>
<g clip-path="url(#clip510)">
<text style="fill:#000000; fill-opacity:1; font-family:Arial,Helvetica Neue,Helvetica,sans-serif; font-size:66px; text-anchor:middle;" transform="rotate(-90, 65.2861, 773.647)" x="65.2861" y="773.647">y</text>
</g>
<g clip-path="url(#clip510)">
<text style="fill:#000000; fill-opacity:1; font-family:Arial,Helvetica Neue,Helvetica,sans-serif; font-size:84px; text-anchor:middle;" transform="rotate(0, 1117.01, 73.2)" x="1117.01" y="73.2">Error</text>
</g>
<polyline clip-path="url(#clip512)" style="stroke:#cbd7cb; stroke-linecap:butt; stroke-linejoin:round; stroke-width:8; stroke-opacity:1; fill:none" points="
  845.613,1135.51 845.613,1117.42 845.613,1108.37 
  "/>
<polyline clip-path="url(#clip512)" style="stroke:#cbd7cb; stroke-linecap:butt; stroke-linejoin:round; stroke-width:8; stroke-opacity:1; fill:none" points="
  845.613,900.299 845.613,882.206 845.613,864.113 
  "/>
<polyline clip-path="url(#clip512)" style="stroke:#cbd7cb; stroke-linecap:butt; stroke-linejoin:round; stroke-width:8; stroke-opacity:1; fill:none" points="
  845.613,755.554 845.613,755.554 845.613,773.647 845.613,791.74 845.613,809.833 845.613,827.926 845.613,846.02 859.183,847.783 864.097,846.02 872.753,844.401 
  886.323,841.016 899.893,837.538 913.462,833.949 927.032,830.225 934.867,827.926 940.602,826.43 954.172,822.605 967.742,818.601 981.312,814.382 994.882,809.907 
  995.095,809.833 1008.45,805.434 1022.02,800.662 1035.59,795.525 1044.93,791.74 1049.16,790.073 1062.73,784.414 1076.3,778.212 1085.52,773.647 1089.87,771.514 
  1103.44,764.425 1117.01,756.477 1118.52,755.554 1130.58,748.069 1144.15,738.558 1145.64,737.46 1157.72,728.315 1168.26,719.367 1171.29,716.688 1184.86,703.747 
  1187.29,701.274 1198.43,689.199 1203.58,683.181 1212,672.531 1217.57,665.088 1225.57,653.257 1229.66,646.995 1239.14,630.58 1240.1,628.901 1249.48,610.808 
  1252.71,603.626 1257.71,592.715 1264.74,574.622 1266.28,570.183 1271.26,556.529 1276.77,538.435 1279.85,526.512 1281.6,520.342 1286.07,502.249 1289.68,484.156 
  1292.59,466.063 1293.42,459.959 1295.3,447.969 1297.54,429.876 1299.19,411.783 1300.3,393.69 1300.92,375.597 1301.09,357.503 1300.83,339.41 1300.18,321.317 
  1299.17,303.224 1297.86,285.131 1296.34,267.037 1294.71,248.944 1293.42,230.851 
  "/>
<polyline clip-path="url(#clip512)" style="stroke:#cbd7cb; stroke-linecap:butt; stroke-linejoin:round; stroke-width:8; stroke-opacity:1; fill:none" points="
  1252.71,230.851 1252.71,230.851 
  "/>
<polyline clip-path="url(#clip512)" style="stroke:#cbd7cb; stroke-linecap:butt; stroke-linejoin:round; stroke-width:8; stroke-opacity:1; fill:none" points="
  1225.57,230.851 1225.57,230.851 1212,230.851 1198.43,230.851 1184.86,230.851 
  "/>
<polyline clip-path="url(#clip512)" style="stroke:#cbd7cb; stroke-linecap:butt; stroke-linejoin:round; stroke-width:8; stroke-opacity:1; fill:none" points="
  1157.72,230.851 1157.72,230.851 1144.15,230.851 1130.58,230.851 1117.01,230.851 1103.44,230.851 
  "/>
<polyline clip-path="url(#clip512)" style="stroke:#cbd7cb; stroke-linecap:butt; stroke-linejoin:round; stroke-width:8; stroke-opacity:1; fill:none" points="
  1076.3,230.851 1076.3,230.851 1062.73,230.851 1049.16,230.851 1035.59,230.851 
  "/>
<polyline clip-path="url(#clip512)" style="stroke:#cbd7cb; stroke-linecap:butt; stroke-linejoin:round; stroke-width:8; stroke-opacity:1; fill:none" points="
  1008.45,230.851 1008.45,230.851 994.882,230.851 981.312,230.851 967.742,230.851 954.172,230.851 940.602,230.851 935.078,248.944 927.032,260.329 923.883,267.037 
  913.462,281.408 910.935,285.131 899.893,298.619 895.706,303.224 886.323,313.65 877.867,321.317 872.753,327.087 859.183,339.099 845.613,339.41 845.613,357.503 
  845.613,375.597 845.613,393.69 845.613,411.783 
  "/>
<polyline clip-path="url(#clip512)" style="stroke:#cbd7cb; stroke-linecap:butt; stroke-linejoin:round; stroke-width:8; stroke-opacity:1; fill:none" points="
  845.613,447.969 845.613,447.969 845.613,466.063 845.613,484.156 845.613,502.249 845.613,520.342 845.613,538.435 845.613,556.529 845.613,574.622 845.613,592.715 
  845.613,610.808 
  "/>
<polyline clip-path="url(#clip512)" style="stroke:#cbd7cb; stroke-linecap:butt; stroke-linejoin:round; stroke-width:8; stroke-opacity:1; fill:none" points="
  845.613,646.995 845.613,646.995 
  "/>
<polyline clip-path="url(#clip512)" style="stroke:#cbd7cb; stroke-linecap:butt; stroke-linejoin:round; stroke-width:8; stroke-opacity:1; fill:none" points="
  845.613,683.181 845.613,683.181 
  "/>
<polyline clip-path="url(#clip512)" style="stroke:#cbd7cb; stroke-linecap:butt; stroke-linejoin:round; stroke-width:8; stroke-opacity:1; fill:none" points="
  845.613,719.367 845.613,719.367 
  "/>
<polyline clip-path="url(#clip512)" style="stroke:#cbd7cb; stroke-linecap:butt; stroke-linejoin:round; stroke-width:8; stroke-opacity:1; fill:none" points="
  845.613,303.224 845.613,285.131 845.613,276.084 
  "/>
<polyline clip-path="url(#clip512)" style="stroke:#cbd7cb; stroke-linecap:butt; stroke-linejoin:round; stroke-width:8; stroke-opacity:1; fill:none" points="
  1388.41,538.435 1388.41,520.342 1388.41,502.249 
  "/>
<polyline clip-path="url(#clip512)" style="stroke:#cbd7cb; stroke-linecap:butt; stroke-linejoin:round; stroke-width:8; stroke-opacity:1; fill:none" points="
  1388.41,1063.14 1388.41,1081.23 1388.41,1099.32 
  "/>
<polyline clip-path="url(#clip512)" style="stroke:#b6c1c5; stroke-linecap:butt; stroke-linejoin:round; stroke-width:8; stroke-opacity:1; fill:none" points="
  1285.04,954.579 1283.6,972.672 1281.72,990.765 1279.85,1005.01 1279.34,1008.86 1276.38,1026.95 1272.77,1045.04 1268.38,1063.14 1266.28,1070.41 1263.06,1081.23 
  1256.59,1099.32 1252.71,1108.42 1248.7,1117.42 1239.14,1135.25 1238.99,1135.51 1226.96,1153.6 1225.57,1155.38 1212,1171.45 1211.78,1171.7 1198.43,1184.43 
  1192.25,1189.79 1184.86,1195.39 1171.29,1204.71 1166.25,1207.88 1157.72,1212.65 1144.15,1219.52 1130.58,1225.61 1129.69,1225.98 1117.01,1230.76 1103.44,1235.3 
  1089.87,1239.29 1076.3,1242.79 1070.66,1244.07 1062.73,1245.73 1049.16,1248.19 1035.59,1250.21 1022.02,1251.78 1008.45,1252.89 994.882,1253.49 981.312,1253.5 
  967.742,1252.81 954.172,1251.25 940.602,1248.5 927.056,1244.07 927.032,1244.06 913.462,1236.61 901.457,1225.98 899.893,1224.27 889.812,1207.88 886.323,1200.26 
  882.929,1189.79 878.554,1171.7 875.428,1153.6 873.211,1135.51 872.753,1130.2 871.883,1117.42 871.105,1099.32 870.738,1081.23 870.755,1063.14 871.159,1045.04 
  871.977,1026.95 872.753,1015.96 873.367,1008.86 875.564,990.765 878.618,972.672 882.847,954.579 886.323,943.522 889.127,936.486 898.711,918.392 899.893,916.646 
  913.462,900.909 914.115,900.299 927.032,890.149 939.445,882.206 940.602,881.561 954.172,874.795 967.742,868.775 979.154,864.113 981.312,863.303 994.882,858.508 
  1008.45,853.895 1022.02,849.37 1032.2,846.02 1035.59,844.958 1049.16,840.809 1062.73,836.586 1076.3,832.238 1089.28,827.926 1089.87,827.735 1103.44,823.439 
  1117.01,818.925 1130.58,814.152 1142.32,809.833 1144.15,809.154 1157.72,804.296 1171.29,799.164 1184.86,793.777 1190.34,791.74 1198.43,788.577 1212,783.634 
  1225.57,779.125 1239.14,775.854 1252.71,775.591 1266.28,782.505 1272.57,791.74 1279.58,809.833 1279.85,810.921 1282.87,827.926 1284.92,846.02 1286.16,864.113 
  1286.81,882.206 1286.98,900.299 1286.72,918.392 1286.08,936.486 1285.04,954.579 
  "/>
<polyline clip-path="url(#clip512)" style="stroke:#a0a9bd; stroke-linecap:butt; stroke-linejoin:round; stroke-width:8; stroke-opacity:1; fill:none" points="
  1157.88,972.672 1160.12,990.765 1160.03,1008.86 1157.97,1026.95 1157.72,1028.06 1153.96,1045.04 1148.05,1063.14 1144.15,1072.05 1140.02,1081.23 1130.58,1097.57 
  1129.53,1099.32 1117.01,1116.03 1115.9,1117.42 1103.44,1130.34 1098.02,1135.51 1089.87,1142.08 1076.3,1151.91 1073.68,1153.6 1062.73,1159.72 1049.16,1166.22 
  1035.59,1171.58 1035.22,1171.7 1022.02,1175.32 1008.45,1177.87 994.882,1179.09 981.312,1178.76 967.742,1176.54 954.172,1171.88 953.851,1171.7 940.602,1162.77 
  931.938,1153.6 927.032,1146.94 921.196,1135.51 914.612,1117.42 913.462,1112.69 911.03,1099.32 909.215,1081.23 908.761,1063.14 909.6,1045.04 911.746,1026.95 
  913.462,1018.12 915.705,1008.86 921.911,990.765 927.032,979.535 930.964,972.672 940.602,959.246 944.808,954.579 954.172,945.886 966.726,936.486 967.742,935.827 
  981.312,928.673 994.882,922.802 1007.36,918.392 1008.45,918.045 1022.02,914.702 1035.59,912.158 1049.16,910.413 1062.73,909.52 1076.3,909.59 1089.87,910.806 
  1103.44,913.447 1117.01,917.928 1118.03,918.392 1130.58,926.336 1141.57,936.486 1144.15,940.11 1152.31,954.579 1157.72,972.063 1157.88,972.672 
  "/>
<polyline clip-path="url(#clip512)" style="stroke:#c4c0b4; stroke-linecap:butt; stroke-linejoin:round; stroke-width:8; stroke-opacity:1; fill:none" points="
  1022.02,759.382 1008.45,764.347 994.882,768.698 981.312,772.441 975.971,773.647 967.742,775.621 954.172,778.071 940.602,779.565 927.032,779.776 913.462,778.077 
  901.028,773.647 899.893,773.187 886.323,762.181 881.997,755.554 873.41,737.46 872.753,735.67 868.766,719.367 865.538,701.274 863.151,683.181 861.353,665.088 
  859.986,646.995 859.183,633.21 858.981,628.901 858.306,610.808 857.813,592.715 857.484,574.622 857.311,556.529 857.295,538.435 857.449,520.342 857.801,502.249 
  858.398,484.156 859.183,468.638 859.325,466.063 860.701,447.969 862.675,429.876 865.566,411.783 869.995,393.69 872.753,385.86 876.473,375.597 885.836,357.503 
  886.323,356.765 897.331,339.41 899.893,336.051 910.652,321.317 913.462,317.783 924.898,303.224 927.032,300.544 940.071,285.131 940.602,284.486 954.172,270.238 
  957.981,267.037 967.742,259.337 981.312,252.27 990.536,248.944 994.882,247.626 1008.45,244.65 1022.02,242.713 1035.59,241.393 1049.16,240.474 1062.73,239.836 
  1076.3,239.409 1089.87,239.149 1103.44,239.034 1117.01,239.052 1130.58,239.204 1144.15,239.498 1157.72,239.958 1171.29,240.621 1184.86,241.551 1198.43,242.852 
  1212,244.701 1225.57,247.422 1231.17,248.944 1239.14,252.559 1252.71,262.121 1257.43,267.037 1266.23,285.131 1266.28,285.336 1270.71,303.224 1273.07,321.317 
  1274.17,339.41 1274.34,357.503 1273.76,375.597 1272.48,393.69 1270.53,411.783 1267.89,429.876 1266.28,438.796 1264.72,447.969 1261.04,466.063 1256.6,484.156 
  1252.71,497.69 1251.43,502.249 1245.77,520.342 1239.14,538.289 1239.09,538.435 1231.89,556.529 1225.57,570.324 1223.56,574.622 1214.29,592.715 1212,596.813 
  1203.87,610.808 1198.43,619.367 1192.03,628.901 1184.86,638.848 1178.58,646.995 1171.29,655.907 1163.16,665.088 1157.72,670.965 1145.32,683.181 1144.15,684.298 
  1130.58,696.386 1124.51,701.274 1117.01,707.213 1103.44,716.928 1099.74,719.367 1089.87,725.844 1076.3,733.853 1069.58,737.46 1062.73,741.178 1049.16,747.879 
  1035.59,753.858 1031.34,755.554 1022.02,759.382 
  "/>
<polyline clip-path="url(#clip512)" style="stroke:#bda89e; stroke-linecap:butt; stroke-linejoin:round; stroke-width:8; stroke-opacity:1; fill:none" points="
  1022.02,722.434 1008.45,727.343 994.882,731.381 981.312,734.5 967.742,736.578 954.172,737.389 940.602,736.531 927.032,733.294 913.462,726.352 905.82,719.367 
  899.893,712.934 893.156,701.274 886.323,685.864 885.495,683.181 880.835,665.088 877.319,646.995 874.663,628.901 872.753,611.523 872.69,610.808 871.437,592.715 
  870.57,574.622 870.057,556.529 869.887,538.435 870.071,520.342 870.644,502.249 871.674,484.156 872.753,471.769 873.29,466.063 875.652,447.969 878.922,429.876 
  883.456,411.783 886.323,403.162 889.596,393.69 897.636,375.597 899.893,371.48 907.581,357.503 913.462,348.473 919.363,339.41 927.032,328.876 932.619,321.317 
  940.602,311.295 947.391,303.224 954.172,295.634 964.821,285.131 967.742,282.452 981.312,272.079 989.756,267.037 994.882,264.396 1008.45,259.005 1022.02,255.155 
  1035.59,252.348 1049.16,250.29 1061.35,248.944 1062.73,248.822 1076.3,247.967 1089.87,247.448 1103.44,247.217 1117.01,247.254 1130.58,247.556 1144.15,248.145 
  1156.03,248.944 1157.72,249.099 1171.29,250.831 1184.86,253.285 1198.43,256.745 1212,261.684 1222.45,267.037 1225.57,269.663 1239.14,285.095 1239.16,285.131 
  1246.78,303.224 1250.6,321.317 1252.34,339.41 1252.69,357.503 1251.99,375.597 1250.42,393.69 1248.03,411.783 1244.86,429.876 1240.89,447.969 1239.14,454.763 
  1236.25,466.063 1230.89,484.156 1225.57,499.577 1224.64,502.249 1217.7,520.342 1212,533.433 1209.75,538.435 1200.87,556.529 1198.43,561.115 1190.89,574.622 
  1184.86,584.569 1179.62,592.715 1171.29,604.819 1166.87,610.808 1157.72,622.564 1152.37,628.901 1144.15,638.254 1135.74,646.995 1130.58,652.189 1117.01,664.589 
  1116.42,665.088 1103.44,675.863 1093.54,683.181 1089.87,685.875 1076.3,694.954 1065.66,701.274 1062.73,703.023 1049.16,710.347 1035.59,716.756 1029.27,719.367 
  1022.02,722.434 
  "/>
<polyline clip-path="url(#clip512)" style="stroke:#b69087; stroke-linecap:butt; stroke-linejoin:round; stroke-width:8; stroke-opacity:1; fill:none" points="
  1022.02,688.073 1008.45,692.755 994.882,696.324 981.312,698.66 967.742,699.533 954.172,698.545 940.602,695.02 927.032,687.777 921.882,683.181 913.462,674.372 
  907.719,665.088 899.893,649.069 899.17,646.995 893.937,628.901 890.026,610.808 887.167,592.715 886.323,585.313 885.324,574.622 884.217,556.529 883.687,538.435 
  883.724,520.342 884.352,502.249 885.633,484.156 886.323,477.947 887.742,466.063 890.775,447.969 894.886,429.876 899.893,413.295 900.37,411.783 907.393,393.69 
  913.462,381.095 916.169,375.597 926.65,357.503 927.032,356.922 938.716,339.41 940.602,336.86 952.51,321.317 954.172,319.323 967.742,304.178 968.676,303.224 
  981.312,291.629 989.708,285.131 994.882,281.628 1008.45,274.137 1022.02,268.382 1025.96,267.037 1035.59,264.347 1049.16,261.52 1062.73,259.5 1076.3,258.128 
  1089.87,257.306 1103.44,256.983 1117.01,257.143 1130.58,257.804 1144.15,259.019 1157.72,260.887 1171.29,263.572 1183.89,267.037 1184.86,267.434 1198.43,274.564 
  1212,284.789 1212.37,285.131 1223.98,303.224 1225.57,307.889 1229.7,321.317 1232.37,339.41 1233.11,357.503 1232.44,375.597 1230.63,393.69 1227.81,411.783 
  1225.57,422.7 1224.09,429.876 1219.55,447.969 1214.1,466.063 1212,472.185 1207.79,484.156 1200.56,502.249 1198.43,507.089 1192.36,520.342 1184.86,535.074 
  1183.05,538.435 1172.57,556.529 1171.29,558.606 1160.72,574.622 1157.72,578.889 1147.24,592.715 1144.15,596.604 1131.84,610.808 1130.58,612.21 1117.01,626.092 
  1113.98,628.901 1103.44,638.479 1092.95,646.995 1089.87,649.462 1076.3,659.301 1067.27,665.088 1062.73,667.997 1049.16,675.701 1035.59,682.341 1033.57,683.181 
  1022.02,688.073 
  "/>
<polyline clip-path="url(#clip512)" style="stroke:#ae7770; stroke-linecap:butt; stroke-linejoin:round; stroke-width:8; stroke-opacity:1; fill:none" points="
  1035.59,649.488 1022.02,655.073 1008.45,659.384 994.882,662.31 981.312,663.633 967.742,662.969 954.172,659.679 940.602,652.693 934.054,646.995 927.032,639.775 
  920.099,628.901 913.462,615.617 911.723,610.808 906.542,592.715 902.853,574.622 900.406,556.529 899.893,549.982 899.136,538.435 898.768,520.342 899.224,502.249 
  899.893,493.07 900.591,484.156 902.977,466.063 906.4,447.969 911.008,429.876 913.462,422.376 917.074,411.783 924.65,393.69 927.032,388.931 933.876,375.597 
  940.602,364.294 944.755,357.503 954.172,343.881 957.392,339.41 967.742,326.542 972.243,321.317 981.312,311.911 990.71,303.224 994.882,299.833 1008.45,290.406 
  1017.65,285.131 1022.02,283.022 1035.59,277.76 1049.16,273.779 1062.73,270.85 1076.3,268.826 1089.87,267.624 1103.44,267.208 1117.01,267.593 1130.58,268.841 
  1144.15,271.074 1157.72,274.495 1171.29,279.419 1182.69,285.131 1184.86,286.821 1198.43,300.541 1200.54,303.224 1208.81,321.317 1212,335.73 1212.74,339.41 
  1214.04,357.503 1213.53,375.597 1212,390.005 1211.61,393.69 1208.49,411.783 1204.32,429.876 1199.11,447.969 1198.43,450.018 1192.89,466.063 1185.66,484.156 
  1184.86,485.964 1177.31,502.249 1171.29,513.958 1167.79,520.342 1157.72,537.278 1156.98,538.435 1144.64,556.529 1144.15,557.214 1130.58,574.549 1130.52,574.622 
  1117.01,589.782 1114.12,592.715 1103.44,603.23 1094.84,610.808 1089.87,615.098 1076.3,625.559 1071.39,628.901 1062.73,634.755 1049.16,642.711 1040.57,646.995 
  1035.59,649.488 
  "/>
<polyline clip-path="url(#clip512)" style="stroke:#a75f59; stroke-linecap:butt; stroke-linejoin:round; stroke-width:8; stroke-opacity:1; fill:none" points="
  1035.59,617.116 1022.02,622.405 1008.45,626.162 994.882,628.173 981.312,628.058 967.742,625.183 954.172,618.504 945.298,610.808 940.602,605.859 932.41,592.715 
  927.032,581.184 924.795,574.622 920.278,556.529 917.443,538.435 916.058,520.342 915.971,502.249 917.098,484.156 919.408,466.063 922.927,447.969 927.032,432.525 
  927.772,429.876 934.222,411.783 940.602,397.078 942.127,393.69 951.732,375.597 954.172,371.613 963.141,357.503 967.742,351.117 976.649,339.41 981.312,333.981 
  993.155,321.317 994.882,319.695 1008.45,308.41 1015.71,303.224 1022.02,299.401 1035.59,292.68 1049.16,287.41 1056.92,285.131 1062.73,283.744 1076.3,281.545 
  1089.87,280.339 1103.44,280.091 1117.01,280.82 1130.58,282.609 1142.06,285.131 1144.15,285.783 1157.72,291.902 1171.29,300.743 1174.24,303.224 1184.86,318.107 
  1186.72,321.317 1192.41,339.41 1194.61,357.503 1194.44,375.597 1192.52,393.69 1189.17,411.783 1184.86,428.727 1184.55,429.876 1178.65,447.969 1171.65,466.063 
  1171.29,466.881 1163.31,484.156 1157.72,494.986 1153.69,502.249 1144.15,518.031 1142.63,520.342 1130.58,537.497 1129.86,538.435 1117.01,554.254 1114.96,556.529 
  1103.44,568.833 1097.37,574.622 1089.87,581.568 1076.3,592.661 1076.23,592.715 1062.73,602.227 1049.16,610.388 1048.32,610.808 1035.59,617.116 
  "/>
<polyline clip-path="url(#clip512)" style="stroke:#a04743; stroke-linecap:butt; stroke-linejoin:round; stroke-width:8; stroke-opacity:1; fill:none" points="
  1049.16,577.596 1035.59,584.1 1022.02,588.893 1008.45,591.759 994.882,592.291 981.312,589.798 967.742,583.138 958.329,574.622 954.172,569.782 946.732,556.529 
  940.602,540.273 940.092,538.435 936.872,520.342 935.527,502.249 935.832,484.156 937.647,466.063 940.602,449.676 940.929,447.969 945.991,429.876 952.433,411.783 
  954.172,407.857 960.723,393.69 967.742,380.802 970.718,375.597 981.312,359.636 982.819,357.503 994.882,342.737 997.845,339.41 1008.45,329.171 1017.67,321.317 
  1022.02,318.165 1035.59,309.947 1049.16,303.311 1049.4,303.224 1062.73,299.223 1076.3,296.536 1089.87,295.204 1103.44,295.265 1117.01,296.829 1130.58,300.098 
  1138.81,303.224 1144.15,306.284 1157.72,317.548 1161.13,321.317 1170.26,339.41 1171.29,343.996 1173.87,357.503 1174.34,375.597 1172.6,393.69 1171.29,400.508 
  1169,411.783 1163.84,429.876 1157.72,446.953 1157.33,447.969 1149.19,466.063 1144.15,475.925 1139.58,484.156 1130.58,498.871 1128.31,502.249 1117.01,517.842 
  1115,520.342 1103.44,533.889 1099.08,538.435 1089.87,547.624 1079.7,556.529 1076.3,559.412 1062.73,569.33 1054.1,574.622 1049.16,577.596 
  "/>
<polyline clip-path="url(#clip512)" style="stroke:#992f2c; stroke-linecap:butt; stroke-linejoin:round; stroke-width:8; stroke-opacity:1; fill:none" points="
  1049.16,542.685 1035.59,548.711 1022.02,552.529 1008.45,553.649 994.882,551.205 981.312,543.707 976.156,538.435 967.742,526.051 965.226,520.342 960.442,502.249 
  958.686,484.156 959.357,466.063 962.045,447.969 966.488,429.876 967.742,426.285 973.111,411.783 981.312,393.82 981.375,393.69 992.209,375.597 994.882,371.803 
  1005.79,357.503 1008.45,354.531 1022.02,341.013 1023.89,339.41 1035.59,331.072 1049.16,323.139 1053.33,321.317 1062.73,318 1076.3,315.004 1089.87,313.878 
  1103.44,314.817 1117.01,318.131 1124.28,321.317 1130.58,325.711 1143.21,339.41 1144.15,341.447 1149.83,357.503 1151.65,375.597 1150.33,393.69 1146.73,411.783 
  1144.15,420.362 1141.03,429.876 1133.5,447.969 1130.58,453.889 1123.96,466.063 1117.01,477.404 1112.38,484.156 1103.44,496.072 1098.18,502.249 1089.87,511.374 
  1080.45,520.342 1076.3,524.101 1062.73,534.454 1056.29,538.435 1049.16,542.685 
  "/>
<polyline clip-path="url(#clip512)" style="stroke:#921716; stroke-linecap:butt; stroke-linejoin:round; stroke-width:8; stroke-opacity:1; fill:none" points="
  1035.59,506.833 1022.02,507.998 1008.45,504.308 1005.62,502.249 994.882,489.539 992.43,484.156 988.856,466.063 989.254,447.969 992.55,429.876 994.882,422.718 
  998.793,411.783 1007.53,393.69 1008.45,392.212 1020,375.597 1022.02,373.235 1035.59,359.543 1038.08,357.503 1049.16,350.293 1062.73,343.839 1076.3,340.23 
  1089.87,340.339 1103.44,345.463 1116.96,357.503 1117.01,357.599 1122.68,375.597 1122.88,393.69 1119.51,411.783 1117.01,419.297 1113.01,429.876 1104.01,447.969 
  1103.44,448.92 1091.57,466.063 1089.87,468.237 1076.3,482.936 1074.9,484.156 1062.73,493.827 1049.16,502.189 1049,502.249 1035.59,506.833 
  "/>
<polyline clip-path="url(#clip512)" style="stroke:#000000; stroke-linecap:butt; stroke-linejoin:round; stroke-width:8; stroke-opacity:1; fill:none" points="
  845.613,1316.44 1388.41,1316.44 1388.41,230.851 845.613,230.851 845.613,1316.44 
  "/>
<defs>
  <clipPath id="clip513">
    <rect x="2066" y="198" width="73" height="1152"/>
  </clipPath>
</defs>
<polyline clip-path="url(#clip513)" style="stroke:#921716; stroke-linecap:butt; stroke-linejoin:round; stroke-width:8; stroke-opacity:1; fill:none" points="
  2066.27,1285.08 2138.27,1285.08 
  "/>
<polyline clip-path="url(#clip513)" style="stroke:#992f2c; stroke-linecap:butt; stroke-linejoin:round; stroke-width:8; stroke-opacity:1; fill:none" points="
  2066.27,1221.15 2138.27,1221.15 
  "/>
<polyline clip-path="url(#clip513)" style="stroke:#a04743; stroke-linecap:butt; stroke-linejoin:round; stroke-width:8; stroke-opacity:1; fill:none" points="
  2066.27,1157.22 2138.27,1157.22 
  "/>
<polyline clip-path="url(#clip513)" style="stroke:#a8605b; stroke-linecap:butt; stroke-linejoin:round; stroke-width:8; stroke-opacity:1; fill:none" points="
  2066.27,1093.29 2138.27,1093.29 
  "/>
<polyline clip-path="url(#clip513)" style="stroke:#af7871; stroke-linecap:butt; stroke-linejoin:round; stroke-width:8; stroke-opacity:1; fill:none" points="
  2066.27,1029.36 2138.27,1029.36 
  "/>
<polyline clip-path="url(#clip513)" style="stroke:#b69087; stroke-linecap:butt; stroke-linejoin:round; stroke-width:8; stroke-opacity:1; fill:none" points="
  2066.27,965.435 2138.27,965.435 
  "/>
<polyline clip-path="url(#clip513)" style="stroke:#bda89e; stroke-linecap:butt; stroke-linejoin:round; stroke-width:8; stroke-opacity:1; fill:none" points="
  2066.27,901.505 2138.27,901.505 
  "/>
<polyline clip-path="url(#clip513)" style="stroke:#c4c0b4; stroke-linecap:butt; stroke-linejoin:round; stroke-width:8; stroke-opacity:1; fill:none" points="
  2066.27,837.576 2138.27,837.576 
  "/>
<polyline clip-path="url(#clip513)" style="stroke:#cbd7cb; stroke-linecap:butt; stroke-linejoin:round; stroke-width:8; stroke-opacity:1; fill:none" points="
  2066.27,773.647 2138.27,773.647 
  "/>
<polyline clip-path="url(#clip513)" style="stroke:#b4c0c4; stroke-linecap:butt; stroke-linejoin:round; stroke-width:8; stroke-opacity:1; fill:none" points="
  2066.27,709.718 2138.27,709.718 
  "/>
<polyline clip-path="url(#clip513)" style="stroke:#9ea8bd; stroke-linecap:butt; stroke-linejoin:round; stroke-width:8; stroke-opacity:1; fill:none" points="
  2066.27,645.788 2138.27,645.788 
  "/>
<polyline clip-path="url(#clip513)" style="stroke:#8890b6; stroke-linecap:butt; stroke-linejoin:round; stroke-width:8; stroke-opacity:1; fill:none" points="
  2066.27,581.859 2138.27,581.859 
  "/>
<polyline clip-path="url(#clip513)" style="stroke:#7178af; stroke-linecap:butt; stroke-linejoin:round; stroke-width:8; stroke-opacity:1; fill:none" points="
  2066.27,517.93 2138.27,517.93 
  "/>
<polyline clip-path="url(#clip513)" style="stroke:#5b60a8; stroke-linecap:butt; stroke-linejoin:round; stroke-width:8; stroke-opacity:1; fill:none" points="
  2066.27,454 2138.27,454 
  "/>
<polyline clip-path="url(#clip513)" style="stroke:#4449a0; stroke-linecap:butt; stroke-linejoin:round; stroke-width:8; stroke-opacity:1; fill:none" points="
  2066.27,390.071 2138.27,390.071 
  "/>
<polyline clip-path="url(#clip513)" style="stroke:#2c2f99; stroke-linecap:butt; stroke-linejoin:round; stroke-width:8; stroke-opacity:1; fill:none" points="
  2066.27,326.142 2138.27,326.142 
  "/>
<polyline clip-path="url(#clip513)" style="stroke:#161792; stroke-linecap:butt; stroke-linejoin:round; stroke-width:8; stroke-opacity:1; fill:none" points="
  2066.27,262.213 2138.27,262.213 
  "/>
<g clip-path="url(#clip510)">
<text style="fill:#000000; fill-opacity:1; font-family:Arial,Helvetica Neue,Helvetica,sans-serif; font-size:48px; text-anchor:start;" transform="rotate(0, 2174.27, 1242.54)" x="2174.27" y="1242.54">-</text>
</g>
<g clip-path="url(#clip510)">
<text style="fill:#000000; fill-opacity:1; font-family:Arial,Helvetica Neue,Helvetica,sans-serif; font-size:48px; text-anchor:start;" transform="rotate(0, 2202.38, 1242.54)" x="2202.38" y="1242.54">0.0010</text>
</g>
<g clip-path="url(#clip510)">
<text style="fill:#000000; fill-opacity:1; font-family:Arial,Helvetica Neue,Helvetica,sans-serif; font-size:48px; text-anchor:start;" transform="rotate(0, 2174.27, 1014.92)" x="2174.27" y="1014.92">-</text>
</g>
<g clip-path="url(#clip510)">
<text style="fill:#000000; fill-opacity:1; font-family:Arial,Helvetica Neue,Helvetica,sans-serif; font-size:48px; text-anchor:start;" transform="rotate(0, 2202.38, 1014.92)" x="2202.38" y="1014.92">0.0005</text>
</g>
<g clip-path="url(#clip510)">
<text style="fill:#000000; fill-opacity:1; font-family:Arial,Helvetica Neue,Helvetica,sans-serif; font-size:48px; text-anchor:start;" transform="rotate(0, 2174.27, 787.298)" x="2174.27" y="787.298">0</text>
</g>
<g clip-path="url(#clip510)">
<text style="fill:#000000; fill-opacity:1; font-family:Arial,Helvetica Neue,Helvetica,sans-serif; font-size:48px; text-anchor:start;" transform="rotate(0, 2174.27, 559.677)" x="2174.27" y="559.677">0.0005</text>
</g>
<g clip-path="url(#clip510)">
<text style="fill:#000000; fill-opacity:1; font-family:Arial,Helvetica Neue,Helvetica,sans-serif; font-size:48px; text-anchor:start;" transform="rotate(0, 2174.27, 332.055)" x="2174.27" y="332.055">0.0010</text>
</g>
<polyline clip-path="url(#clip510)" style="stroke:#000000; stroke-linecap:butt; stroke-linejoin:round; stroke-width:4; stroke-opacity:1; fill:none" points="
  2138.27,1349.01 2138.27,1228.89 2162.27,1228.89 2138.27,1228.89 2138.27,1001.27 2162.27,1001.27 2138.27,1001.27 2138.27,773.647 2162.27,773.647 2138.27,773.647 
  2138.27,546.025 2162.27,546.025 2138.27,546.025 2138.27,318.404 2162.27,318.404 2138.27,318.404 2138.27,198.283 
  "/>
</svg>
