<?xml version="1.0" encoding="utf-8"?>
<svg xmlns="http://www.w3.org/2000/svg" xmlns:xlink="http://www.w3.org/1999/xlink" width="600" height="400" viewBox="0 0 2400 1600">
<defs>
  <clipPath id="clip540">
    <rect x="0" y="0" width="2400" height="1600"/>
  </clipPath>
</defs>
<path clip-path="url(#clip540)" d="
M0 1600 L2400 1600 L2400 0 L0 0  Z
  " fill="#ffffff" fill-rule="evenodd" fill-opacity="1"/>
<defs>
  <clipPath id="clip541">
    <rect x="480" y="0" width="1681" height="1600"/>
  </clipPath>
</defs>
<path clip-path="url(#clip540)" d="
M156.598 1407.81 L2112.76 1407.81 L2112.76 125.883 L156.598 125.883  Z
  " fill="#ffffff" fill-rule="evenodd" fill-opacity="1"/>
<defs>
  <clipPath id="clip542">
    <rect x="156" y="125" width="1957" height="1283"/>
  </clipPath>
</defs>
<polyline clip-path="url(#clip542)" style="stroke:#000000; stroke-linecap:round; stroke-linejoin:round; stroke-width:2; stroke-opacity:0.1; fill:none" points="
  493.715,1407.81 493.715,125.883 
  "/>
<polyline clip-path="url(#clip542)" style="stroke:#000000; stroke-linecap:round; stroke-linejoin:round; stroke-width:2; stroke-opacity:0.1; fill:none" points="
  878.292,1407.81 878.292,125.883 
  "/>
<polyline clip-path="url(#clip542)" style="stroke:#000000; stroke-linecap:round; stroke-linejoin:round; stroke-width:2; stroke-opacity:0.1; fill:none" points="
  1262.87,1407.81 1262.87,125.883 
  "/>
<polyline clip-path="url(#clip542)" style="stroke:#000000; stroke-linecap:round; stroke-linejoin:round; stroke-width:2; stroke-opacity:0.1; fill:none" points="
  1647.45,1407.81 1647.45,125.883 
  "/>
<polyline clip-path="url(#clip542)" style="stroke:#000000; stroke-linecap:round; stroke-linejoin:round; stroke-width:2; stroke-opacity:0.1; fill:none" points="
  2032.02,1407.81 2032.02,125.883 
  "/>
<polyline clip-path="url(#clip540)" style="stroke:#000000; stroke-linecap:round; stroke-linejoin:round; stroke-width:4; stroke-opacity:1; fill:none" points="
  156.598,1407.81 2112.76,1407.81 
  "/>
<polyline clip-path="url(#clip540)" style="stroke:#000000; stroke-linecap:round; stroke-linejoin:round; stroke-width:4; stroke-opacity:1; fill:none" points="
  493.715,1407.81 493.715,1390.98 
  "/>
<polyline clip-path="url(#clip540)" style="stroke:#000000; stroke-linecap:round; stroke-linejoin:round; stroke-width:4; stroke-opacity:1; fill:none" points="
  878.292,1407.81 878.292,1390.98 
  "/>
<polyline clip-path="url(#clip540)" style="stroke:#000000; stroke-linecap:round; stroke-linejoin:round; stroke-width:4; stroke-opacity:1; fill:none" points="
  1262.87,1407.81 1262.87,1390.98 
  "/>
<polyline clip-path="url(#clip540)" style="stroke:#000000; stroke-linecap:round; stroke-linejoin:round; stroke-width:4; stroke-opacity:1; fill:none" points="
  1647.45,1407.81 1647.45,1390.98 
  "/>
<polyline clip-path="url(#clip540)" style="stroke:#000000; stroke-linecap:round; stroke-linejoin:round; stroke-width:4; stroke-opacity:1; fill:none" points="
  2032.02,1407.81 2032.02,1390.98 
  "/>
<path clip-path="url(#clip540)" d="M471.099 1438.73 Q467.488 1438.73 465.659 1442.29 Q463.854 1445.83 463.854 1452.96 Q463.854 1460.07 465.659 1463.63 Q467.488 1467.18 471.099 1467.18 Q474.733 1467.18 476.539 1463.63 Q478.367 1460.07 478.367 1452.96 Q478.367 1445.83 476.539 1442.29 Q474.733 1438.73 471.099 1438.73 M471.099 1435.02 Q476.909 1435.02 479.965 1439.63 Q483.043 1444.21 483.043 1452.96 Q483.043 1461.69 479.965 1466.3 Q476.909 1470.88 471.099 1470.88 Q465.289 1470.88 462.21 1466.3 Q459.155 1461.69 459.155 1452.96 Q459.155 1444.21 462.21 1439.63 Q465.289 1435.02 471.099 1435.02 Z" fill="#000000" fill-rule="evenodd" fill-opacity="1" /><path clip-path="url(#clip540)" d="M491.261 1464.33 L496.145 1464.33 L496.145 1470.21 L491.261 1470.21 L491.261 1464.33 Z" fill="#000000" fill-rule="evenodd" fill-opacity="1" /><path clip-path="url(#clip540)" d="M516.33 1438.73 Q512.719 1438.73 510.89 1442.29 Q509.085 1445.83 509.085 1452.96 Q509.085 1460.07 510.89 1463.63 Q512.719 1467.18 516.33 1467.18 Q519.964 1467.18 521.77 1463.63 Q523.599 1460.07 523.599 1452.96 Q523.599 1445.83 521.77 1442.29 Q519.964 1438.73 516.33 1438.73 M516.33 1435.02 Q522.14 1435.02 525.196 1439.63 Q528.275 1444.21 528.275 1452.96 Q528.275 1461.69 525.196 1466.3 Q522.14 1470.88 516.33 1470.88 Q510.52 1470.88 507.441 1466.3 Q504.386 1461.69 504.386 1452.96 Q504.386 1444.21 507.441 1439.63 Q510.52 1435.02 516.33 1435.02 Z" fill="#000000" fill-rule="evenodd" fill-opacity="1" /><path clip-path="url(#clip540)" d="M856.001 1438.73 Q852.389 1438.73 850.561 1442.29 Q848.755 1445.83 848.755 1452.96 Q848.755 1460.07 850.561 1463.63 Q852.389 1467.18 856.001 1467.18 Q859.635 1467.18 861.44 1463.63 Q863.269 1460.07 863.269 1452.96 Q863.269 1445.83 861.44 1442.29 Q859.635 1438.73 856.001 1438.73 M856.001 1435.02 Q861.811 1435.02 864.866 1439.63 Q867.945 1444.21 867.945 1452.96 Q867.945 1461.69 864.866 1466.3 Q861.811 1470.88 856.001 1470.88 Q850.19 1470.88 847.112 1466.3 Q844.056 1461.69 844.056 1452.96 Q844.056 1444.21 847.112 1439.63 Q850.19 1435.02 856.001 1435.02 Z" fill="#000000" fill-rule="evenodd" fill-opacity="1" /><path clip-path="url(#clip540)" d="M876.162 1464.33 L881.047 1464.33 L881.047 1470.21 L876.162 1470.21 L876.162 1464.33 Z" fill="#000000" fill-rule="evenodd" fill-opacity="1" /><path clip-path="url(#clip540)" d="M905.398 1451.57 Q908.755 1452.29 910.63 1454.56 Q912.528 1456.83 912.528 1460.16 Q912.528 1465.28 909.009 1468.08 Q905.491 1470.88 899.01 1470.88 Q896.834 1470.88 894.519 1470.44 Q892.227 1470.02 889.773 1469.17 L889.773 1464.65 Q891.718 1465.79 894.033 1466.37 Q896.348 1466.94 898.871 1466.94 Q903.269 1466.94 905.56 1465.21 Q907.875 1463.47 907.875 1460.16 Q907.875 1457.11 905.722 1455.39 Q903.593 1453.66 899.773 1453.66 L895.746 1453.66 L895.746 1449.82 L899.959 1449.82 Q903.408 1449.82 905.236 1448.45 Q907.065 1447.06 907.065 1444.47 Q907.065 1441.81 905.167 1440.39 Q903.292 1438.96 899.773 1438.96 Q897.852 1438.96 895.653 1439.38 Q893.454 1439.79 890.815 1440.67 L890.815 1436.5 Q893.477 1435.76 895.792 1435.39 Q898.13 1435.02 900.19 1435.02 Q905.514 1435.02 908.616 1437.45 Q911.718 1439.86 911.718 1443.98 Q911.718 1446.85 910.074 1448.84 Q908.431 1450.81 905.398 1451.57 Z" fill="#000000" fill-rule="evenodd" fill-opacity="1" /><path clip-path="url(#clip540)" d="M1240.17 1438.73 Q1236.56 1438.73 1234.73 1442.29 Q1232.93 1445.83 1232.93 1452.96 Q1232.93 1460.07 1234.73 1463.63 Q1236.56 1467.18 1240.17 1467.18 Q1243.81 1467.18 1245.61 1463.63 Q1247.44 1460.07 1247.44 1452.96 Q1247.44 1445.83 1245.61 1442.29 Q1243.81 1438.73 1240.17 1438.73 M1240.17 1435.02 Q1245.98 1435.02 1249.04 1439.63 Q1252.12 1444.21 1252.12 1452.96 Q1252.12 1461.69 1249.04 1466.3 Q1245.98 1470.88 1240.17 1470.88 Q1234.36 1470.88 1231.28 1466.3 Q1228.23 1461.69 1228.23 1452.96 Q1228.23 1444.21 1231.28 1439.63 Q1234.36 1435.02 1240.17 1435.02 Z" fill="#000000" fill-rule="evenodd" fill-opacity="1" /><path clip-path="url(#clip540)" d="M1260.33 1464.33 L1265.22 1464.33 L1265.22 1470.21 L1260.33 1470.21 L1260.33 1464.33 Z" fill="#000000" fill-rule="evenodd" fill-opacity="1" /><path clip-path="url(#clip540)" d="M1285.98 1451.07 Q1282.83 1451.07 1280.98 1453.22 Q1279.15 1455.37 1279.15 1459.12 Q1279.15 1462.85 1280.98 1465.02 Q1282.83 1467.18 1285.98 1467.18 Q1289.13 1467.18 1290.96 1465.02 Q1292.81 1462.85 1292.81 1459.12 Q1292.81 1455.37 1290.96 1453.22 Q1289.13 1451.07 1285.98 1451.07 M1295.27 1436.41 L1295.27 1440.67 Q1293.51 1439.84 1291.7 1439.4 Q1289.92 1438.96 1288.16 1438.96 Q1283.53 1438.96 1281.08 1442.08 Q1278.64 1445.21 1278.3 1451.53 Q1279.66 1449.51 1281.72 1448.45 Q1283.78 1447.36 1286.26 1447.36 Q1291.47 1447.36 1294.48 1450.53 Q1297.51 1453.68 1297.51 1459.12 Q1297.51 1464.44 1294.36 1467.66 Q1291.21 1470.88 1285.98 1470.88 Q1279.99 1470.88 1276.82 1466.3 Q1273.64 1461.69 1273.64 1452.96 Q1273.64 1444.77 1277.53 1439.91 Q1281.42 1435.02 1287.97 1435.02 Q1289.73 1435.02 1291.52 1435.37 Q1293.32 1435.72 1295.27 1436.41 Z" fill="#000000" fill-rule="evenodd" fill-opacity="1" /><path clip-path="url(#clip540)" d="M1624.92 1438.73 Q1621.31 1438.73 1619.48 1442.29 Q1617.68 1445.83 1617.68 1452.96 Q1617.68 1460.07 1619.48 1463.63 Q1621.31 1467.18 1624.92 1467.18 Q1628.56 1467.18 1630.36 1463.63 Q1632.19 1460.07 1632.19 1452.96 Q1632.19 1445.83 1630.36 1442.29 Q1628.56 1438.73 1624.92 1438.73 M1624.92 1435.02 Q1630.73 1435.02 1633.79 1439.63 Q1636.87 1444.21 1636.87 1452.96 Q1636.87 1461.69 1633.79 1466.3 Q1630.73 1470.88 1624.92 1470.88 Q1619.11 1470.88 1616.04 1466.3 Q1612.98 1461.69 1612.98 1452.96 Q1612.98 1444.21 1616.04 1439.63 Q1619.11 1435.02 1624.92 1435.02 Z" fill="#000000" fill-rule="evenodd" fill-opacity="1" /><path clip-path="url(#clip540)" d="M1645.09 1464.33 L1649.97 1464.33 L1649.97 1470.21 L1645.09 1470.21 L1645.09 1464.33 Z" fill="#000000" fill-rule="evenodd" fill-opacity="1" /><path clip-path="url(#clip540)" d="M1660.29 1469.49 L1660.29 1465.23 Q1662.05 1466.07 1663.86 1466.5 Q1665.66 1466.94 1667.4 1466.94 Q1672.03 1466.94 1674.46 1463.84 Q1676.91 1460.72 1677.26 1454.38 Q1675.92 1456.37 1673.86 1457.43 Q1671.8 1458.5 1669.3 1458.5 Q1664.11 1458.5 1661.08 1455.37 Q1658.07 1452.22 1658.07 1446.78 Q1658.07 1441.46 1661.22 1438.24 Q1664.37 1435.02 1669.6 1435.02 Q1675.6 1435.02 1678.74 1439.63 Q1681.91 1444.21 1681.91 1452.96 Q1681.91 1461.13 1678.03 1466.02 Q1674.16 1470.88 1667.61 1470.88 Q1665.85 1470.88 1664.04 1470.53 Q1662.24 1470.19 1660.29 1469.49 M1669.6 1454.84 Q1672.75 1454.84 1674.58 1452.69 Q1676.43 1450.53 1676.43 1446.78 Q1676.43 1443.06 1674.58 1440.9 Q1672.75 1438.73 1669.6 1438.73 Q1666.45 1438.73 1664.6 1440.9 Q1662.77 1443.06 1662.77 1446.78 Q1662.77 1450.53 1664.6 1452.69 Q1666.45 1454.84 1669.6 1454.84 Z" fill="#000000" fill-rule="evenodd" fill-opacity="1" /><path clip-path="url(#clip540)" d="M1999.98 1466.27 L2007.62 1466.27 L2007.62 1439.91 L1999.3 1441.57 L1999.3 1437.32 L2007.57 1435.65 L2012.24 1435.65 L2012.24 1466.27 L2019.88 1466.27 L2019.88 1470.21 L1999.98 1470.21 L1999.98 1466.27 Z" fill="#000000" fill-rule="evenodd" fill-opacity="1" /><path clip-path="url(#clip540)" d="M2029.33 1464.33 L2034.21 1464.33 L2034.21 1470.21 L2029.33 1470.21 L2029.33 1464.33 Z" fill="#000000" fill-rule="evenodd" fill-opacity="1" /><path clip-path="url(#clip540)" d="M2048.42 1466.27 L2064.74 1466.27 L2064.74 1470.21 L2042.8 1470.21 L2042.8 1466.27 Q2045.46 1463.52 2050.05 1458.89 Q2054.65 1454.24 2055.83 1452.89 Q2058.08 1450.37 2058.96 1448.63 Q2059.86 1446.88 2059.86 1445.19 Q2059.86 1442.43 2057.92 1440.69 Q2055.99 1438.96 2052.89 1438.96 Q2050.69 1438.96 2048.24 1439.72 Q2045.81 1440.49 2043.03 1442.04 L2043.03 1437.32 Q2045.86 1436.18 2048.31 1435.6 Q2050.76 1435.02 2052.8 1435.02 Q2058.17 1435.02 2061.36 1437.71 Q2064.56 1440.39 2064.56 1444.88 Q2064.56 1447.01 2063.75 1448.94 Q2062.96 1450.83 2060.86 1453.43 Q2060.28 1454.1 2057.17 1457.32 Q2054.07 1460.51 2048.42 1466.27 Z" fill="#000000" fill-rule="evenodd" fill-opacity="1" /><polyline clip-path="url(#clip542)" style="stroke:#000000; stroke-linecap:round; stroke-linejoin:round; stroke-width:2; stroke-opacity:0.1; fill:none" points="
  156.598,1407.81 2112.76,1407.81 
  "/>
<polyline clip-path="url(#clip542)" style="stroke:#000000; stroke-linecap:round; stroke-linejoin:round; stroke-width:2; stroke-opacity:0.1; fill:none" points="
  156.598,1151.42 2112.76,1151.42 
  "/>
<polyline clip-path="url(#clip542)" style="stroke:#000000; stroke-linecap:round; stroke-linejoin:round; stroke-width:2; stroke-opacity:0.1; fill:none" points="
  156.598,895.038 2112.76,895.038 
  "/>
<polyline clip-path="url(#clip542)" style="stroke:#000000; stroke-linecap:round; stroke-linejoin:round; stroke-width:2; stroke-opacity:0.1; fill:none" points="
  156.598,638.653 2112.76,638.653 
  "/>
<polyline clip-path="url(#clip542)" style="stroke:#000000; stroke-linecap:round; stroke-linejoin:round; stroke-width:2; stroke-opacity:0.1; fill:none" points="
  156.598,382.268 2112.76,382.268 
  "/>
<polyline clip-path="url(#clip542)" style="stroke:#000000; stroke-linecap:round; stroke-linejoin:round; stroke-width:2; stroke-opacity:0.1; fill:none" points="
  156.598,125.883 2112.76,125.883 
  "/>
<polyline clip-path="url(#clip540)" style="stroke:#000000; stroke-linecap:round; stroke-linejoin:round; stroke-width:4; stroke-opacity:1; fill:none" points="
  156.598,1407.81 156.598,125.883 
  "/>
<polyline clip-path="url(#clip540)" style="stroke:#000000; stroke-linecap:round; stroke-linejoin:round; stroke-width:4; stroke-opacity:1; fill:none" points="
  156.598,1407.81 173.431,1407.81 
  "/>
<polyline clip-path="url(#clip540)" style="stroke:#000000; stroke-linecap:round; stroke-linejoin:round; stroke-width:4; stroke-opacity:1; fill:none" points="
  156.598,1151.42 173.431,1151.42 
  "/>
<polyline clip-path="url(#clip540)" style="stroke:#000000; stroke-linecap:round; stroke-linejoin:round; stroke-width:4; stroke-opacity:1; fill:none" points="
  156.598,895.038 173.431,895.038 
  "/>
<polyline clip-path="url(#clip540)" style="stroke:#000000; stroke-linecap:round; stroke-linejoin:round; stroke-width:4; stroke-opacity:1; fill:none" points="
  156.598,638.653 173.431,638.653 
  "/>
<polyline clip-path="url(#clip540)" style="stroke:#000000; stroke-linecap:round; stroke-linejoin:round; stroke-width:4; stroke-opacity:1; fill:none" points="
  156.598,382.268 173.431,382.268 
  "/>
<polyline clip-path="url(#clip540)" style="stroke:#000000; stroke-linecap:round; stroke-linejoin:round; stroke-width:4; stroke-opacity:1; fill:none" points="
  156.598,125.883 173.431,125.883 
  "/>
<path clip-path="url(#clip540)" d="M63.4226 1393.61 Q59.8115 1393.61 57.9828 1397.17 Q56.1773 1400.71 56.1773 1407.84 Q56.1773 1414.95 57.9828 1418.51 Q59.8115 1422.06 63.4226 1422.06 Q67.0569 1422.06 68.8624 1418.51 Q70.6911 1414.95 70.6911 1407.84 Q70.6911 1400.71 68.8624 1397.17 Q67.0569 1393.61 63.4226 1393.61 M63.4226 1389.9 Q69.2328 1389.9 72.2883 1394.51 Q75.367 1399.09 75.367 1407.84 Q75.367 1416.57 72.2883 1421.18 Q69.2328 1425.76 63.4226 1425.76 Q57.6125 1425.76 54.5338 1421.18 Q51.4782 1416.57 51.4782 1407.84 Q51.4782 1399.09 54.5338 1394.51 Q57.6125 1389.9 63.4226 1389.9 Z" fill="#000000" fill-rule="evenodd" fill-opacity="1" /><path clip-path="url(#clip540)" d="M83.5845 1419.21 L88.4688 1419.21 L88.4688 1425.09 L83.5845 1425.09 L83.5845 1419.21 Z" fill="#000000" fill-rule="evenodd" fill-opacity="1" /><path clip-path="url(#clip540)" d="M108.654 1393.61 Q105.043 1393.61 103.214 1397.17 Q101.409 1400.71 101.409 1407.84 Q101.409 1414.95 103.214 1418.51 Q105.043 1422.06 108.654 1422.06 Q112.288 1422.06 114.094 1418.51 Q115.922 1414.95 115.922 1407.84 Q115.922 1400.71 114.094 1397.17 Q112.288 1393.61 108.654 1393.61 M108.654 1389.9 Q114.464 1389.9 117.52 1394.51 Q120.598 1399.09 120.598 1407.84 Q120.598 1416.57 117.52 1421.18 Q114.464 1425.76 108.654 1425.76 Q102.844 1425.76 99.765 1421.18 Q96.7095 1416.57 96.7095 1407.84 Q96.7095 1399.09 99.765 1394.51 Q102.844 1389.9 108.654 1389.9 Z" fill="#000000" fill-rule="evenodd" fill-opacity="1" /><path clip-path="url(#clip540)" d="M65.0198 1137.22 Q61.4087 1137.22 59.58 1140.79 Q57.7745 1144.33 57.7745 1151.46 Q57.7745 1158.56 59.58 1162.13 Q61.4087 1165.67 65.0198 1165.67 Q68.6541 1165.67 70.4596 1162.13 Q72.2883 1158.56 72.2883 1151.46 Q72.2883 1144.33 70.4596 1140.79 Q68.6541 1137.22 65.0198 1137.22 M65.0198 1133.52 Q70.83 1133.52 73.8855 1138.12 Q76.9642 1142.71 76.9642 1151.46 Q76.9642 1160.19 73.8855 1164.79 Q70.83 1169.37 65.0198 1169.37 Q59.2097 1169.37 56.131 1164.79 Q53.0754 1160.19 53.0754 1151.46 Q53.0754 1142.71 56.131 1138.12 Q59.2097 1133.52 65.0198 1133.52 Z" fill="#000000" fill-rule="evenodd" fill-opacity="1" /><path clip-path="url(#clip540)" d="M85.1818 1162.82 L90.066 1162.82 L90.066 1168.7 L85.1818 1168.7 L85.1818 1162.82 Z" fill="#000000" fill-rule="evenodd" fill-opacity="1" /><path clip-path="url(#clip540)" d="M104.279 1164.77 L120.598 1164.77 L120.598 1168.7 L98.6539 1168.7 L98.6539 1164.77 Q101.316 1162.01 105.899 1157.38 Q110.506 1152.73 111.686 1151.39 Q113.932 1148.87 114.811 1147.13 Q115.714 1145.37 115.714 1143.68 Q115.714 1140.93 113.77 1139.19 Q111.848 1137.45 108.746 1137.45 Q106.547 1137.45 104.094 1138.22 Q101.663 1138.98 98.8854 1140.53 L98.8854 1135.81 Q101.709 1134.68 104.163 1134.1 Q106.617 1133.52 108.654 1133.52 Q114.024 1133.52 117.219 1136.2 Q120.413 1138.89 120.413 1143.38 Q120.413 1145.51 119.603 1147.43 Q118.816 1149.33 116.709 1151.92 Q116.131 1152.59 113.029 1155.81 Q109.927 1159 104.279 1164.77 Z" fill="#000000" fill-rule="evenodd" fill-opacity="1" /><path clip-path="url(#clip540)" d="M62.9365 880.837 Q59.3254 880.837 57.4967 884.402 Q55.6912 887.944 55.6912 895.073 Q55.6912 902.18 57.4967 905.744 Q59.3254 909.286 62.9365 909.286 Q66.5707 909.286 68.3763 905.744 Q70.205 902.18 70.205 895.073 Q70.205 887.944 68.3763 884.402 Q66.5707 880.837 62.9365 880.837 M62.9365 877.133 Q68.7467 877.133 71.8022 881.74 Q74.8809 886.323 74.8809 895.073 Q74.8809 903.8 71.8022 908.406 Q68.7467 912.99 62.9365 912.99 Q57.1264 912.99 54.0477 908.406 Q50.9921 903.8 50.9921 895.073 Q50.9921 886.323 54.0477 881.74 Q57.1264 877.133 62.9365 877.133 Z" fill="#000000" fill-rule="evenodd" fill-opacity="1" /><path clip-path="url(#clip540)" d="M83.0984 906.439 L87.9827 906.439 L87.9827 912.318 L83.0984 912.318 L83.0984 906.439 Z" fill="#000000" fill-rule="evenodd" fill-opacity="1" /><path clip-path="url(#clip540)" d="M111.015 881.833 L99.2095 900.282 L111.015 900.282 L111.015 881.833 M109.788 877.758 L115.668 877.758 L115.668 900.282 L120.598 900.282 L120.598 904.17 L115.668 904.17 L115.668 912.318 L111.015 912.318 L111.015 904.17 L95.4132 904.17 L95.4132 899.657 L109.788 877.758 Z" fill="#000000" fill-rule="evenodd" fill-opacity="1" /><path clip-path="url(#clip540)" d="M63.2606 624.452 Q59.6495 624.452 57.8208 628.017 Q56.0152 631.559 56.0152 638.688 Q56.0152 645.795 57.8208 649.359 Q59.6495 652.901 63.2606 652.901 Q66.8948 652.901 68.7004 649.359 Q70.5291 645.795 70.5291 638.688 Q70.5291 631.559 68.7004 628.017 Q66.8948 624.452 63.2606 624.452 M63.2606 620.748 Q69.0707 620.748 72.1263 625.355 Q75.205 629.938 75.205 638.688 Q75.205 647.415 72.1263 652.021 Q69.0707 656.605 63.2606 656.605 Q57.4504 656.605 54.3717 652.021 Q51.3162 647.415 51.3162 638.688 Q51.3162 629.938 54.3717 625.355 Q57.4504 620.748 63.2606 620.748 Z" fill="#000000" fill-rule="evenodd" fill-opacity="1" /><path clip-path="url(#clip540)" d="M83.4225 650.054 L88.3067 650.054 L88.3067 655.933 L83.4225 655.933 L83.4225 650.054 Z" fill="#000000" fill-rule="evenodd" fill-opacity="1" /><path clip-path="url(#clip540)" d="M109.071 636.79 Q105.922 636.79 104.071 638.943 Q102.242 641.096 102.242 644.846 Q102.242 648.572 104.071 650.748 Q105.922 652.901 109.071 652.901 Q112.219 652.901 114.047 650.748 Q115.899 648.572 115.899 644.846 Q115.899 641.096 114.047 638.943 Q112.219 636.79 109.071 636.79 M118.353 622.137 L118.353 626.397 Q116.594 625.563 114.788 625.123 Q113.006 624.684 111.246 624.684 Q106.617 624.684 104.163 627.809 Q101.733 630.934 101.385 637.253 Q102.751 635.239 104.811 634.174 Q106.871 633.086 109.348 633.086 Q114.557 633.086 117.566 636.258 Q120.598 639.406 120.598 644.846 Q120.598 650.17 117.45 653.387 Q114.302 656.605 109.071 656.605 Q103.075 656.605 99.9039 652.021 Q96.7326 647.415 96.7326 638.688 Q96.7326 630.494 100.621 625.633 Q104.51 620.748 111.061 620.748 Q112.82 620.748 114.603 621.096 Q116.408 621.443 118.353 622.137 Z" fill="#000000" fill-rule="evenodd" fill-opacity="1" /><path clip-path="url(#clip540)" d="M63.5152 368.067 Q59.9041 368.067 58.0754 371.632 Q56.2699 375.174 56.2699 382.303 Q56.2699 389.41 58.0754 392.974 Q59.9041 396.516 63.5152 396.516 Q67.1494 396.516 68.955 392.974 Q70.7837 389.41 70.7837 382.303 Q70.7837 375.174 68.955 371.632 Q67.1494 368.067 63.5152 368.067 M63.5152 364.363 Q69.3254 364.363 72.3809 368.97 Q75.4596 373.553 75.4596 382.303 Q75.4596 391.03 72.3809 395.636 Q69.3254 400.22 63.5152 400.22 Q57.7051 400.22 54.6264 395.636 Q51.5708 391.03 51.5708 382.303 Q51.5708 373.553 54.6264 368.97 Q57.7051 364.363 63.5152 364.363 Z" fill="#000000" fill-rule="evenodd" fill-opacity="1" /><path clip-path="url(#clip540)" d="M83.6771 393.669 L88.5614 393.669 L88.5614 399.548 L83.6771 399.548 L83.6771 393.669 Z" fill="#000000" fill-rule="evenodd" fill-opacity="1" /><path clip-path="url(#clip540)" d="M108.746 383.137 Q105.413 383.137 103.492 384.919 Q101.594 386.701 101.594 389.826 Q101.594 392.951 103.492 394.734 Q105.413 396.516 108.746 396.516 Q112.08 396.516 114.001 394.734 Q115.922 392.928 115.922 389.826 Q115.922 386.701 114.001 384.919 Q112.103 383.137 108.746 383.137 M104.071 381.146 Q101.061 380.405 99.3715 378.345 Q97.7048 376.285 97.7048 373.322 Q97.7048 369.178 100.645 366.771 Q103.608 364.363 108.746 364.363 Q113.908 364.363 116.848 366.771 Q119.788 369.178 119.788 373.322 Q119.788 376.285 118.098 378.345 Q116.432 380.405 113.445 381.146 Q116.825 381.933 118.7 384.224 Q120.598 386.516 120.598 389.826 Q120.598 394.849 117.52 397.535 Q114.464 400.22 108.746 400.22 Q103.029 400.22 99.9502 397.535 Q96.8947 394.849 96.8947 389.826 Q96.8947 386.516 98.7928 384.224 Q100.691 381.933 104.071 381.146 M102.358 373.762 Q102.358 376.447 104.024 377.951 Q105.714 379.456 108.746 379.456 Q111.756 379.456 113.445 377.951 Q115.158 376.447 115.158 373.762 Q115.158 371.076 113.445 369.572 Q111.756 368.067 108.746 368.067 Q105.714 368.067 104.024 369.572 Q102.358 371.076 102.358 373.762 Z" fill="#000000" fill-rule="evenodd" fill-opacity="1" /><path clip-path="url(#clip540)" d="M54.2328 139.228 L61.8717 139.228 L61.8717 112.863 L53.5616 114.529 L53.5616 110.27 L61.8254 108.603 L66.5013 108.603 L66.5013 139.228 L74.1402 139.228 L74.1402 143.163 L54.2328 143.163 L54.2328 139.228 Z" fill="#000000" fill-rule="evenodd" fill-opacity="1" /><path clip-path="url(#clip540)" d="M83.5845 137.284 L88.4688 137.284 L88.4688 143.163 L83.5845 143.163 L83.5845 137.284 Z" fill="#000000" fill-rule="evenodd" fill-opacity="1" /><path clip-path="url(#clip540)" d="M108.654 111.682 Q105.043 111.682 103.214 115.247 Q101.409 118.789 101.409 125.918 Q101.409 133.025 103.214 136.589 Q105.043 140.131 108.654 140.131 Q112.288 140.131 114.094 136.589 Q115.922 133.025 115.922 125.918 Q115.922 118.789 114.094 115.247 Q112.288 111.682 108.654 111.682 M108.654 107.978 Q114.464 107.978 117.52 112.585 Q120.598 117.168 120.598 125.918 Q120.598 134.645 117.52 139.251 Q114.464 143.835 108.654 143.835 Q102.844 143.835 99.765 139.251 Q96.7095 134.645 96.7095 125.918 Q96.7095 117.168 99.765 112.585 Q102.844 107.978 108.654 107.978 Z" fill="#000000" fill-rule="evenodd" fill-opacity="1" /><polyline clip-path="url(#clip542)" style="stroke:#090621; stroke-linecap:round; stroke-linejoin:round; stroke-width:4; stroke-opacity:1; fill:none" points="
  532.912,1386.44 536.445,1387.8 557.811,1391.66 579.176,1393.37 600.542,1394.23 621.907,1394.68 643.272,1394.9 664.638,1394.99 686.003,1395 707.369,1394.96 
  728.734,1394.89 750.1,1394.8 771.465,1394.69 792.83,1394.57 814.196,1394.45 835.561,1394.31 856.927,1394.17 878.292,1394.02 899.657,1393.87 921.023,1393.71 
  942.388,1393.54 963.754,1393.37 985.119,1393.18 1006.48,1392.99 1027.85,1392.79 1049.22,1392.58 1070.58,1392.37 1091.95,1392.13 1113.31,1391.89 1134.68,1391.64 
  1156.04,1391.37 1177.41,1391.08 1198.77,1390.78 1220.14,1390.46 1241.5,1390.11 1262.87,1389.75 1284.23,1389.35 1305.6,1388.93 1326.97,1388.48 1348.33,1387.98 
  1369.7,1387.45 1391.06,1386.86 1405.21,1386.44 1412.43,1386.19 1433.79,1385.37 1455.16,1384.45 1476.52,1383.4 1497.89,1382.21 1519.25,1380.84 1540.62,1379.23 
  1561.99,1377.32 1583.35,1375.01 1604.72,1372.13 1626.08,1368.46 1641.35,1365.08 1647.45,1363.12 1668.81,1353.97 1684.74,1343.71 1690.18,1337.82 1700.75,1322.35 
  1708.81,1300.98 1711.54,1289 1713.38,1279.62 1716.2,1258.25 1718.09,1236.89 1719.4,1215.52 1720.33,1194.15 1721.01,1172.79 1721.51,1151.42 1721.89,1130.06 
  1722.17,1108.69 1722.38,1087.33 1722.54,1065.96 1722.66,1044.6 1722.76,1023.23 1722.83,1001.87 1722.88,980.5 1722.93,959.135 1722.96,937.769 1722.99,916.404 
  1723.01,895.038 1723.02,873.673 1723.03,852.308 1723.04,830.942 1723.04,809.577 1723.05,788.211 1723.05,766.846 1723.05,745.481 1723.04,724.115 1723.04,702.75 
  1723.03,681.384 1723.02,660.019 1723.01,638.653 1722.99,617.288 1722.96,595.923 1722.93,574.557 1722.88,553.192 1722.83,531.826 1722.76,510.461 1722.66,489.096 
  1722.54,467.73 1722.38,446.365 1722.17,424.999 1721.89,403.634 1721.51,382.268 1721.01,360.903 1720.33,339.538 1719.4,318.172 1718.09,296.807 1716.2,275.441 
  1713.38,254.076 1711.54,244.692 1708.81,232.711 1700.75,211.345 1690.18,195.869 1684.74,189.98 1668.81,179.723 1647.45,170.572 1641.35,168.614 1626.08,165.235 
  1604.72,161.558 1583.35,158.684 1561.99,156.369 1540.62,154.459 1519.25,152.851 1497.89,151.478 1476.52,150.289 1455.16,149.247 1433.79,148.325 1412.43,147.504 
  1405.21,147.249 1391.06,146.829 1369.7,146.244 1348.33,145.709 1326.97,145.216 1305.6,144.761 1284.23,144.339 1262.87,143.947 1241.5,143.58 1220.14,143.237 
  1198.77,142.915 1177.41,142.612 1156.04,142.326 1134.68,142.056 1113.31,141.8 1091.95,141.557 1070.58,141.327 1049.22,141.107 1027.85,140.898 1006.48,140.698 
  985.119,140.508 963.754,140.325 942.388,140.15 921.023,139.983 899.657,139.822 878.292,139.668 856.927,139.521 835.561,139.38 814.196,139.245 792.83,139.119 
  771.465,139.001 750.1,138.894 728.734,138.802 707.369,138.731 686.003,138.693 664.638,138.703 643.272,138.793 621.907,139.014 600.542,139.459 579.176,140.319 
  557.811,142.031 536.445,145.893 532.912,147.249 515.08,159.838 510.968,168.614 505.811,189.98 503.196,211.345 501.613,232.711 500.553,254.076 499.797,275.441 
  499.232,296.807 498.798,318.172 498.456,339.538 498.181,360.903 497.958,382.268 497.774,403.634 497.621,424.999 497.494,446.365 497.388,467.73 497.298,489.096 
  497.222,510.461 497.159,531.826 497.105,553.192 497.06,574.557 497.022,595.923 496.99,617.288 496.965,638.653 496.944,660.019 496.927,681.384 496.915,702.75 
  496.906,724.115 496.901,745.481 496.899,766.846 496.901,788.211 496.906,809.577 496.915,830.942 496.927,852.308 496.944,873.673 496.965,895.038 496.99,916.404 
  497.022,937.769 497.06,959.135 497.105,980.5 497.159,1001.87 497.222,1023.23 497.298,1044.6 497.388,1065.96 497.494,1087.33 497.621,1108.69 497.774,1130.06 
  497.958,1151.42 498.181,1172.79 498.456,1194.15 498.798,1215.52 499.232,1236.89 499.797,1258.25 500.553,1279.62 501.613,1300.98 503.196,1322.35 505.811,1343.71 
  510.968,1365.08 515.08,1373.85 532.912,1386.44 
  "/>
<polyline clip-path="url(#clip542)" style="stroke:#1f0c47; stroke-linecap:round; stroke-linejoin:round; stroke-width:4; stroke-opacity:1; fill:none" points="
  536.445,1365.75 535.624,1365.08 519.44,1343.71 515.08,1333.46 512.678,1322.35 509.511,1300.98 507.392,1279.62 505.879,1258.25 504.75,1236.89 503.881,1215.52 
  503.197,1194.15 502.647,1172.79 502.2,1151.42 501.833,1130.06 501.528,1108.69 501.274,1087.33 501.061,1065.96 500.881,1044.6 500.73,1023.23 500.603,1001.87 
  500.495,980.5 500.405,959.135 500.329,937.769 500.266,916.404 500.215,895.038 500.173,873.673 500.14,852.308 500.115,830.942 500.098,809.577 500.088,788.211 
  500.084,766.846 500.088,745.481 500.098,724.115 500.115,702.75 500.14,681.384 500.173,660.019 500.215,638.653 500.266,617.288 500.329,595.923 500.405,574.557 
  500.495,553.192 500.603,531.826 500.73,510.461 500.881,489.096 501.061,467.73 501.274,446.365 501.528,424.999 501.833,403.634 502.2,382.268 502.647,360.903 
  503.197,339.538 503.881,318.172 504.75,296.807 505.879,275.441 507.392,254.076 509.511,232.711 512.678,211.345 515.08,200.231 519.44,189.98 535.624,168.614 
  536.445,167.938 557.811,159.245 579.176,155.447 600.542,153.554 621.907,152.578 643.272,152.097 664.638,151.903 686.003,151.882 707.369,151.969 728.734,152.126 
  750.1,152.33 771.465,152.568 792.83,152.83 814.196,153.112 835.561,153.412 856.927,153.727 878.292,154.057 899.657,154.402 921.023,154.763 942.388,155.14 
  963.754,155.534 985.119,155.947 1006.48,156.379 1027.85,156.833 1049.22,157.31 1070.58,157.811 1091.95,158.339 1113.31,158.897 1134.68,159.486 1156.04,160.111 
  1177.41,160.775 1198.77,161.481 1220.14,162.234 1241.5,163.04 1262.87,163.904 1284.23,164.835 1305.6,165.84 1326.97,166.929 1348.33,168.115 1356.7,168.614 
  1369.7,169.534 1391.06,171.188 1412.43,173.03 1433.79,175.099 1455.16,177.439 1476.52,180.113 1497.89,183.198 1519.25,186.804 1535.38,189.98 1540.62,191.319 
  1561.99,197.673 1583.35,205.662 1595.67,211.345 1604.72,217.233 1623.56,232.711 1626.08,235.783 1638.65,254.076 1647.45,274.162 1647.94,275.441 1653.79,296.807 
  1657.8,318.172 1660.64,339.538 1662.67,360.903 1664.17,382.268 1665.27,403.634 1666.1,424.999 1666.72,446.365 1667.2,467.73 1667.56,489.096 1667.84,510.461 
  1668.05,531.826 1668.22,553.192 1668.34,574.557 1668.44,595.923 1668.52,617.288 1668.58,638.653 1668.62,660.019 1668.65,681.384 1668.68,702.75 1668.69,724.115 
  1668.7,745.481 1668.7,766.846 1668.7,788.211 1668.69,809.577 1668.68,830.942 1668.65,852.308 1668.62,873.673 1668.58,895.038 1668.52,916.404 1668.44,937.769 
  1668.34,959.135 1668.22,980.5 1668.05,1001.87 1667.84,1023.23 1667.56,1044.6 1667.2,1065.96 1666.72,1087.33 1666.1,1108.69 1665.27,1130.06 1664.17,1151.42 
  1662.67,1172.79 1660.64,1194.15 1657.8,1215.52 1653.79,1236.89 1647.94,1258.25 1647.45,1259.53 1638.65,1279.62 1626.08,1297.91 1623.56,1300.98 1604.72,1316.46 
  1595.67,1322.35 1583.35,1328.03 1561.99,1336.02 1540.62,1342.37 1535.38,1343.71 1519.25,1346.89 1497.89,1350.49 1476.52,1353.58 1455.16,1356.25 1433.79,1358.59 
  1412.43,1360.66 1391.06,1362.5 1369.7,1364.16 1356.7,1365.08 1348.33,1365.58 1326.97,1366.76 1305.6,1367.85 1284.23,1368.86 1262.87,1369.79 1241.5,1370.65 
  1220.14,1371.46 1198.77,1372.21 1177.41,1372.92 1156.04,1373.58 1134.68,1374.21 1113.31,1374.8 1091.95,1375.35 1070.58,1375.88 1049.22,1376.38 1027.85,1376.86 
  1006.48,1377.31 985.119,1377.75 963.754,1378.16 942.388,1378.55 921.023,1378.93 899.657,1379.29 878.292,1379.64 856.927,1379.97 835.561,1380.28 814.196,1380.58 
  792.83,1380.86 771.465,1381.12 750.1,1381.36 728.734,1381.57 707.369,1381.72 686.003,1381.81 664.638,1381.79 643.272,1381.59 621.907,1381.11 600.542,1380.14 
  579.176,1378.25 557.811,1374.45 536.445,1365.75 
  "/>
<polyline clip-path="url(#clip542)" style="stroke:#3b0964; stroke-linecap:round; stroke-linejoin:round; stroke-width:4; stroke-opacity:1; fill:none" points="
  557.811,1355.97 539.063,1343.71 536.445,1341.38 525.93,1322.35 518.641,1300.98 515.08,1285.95 514.23,1279.62 511.961,1258.25 510.268,1236.89 508.965,1215.52 
  507.938,1194.15 507.114,1172.79 506.443,1151.42 505.892,1130.06 505.435,1108.69 505.054,1087.33 504.734,1065.96 504.465,1044.6 504.238,1023.23 504.047,1001.87 
  503.886,980.5 503.75,959.135 503.637,937.769 503.542,916.404 503.465,895.038 503.402,873.673 503.353,852.308 503.315,830.942 503.289,809.577 503.274,788.211 
  503.269,766.846 503.274,745.481 503.289,724.115 503.315,702.75 503.353,681.384 503.402,660.019 503.465,638.653 503.542,617.288 503.637,595.923 503.75,574.557 
  503.886,553.192 504.047,531.826 504.238,510.461 504.465,489.096 504.734,467.73 505.054,446.365 505.435,424.999 505.892,403.634 506.443,382.268 507.114,360.903 
  507.938,339.538 508.965,318.172 510.268,296.807 511.961,275.441 514.23,254.076 515.08,247.744 518.641,232.711 525.93,211.345 536.445,192.311 539.063,189.98 
  557.811,177.718 579.176,171.444 598.436,168.614 600.542,168.348 621.907,166.874 643.272,166.151 664.638,165.862 686.003,165.835 707.369,165.973 728.734,166.217 
  750.1,166.532 771.465,166.897 792.83,167.3 814.196,167.734 835.561,168.193 854.193,168.614 856.927,168.683 878.292,169.241 899.657,169.826 921.023,170.439 
  942.388,171.081 963.754,171.754 985.119,172.459 1006.48,173.201 1027.85,173.981 1049.22,174.802 1070.58,175.668 1091.95,176.584 1113.31,177.554 1134.68,178.583 
  1156.04,179.677 1177.41,180.843 1198.77,182.088 1220.14,183.422 1241.5,184.856 1262.87,186.401 1284.23,188.072 1305.6,189.886 1306.65,189.98 1326.97,192.149 
  1348.33,194.659 1369.7,197.442 1391.06,200.545 1412.43,204.029 1433.79,207.972 1450,211.345 1455.16,212.688 1476.52,218.912 1497.89,226.262 1513.84,232.711 
  1519.25,235.593 1540.62,248.843 1547.78,254.076 1561.99,268.459 1567.93,275.441 1580.83,296.807 1583.35,302.664 1589.42,318.172 1595.41,339.538 1599.72,360.903 
  1602.88,382.268 1604.72,398.952 1605.21,403.634 1606.93,424.999 1608.23,446.365 1609.23,467.73 1609.99,489.096 1610.58,510.461 1611.03,531.826 1611.39,553.192 
  1611.66,574.557 1611.87,595.923 1612.03,617.288 1612.16,638.653 1612.25,660.019 1612.33,681.384 1612.38,702.75 1612.41,724.115 1612.43,745.481 1612.44,766.846 
  1612.43,788.211 1612.41,809.577 1612.38,830.942 1612.33,852.308 1612.25,873.673 1612.16,895.038 1612.03,916.404 1611.87,937.769 1611.66,959.135 1611.39,980.5 
  1611.03,1001.87 1610.58,1023.23 1609.99,1044.6 1609.23,1065.96 1608.23,1087.33 1606.93,1108.69 1605.21,1130.06 1604.72,1134.74 1602.88,1151.42 1599.72,1172.79 
  1595.41,1194.15 1589.42,1215.52 1583.35,1231.03 1580.83,1236.89 1567.93,1258.25 1561.99,1265.23 1547.78,1279.62 1540.62,1284.85 1519.25,1298.1 1513.84,1300.98 
  1497.89,1307.43 1476.52,1314.78 1455.16,1321 1450,1322.35 1433.79,1325.72 1412.43,1329.66 1391.06,1333.15 1369.7,1336.25 1348.33,1339.03 1326.97,1341.54 
  1306.65,1343.71 1305.6,1343.81 1284.23,1345.62 1262.87,1347.29 1241.5,1348.84 1220.14,1350.27 1198.77,1351.6 1177.41,1352.85 1156.04,1354.02 1134.68,1355.11 
  1113.31,1356.14 1091.95,1357.11 1070.58,1358.02 1049.22,1358.89 1027.85,1359.71 1006.48,1360.49 985.119,1361.23 963.754,1361.94 942.388,1362.61 921.023,1363.25 
  899.657,1363.87 878.292,1364.45 856.927,1365.01 854.193,1365.08 835.561,1365.5 814.196,1365.96 792.83,1366.39 771.465,1366.79 750.1,1367.16 728.734,1367.48 
  707.369,1367.72 686.003,1367.86 664.638,1367.83 643.272,1367.54 621.907,1366.82 600.542,1365.34 598.436,1365.08 579.176,1362.25 557.811,1355.97 
  "/>
<polyline clip-path="url(#clip542)" style="stroke:#550f6d; stroke-linecap:round; stroke-linejoin:round; stroke-width:4; stroke-opacity:1; fill:none" points="
  579.176,1345.08 575.348,1343.71 557.811,1336.05 542.796,1322.35 536.445,1314.49 530.713,1300.98 524.227,1279.62 519.608,1258.25 516.16,1236.89 515.08,1228.63 
  514.048,1215.52 512.679,1194.15 511.58,1172.79 510.686,1151.42 509.951,1130.06 509.342,1108.69 508.834,1087.33 508.407,1065.96 508.048,1044.6 507.746,1023.23 
  507.491,1001.87 507.276,980.5 507.095,959.135 506.944,937.769 506.818,916.404 506.715,895.038 506.631,873.673 506.565,852.308 506.516,830.942 506.481,809.577 
  506.461,788.211 506.454,766.846 506.461,745.481 506.481,724.115 506.516,702.75 506.565,681.384 506.631,660.019 506.715,638.653 506.818,617.288 506.944,595.923 
  507.095,574.557 507.276,553.192 507.491,531.826 507.746,510.461 508.048,489.096 508.407,467.73 508.834,446.365 509.342,424.999 509.951,403.634 510.686,382.268 
  511.58,360.903 512.679,339.538 514.048,318.172 515.08,305.065 516.16,296.807 519.608,275.441 524.227,254.076 530.713,232.711 536.445,219.206 542.796,211.345 
  557.811,197.639 575.348,189.98 579.176,188.611 600.542,184.435 621.907,182.296 643.272,181.254 664.638,180.846 686.003,180.823 707.369,181.039 728.734,181.412 
  750.1,181.89 771.465,182.444 792.83,183.054 814.196,183.71 835.561,184.406 856.927,185.139 878.292,185.909 899.657,186.716 921.023,187.56 942.388,188.445 
  963.754,189.372 977.178,189.98 985.119,190.386 1006.48,191.525 1027.85,192.727 1049.22,193.996 1070.58,195.339 1091.95,196.763 1113.31,198.275 1134.68,199.885 
  1156.04,201.604 1177.41,203.441 1198.77,205.413 1220.14,207.533 1241.5,209.822 1254.78,211.345 1262.87,212.44 1284.23,215.543 1305.6,218.95 1326.97,222.708 
  1348.33,226.875 1369.7,231.523 1374.72,232.711 1391.06,237.467 1412.43,244.486 1433.79,252.567 1437.41,254.076 1455.16,263.577 1474.17,275.441 1476.52,277.372 
  1497.44,296.807 1497.89,297.368 1512.89,318.172 1519.25,330.334 1523.67,339.538 1531.33,360.903 1536.96,382.268 1540.62,400.831 1541.14,403.634 1544.24,424.999 
  1546.59,446.365 1548.4,467.73 1549.79,489.096 1550.86,510.461 1551.7,531.826 1552.34,553.192 1552.85,574.557 1553.24,595.923 1553.55,617.288 1553.78,638.653 
  1553.96,660.019 1554.09,681.384 1554.19,702.75 1554.26,724.115 1554.3,745.481 1554.31,766.846 1554.3,788.211 1554.26,809.577 1554.19,830.942 1554.09,852.308 
  1553.96,873.673 1553.78,895.038 1553.55,916.404 1553.24,937.769 1552.85,959.135 1552.34,980.5 1551.7,1001.87 1550.86,1023.23 1549.79,1044.6 1548.4,1065.96 
  1546.59,1087.33 1544.24,1108.69 1541.14,1130.06 1540.62,1132.86 1536.96,1151.42 1531.33,1172.79 1523.67,1194.15 1519.25,1203.36 1512.89,1215.52 1497.89,1236.32 
  1497.44,1236.89 1476.52,1256.32 1474.17,1258.25 1455.16,1270.12 1437.41,1279.62 1433.79,1281.13 1412.43,1289.21 1391.06,1296.22 1374.72,1300.98 1369.7,1302.17 
  1348.33,1306.82 1326.97,1310.98 1305.6,1314.74 1284.23,1318.15 1262.87,1321.25 1254.78,1322.35 1241.5,1323.87 1220.14,1326.16 1198.77,1328.28 1177.41,1330.25 
  1156.04,1332.09 1134.68,1333.81 1113.31,1335.42 1091.95,1336.93 1070.58,1338.35 1049.22,1339.7 1027.85,1340.97 1006.48,1342.17 985.119,1343.31 977.178,1343.71 
  963.754,1344.32 942.388,1345.25 921.023,1346.13 899.657,1346.98 878.292,1347.78 856.927,1348.55 835.561,1349.29 814.196,1349.98 792.83,1350.64 771.465,1351.25 
  750.1,1351.8 728.734,1352.28 707.369,1352.65 686.003,1352.87 664.638,1352.85 643.272,1352.44 621.907,1351.4 600.542,1349.26 579.176,1345.08 
  "/>
<polyline clip-path="url(#clip542)" style="stroke:#6e186e; stroke-linecap:round; stroke-linejoin:round; stroke-width:4; stroke-opacity:1; fill:none" points="
  600.542,1332.2 579.176,1326.53 570.787,1322.35 557.811,1314.46 546.482,1300.98 536.445,1284.83 534.673,1279.62 528.903,1258.25 524.605,1236.89 521.292,1215.52 
  518.675,1194.15 516.568,1172.79 515.08,1154.43 514.929,1151.42 514.011,1130.06 513.249,1108.69 512.613,1087.33 512.08,1065.96 511.632,1044.6 511.254,1023.23 
  510.935,1001.87 510.666,980.5 510.44,959.135 510.251,937.769 510.094,916.404 509.965,895.038 509.86,873.673 509.778,852.308 509.716,830.942 509.673,809.577 
  509.647,788.211 509.639,766.846 509.647,745.481 509.673,724.115 509.716,702.75 509.778,681.384 509.86,660.019 509.965,638.653 510.094,617.288 510.251,595.923 
  510.44,574.557 510.666,553.192 510.935,531.826 511.254,510.461 511.632,489.096 512.08,467.73 512.613,446.365 513.249,424.999 514.011,403.634 514.929,382.268 
  515.08,379.258 516.568,360.903 518.675,339.538 521.292,318.172 524.605,296.807 528.903,275.441 534.673,254.076 536.445,248.858 546.482,232.711 557.811,219.227 
  570.787,211.345 579.176,207.163 600.542,201.492 621.907,198.595 643.272,197.195 664.638,196.661 686.003,196.652 707.369,196.973 728.734,197.509 750.1,198.191 
  771.465,198.978 792.83,199.845 814.196,200.779 835.561,201.77 856.927,202.817 878.292,203.917 899.657,205.072 921.023,206.283 942.388,207.555 963.754,208.892 
  985.119,210.297 1000.34,211.345 1006.48,211.828 1027.85,213.578 1049.22,215.432 1070.58,217.399 1091.95,219.492 1113.31,221.723 1134.68,224.106 1156.04,226.657 
  1177.41,229.398 1198.77,232.348 1201.26,232.711 1220.14,235.952 1241.5,239.936 1262.87,244.293 1284.23,249.079 1304.49,254.076 1305.6,254.407 1326.97,261.271 
  1348.33,268.982 1364.36,275.441 1369.7,278.126 1391.06,289.983 1402.01,296.807 1412.43,305.131 1427.06,318.172 1433.79,326.003 1444.4,339.538 1455.16,357.839 
  1456.83,360.903 1465.82,382.268 1472.56,403.634 1476.52,420.135 1477.64,424.999 1481.46,446.365 1484.41,467.73 1486.69,489.096 1488.46,510.461 1489.84,531.826 
  1490.92,553.192 1491.77,574.557 1492.43,595.923 1492.94,617.288 1493.34,638.653 1493.65,660.019 1493.88,681.384 1494.04,702.75 1494.16,724.115 1494.22,745.481 
  1494.24,766.846 1494.22,788.211 1494.16,809.577 1494.04,830.942 1493.88,852.308 1493.65,873.673 1493.34,895.038 1492.94,916.404 1492.43,937.769 1491.77,959.135 
  1490.92,980.5 1489.84,1001.87 1488.46,1023.23 1486.69,1044.6 1484.41,1065.96 1481.46,1087.33 1477.64,1108.69 1476.52,1113.56 1472.56,1130.06 1465.82,1151.42 
  1456.83,1172.79 1455.16,1175.85 1444.4,1194.15 1433.79,1207.69 1427.06,1215.52 1412.43,1228.56 1402.01,1236.89 1391.06,1243.71 1369.7,1255.57 1364.36,1258.25 
  1348.33,1264.71 1326.97,1272.42 1305.6,1279.28 1304.49,1279.62 1284.23,1284.61 1262.87,1289.4 1241.5,1293.76 1220.14,1297.74 1201.26,1300.98 1198.77,1301.34 
  1177.41,1304.29 1156.04,1307.03 1134.68,1309.59 1113.31,1311.97 1091.95,1314.2 1070.58,1316.29 1049.22,1318.26 1027.85,1320.11 1006.48,1321.86 1000.34,1322.35 
  985.119,1323.4 963.754,1324.8 942.388,1326.14 921.023,1327.41 899.657,1328.62 878.292,1329.78 856.927,1330.88 835.561,1331.92 814.196,1332.91 792.83,1333.85 
  771.465,1334.71 750.1,1335.5 728.734,1336.18 707.369,1336.72 686.003,1337.04 664.638,1337.03 643.272,1336.5 621.907,1335.1 600.542,1332.2 
  "/>
<polyline clip-path="url(#clip542)" style="stroke:#88216a; stroke-linecap:round; stroke-linejoin:round; stroke-width:4; stroke-opacity:1; fill:none" points="
  621.907,1317.7 600.542,1313.95 579.176,1306.58 570.551,1300.98 557.811,1290.92 550.215,1279.62 539.24,1258.25 536.445,1251.43 533.049,1236.89 529.086,1215.52 
  525.959,1194.15 523.445,1172.79 521.394,1151.42 519.703,1130.06 518.296,1108.69 517.118,1087.33 516.127,1065.96 515.291,1044.6 515.08,1038.31 514.762,1023.23 
  514.379,1001.87 514.057,980.5 513.785,959.135 513.558,937.769 513.37,916.404 513.215,895.038 513.089,873.673 512.991,852.308 512.916,830.942 512.864,809.577 
  512.834,788.211 512.823,766.846 512.834,745.481 512.864,724.115 512.916,702.75 512.991,681.384 513.089,660.019 513.215,638.653 513.37,617.288 513.558,595.923 
  513.785,574.557 514.057,553.192 514.379,531.826 514.762,510.461 515.08,495.378 515.291,489.096 516.127,467.73 517.118,446.365 518.296,424.999 519.703,403.634 
  521.394,382.268 523.445,360.903 525.959,339.538 529.086,318.172 533.049,296.807 536.445,282.263 539.24,275.441 550.215,254.076 557.811,242.767 570.551,232.711 
  579.176,227.109 600.542,219.746 621.907,215.995 643.272,214.198 664.638,213.534 686.003,213.559 707.369,214.02 728.734,214.765 750.1,215.705 771.465,216.786 
  792.83,217.976 814.196,219.258 835.561,220.621 856.927,222.061 878.292,223.578 899.657,225.174 921.023,226.852 942.388,228.617 963.754,230.475 985.119,232.435 
  988.014,232.711 1006.48,234.726 1027.85,237.193 1049.22,239.813 1070.58,242.603 1091.95,245.58 1113.31,248.763 1134.68,252.176 1145.89,254.076 1156.04,256.099 
  1177.41,260.639 1198.77,265.572 1220.14,270.948 1236.59,275.441 1241.5,277.056 1262.87,284.594 1284.23,292.964 1293.25,296.807 1305.6,303.289 1326.97,315.718 
  1330.84,318.172 1348.33,332.112 1356.8,339.538 1369.7,354.017 1375.35,360.903 1388.93,382.268 1391.06,386.582 1398.99,403.634 1406.63,424.999 1412.43,446.111 
  1412.49,446.365 1416.95,467.73 1420.43,489.096 1423.14,510.461 1425.27,531.826 1426.95,553.192 1428.26,574.557 1429.3,595.923 1430.11,617.288 1430.73,638.653 
  1431.22,660.019 1431.58,681.384 1431.85,702.75 1432.03,724.115 1432.13,745.481 1432.17,766.846 1432.13,788.211 1432.03,809.577 1431.85,830.942 1431.58,852.308 
  1431.22,873.673 1430.73,895.038 1430.11,916.404 1429.3,937.769 1428.26,959.135 1426.95,980.5 1425.27,1001.87 1423.14,1023.23 1420.43,1044.6 1416.95,1065.96 
  1412.49,1087.33 1412.43,1087.58 1406.63,1108.69 1398.99,1130.06 1391.06,1147.11 1388.93,1151.42 1375.35,1172.79 1369.7,1179.68 1356.8,1194.15 1348.33,1201.58 
  1330.84,1215.52 1326.97,1217.97 1305.6,1230.4 1293.25,1236.89 1284.23,1240.73 1262.87,1249.1 1241.5,1256.64 1236.59,1258.25 1220.14,1262.74 1198.77,1268.12 
  1177.41,1273.05 1156.04,1277.59 1145.89,1279.62 1134.68,1281.52 1113.31,1284.93 1091.95,1288.11 1070.58,1291.09 1049.22,1293.88 1027.85,1296.5 1006.48,1298.97 
  988.014,1300.98 985.119,1301.26 963.754,1303.22 942.388,1305.08 921.023,1306.84 899.657,1308.52 878.292,1310.11 856.927,1311.63 835.561,1313.07 814.196,1314.43 
  792.83,1315.72 771.465,1316.91 750.1,1317.99 728.734,1318.93 707.369,1319.67 686.003,1320.13 664.638,1320.16 643.272,1319.49 621.907,1317.7 
  "/>
<polyline clip-path="url(#clip542)" style="stroke:#a12b61; stroke-linecap:round; stroke-linejoin:round; stroke-width:4; stroke-opacity:1; fill:none" points="
  643.272,1301.13 641.647,1300.98 621.907,1298.92 600.542,1294.22 579.176,1284.95 572.602,1279.62 557.811,1265.06 554.056,1258.25 544.527,1236.89 537.144,1215.52 
  536.445,1213.12 533.243,1194.15 530.322,1172.79 527.941,1151.42 525.98,1130.06 524.349,1108.69 522.985,1087.33 521.839,1065.96 520.872,1044.6 520.055,1023.23 
  519.365,1001.87 518.781,980.5 518.29,959.135 517.878,937.769 517.535,916.404 517.253,895.038 517.024,873.673 516.844,852.308 516.708,830.942 516.614,809.577 
  516.558,788.211 516.539,766.846 516.558,745.481 516.614,724.115 516.708,702.75 516.844,681.384 517.024,660.019 517.253,638.653 517.535,617.288 517.878,595.923 
  518.29,574.557 518.781,553.192 519.365,531.826 520.055,510.461 520.872,489.096 521.839,467.73 522.985,446.365 524.349,424.999 525.98,403.634 527.941,382.268 
  530.322,360.903 533.243,339.538 536.445,320.576 537.144,318.172 544.527,296.807 554.056,275.441 557.811,268.634 572.602,254.076 579.176,248.743 600.542,239.475 
  621.907,234.771 641.647,232.711 643.272,232.558 664.638,231.844 686.003,231.929 707.369,232.517 711.901,232.711 728.734,233.512 750.1,234.781 771.465,236.234 
  792.83,237.832 814.196,239.553 835.561,241.385 856.927,243.324 878.292,245.37 899.657,247.527 921.023,249.799 942.388,252.196 958.349,254.076 963.754,254.806 
  985.119,257.821 1006.48,261.022 1027.85,264.427 1049.22,268.055 1070.58,271.929 1088.74,275.441 1091.95,276.167 1113.31,281.261 1134.68,286.765 1156.04,292.727 
  1169.66,296.807 1177.41,299.585 1198.77,307.794 1220.14,316.826 1223.12,318.172 1241.5,328.293 1260.02,339.538 1262.87,341.675 1284.23,359.037 1286.36,360.903 
  1305.6,382.208 1305.65,382.268 1319.99,403.634 1326.97,417.029 1330.9,424.999 1339.23,446.365 1345.72,467.73 1348.33,478.602 1350.76,489.096 1354.69,510.461 
  1357.79,531.826 1360.24,553.192 1362.18,574.557 1363.71,595.923 1364.91,617.288 1365.85,638.653 1366.58,660.019 1367.13,681.384 1367.53,702.75 1367.8,724.115 
  1367.96,745.481 1368.01,766.846 1367.96,788.211 1367.8,809.577 1367.53,830.942 1367.13,852.308 1366.58,873.673 1365.85,895.038 1364.91,916.404 1363.71,937.769 
  1362.18,959.135 1360.24,980.5 1357.79,1001.87 1354.69,1023.23 1350.76,1044.6 1348.33,1055.09 1345.72,1065.96 1339.23,1087.33 1330.9,1108.69 1326.97,1116.66 
  1319.99,1130.06 1305.65,1151.42 1305.6,1151.48 1286.36,1172.79 1284.23,1174.66 1262.87,1192.02 1260.02,1194.15 1241.5,1205.4 1223.12,1215.52 1220.14,1216.87 
  1198.77,1225.9 1177.41,1234.11 1169.66,1236.89 1156.04,1240.97 1134.68,1246.93 1113.31,1252.43 1091.95,1257.53 1088.74,1258.25 1070.58,1261.76 1049.22,1265.64 
  1027.85,1269.27 1006.48,1272.67 985.119,1275.87 963.754,1278.89 958.349,1279.62 942.388,1281.5 921.023,1283.89 899.657,1286.17 878.292,1288.32 856.927,1290.37 
  835.561,1292.31 814.196,1294.14 792.83,1295.86 771.465,1297.46 750.1,1298.91 728.734,1300.18 711.901,1300.98 707.369,1301.17 686.003,1301.76 664.638,1301.85 
  643.272,1301.13 
  "/>
<polyline clip-path="url(#clip542)" style="stroke:#ba3655; stroke-linecap:round; stroke-linejoin:round; stroke-width:4; stroke-opacity:1; fill:none" points="
  664.638,1281.77 643.272,1280.97 631.356,1279.62 621.907,1278.42 600.542,1272.67 579.176,1261.26 576.123,1258.25 558.202,1236.89 557.811,1236.33 549.679,1215.52 
  543.041,1194.15 537.668,1172.79 536.445,1167.06 534.488,1151.42 532.256,1130.06 530.402,1108.69 528.853,1087.33 527.551,1065.96 526.453,1044.6 525.527,1023.23 
  524.744,1001.87 524.083,980.5 523.526,959.135 523.059,937.769 522.671,916.404 522.352,895.038 522.093,873.673 521.89,852.308 521.736,830.942 521.629,809.577 
  521.566,788.211 521.545,766.846 521.566,745.481 521.629,724.115 521.736,702.75 521.89,681.384 522.093,660.019 522.352,638.653 522.671,617.288 523.059,595.923 
  523.526,574.557 524.083,553.192 524.744,531.826 525.527,510.461 526.453,489.096 527.551,467.73 528.853,446.365 530.402,424.999 532.256,403.634 534.488,382.268 
  536.445,366.631 537.668,360.903 543.041,339.538 549.679,318.172 557.811,297.364 558.202,296.807 576.123,275.441 579.176,272.431 600.542,261.026 621.907,255.268 
  631.356,254.076 643.272,252.723 664.638,251.92 686.003,252.111 707.369,252.931 727.225,254.076 728.734,254.174 750.1,255.862 771.465,257.789 792.83,259.905 
  814.196,262.184 835.561,264.612 856.927,267.186 878.292,269.906 899.657,272.779 918.452,275.441 921.023,275.86 942.388,279.479 963.754,283.32 985.119,287.402 
  1006.48,291.748 1027.85,296.383 1029.72,296.807 1049.22,301.983 1070.58,308.068 1091.95,314.627 1102.79,318.172 1113.31,322.263 1134.68,331.162 1153.18,339.538 
  1156.04,341.1 1177.41,353.537 1189.08,360.903 1198.77,368.403 1215.4,382.268 1220.14,387.167 1235.06,403.634 1241.5,412.564 1249.98,424.999 1261.5,446.365 
  1262.87,449.538 1270.39,467.73 1277.37,489.096 1282.88,510.461 1284.23,516.996 1287.21,531.826 1290.64,553.192 1293.36,574.557 1295.52,595.923 1297.23,617.288 
  1298.58,638.653 1299.62,660.019 1300.41,681.384 1300.99,702.75 1301.39,724.115 1301.62,745.481 1301.69,766.846 1301.62,788.211 1301.39,809.577 1300.99,830.942 
  1300.41,852.308 1299.62,873.673 1298.58,895.038 1297.23,916.404 1295.52,937.769 1293.36,959.135 1290.64,980.5 1287.21,1001.87 1284.23,1016.7 1282.88,1023.23 
  1277.37,1044.6 1270.39,1065.96 1262.87,1084.15 1261.5,1087.33 1249.98,1108.69 1241.5,1121.13 1235.06,1130.06 1220.14,1146.52 1215.4,1151.42 1198.77,1165.29 
  1189.08,1172.79 1177.41,1180.16 1156.04,1192.59 1153.18,1194.15 1134.68,1202.53 1113.31,1211.43 1102.79,1215.52 1091.95,1219.06 1070.58,1225.62 1049.22,1231.71 
  1029.72,1236.89 1027.85,1237.31 1006.48,1241.94 985.119,1246.29 963.754,1250.37 942.388,1254.21 921.023,1257.83 918.452,1258.25 899.657,1260.91 878.292,1263.79 
  856.927,1266.51 835.561,1269.08 814.196,1271.51 792.83,1273.79 771.465,1275.9 750.1,1277.83 728.734,1279.52 727.225,1279.62 707.369,1280.76 686.003,1281.58 
  664.638,1281.77 
  "/>
<polyline clip-path="url(#clip542)" style="stroke:#d04544; stroke-linecap:round; stroke-linejoin:round; stroke-width:4; stroke-opacity:1; fill:none" points="
  686.003,1259.36 664.638,1259.72 643.272,1258.86 638.704,1258.25 621.907,1255.77 600.542,1248.85 581.893,1236.89 579.176,1234.87 565.2,1215.52 557.811,1203.14 
  554.811,1194.15 548.833,1172.79 543.93,1151.42 539.864,1130.06 536.462,1108.69 536.445,1108.57 534.72,1087.33 533.263,1065.96 532.035,1044.6 530.998,1023.23 
  530.123,1001.87 529.384,980.5 528.762,959.135 528.241,937.769 527.808,916.404 527.451,895.038 527.162,873.673 526.935,852.308 526.764,830.942 526.644,809.577 
  526.574,788.211 526.55,766.846 526.574,745.481 526.644,724.115 526.764,702.75 526.935,681.384 527.162,660.019 527.451,638.653 527.808,617.288 528.241,595.923 
  528.762,574.557 529.384,553.192 530.123,531.826 530.998,510.461 532.035,489.096 533.263,467.73 534.72,446.365 536.445,425.12 536.462,424.999 539.864,403.634 
  543.93,382.268 548.833,360.903 554.811,339.538 557.811,330.556 565.2,318.172 579.176,298.819 581.893,296.807 600.542,284.838 621.907,277.925 638.704,275.441 
  643.272,274.834 664.638,273.973 686.003,274.329 707.075,275.441 707.369,275.459 728.734,277.286 750.1,279.515 771.465,282.047 792.83,284.823 814.196,287.812 
  835.561,291 856.927,294.383 871.474,296.807 878.292,298.113 899.657,302.396 921.023,306.943 942.388,311.773 963.754,316.911 968.765,318.172 985.119,322.981 
  1006.48,329.669 1027.85,336.847 1035.43,339.538 1049.22,345.333 1070.58,354.954 1082.93,360.903 1091.95,366.12 1113.31,379.359 1117.73,382.268 1134.68,395.86 
  1143.74,403.634 1156.04,416.602 1163.55,424.999 1177.41,444.259 1178.85,446.365 1190.71,467.73 1198.77,486.014 1200.08,489.096 1207.43,510.461 1213.29,531.826 
  1217.97,553.192 1220.14,565.561 1221.68,574.557 1224.62,595.923 1226.96,617.288 1228.81,638.653 1230.25,660.019 1231.35,681.384 1232.15,702.75 1232.7,724.115 
  1233.02,745.481 1233.13,766.846 1233.02,788.211 1232.7,809.577 1232.15,830.942 1231.35,852.308 1230.25,873.673 1228.81,895.038 1226.96,916.404 1224.62,937.769 
  1221.68,959.135 1220.14,968.131 1217.97,980.5 1213.29,1001.87 1207.43,1023.23 1200.08,1044.6 1198.77,1047.68 1190.71,1065.96 1178.85,1087.33 1177.41,1089.43 
  1163.55,1108.69 1156.04,1117.09 1143.74,1130.06 1134.68,1137.83 1117.73,1151.42 1113.31,1154.33 1091.95,1167.57 1082.93,1172.79 1070.58,1178.74 1049.22,1188.36 
  1035.43,1194.15 1027.85,1196.84 1006.48,1204.02 985.119,1210.71 968.765,1215.52 963.754,1216.78 942.388,1221.92 921.023,1226.75 899.657,1231.3 878.292,1235.58 
  871.474,1236.89 856.927,1239.31 835.561,1242.69 814.196,1245.88 792.83,1248.87 771.465,1251.64 750.1,1254.18 728.734,1256.41 707.369,1258.23 707.075,1258.25 
  686.003,1259.36 
  "/>
<polyline clip-path="url(#clip542)" style="stroke:#e35832; stroke-linecap:round; stroke-linejoin:round; stroke-width:4; stroke-opacity:1; fill:none" points="
  728.734,1230.16 707.369,1232.59 686.003,1234.31 664.638,1234.99 643.272,1234.03 621.907,1230.4 600.542,1222.23 591.616,1215.52 579.176,1204.73 572.63,1194.15 
  561.53,1172.79 557.811,1164.35 554.608,1151.42 550.145,1130.06 546.417,1108.69 543.283,1087.33 540.635,1065.96 538.391,1044.6 536.486,1023.23 536.445,1022.7 
  535.502,1001.87 534.686,980.5 533.998,959.135 533.423,937.769 532.944,916.404 532.55,895.038 532.231,873.673 531.981,852.308 531.791,830.942 531.659,809.577 
  531.582,788.211 531.556,766.846 531.582,745.481 531.659,724.115 531.791,702.75 531.981,681.384 532.231,660.019 532.55,638.653 532.944,617.288 533.423,595.923 
  533.998,574.557 534.686,553.192 535.502,531.826 536.445,510.995 536.486,510.461 538.391,489.096 540.635,467.73 543.283,446.365 546.417,424.999 550.145,403.634 
  554.608,382.268 557.811,369.342 561.53,360.903 572.63,339.538 579.176,328.957 591.616,318.172 600.542,311.464 621.907,303.293 643.272,299.666 664.638,298.703 
  686.003,299.377 707.369,301.101 728.734,303.529 750.1,306.456 771.465,309.762 792.83,313.381 814.196,317.277 818.866,318.172 835.561,321.855 856.927,326.856 
  878.292,332.173 899.657,337.827 905.836,339.538 921.023,344.442 942.388,351.759 963.754,359.587 967.184,360.903 985.119,369.033 1006.48,379.421 1012.03,382.268 
  1027.85,391.964 1045.62,403.634 1049.22,406.478 1070.58,424.429 1071.22,424.999 1090.98,446.365 1091.95,447.641 1106.39,467.73 1113.31,479.669 1118.55,489.096 
  1128.18,510.461 1134.68,528.389 1135.88,531.826 1141.99,553.192 1146.89,574.557 1150.82,595.923 1153.96,617.288 1156.04,635.197 1156.44,638.653 1158.36,660.019 
  1159.83,681.384 1160.91,702.75 1161.66,724.115 1162.09,745.481 1162.23,766.846 1162.09,788.211 1161.66,809.577 1160.91,830.942 1159.83,852.308 1158.36,873.673 
  1156.44,895.038 1156.04,898.495 1153.96,916.404 1150.82,937.769 1146.89,959.135 1141.99,980.5 1135.88,1001.87 1134.68,1005.3 1128.18,1023.23 1118.55,1044.6 
  1113.31,1054.02 1106.39,1065.96 1091.95,1086.05 1090.98,1087.33 1071.22,1108.69 1070.58,1109.26 1049.22,1127.21 1045.62,1130.06 1027.85,1141.73 1012.03,1151.42 
  1006.48,1154.27 985.119,1164.66 967.184,1172.79 963.754,1174.11 942.388,1181.93 921.023,1189.25 905.836,1194.15 899.657,1195.86 878.292,1201.52 856.927,1206.84 
  835.561,1211.84 818.866,1215.52 814.196,1216.42 792.83,1220.31 771.465,1223.93 750.1,1227.24 728.734,1230.16 
  "/>
<polyline clip-path="url(#clip542)" style="stroke:#f0701e; stroke-linecap:round; stroke-linejoin:round; stroke-width:4; stroke-opacity:1; fill:none" points="
  750.1,1196.1 728.734,1199.93 707.369,1203.14 686.003,1205.5 664.638,1206.59 643.272,1205.7 621.907,1201.62 605.122,1194.15 600.542,1191.86 581.588,1172.79 
  579.176,1169.99 570.606,1151.42 562.315,1130.06 557.811,1116.43 556.372,1108.69 552.968,1087.33 550.096,1065.96 547.666,1044.6 545.605,1023.23 543.857,1001.87 
  542.376,980.5 541.126,959.135 540.074,937.769 539.197,916.404 538.474,895.038 537.888,873.673 537.426,852.308 537.077,830.942 536.833,809.577 536.689,788.211 
  536.641,766.846 536.689,745.481 536.833,724.115 537.077,702.75 537.426,681.384 537.888,660.019 538.474,638.653 539.197,617.288 540.074,595.923 541.126,574.557 
  542.376,553.192 543.857,531.826 545.605,510.461 547.666,489.096 550.096,467.73 552.968,446.365 556.372,424.999 557.811,417.258 562.315,403.634 570.606,382.268 
  579.176,363.704 581.588,360.903 600.542,341.835 605.122,339.538 621.907,332.071 643.272,327.989 664.638,327.106 686.003,328.194 707.369,330.55 728.734,333.762 
  750.1,337.588 759.883,339.538 771.465,342.191 792.83,347.502 814.196,353.233 835.561,359.369 840.656,360.903 856.927,366.609 878.292,374.568 897.687,382.268 
  899.657,383.188 921.023,393.623 940.169,403.634 942.388,405.012 963.754,418.945 972.508,424.999 985.119,435.471 997.537,446.365 1006.48,455.868 1017.12,467.73 
  1027.85,482.345 1032.6,489.096 1044.89,510.461 1049.22,519.689 1054.71,531.826 1062.58,553.192 1068.92,574.557 1070.58,581.442 1073.99,595.923 1078.03,617.288 
  1081.25,638.653 1083.77,660.019 1085.71,681.384 1087.14,702.75 1088.12,724.115 1088.7,745.481 1088.89,766.846 1088.7,788.211 1088.12,809.577 1087.14,830.942 
  1085.71,852.308 1083.77,873.673 1081.25,895.038 1078.03,916.404 1073.99,937.769 1070.58,952.25 1068.92,959.135 1062.58,980.5 1054.71,1001.87 1049.22,1014 
  1044.89,1023.23 1032.6,1044.6 1027.85,1051.35 1017.12,1065.96 1006.48,1077.82 997.537,1087.33 985.119,1098.22 972.508,1108.69 963.754,1114.75 942.388,1128.68 
  940.169,1130.06 921.023,1140.07 899.657,1150.5 897.687,1151.42 878.292,1159.12 856.927,1167.08 840.656,1172.79 835.561,1174.32 814.196,1180.46 792.83,1186.19 
  771.465,1191.5 759.883,1194.15 750.1,1196.1 
  "/>
<polyline clip-path="url(#clip542)" style="stroke:#f98c09; stroke-linecap:round; stroke-linejoin:round; stroke-width:4; stroke-opacity:1; fill:none" points="
  771.465,1151.58 750.1,1157.92 728.734,1163.57 707.369,1168.35 686.003,1171.96 676.706,1172.79 664.638,1173.73 643.272,1173.05 642.03,1172.79 621.907,1168.05 
  600.542,1155.79 596.767,1151.42 580.724,1130.06 579.176,1127.69 572.565,1108.69 566.247,1087.33 560.87,1065.96 557.811,1051.79 556.941,1044.6 554.723,1023.23 
  552.845,1001.87 551.254,980.5 549.912,959.135 548.784,937.769 547.844,916.404 547.069,895.038 546.442,873.673 545.947,852.308 545.573,830.942 545.312,809.577 
  545.158,788.211 545.107,766.846 545.158,745.481 545.312,724.115 545.573,702.75 545.947,681.384 546.442,660.019 547.069,638.653 547.844,617.288 548.784,595.923 
  549.912,574.557 551.254,553.192 552.845,531.826 554.723,510.461 556.941,489.096 557.811,481.898 560.87,467.73 566.247,446.365 572.565,424.999 579.176,406.004 
  580.724,403.634 596.767,382.268 600.542,377.906 621.907,365.643 642.03,360.903 643.272,360.641 664.638,359.962 676.706,360.903 686.003,361.731 707.369,365.339 
  728.734,370.126 750.1,375.777 771.465,382.11 771.964,382.268 792.83,389.963 814.196,398.477 826.371,403.634 835.561,408.2 856.927,419.436 866.931,424.999 
  878.292,432.481 898.184,446.365 899.657,447.592 921.023,466.274 922.61,467.73 941.928,489.096 942.388,489.711 957.29,510.461 963.754,521.475 969.617,531.826 
  979.527,553.192 985.119,568.018 987.517,574.557 993.921,595.923 999.073,617.288 1003.18,638.653 1006.42,660.019 1006.48,660.558 1008.89,681.384 1010.72,702.75 
  1011.97,724.115 1012.71,745.481 1012.95,766.846 1012.71,788.211 1011.97,809.577 1010.72,830.942 1008.89,852.308 1006.48,873.134 1006.42,873.673 1003.18,895.038 
  999.073,916.404 993.921,937.769 987.517,959.135 985.119,965.674 979.527,980.5 969.617,1001.87 963.754,1012.22 957.29,1023.23 942.388,1043.98 941.928,1044.6 
  922.61,1065.96 921.023,1067.42 899.657,1086.1 898.184,1087.33 878.292,1101.21 866.931,1108.69 856.927,1114.26 835.561,1125.49 826.371,1130.06 814.196,1135.21 
  792.83,1143.73 771.964,1151.42 771.465,1151.58 
  "/>
<polyline clip-path="url(#clip542)" style="stroke:#fbaa0e; stroke-linecap:round; stroke-linejoin:round; stroke-width:4; stroke-opacity:1; fill:none" points="
  750.1,1109.13 728.734,1117.56 707.369,1124.78 687.173,1130.06 686.003,1130.32 664.638,1133.17 643.272,1132.86 632.221,1130.06 621.907,1127.13 600.542,1111.37 
  598.776,1108.69 586.497,1087.33 579.176,1072.6 577.433,1065.96 572.591,1044.6 568.461,1023.23 564.938,1001.87 561.939,980.5 559.393,959.135 557.811,943.43 
  557.494,937.769 556.491,916.404 555.664,895.038 554.995,873.673 554.467,852.308 554.069,830.942 553.791,809.577 553.627,788.211 553.573,766.846 553.627,745.481 
  553.791,724.115 554.069,702.75 554.467,681.384 554.995,660.019 555.664,638.653 556.491,617.288 557.494,595.923 557.811,590.262 559.393,574.557 561.939,553.192 
  564.938,531.826 568.461,510.461 572.591,489.096 577.433,467.73 579.176,461.095 586.497,446.365 598.776,424.999 600.542,422.322 621.907,406.562 632.221,403.634 
  643.272,400.83 664.638,400.519 686.003,403.37 687.173,403.634 707.369,408.913 728.734,416.127 750.1,424.566 751.104,424.999 771.465,435.295 791.499,446.365 
  792.83,447.233 814.196,461.984 822.041,467.73 835.561,479.523 845.992,489.096 856.927,501.138 865.031,510.461 878.292,528.919 880.303,531.826 892.564,553.192 
  899.657,568.338 902.484,574.557 910.46,595.923 916.896,617.288 921.023,634.365 922.037,638.653 926.064,660.019 929.172,681.384 931.477,702.75 933.066,724.115 
  933.997,745.481 934.303,766.846 933.997,788.211 933.066,809.577 931.477,830.942 929.172,852.308 926.064,873.673 922.037,895.038 921.023,899.327 916.896,916.404 
  910.46,937.769 902.484,959.135 899.657,965.354 892.564,980.5 880.303,1001.87 878.292,1004.77 865.031,1023.23 856.927,1032.55 845.992,1044.6 835.561,1054.17 
  822.041,1065.96 814.196,1071.71 792.83,1086.46 791.499,1087.33 771.465,1098.4 751.104,1108.69 750.1,1109.13 
  "/>
<polyline clip-path="url(#clip542)" style="stroke:#f8c931; stroke-linecap:round; stroke-linejoin:round; stroke-width:4; stroke-opacity:1; fill:none" points="
  728.734,1053.23 707.369,1065.89 707.217,1065.96 686.003,1074.62 664.638,1080.11 643.272,1080.71 621.907,1073.53 613.916,1065.96 600.542,1051.56 597.491,1044.6 
  589.382,1023.23 582.399,1001.87 579.176,990.409 577.726,980.5 575.063,959.135 572.818,937.769 570.941,916.404 569.389,895.038 568.129,873.673 567.133,852.308 
  566.38,830.942 565.853,809.577 565.542,788.211 565.439,766.846 565.542,745.481 565.853,724.115 566.38,702.75 567.133,681.384 568.129,660.019 569.389,638.653 
  570.941,617.288 572.818,595.923 575.063,574.557 577.726,553.192 579.176,543.283 582.399,531.826 589.382,510.461 597.491,489.096 600.542,482.127 613.916,467.73 
  621.907,460.159 643.272,452.985 664.638,453.584 686.003,459.069 707.217,467.73 707.369,467.803 728.734,480.462 741.411,489.096 750.1,496.119 766.319,510.461 
  771.465,515.904 785.598,531.826 792.83,541.655 800.926,553.192 813.258,574.557 814.196,576.526 823.12,595.923 831.087,617.288 835.561,632.186 837.454,638.653 
  842.447,660.019 846.308,681.384 849.178,702.75 851.158,724.115 852.319,745.481 852.702,766.846 852.319,788.211 851.158,809.577 849.178,830.942 846.308,852.308 
  842.447,873.673 837.454,895.038 835.561,901.506 831.087,916.404 823.12,937.769 814.196,957.166 813.258,959.135 800.926,980.5 792.83,992.036 785.598,1001.87 
  771.465,1017.79 766.319,1023.23 750.1,1037.57 741.411,1044.6 728.734,1053.23 
  "/>
<polyline clip-path="url(#clip542)" style="stroke:#f1e864; stroke-linecap:round; stroke-linejoin:round; stroke-width:4; stroke-opacity:1; fill:none" points="
  686.003,988.186 664.638,1000.7 657.522,1001.87 643.272,1003.84 638.807,1001.87 621.907,993.4 613.926,980.5 602.463,959.135 600.542,954.966 596.975,937.769 
  593.245,916.404 590.146,895.038 587.619,873.673 585.615,852.308 584.095,830.942 583.031,809.577 582.4,788.211 582.191,766.846 582.4,745.481 583.031,724.115 
  584.095,702.75 585.615,681.384 587.619,660.019 590.146,638.653 593.245,617.288 596.975,595.923 600.542,578.726 602.463,574.557 613.926,553.192 621.907,540.292 
  638.807,531.826 643.272,529.857 657.522,531.826 664.638,532.996 686.003,545.506 694.96,553.192 707.369,566.027 714.233,574.557 728.352,595.923 728.734,596.628 
  738.881,617.288 747.304,638.653 750.1,647.555 753.794,660.019 758.719,681.384 762.382,702.75 764.912,724.115 766.396,745.481 766.885,766.846 766.396,788.211 
  764.912,809.577 762.382,830.942 758.719,852.308 753.794,873.673 750.1,886.137 747.304,895.038 738.881,916.404 728.734,937.064 728.352,937.769 714.233,959.135 
  707.369,967.665 694.96,980.5 686.003,988.186 
  "/>
<defs>
  <clipPath id="clip543">
    <rect x="2160" y="125" width="73" height="1283"/>
  </clipPath>
</defs>
<polyline clip-path="url(#clip543)" style="stroke:#0a0723; stroke-linecap:round; stroke-linejoin:round; stroke-width:4; stroke-opacity:1; fill:none" points="
  2160.76,1327.69 2232.76,1327.69 
  "/>
<polyline clip-path="url(#clip543)" style="stroke:#200c4a; stroke-linecap:round; stroke-linejoin:round; stroke-width:4; stroke-opacity:1; fill:none" points="
  2160.76,1247.57 2232.76,1247.57 
  "/>
<polyline clip-path="url(#clip543)" style="stroke:#3c0965; stroke-linecap:round; stroke-linejoin:round; stroke-width:4; stroke-opacity:1; fill:none" points="
  2160.76,1167.45 2232.76,1167.45 
  "/>
<polyline clip-path="url(#clip543)" style="stroke:#570f6d; stroke-linecap:round; stroke-linejoin:round; stroke-width:4; stroke-opacity:1; fill:none" points="
  2160.76,1087.33 2232.76,1087.33 
  "/>
<polyline clip-path="url(#clip543)" style="stroke:#70196e; stroke-linecap:round; stroke-linejoin:round; stroke-width:4; stroke-opacity:1; fill:none" points="
  2160.76,1007.21 2232.76,1007.21 
  "/>
<polyline clip-path="url(#clip543)" style="stroke:#892269; stroke-linecap:round; stroke-linejoin:round; stroke-width:4; stroke-opacity:1; fill:none" points="
  2160.76,927.087 2232.76,927.087 
  "/>
<polyline clip-path="url(#clip543)" style="stroke:#a32b61; stroke-linecap:round; stroke-linejoin:round; stroke-width:4; stroke-opacity:1; fill:none" points="
  2160.76,846.966 2232.76,846.966 
  "/>
<polyline clip-path="url(#clip543)" style="stroke:#bb3754; stroke-linecap:round; stroke-linejoin:round; stroke-width:4; stroke-opacity:1; fill:none" points="
  2160.76,766.846 2232.76,766.846 
  "/>
<polyline clip-path="url(#clip543)" style="stroke:#d04544; stroke-linecap:round; stroke-linejoin:round; stroke-width:4; stroke-opacity:1; fill:none" points="
  2160.76,686.726 2232.76,686.726 
  "/>
<polyline clip-path="url(#clip543)" style="stroke:#e35832; stroke-linecap:round; stroke-linejoin:round; stroke-width:4; stroke-opacity:1; fill:none" points="
  2160.76,606.605 2232.76,606.605 
  "/>
<polyline clip-path="url(#clip543)" style="stroke:#f0701e; stroke-linecap:round; stroke-linejoin:round; stroke-width:4; stroke-opacity:1; fill:none" points="
  2160.76,526.485 2232.76,526.485 
  "/>
<polyline clip-path="url(#clip543)" style="stroke:#f98c09; stroke-linecap:round; stroke-linejoin:round; stroke-width:4; stroke-opacity:1; fill:none" points="
  2160.76,446.365 2232.76,446.365 
  "/>
<polyline clip-path="url(#clip543)" style="stroke:#fbaa0e; stroke-linecap:round; stroke-linejoin:round; stroke-width:4; stroke-opacity:1; fill:none" points="
  2160.76,366.244 2232.76,366.244 
  "/>
<polyline clip-path="url(#clip543)" style="stroke:#f8c931; stroke-linecap:round; stroke-linejoin:round; stroke-width:4; stroke-opacity:1; fill:none" points="
  2160.76,286.124 2232.76,286.124 
  "/>
<polyline clip-path="url(#clip543)" style="stroke:#f1e864; stroke-linecap:round; stroke-linejoin:round; stroke-width:4; stroke-opacity:1; fill:none" points="
  2160.76,206.004 2232.76,206.004 
  "/>
<path clip-path="url(#clip540)" d="M2269.43 1417.52 L2277.07 1417.52 L2277.07 1391.16 L2268.76 1392.83 L2268.76 1388.57 L2277.02 1386.9 L2281.7 1386.9 L2281.7 1417.52 L2289.33 1417.52 L2289.33 1421.46 L2269.43 1421.46 L2269.43 1417.52 Z" fill="#000000" fill-rule="evenodd" fill-opacity="1" /><path clip-path="url(#clip540)" d="M2298.78 1415.58 L2303.66 1415.58 L2303.66 1421.46 L2298.78 1421.46 L2298.78 1415.58 Z" fill="#000000" fill-rule="evenodd" fill-opacity="1" /><path clip-path="url(#clip540)" d="M2323.85 1389.98 Q2320.24 1389.98 2318.41 1393.54 Q2316.6 1397.08 2316.6 1404.21 Q2316.6 1411.32 2318.41 1414.89 Q2320.24 1418.43 2323.85 1418.43 Q2327.48 1418.43 2329.29 1414.89 Q2331.12 1411.32 2331.12 1404.21 Q2331.12 1397.08 2329.29 1393.54 Q2327.48 1389.98 2323.85 1389.98 M2323.85 1386.27 Q2329.66 1386.27 2332.71 1390.88 Q2335.79 1395.46 2335.79 1404.21 Q2335.79 1412.94 2332.71 1417.55 Q2329.66 1422.13 2323.85 1422.13 Q2318.04 1422.13 2314.96 1417.55 Q2311.9 1412.94 2311.9 1404.21 Q2311.9 1395.46 2314.96 1390.88 Q2318.04 1386.27 2323.85 1386.27 Z" fill="#000000" fill-rule="evenodd" fill-opacity="1" /><path clip-path="url(#clip540)" d="M2269.43 1210.06 L2277.07 1210.06 L2277.07 1183.7 L2268.76 1185.36 L2268.76 1181.1 L2277.02 1179.44 L2281.7 1179.44 L2281.7 1210.06 L2289.33 1210.06 L2289.33 1214 L2269.43 1214 L2269.43 1210.06 Z" fill="#000000" fill-rule="evenodd" fill-opacity="1" /><path clip-path="url(#clip540)" d="M2298.78 1208.12 L2303.66 1208.12 L2303.66 1214 L2298.78 1214 L2298.78 1208.12 Z" fill="#000000" fill-rule="evenodd" fill-opacity="1" /><path clip-path="url(#clip540)" d="M2314.66 1210.06 L2322.3 1210.06 L2322.3 1183.7 L2313.99 1185.36 L2313.99 1181.1 L2322.25 1179.44 L2326.93 1179.44 L2326.93 1210.06 L2334.57 1210.06 L2334.57 1214 L2314.66 1214 L2314.66 1210.06 Z" fill="#000000" fill-rule="evenodd" fill-opacity="1" /><path clip-path="url(#clip540)" d="M2269.43 1002.6 L2277.07 1002.6 L2277.07 976.235 L2268.76 977.901 L2268.76 973.642 L2277.02 971.976 L2281.7 971.976 L2281.7 1002.6 L2289.33 1002.6 L2289.33 1006.54 L2269.43 1006.54 L2269.43 1002.6 Z" fill="#000000" fill-rule="evenodd" fill-opacity="1" /><path clip-path="url(#clip540)" d="M2298.78 1000.66 L2303.66 1000.66 L2303.66 1006.54 L2298.78 1006.54 L2298.78 1000.66 Z" fill="#000000" fill-rule="evenodd" fill-opacity="1" /><path clip-path="url(#clip540)" d="M2317.88 1002.6 L2334.2 1002.6 L2334.2 1006.54 L2312.25 1006.54 L2312.25 1002.6 Q2314.91 999.846 2319.5 995.216 Q2324.1 990.563 2325.28 989.221 Q2327.53 986.698 2328.41 984.962 Q2329.31 983.202 2329.31 981.513 Q2329.31 978.758 2327.37 977.022 Q2325.45 975.286 2322.34 975.286 Q2320.14 975.286 2317.69 976.05 Q2315.26 976.813 2312.48 978.364 L2312.48 973.642 Q2315.31 972.508 2317.76 971.929 Q2320.21 971.351 2322.25 971.351 Q2327.62 971.351 2330.82 974.036 Q2334.01 976.721 2334.01 981.212 Q2334.01 983.341 2333.2 985.263 Q2332.41 987.161 2330.31 989.753 Q2329.73 990.425 2326.63 993.642 Q2323.52 996.837 2317.88 1002.6 Z" fill="#000000" fill-rule="evenodd" fill-opacity="1" /><path clip-path="url(#clip540)" d="M2269.43 795.138 L2277.07 795.138 L2277.07 768.773 L2268.76 770.439 L2268.76 766.18 L2277.02 764.513 L2281.7 764.513 L2281.7 795.138 L2289.33 795.138 L2289.33 799.073 L2269.43 799.073 L2269.43 795.138 Z" fill="#000000" fill-rule="evenodd" fill-opacity="1" /><path clip-path="url(#clip540)" d="M2298.78 793.194 L2303.66 793.194 L2303.66 799.073 L2298.78 799.073 L2298.78 793.194 Z" fill="#000000" fill-rule="evenodd" fill-opacity="1" /><path clip-path="url(#clip540)" d="M2328.01 780.439 Q2331.37 781.157 2333.25 783.425 Q2335.14 785.694 2335.14 789.027 Q2335.14 794.143 2331.63 796.944 Q2328.11 799.745 2321.63 799.745 Q2319.45 799.745 2317.14 799.305 Q2314.84 798.888 2312.39 798.032 L2312.39 793.518 Q2314.33 794.652 2316.65 795.231 Q2318.96 795.81 2321.49 795.81 Q2325.89 795.81 2328.18 794.073 Q2330.49 792.337 2330.49 789.027 Q2330.49 785.972 2328.34 784.259 Q2326.21 782.523 2322.39 782.523 L2318.36 782.523 L2318.36 778.68 L2322.58 778.68 Q2326.02 778.68 2327.85 777.314 Q2329.68 775.925 2329.68 773.333 Q2329.68 770.671 2327.78 769.259 Q2325.91 767.824 2322.39 767.824 Q2320.47 767.824 2318.27 768.24 Q2316.07 768.657 2313.43 769.537 L2313.43 765.37 Q2316.09 764.629 2318.41 764.259 Q2320.75 763.888 2322.81 763.888 Q2328.13 763.888 2331.23 766.319 Q2334.33 768.726 2334.33 772.847 Q2334.33 775.717 2332.69 777.708 Q2331.05 779.675 2328.01 780.439 Z" fill="#000000" fill-rule="evenodd" fill-opacity="1" /><path clip-path="url(#clip540)" d="M2269.43 587.676 L2277.07 587.676 L2277.07 561.311 L2268.76 562.977 L2268.76 558.718 L2277.02 557.051 L2281.7 557.051 L2281.7 587.676 L2289.33 587.676 L2289.33 591.611 L2269.43 591.611 L2269.43 587.676 Z" fill="#000000" fill-rule="evenodd" fill-opacity="1" /><path clip-path="url(#clip540)" d="M2298.78 585.732 L2303.66 585.732 L2303.66 591.611 L2298.78 591.611 L2298.78 585.732 Z" fill="#000000" fill-rule="evenodd" fill-opacity="1" /><path clip-path="url(#clip540)" d="M2326.7 561.125 L2314.89 579.574 L2326.7 579.574 L2326.7 561.125 M2325.47 557.051 L2331.35 557.051 L2331.35 579.574 L2336.28 579.574 L2336.28 583.463 L2331.35 583.463 L2331.35 591.611 L2326.7 591.611 L2326.7 583.463 L2311.09 583.463 L2311.09 578.949 L2325.47 557.051 Z" fill="#000000" fill-rule="evenodd" fill-opacity="1" /><path clip-path="url(#clip540)" d="M2269.43 380.214 L2277.07 380.214 L2277.07 353.849 L2268.76 355.515 L2268.76 351.256 L2277.02 349.589 L2281.7 349.589 L2281.7 380.214 L2289.33 380.214 L2289.33 384.149 L2269.43 384.149 L2269.43 380.214 Z" fill="#000000" fill-rule="evenodd" fill-opacity="1" /><path clip-path="url(#clip540)" d="M2298.78 378.27 L2303.66 378.27 L2303.66 384.149 L2298.78 384.149 L2298.78 378.27 Z" fill="#000000" fill-rule="evenodd" fill-opacity="1" /><path clip-path="url(#clip540)" d="M2313.89 349.589 L2332.25 349.589 L2332.25 353.524 L2318.18 353.524 L2318.18 361.997 Q2319.2 361.649 2320.21 361.487 Q2321.23 361.302 2322.25 361.302 Q2328.04 361.302 2331.42 364.473 Q2334.8 367.645 2334.8 373.061 Q2334.8 378.64 2331.33 381.742 Q2327.85 384.821 2321.53 384.821 Q2319.36 384.821 2317.09 384.45 Q2314.84 384.08 2312.44 383.339 L2312.44 378.64 Q2314.52 379.774 2316.74 380.33 Q2318.96 380.885 2321.44 380.885 Q2325.45 380.885 2327.78 378.779 Q2330.12 376.673 2330.12 373.061 Q2330.12 369.45 2327.78 367.344 Q2325.45 365.237 2321.44 365.237 Q2319.57 365.237 2317.69 365.654 Q2315.84 366.071 2313.89 366.95 L2313.89 349.589 Z" fill="#000000" fill-rule="evenodd" fill-opacity="1" /><path clip-path="url(#clip540)" d="M2269.43 172.752 L2277.07 172.752 L2277.07 146.386 L2268.76 148.053 L2268.76 143.794 L2277.02 142.127 L2281.7 142.127 L2281.7 172.752 L2289.33 172.752 L2289.33 176.687 L2269.43 176.687 L2269.43 172.752 Z" fill="#000000" fill-rule="evenodd" fill-opacity="1" /><path clip-path="url(#clip540)" d="M2298.78 170.808 L2303.66 170.808 L2303.66 176.687 L2298.78 176.687 L2298.78 170.808 Z" fill="#000000" fill-rule="evenodd" fill-opacity="1" /><path clip-path="url(#clip540)" d="M2324.43 157.544 Q2321.28 157.544 2319.43 159.697 Q2317.6 161.849 2317.6 165.599 Q2317.6 169.326 2319.43 171.502 Q2321.28 173.655 2324.43 173.655 Q2327.58 173.655 2329.4 171.502 Q2331.26 169.326 2331.26 165.599 Q2331.26 161.849 2329.4 159.697 Q2327.58 157.544 2324.43 157.544 M2333.71 142.891 L2333.71 147.15 Q2331.95 146.317 2330.14 145.877 Q2328.36 145.437 2326.6 145.437 Q2321.97 145.437 2319.52 148.562 Q2317.09 151.687 2316.74 158.007 Q2318.11 155.993 2320.17 154.928 Q2322.23 153.84 2324.7 153.84 Q2329.91 153.84 2332.92 157.011 Q2335.95 160.16 2335.95 165.599 Q2335.95 170.923 2332.81 174.141 Q2329.66 177.359 2324.43 177.359 Q2318.43 177.359 2315.26 172.775 Q2312.09 168.169 2312.09 159.442 Q2312.09 151.248 2315.98 146.386 Q2319.87 141.502 2326.42 141.502 Q2328.18 141.502 2329.96 141.849 Q2331.76 142.197 2333.71 142.891 Z" fill="#000000" fill-rule="evenodd" fill-opacity="1" /><polyline clip-path="url(#clip540)" style="stroke:#000000; stroke-linecap:round; stroke-linejoin:round; stroke-width:4; stroke-opacity:1; fill:none" points="
  2232.76,1407.81 2232.76,1407.81 2256.76,1407.81 2232.76,1407.81 2232.76,1200.35 2256.76,1200.35 2232.76,1200.35 2232.76,992.884 2256.76,992.884 2232.76,992.884 
  2232.76,785.422 2256.76,785.422 2232.76,785.422 2232.76,577.96 2256.76,577.96 2232.76,577.96 2232.76,370.498 2256.76,370.498 2232.76,370.498 2232.76,163.036 
  2256.76,163.036 2232.76,163.036 2232.76,125.883 
  "/>
</svg>
