<?xml version="1.0" encoding="utf-8"?>
<svg xmlns="http://www.w3.org/2000/svg" xmlns:xlink="http://www.w3.org/1999/xlink" width="600" height="400" viewBox="0 0 2400 1600">
<defs>
  <clipPath id="clip550">
    <rect x="0" y="0" width="2400" height="1600"/>
  </clipPath>
</defs>
<path clip-path="url(#clip550)" d="
M0 1600 L2400 1600 L2400 0 L0 0  Z
  " fill="#ffffff" fill-rule="evenodd" fill-opacity="1"/>
<defs>
  <clipPath id="clip551">
    <rect x="480" y="0" width="1681" height="1600"/>
  </clipPath>
</defs>
<path clip-path="url(#clip550)" d="
M153.898 1408.88 L2112.76 1408.88 L2112.76 125.843 L153.898 125.843  Z
  " fill="#ffffff" fill-rule="evenodd" fill-opacity="1"/>
<defs>
  <clipPath id="clip552">
    <rect x="153" y="125" width="1960" height="1284"/>
  </clipPath>
</defs>
<polyline clip-path="url(#clip552)" style="stroke:#000000; stroke-linecap:butt; stroke-linejoin:round; stroke-width:2; stroke-opacity:0.1; fill:none" points="
  491.81,1408.88 491.81,125.843 
  "/>
<polyline clip-path="url(#clip552)" style="stroke:#000000; stroke-linecap:butt; stroke-linejoin:round; stroke-width:2; stroke-opacity:0.1; fill:none" points="
  876.72,1408.88 876.72,125.843 
  "/>
<polyline clip-path="url(#clip552)" style="stroke:#000000; stroke-linecap:butt; stroke-linejoin:round; stroke-width:2; stroke-opacity:0.1; fill:none" points="
  1261.63,1408.88 1261.63,125.843 
  "/>
<polyline clip-path="url(#clip552)" style="stroke:#000000; stroke-linecap:butt; stroke-linejoin:round; stroke-width:2; stroke-opacity:0.1; fill:none" points="
  1646.54,1408.88 1646.54,125.843 
  "/>
<polyline clip-path="url(#clip552)" style="stroke:#000000; stroke-linecap:butt; stroke-linejoin:round; stroke-width:2; stroke-opacity:0.1; fill:none" points="
  2031.45,1408.88 2031.45,125.843 
  "/>
<polyline clip-path="url(#clip550)" style="stroke:#000000; stroke-linecap:butt; stroke-linejoin:round; stroke-width:4; stroke-opacity:1; fill:none" points="
  153.898,1408.88 2112.76,1408.88 
  "/>
<polyline clip-path="url(#clip550)" style="stroke:#000000; stroke-linecap:butt; stroke-linejoin:round; stroke-width:4; stroke-opacity:1; fill:none" points="
  491.81,1408.88 491.81,1392.04 
  "/>
<polyline clip-path="url(#clip550)" style="stroke:#000000; stroke-linecap:butt; stroke-linejoin:round; stroke-width:4; stroke-opacity:1; fill:none" points="
  876.72,1408.88 876.72,1392.04 
  "/>
<polyline clip-path="url(#clip550)" style="stroke:#000000; stroke-linecap:butt; stroke-linejoin:round; stroke-width:4; stroke-opacity:1; fill:none" points="
  1261.63,1408.88 1261.63,1392.04 
  "/>
<polyline clip-path="url(#clip550)" style="stroke:#000000; stroke-linecap:butt; stroke-linejoin:round; stroke-width:4; stroke-opacity:1; fill:none" points="
  1646.54,1408.88 1646.54,1392.04 
  "/>
<polyline clip-path="url(#clip550)" style="stroke:#000000; stroke-linecap:butt; stroke-linejoin:round; stroke-width:4; stroke-opacity:1; fill:none" points="
  2031.45,1408.88 2031.45,1392.04 
  "/>
<g clip-path="url(#clip550)">
<text style="fill:#000000; fill-opacity:1; font-family:Arial,Helvetica Neue,Helvetica,sans-serif; font-size:48px; text-anchor:middle;" transform="rotate(0, 491.81, 1470.73)" x="491.81" y="1470.73">0.0</text>
</g>
<g clip-path="url(#clip550)">
<text style="fill:#000000; fill-opacity:1; font-family:Arial,Helvetica Neue,Helvetica,sans-serif; font-size:48px; text-anchor:middle;" transform="rotate(0, 876.72, 1470.73)" x="876.72" y="1470.73">0.3</text>
</g>
<g clip-path="url(#clip550)">
<text style="fill:#000000; fill-opacity:1; font-family:Arial,Helvetica Neue,Helvetica,sans-serif; font-size:48px; text-anchor:middle;" transform="rotate(0, 1261.63, 1470.73)" x="1261.63" y="1470.73">0.6</text>
</g>
<g clip-path="url(#clip550)">
<text style="fill:#000000; fill-opacity:1; font-family:Arial,Helvetica Neue,Helvetica,sans-serif; font-size:48px; text-anchor:middle;" transform="rotate(0, 1646.54, 1470.73)" x="1646.54" y="1470.73">0.9</text>
</g>
<g clip-path="url(#clip550)">
<text style="fill:#000000; fill-opacity:1; font-family:Arial,Helvetica Neue,Helvetica,sans-serif; font-size:48px; text-anchor:middle;" transform="rotate(0, 2031.45, 1470.73)" x="2031.45" y="1470.73">1.2</text>
</g>
<polyline clip-path="url(#clip552)" style="stroke:#000000; stroke-linecap:butt; stroke-linejoin:round; stroke-width:2; stroke-opacity:0.1; fill:none" points="
  153.898,1408.88 2112.76,1408.88 
  "/>
<polyline clip-path="url(#clip552)" style="stroke:#000000; stroke-linecap:butt; stroke-linejoin:round; stroke-width:2; stroke-opacity:0.1; fill:none" points="
  153.898,1152.27 2112.76,1152.27 
  "/>
<polyline clip-path="url(#clip552)" style="stroke:#000000; stroke-linecap:butt; stroke-linejoin:round; stroke-width:2; stroke-opacity:0.1; fill:none" points="
  153.898,895.663 2112.76,895.663 
  "/>
<polyline clip-path="url(#clip552)" style="stroke:#000000; stroke-linecap:butt; stroke-linejoin:round; stroke-width:2; stroke-opacity:0.1; fill:none" points="
  153.898,639.056 2112.76,639.056 
  "/>
<polyline clip-path="url(#clip552)" style="stroke:#000000; stroke-linecap:butt; stroke-linejoin:round; stroke-width:2; stroke-opacity:0.1; fill:none" points="
  153.898,382.45 2112.76,382.45 
  "/>
<polyline clip-path="url(#clip552)" style="stroke:#000000; stroke-linecap:butt; stroke-linejoin:round; stroke-width:2; stroke-opacity:0.1; fill:none" points="
  153.898,125.843 2112.76,125.843 
  "/>
<polyline clip-path="url(#clip550)" style="stroke:#000000; stroke-linecap:butt; stroke-linejoin:round; stroke-width:4; stroke-opacity:1; fill:none" points="
  153.898,1408.88 153.898,125.843 
  "/>
<polyline clip-path="url(#clip550)" style="stroke:#000000; stroke-linecap:butt; stroke-linejoin:round; stroke-width:4; stroke-opacity:1; fill:none" points="
  153.898,1408.88 170.733,1408.88 
  "/>
<polyline clip-path="url(#clip550)" style="stroke:#000000; stroke-linecap:butt; stroke-linejoin:round; stroke-width:4; stroke-opacity:1; fill:none" points="
  153.898,1152.27 170.733,1152.27 
  "/>
<polyline clip-path="url(#clip550)" style="stroke:#000000; stroke-linecap:butt; stroke-linejoin:round; stroke-width:4; stroke-opacity:1; fill:none" points="
  153.898,895.663 170.733,895.663 
  "/>
<polyline clip-path="url(#clip550)" style="stroke:#000000; stroke-linecap:butt; stroke-linejoin:round; stroke-width:4; stroke-opacity:1; fill:none" points="
  153.898,639.056 170.733,639.056 
  "/>
<polyline clip-path="url(#clip550)" style="stroke:#000000; stroke-linecap:butt; stroke-linejoin:round; stroke-width:4; stroke-opacity:1; fill:none" points="
  153.898,382.45 170.733,382.45 
  "/>
<polyline clip-path="url(#clip550)" style="stroke:#000000; stroke-linecap:butt; stroke-linejoin:round; stroke-width:4; stroke-opacity:1; fill:none" points="
  153.898,125.843 170.733,125.843 
  "/>
<g clip-path="url(#clip550)">
<text style="fill:#000000; fill-opacity:1; font-family:Arial,Helvetica Neue,Helvetica,sans-serif; font-size:48px; text-anchor:middle;" transform="rotate(0, 84.4451, 1426.38)" x="84.4451" y="1426.38">0.0</text>
</g>
<g clip-path="url(#clip550)">
<text style="fill:#000000; fill-opacity:1; font-family:Arial,Helvetica Neue,Helvetica,sans-serif; font-size:48px; text-anchor:middle;" transform="rotate(0, 84.4451, 1169.77)" x="84.4451" y="1169.77">0.2</text>
</g>
<g clip-path="url(#clip550)">
<text style="fill:#000000; fill-opacity:1; font-family:Arial,Helvetica Neue,Helvetica,sans-serif; font-size:48px; text-anchor:middle;" transform="rotate(0, 84.4451, 913.163)" x="84.4451" y="913.163">0.4</text>
</g>
<g clip-path="url(#clip550)">
<text style="fill:#000000; fill-opacity:1; font-family:Arial,Helvetica Neue,Helvetica,sans-serif; font-size:48px; text-anchor:middle;" transform="rotate(0, 84.4451, 656.556)" x="84.4451" y="656.556">0.6</text>
</g>
<g clip-path="url(#clip550)">
<text style="fill:#000000; fill-opacity:1; font-family:Arial,Helvetica Neue,Helvetica,sans-serif; font-size:48px; text-anchor:middle;" transform="rotate(0, 84.4451, 399.95)" x="84.4451" y="399.95">0.8</text>
</g>
<g clip-path="url(#clip550)">
<text style="fill:#000000; fill-opacity:1; font-family:Arial,Helvetica Neue,Helvetica,sans-serif; font-size:48px; text-anchor:middle;" transform="rotate(0, 84.4451, 143.343)" x="84.4451" y="143.343">1.0</text>
</g>
<polyline clip-path="url(#clip552)" style="stroke:#090621; stroke-linecap:butt; stroke-linejoin:round; stroke-width:8; stroke-opacity:1; fill:none" points="
  531.042,1387.49 534.578,1388.85 555.962,1392.71 577.346,1394.43 598.73,1395.29 620.114,1395.73 641.498,1395.95 662.882,1396.04 684.265,1396.06 705.649,1396.02 
  727.033,1395.95 748.417,1395.85 769.801,1395.75 791.185,1395.63 812.569,1395.5 833.953,1395.37 855.336,1395.23 876.72,1395.08 898.104,1394.93 919.488,1394.76 
  940.872,1394.6 962.256,1394.42 983.64,1394.24 1005.02,1394.05 1026.41,1393.85 1047.79,1393.64 1069.18,1393.42 1090.56,1393.19 1111.94,1392.95 1133.33,1392.69 
  1154.71,1392.42 1176.09,1392.13 1197.48,1391.83 1218.86,1391.51 1240.25,1391.16 1261.63,1390.8 1283.01,1390.4 1304.4,1389.98 1325.78,1389.53 1347.17,1389.03 
  1368.55,1388.5 1389.93,1387.91 1404.09,1387.49 1411.32,1387.24 1432.7,1386.41 1454.09,1385.49 1475.47,1384.45 1496.85,1383.26 1518.24,1381.88 1539.62,1380.28 
  1561,1378.36 1582.39,1376.05 1603.77,1373.17 1625.16,1369.49 1640.43,1366.11 1646.54,1364.15 1667.92,1354.99 1683.87,1344.72 1689.31,1338.83 1699.89,1323.34 
  1707.96,1301.96 1710.69,1289.96 1712.53,1280.57 1715.35,1259.19 1717.24,1237.8 1718.55,1216.42 1719.49,1195.04 1720.17,1173.65 1720.67,1152.27 1721.04,1130.89 
  1721.32,1109.5 1721.54,1088.12 1721.7,1066.73 1721.82,1045.35 1721.91,1023.97 1721.99,1002.58 1722.04,981.198 1722.09,959.814 1722.12,938.43 1722.14,917.047 
  1722.16,895.663 1722.18,874.279 1722.19,852.895 1722.2,831.511 1722.2,810.127 1722.21,788.743 1722.21,767.359 1722.21,745.976 1722.2,724.592 1722.2,703.208 
  1722.19,681.824 1722.18,660.44 1722.16,639.056 1722.14,617.672 1722.12,596.288 1722.09,574.904 1722.04,553.521 1721.99,532.137 1721.91,510.753 1721.82,489.369 
  1721.7,467.985 1721.54,446.601 1721.32,425.217 1721.04,403.833 1720.67,382.45 1720.17,361.066 1719.49,339.682 1718.55,318.298 1717.24,296.914 1715.35,275.53 
  1712.53,254.146 1710.69,244.755 1707.96,232.762 1699.89,211.378 1689.31,195.889 1683.87,189.995 1667.92,179.729 1646.54,170.571 1640.43,168.611 1625.16,165.228 
  1603.77,161.548 1582.39,158.672 1561,156.355 1539.62,154.443 1518.24,152.834 1496.85,151.46 1475.47,150.269 1454.09,149.226 1432.7,148.304 1411.32,147.482 
  1404.09,147.227 1389.93,146.806 1368.55,146.221 1347.17,145.686 1325.78,145.193 1304.4,144.737 1283.01,144.315 1261.63,143.922 1240.25,143.555 1218.86,143.211 
  1197.48,142.889 1176.09,142.586 1154.71,142.3 1133.33,142.029 1111.94,141.773 1090.56,141.53 1069.18,141.299 1047.79,141.08 1026.41,140.87 1005.02,140.671 
  983.64,140.48 962.256,140.297 940.872,140.122 919.488,139.954 898.104,139.794 876.72,139.639 855.336,139.492 833.953,139.351 812.569,139.216 791.185,139.09 
  769.801,138.972 748.417,138.865 727.033,138.773 705.649,138.702 684.265,138.663 662.882,138.674 641.498,138.764 620.114,138.985 598.73,139.431 577.346,140.291 
  555.962,142.005 534.578,145.87 531.042,147.227 513.194,159.827 509.079,168.611 503.917,189.995 501.3,211.378 499.716,232.762 498.655,254.146 497.898,275.53 
  497.333,296.914 496.898,318.298 496.556,339.682 496.281,361.066 496.057,382.45 495.873,403.833 495.721,425.217 495.593,446.601 495.487,467.985 495.397,489.369 
  495.321,510.753 495.258,532.137 495.204,553.521 495.159,574.904 495.121,596.288 495.089,617.672 495.063,639.056 495.042,660.44 495.026,681.824 495.013,703.208 
  495.005,724.592 495,745.976 494.998,767.359 495,788.743 495.005,810.127 495.013,831.511 495.026,852.895 495.042,874.279 495.063,895.663 495.089,917.047 
  495.121,938.43 495.159,959.814 495.204,981.198 495.258,1002.58 495.321,1023.97 495.397,1045.35 495.487,1066.73 495.593,1088.12 495.721,1109.5 495.873,1130.89 
  496.057,1152.27 496.281,1173.65 496.556,1195.04 496.898,1216.42 497.333,1237.8 497.898,1259.19 498.655,1280.57 499.716,1301.96 501.3,1323.34 503.917,1344.72 
  509.079,1366.11 513.194,1374.89 531.042,1387.49 
  "/>
<polyline clip-path="url(#clip552)" style="stroke:#1f0c47; stroke-linecap:butt; stroke-linejoin:round; stroke-width:8; stroke-opacity:1; fill:none" points="
  534.578,1366.78 533.756,1366.11 517.559,1344.72 513.194,1334.46 510.79,1323.34 507.621,1301.96 505.499,1280.57 503.985,1259.19 502.856,1237.8 501.986,1216.42 
  501.301,1195.04 500.751,1173.65 500.304,1152.27 499.936,1130.89 499.631,1109.5 499.376,1088.12 499.163,1066.73 498.984,1045.35 498.832,1023.97 498.705,1002.58 
  498.597,981.198 498.507,959.814 498.431,938.43 498.368,917.047 498.316,895.663 498.274,874.279 498.241,852.895 498.217,831.511 498.199,810.127 498.189,788.743 
  498.186,767.359 498.189,745.976 498.199,724.592 498.217,703.208 498.241,681.824 498.274,660.44 498.316,639.056 498.368,617.672 498.431,596.288 498.507,574.904 
  498.597,553.521 498.705,532.137 498.832,510.753 498.984,489.369 499.163,467.985 499.376,446.601 499.631,425.217 499.936,403.833 500.304,382.45 500.751,361.066 
  501.301,339.682 501.986,318.298 502.856,296.914 503.985,275.53 505.499,254.146 507.621,232.762 510.79,211.378 513.194,200.255 517.559,189.995 533.756,168.611 
  534.578,167.934 555.962,159.233 577.346,155.432 598.73,153.538 620.114,152.561 641.498,152.08 662.882,151.885 684.265,151.864 705.649,151.951 727.033,152.108 
  748.417,152.313 769.801,152.55 791.185,152.813 812.569,153.095 833.953,153.395 855.336,153.71 876.72,154.04 898.104,154.386 919.488,154.747 940.872,155.125 
  962.256,155.519 983.64,155.932 1005.02,156.365 1026.41,156.819 1047.79,157.296 1069.18,157.798 1090.56,158.327 1111.94,158.885 1133.33,159.475 1154.71,160.1 
  1176.09,160.764 1197.48,161.471 1218.86,162.225 1240.25,163.031 1261.63,163.897 1283.01,164.828 1304.4,165.834 1325.78,166.924 1347.17,168.111 1355.55,168.611 
  1368.55,169.531 1389.93,171.186 1411.32,173.031 1432.7,175.101 1454.09,177.443 1475.47,180.119 1496.85,183.207 1518.24,186.816 1534.38,189.995 1539.62,191.335 
  1561,197.695 1582.39,205.691 1594.72,211.378 1603.77,217.271 1622.63,232.762 1625.16,235.837 1637.73,254.146 1646.54,274.249 1647.03,275.53 1652.89,296.914 
  1656.91,318.298 1659.74,339.682 1661.78,361.066 1663.27,382.45 1664.38,403.833 1665.21,425.217 1665.83,446.601 1666.31,467.985 1666.67,489.369 1666.95,510.753 
  1667.16,532.137 1667.33,553.521 1667.46,574.904 1667.55,596.288 1667.63,617.672 1667.69,639.056 1667.73,660.44 1667.76,681.824 1667.79,703.208 1667.8,724.592 
  1667.81,745.976 1667.82,767.359 1667.81,788.743 1667.8,810.127 1667.79,831.511 1667.76,852.895 1667.73,874.279 1667.69,895.663 1667.63,917.047 1667.55,938.43 
  1667.46,959.814 1667.33,981.198 1667.16,1002.58 1666.95,1023.97 1666.67,1045.35 1666.31,1066.73 1665.83,1088.12 1665.21,1109.5 1664.38,1130.89 1663.27,1152.27 
  1661.78,1173.65 1659.74,1195.04 1656.91,1216.42 1652.89,1237.8 1647.03,1259.19 1646.54,1260.47 1637.73,1280.57 1625.16,1298.88 1622.63,1301.96 1603.77,1317.45 
  1594.72,1323.34 1582.39,1329.03 1561,1337.02 1539.62,1343.38 1534.38,1344.72 1518.24,1347.9 1496.85,1351.51 1475.47,1354.6 1454.09,1357.28 1432.7,1359.62 
  1411.32,1361.69 1389.93,1363.53 1368.55,1365.19 1355.55,1366.11 1347.17,1366.61 1325.78,1367.79 1304.4,1368.88 1283.01,1369.89 1261.63,1370.82 1240.25,1371.69 
  1218.86,1372.49 1197.48,1373.25 1176.09,1373.95 1154.71,1374.62 1133.33,1375.24 1111.94,1375.83 1090.56,1376.39 1069.18,1376.92 1047.79,1377.42 1026.41,1377.9 
  1005.02,1378.35 983.64,1378.79 962.256,1379.2 940.872,1379.59 919.488,1379.97 898.104,1380.33 876.72,1380.68 855.336,1381.01 833.953,1381.32 812.569,1381.62 
  791.185,1381.91 769.801,1382.17 748.417,1382.41 727.033,1382.61 705.649,1382.77 684.265,1382.86 662.882,1382.83 641.498,1382.64 620.114,1382.16 598.73,1381.18 
  577.346,1379.29 555.962,1375.49 534.578,1366.78 
  "/>
<polyline clip-path="url(#clip552)" style="stroke:#3b0964; stroke-linecap:butt; stroke-linejoin:round; stroke-width:8; stroke-opacity:1; fill:none" points="
  555.962,1357 537.198,1344.72 534.578,1342.39 524.054,1323.34 516.759,1301.96 513.194,1286.91 512.344,1280.57 510.072,1259.19 508.378,1237.8 507.074,1216.42 
  506.046,1195.04 505.221,1173.65 504.55,1152.27 503.999,1130.89 503.541,1109.5 503.16,1088.12 502.839,1066.73 502.57,1045.35 502.343,1023.97 502.152,1002.58 
  501.99,981.198 501.855,959.814 501.741,938.43 501.647,917.047 501.569,895.663 501.506,874.279 501.457,852.895 501.42,831.511 501.394,810.127 501.378,788.743 
  501.373,767.359 501.378,745.976 501.394,724.592 501.42,703.208 501.457,681.824 501.506,660.44 501.569,639.056 501.647,617.672 501.741,596.288 501.855,574.904 
  501.99,553.521 502.152,532.137 502.343,510.753 502.57,489.369 502.839,467.985 503.16,446.601 503.541,425.217 503.999,403.833 504.55,382.45 505.221,361.066 
  506.046,339.682 507.074,318.298 508.378,296.914 510.072,275.53 512.344,254.146 513.194,247.808 516.759,232.762 524.054,211.378 534.578,192.328 537.198,189.995 
  555.962,177.723 577.346,171.442 596.622,168.611 598.73,168.344 620.114,166.869 641.498,166.145 662.882,165.856 684.265,165.829 705.649,165.967 727.033,166.211 
  748.417,166.526 769.801,166.892 791.185,167.296 812.569,167.73 833.953,168.189 852.601,168.611 855.336,168.68 876.72,169.238 898.104,169.824 919.488,170.437 
  940.872,171.079 962.256,171.753 983.64,172.459 1005.02,173.201 1026.41,173.982 1047.79,174.804 1069.18,175.671 1090.56,176.588 1111.94,177.558 1133.33,178.588 
  1154.71,179.683 1176.09,180.85 1197.48,182.096 1218.86,183.432 1240.25,184.866 1261.63,186.413 1283.01,188.085 1304.4,189.901 1305.44,189.995 1325.78,192.166 
  1347.17,194.678 1368.55,197.463 1389.93,200.569 1411.32,204.056 1432.7,208.002 1448.93,211.378 1454.09,212.722 1475.47,218.952 1496.85,226.309 1512.82,232.762 
  1518.24,235.647 1539.62,248.909 1546.78,254.146 1561,268.542 1566.96,275.53 1579.86,296.914 1582.39,302.776 1588.46,318.298 1594.46,339.682 1598.77,361.066 
  1601.93,382.45 1603.77,399.147 1604.27,403.833 1605.99,425.217 1607.29,446.601 1608.29,467.985 1609.05,489.369 1609.64,510.753 1610.1,532.137 1610.45,553.521 
  1610.72,574.904 1610.93,596.288 1611.1,617.672 1611.22,639.056 1611.32,660.44 1611.39,681.824 1611.44,703.208 1611.47,724.592 1611.49,745.976 1611.5,767.359 
  1611.49,788.743 1611.47,810.127 1611.44,831.511 1611.39,852.895 1611.32,874.279 1611.22,895.663 1611.1,917.047 1610.93,938.43 1610.72,959.814 1610.45,981.198 
  1610.1,1002.58 1609.64,1023.97 1609.05,1045.35 1608.29,1066.73 1607.29,1088.12 1605.99,1109.5 1604.27,1130.89 1603.77,1135.57 1601.93,1152.27 1598.77,1173.65 
  1594.46,1195.04 1588.46,1216.42 1582.39,1231.94 1579.86,1237.8 1566.96,1259.19 1561,1266.18 1546.78,1280.57 1539.62,1285.81 1518.24,1299.07 1512.82,1301.96 
  1496.85,1308.41 1475.47,1315.77 1454.09,1322 1448.93,1323.34 1432.7,1326.72 1411.32,1330.66 1389.93,1334.15 1368.55,1337.26 1347.17,1340.04 1325.78,1342.55 
  1305.44,1344.72 1304.4,1344.82 1283.01,1346.63 1261.63,1348.31 1240.25,1349.85 1218.86,1351.29 1197.48,1352.62 1176.09,1353.87 1154.71,1355.04 1133.33,1356.13 
  1111.94,1357.16 1090.56,1358.13 1069.18,1359.05 1047.79,1359.92 1026.41,1360.74 1005.02,1361.52 983.64,1362.26 962.256,1362.97 940.872,1363.64 919.488,1364.28 
  898.104,1364.9 876.72,1365.48 855.336,1366.04 852.601,1366.11 833.953,1366.53 812.569,1366.99 791.185,1367.42 769.801,1367.83 748.417,1368.19 727.033,1368.51 
  705.649,1368.75 684.265,1368.89 662.882,1368.86 641.498,1368.57 620.114,1367.85 598.73,1366.37 596.622,1366.11 577.346,1363.28 555.962,1357 
  "/>
<polyline clip-path="url(#clip552)" style="stroke:#550f6d; stroke-linecap:butt; stroke-linejoin:round; stroke-width:8; stroke-opacity:1; fill:none" points="
  577.346,1346.09 573.515,1344.72 555.962,1337.06 540.934,1323.34 534.578,1315.47 528.841,1301.96 522.35,1280.57 517.726,1259.19 514.275,1237.8 513.194,1229.54 
  512.162,1216.42 510.791,1195.04 509.692,1173.65 508.797,1152.27 508.061,1130.89 507.451,1109.5 506.943,1088.12 506.516,1066.73 506.157,1045.35 505.854,1023.97 
  505.599,1002.58 505.384,981.198 505.203,959.814 505.051,938.43 504.925,917.047 504.822,895.663 504.738,874.279 504.672,852.895 504.623,831.511 504.588,810.127 
  504.568,788.743 504.561,767.359 504.568,745.976 504.588,724.592 504.623,703.208 504.672,681.824 504.738,660.44 504.822,639.056 504.925,617.672 505.051,596.288 
  505.203,574.904 505.384,553.521 505.599,532.137 505.854,510.753 506.157,489.369 506.516,467.985 506.943,446.601 507.451,425.217 508.061,403.833 508.797,382.45 
  509.692,361.066 510.791,339.682 512.162,318.298 513.194,305.179 514.275,296.914 517.726,275.53 522.35,254.146 528.841,232.762 534.578,219.246 540.934,211.378 
  555.962,197.661 573.515,189.995 577.346,188.625 598.73,184.445 620.114,182.304 641.498,181.261 662.882,180.853 684.265,180.83 705.649,181.047 727.033,181.42 
  748.417,181.898 769.801,182.452 791.185,183.062 812.569,183.719 833.953,184.416 855.336,185.15 876.72,185.92 898.104,186.728 919.488,187.573 940.872,188.458 
  962.256,189.386 975.692,189.995 983.64,190.401 1005.02,191.541 1026.41,192.744 1047.79,194.014 1069.18,195.358 1090.56,196.783 1111.94,198.297 1133.33,199.909 
  1154.71,201.628 1176.09,203.468 1197.48,205.441 1218.86,207.563 1240.25,209.854 1253.54,211.378 1261.63,212.475 1283.01,215.58 1304.4,218.99 1325.78,222.751 
  1347.17,226.922 1368.55,231.574 1373.58,232.762 1389.93,237.523 1411.32,244.548 1432.7,252.636 1436.32,254.146 1454.09,263.655 1473.11,275.53 1475.47,277.462 
  1496.4,296.914 1496.85,297.476 1511.87,318.298 1518.24,330.471 1522.66,339.682 1530.32,361.066 1535.96,382.45 1539.62,401.028 1540.15,403.833 1543.24,425.217 
  1545.6,446.601 1547.4,467.985 1548.8,489.369 1549.87,510.753 1550.71,532.137 1551.36,553.521 1551.86,574.904 1552.25,596.288 1552.56,617.672 1552.79,639.056 
  1552.97,660.44 1553.11,681.824 1553.2,703.208 1553.27,724.592 1553.31,745.976 1553.32,767.359 1553.31,788.743 1553.27,810.127 1553.2,831.511 1553.11,852.895 
  1552.97,874.279 1552.79,895.663 1552.56,917.047 1552.25,938.43 1551.86,959.814 1551.36,981.198 1550.71,1002.58 1549.87,1023.97 1548.8,1045.35 1547.4,1066.73 
  1545.6,1088.12 1543.24,1109.5 1540.15,1130.89 1539.62,1133.69 1535.96,1152.27 1530.32,1173.65 1522.66,1195.04 1518.24,1204.25 1511.87,1216.42 1496.85,1237.24 
  1496.4,1237.8 1475.47,1257.26 1473.11,1259.19 1454.09,1271.06 1436.32,1280.57 1432.7,1282.08 1411.32,1290.17 1389.93,1297.2 1373.58,1301.96 1368.55,1303.14 
  1347.17,1307.8 1325.78,1311.97 1304.4,1315.73 1283.01,1319.14 1261.63,1322.24 1253.54,1323.34 1240.25,1324.87 1218.86,1327.16 1197.48,1329.28 1176.09,1331.25 
  1154.71,1333.09 1133.33,1334.81 1111.94,1336.42 1090.56,1337.94 1069.18,1339.36 1047.79,1340.7 1026.41,1341.97 1005.02,1343.18 983.64,1344.32 975.692,1344.72 
  962.256,1345.33 940.872,1346.26 919.488,1347.15 898.104,1347.99 876.72,1348.8 855.336,1349.57 833.953,1350.3 812.569,1351 791.185,1351.66 769.801,1352.27 
  748.417,1352.82 727.033,1353.3 705.649,1353.67 684.265,1353.89 662.882,1353.87 641.498,1353.46 620.114,1352.42 598.73,1350.27 577.346,1346.09 
  "/>
<polyline clip-path="url(#clip552)" style="stroke:#6e186e; stroke-linecap:butt; stroke-linejoin:round; stroke-width:8; stroke-opacity:1; fill:none" points="
  598.73,1333.2 577.346,1327.53 568.95,1323.34 555.962,1315.45 544.624,1301.96 534.578,1285.8 532.804,1280.57 527.03,1259.19 522.727,1237.8 519.412,1216.42 
  516.792,1195.04 514.684,1173.65 513.194,1155.28 513.044,1152.27 512.124,1130.89 511.362,1109.5 510.726,1088.12 510.192,1066.73 509.743,1045.35 509.365,1023.97 
  509.046,1002.58 508.777,981.198 508.551,959.814 508.361,938.43 508.204,917.047 508.075,895.663 507.97,874.279 507.888,852.895 507.826,831.511 507.782,810.127 
  507.757,788.743 507.748,767.359 507.757,745.976 507.782,724.592 507.826,703.208 507.888,681.824 507.97,660.44 508.075,639.056 508.204,617.672 508.361,596.288 
  508.551,574.904 508.777,553.521 509.046,532.137 509.365,510.753 509.743,489.369 510.192,467.985 510.726,446.601 511.362,425.217 512.124,403.833 513.044,382.45 
  513.194,379.436 514.684,361.066 516.792,339.682 519.412,318.298 522.727,296.914 527.03,275.53 532.804,254.146 534.578,248.923 544.624,232.762 555.962,219.267 
  568.95,211.378 577.346,207.192 598.73,201.516 620.114,198.617 641.498,197.216 662.882,196.681 684.265,196.672 705.649,196.994 727.033,197.53 748.417,198.213 
  769.801,199.001 791.185,199.869 812.569,200.803 833.953,201.795 855.336,202.843 876.72,203.944 898.104,205.1 919.488,206.312 940.872,207.586 962.256,208.923 
  983.64,210.329 998.87,211.378 1005.02,211.861 1026.41,213.613 1047.79,215.469 1069.18,217.438 1090.56,219.533 1111.94,221.765 1133.33,224.15 1154.71,226.704 
  1176.09,229.446 1197.48,232.4 1199.97,232.762 1218.86,236.007 1240.25,239.994 1261.63,244.355 1283.01,249.145 1303.29,254.146 1304.4,254.478 1325.78,261.347 
  1347.17,269.065 1363.21,275.53 1368.55,278.217 1389.93,290.084 1400.89,296.914 1411.32,305.245 1425.97,318.298 1432.7,326.135 1443.32,339.682 1454.09,357.999 
  1455.75,361.066 1464.76,382.45 1471.5,403.833 1475.47,420.349 1476.58,425.217 1480.41,446.601 1483.36,467.985 1485.64,489.369 1487.42,510.753 1488.8,532.137 
  1489.88,553.521 1490.73,574.904 1491.39,596.288 1491.9,617.672 1492.3,639.056 1492.61,660.44 1492.84,681.824 1493,703.208 1493.12,724.592 1493.18,745.976 
  1493.2,767.359 1493.18,788.743 1493.12,810.127 1493,831.511 1492.84,852.895 1492.61,874.279 1492.3,895.663 1491.9,917.047 1491.39,938.43 1490.73,959.814 
  1489.88,981.198 1488.8,1002.58 1487.42,1023.97 1485.64,1045.35 1483.36,1066.73 1480.41,1088.12 1476.58,1109.5 1475.47,1114.37 1471.5,1130.89 1464.76,1152.27 
  1455.75,1173.65 1454.09,1176.72 1443.32,1195.04 1432.7,1208.58 1425.97,1216.42 1411.32,1229.47 1400.89,1237.8 1389.93,1244.63 1368.55,1256.5 1363.21,1259.19 
  1347.17,1265.65 1325.78,1273.37 1304.4,1280.24 1303.29,1280.57 1283.01,1285.57 1261.63,1290.36 1240.25,1294.72 1218.86,1298.71 1199.97,1301.96 1197.48,1302.32 
  1176.09,1305.27 1154.71,1308.01 1133.33,1310.57 1111.94,1312.95 1090.56,1315.19 1069.18,1317.28 1047.79,1319.25 1026.41,1321.11 1005.02,1322.86 998.87,1323.34 
  983.64,1324.39 962.256,1325.8 940.872,1327.13 919.488,1328.41 898.104,1329.62 876.72,1330.78 855.336,1331.88 833.953,1332.92 812.569,1333.92 791.185,1334.85 
  769.801,1335.72 748.417,1336.51 727.033,1337.19 705.649,1337.73 684.265,1338.05 662.882,1338.04 641.498,1337.5 620.114,1336.1 598.73,1333.2 
  "/>
<polyline clip-path="url(#clip552)" style="stroke:#88216a; stroke-linecap:butt; stroke-linejoin:round; stroke-width:8; stroke-opacity:1; fill:none" points="
  620.114,1318.69 598.73,1314.93 577.346,1307.56 568.713,1301.96 555.962,1291.89 548.36,1280.57 537.375,1259.19 534.578,1252.36 531.179,1237.8 527.212,1216.42 
  524.083,1195.04 521.567,1173.65 519.514,1152.27 517.822,1130.89 516.413,1109.5 515.234,1088.12 514.243,1066.73 513.405,1045.35 513.194,1039.06 512.876,1023.97 
  512.493,1002.58 512.17,981.198 511.899,959.814 511.672,938.43 511.483,917.047 511.327,895.663 511.202,874.279 511.103,852.895 511.029,831.511 510.977,810.127 
  510.946,788.743 510.936,767.359 510.946,745.976 510.977,724.592 511.029,703.208 511.103,681.824 511.202,660.44 511.327,639.056 511.483,617.672 511.672,596.288 
  511.899,574.904 512.17,553.521 512.493,532.137 512.876,510.753 513.194,495.657 513.405,489.369 514.243,467.985 515.234,446.601 516.413,425.217 517.822,403.833 
  519.514,382.45 521.567,361.066 524.083,339.682 527.212,318.298 531.179,296.914 534.578,282.358 537.375,275.53 548.36,254.146 555.962,242.828 568.713,232.762 
  577.346,227.156 598.73,219.786 620.114,216.032 641.498,214.233 662.882,213.569 684.265,213.595 705.649,214.055 727.033,214.801 748.417,215.742 769.801,216.824 
  791.185,218.015 812.569,219.298 833.953,220.662 855.336,222.104 876.72,223.622 898.104,225.219 919.488,226.898 940.872,228.665 962.256,230.525 983.64,232.486 
  986.537,232.762 1005.02,234.78 1026.41,237.248 1047.79,239.871 1069.18,242.664 1090.56,245.643 1111.94,248.829 1133.33,252.244 1144.55,254.146 1154.71,256.171 
  1176.09,260.715 1197.48,265.652 1218.86,271.033 1235.33,275.53 1240.25,277.146 1261.63,284.691 1283.01,293.068 1292.04,296.914 1304.4,303.402 1325.78,315.842 
  1329.66,318.298 1347.17,332.25 1355.64,339.682 1368.55,354.174 1374.21,361.066 1387.8,382.45 1389.93,386.767 1397.87,403.833 1405.51,425.217 1411.32,446.347 
  1411.38,446.601 1415.85,467.985 1419.32,489.369 1422.04,510.753 1424.17,532.137 1425.85,553.521 1427.17,574.904 1428.2,596.288 1429.01,617.672 1429.64,639.056 
  1430.12,660.44 1430.49,681.824 1430.76,703.208 1430.94,724.592 1431.04,745.976 1431.08,767.359 1431.04,788.743 1430.94,810.127 1430.76,831.511 1430.49,852.895 
  1430.12,874.279 1429.64,895.663 1429.01,917.047 1428.2,938.43 1427.17,959.814 1425.85,981.198 1424.17,1002.58 1422.04,1023.97 1419.32,1045.35 1415.85,1066.73 
  1411.38,1088.12 1411.32,1088.37 1405.51,1109.5 1397.87,1130.89 1389.93,1147.95 1387.8,1152.27 1374.21,1173.65 1368.55,1180.55 1355.64,1195.04 1347.17,1202.47 
  1329.66,1216.42 1325.78,1218.88 1304.4,1231.32 1292.04,1237.8 1283.01,1241.65 1261.63,1250.03 1240.25,1257.57 1235.33,1259.19 1218.86,1263.69 1197.48,1269.07 
  1176.09,1274 1154.71,1278.55 1144.55,1280.57 1133.33,1282.47 1111.94,1285.89 1090.56,1289.08 1069.18,1292.05 1047.79,1294.85 1026.41,1297.47 1005.02,1299.94 
  986.537,1301.96 983.64,1302.23 962.256,1304.19 940.872,1306.05 919.488,1307.82 898.104,1309.5 876.72,1311.1 855.336,1312.62 833.953,1314.06 812.569,1315.42 
  791.185,1316.7 769.801,1317.89 748.417,1318.98 727.033,1319.92 705.649,1320.66 684.265,1321.12 662.882,1321.15 641.498,1320.49 620.114,1318.69 
  "/>
<polyline clip-path="url(#clip552)" style="stroke:#a12b61; stroke-linecap:butt; stroke-linejoin:round; stroke-width:8; stroke-opacity:1; fill:none" points="
  641.498,1302.11 639.87,1301.96 620.114,1299.89 598.73,1295.19 577.346,1285.91 570.766,1280.57 555.962,1266 552.204,1259.19 542.667,1237.8 535.278,1216.42 
  534.578,1214.01 531.373,1195.04 528.449,1173.65 526.067,1152.27 524.103,1130.89 522.472,1109.5 521.107,1088.12 519.959,1066.73 518.992,1045.35 518.174,1023.97 
  517.483,1002.58 516.899,981.198 516.407,959.814 515.995,938.43 515.651,917.047 515.369,895.663 515.14,874.279 514.96,852.895 514.824,831.511 514.729,810.127 
  514.673,788.743 514.655,767.359 514.673,745.976 514.729,724.592 514.824,703.208 514.96,681.824 515.14,660.44 515.369,639.056 515.651,617.672 515.995,596.288 
  516.407,574.904 516.899,553.521 517.483,532.137 518.174,510.753 518.992,489.369 519.959,467.985 521.107,446.601 522.472,425.217 524.103,403.833 526.067,382.45 
  528.449,361.066 531.373,339.682 534.578,320.704 535.278,318.298 542.667,296.914 552.204,275.53 555.962,268.717 570.766,254.146 577.346,248.809 598.73,239.533 
  620.114,234.824 639.87,232.762 641.498,232.609 662.882,231.895 684.265,231.98 705.649,232.569 710.185,232.762 727.033,233.565 748.417,234.834 769.801,236.289 
  791.185,237.888 812.569,239.611 833.953,241.445 855.336,243.385 876.72,245.433 898.104,247.591 919.488,249.866 940.872,252.264 956.846,254.146 962.256,254.877 
  983.64,257.895 1005.02,261.098 1026.41,264.506 1047.79,268.137 1069.18,272.015 1087.36,275.53 1090.56,276.256 1111.94,281.355 1133.33,286.863 1154.71,292.831 
  1168.34,296.914 1176.09,299.695 1197.48,307.911 1218.86,316.951 1221.85,318.298 1240.25,328.428 1258.78,339.682 1261.63,341.821 1283.01,359.198 1285.14,361.066 
  1304.4,382.389 1304.45,382.45 1318.8,403.833 1325.78,417.24 1329.72,425.217 1338.06,446.601 1344.55,467.985 1347.17,478.866 1349.6,489.369 1353.53,510.753 
  1356.63,532.137 1359.08,553.521 1361.02,574.904 1362.55,596.288 1363.76,617.672 1364.7,639.056 1365.43,660.44 1365.98,681.824 1366.38,703.208 1366.65,724.592 
  1366.81,745.976 1366.86,767.359 1366.81,788.743 1366.65,810.127 1366.38,831.511 1365.98,852.895 1365.43,874.279 1364.7,895.663 1363.76,917.047 1362.55,938.43 
  1361.02,959.814 1359.08,981.198 1356.63,1002.58 1353.53,1023.97 1349.6,1045.35 1347.17,1055.85 1344.55,1066.73 1338.06,1088.12 1329.72,1109.5 1325.78,1117.48 
  1318.8,1130.89 1304.45,1152.27 1304.4,1152.33 1285.14,1173.65 1283.01,1175.52 1261.63,1192.9 1258.78,1195.04 1240.25,1206.29 1221.85,1216.42 1218.86,1217.77 
  1197.48,1226.81 1176.09,1235.02 1168.34,1237.8 1154.71,1241.89 1133.33,1247.86 1111.94,1253.36 1090.56,1258.46 1087.36,1259.19 1069.18,1262.7 1047.79,1266.58 
  1026.41,1270.21 1005.02,1273.62 983.64,1276.82 962.256,1279.84 956.846,1280.57 940.872,1282.45 919.488,1284.85 898.104,1287.13 876.72,1289.29 855.336,1291.33 
  833.953,1293.27 812.569,1295.11 791.185,1296.83 769.801,1298.43 748.417,1299.88 727.033,1301.15 710.185,1301.96 705.649,1302.15 684.265,1302.74 662.882,1302.82 
  641.498,1302.11 
  "/>
<polyline clip-path="url(#clip552)" style="stroke:#ba3655; stroke-linecap:butt; stroke-linejoin:round; stroke-width:8; stroke-opacity:1; fill:none" points="
  662.882,1282.73 641.498,1281.93 629.571,1280.57 620.114,1279.38 598.73,1273.62 577.346,1262.2 574.29,1259.19 556.354,1237.8 555.962,1237.25 547.824,1216.42 
  541.179,1195.04 535.802,1173.65 534.578,1167.92 532.619,1152.27 530.385,1130.89 528.53,1109.5 526.979,1088.12 525.676,1066.73 524.578,1045.35 523.65,1023.97 
  522.867,1002.58 522.205,981.198 521.648,959.814 521.181,938.43 520.792,917.047 520.472,895.663 520.214,874.279 520.01,852.895 519.856,831.511 519.749,810.127 
  519.686,788.743 519.665,767.359 519.686,745.976 519.749,724.592 519.856,703.208 520.01,681.824 520.214,660.44 520.472,639.056 520.792,617.672 521.181,596.288 
  521.648,574.904 522.205,553.521 522.867,532.137 523.65,510.753 524.578,489.369 525.676,467.985 526.979,446.601 528.53,425.217 530.385,403.833 532.619,382.45 
  534.578,366.798 535.802,361.066 541.179,339.682 547.824,318.298 555.962,297.472 556.354,296.914 574.29,275.53 577.346,272.517 598.73,261.103 620.114,255.34 
  629.571,254.146 641.498,252.792 662.882,251.988 684.265,252.18 705.649,253 725.523,254.146 727.033,254.244 748.417,255.934 769.801,257.863 791.185,259.981 
  812.569,262.261 833.953,264.692 855.336,267.267 876.72,269.99 898.104,272.865 916.915,275.53 919.488,275.949 940.872,279.571 962.256,283.416 983.64,287.501 
  1005.02,291.851 1026.41,296.49 1028.28,296.914 1047.79,302.095 1069.18,308.185 1090.56,314.75 1101.42,318.298 1111.94,322.392 1133.33,331.298 1151.85,339.682 
  1154.71,341.245 1176.09,353.693 1187.77,361.066 1197.48,368.572 1214.12,382.45 1218.86,387.353 1233.79,403.833 1240.25,412.771 1248.73,425.217 1260.26,446.601 
  1261.63,449.777 1269.15,467.985 1276.14,489.369 1281.66,510.753 1283.01,517.294 1285.99,532.137 1289.42,553.521 1292.15,574.904 1294.31,596.288 1296.02,617.672 
  1297.37,639.056 1298.41,660.44 1299.21,681.824 1299.79,703.208 1300.18,724.592 1300.41,745.976 1300.49,767.359 1300.41,788.743 1300.18,810.127 1299.79,831.511 
  1299.21,852.895 1298.41,874.279 1297.37,895.663 1296.02,917.047 1294.31,938.43 1292.15,959.814 1289.42,981.198 1285.99,1002.58 1283.01,1017.43 1281.66,1023.97 
  1276.14,1045.35 1269.15,1066.73 1261.63,1084.94 1260.26,1088.12 1248.73,1109.5 1240.25,1121.95 1233.79,1130.89 1218.86,1147.37 1214.12,1152.27 1197.48,1166.15 
  1187.77,1173.65 1176.09,1181.03 1154.71,1193.47 1151.85,1195.04 1133.33,1203.42 1111.94,1212.33 1101.42,1216.42 1090.56,1219.97 1069.18,1226.53 1047.79,1232.62 
  1028.28,1237.8 1026.41,1238.23 1005.02,1242.87 983.64,1247.22 962.256,1251.3 940.872,1255.15 919.488,1258.77 916.915,1259.19 898.104,1261.85 876.72,1264.73 
  855.336,1267.45 833.953,1270.03 812.569,1272.46 791.185,1274.74 769.801,1276.86 748.417,1278.78 727.033,1280.47 725.523,1280.57 705.649,1281.72 684.265,1282.54 
  662.882,1282.73 
  "/>
<polyline clip-path="url(#clip552)" style="stroke:#d04544; stroke-linecap:butt; stroke-linejoin:round; stroke-width:8; stroke-opacity:1; fill:none" points="
  684.265,1260.3 662.882,1260.66 641.498,1259.8 636.925,1259.19 620.114,1256.7 598.73,1249.78 580.065,1237.8 577.346,1235.79 563.358,1216.42 555.962,1204.03 
  552.96,1195.04 546.976,1173.65 542.07,1152.27 538,1130.89 534.595,1109.5 534.578,1109.38 532.851,1088.12 531.393,1066.73 530.164,1045.35 529.127,1023.97 
  528.25,1002.58 527.511,981.198 526.888,959.814 526.367,938.43 525.933,917.047 525.576,895.663 525.287,874.279 525.06,852.895 524.888,831.511 524.769,810.127 
  524.698,788.743 524.674,767.359 524.698,745.976 524.769,724.592 524.888,703.208 525.06,681.824 525.287,660.44 525.576,639.056 525.933,617.672 526.367,596.288 
  526.888,574.904 527.511,553.521 528.25,532.137 529.127,510.753 530.164,489.369 531.393,467.985 532.851,446.601 534.578,425.339 534.595,425.217 538,403.833 
  542.07,382.45 546.976,361.066 552.96,339.682 555.962,330.692 563.358,318.298 577.346,298.927 580.065,296.914 598.73,284.935 620.114,278.016 636.925,275.53 
  641.498,274.922 662.882,274.06 684.265,274.416 705.356,275.53 705.649,275.548 727.033,277.376 748.417,279.608 769.801,282.142 791.185,284.92 812.569,287.912 
  833.953,291.102 855.336,294.488 869.896,296.914 876.72,298.221 898.104,302.508 919.488,307.059 940.872,311.893 962.256,317.036 967.272,318.298 983.64,323.111 
  1005.02,329.805 1026.41,336.989 1034,339.682 1047.79,345.482 1069.18,355.111 1081.53,361.066 1090.56,366.287 1111.94,379.537 1116.36,382.45 1133.33,396.053 
  1142.4,403.833 1154.71,416.813 1162.23,425.217 1176.09,444.493 1177.53,446.601 1189.41,467.985 1197.48,486.285 1198.78,489.369 1206.14,510.753 1212.01,532.137 
  1216.69,553.521 1218.86,565.901 1220.41,574.904 1223.35,596.288 1225.69,617.672 1227.54,639.056 1228.98,660.44 1230.08,681.824 1230.89,703.208 1231.44,724.592 
  1231.76,745.976 1231.86,767.359 1231.76,788.743 1231.44,810.127 1230.89,831.511 1230.08,852.895 1228.98,874.279 1227.54,895.663 1225.69,917.047 1223.35,938.43 
  1220.41,959.814 1218.86,968.818 1216.69,981.198 1212.01,1002.58 1206.14,1023.97 1198.78,1045.35 1197.48,1048.43 1189.41,1066.73 1177.53,1088.12 1176.09,1090.23 
  1162.23,1109.5 1154.71,1117.91 1142.4,1130.89 1133.33,1138.67 1116.36,1152.27 1111.94,1155.18 1090.56,1168.43 1081.53,1173.65 1069.18,1179.61 1047.79,1189.24 
  1034,1195.04 1026.41,1197.73 1005.02,1204.91 983.64,1211.61 967.272,1216.42 962.256,1217.68 940.872,1222.83 919.488,1227.66 898.104,1232.21 876.72,1236.5 
  869.896,1237.8 855.336,1240.23 833.953,1243.62 812.569,1246.81 791.185,1249.8 769.801,1252.58 748.417,1255.11 727.033,1257.34 705.649,1259.17 705.356,1259.19 
  684.265,1260.3 
  "/>
<polyline clip-path="url(#clip552)" style="stroke:#e35832; stroke-linecap:butt; stroke-linejoin:round; stroke-width:8; stroke-opacity:1; fill:none" points="
  727.033,1231.08 705.649,1233.51 684.265,1235.23 662.882,1235.91 641.498,1234.94 620.114,1231.31 598.73,1223.14 589.797,1216.42 577.346,1205.63 570.794,1195.04 
  559.684,1173.65 555.962,1165.21 552.756,1152.27 548.29,1130.89 544.559,1109.5 541.421,1088.12 538.771,1066.73 536.525,1045.35 534.619,1023.97 534.578,1023.43 
  533.634,1002.58 532.817,981.198 532.129,959.814 531.553,938.43 531.074,917.047 530.679,895.663 530.361,874.279 530.11,852.895 529.92,831.511 529.788,810.127 
  529.71,788.743 529.684,767.359 529.71,745.976 529.788,724.592 529.92,703.208 530.11,681.824 530.361,660.44 530.679,639.056 531.074,617.672 531.553,596.288 
  532.129,574.904 532.817,553.521 533.634,532.137 534.578,511.288 534.619,510.753 536.525,489.369 538.771,467.985 541.421,446.601 544.559,425.217 548.29,403.833 
  552.756,382.45 555.962,369.512 559.684,361.066 570.794,339.682 577.346,329.092 589.797,318.298 598.73,311.583 620.114,303.406 641.498,299.775 662.882,298.811 
  684.265,299.487 705.649,301.212 727.033,303.642 748.417,306.571 769.801,309.881 791.185,313.503 812.569,317.402 817.243,318.298 833.953,321.984 855.336,326.989 
  876.72,332.311 898.104,337.97 904.288,339.682 919.488,344.59 940.872,351.914 962.256,359.748 965.689,361.066 983.64,369.203 1005.02,379.6 1010.58,382.45 
  1026.41,392.153 1044.2,403.833 1047.79,406.68 1069.18,424.647 1069.82,425.217 1089.6,446.601 1090.56,447.878 1105.02,467.985 1111.94,479.935 1117.19,489.369 
  1126.83,510.753 1133.33,528.696 1134.53,532.137 1140.65,553.521 1145.55,574.904 1149.49,596.288 1152.62,617.672 1154.71,635.596 1155.11,639.056 1157.03,660.44 
  1158.5,681.824 1159.59,703.208 1160.33,724.592 1160.76,745.976 1160.91,767.359 1160.76,788.743 1160.33,810.127 1159.59,831.511 1158.5,852.895 1157.03,874.279 
  1155.11,895.663 1154.71,899.122 1152.62,917.047 1149.49,938.43 1145.55,959.814 1140.65,981.198 1134.53,1002.58 1133.33,1006.02 1126.83,1023.97 1117.19,1045.35 
  1111.94,1054.78 1105.02,1066.73 1090.56,1086.84 1089.6,1088.12 1069.82,1109.5 1069.18,1110.07 1047.79,1128.04 1044.2,1130.89 1026.41,1142.57 1010.58,1152.27 
  1005.02,1155.12 983.64,1165.52 965.689,1173.65 962.256,1174.97 940.872,1182.8 919.488,1190.13 904.288,1195.04 898.104,1196.75 876.72,1202.41 855.336,1207.73 
  833.953,1212.73 817.243,1216.42 812.569,1217.32 791.185,1221.22 769.801,1224.84 748.417,1228.15 727.033,1231.08 
  "/>
<polyline clip-path="url(#clip552)" style="stroke:#f0701e; stroke-linecap:butt; stroke-linejoin:round; stroke-width:8; stroke-opacity:1; fill:none" points="
  748.417,1196.99 727.033,1200.82 705.649,1204.03 684.265,1206.39 662.882,1207.48 641.498,1206.6 620.114,1202.51 603.314,1195.04 598.73,1192.74 579.76,1173.65 
  577.346,1170.85 568.768,1152.27 560.47,1130.89 555.962,1117.25 554.522,1109.5 551.115,1088.12 548.241,1066.73 545.808,1045.35 543.746,1023.97 541.996,1002.58 
  540.514,981.198 539.263,959.814 538.21,938.43 537.333,917.047 536.609,895.663 536.023,874.279 535.56,852.895 535.21,831.511 534.966,810.127 534.822,788.743 
  534.774,767.359 534.822,745.976 534.966,724.592 535.21,703.208 535.56,681.824 536.023,660.44 536.609,639.056 537.333,617.672 538.21,596.288 539.263,574.904 
  540.514,553.521 541.996,532.137 543.746,510.753 545.808,489.369 548.241,467.985 551.115,446.601 554.522,425.217 555.962,417.469 560.47,403.833 568.768,382.45 
  577.346,363.869 579.76,361.066 598.73,341.981 603.314,339.682 620.114,332.208 641.498,328.123 662.882,327.24 684.265,328.329 705.649,330.686 727.033,333.901 
  748.417,337.73 758.209,339.682 769.801,342.337 791.185,347.653 812.569,353.389 833.953,359.53 839.052,361.066 855.336,366.776 876.72,374.743 896.132,382.45 
  898.104,383.37 919.488,393.814 938.651,403.833 940.872,405.213 962.256,419.157 971.017,425.217 983.64,435.698 996.069,446.601 1005.02,456.113 1015.67,467.985 
  1026.41,482.613 1031.16,489.369 1043.46,510.753 1047.79,519.989 1053.29,532.137 1061.17,553.521 1067.52,574.904 1069.18,581.795 1072.58,596.288 1076.63,617.672 
  1079.85,639.056 1082.38,660.44 1084.32,681.824 1085.75,703.208 1086.73,724.592 1087.31,745.976 1087.5,767.359 1087.31,788.743 1086.73,810.127 1085.75,831.511 
  1084.32,852.895 1082.38,874.279 1079.85,895.663 1076.63,917.047 1072.58,938.43 1069.18,952.924 1067.52,959.814 1061.17,981.198 1053.29,1002.58 1047.79,1014.73 
  1043.46,1023.97 1031.16,1045.35 1026.41,1052.11 1015.67,1066.73 1005.02,1078.61 996.069,1088.12 983.64,1099.02 971.017,1109.5 962.256,1115.56 940.872,1129.51 
  938.651,1130.89 919.488,1140.9 898.104,1151.35 896.132,1152.27 876.72,1159.98 855.336,1167.94 839.052,1173.65 833.953,1175.19 812.569,1181.33 791.185,1187.07 
  769.801,1192.38 758.209,1195.04 748.417,1196.99 
  "/>
<polyline clip-path="url(#clip552)" style="stroke:#f98c09; stroke-linecap:butt; stroke-linejoin:round; stroke-width:8; stroke-opacity:1; fill:none" points="
  769.801,1152.43 748.417,1158.77 727.033,1164.42 705.649,1169.21 684.265,1172.82 674.96,1173.65 662.882,1174.6 641.498,1173.92 640.254,1173.65 620.114,1168.91 
  598.73,1156.64 594.952,1152.27 578.895,1130.89 577.346,1128.51 570.729,1109.5 564.406,1088.12 559.024,1066.73 555.962,1052.55 555.091,1045.35 552.872,1023.97 
  550.992,1002.58 549.4,981.198 548.056,959.814 546.928,938.43 545.987,917.047 545.211,895.663 544.583,874.279 544.088,852.895 543.714,831.511 543.453,810.127 
  543.298,788.743 543.247,767.359 543.298,745.976 543.453,724.592 543.714,703.208 544.088,681.824 544.583,660.44 545.211,639.056 545.987,617.672 546.928,596.288 
  548.056,574.904 549.4,553.521 550.992,532.137 552.872,510.753 555.091,489.369 555.962,482.165 559.024,467.985 564.406,446.601 570.729,425.217 577.346,406.205 
  578.895,403.833 594.952,382.45 598.73,378.083 620.114,365.81 640.254,361.066 641.498,360.803 662.882,360.123 674.96,361.066 684.265,361.894 705.649,365.505 
  727.033,370.297 748.417,375.952 769.801,382.291 770.3,382.45 791.185,390.151 812.569,398.672 824.755,403.833 833.953,408.404 855.336,419.65 865.35,425.217 
  876.72,432.705 896.63,446.601 898.104,447.829 919.488,466.528 921.077,467.985 940.412,489.369 940.872,489.985 955.786,510.753 962.256,521.777 968.124,532.137 
  978.043,553.521 983.64,568.359 986.04,574.904 992.449,596.288 997.606,617.672 1001.72,639.056 1004.96,660.44 1005.02,660.98 1007.43,681.824 1009.26,703.208 
  1010.52,724.592 1011.25,745.976 1011.49,767.359 1011.25,788.743 1010.52,810.127 1009.26,831.511 1007.43,852.895 1005.02,873.739 1004.96,874.279 1001.72,895.663 
  997.606,917.047 992.449,938.43 986.04,959.814 983.64,966.359 978.043,981.198 968.124,1002.58 962.256,1012.94 955.786,1023.97 940.872,1044.73 940.412,1045.35 
  921.077,1066.73 919.488,1068.19 898.104,1086.89 896.63,1088.12 876.72,1102.01 865.35,1109.5 855.336,1115.07 833.953,1126.31 824.755,1130.89 812.569,1136.05 
  791.185,1144.57 770.3,1152.27 769.801,1152.43 
  "/>
<polyline clip-path="url(#clip552)" style="stroke:#fbaa0e; stroke-linecap:butt; stroke-linejoin:round; stroke-width:8; stroke-opacity:1; fill:none" points="
  748.417,1109.94 727.033,1118.38 705.649,1125.6 685.436,1130.89 684.265,1131.15 662.882,1134 641.498,1133.69 630.436,1130.89 620.114,1127.95 598.73,1112.18 
  596.963,1109.5 584.673,1088.12 577.346,1073.37 575.601,1066.73 570.755,1045.35 566.621,1023.97 563.096,1002.58 560.093,981.198 557.546,959.814 555.962,944.096 
  555.645,938.43 554.641,917.047 553.814,895.663 553.144,874.279 552.616,852.895 552.217,831.511 551.939,810.127 551.775,788.743 551.72,767.359 551.775,745.976 
  551.939,724.592 552.217,703.208 552.616,681.824 553.144,660.44 553.814,639.056 554.641,617.672 555.645,596.288 555.962,590.622 557.546,574.904 560.093,553.521 
  563.096,532.137 566.621,510.753 570.755,489.369 575.601,467.985 577.346,461.344 584.673,446.601 596.963,425.217 598.73,422.538 620.114,406.764 630.436,403.833 
  641.498,401.027 662.882,400.716 684.265,403.569 685.436,403.833 705.649,409.117 727.033,416.338 748.417,424.783 749.423,425.217 769.801,435.521 789.852,446.601 
  791.185,447.47 812.569,462.234 820.42,467.985 833.953,479.788 844.392,489.369 855.336,501.422 863.448,510.753 876.72,529.227 878.733,532.137 891.004,553.521 
  898.104,568.68 900.934,574.904 908.916,596.288 915.358,617.672 919.488,634.764 920.504,639.056 924.533,660.44 927.644,681.824 929.951,703.208 931.542,724.592 
  932.473,745.976 932.78,767.359 932.473,788.743 931.542,810.127 929.951,831.511 927.644,852.895 924.533,874.279 920.504,895.663 919.488,899.955 915.358,917.047 
  908.916,938.43 900.934,959.814 898.104,966.039 891.004,981.198 878.733,1002.58 876.72,1005.49 863.448,1023.97 855.336,1033.3 844.392,1045.35 833.953,1054.93 
  820.42,1066.73 812.569,1072.48 791.185,1087.25 789.852,1088.12 769.801,1099.2 749.423,1109.5 748.417,1109.94 
  "/>
<polyline clip-path="url(#clip552)" style="stroke:#f8c931; stroke-linecap:butt; stroke-linejoin:round; stroke-width:8; stroke-opacity:1; fill:none" points="
  727.033,1053.99 705.649,1066.66 705.498,1066.73 684.265,1075.4 662.882,1080.89 641.498,1081.49 620.114,1074.31 612.116,1066.73 598.73,1052.32 595.676,1045.35 
  587.561,1023.97 580.572,1002.58 577.346,991.115 575.895,981.198 573.23,959.814 570.983,938.43 569.103,917.047 567.55,895.663 566.289,874.279 565.292,852.895 
  564.539,831.511 564.012,810.127 563.7,788.743 563.597,767.359 563.7,745.976 564.012,724.592 564.539,703.208 565.292,681.824 566.289,660.44 567.55,639.056 
  569.103,617.672 570.983,596.288 573.23,574.904 575.895,553.521 577.346,543.603 580.572,532.137 587.561,510.753 595.676,489.369 598.73,482.394 612.116,467.985 
  620.114,460.408 641.498,453.227 662.882,453.827 684.265,459.317 705.498,467.985 705.649,468.058 727.033,480.728 739.721,489.369 748.417,496.398 764.651,510.753 
  769.801,516.2 783.946,532.137 791.185,541.974 799.287,553.521 811.631,574.904 812.569,576.875 821.501,596.288 829.475,617.672 833.953,632.583 835.847,639.056 
  840.844,660.44 844.709,681.824 847.581,703.208 849.563,724.592 850.725,745.976 851.108,767.359 850.725,788.743 849.563,810.127 847.581,831.511 844.709,852.895 
  840.844,874.279 835.847,895.663 833.953,902.136 829.475,917.047 821.501,938.43 812.569,957.844 811.631,959.814 799.287,981.198 791.185,992.745 783.946,1002.58 
  769.801,1018.52 764.651,1023.97 748.417,1038.32 739.721,1045.35 727.033,1053.99 
  "/>
<polyline clip-path="url(#clip552)" style="stroke:#f1e864; stroke-linecap:butt; stroke-linejoin:round; stroke-width:8; stroke-opacity:1; fill:none" points="
  684.265,988.89 662.882,1001.41 655.759,1002.58 641.498,1004.55 637.028,1002.58 620.114,994.109 612.126,981.198 600.653,959.814 598.73,955.642 595.16,938.43 
  591.427,917.047 588.325,895.663 585.796,874.279 583.791,852.895 582.27,831.511 581.204,810.127 580.572,788.743 580.363,767.359 580.572,745.976 581.204,724.592 
  582.27,703.208 583.791,681.824 585.796,660.44 588.325,639.056 591.427,617.672 595.16,596.288 598.73,579.077 600.653,574.904 612.126,553.521 620.114,540.609 
  637.028,532.137 641.498,530.165 655.759,532.137 662.882,533.307 684.265,545.828 693.229,553.521 705.649,566.367 712.519,574.904 726.651,596.288 727.033,596.994 
  737.188,617.672 745.619,639.056 748.417,647.966 752.114,660.44 757.044,681.824 760.71,703.208 763.242,724.592 764.728,745.976 765.217,767.359 764.728,788.743 
  763.242,810.127 760.71,831.511 757.044,852.895 752.114,874.279 748.417,886.753 745.619,895.663 737.188,917.047 727.033,937.725 726.651,938.43 712.519,959.814 
  705.649,968.352 693.229,981.198 684.265,988.89 
  "/>
<defs>
  <clipPath id="clip553">
    <rect x="2160" y="125" width="73" height="1284"/>
  </clipPath>
</defs>
<polyline clip-path="url(#clip553)" style="stroke:#0a0723; stroke-linecap:butt; stroke-linejoin:round; stroke-width:8; stroke-opacity:1; fill:none" points="
  2160.76,1328.69 2232.76,1328.69 
  "/>
<polyline clip-path="url(#clip553)" style="stroke:#200c4a; stroke-linecap:butt; stroke-linejoin:round; stroke-width:8; stroke-opacity:1; fill:none" points="
  2160.76,1248.5 2232.76,1248.5 
  "/>
<polyline clip-path="url(#clip553)" style="stroke:#3c0965; stroke-linecap:butt; stroke-linejoin:round; stroke-width:8; stroke-opacity:1; fill:none" points="
  2160.76,1168.31 2232.76,1168.31 
  "/>
<polyline clip-path="url(#clip553)" style="stroke:#570f6d; stroke-linecap:butt; stroke-linejoin:round; stroke-width:8; stroke-opacity:1; fill:none" points="
  2160.76,1088.12 2232.76,1088.12 
  "/>
<polyline clip-path="url(#clip553)" style="stroke:#70196e; stroke-linecap:butt; stroke-linejoin:round; stroke-width:8; stroke-opacity:1; fill:none" points="
  2160.76,1007.93 2232.76,1007.93 
  "/>
<polyline clip-path="url(#clip553)" style="stroke:#892269; stroke-linecap:butt; stroke-linejoin:round; stroke-width:8; stroke-opacity:1; fill:none" points="
  2160.76,927.739 2232.76,927.739 
  "/>
<polyline clip-path="url(#clip553)" style="stroke:#a32b61; stroke-linecap:butt; stroke-linejoin:round; stroke-width:8; stroke-opacity:1; fill:none" points="
  2160.76,847.549 2232.76,847.549 
  "/>
<polyline clip-path="url(#clip553)" style="stroke:#bb3754; stroke-linecap:butt; stroke-linejoin:round; stroke-width:8; stroke-opacity:1; fill:none" points="
  2160.76,767.359 2232.76,767.359 
  "/>
<polyline clip-path="url(#clip553)" style="stroke:#d04544; stroke-linecap:butt; stroke-linejoin:round; stroke-width:8; stroke-opacity:1; fill:none" points="
  2160.76,687.17 2232.76,687.17 
  "/>
<polyline clip-path="url(#clip553)" style="stroke:#e35832; stroke-linecap:butt; stroke-linejoin:round; stroke-width:8; stroke-opacity:1; fill:none" points="
  2160.76,606.98 2232.76,606.98 
  "/>
<polyline clip-path="url(#clip553)" style="stroke:#f0701e; stroke-linecap:butt; stroke-linejoin:round; stroke-width:8; stroke-opacity:1; fill:none" points="
  2160.76,526.791 2232.76,526.791 
  "/>
<polyline clip-path="url(#clip553)" style="stroke:#f98c09; stroke-linecap:butt; stroke-linejoin:round; stroke-width:8; stroke-opacity:1; fill:none" points="
  2160.76,446.601 2232.76,446.601 
  "/>
<polyline clip-path="url(#clip553)" style="stroke:#fbaa0e; stroke-linecap:butt; stroke-linejoin:round; stroke-width:8; stroke-opacity:1; fill:none" points="
  2160.76,366.412 2232.76,366.412 
  "/>
<polyline clip-path="url(#clip553)" style="stroke:#f8c931; stroke-linecap:butt; stroke-linejoin:round; stroke-width:8; stroke-opacity:1; fill:none" points="
  2160.76,286.222 2232.76,286.222 
  "/>
<polyline clip-path="url(#clip553)" style="stroke:#f1e864; stroke-linecap:butt; stroke-linejoin:round; stroke-width:8; stroke-opacity:1; fill:none" points="
  2160.76,206.032 2232.76,206.032 
  "/>
<g clip-path="url(#clip550)">
<text style="fill:#000000; fill-opacity:1; font-family:Arial,Helvetica Neue,Helvetica,sans-serif; font-size:48px; text-anchor:start;" transform="rotate(0, 2268.76, 1422.53)" x="2268.76" y="1422.53">1.0</text>
</g>
<g clip-path="url(#clip550)">
<text style="fill:#000000; fill-opacity:1; font-family:Arial,Helvetica Neue,Helvetica,sans-serif; font-size:48px; text-anchor:start;" transform="rotate(0, 2268.76, 1214.89)" x="2268.76" y="1214.89">1.1</text>
</g>
<g clip-path="url(#clip550)">
<text style="fill:#000000; fill-opacity:1; font-family:Arial,Helvetica Neue,Helvetica,sans-serif; font-size:48px; text-anchor:start;" transform="rotate(0, 2268.76, 1007.24)" x="2268.76" y="1007.24">1.2</text>
</g>
<g clip-path="url(#clip550)">
<text style="fill:#000000; fill-opacity:1; font-family:Arial,Helvetica Neue,Helvetica,sans-serif; font-size:48px; text-anchor:start;" transform="rotate(0, 2268.76, 799.603)" x="2268.76" y="799.603">1.3</text>
</g>
<g clip-path="url(#clip550)">
<text style="fill:#000000; fill-opacity:1; font-family:Arial,Helvetica Neue,Helvetica,sans-serif; font-size:48px; text-anchor:start;" transform="rotate(0, 2268.76, 591.962)" x="2268.76" y="591.962">1.4</text>
</g>
<g clip-path="url(#clip550)">
<text style="fill:#000000; fill-opacity:1; font-family:Arial,Helvetica Neue,Helvetica,sans-serif; font-size:48px; text-anchor:start;" transform="rotate(0, 2268.76, 384.32)" x="2268.76" y="384.32">1.5</text>
</g>
<g clip-path="url(#clip550)">
<text style="fill:#000000; fill-opacity:1; font-family:Arial,Helvetica Neue,Helvetica,sans-serif; font-size:48px; text-anchor:start;" transform="rotate(0, 2268.76, 176.679)" x="2268.76" y="176.679">1.6</text>
</g>
<polyline clip-path="url(#clip550)" style="stroke:#000000; stroke-linecap:butt; stroke-linejoin:round; stroke-width:4; stroke-opacity:1; fill:none" points="
  2232.76,1408.88 2232.76,1408.88 2256.76,1408.88 2232.76,1408.88 2232.76,1201.23 2256.76,1201.23 2232.76,1201.23 2232.76,993.593 2256.76,993.593 2232.76,993.593 
  2232.76,785.952 2256.76,785.952 2232.76,785.952 2232.76,578.31 2256.76,578.31 2232.76,578.31 2232.76,370.669 2256.76,370.669 2232.76,370.669 2232.76,163.028 
  2256.76,163.028 2232.76,163.028 2232.76,125.843 
  "/>
</svg>
