<?xml version="1.0" encoding="utf-8"?>
<svg xmlns="http://www.w3.org/2000/svg" xmlns:xlink="http://www.w3.org/1999/xlink" width="600" height="400" viewBox="0 0 2400 1600">
<defs>
  <clipPath id="clip380">
    <rect x="0" y="0" width="2400" height="1600"/>
  </clipPath>
</defs>
<path clip-path="url(#clip380)" d="
M0 1600 L2400 1600 L2400 0 L0 0  Z
  " fill="#ffffff" fill-rule="evenodd" fill-opacity="1"/>
<defs>
  <clipPath id="clip381">
    <rect x="480" y="0" width="1681" height="1600"/>
  </clipPath>
</defs>
<path clip-path="url(#clip380)" d="
M799.919 1423.18 L1728.28 1423.18 L1728.28 123.472 L799.919 123.472  Z
  " fill="#ffffff" fill-rule="evenodd" fill-opacity="1"/>
<defs>
  <clipPath id="clip382">
    <rect x="799" y="123" width="929" height="1301"/>
  </clipPath>
</defs>
<polyline clip-path="url(#clip380)" style="stroke:#000000; stroke-linecap:round; stroke-linejoin:round; stroke-width:4; stroke-opacity:1; fill:none" points="
  799.919,1423.18 1728.28,1423.18 
  "/>
<polyline clip-path="url(#clip380)" style="stroke:#000000; stroke-linecap:round; stroke-linejoin:round; stroke-width:4; stroke-opacity:1; fill:none" points="
  826.194,1423.18 826.194,1404.28 
  "/>
<polyline clip-path="url(#clip380)" style="stroke:#000000; stroke-linecap:round; stroke-linejoin:round; stroke-width:4; stroke-opacity:1; fill:none" points="
  1001.36,1423.18 1001.36,1404.28 
  "/>
<polyline clip-path="url(#clip380)" style="stroke:#000000; stroke-linecap:round; stroke-linejoin:round; stroke-width:4; stroke-opacity:1; fill:none" points="
  1176.52,1423.18 1176.52,1404.28 
  "/>
<polyline clip-path="url(#clip380)" style="stroke:#000000; stroke-linecap:round; stroke-linejoin:round; stroke-width:4; stroke-opacity:1; fill:none" points="
  1351.68,1423.18 1351.68,1404.28 
  "/>
<polyline clip-path="url(#clip380)" style="stroke:#000000; stroke-linecap:round; stroke-linejoin:round; stroke-width:4; stroke-opacity:1; fill:none" points="
  1526.84,1423.18 1526.84,1404.28 
  "/>
<polyline clip-path="url(#clip380)" style="stroke:#000000; stroke-linecap:round; stroke-linejoin:round; stroke-width:4; stroke-opacity:1; fill:none" points="
  1702.01,1423.18 1702.01,1404.28 
  "/>
<path clip-path="url(#clip380)" d="M816.576 1481.64 L824.214 1481.64 L824.214 1455.28 L815.904 1456.95 L815.904 1452.69 L824.168 1451.02 L828.844 1451.02 L828.844 1481.64 L836.483 1481.64 L836.483 1485.58 L816.576 1485.58 L816.576 1481.64 Z" fill="#000000" fill-rule="evenodd" fill-opacity="1" /><path clip-path="url(#clip380)" d="M996.009 1481.64 L1012.33 1481.64 L1012.33 1485.58 L990.384 1485.58 L990.384 1481.64 Q993.046 1478.89 997.63 1474.26 Q1002.24 1469.61 1003.42 1468.27 Q1005.66 1465.74 1006.54 1464.01 Q1007.44 1462.25 1007.44 1460.56 Q1007.44 1457.8 1005.5 1456.07 Q1003.58 1454.33 1000.48 1454.33 Q998.278 1454.33 995.824 1455.09 Q993.393 1455.86 990.616 1457.41 L990.616 1452.69 Q993.44 1451.55 995.893 1450.97 Q998.347 1450.39 1000.38 1450.39 Q1005.75 1450.39 1008.95 1453.08 Q1012.14 1455.77 1012.14 1460.26 Q1012.14 1462.39 1011.33 1464.31 Q1010.55 1466.2 1008.44 1468.8 Q1007.86 1469.47 1004.76 1472.69 Q1001.66 1475.88 996.009 1481.64 Z" fill="#000000" fill-rule="evenodd" fill-opacity="1" /><path clip-path="url(#clip380)" d="M1180.77 1466.95 Q1184.12 1467.66 1186 1469.93 Q1187.9 1472.2 1187.9 1475.53 Q1187.9 1480.65 1184.38 1483.45 Q1180.86 1486.25 1174.38 1486.25 Q1172.2 1486.25 1169.89 1485.81 Q1167.6 1485.39 1165.14 1484.54 L1165.14 1480.02 Q1167.09 1481.16 1169.4 1481.74 Q1171.72 1482.32 1174.24 1482.32 Q1178.64 1482.32 1180.93 1480.58 Q1183.24 1478.84 1183.24 1475.53 Q1183.24 1472.48 1181.09 1470.77 Q1178.96 1469.03 1175.14 1469.03 L1171.11 1469.03 L1171.11 1465.19 L1175.33 1465.19 Q1178.78 1465.19 1180.6 1463.82 Q1182.43 1462.43 1182.43 1459.84 Q1182.43 1457.18 1180.54 1455.77 Q1178.66 1454.33 1175.14 1454.33 Q1173.22 1454.33 1171.02 1454.75 Q1168.82 1455.16 1166.18 1456.04 L1166.18 1451.88 Q1168.85 1451.14 1171.16 1450.77 Q1173.5 1450.39 1175.56 1450.39 Q1180.88 1450.39 1183.98 1452.83 Q1187.09 1455.23 1187.09 1459.35 Q1187.09 1462.22 1185.44 1464.21 Q1183.8 1466.18 1180.77 1466.95 Z" fill="#000000" fill-rule="evenodd" fill-opacity="1" /><path clip-path="url(#clip380)" d="M1354.69 1455.09 L1342.89 1473.54 L1354.69 1473.54 L1354.69 1455.09 M1353.46 1451.02 L1359.34 1451.02 L1359.34 1473.54 L1364.27 1473.54 L1364.27 1477.43 L1359.34 1477.43 L1359.34 1485.58 L1354.69 1485.58 L1354.69 1477.43 L1339.09 1477.43 L1339.09 1472.92 L1353.46 1451.02 Z" fill="#000000" fill-rule="evenodd" fill-opacity="1" /><path clip-path="url(#clip380)" d="M1517.12 1451.02 L1535.48 1451.02 L1535.48 1454.96 L1521.4 1454.96 L1521.4 1463.43 Q1522.42 1463.08 1523.44 1462.92 Q1524.46 1462.73 1525.48 1462.73 Q1531.27 1462.73 1534.65 1465.9 Q1538.03 1469.08 1538.03 1474.49 Q1538.03 1480.07 1534.55 1483.17 Q1531.08 1486.25 1524.76 1486.25 Q1522.59 1486.25 1520.32 1485.88 Q1518.07 1485.51 1515.66 1484.77 L1515.66 1480.07 Q1517.75 1481.2 1519.97 1481.76 Q1522.19 1482.32 1524.67 1482.32 Q1528.67 1482.32 1531.01 1480.21 Q1533.35 1478.1 1533.35 1474.49 Q1533.35 1470.88 1531.01 1468.77 Q1528.67 1466.67 1524.67 1466.67 Q1522.79 1466.67 1520.92 1467.08 Q1519.07 1467.5 1517.12 1468.38 L1517.12 1451.02 Z" fill="#000000" fill-rule="evenodd" fill-opacity="1" /><path clip-path="url(#clip380)" d="M1702.41 1466.44 Q1699.26 1466.44 1697.41 1468.59 Q1695.58 1470.74 1695.58 1474.49 Q1695.58 1478.22 1697.41 1480.39 Q1699.26 1482.55 1702.41 1482.55 Q1705.56 1482.55 1707.39 1480.39 Q1709.24 1478.22 1709.24 1474.49 Q1709.24 1470.74 1707.39 1468.59 Q1705.56 1466.44 1702.41 1466.44 M1711.69 1451.78 L1711.69 1456.04 Q1709.94 1455.21 1708.13 1454.77 Q1706.35 1454.33 1704.59 1454.33 Q1699.96 1454.33 1697.51 1457.45 Q1695.07 1460.58 1694.73 1466.9 Q1696.09 1464.89 1698.15 1463.82 Q1700.21 1462.73 1702.69 1462.73 Q1707.9 1462.73 1710.91 1465.9 Q1713.94 1469.05 1713.94 1474.49 Q1713.94 1479.82 1710.79 1483.03 Q1707.64 1486.25 1702.41 1486.25 Q1696.42 1486.25 1693.25 1481.67 Q1690.07 1477.06 1690.07 1468.33 Q1690.07 1460.14 1693.96 1455.28 Q1697.85 1450.39 1704.4 1450.39 Q1706.16 1450.39 1707.94 1450.74 Q1709.75 1451.09 1711.69 1451.78 Z" fill="#000000" fill-rule="evenodd" fill-opacity="1" /><path clip-path="url(#clip380)" d="M1075.66 1533.76 L1075.66 1539.24 Q1073.18 1537.87 1070.66 1537.2 Q1068.18 1536.5 1065.63 1536.5 Q1059.94 1536.5 1056.79 1540.13 Q1053.63 1543.73 1053.63 1550.25 Q1053.63 1556.78 1056.79 1560.4 Q1059.94 1564 1065.63 1564 Q1068.18 1564 1070.66 1563.33 Q1073.18 1562.63 1075.66 1561.26 L1075.66 1566.68 Q1073.21 1567.82 1070.57 1568.39 Q1067.96 1568.97 1065 1568.97 Q1056.94 1568.97 1052.2 1563.91 Q1047.46 1558.85 1047.46 1550.25 Q1047.46 1541.53 1052.23 1536.53 Q1057.04 1531.54 1065.38 1531.54 Q1068.08 1531.54 1070.66 1532.11 Q1073.24 1532.65 1075.66 1533.76 Z" fill="#000000" fill-rule="evenodd" fill-opacity="1" /><path clip-path="url(#clip380)" d="M1099.66 1536.5 Q1094.95 1536.5 1092.21 1540.19 Q1089.47 1543.85 1089.47 1550.25 Q1089.47 1556.65 1092.18 1560.34 Q1094.92 1564 1099.66 1564 Q1104.34 1564 1107.07 1560.31 Q1109.81 1556.62 1109.81 1550.25 Q1109.81 1543.92 1107.07 1540.23 Q1104.34 1536.5 1099.66 1536.5 M1099.66 1531.54 Q1107.3 1531.54 1111.66 1536.5 Q1116.02 1541.47 1116.02 1550.25 Q1116.02 1559 1111.66 1564 Q1107.3 1568.97 1099.66 1568.97 Q1091.99 1568.97 1087.63 1564 Q1083.3 1559 1083.3 1550.25 Q1083.3 1541.47 1087.63 1536.5 Q1091.99 1531.54 1099.66 1531.54 Z" fill="#000000" fill-rule="evenodd" fill-opacity="1" /><path clip-path="url(#clip380)" d="M1125.73 1518.52 L1131.58 1518.52 L1131.58 1568.04 L1125.73 1568.04 L1125.73 1518.52 Z" fill="#000000" fill-rule="evenodd" fill-opacity="1" /><path clip-path="url(#clip380)" d="M1143.23 1553.98 L1143.23 1532.4 L1149.09 1532.4 L1149.09 1553.75 Q1149.09 1558.81 1151.06 1561.36 Q1153.03 1563.87 1156.98 1563.87 Q1161.72 1563.87 1164.46 1560.85 Q1167.23 1557.83 1167.23 1552.61 L1167.23 1532.4 L1173.09 1532.4 L1173.09 1568.04 L1167.23 1568.04 L1167.23 1562.57 Q1165.1 1565.82 1162.27 1567.41 Q1159.46 1568.97 1155.74 1568.97 Q1149.6 1568.97 1146.41 1565.15 Q1143.23 1561.33 1143.23 1553.98 M1157.97 1531.54 L1157.97 1531.54 Z" fill="#000000" fill-rule="evenodd" fill-opacity="1" /><path clip-path="url(#clip380)" d="M1212.9 1539.24 Q1215.1 1535.29 1218.16 1533.41 Q1221.21 1531.54 1225.35 1531.54 Q1230.92 1531.54 1233.94 1535.45 Q1236.97 1539.33 1236.97 1546.53 L1236.97 1568.04 L1231.08 1568.04 L1231.08 1546.72 Q1231.08 1541.59 1229.26 1539.11 Q1227.45 1536.63 1223.73 1536.63 Q1219.17 1536.63 1216.53 1539.65 Q1213.89 1542.68 1213.89 1547.9 L1213.89 1568.04 L1208 1568.04 L1208 1546.72 Q1208 1541.56 1206.19 1539.11 Q1204.37 1536.63 1200.59 1536.63 Q1196.1 1536.63 1193.46 1539.68 Q1190.82 1542.71 1190.82 1547.9 L1190.82 1568.04 L1184.93 1568.04 L1184.93 1532.4 L1190.82 1532.4 L1190.82 1537.93 Q1192.82 1534.66 1195.62 1533.1 Q1198.42 1531.54 1202.27 1531.54 Q1206.16 1531.54 1208.86 1533.51 Q1211.6 1535.48 1212.9 1539.24 Z" fill="#000000" fill-rule="evenodd" fill-opacity="1" /><path clip-path="url(#clip380)" d="M1278.28 1546.53 L1278.28 1568.04 L1272.42 1568.04 L1272.42 1546.72 Q1272.42 1541.66 1270.45 1539.14 Q1268.48 1536.63 1264.53 1536.63 Q1259.79 1536.63 1257.05 1539.65 Q1254.31 1542.68 1254.31 1547.9 L1254.31 1568.04 L1248.43 1568.04 L1248.43 1532.4 L1254.31 1532.4 L1254.31 1537.93 Q1256.41 1534.72 1259.25 1533.13 Q1262.11 1531.54 1265.84 1531.54 Q1271.98 1531.54 1275.13 1535.36 Q1278.28 1539.14 1278.28 1546.53 Z" fill="#000000" fill-rule="evenodd" fill-opacity="1" /><path clip-path="url(#clip380)" d="M1310.68 1532.4 L1316.54 1532.4 L1316.54 1568.04 L1310.68 1568.04 L1310.68 1532.4 M1310.68 1518.52 L1316.54 1518.52 L1316.54 1525.93 L1310.68 1525.93 L1310.68 1518.52 Z" fill="#000000" fill-rule="evenodd" fill-opacity="1" /><path clip-path="url(#clip380)" d="M1358.42 1546.53 L1358.42 1568.04 L1352.57 1568.04 L1352.57 1546.72 Q1352.57 1541.66 1350.59 1539.14 Q1348.62 1536.63 1344.67 1536.63 Q1339.93 1536.63 1337.19 1539.65 Q1334.46 1542.68 1334.46 1547.9 L1334.46 1568.04 L1328.57 1568.04 L1328.57 1532.4 L1334.46 1532.4 L1334.46 1537.93 Q1336.56 1534.72 1339.39 1533.13 Q1342.26 1531.54 1345.98 1531.54 Q1352.12 1531.54 1355.27 1535.36 Q1358.42 1539.14 1358.42 1546.53 Z" fill="#000000" fill-rule="evenodd" fill-opacity="1" /><path clip-path="url(#clip380)" d="M1393.56 1537.81 L1393.56 1518.52 L1399.42 1518.52 L1399.42 1568.04 L1393.56 1568.04 L1393.56 1562.7 Q1391.72 1565.88 1388.88 1567.44 Q1386.08 1568.97 1382.14 1568.97 Q1375.68 1568.97 1371.6 1563.81 Q1367.56 1558.65 1367.56 1550.25 Q1367.56 1541.85 1371.6 1536.69 Q1375.68 1531.54 1382.14 1531.54 Q1386.08 1531.54 1388.88 1533.1 Q1391.72 1534.62 1393.56 1537.81 M1373.61 1550.25 Q1373.61 1556.71 1376.25 1560.4 Q1378.92 1564.07 1383.57 1564.07 Q1388.22 1564.07 1390.89 1560.4 Q1393.56 1556.71 1393.56 1550.25 Q1393.56 1543.79 1390.89 1540.13 Q1388.22 1536.44 1383.57 1536.44 Q1378.92 1536.44 1376.25 1540.13 Q1373.61 1543.79 1373.61 1550.25 Z" fill="#000000" fill-rule="evenodd" fill-opacity="1" /><path clip-path="url(#clip380)" d="M1441.97 1548.76 L1441.97 1551.62 L1415.05 1551.62 Q1415.43 1557.67 1418.68 1560.85 Q1421.95 1564 1427.78 1564 Q1431.15 1564 1434.3 1563.17 Q1437.49 1562.35 1440.61 1560.69 L1440.61 1566.23 Q1437.45 1567.57 1434.14 1568.27 Q1430.83 1568.97 1427.43 1568.97 Q1418.9 1568.97 1413.9 1564 Q1408.94 1559.04 1408.94 1550.57 Q1408.94 1541.82 1413.65 1536.69 Q1418.39 1531.54 1426.41 1531.54 Q1433.6 1531.54 1437.77 1536.18 Q1441.97 1540.8 1441.97 1548.76 M1436.12 1547.04 Q1436.05 1542.23 1433.41 1539.37 Q1430.8 1536.5 1426.47 1536.5 Q1421.57 1536.5 1418.61 1539.27 Q1415.68 1542.04 1415.24 1547.07 L1436.12 1547.04 Z" fill="#000000" fill-rule="evenodd" fill-opacity="1" /><path clip-path="url(#clip380)" d="M1480.07 1532.4 L1467.18 1549.74 L1480.74 1568.04 L1473.83 1568.04 L1463.46 1554.04 L1453.08 1568.04 L1446.18 1568.04 L1460.02 1549.39 L1447.35 1532.4 L1454.26 1532.4 L1463.71 1545.1 L1473.17 1532.4 L1480.07 1532.4 Z" fill="#000000" fill-rule="evenodd" fill-opacity="1" /><polyline clip-path="url(#clip380)" style="stroke:#000000; stroke-linecap:round; stroke-linejoin:round; stroke-width:4; stroke-opacity:1; fill:none" points="
  799.919,123.472 799.919,1423.18 
  "/>
<polyline clip-path="url(#clip380)" style="stroke:#000000; stroke-linecap:round; stroke-linejoin:round; stroke-width:4; stroke-opacity:1; fill:none" points="
  799.919,335.419 807.977,335.419 
  "/>
<polyline clip-path="url(#clip380)" style="stroke:#000000; stroke-linecap:round; stroke-linejoin:round; stroke-width:4; stroke-opacity:1; fill:none" points="
  799.919,685.745 807.977,685.745 
  "/>
<polyline clip-path="url(#clip380)" style="stroke:#000000; stroke-linecap:round; stroke-linejoin:round; stroke-width:4; stroke-opacity:1; fill:none" points="
  799.919,1036.07 807.977,1036.07 
  "/>
<polyline clip-path="url(#clip380)" style="stroke:#000000; stroke-linecap:round; stroke-linejoin:round; stroke-width:4; stroke-opacity:1; fill:none" points="
  799.919,1386.4 807.977,1386.4 
  "/>
<path clip-path="url(#clip380)" d="M747.6 348.764 L763.919 348.764 L763.919 352.699 L741.975 352.699 L741.975 348.764 Q744.637 346.009 749.22 341.38 Q753.827 336.727 755.007 335.384 Q757.253 332.861 758.132 331.125 Q759.035 329.366 759.035 327.676 Q759.035 324.921 757.091 323.185 Q755.169 321.449 752.067 321.449 Q749.868 321.449 747.415 322.213 Q744.984 322.977 742.206 324.528 L742.206 319.806 Q745.03 318.671 747.484 318.093 Q749.938 317.514 751.975 317.514 Q757.345 317.514 760.54 320.199 Q763.734 322.884 763.734 327.375 Q763.734 329.505 762.924 331.426 Q762.137 333.324 760.03 335.917 Q759.452 336.588 756.35 339.806 Q753.248 343 747.6 348.764 Z" fill="#000000" fill-rule="evenodd" fill-opacity="1" /><path clip-path="url(#clip380)" d="M754.336 672.539 L742.53 690.988 L754.336 690.988 L754.336 672.539 M753.109 668.465 L758.989 668.465 L758.989 690.988 L763.919 690.988 L763.919 694.876 L758.989 694.876 L758.989 703.025 L754.336 703.025 L754.336 694.876 L738.734 694.876 L738.734 690.363 L753.109 668.465 Z" fill="#000000" fill-rule="evenodd" fill-opacity="1" /><path clip-path="url(#clip380)" d="M752.392 1034.21 Q749.243 1034.21 747.392 1036.36 Q745.563 1038.51 745.563 1042.26 Q745.563 1045.99 747.392 1048.16 Q749.243 1050.32 752.392 1050.32 Q755.54 1050.32 757.368 1048.16 Q759.22 1045.99 759.22 1042.26 Q759.22 1038.51 757.368 1036.36 Q755.54 1034.21 752.392 1034.21 M761.674 1019.55 L761.674 1023.81 Q759.915 1022.98 758.109 1022.54 Q756.327 1022.1 754.567 1022.1 Q749.938 1022.1 747.484 1025.23 Q745.054 1028.35 744.706 1034.67 Q746.072 1032.66 748.132 1031.59 Q750.192 1030.5 752.669 1030.5 Q757.878 1030.5 760.887 1033.67 Q763.919 1036.82 763.919 1042.26 Q763.919 1047.59 760.771 1050.8 Q757.623 1054.02 752.392 1054.02 Q746.396 1054.02 743.225 1049.44 Q740.054 1044.83 740.054 1036.1 Q740.054 1027.91 743.942 1023.05 Q747.831 1018.17 754.382 1018.17 Q756.141 1018.17 757.924 1018.51 Q759.729 1018.86 761.674 1019.55 Z" fill="#000000" fill-rule="evenodd" fill-opacity="1" /><path clip-path="url(#clip380)" d="M752.067 1387.26 Q748.734 1387.26 746.813 1389.05 Q744.915 1390.83 744.915 1393.95 Q744.915 1397.08 746.813 1398.86 Q748.734 1400.64 752.067 1400.64 Q755.401 1400.64 757.322 1398.86 Q759.243 1397.06 759.243 1393.95 Q759.243 1390.83 757.322 1389.05 Q755.424 1387.26 752.067 1387.26 M747.392 1385.27 Q744.382 1384.53 742.692 1382.47 Q741.026 1380.41 741.026 1377.45 Q741.026 1373.31 743.966 1370.9 Q746.929 1368.49 752.067 1368.49 Q757.229 1368.49 760.169 1370.9 Q763.109 1373.31 763.109 1377.45 Q763.109 1380.41 761.419 1382.47 Q759.753 1384.53 756.766 1385.27 Q760.146 1386.06 762.021 1388.35 Q763.919 1390.64 763.919 1393.95 Q763.919 1398.98 760.841 1401.66 Q757.785 1404.35 752.067 1404.35 Q746.35 1404.35 743.271 1401.66 Q740.216 1398.98 740.216 1393.95 Q740.216 1390.64 742.114 1388.35 Q744.012 1386.06 747.392 1385.27 M745.679 1377.89 Q745.679 1380.57 747.345 1382.08 Q749.035 1383.58 752.067 1383.58 Q755.077 1383.58 756.766 1382.08 Q758.479 1380.57 758.479 1377.89 Q758.479 1375.2 756.766 1373.7 Q755.077 1372.19 752.067 1372.19 Q749.035 1372.19 747.345 1373.7 Q745.679 1375.2 745.679 1377.89 Z" fill="#000000" fill-rule="evenodd" fill-opacity="1" /><path clip-path="url(#clip380)" d="M658.305 907.229 Q657.732 908.215 657.477 909.393 Q657.191 910.539 657.191 911.939 Q657.191 916.904 660.437 919.578 Q663.652 922.22 669.699 922.22 L688.478 922.22 L688.478 928.108 L652.83 928.108 L652.83 922.22 L658.368 922.22 Q655.122 920.374 653.562 917.414 Q651.971 914.454 651.971 910.221 Q651.971 909.616 652.066 908.884 Q652.13 908.152 652.289 907.26 L658.305 907.229 Z" fill="#000000" fill-rule="evenodd" fill-opacity="1" /><path clip-path="url(#clip380)" d="M656.936 888.704 Q656.936 893.415 660.628 896.152 Q664.288 898.89 670.686 898.89 Q677.084 898.89 680.776 896.184 Q684.436 893.447 684.436 888.704 Q684.436 884.026 680.744 881.288 Q677.052 878.551 670.686 878.551 Q664.352 878.551 660.66 881.288 Q656.936 884.026 656.936 888.704 M651.971 888.704 Q651.971 881.066 656.936 876.705 Q661.901 872.345 670.686 872.345 Q679.439 872.345 684.436 876.705 Q689.401 881.066 689.401 888.704 Q689.401 896.375 684.436 900.736 Q679.439 905.064 670.686 905.064 Q661.901 905.064 656.936 900.736 Q651.971 896.375 651.971 888.704 Z" fill="#000000" fill-rule="evenodd" fill-opacity="1" /><path clip-path="url(#clip380)" d="M652.83 866.043 L652.83 860.186 L680.648 852.865 L652.83 845.577 L652.83 838.67 L680.648 831.349 L652.83 824.061 L652.83 818.204 L688.478 827.53 L688.478 834.437 L659.26 842.107 L688.478 849.81 L688.478 856.717 L652.83 866.043 Z" fill="#000000" fill-rule="evenodd" fill-opacity="1" /><path clip-path="url(#clip380)" d="M652.83 788.604 L652.83 782.747 L688.478 782.747 L688.478 788.604 L652.83 788.604 M638.953 788.604 L638.953 782.747 L646.369 782.747 L646.369 788.604 L638.953 788.604 Z" fill="#000000" fill-rule="evenodd" fill-opacity="1" /><path clip-path="url(#clip380)" d="M666.962 740.861 L688.478 740.861 L688.478 746.717 L667.153 746.717 Q662.092 746.717 659.578 748.691 Q657.063 750.664 657.063 754.611 Q657.063 759.353 660.087 762.091 Q663.111 764.828 668.331 764.828 L688.478 764.828 L688.478 770.716 L652.83 770.716 L652.83 764.828 L658.368 764.828 Q655.154 762.727 653.562 759.894 Q651.971 757.03 651.971 753.306 Q651.971 747.163 655.79 744.012 Q659.578 740.861 666.962 740.861 Z" fill="#000000" fill-rule="evenodd" fill-opacity="1" /><path clip-path="url(#clip380)" d="M658.241 705.722 L638.953 705.722 L638.953 699.866 L688.478 699.866 L688.478 705.722 L683.131 705.722 Q686.314 707.568 687.873 710.401 Q689.401 713.202 689.401 717.149 Q689.401 723.61 684.245 727.684 Q679.089 731.726 670.686 731.726 Q662.283 731.726 657.127 727.684 Q651.971 723.61 651.971 717.149 Q651.971 713.202 653.53 710.401 Q655.058 707.568 658.241 705.722 M670.686 725.679 Q677.147 725.679 680.839 723.037 Q684.5 720.363 684.5 715.716 Q684.5 711.069 680.839 708.396 Q677.147 705.722 670.686 705.722 Q664.225 705.722 660.565 708.396 Q656.872 711.069 656.872 715.716 Q656.872 720.363 660.565 723.037 Q664.225 725.679 670.686 725.679 Z" fill="#000000" fill-rule="evenodd" fill-opacity="1" /><path clip-path="url(#clip380)" d="M669.19 657.311 L672.055 657.311 L672.055 684.238 Q678.102 683.856 681.285 680.609 Q684.436 677.331 684.436 671.507 Q684.436 668.133 683.608 664.982 Q682.781 661.799 681.126 658.68 L686.664 658.68 Q688.001 661.831 688.701 665.141 Q689.401 668.451 689.401 671.857 Q689.401 680.387 684.436 685.384 Q679.471 690.349 671.004 690.349 Q662.251 690.349 657.127 685.638 Q651.971 680.896 651.971 672.875 Q651.971 665.682 656.618 661.512 Q661.233 657.311 669.19 657.311 M667.471 663.167 Q662.665 663.231 659.801 665.873 Q656.936 668.483 656.936 672.811 Q656.936 677.713 659.705 680.673 Q662.474 683.601 667.503 684.047 L667.471 663.167 Z" fill="#000000" fill-rule="evenodd" fill-opacity="1" /><path clip-path="url(#clip380)" d="M652.83 619.212 L670.177 632.103 L688.478 618.544 L688.478 625.451 L674.474 635.827 L688.478 646.203 L688.478 653.11 L669.827 639.264 L652.83 651.932 L652.83 645.025 L665.53 635.572 L652.83 626.119 L652.83 619.212 Z" fill="#000000" fill-rule="evenodd" fill-opacity="1" /><path clip-path="url(#clip380)" d="M938.023 43.6931 L938.023 65.8515 L951.148 65.8515 Q957.751 65.8515 960.911 63.1374 Q964.111 60.3828 964.111 54.752 Q964.111 49.0808 960.911 46.4072 Q957.751 43.6931 951.148 43.6931 L938.023 43.6931 M938.023 18.8205 L938.023 37.0496 L950.135 37.0496 Q956.131 37.0496 959.047 34.8216 Q962.004 32.5531 962.004 27.935 Q962.004 23.3575 959.047 21.089 Q956.131 18.8205 950.135 18.8205 L938.023 18.8205 M929.84 12.096 L950.743 12.096 Q960.1 12.096 965.164 15.9849 Q970.228 19.8737 970.228 27.0438 Q970.228 32.5936 967.635 35.8748 Q965.043 39.156 960.019 39.9662 Q966.055 41.2625 969.377 45.3944 Q972.739 49.4858 972.739 55.6432 Q972.739 63.745 967.23 68.1605 Q961.721 72.576 951.553 72.576 L929.84 72.576 L929.84 12.096 Z" fill="#000000" fill-rule="evenodd" fill-opacity="1" /><path clip-path="url(#clip380)" d="M1004.01 32.4315 Q998.017 32.4315 994.533 37.1306 Q991.049 41.7891 991.049 49.9314 Q991.049 58.0738 994.493 62.7728 Q997.976 67.4314 1004.01 67.4314 Q1009.97 67.4314 1013.45 62.7323 Q1016.93 58.0333 1016.93 49.9314 Q1016.93 41.8701 1013.45 37.1711 Q1009.97 32.4315 1004.01 32.4315 M1004.01 26.1121 Q1013.73 26.1121 1019.28 32.4315 Q1024.83 38.7509 1024.83 49.9314 Q1024.83 61.0714 1019.28 67.4314 Q1013.73 73.7508 1004.01 73.7508 Q994.25 73.7508 988.7 67.4314 Q983.191 61.0714 983.191 49.9314 Q983.191 38.7509 988.7 32.4315 Q994.25 26.1121 1004.01 26.1121 Z" fill="#000000" fill-rule="evenodd" fill-opacity="1" /><path clip-path="url(#clip380)" d="M1036.42 54.671 L1036.42 27.2059 L1043.87 27.2059 L1043.87 54.3874 Q1043.87 60.8284 1046.38 64.0691 Q1048.9 67.2693 1053.92 67.2693 Q1059.96 67.2693 1063.44 63.421 Q1066.96 59.5726 1066.96 52.9291 L1066.96 27.2059 L1074.42 27.2059 L1074.42 72.576 L1066.96 72.576 L1066.96 65.6084 Q1064.25 69.7404 1060.64 71.7658 Q1057.08 73.7508 1052.34 73.7508 Q1044.52 73.7508 1040.47 68.8897 Q1036.42 64.0286 1036.42 54.671 M1055.18 26.1121 L1055.18 26.1121 Z" fill="#000000" fill-rule="evenodd" fill-opacity="1" /><path clip-path="url(#clip380)" d="M1127.48 45.1919 L1127.48 72.576 L1120.03 72.576 L1120.03 45.4349 Q1120.03 38.994 1117.52 35.7938 Q1115.01 32.5936 1109.98 32.5936 Q1103.95 32.5936 1100.46 36.4419 Q1096.98 40.2903 1096.98 46.9338 L1096.98 72.576 L1089.49 72.576 L1089.49 27.2059 L1096.98 27.2059 L1096.98 34.2544 Q1099.65 30.163 1103.26 28.1376 Q1106.91 26.1121 1111.64 26.1121 Q1119.46 26.1121 1123.47 30.9732 Q1127.48 35.7938 1127.48 45.1919 Z" fill="#000000" fill-rule="evenodd" fill-opacity="1" /><path clip-path="url(#clip380)" d="M1172.21 34.0924 L1172.21 9.54393 L1179.66 9.54393 L1179.66 72.576 L1172.21 72.576 L1172.21 65.7705 Q1169.86 69.8214 1166.25 71.8063 Q1162.69 73.7508 1157.66 73.7508 Q1149.44 73.7508 1144.25 67.1883 Q1139.11 60.6258 1139.11 49.9314 Q1139.11 39.2371 1144.25 32.6746 Q1149.44 26.1121 1157.66 26.1121 Q1162.69 26.1121 1166.25 28.0971 Q1169.86 30.0415 1172.21 34.0924 M1146.81 49.9314 Q1146.81 58.1548 1150.17 62.8538 Q1153.57 67.5124 1159.49 67.5124 Q1165.4 67.5124 1168.8 62.8538 Q1172.21 58.1548 1172.21 49.9314 Q1172.21 41.7081 1168.8 37.0496 Q1165.4 32.3505 1159.49 32.3505 Q1153.57 32.3505 1150.17 37.0496 Q1146.81 41.7081 1146.81 49.9314 Z" fill="#000000" fill-rule="evenodd" fill-opacity="1" /><path clip-path="url(#clip380)" d="M1215.63 49.7694 Q1206.6 49.7694 1203.11 51.8354 Q1199.63 53.9013 1199.63 58.8839 Q1199.63 62.8538 1202.22 65.2034 Q1204.86 67.5124 1209.35 67.5124 Q1215.55 67.5124 1219.28 63.1374 Q1223.04 58.7219 1223.04 51.4303 L1223.04 49.7694 L1215.63 49.7694 M1230.5 46.6907 L1230.5 72.576 L1223.04 72.576 L1223.04 65.6895 Q1220.49 69.8214 1216.68 71.8063 Q1212.88 73.7508 1207.37 73.7508 Q1200.4 73.7508 1196.27 69.8619 Q1192.18 65.9325 1192.18 59.3701 Q1192.18 51.7138 1197.28 47.825 Q1202.43 43.9361 1212.59 43.9361 L1223.04 43.9361 L1223.04 43.2069 Q1223.04 38.0623 1219.64 35.2672 Q1216.28 32.4315 1210.16 32.4315 Q1206.27 32.4315 1202.59 33.3632 Q1198.9 34.295 1195.5 36.1584 L1195.5 29.2718 Q1199.59 27.692 1203.44 26.9223 Q1207.29 26.1121 1210.93 26.1121 Q1220.78 26.1121 1225.64 31.2163 Q1230.5 36.3204 1230.5 46.6907 Z" fill="#000000" fill-rule="evenodd" fill-opacity="1" /><path clip-path="url(#clip380)" d="M1272.14 34.1734 Q1270.89 33.4443 1269.39 33.1202 Q1267.93 32.7556 1266.15 32.7556 Q1259.83 32.7556 1256.42 36.8875 Q1253.06 40.9789 1253.06 48.6757 L1253.06 72.576 L1245.57 72.576 L1245.57 27.2059 L1253.06 27.2059 L1253.06 34.2544 Q1255.41 30.1225 1259.18 28.1376 Q1262.95 26.1121 1268.33 26.1121 Q1269.1 26.1121 1270.04 26.2337 Q1270.97 26.3147 1272.1 26.5172 L1272.14 34.1734 Z" fill="#000000" fill-rule="evenodd" fill-opacity="1" /><path clip-path="url(#clip380)" d="M1298.84 76.7889 Q1295.68 84.8907 1292.68 87.3618 Q1289.68 89.8329 1284.66 89.8329 L1278.7 89.8329 L1278.7 83.5945 L1283.08 83.5945 Q1286.16 83.5945 1287.86 82.1361 Q1289.56 80.6778 1291.63 75.2496 L1292.96 71.8468 L1274.61 27.2059 L1282.51 27.2059 L1296.69 62.6918 L1310.87 27.2059 L1318.77 27.2059 L1298.84 76.7889 Z" fill="#000000" fill-rule="evenodd" fill-opacity="1" /><path clip-path="url(#clip380)" d="M1362.64 65.7705 L1362.64 89.8329 L1355.14 89.8329 L1355.14 27.2059 L1362.64 27.2059 L1362.64 34.0924 Q1364.99 30.0415 1368.55 28.0971 Q1372.16 26.1121 1377.14 26.1121 Q1385.4 26.1121 1390.55 32.6746 Q1395.73 39.2371 1395.73 49.9314 Q1395.73 60.6258 1390.55 67.1883 Q1385.4 73.7508 1377.14 73.7508 Q1372.16 73.7508 1368.55 71.8063 Q1364.99 69.8214 1362.64 65.7705 M1388 49.9314 Q1388 41.7081 1384.59 37.0496 Q1381.23 32.3505 1375.32 32.3505 Q1369.4 32.3505 1366 37.0496 Q1362.64 41.7081 1362.64 49.9314 Q1362.64 58.1548 1366 62.8538 Q1369.4 67.5124 1375.32 67.5124 Q1381.23 67.5124 1384.59 62.8538 Q1388 58.1548 1388 49.9314 Z" fill="#000000" fill-rule="evenodd" fill-opacity="1" /><path clip-path="url(#clip380)" d="M1425.67 32.4315 Q1419.68 32.4315 1416.19 37.1306 Q1412.71 41.7891 1412.71 49.9314 Q1412.71 58.0738 1416.15 62.7728 Q1419.64 67.4314 1425.67 67.4314 Q1431.63 67.4314 1435.11 62.7323 Q1438.59 58.0333 1438.59 49.9314 Q1438.59 41.8701 1435.11 37.1711 Q1431.63 32.4315 1425.67 32.4315 M1425.67 26.1121 Q1435.39 26.1121 1440.94 32.4315 Q1446.49 38.7509 1446.49 49.9314 Q1446.49 61.0714 1440.94 67.4314 Q1435.39 73.7508 1425.67 73.7508 Q1415.91 73.7508 1410.36 67.4314 Q1404.85 61.0714 1404.85 49.9314 Q1404.85 38.7509 1410.36 32.4315 Q1415.91 26.1121 1425.67 26.1121 Z" fill="#000000" fill-rule="evenodd" fill-opacity="1" /><path clip-path="url(#clip380)" d="M1458.85 27.2059 L1466.3 27.2059 L1466.3 72.576 L1458.85 72.576 L1458.85 27.2059 M1458.85 9.54393 L1466.3 9.54393 L1466.3 18.9825 L1458.85 18.9825 L1458.85 9.54393 Z" fill="#000000" fill-rule="evenodd" fill-opacity="1" /><path clip-path="url(#clip380)" d="M1519.61 45.1919 L1519.61 72.576 L1512.16 72.576 L1512.16 45.4349 Q1512.16 38.994 1509.65 35.7938 Q1507.13 32.5936 1502.11 32.5936 Q1496.08 32.5936 1492.59 36.4419 Q1489.11 40.2903 1489.11 46.9338 L1489.11 72.576 L1481.61 72.576 L1481.61 27.2059 L1489.11 27.2059 L1489.11 34.2544 Q1491.78 30.163 1495.39 28.1376 Q1499.03 26.1121 1503.77 26.1121 Q1511.59 26.1121 1515.6 30.9732 Q1519.61 35.7938 1519.61 45.1919 Z" fill="#000000" fill-rule="evenodd" fill-opacity="1" /><path clip-path="url(#clip380)" d="M1541.85 14.324 L1541.85 27.2059 L1557.2 27.2059 L1557.2 32.9987 L1541.85 32.9987 L1541.85 57.6282 Q1541.85 63.1779 1543.35 64.7578 Q1544.89 66.3376 1549.55 66.3376 L1557.2 66.3376 L1557.2 72.576 L1549.55 72.576 Q1540.92 72.576 1537.64 69.3758 Q1534.36 66.1351 1534.36 57.6282 L1534.36 32.9987 L1528.89 32.9987 L1528.89 27.2059 L1534.36 27.2059 L1534.36 14.324 L1541.85 14.324 Z" fill="#000000" fill-rule="evenodd" fill-opacity="1" /><path clip-path="url(#clip380)" d="M1595.93 28.5427 L1595.93 35.5912 Q1592.77 33.9709 1589.37 33.1607 Q1585.97 32.3505 1582.32 32.3505 Q1576.77 32.3505 1573.97 34.0519 Q1571.22 35.7533 1571.22 39.156 Q1571.22 41.7486 1573.2 43.2475 Q1575.19 44.7058 1581.19 46.0426 L1583.74 46.6097 Q1591.68 48.3111 1595 51.4303 Q1598.36 54.509 1598.36 60.0587 Q1598.36 66.3781 1593.34 70.0644 Q1588.36 73.7508 1579.61 73.7508 Q1575.96 73.7508 1571.99 73.0216 Q1568.06 72.3329 1563.69 70.9151 L1563.69 63.2184 Q1567.82 65.3654 1571.83 66.4591 Q1575.84 67.5124 1579.77 67.5124 Q1585.03 67.5124 1587.87 65.73 Q1590.7 63.9071 1590.7 60.6258 Q1590.7 57.5877 1588.64 55.9673 Q1586.61 54.3469 1579.69 52.8481 L1577.09 52.2405 Q1570.17 50.7821 1567.09 47.7845 Q1564.01 44.7463 1564.01 39.4801 Q1564.01 33.0797 1568.55 29.5959 Q1573.08 26.1121 1581.43 26.1121 Q1585.56 26.1121 1589.21 26.7198 Q1592.85 27.3274 1595.93 28.5427 Z" fill="#000000" fill-rule="evenodd" fill-opacity="1" /><circle clip-path="url(#clip382)" cx="826.194" cy="160.256" r="10.8" fill="#00008b" fill-rule="evenodd" fill-opacity="1" stroke="#000000" stroke-opacity="1" stroke-width="0"/>
<circle clip-path="url(#clip382)" cx="826.194" cy="335.419" r="10.8" fill="#00008b" fill-rule="evenodd" fill-opacity="1" stroke="#000000" stroke-opacity="1" stroke-width="0"/>
<circle clip-path="url(#clip382)" cx="826.194" cy="510.582" r="10.8" fill="#00008b" fill-rule="evenodd" fill-opacity="1" stroke="#000000" stroke-opacity="1" stroke-width="0"/>
<circle clip-path="url(#clip382)" cx="826.194" cy="685.745" r="10.8" fill="#00008b" fill-rule="evenodd" fill-opacity="1" stroke="#000000" stroke-opacity="1" stroke-width="0"/>
<circle clip-path="url(#clip382)" cx="826.194" cy="860.907" r="10.8" fill="#00008b" fill-rule="evenodd" fill-opacity="1" stroke="#000000" stroke-opacity="1" stroke-width="0"/>
<circle clip-path="url(#clip382)" cx="826.194" cy="1036.07" r="10.8" fill="#00008b" fill-rule="evenodd" fill-opacity="1" stroke="#000000" stroke-opacity="1" stroke-width="0"/>
<circle clip-path="url(#clip382)" cx="826.194" cy="1211.23" r="10.8" fill="#00008b" fill-rule="evenodd" fill-opacity="1" stroke="#000000" stroke-opacity="1" stroke-width="0"/>
<circle clip-path="url(#clip382)" cx="826.194" cy="1386.4" r="10.8" fill="#00008b" fill-rule="evenodd" fill-opacity="1" stroke="#000000" stroke-opacity="1" stroke-width="0"/>
<circle clip-path="url(#clip382)" cx="1001.36" cy="160.256" r="10.8" fill="#00008b" fill-rule="evenodd" fill-opacity="1" stroke="#000000" stroke-opacity="1" stroke-width="0"/>
<circle clip-path="url(#clip382)" cx="1001.36" cy="1386.4" r="10.8" fill="#00008b" fill-rule="evenodd" fill-opacity="1" stroke="#000000" stroke-opacity="1" stroke-width="0"/>
<circle clip-path="url(#clip382)" cx="1176.52" cy="160.256" r="10.8" fill="#00008b" fill-rule="evenodd" fill-opacity="1" stroke="#000000" stroke-opacity="1" stroke-width="0"/>
<circle clip-path="url(#clip382)" cx="1176.52" cy="1386.4" r="10.8" fill="#00008b" fill-rule="evenodd" fill-opacity="1" stroke="#000000" stroke-opacity="1" stroke-width="0"/>
<circle clip-path="url(#clip382)" cx="1351.68" cy="160.256" r="10.8" fill="#00008b" fill-rule="evenodd" fill-opacity="1" stroke="#000000" stroke-opacity="1" stroke-width="0"/>
<circle clip-path="url(#clip382)" cx="1351.68" cy="1386.4" r="10.8" fill="#00008b" fill-rule="evenodd" fill-opacity="1" stroke="#000000" stroke-opacity="1" stroke-width="0"/>
<circle clip-path="url(#clip382)" cx="1526.84" cy="160.256" r="10.8" fill="#00008b" fill-rule="evenodd" fill-opacity="1" stroke="#000000" stroke-opacity="1" stroke-width="0"/>
<circle clip-path="url(#clip382)" cx="1526.84" cy="1386.4" r="10.8" fill="#00008b" fill-rule="evenodd" fill-opacity="1" stroke="#000000" stroke-opacity="1" stroke-width="0"/>
<circle clip-path="url(#clip382)" cx="1702.01" cy="160.256" r="10.8" fill="#00008b" fill-rule="evenodd" fill-opacity="1" stroke="#000000" stroke-opacity="1" stroke-width="0"/>
<circle clip-path="url(#clip382)" cx="1702.01" cy="335.419" r="10.8" fill="#00008b" fill-rule="evenodd" fill-opacity="1" stroke="#000000" stroke-opacity="1" stroke-width="0"/>
<circle clip-path="url(#clip382)" cx="1702.01" cy="510.582" r="10.8" fill="#00008b" fill-rule="evenodd" fill-opacity="1" stroke="#000000" stroke-opacity="1" stroke-width="0"/>
<circle clip-path="url(#clip382)" cx="1702.01" cy="685.745" r="10.8" fill="#00008b" fill-rule="evenodd" fill-opacity="1" stroke="#000000" stroke-opacity="1" stroke-width="0"/>
<circle clip-path="url(#clip382)" cx="1702.01" cy="860.907" r="10.8" fill="#00008b" fill-rule="evenodd" fill-opacity="1" stroke="#000000" stroke-opacity="1" stroke-width="0"/>
<circle clip-path="url(#clip382)" cx="1702.01" cy="1036.07" r="10.8" fill="#00008b" fill-rule="evenodd" fill-opacity="1" stroke="#000000" stroke-opacity="1" stroke-width="0"/>
<circle clip-path="url(#clip382)" cx="1702.01" cy="1211.23" r="10.8" fill="#00008b" fill-rule="evenodd" fill-opacity="1" stroke="#000000" stroke-opacity="1" stroke-width="0"/>
<circle clip-path="url(#clip382)" cx="1702.01" cy="1386.4" r="10.8" fill="#00008b" fill-rule="evenodd" fill-opacity="1" stroke="#000000" stroke-opacity="1" stroke-width="0"/>
</svg>
