<?xml version="1.0" encoding="utf-8"?>
<svg xmlns="http://www.w3.org/2000/svg" xmlns:xlink="http://www.w3.org/1999/xlink" width="600" height="400" viewBox="0 0 2400 1600">
<defs>
  <clipPath id="clip780">
    <rect x="0" y="0" width="2400" height="1600"/>
  </clipPath>
</defs>
<path clip-path="url(#clip780)" d="
M0 1600 L2400 1600 L2400 0 L0 0  Z
  " fill="#ffffff" fill-rule="evenodd" fill-opacity="1"/>
<defs>
  <clipPath id="clip781">
    <rect x="480" y="0" width="1681" height="1600"/>
  </clipPath>
</defs>
<path clip-path="url(#clip780)" d="
M205.75 1474.16 L2352.76 1474.16 L2352.76 47.2441 L205.75 47.2441  Z
  " fill="#ffffff" fill-rule="evenodd" fill-opacity="1"/>
<defs>
  <clipPath id="clip782">
    <rect x="205" y="47" width="2148" height="1428"/>
  </clipPath>
</defs>
<polyline clip-path="url(#clip782)" style="stroke:#000000; stroke-linecap:butt; stroke-linejoin:round; stroke-width:2; stroke-opacity:0.1; fill:none" points="
  618.673,1474.16 618.673,47.2441 
  "/>
<polyline clip-path="url(#clip782)" style="stroke:#000000; stroke-linecap:butt; stroke-linejoin:round; stroke-width:2; stroke-opacity:0.1; fill:none" points="
  1481.3,1474.16 1481.3,47.2441 
  "/>
<polyline clip-path="url(#clip782)" style="stroke:#000000; stroke-linecap:butt; stroke-linejoin:round; stroke-width:2; stroke-opacity:0.1; fill:none" points="
  2343.93,1474.16 2343.93,47.2441 
  "/>
<polyline clip-path="url(#clip780)" style="stroke:#000000; stroke-linecap:butt; stroke-linejoin:round; stroke-width:4; stroke-opacity:1; fill:none" points="
  205.75,1474.16 2352.76,1474.16 
  "/>
<polyline clip-path="url(#clip780)" style="stroke:#000000; stroke-linecap:butt; stroke-linejoin:round; stroke-width:4; stroke-opacity:1; fill:none" points="
  618.673,1474.16 618.673,1455.27 
  "/>
<polyline clip-path="url(#clip780)" style="stroke:#000000; stroke-linecap:butt; stroke-linejoin:round; stroke-width:4; stroke-opacity:1; fill:none" points="
  1481.3,1474.16 1481.3,1455.27 
  "/>
<polyline clip-path="url(#clip780)" style="stroke:#000000; stroke-linecap:butt; stroke-linejoin:round; stroke-width:4; stroke-opacity:1; fill:none" points="
  2343.93,1474.16 2343.93,1455.27 
  "/>
<g clip-path="url(#clip780)">
<text style="fill:#000000; fill-opacity:1; font-family:Arial,Helvetica Neue,Helvetica,sans-serif; font-size:48px; text-anchor:start;" transform="rotate(0, 559.294, 1552.22)" x="559.294" y="1552.22">10</text>
</g>
<g clip-path="url(#clip780)">
<text style="fill:#000000; fill-opacity:1; font-family:Arial,Helvetica Neue,Helvetica,sans-serif; font-size:38px; text-anchor:start;" transform="rotate(0, 612.819, 1524.81)" x="612.819" y="1524.81">−10</text>
</g>
<g clip-path="url(#clip780)">
<text style="fill:#000000; fill-opacity:1; font-family:Arial,Helvetica Neue,Helvetica,sans-serif; font-size:48px; text-anchor:start;" transform="rotate(0, 1432.79, 1552.22)" x="1432.79" y="1552.22">10</text>
</g>
<g clip-path="url(#clip780)">
<text style="fill:#000000; fill-opacity:1; font-family:Arial,Helvetica Neue,Helvetica,sans-serif; font-size:38px; text-anchor:start;" transform="rotate(0, 1486.32, 1524.81)" x="1486.32" y="1524.81">−5</text>
</g>
<g clip-path="url(#clip780)">
<text style="fill:#000000; fill-opacity:1; font-family:Arial,Helvetica Neue,Helvetica,sans-serif; font-size:48px; text-anchor:start;" transform="rotate(0, 2306.29, 1552.22)" x="2306.29" y="1552.22">10</text>
</g>
<g clip-path="url(#clip780)">
<text style="fill:#000000; fill-opacity:1; font-family:Arial,Helvetica Neue,Helvetica,sans-serif; font-size:38px; text-anchor:start;" transform="rotate(0, 2359.82, 1524.81)" x="2359.82" y="1524.81">0</text>
</g>
<polyline clip-path="url(#clip782)" style="stroke:#000000; stroke-linecap:butt; stroke-linejoin:round; stroke-width:2; stroke-opacity:0.1; fill:none" points="
  205.75,1352 2352.76,1352 
  "/>
<polyline clip-path="url(#clip782)" style="stroke:#000000; stroke-linecap:butt; stroke-linejoin:round; stroke-width:2; stroke-opacity:0.1; fill:none" points="
  205.75,705.943 2352.76,705.943 
  "/>
<polyline clip-path="url(#clip782)" style="stroke:#000000; stroke-linecap:butt; stroke-linejoin:round; stroke-width:2; stroke-opacity:0.1; fill:none" points="
  205.75,59.8899 2352.76,59.8899 
  "/>
<polyline clip-path="url(#clip780)" style="stroke:#000000; stroke-linecap:butt; stroke-linejoin:round; stroke-width:4; stroke-opacity:1; fill:none" points="
  205.75,1474.16 205.75,47.2441 
  "/>
<polyline clip-path="url(#clip780)" style="stroke:#000000; stroke-linecap:butt; stroke-linejoin:round; stroke-width:4; stroke-opacity:1; fill:none" points="
  205.75,1352 224.648,1352 
  "/>
<polyline clip-path="url(#clip780)" style="stroke:#000000; stroke-linecap:butt; stroke-linejoin:round; stroke-width:4; stroke-opacity:1; fill:none" points="
  205.75,705.943 224.648,705.943 
  "/>
<polyline clip-path="url(#clip780)" style="stroke:#000000; stroke-linecap:butt; stroke-linejoin:round; stroke-width:4; stroke-opacity:1; fill:none" points="
  205.75,59.8899 224.648,59.8899 
  "/>
<g clip-path="url(#clip780)">
<text style="fill:#000000; fill-opacity:1; font-family:Arial,Helvetica Neue,Helvetica,sans-serif; font-size:48px; text-anchor:start;" transform="rotate(0, 50.9921, 1375.72)" x="50.9921" y="1375.72">10</text>
</g>
<g clip-path="url(#clip780)">
<text style="fill:#000000; fill-opacity:1; font-family:Arial,Helvetica Neue,Helvetica,sans-serif; font-size:38px; text-anchor:start;" transform="rotate(0, 104.517, 1348.31)" x="104.517" y="1348.31">−10</text>
</g>
<g clip-path="url(#clip780)">
<text style="fill:#000000; fill-opacity:1; font-family:Arial,Helvetica Neue,Helvetica,sans-serif; font-size:48px; text-anchor:start;" transform="rotate(0, 72.7365, 729.67)" x="72.7365" y="729.67">10</text>
</g>
<g clip-path="url(#clip780)">
<text style="fill:#000000; fill-opacity:1; font-family:Arial,Helvetica Neue,Helvetica,sans-serif; font-size:38px; text-anchor:start;" transform="rotate(0, 126.261, 702.26)" x="126.261" y="702.26">−5</text>
</g>
<g clip-path="url(#clip780)">
<text style="fill:#000000; fill-opacity:1; font-family:Arial,Helvetica Neue,Helvetica,sans-serif; font-size:48px; text-anchor:start;" transform="rotate(0, 94.4809, 83.6175)" x="94.4809" y="83.6175">10</text>
</g>
<g clip-path="url(#clip780)">
<text style="fill:#000000; fill-opacity:1; font-family:Arial,Helvetica Neue,Helvetica,sans-serif; font-size:38px; text-anchor:start;" transform="rotate(0, 148.006, 56.2071)" x="148.006" y="56.2071">0</text>
</g>
<polyline clip-path="url(#clip782)" style="stroke:#009af9; stroke-linecap:butt; stroke-linejoin:round; stroke-width:8; stroke-opacity:1; fill:none" points="
  2291.99,87.6286 2240.06,144.984 2188.12,197.269 2136.19,244.494 2084.25,288.105 2032.32,329.521 1980.38,369.723 1928.44,409.284 1876.51,448.515 1824.57,487.58 
  1772.64,526.56 1720.7,565.499 1668.77,604.416 1616.83,643.323 1564.9,682.225 1512.96,721.123 1461.03,760.021 1409.09,798.918 1357.16,837.813 1305.22,876.722 
  1253.29,915.629 1201.35,954.329 1149.41,993.05 1097.48,1035.17 1045.54,1077.1 993.609,1122.61 941.673,1122.61 889.738,1044.82 837.803,1044.82 785.867,967.025 
  733.932,967.025 681.997,889.233 630.062,889.233 578.126,811.44 526.191,811.44 474.256,733.648 422.32,733.648 370.385,655.855 318.45,655.855 266.514,578.063 
  
  "/>
<polyline clip-path="url(#clip782)" style="stroke:#e26f46; stroke-linecap:butt; stroke-linejoin:round; stroke-width:8; stroke-opacity:1; fill:none" points="
  2291.99,116.423 2240.06,191.891 2188.12,269.104 2136.19,346.751 2084.25,424.507 2032.32,502.291 1980.38,580.081 1928.44,657.873 1876.51,735.665 1824.57,813.458 
  1772.64,891.25 1720.7,969.043 1668.77,1046.83 1616.83,1124.63 1564.9,1202.45 1512.96,1280.43 1461.03,1358.68 1409.09,1433.78 1357.16,1433.78 1305.22,1411.03 
  1253.29,1355.99 1201.35,1333.23 1149.41,1278.2 1097.48,1255.44 1045.54,1200.4 993.609,1200.4 941.673,1122.61 889.738,1099.86 837.803,1044.82 785.867,1022.07 
  733.932,967.025 681.997,944.273 630.062,889.233 578.126,866.48 526.191,811.44 474.256,788.688 422.32,733.648 370.385,710.895 318.45,655.855 266.514,633.103 
  
  "/>
<path clip-path="url(#clip780)" d="
M277.317 245.707 L668.361 245.707 L668.361 94.8081 L277.317 94.8081  Z
  " fill="#ffffff" fill-rule="evenodd" fill-opacity="1"/>
<polyline clip-path="url(#clip780)" style="stroke:#000000; stroke-linecap:butt; stroke-linejoin:round; stroke-width:4; stroke-opacity:1; fill:none" points="
  277.317,245.707 668.361,245.707 668.361,94.8081 277.317,94.8081 277.317,245.707 
  "/>
<polyline clip-path="url(#clip780)" style="stroke:#009af9; stroke-linecap:butt; stroke-linejoin:round; stroke-width:4; stroke-opacity:1; fill:none" points="
  301.172,145.108 444.306,145.108 
  "/>
<g clip-path="url(#clip780)">
<text style="fill:#000000; fill-opacity:1; font-family:Arial,Helvetica Neue,Helvetica,sans-serif; font-size:48px; text-anchor:start;" transform="rotate(0, 468.162, 162.608)" x="468.162" y="162.608">order 1</text>
</g>
<polyline clip-path="url(#clip780)" style="stroke:#e26f46; stroke-linecap:butt; stroke-linejoin:round; stroke-width:4; stroke-opacity:1; fill:none" points="
  301.172,195.408 444.306,195.408 
  "/>
<g clip-path="url(#clip780)">
<text style="fill:#000000; fill-opacity:1; font-family:Arial,Helvetica Neue,Helvetica,sans-serif; font-size:48px; text-anchor:start;" transform="rotate(0, 468.162, 212.908)" x="468.162" y="212.908">order 2</text>
</g>
</svg>
