<?xml version="1.0" encoding="utf-8"?>
<svg xmlns="http://www.w3.org/2000/svg" xmlns:xlink="http://www.w3.org/1999/xlink" width="600" height="400" viewBox="0 0 2400 1600">
<defs>
  <clipPath id="clip520">
    <rect x="0" y="0" width="2400" height="1600"/>
  </clipPath>
</defs>
<path clip-path="url(#clip520)" d="
M0 1600 L2400 1600 L2400 0 L0 0  Z
  " fill="#ffffff" fill-rule="evenodd" fill-opacity="1"/>
<defs>
  <clipPath id="clip521">
    <rect x="480" y="0" width="1681" height="1600"/>
  </clipPath>
</defs>
<path clip-path="url(#clip520)" d="
M156.598 419.781 L2352.76 419.781 L2352.76 47.2441 L156.598 47.2441  Z
  " fill="#ffffff" fill-rule="evenodd" fill-opacity="1"/>
<defs>
  <clipPath id="clip522">
    <rect x="156" y="47" width="2197" height="374"/>
  </clipPath>
</defs>
<polyline clip-path="url(#clip522)" style="stroke:#000000; stroke-linecap:round; stroke-linejoin:round; stroke-width:2; stroke-opacity:0.1; fill:none" points="
  218.754,419.781 218.754,47.2441 
  "/>
<polyline clip-path="url(#clip522)" style="stroke:#000000; stroke-linecap:round; stroke-linejoin:round; stroke-width:2; stroke-opacity:0.1; fill:none" points="
  736.715,419.781 736.715,47.2441 
  "/>
<polyline clip-path="url(#clip522)" style="stroke:#000000; stroke-linecap:round; stroke-linejoin:round; stroke-width:2; stroke-opacity:0.1; fill:none" points="
  1254.68,419.781 1254.68,47.2441 
  "/>
<polyline clip-path="url(#clip522)" style="stroke:#000000; stroke-linecap:round; stroke-linejoin:round; stroke-width:2; stroke-opacity:0.1; fill:none" points="
  1772.64,419.781 1772.64,47.2441 
  "/>
<polyline clip-path="url(#clip522)" style="stroke:#000000; stroke-linecap:round; stroke-linejoin:round; stroke-width:2; stroke-opacity:0.1; fill:none" points="
  2290.6,419.781 2290.6,47.2441 
  "/>
<polyline clip-path="url(#clip520)" style="stroke:#000000; stroke-linecap:round; stroke-linejoin:round; stroke-width:4; stroke-opacity:1; fill:none" points="
  156.598,419.781 2352.76,419.781 
  "/>
<polyline clip-path="url(#clip520)" style="stroke:#000000; stroke-linecap:round; stroke-linejoin:round; stroke-width:4; stroke-opacity:1; fill:none" points="
  218.754,419.781 218.754,400.884 
  "/>
<polyline clip-path="url(#clip520)" style="stroke:#000000; stroke-linecap:round; stroke-linejoin:round; stroke-width:4; stroke-opacity:1; fill:none" points="
  736.715,419.781 736.715,400.884 
  "/>
<polyline clip-path="url(#clip520)" style="stroke:#000000; stroke-linecap:round; stroke-linejoin:round; stroke-width:4; stroke-opacity:1; fill:none" points="
  1254.68,419.781 1254.68,400.884 
  "/>
<polyline clip-path="url(#clip520)" style="stroke:#000000; stroke-linecap:round; stroke-linejoin:round; stroke-width:4; stroke-opacity:1; fill:none" points="
  1772.64,419.781 1772.64,400.884 
  "/>
<polyline clip-path="url(#clip520)" style="stroke:#000000; stroke-linecap:round; stroke-linejoin:round; stroke-width:4; stroke-opacity:1; fill:none" points="
  2290.6,419.781 2290.6,400.884 
  "/>
<path clip-path="url(#clip520)" d="M187.654 465.353 L217.33 465.353 L217.33 469.288 L187.654 469.288 L187.654 465.353 Z" fill="#000000" fill-rule="evenodd" fill-opacity="1" /><path clip-path="url(#clip520)" d="M240.27 451.695 L228.464 470.144 L240.27 470.144 L240.27 451.695 M239.043 447.621 L244.922 447.621 L244.922 470.144 L249.853 470.144 L249.853 474.033 L244.922 474.033 L244.922 482.181 L240.27 482.181 L240.27 474.033 L224.668 474.033 L224.668 469.519 L239.043 447.621 Z" fill="#000000" fill-rule="evenodd" fill-opacity="1" /><path clip-path="url(#clip520)" d="M706.658 465.353 L736.333 465.353 L736.333 469.288 L706.658 469.288 L706.658 465.353 Z" fill="#000000" fill-rule="evenodd" fill-opacity="1" /><path clip-path="url(#clip520)" d="M750.454 478.246 L766.773 478.246 L766.773 482.181 L744.829 482.181 L744.829 478.246 Q747.491 475.491 752.074 470.862 Q756.681 466.209 757.861 464.866 Q760.106 462.343 760.986 460.607 Q761.889 458.848 761.889 457.158 Q761.889 454.404 759.944 452.667 Q758.023 450.931 754.921 450.931 Q752.722 450.931 750.269 451.695 Q747.838 452.459 745.06 454.01 L745.06 449.288 Q747.884 448.154 750.338 447.575 Q752.792 446.996 754.829 446.996 Q760.199 446.996 763.393 449.681 Q766.588 452.367 766.588 456.857 Q766.588 458.987 765.778 460.908 Q764.991 462.806 762.884 465.399 Q762.305 466.07 759.204 469.288 Q756.102 472.482 750.454 478.246 Z" fill="#000000" fill-rule="evenodd" fill-opacity="1" /><path clip-path="url(#clip520)" d="M1254.68 450.7 Q1251.07 450.7 1249.24 454.265 Q1247.43 457.806 1247.43 464.936 Q1247.43 472.042 1249.24 475.607 Q1251.07 479.149 1254.68 479.149 Q1258.31 479.149 1260.12 475.607 Q1261.95 472.042 1261.95 464.936 Q1261.95 457.806 1260.12 454.265 Q1258.31 450.7 1254.68 450.7 M1254.68 446.996 Q1260.49 446.996 1263.54 451.603 Q1266.62 456.186 1266.62 464.936 Q1266.62 473.663 1263.54 478.269 Q1260.49 482.853 1254.68 482.853 Q1248.87 482.853 1245.79 478.269 Q1242.73 473.663 1242.73 464.936 Q1242.73 456.186 1245.79 451.603 Q1248.87 446.996 1254.68 446.996 Z" fill="#000000" fill-rule="evenodd" fill-opacity="1" /><path clip-path="url(#clip520)" d="M1767.29 478.246 L1783.61 478.246 L1783.61 482.181 L1761.67 482.181 L1761.67 478.246 Q1764.33 475.491 1768.91 470.862 Q1773.52 466.209 1774.7 464.866 Q1776.94 462.343 1777.82 460.607 Q1778.73 458.848 1778.73 457.158 Q1778.73 454.404 1776.78 452.667 Q1774.86 450.931 1771.76 450.931 Q1769.56 450.931 1767.11 451.695 Q1764.68 452.459 1761.9 454.01 L1761.9 449.288 Q1764.72 448.154 1767.18 447.575 Q1769.63 446.996 1771.67 446.996 Q1777.04 446.996 1780.23 449.681 Q1783.43 452.367 1783.43 456.857 Q1783.43 458.987 1782.62 460.908 Q1781.83 462.806 1779.72 465.399 Q1779.14 466.07 1776.04 469.288 Q1772.94 472.482 1767.29 478.246 Z" fill="#000000" fill-rule="evenodd" fill-opacity="1" /><path clip-path="url(#clip520)" d="M2293.61 451.695 L2281.8 470.144 L2293.61 470.144 L2293.61 451.695 M2292.38 447.621 L2298.26 447.621 L2298.26 470.144 L2303.19 470.144 L2303.19 474.033 L2298.26 474.033 L2298.26 482.181 L2293.61 482.181 L2293.61 474.033 L2278.01 474.033 L2278.01 469.519 L2292.38 447.621 Z" fill="#000000" fill-rule="evenodd" fill-opacity="1" /><polyline clip-path="url(#clip522)" style="stroke:#000000; stroke-linecap:round; stroke-linejoin:round; stroke-width:2; stroke-opacity:0.1; fill:none" points="
  156.598,409.238 2352.76,409.238 
  "/>
<polyline clip-path="url(#clip522)" style="stroke:#000000; stroke-linecap:round; stroke-linejoin:round; stroke-width:2; stroke-opacity:0.1; fill:none" points="
  156.598,338.948 2352.76,338.948 
  "/>
<polyline clip-path="url(#clip522)" style="stroke:#000000; stroke-linecap:round; stroke-linejoin:round; stroke-width:2; stroke-opacity:0.1; fill:none" points="
  156.598,268.658 2352.76,268.658 
  "/>
<polyline clip-path="url(#clip522)" style="stroke:#000000; stroke-linecap:round; stroke-linejoin:round; stroke-width:2; stroke-opacity:0.1; fill:none" points="
  156.598,198.368 2352.76,198.368 
  "/>
<polyline clip-path="url(#clip522)" style="stroke:#000000; stroke-linecap:round; stroke-linejoin:round; stroke-width:2; stroke-opacity:0.1; fill:none" points="
  156.598,128.078 2352.76,128.078 
  "/>
<polyline clip-path="url(#clip522)" style="stroke:#000000; stroke-linecap:round; stroke-linejoin:round; stroke-width:2; stroke-opacity:0.1; fill:none" points="
  156.598,57.7876 2352.76,57.7876 
  "/>
<polyline clip-path="url(#clip520)" style="stroke:#000000; stroke-linecap:round; stroke-linejoin:round; stroke-width:4; stroke-opacity:1; fill:none" points="
  156.598,419.781 156.598,47.2441 
  "/>
<polyline clip-path="url(#clip520)" style="stroke:#000000; stroke-linecap:round; stroke-linejoin:round; stroke-width:4; stroke-opacity:1; fill:none" points="
  156.598,409.238 175.496,409.238 
  "/>
<polyline clip-path="url(#clip520)" style="stroke:#000000; stroke-linecap:round; stroke-linejoin:round; stroke-width:4; stroke-opacity:1; fill:none" points="
  156.598,338.948 175.496,338.948 
  "/>
<polyline clip-path="url(#clip520)" style="stroke:#000000; stroke-linecap:round; stroke-linejoin:round; stroke-width:4; stroke-opacity:1; fill:none" points="
  156.598,268.658 175.496,268.658 
  "/>
<polyline clip-path="url(#clip520)" style="stroke:#000000; stroke-linecap:round; stroke-linejoin:round; stroke-width:4; stroke-opacity:1; fill:none" points="
  156.598,198.368 175.496,198.368 
  "/>
<polyline clip-path="url(#clip520)" style="stroke:#000000; stroke-linecap:round; stroke-linejoin:round; stroke-width:4; stroke-opacity:1; fill:none" points="
  156.598,128.078 175.496,128.078 
  "/>
<polyline clip-path="url(#clip520)" style="stroke:#000000; stroke-linecap:round; stroke-linejoin:round; stroke-width:4; stroke-opacity:1; fill:none" points="
  156.598,57.7876 175.496,57.7876 
  "/>
<path clip-path="url(#clip520)" d="M63.4226 395.036 Q59.8115 395.036 57.9828 398.601 Q56.1773 402.143 56.1773 409.272 Q56.1773 416.379 57.9828 419.944 Q59.8115 423.485 63.4226 423.485 Q67.0569 423.485 68.8624 419.944 Q70.6911 416.379 70.6911 409.272 Q70.6911 402.143 68.8624 398.601 Q67.0569 395.036 63.4226 395.036 M63.4226 391.333 Q69.2328 391.333 72.2883 395.939 Q75.367 400.522 75.367 409.272 Q75.367 417.999 72.2883 422.606 Q69.2328 427.189 63.4226 427.189 Q57.6125 427.189 54.5338 422.606 Q51.4782 417.999 51.4782 409.272 Q51.4782 400.522 54.5338 395.939 Q57.6125 391.333 63.4226 391.333 Z" fill="#000000" fill-rule="evenodd" fill-opacity="1" /><path clip-path="url(#clip520)" d="M83.5845 420.638 L88.4688 420.638 L88.4688 426.518 L83.5845 426.518 L83.5845 420.638 Z" fill="#000000" fill-rule="evenodd" fill-opacity="1" /><path clip-path="url(#clip520)" d="M108.654 395.036 Q105.043 395.036 103.214 398.601 Q101.409 402.143 101.409 409.272 Q101.409 416.379 103.214 419.944 Q105.043 423.485 108.654 423.485 Q112.288 423.485 114.094 419.944 Q115.922 416.379 115.922 409.272 Q115.922 402.143 114.094 398.601 Q112.288 395.036 108.654 395.036 M108.654 391.333 Q114.464 391.333 117.52 395.939 Q120.598 400.522 120.598 409.272 Q120.598 417.999 117.52 422.606 Q114.464 427.189 108.654 427.189 Q102.844 427.189 99.765 422.606 Q96.7095 417.999 96.7095 409.272 Q96.7095 400.522 99.765 395.939 Q102.844 391.333 108.654 391.333 Z" fill="#000000" fill-rule="evenodd" fill-opacity="1" /><path clip-path="url(#clip520)" d="M64.6495 324.746 Q61.0384 324.746 59.2097 328.311 Q57.4041 331.853 57.4041 338.982 Q57.4041 346.089 59.2097 349.654 Q61.0384 353.195 64.6495 353.195 Q68.2837 353.195 70.0892 349.654 Q71.9179 346.089 71.9179 338.982 Q71.9179 331.853 70.0892 328.311 Q68.2837 324.746 64.6495 324.746 M64.6495 321.043 Q70.4596 321.043 73.5152 325.649 Q76.5938 330.232 76.5938 338.982 Q76.5938 347.709 73.5152 352.316 Q70.4596 356.899 64.6495 356.899 Q58.8393 356.899 55.7606 352.316 Q52.7051 347.709 52.7051 338.982 Q52.7051 330.232 55.7606 325.649 Q58.8393 321.043 64.6495 321.043 Z" fill="#000000" fill-rule="evenodd" fill-opacity="1" /><path clip-path="url(#clip520)" d="M84.8114 350.348 L89.6956 350.348 L89.6956 356.228 L84.8114 356.228 L84.8114 350.348 Z" fill="#000000" fill-rule="evenodd" fill-opacity="1" /><path clip-path="url(#clip520)" d="M100.691 352.293 L108.33 352.293 L108.33 325.927 L100.02 327.594 L100.02 323.334 L108.283 321.668 L112.959 321.668 L112.959 352.293 L120.598 352.293 L120.598 356.228 L100.691 356.228 L100.691 352.293 Z" fill="#000000" fill-rule="evenodd" fill-opacity="1" /><path clip-path="url(#clip520)" d="M65.0198 254.456 Q61.4087 254.456 59.58 258.021 Q57.7745 261.563 57.7745 268.692 Q57.7745 275.799 59.58 279.364 Q61.4087 282.905 65.0198 282.905 Q68.6541 282.905 70.4596 279.364 Q72.2883 275.799 72.2883 268.692 Q72.2883 261.563 70.4596 258.021 Q68.6541 254.456 65.0198 254.456 M65.0198 250.753 Q70.83 250.753 73.8855 255.359 Q76.9642 259.942 76.9642 268.692 Q76.9642 277.419 73.8855 282.026 Q70.83 286.609 65.0198 286.609 Q59.2097 286.609 56.131 282.026 Q53.0754 277.419 53.0754 268.692 Q53.0754 259.942 56.131 255.359 Q59.2097 250.753 65.0198 250.753 Z" fill="#000000" fill-rule="evenodd" fill-opacity="1" /><path clip-path="url(#clip520)" d="M85.1818 280.058 L90.066 280.058 L90.066 285.938 L85.1818 285.938 L85.1818 280.058 Z" fill="#000000" fill-rule="evenodd" fill-opacity="1" /><path clip-path="url(#clip520)" d="M104.279 282.002 L120.598 282.002 L120.598 285.938 L98.6539 285.938 L98.6539 282.002 Q101.316 279.248 105.899 274.618 Q110.506 269.966 111.686 268.623 Q113.932 266.1 114.811 264.364 Q115.714 262.604 115.714 260.915 Q115.714 258.16 113.77 256.424 Q111.848 254.688 108.746 254.688 Q106.547 254.688 104.094 255.452 Q101.663 256.216 98.8854 257.767 L98.8854 253.044 Q101.709 251.91 104.163 251.331 Q106.617 250.753 108.654 250.753 Q114.024 250.753 117.219 253.438 Q120.413 256.123 120.413 260.614 Q120.413 262.743 119.603 264.665 Q118.816 266.563 116.709 269.155 Q116.131 269.827 113.029 273.044 Q109.927 276.239 104.279 282.002 Z" fill="#000000" fill-rule="evenodd" fill-opacity="1" /><path clip-path="url(#clip520)" d="M64.0708 184.166 Q60.4597 184.166 58.631 187.731 Q56.8254 191.273 56.8254 198.402 Q56.8254 205.509 58.631 209.074 Q60.4597 212.615 64.0708 212.615 Q67.705 212.615 69.5105 209.074 Q71.3392 205.509 71.3392 198.402 Q71.3392 191.273 69.5105 187.731 Q67.705 184.166 64.0708 184.166 M64.0708 180.463 Q69.8809 180.463 72.9365 185.069 Q76.0151 189.652 76.0151 198.402 Q76.0151 207.129 72.9365 211.736 Q69.8809 216.319 64.0708 216.319 Q58.2606 216.319 55.1819 211.736 Q52.1264 207.129 52.1264 198.402 Q52.1264 189.652 55.1819 185.069 Q58.2606 180.463 64.0708 180.463 Z" fill="#000000" fill-rule="evenodd" fill-opacity="1" /><path clip-path="url(#clip520)" d="M84.2327 209.768 L89.1169 209.768 L89.1169 215.648 L84.2327 215.648 L84.2327 209.768 Z" fill="#000000" fill-rule="evenodd" fill-opacity="1" /><path clip-path="url(#clip520)" d="M113.469 197.013 Q116.825 197.731 118.7 200 Q120.598 202.268 120.598 205.601 Q120.598 210.717 117.08 213.518 Q113.561 216.319 107.08 216.319 Q104.904 216.319 102.589 215.879 Q100.297 215.462 97.8437 214.606 L97.8437 210.092 Q99.7882 211.226 102.103 211.805 Q104.418 212.384 106.941 212.384 Q111.339 212.384 113.631 210.648 Q115.945 208.912 115.945 205.601 Q115.945 202.546 113.793 200.833 Q111.663 199.097 107.844 199.097 L103.816 199.097 L103.816 195.254 L108.029 195.254 Q111.478 195.254 113.307 193.888 Q115.135 192.5 115.135 189.907 Q115.135 187.245 113.237 185.833 Q111.362 184.398 107.844 184.398 Q105.922 184.398 103.723 184.814 Q101.524 185.231 98.8854 186.111 L98.8854 181.944 Q101.547 181.203 103.862 180.833 Q106.2 180.463 108.26 180.463 Q113.584 180.463 116.686 182.893 Q119.788 185.301 119.788 189.421 Q119.788 192.291 118.145 194.282 Q116.501 196.25 113.469 197.013 Z" fill="#000000" fill-rule="evenodd" fill-opacity="1" /><path clip-path="url(#clip520)" d="M62.9365 113.876 Q59.3254 113.876 57.4967 117.441 Q55.6912 120.983 55.6912 128.112 Q55.6912 135.219 57.4967 138.784 Q59.3254 142.325 62.9365 142.325 Q66.5707 142.325 68.3763 138.784 Q70.205 135.219 70.205 128.112 Q70.205 120.983 68.3763 117.441 Q66.5707 113.876 62.9365 113.876 M62.9365 110.173 Q68.7467 110.173 71.8022 114.779 Q74.8809 119.362 74.8809 128.112 Q74.8809 136.839 71.8022 141.446 Q68.7467 146.029 62.9365 146.029 Q57.1264 146.029 54.0477 141.446 Q50.9921 136.839 50.9921 128.112 Q50.9921 119.362 54.0477 114.779 Q57.1264 110.173 62.9365 110.173 Z" fill="#000000" fill-rule="evenodd" fill-opacity="1" /><path clip-path="url(#clip520)" d="M83.0984 139.478 L87.9827 139.478 L87.9827 145.358 L83.0984 145.358 L83.0984 139.478 Z" fill="#000000" fill-rule="evenodd" fill-opacity="1" /><path clip-path="url(#clip520)" d="M111.015 114.872 L99.2095 133.321 L111.015 133.321 L111.015 114.872 M109.788 110.798 L115.668 110.798 L115.668 133.321 L120.598 133.321 L120.598 137.21 L115.668 137.21 L115.668 145.358 L111.015 145.358 L111.015 137.21 L95.4132 137.21 L95.4132 132.696 L109.788 110.798 Z" fill="#000000" fill-rule="evenodd" fill-opacity="1" /><path clip-path="url(#clip520)" d="M64.418 43.5863 Q60.8069 43.5863 58.9782 47.1511 Q57.1726 50.6927 57.1726 57.8223 Q57.1726 64.9288 58.9782 68.4936 Q60.8069 72.0352 64.418 72.0352 Q68.0522 72.0352 69.8578 68.4936 Q71.6865 64.9288 71.6865 57.8223 Q71.6865 50.6927 69.8578 47.1511 Q68.0522 43.5863 64.418 43.5863 M64.418 39.8826 Q70.2281 39.8826 73.2837 44.4891 Q76.3624 49.0724 76.3624 57.8223 Q76.3624 66.5491 73.2837 71.1556 Q70.2281 75.7389 64.418 75.7389 Q58.6078 75.7389 55.5291 71.1556 Q52.4736 66.5491 52.4736 57.8223 Q52.4736 49.0724 55.5291 44.4891 Q58.6078 39.8826 64.418 39.8826 Z" fill="#000000" fill-rule="evenodd" fill-opacity="1" /><path clip-path="url(#clip520)" d="M84.5799 69.188 L89.4641 69.188 L89.4641 75.0676 L84.5799 75.0676 L84.5799 69.188 Z" fill="#000000" fill-rule="evenodd" fill-opacity="1" /><path clip-path="url(#clip520)" d="M99.6956 40.5076 L118.052 40.5076 L118.052 44.4428 L103.978 44.4428 L103.978 52.9149 Q104.996 52.5677 106.015 52.4057 Q107.033 52.2205 108.052 52.2205 Q113.839 52.2205 117.219 55.3918 Q120.598 58.5631 120.598 63.9797 Q120.598 69.5584 117.126 72.6602 Q113.654 75.7389 107.334 75.7389 Q105.159 75.7389 102.89 75.3685 Q100.645 74.9982 98.2372 74.2574 L98.2372 69.5584 Q100.321 70.6926 102.543 71.2482 Q104.765 71.8037 107.242 71.8037 Q111.246 71.8037 113.584 69.6973 Q115.922 67.5908 115.922 63.9797 Q115.922 60.3686 113.584 58.2621 Q111.246 56.1557 107.242 56.1557 Q105.367 56.1557 103.492 56.5723 Q101.64 56.989 99.6956 57.8686 L99.6956 40.5076 Z" fill="#000000" fill-rule="evenodd" fill-opacity="1" /><polyline clip-path="url(#clip522)" style="stroke:#009af9; stroke-linecap:round; stroke-linejoin:round; stroke-width:4; stroke-opacity:1; fill:none" points="
  218.754,409.238 232.242,409.238 356.966,409.238 431.92,409.238 495.293,409.238 564.133,409.238 627.598,409.238 695.639,409.238 774.471,409.238 844.528,409.238 
  905.961,409.238 922.706,409.238 939.45,409.238 956.195,409.238 972.94,409.238 977.151,409.238 981.362,409.238 985.573,409.238 989.784,409.238 990.837,409.238 
  991.889,409.238 992.942,409.238 993.995,409.238 994.521,409.238 995.048,409.238 995.574,409.238 996.1,57.7876 996.627,57.7876 997.153,57.7876 997.68,57.7876 
  998.206,57.7876 1000.31,57.7876 1002.42,57.7876 1004.52,57.7876 1006.63,57.7876 1015.05,57.7876 1023.47,57.7876 1031.89,57.7876 1040.32,57.7876 1077.56,57.7876 
  1114.81,57.7876 1150.25,57.7876 1185.69,57.7876 1259.39,57.7876 1321.42,57.7876 1359.3,57.7876 1397.17,57.7876 1431.86,57.7876 1466.55,57.7876 1474.56,57.7876 
  1482.57,57.7876 1490.58,57.7876 1498.59,57.7876 1502.59,57.7876 1506.6,57.7876 1508.6,57.7876 1510.61,57.7876 1511.61,57.7876 1512.61,57.7876 1513.11,57.7876 
  1513.61,57.7876 1514.11,409.238 1514.61,409.238 1515.11,409.238 1515.61,409.238 1516.11,409.238 1516.61,409.238 1517.61,409.238 1518.62,409.238 1520.62,409.238 
  1522.62,409.238 1526.63,409.238 1530.63,409.238 1546.86,409.238 1563.09,409.238 1579.31,409.238 1595.54,409.238 1668.29,409.238 1734.21,409.238 1809.69,409.238 
  1879.57,409.238 1948.47,409.238 2015.36,409.238 2083.94,409.238 2159.07,409.238 2268.21,409.238 2290.6,409.238 
  "/>
<path clip-path="url(#clip520)" d="
M2015.72 163.342 L2279.55 163.342 L2279.55 59.662 L2015.72 59.662  Z
  " fill="#ffffff" fill-rule="evenodd" fill-opacity="1"/>
<polyline clip-path="url(#clip520)" style="stroke:#000000; stroke-linecap:round; stroke-linejoin:round; stroke-width:4; stroke-opacity:1; fill:none" points="
  2015.72,163.342 2279.55,163.342 2279.55,59.662 2015.72,59.662 2015.72,163.342 
  "/>
<polyline clip-path="url(#clip520)" style="stroke:#009af9; stroke-linecap:round; stroke-linejoin:round; stroke-width:4; stroke-opacity:1; fill:none" points="
  2040.12,111.502 2186.53,111.502 
  "/>
<path clip-path="url(#clip520)" d="M2229.36 103.62 L2229.36 107.648 Q2227.55 106.722 2225.61 106.259 Q2223.66 105.796 2221.58 105.796 Q2218.41 105.796 2216.81 106.768 Q2215.24 107.74 2215.24 109.685 Q2215.24 111.166 2216.37 112.023 Q2217.51 112.856 2220.93 113.62 L2222.39 113.944 Q2226.93 114.916 2228.83 116.699 Q2230.75 118.458 2230.75 121.629 Q2230.75 125.24 2227.88 127.347 Q2225.03 129.453 2220.03 129.453 Q2217.95 129.453 2215.68 129.037 Q2213.43 128.643 2210.93 127.833 L2210.93 123.435 Q2213.29 124.662 2215.59 125.287 Q2217.88 125.888 2220.12 125.888 Q2223.13 125.888 2224.75 124.87 Q2226.37 123.828 2226.37 121.953 Q2226.37 120.217 2225.19 119.291 Q2224.03 118.365 2220.08 117.509 L2218.59 117.162 Q2214.64 116.328 2212.88 114.615 Q2211.12 112.879 2211.12 109.87 Q2211.12 106.213 2213.71 104.222 Q2216.3 102.231 2221.07 102.231 Q2223.43 102.231 2225.52 102.578 Q2227.6 102.926 2229.36 103.62 Z" fill="#000000" fill-rule="evenodd" fill-opacity="1" /><path clip-path="url(#clip520)" d="
M156.598 953.115 L2352.76 953.115 L2352.76 580.577 L156.598 580.577  Z
  " fill="#ffffff" fill-rule="evenodd" fill-opacity="1"/>
<defs>
  <clipPath id="clip523">
    <rect x="156" y="580" width="2197" height="374"/>
  </clipPath>
</defs>
<polyline clip-path="url(#clip523)" style="stroke:#000000; stroke-linecap:round; stroke-linejoin:round; stroke-width:2; stroke-opacity:0.1; fill:none" points="
  218.754,953.115 218.754,580.577 
  "/>
<polyline clip-path="url(#clip523)" style="stroke:#000000; stroke-linecap:round; stroke-linejoin:round; stroke-width:2; stroke-opacity:0.1; fill:none" points="
  736.715,953.115 736.715,580.577 
  "/>
<polyline clip-path="url(#clip523)" style="stroke:#000000; stroke-linecap:round; stroke-linejoin:round; stroke-width:2; stroke-opacity:0.1; fill:none" points="
  1254.68,953.115 1254.68,580.577 
  "/>
<polyline clip-path="url(#clip523)" style="stroke:#000000; stroke-linecap:round; stroke-linejoin:round; stroke-width:2; stroke-opacity:0.1; fill:none" points="
  1772.64,953.115 1772.64,580.577 
  "/>
<polyline clip-path="url(#clip523)" style="stroke:#000000; stroke-linecap:round; stroke-linejoin:round; stroke-width:2; stroke-opacity:0.1; fill:none" points="
  2290.6,953.115 2290.6,580.577 
  "/>
<polyline clip-path="url(#clip520)" style="stroke:#000000; stroke-linecap:round; stroke-linejoin:round; stroke-width:4; stroke-opacity:1; fill:none" points="
  156.598,953.115 2352.76,953.115 
  "/>
<polyline clip-path="url(#clip520)" style="stroke:#000000; stroke-linecap:round; stroke-linejoin:round; stroke-width:4; stroke-opacity:1; fill:none" points="
  218.754,953.115 218.754,934.217 
  "/>
<polyline clip-path="url(#clip520)" style="stroke:#000000; stroke-linecap:round; stroke-linejoin:round; stroke-width:4; stroke-opacity:1; fill:none" points="
  736.715,953.115 736.715,934.217 
  "/>
<polyline clip-path="url(#clip520)" style="stroke:#000000; stroke-linecap:round; stroke-linejoin:round; stroke-width:4; stroke-opacity:1; fill:none" points="
  1254.68,953.115 1254.68,934.217 
  "/>
<polyline clip-path="url(#clip520)" style="stroke:#000000; stroke-linecap:round; stroke-linejoin:round; stroke-width:4; stroke-opacity:1; fill:none" points="
  1772.64,953.115 1772.64,934.217 
  "/>
<polyline clip-path="url(#clip520)" style="stroke:#000000; stroke-linecap:round; stroke-linejoin:round; stroke-width:4; stroke-opacity:1; fill:none" points="
  2290.6,953.115 2290.6,934.217 
  "/>
<path clip-path="url(#clip520)" d="M187.654 998.686 L217.33 998.686 L217.33 1002.62 L187.654 1002.62 L187.654 998.686 Z" fill="#000000" fill-rule="evenodd" fill-opacity="1" /><path clip-path="url(#clip520)" d="M240.27 985.029 L228.464 1003.48 L240.27 1003.48 L240.27 985.029 M239.043 980.955 L244.922 980.955 L244.922 1003.48 L249.853 1003.48 L249.853 1007.37 L244.922 1007.37 L244.922 1015.51 L240.27 1015.51 L240.27 1007.37 L224.668 1007.37 L224.668 1002.85 L239.043 980.955 Z" fill="#000000" fill-rule="evenodd" fill-opacity="1" /><path clip-path="url(#clip520)" d="M706.658 998.686 L736.333 998.686 L736.333 1002.62 L706.658 1002.62 L706.658 998.686 Z" fill="#000000" fill-rule="evenodd" fill-opacity="1" /><path clip-path="url(#clip520)" d="M750.454 1011.58 L766.773 1011.58 L766.773 1015.51 L744.829 1015.51 L744.829 1011.58 Q747.491 1008.82 752.074 1004.2 Q756.681 999.542 757.861 998.2 Q760.106 995.677 760.986 993.941 Q761.889 992.181 761.889 990.492 Q761.889 987.737 759.944 986.001 Q758.023 984.265 754.921 984.265 Q752.722 984.265 750.269 985.029 Q747.838 985.792 745.06 987.343 L745.06 982.621 Q747.884 981.487 750.338 980.908 Q752.792 980.33 754.829 980.33 Q760.199 980.33 763.393 983.015 Q766.588 985.7 766.588 990.191 Q766.588 992.32 765.778 994.242 Q764.991 996.14 762.884 998.732 Q762.305 999.404 759.204 1002.62 Q756.102 1005.82 750.454 1011.58 Z" fill="#000000" fill-rule="evenodd" fill-opacity="1" /><path clip-path="url(#clip520)" d="M1254.68 984.033 Q1251.07 984.033 1249.24 987.598 Q1247.43 991.14 1247.43 998.269 Q1247.43 1005.38 1249.24 1008.94 Q1251.07 1012.48 1254.68 1012.48 Q1258.31 1012.48 1260.12 1008.94 Q1261.95 1005.38 1261.95 998.269 Q1261.95 991.14 1260.12 987.598 Q1258.31 984.033 1254.68 984.033 M1254.68 980.33 Q1260.49 980.33 1263.54 984.936 Q1266.62 989.519 1266.62 998.269 Q1266.62 1007 1263.54 1011.6 Q1260.49 1016.19 1254.68 1016.19 Q1248.87 1016.19 1245.79 1011.6 Q1242.73 1007 1242.73 998.269 Q1242.73 989.519 1245.79 984.936 Q1248.87 980.33 1254.68 980.33 Z" fill="#000000" fill-rule="evenodd" fill-opacity="1" /><path clip-path="url(#clip520)" d="M1767.29 1011.58 L1783.61 1011.58 L1783.61 1015.51 L1761.67 1015.51 L1761.67 1011.58 Q1764.33 1008.82 1768.91 1004.2 Q1773.52 999.542 1774.7 998.2 Q1776.94 995.677 1777.82 993.941 Q1778.73 992.181 1778.73 990.492 Q1778.73 987.737 1776.78 986.001 Q1774.86 984.265 1771.76 984.265 Q1769.56 984.265 1767.11 985.029 Q1764.68 985.792 1761.9 987.343 L1761.9 982.621 Q1764.72 981.487 1767.18 980.908 Q1769.63 980.33 1771.67 980.33 Q1777.04 980.33 1780.23 983.015 Q1783.43 985.7 1783.43 990.191 Q1783.43 992.32 1782.62 994.242 Q1781.83 996.14 1779.72 998.732 Q1779.14 999.404 1776.04 1002.62 Q1772.94 1005.82 1767.29 1011.58 Z" fill="#000000" fill-rule="evenodd" fill-opacity="1" /><path clip-path="url(#clip520)" d="M2293.61 985.029 L2281.8 1003.48 L2293.61 1003.48 L2293.61 985.029 M2292.38 980.955 L2298.26 980.955 L2298.26 1003.48 L2303.19 1003.48 L2303.19 1007.37 L2298.26 1007.37 L2298.26 1015.51 L2293.61 1015.51 L2293.61 1007.37 L2278.01 1007.37 L2278.01 1002.85 L2292.38 980.955 Z" fill="#000000" fill-rule="evenodd" fill-opacity="1" /><polyline clip-path="url(#clip523)" style="stroke:#000000; stroke-linecap:round; stroke-linejoin:round; stroke-width:2; stroke-opacity:0.1; fill:none" points="
  156.598,942.571 2352.76,942.571 
  "/>
<polyline clip-path="url(#clip523)" style="stroke:#000000; stroke-linecap:round; stroke-linejoin:round; stroke-width:2; stroke-opacity:0.1; fill:none" points="
  156.598,872.247 2352.76,872.247 
  "/>
<polyline clip-path="url(#clip523)" style="stroke:#000000; stroke-linecap:round; stroke-linejoin:round; stroke-width:2; stroke-opacity:0.1; fill:none" points="
  156.598,801.922 2352.76,801.922 
  "/>
<polyline clip-path="url(#clip523)" style="stroke:#000000; stroke-linecap:round; stroke-linejoin:round; stroke-width:2; stroke-opacity:0.1; fill:none" points="
  156.598,731.598 2352.76,731.598 
  "/>
<polyline clip-path="url(#clip523)" style="stroke:#000000; stroke-linecap:round; stroke-linejoin:round; stroke-width:2; stroke-opacity:0.1; fill:none" points="
  156.598,661.274 2352.76,661.274 
  "/>
<polyline clip-path="url(#clip523)" style="stroke:#000000; stroke-linecap:round; stroke-linejoin:round; stroke-width:2; stroke-opacity:0.1; fill:none" points="
  156.598,590.949 2352.76,590.949 
  "/>
<polyline clip-path="url(#clip520)" style="stroke:#000000; stroke-linecap:round; stroke-linejoin:round; stroke-width:4; stroke-opacity:1; fill:none" points="
  156.598,953.115 156.598,580.577 
  "/>
<polyline clip-path="url(#clip520)" style="stroke:#000000; stroke-linecap:round; stroke-linejoin:round; stroke-width:4; stroke-opacity:1; fill:none" points="
  156.598,942.571 175.496,942.571 
  "/>
<polyline clip-path="url(#clip520)" style="stroke:#000000; stroke-linecap:round; stroke-linejoin:round; stroke-width:4; stroke-opacity:1; fill:none" points="
  156.598,872.247 175.496,872.247 
  "/>
<polyline clip-path="url(#clip520)" style="stroke:#000000; stroke-linecap:round; stroke-linejoin:round; stroke-width:4; stroke-opacity:1; fill:none" points="
  156.598,801.922 175.496,801.922 
  "/>
<polyline clip-path="url(#clip520)" style="stroke:#000000; stroke-linecap:round; stroke-linejoin:round; stroke-width:4; stroke-opacity:1; fill:none" points="
  156.598,731.598 175.496,731.598 
  "/>
<polyline clip-path="url(#clip520)" style="stroke:#000000; stroke-linecap:round; stroke-linejoin:round; stroke-width:4; stroke-opacity:1; fill:none" points="
  156.598,661.274 175.496,661.274 
  "/>
<polyline clip-path="url(#clip520)" style="stroke:#000000; stroke-linecap:round; stroke-linejoin:round; stroke-width:4; stroke-opacity:1; fill:none" points="
  156.598,590.949 175.496,590.949 
  "/>
<path clip-path="url(#clip520)" d="M63.4226 928.37 Q59.8115 928.37 57.9828 931.935 Q56.1773 935.476 56.1773 942.606 Q56.1773 949.712 57.9828 953.277 Q59.8115 956.819 63.4226 956.819 Q67.0569 956.819 68.8624 953.277 Q70.6911 949.712 70.6911 942.606 Q70.6911 935.476 68.8624 931.935 Q67.0569 928.37 63.4226 928.37 M63.4226 924.666 Q69.2328 924.666 72.2883 929.272 Q75.367 933.856 75.367 942.606 Q75.367 951.333 72.2883 955.939 Q69.2328 960.522 63.4226 960.522 Q57.6125 960.522 54.5338 955.939 Q51.4782 951.333 51.4782 942.606 Q51.4782 933.856 54.5338 929.272 Q57.6125 924.666 63.4226 924.666 Z" fill="#000000" fill-rule="evenodd" fill-opacity="1" /><path clip-path="url(#clip520)" d="M83.5845 953.971 L88.4688 953.971 L88.4688 959.851 L83.5845 959.851 L83.5845 953.971 Z" fill="#000000" fill-rule="evenodd" fill-opacity="1" /><path clip-path="url(#clip520)" d="M108.654 928.37 Q105.043 928.37 103.214 931.935 Q101.409 935.476 101.409 942.606 Q101.409 949.712 103.214 953.277 Q105.043 956.819 108.654 956.819 Q112.288 956.819 114.094 953.277 Q115.922 949.712 115.922 942.606 Q115.922 935.476 114.094 931.935 Q112.288 928.37 108.654 928.37 M108.654 924.666 Q114.464 924.666 117.52 929.272 Q120.598 933.856 120.598 942.606 Q120.598 951.333 117.52 955.939 Q114.464 960.522 108.654 960.522 Q102.844 960.522 99.765 955.939 Q96.7095 951.333 96.7095 942.606 Q96.7095 933.856 99.765 929.272 Q102.844 924.666 108.654 924.666 Z" fill="#000000" fill-rule="evenodd" fill-opacity="1" /><path clip-path="url(#clip520)" d="M64.6495 858.045 Q61.0384 858.045 59.2097 861.61 Q57.4041 865.152 57.4041 872.281 Q57.4041 879.388 59.2097 882.953 Q61.0384 886.494 64.6495 886.494 Q68.2837 886.494 70.0892 882.953 Q71.9179 879.388 71.9179 872.281 Q71.9179 865.152 70.0892 861.61 Q68.2837 858.045 64.6495 858.045 M64.6495 854.342 Q70.4596 854.342 73.5152 858.948 Q76.5938 863.531 76.5938 872.281 Q76.5938 881.008 73.5152 885.615 Q70.4596 890.198 64.6495 890.198 Q58.8393 890.198 55.7606 885.615 Q52.7051 881.008 52.7051 872.281 Q52.7051 863.531 55.7606 858.948 Q58.8393 854.342 64.6495 854.342 Z" fill="#000000" fill-rule="evenodd" fill-opacity="1" /><path clip-path="url(#clip520)" d="M84.8114 883.647 L89.6956 883.647 L89.6956 889.527 L84.8114 889.527 L84.8114 883.647 Z" fill="#000000" fill-rule="evenodd" fill-opacity="1" /><path clip-path="url(#clip520)" d="M100.691 885.592 L108.33 885.592 L108.33 859.226 L100.02 860.893 L100.02 856.633 L108.283 854.967 L112.959 854.967 L112.959 885.592 L120.598 885.592 L120.598 889.527 L100.691 889.527 L100.691 885.592 Z" fill="#000000" fill-rule="evenodd" fill-opacity="1" /><path clip-path="url(#clip520)" d="M65.0198 787.721 Q61.4087 787.721 59.58 791.286 Q57.7745 794.827 57.7745 801.957 Q57.7745 809.063 59.58 812.628 Q61.4087 816.17 65.0198 816.17 Q68.6541 816.17 70.4596 812.628 Q72.2883 809.063 72.2883 801.957 Q72.2883 794.827 70.4596 791.286 Q68.6541 787.721 65.0198 787.721 M65.0198 784.017 Q70.83 784.017 73.8855 788.624 Q76.9642 793.207 76.9642 801.957 Q76.9642 810.684 73.8855 815.29 Q70.83 819.874 65.0198 819.874 Q59.2097 819.874 56.131 815.29 Q53.0754 810.684 53.0754 801.957 Q53.0754 793.207 56.131 788.624 Q59.2097 784.017 65.0198 784.017 Z" fill="#000000" fill-rule="evenodd" fill-opacity="1" /><path clip-path="url(#clip520)" d="M85.1818 813.323 L90.066 813.323 L90.066 819.202 L85.1818 819.202 L85.1818 813.323 Z" fill="#000000" fill-rule="evenodd" fill-opacity="1" /><path clip-path="url(#clip520)" d="M104.279 815.267 L120.598 815.267 L120.598 819.202 L98.6539 819.202 L98.6539 815.267 Q101.316 812.513 105.899 807.883 Q110.506 803.23 111.686 801.888 Q113.932 799.364 114.811 797.628 Q115.714 795.869 115.714 794.179 Q115.714 791.425 113.77 789.689 Q111.848 787.952 108.746 787.952 Q106.547 787.952 104.094 788.716 Q101.663 789.48 98.8854 791.031 L98.8854 786.309 Q101.709 785.175 104.163 784.596 Q106.617 784.017 108.654 784.017 Q114.024 784.017 117.219 786.702 Q120.413 789.388 120.413 793.878 Q120.413 796.008 119.603 797.929 Q118.816 799.827 116.709 802.42 Q116.131 803.091 113.029 806.309 Q109.927 809.503 104.279 815.267 Z" fill="#000000" fill-rule="evenodd" fill-opacity="1" /><path clip-path="url(#clip520)" d="M64.0708 717.397 Q60.4597 717.397 58.631 720.961 Q56.8254 724.503 56.8254 731.633 Q56.8254 738.739 58.631 742.304 Q60.4597 745.846 64.0708 745.846 Q67.705 745.846 69.5105 742.304 Q71.3392 738.739 71.3392 731.633 Q71.3392 724.503 69.5105 720.961 Q67.705 717.397 64.0708 717.397 M64.0708 713.693 Q69.8809 713.693 72.9365 718.299 Q76.0151 722.883 76.0151 731.633 Q76.0151 740.359 72.9365 744.966 Q69.8809 749.549 64.0708 749.549 Q58.2606 749.549 55.1819 744.966 Q52.1264 740.359 52.1264 731.633 Q52.1264 722.883 55.1819 718.299 Q58.2606 713.693 64.0708 713.693 Z" fill="#000000" fill-rule="evenodd" fill-opacity="1" /><path clip-path="url(#clip520)" d="M84.2327 742.998 L89.1169 742.998 L89.1169 748.878 L84.2327 748.878 L84.2327 742.998 Z" fill="#000000" fill-rule="evenodd" fill-opacity="1" /><path clip-path="url(#clip520)" d="M113.469 730.244 Q116.825 730.961 118.7 733.23 Q120.598 735.498 120.598 738.832 Q120.598 743.947 117.08 746.748 Q113.561 749.549 107.08 749.549 Q104.904 749.549 102.589 749.109 Q100.297 748.693 97.8437 747.836 L97.8437 743.322 Q99.7882 744.457 102.103 745.035 Q104.418 745.614 106.941 745.614 Q111.339 745.614 113.631 743.878 Q115.945 742.142 115.945 738.832 Q115.945 735.776 113.793 734.063 Q111.663 732.327 107.844 732.327 L103.816 732.327 L103.816 728.485 L108.029 728.485 Q111.478 728.485 113.307 727.119 Q115.135 725.73 115.135 723.137 Q115.135 720.475 113.237 719.063 Q111.362 717.628 107.844 717.628 Q105.922 717.628 103.723 718.045 Q101.524 718.461 98.8854 719.341 L98.8854 715.174 Q101.547 714.434 103.862 714.063 Q106.2 713.693 108.26 713.693 Q113.584 713.693 116.686 716.124 Q119.788 718.531 119.788 722.651 Q119.788 725.522 118.145 727.512 Q116.501 729.48 113.469 730.244 Z" fill="#000000" fill-rule="evenodd" fill-opacity="1" /><path clip-path="url(#clip520)" d="M62.9365 647.072 Q59.3254 647.072 57.4967 650.637 Q55.6912 654.179 55.6912 661.308 Q55.6912 668.415 57.4967 671.98 Q59.3254 675.521 62.9365 675.521 Q66.5707 675.521 68.3763 671.98 Q70.205 668.415 70.205 661.308 Q70.205 654.179 68.3763 650.637 Q66.5707 647.072 62.9365 647.072 M62.9365 643.369 Q68.7467 643.369 71.8022 647.975 Q74.8809 652.558 74.8809 661.308 Q74.8809 670.035 71.8022 674.642 Q68.7467 679.225 62.9365 679.225 Q57.1264 679.225 54.0477 674.642 Q50.9921 670.035 50.9921 661.308 Q50.9921 652.558 54.0477 647.975 Q57.1264 643.369 62.9365 643.369 Z" fill="#000000" fill-rule="evenodd" fill-opacity="1" /><path clip-path="url(#clip520)" d="M83.0984 672.674 L87.9827 672.674 L87.9827 678.554 L83.0984 678.554 L83.0984 672.674 Z" fill="#000000" fill-rule="evenodd" fill-opacity="1" /><path clip-path="url(#clip520)" d="M111.015 648.068 L99.2095 666.517 L111.015 666.517 L111.015 648.068 M109.788 643.994 L115.668 643.994 L115.668 666.517 L120.598 666.517 L120.598 670.405 L115.668 670.405 L115.668 678.554 L111.015 678.554 L111.015 670.405 L95.4132 670.405 L95.4132 665.892 L109.788 643.994 Z" fill="#000000" fill-rule="evenodd" fill-opacity="1" /><path clip-path="url(#clip520)" d="M64.418 576.748 Q60.8069 576.748 58.9782 580.313 Q57.1726 583.854 57.1726 590.984 Q57.1726 598.09 58.9782 601.655 Q60.8069 605.197 64.418 605.197 Q68.0522 605.197 69.8578 601.655 Q71.6865 598.09 71.6865 590.984 Q71.6865 583.854 69.8578 580.313 Q68.0522 576.748 64.418 576.748 M64.418 573.044 Q70.2281 573.044 73.2837 577.651 Q76.3624 582.234 76.3624 590.984 Q76.3624 599.711 73.2837 604.317 Q70.2281 608.901 64.418 608.901 Q58.6078 608.901 55.5291 604.317 Q52.4736 599.711 52.4736 590.984 Q52.4736 582.234 55.5291 577.651 Q58.6078 573.044 64.418 573.044 Z" fill="#000000" fill-rule="evenodd" fill-opacity="1" /><path clip-path="url(#clip520)" d="M84.5799 602.35 L89.4641 602.35 L89.4641 608.229 L84.5799 608.229 L84.5799 602.35 Z" fill="#000000" fill-rule="evenodd" fill-opacity="1" /><path clip-path="url(#clip520)" d="M99.6956 573.669 L118.052 573.669 L118.052 577.604 L103.978 577.604 L103.978 586.077 Q104.996 585.729 106.015 585.567 Q107.033 585.382 108.052 585.382 Q113.839 585.382 117.219 588.553 Q120.598 591.725 120.598 597.141 Q120.598 602.72 117.126 605.822 Q113.654 608.901 107.334 608.901 Q105.159 608.901 102.89 608.53 Q100.645 608.16 98.2372 607.419 L98.2372 602.72 Q100.321 603.854 102.543 604.41 Q104.765 604.965 107.242 604.965 Q111.246 604.965 113.584 602.859 Q115.922 600.752 115.922 597.141 Q115.922 593.53 113.584 591.424 Q111.246 589.317 107.242 589.317 Q105.367 589.317 103.492 589.734 Q101.64 590.151 99.6956 591.03 L99.6956 573.669 Z" fill="#000000" fill-rule="evenodd" fill-opacity="1" /><polyline clip-path="url(#clip523)" style="stroke:#009af9; stroke-linecap:round; stroke-linejoin:round; stroke-width:4; stroke-opacity:1; fill:none" points="
  218.754,942.571 232.242,942.571 356.966,942.571 431.92,942.571 495.293,942.571 564.133,942.571 627.598,942.571 661.618,942.571 695.639,942.571 705.493,942.571 
  715.347,942.571 720.274,942.571 725.201,942.571 730.128,942.571 735.055,942.571 737.518,942.056 739.982,940.339 742.445,938.622 744.909,936.905 749.836,933.815 
  754.763,930.381 764.617,923.513 774.471,916.989 809.499,893.296 844.528,869.259 875.244,848.656 905.961,827.71 972.94,782.041 1040.32,736.371 1077.56,711.304 
  1114.81,685.894 1150.25,661.857 1185.69,637.821 1204.11,625.116 1222.54,612.754 1231.75,606.573 1240.96,600.392 1245.57,597.302 1250.17,593.868 1252.48,592.494 
  1254.78,591.121 1255.93,591.808 1257.08,592.494 1258.24,593.525 1259.39,594.211 1263.26,596.615 1267.14,599.362 1271.02,602.109 1274.9,604.513 1282.65,610.007 
  1290.41,615.158 1305.92,625.802 1321.42,636.104 1397.17,687.611 1466.55,734.654 1530.63,778.263 1595.54,822.216 1631.92,846.94 1668.29,871.663 1701.25,893.983 
  1734.21,916.646 1743.65,922.827 1753.08,929.351 1757.8,932.441 1762.52,935.532 1764.87,937.249 1767.23,938.966 1769.59,940.339 1771.95,942.056 1774.31,942.571 
  1776.67,942.571 1779.03,942.571 1781.39,942.571 1786.1,942.571 1790.82,942.571 1800.25,942.571 1809.69,942.571 1844.63,942.571 1879.57,942.571 1948.47,942.571 
  2015.36,942.571 2083.94,942.571 2159.07,942.571 2268.21,942.571 2290.6,942.571 
  "/>
<path clip-path="url(#clip520)" d="
M1931.2 696.675 L2279.55 696.675 L2279.55 592.995 L1931.2 592.995  Z
  " fill="#ffffff" fill-rule="evenodd" fill-opacity="1"/>
<polyline clip-path="url(#clip520)" style="stroke:#000000; stroke-linecap:round; stroke-linejoin:round; stroke-width:4; stroke-opacity:1; fill:none" points="
  1931.2,696.675 2279.55,696.675 2279.55,592.995 1931.2,592.995 1931.2,696.675 
  "/>
<polyline clip-path="url(#clip520)" style="stroke:#009af9; stroke-linecap:round; stroke-linejoin:round; stroke-width:4; stroke-opacity:1; fill:none" points="
  1955.61,644.835 2102.02,644.835 
  "/>
<path clip-path="url(#clip520)" d="M2144.84 636.953 L2144.84 640.981 Q2143.04 640.055 2141.09 639.592 Q2139.15 639.129 2137.07 639.129 Q2133.9 639.129 2132.3 640.102 Q2130.72 641.074 2130.72 643.018 Q2130.72 644.5 2131.86 645.356 Q2132.99 646.189 2136.42 646.953 L2137.88 647.277 Q2142.41 648.25 2144.31 650.032 Q2146.23 651.791 2146.23 654.963 Q2146.23 658.574 2143.36 660.68 Q2140.52 662.787 2135.52 662.787 Q2133.43 662.787 2131.16 662.37 Q2128.92 661.976 2126.42 661.166 L2126.42 656.768 Q2128.78 657.995 2131.07 658.62 Q2133.36 659.222 2135.61 659.222 Q2138.62 659.222 2140.24 658.203 Q2141.86 657.162 2141.86 655.287 Q2141.86 653.551 2140.68 652.625 Q2139.52 651.699 2135.56 650.842 L2134.08 650.495 Q2130.12 649.662 2128.36 647.949 Q2126.6 646.213 2126.6 643.203 Q2126.6 639.546 2129.2 637.555 Q2131.79 635.565 2136.56 635.565 Q2138.92 635.565 2141 635.912 Q2143.09 636.259 2144.84 636.953 Z" fill="#000000" fill-rule="evenodd" fill-opacity="1" /><path clip-path="url(#clip520)" d="M2169.38 644.407 L2176.3 644.407 L2178.46 637.833 L2180.63 644.407 L2187.53 644.407 L2181.93 648.481 L2184.1 655.055 L2178.46 650.981 L2172.83 655.055 L2174.98 648.481 L2169.38 644.407 Z" fill="#000000" fill-rule="evenodd" fill-opacity="1" /><path clip-path="url(#clip520)" d="M2229.36 636.953 L2229.36 640.981 Q2227.55 640.055 2225.61 639.592 Q2223.66 639.129 2221.58 639.129 Q2218.41 639.129 2216.81 640.102 Q2215.24 641.074 2215.24 643.018 Q2215.24 644.5 2216.37 645.356 Q2217.51 646.189 2220.93 646.953 L2222.39 647.277 Q2226.93 648.25 2228.83 650.032 Q2230.75 651.791 2230.75 654.963 Q2230.75 658.574 2227.88 660.68 Q2225.03 662.787 2220.03 662.787 Q2217.95 662.787 2215.68 662.37 Q2213.43 661.976 2210.93 661.166 L2210.93 656.768 Q2213.29 657.995 2215.59 658.62 Q2217.88 659.222 2220.12 659.222 Q2223.13 659.222 2224.75 658.203 Q2226.37 657.162 2226.37 655.287 Q2226.37 653.551 2225.19 652.625 Q2224.03 651.699 2220.08 650.842 L2218.59 650.495 Q2214.64 649.662 2212.88 647.949 Q2211.12 646.213 2211.12 643.203 Q2211.12 639.546 2213.71 637.555 Q2216.3 635.565 2221.07 635.565 Q2223.43 635.565 2225.52 635.912 Q2227.6 636.259 2229.36 636.953 Z" fill="#000000" fill-rule="evenodd" fill-opacity="1" /><path clip-path="url(#clip520)" d="
M156.598 1486.45 L2352.76 1486.45 L2352.76 1113.91 L156.598 1113.91  Z
  " fill="#ffffff" fill-rule="evenodd" fill-opacity="1"/>
<defs>
  <clipPath id="clip524">
    <rect x="156" y="1113" width="2197" height="374"/>
  </clipPath>
</defs>
<polyline clip-path="url(#clip524)" style="stroke:#000000; stroke-linecap:round; stroke-linejoin:round; stroke-width:2; stroke-opacity:0.1; fill:none" points="
  218.754,1486.45 218.754,1113.91 
  "/>
<polyline clip-path="url(#clip524)" style="stroke:#000000; stroke-linecap:round; stroke-linejoin:round; stroke-width:2; stroke-opacity:0.1; fill:none" points="
  736.715,1486.45 736.715,1113.91 
  "/>
<polyline clip-path="url(#clip524)" style="stroke:#000000; stroke-linecap:round; stroke-linejoin:round; stroke-width:2; stroke-opacity:0.1; fill:none" points="
  1254.68,1486.45 1254.68,1113.91 
  "/>
<polyline clip-path="url(#clip524)" style="stroke:#000000; stroke-linecap:round; stroke-linejoin:round; stroke-width:2; stroke-opacity:0.1; fill:none" points="
  1772.64,1486.45 1772.64,1113.91 
  "/>
<polyline clip-path="url(#clip524)" style="stroke:#000000; stroke-linecap:round; stroke-linejoin:round; stroke-width:2; stroke-opacity:0.1; fill:none" points="
  2290.6,1486.45 2290.6,1113.91 
  "/>
<polyline clip-path="url(#clip520)" style="stroke:#000000; stroke-linecap:round; stroke-linejoin:round; stroke-width:4; stroke-opacity:1; fill:none" points="
  156.598,1486.45 2352.76,1486.45 
  "/>
<polyline clip-path="url(#clip520)" style="stroke:#000000; stroke-linecap:round; stroke-linejoin:round; stroke-width:4; stroke-opacity:1; fill:none" points="
  218.754,1486.45 218.754,1467.55 
  "/>
<polyline clip-path="url(#clip520)" style="stroke:#000000; stroke-linecap:round; stroke-linejoin:round; stroke-width:4; stroke-opacity:1; fill:none" points="
  736.715,1486.45 736.715,1467.55 
  "/>
<polyline clip-path="url(#clip520)" style="stroke:#000000; stroke-linecap:round; stroke-linejoin:round; stroke-width:4; stroke-opacity:1; fill:none" points="
  1254.68,1486.45 1254.68,1467.55 
  "/>
<polyline clip-path="url(#clip520)" style="stroke:#000000; stroke-linecap:round; stroke-linejoin:round; stroke-width:4; stroke-opacity:1; fill:none" points="
  1772.64,1486.45 1772.64,1467.55 
  "/>
<polyline clip-path="url(#clip520)" style="stroke:#000000; stroke-linecap:round; stroke-linejoin:round; stroke-width:4; stroke-opacity:1; fill:none" points="
  2290.6,1486.45 2290.6,1467.55 
  "/>
<path clip-path="url(#clip520)" d="M187.654 1532.02 L217.33 1532.02 L217.33 1535.95 L187.654 1535.95 L187.654 1532.02 Z" fill="#000000" fill-rule="evenodd" fill-opacity="1" /><path clip-path="url(#clip520)" d="M240.27 1518.36 L228.464 1536.81 L240.27 1536.81 L240.27 1518.36 M239.043 1514.29 L244.922 1514.29 L244.922 1536.81 L249.853 1536.81 L249.853 1540.7 L244.922 1540.7 L244.922 1548.85 L240.27 1548.85 L240.27 1540.7 L224.668 1540.7 L224.668 1536.19 L239.043 1514.29 Z" fill="#000000" fill-rule="evenodd" fill-opacity="1" /><path clip-path="url(#clip520)" d="M706.658 1532.02 L736.333 1532.02 L736.333 1535.95 L706.658 1535.95 L706.658 1532.02 Z" fill="#000000" fill-rule="evenodd" fill-opacity="1" /><path clip-path="url(#clip520)" d="M750.454 1544.91 L766.773 1544.91 L766.773 1548.85 L744.829 1548.85 L744.829 1544.91 Q747.491 1542.16 752.074 1537.53 Q756.681 1532.88 757.861 1531.53 Q760.106 1529.01 760.986 1527.27 Q761.889 1525.51 761.889 1523.82 Q761.889 1521.07 759.944 1519.33 Q758.023 1517.6 754.921 1517.6 Q752.722 1517.6 750.269 1518.36 Q747.838 1519.13 745.06 1520.68 L745.06 1515.95 Q747.884 1514.82 750.338 1514.24 Q752.792 1513.66 754.829 1513.66 Q760.199 1513.66 763.393 1516.35 Q766.588 1519.03 766.588 1523.52 Q766.588 1525.65 765.778 1527.57 Q764.991 1529.47 762.884 1532.07 Q762.305 1532.74 759.204 1535.95 Q756.102 1539.15 750.454 1544.91 Z" fill="#000000" fill-rule="evenodd" fill-opacity="1" /><path clip-path="url(#clip520)" d="M1254.68 1517.37 Q1251.07 1517.37 1249.24 1520.93 Q1247.43 1524.47 1247.43 1531.6 Q1247.43 1538.71 1249.24 1542.27 Q1251.07 1545.82 1254.68 1545.82 Q1258.31 1545.82 1260.12 1542.27 Q1261.95 1538.71 1261.95 1531.6 Q1261.95 1524.47 1260.12 1520.93 Q1258.31 1517.37 1254.68 1517.37 M1254.68 1513.66 Q1260.49 1513.66 1263.54 1518.27 Q1266.62 1522.85 1266.62 1531.6 Q1266.62 1540.33 1263.54 1544.94 Q1260.49 1549.52 1254.68 1549.52 Q1248.87 1549.52 1245.79 1544.94 Q1242.73 1540.33 1242.73 1531.6 Q1242.73 1522.85 1245.79 1518.27 Q1248.87 1513.66 1254.68 1513.66 Z" fill="#000000" fill-rule="evenodd" fill-opacity="1" /><path clip-path="url(#clip520)" d="M1767.29 1544.91 L1783.61 1544.91 L1783.61 1548.85 L1761.67 1548.85 L1761.67 1544.91 Q1764.33 1542.16 1768.91 1537.53 Q1773.52 1532.88 1774.7 1531.53 Q1776.94 1529.01 1777.82 1527.27 Q1778.73 1525.51 1778.73 1523.82 Q1778.73 1521.07 1776.78 1519.33 Q1774.86 1517.6 1771.76 1517.6 Q1769.56 1517.6 1767.11 1518.36 Q1764.68 1519.13 1761.9 1520.68 L1761.9 1515.95 Q1764.72 1514.82 1767.18 1514.24 Q1769.63 1513.66 1771.67 1513.66 Q1777.04 1513.66 1780.23 1516.35 Q1783.43 1519.03 1783.43 1523.52 Q1783.43 1525.65 1782.62 1527.57 Q1781.83 1529.47 1779.72 1532.07 Q1779.14 1532.74 1776.04 1535.95 Q1772.94 1539.15 1767.29 1544.91 Z" fill="#000000" fill-rule="evenodd" fill-opacity="1" /><path clip-path="url(#clip520)" d="M2293.61 1518.36 L2281.8 1536.81 L2293.61 1536.81 L2293.61 1518.36 M2292.38 1514.29 L2298.26 1514.29 L2298.26 1536.81 L2303.19 1536.81 L2303.19 1540.7 L2298.26 1540.7 L2298.26 1548.85 L2293.61 1548.85 L2293.61 1540.7 L2278.01 1540.7 L2278.01 1536.19 L2292.38 1514.29 Z" fill="#000000" fill-rule="evenodd" fill-opacity="1" /><polyline clip-path="url(#clip524)" style="stroke:#000000; stroke-linecap:round; stroke-linejoin:round; stroke-width:2; stroke-opacity:0.1; fill:none" points="
  156.598,1475.9 2352.76,1475.9 
  "/>
<polyline clip-path="url(#clip524)" style="stroke:#000000; stroke-linecap:round; stroke-linejoin:round; stroke-width:2; stroke-opacity:0.1; fill:none" points="
  156.598,1382.18 2352.76,1382.18 
  "/>
<polyline clip-path="url(#clip524)" style="stroke:#000000; stroke-linecap:round; stroke-linejoin:round; stroke-width:2; stroke-opacity:0.1; fill:none" points="
  156.598,1288.45 2352.76,1288.45 
  "/>
<polyline clip-path="url(#clip524)" style="stroke:#000000; stroke-linecap:round; stroke-linejoin:round; stroke-width:2; stroke-opacity:0.1; fill:none" points="
  156.598,1194.72 2352.76,1194.72 
  "/>
<polyline clip-path="url(#clip520)" style="stroke:#000000; stroke-linecap:round; stroke-linejoin:round; stroke-width:4; stroke-opacity:1; fill:none" points="
  156.598,1486.45 156.598,1113.91 
  "/>
<polyline clip-path="url(#clip520)" style="stroke:#000000; stroke-linecap:round; stroke-linejoin:round; stroke-width:4; stroke-opacity:1; fill:none" points="
  156.598,1475.9 175.496,1475.9 
  "/>
<polyline clip-path="url(#clip520)" style="stroke:#000000; stroke-linecap:round; stroke-linejoin:round; stroke-width:4; stroke-opacity:1; fill:none" points="
  156.598,1382.18 175.496,1382.18 
  "/>
<polyline clip-path="url(#clip520)" style="stroke:#000000; stroke-linecap:round; stroke-linejoin:round; stroke-width:4; stroke-opacity:1; fill:none" points="
  156.598,1288.45 175.496,1288.45 
  "/>
<polyline clip-path="url(#clip520)" style="stroke:#000000; stroke-linecap:round; stroke-linejoin:round; stroke-width:4; stroke-opacity:1; fill:none" points="
  156.598,1194.72 175.496,1194.72 
  "/>
<path clip-path="url(#clip520)" d="M63.4226 1461.7 Q59.8115 1461.7 57.9828 1465.27 Q56.1773 1468.81 56.1773 1475.94 Q56.1773 1483.05 57.9828 1486.61 Q59.8115 1490.15 63.4226 1490.15 Q67.0569 1490.15 68.8624 1486.61 Q70.6911 1483.05 70.6911 1475.94 Q70.6911 1468.81 68.8624 1465.27 Q67.0569 1461.7 63.4226 1461.7 M63.4226 1458 Q69.2328 1458 72.2883 1462.61 Q75.367 1467.19 75.367 1475.94 Q75.367 1484.67 72.2883 1489.27 Q69.2328 1493.86 63.4226 1493.86 Q57.6125 1493.86 54.5338 1489.27 Q51.4782 1484.67 51.4782 1475.94 Q51.4782 1467.19 54.5338 1462.61 Q57.6125 1458 63.4226 1458 Z" fill="#000000" fill-rule="evenodd" fill-opacity="1" /><path clip-path="url(#clip520)" d="M83.5845 1487.3 L88.4688 1487.3 L88.4688 1493.18 L83.5845 1493.18 L83.5845 1487.3 Z" fill="#000000" fill-rule="evenodd" fill-opacity="1" /><path clip-path="url(#clip520)" d="M108.654 1461.7 Q105.043 1461.7 103.214 1465.27 Q101.409 1468.81 101.409 1475.94 Q101.409 1483.05 103.214 1486.61 Q105.043 1490.15 108.654 1490.15 Q112.288 1490.15 114.094 1486.61 Q115.922 1483.05 115.922 1475.94 Q115.922 1468.81 114.094 1465.27 Q112.288 1461.7 108.654 1461.7 M108.654 1458 Q114.464 1458 117.52 1462.61 Q120.598 1467.19 120.598 1475.94 Q120.598 1484.67 117.52 1489.27 Q114.464 1493.86 108.654 1493.86 Q102.844 1493.86 99.765 1489.27 Q96.7095 1484.67 96.7095 1475.94 Q96.7095 1467.19 99.765 1462.61 Q102.844 1458 108.654 1458 Z" fill="#000000" fill-rule="evenodd" fill-opacity="1" /><path clip-path="url(#clip520)" d="M64.6495 1367.97 Q61.0384 1367.97 59.2097 1371.54 Q57.4041 1375.08 57.4041 1382.21 Q57.4041 1389.32 59.2097 1392.88 Q61.0384 1396.42 64.6495 1396.42 Q68.2837 1396.42 70.0892 1392.88 Q71.9179 1389.32 71.9179 1382.21 Q71.9179 1375.08 70.0892 1371.54 Q68.2837 1367.97 64.6495 1367.97 M64.6495 1364.27 Q70.4596 1364.27 73.5152 1368.88 Q76.5938 1373.46 76.5938 1382.21 Q76.5938 1390.94 73.5152 1395.54 Q70.4596 1400.13 64.6495 1400.13 Q58.8393 1400.13 55.7606 1395.54 Q52.7051 1390.94 52.7051 1382.21 Q52.7051 1373.46 55.7606 1368.88 Q58.8393 1364.27 64.6495 1364.27 Z" fill="#000000" fill-rule="evenodd" fill-opacity="1" /><path clip-path="url(#clip520)" d="M84.8114 1393.58 L89.6956 1393.58 L89.6956 1399.46 L84.8114 1399.46 L84.8114 1393.58 Z" fill="#000000" fill-rule="evenodd" fill-opacity="1" /><path clip-path="url(#clip520)" d="M100.691 1395.52 L108.33 1395.52 L108.33 1369.15 L100.02 1370.82 L100.02 1366.56 L108.283 1364.9 L112.959 1364.9 L112.959 1395.52 L120.598 1395.52 L120.598 1399.46 L100.691 1399.46 L100.691 1395.52 Z" fill="#000000" fill-rule="evenodd" fill-opacity="1" /><path clip-path="url(#clip520)" d="M65.0198 1274.25 Q61.4087 1274.25 59.58 1277.81 Q57.7745 1281.35 57.7745 1288.48 Q57.7745 1295.59 59.58 1299.15 Q61.4087 1302.69 65.0198 1302.69 Q68.6541 1302.69 70.4596 1299.15 Q72.2883 1295.59 72.2883 1288.48 Q72.2883 1281.35 70.4596 1277.81 Q68.6541 1274.25 65.0198 1274.25 M65.0198 1270.54 Q70.83 1270.54 73.8855 1275.15 Q76.9642 1279.73 76.9642 1288.48 Q76.9642 1297.21 73.8855 1301.82 Q70.83 1306.4 65.0198 1306.4 Q59.2097 1306.4 56.131 1301.82 Q53.0754 1297.21 53.0754 1288.48 Q53.0754 1279.73 56.131 1275.15 Q59.2097 1270.54 65.0198 1270.54 Z" fill="#000000" fill-rule="evenodd" fill-opacity="1" /><path clip-path="url(#clip520)" d="M85.1818 1299.85 L90.066 1299.85 L90.066 1305.73 L85.1818 1305.73 L85.1818 1299.85 Z" fill="#000000" fill-rule="evenodd" fill-opacity="1" /><path clip-path="url(#clip520)" d="M104.279 1301.79 L120.598 1301.79 L120.598 1305.73 L98.6539 1305.73 L98.6539 1301.79 Q101.316 1299.04 105.899 1294.41 Q110.506 1289.75 111.686 1288.41 Q113.932 1285.89 114.811 1284.15 Q115.714 1282.39 115.714 1280.7 Q115.714 1277.95 113.77 1276.21 Q111.848 1274.48 108.746 1274.48 Q106.547 1274.48 104.094 1275.24 Q101.663 1276 98.8854 1277.56 L98.8854 1272.83 Q101.709 1271.7 104.163 1271.12 Q106.617 1270.54 108.654 1270.54 Q114.024 1270.54 117.219 1273.23 Q120.413 1275.91 120.413 1280.4 Q120.413 1282.53 119.603 1284.45 Q118.816 1286.35 116.709 1288.94 Q116.131 1289.62 113.029 1292.83 Q109.927 1296.03 104.279 1301.79 Z" fill="#000000" fill-rule="evenodd" fill-opacity="1" /><path clip-path="url(#clip520)" d="M64.0708 1180.52 Q60.4597 1180.52 58.631 1184.08 Q56.8254 1187.62 56.8254 1194.75 Q56.8254 1201.86 58.631 1205.42 Q60.4597 1208.97 64.0708 1208.97 Q67.705 1208.97 69.5105 1205.42 Q71.3392 1201.86 71.3392 1194.75 Q71.3392 1187.62 69.5105 1184.08 Q67.705 1180.52 64.0708 1180.52 M64.0708 1176.81 Q69.8809 1176.81 72.9365 1181.42 Q76.0151 1186 76.0151 1194.75 Q76.0151 1203.48 72.9365 1208.09 Q69.8809 1212.67 64.0708 1212.67 Q58.2606 1212.67 55.1819 1208.09 Q52.1264 1203.48 52.1264 1194.75 Q52.1264 1186 55.1819 1181.42 Q58.2606 1176.81 64.0708 1176.81 Z" fill="#000000" fill-rule="evenodd" fill-opacity="1" /><path clip-path="url(#clip520)" d="M84.2327 1206.12 L89.1169 1206.12 L89.1169 1212 L84.2327 1212 L84.2327 1206.12 Z" fill="#000000" fill-rule="evenodd" fill-opacity="1" /><path clip-path="url(#clip520)" d="M113.469 1193.36 Q116.825 1194.08 118.7 1196.35 Q120.598 1198.62 120.598 1201.95 Q120.598 1207.07 117.08 1209.87 Q113.561 1212.67 107.08 1212.67 Q104.904 1212.67 102.589 1212.23 Q100.297 1211.81 97.8437 1210.96 L97.8437 1206.44 Q99.7882 1207.58 102.103 1208.16 Q104.418 1208.73 106.941 1208.73 Q111.339 1208.73 113.631 1207 Q115.945 1205.26 115.945 1201.95 Q115.945 1198.9 113.793 1197.18 Q111.663 1195.45 107.844 1195.45 L103.816 1195.45 L103.816 1191.6 L108.029 1191.6 Q111.478 1191.6 113.307 1190.24 Q115.135 1188.85 115.135 1186.26 Q115.135 1183.6 113.237 1182.18 Q111.362 1180.75 107.844 1180.75 Q105.922 1180.75 103.723 1181.17 Q101.524 1181.58 98.8854 1182.46 L98.8854 1178.29 Q101.547 1177.55 103.862 1177.18 Q106.2 1176.81 108.26 1176.81 Q113.584 1176.81 116.686 1179.24 Q119.788 1181.65 119.788 1185.77 Q119.788 1188.64 118.145 1190.63 Q116.501 1192.6 113.469 1193.36 Z" fill="#000000" fill-rule="evenodd" fill-opacity="1" /><polyline clip-path="url(#clip524)" style="stroke:#009af9; stroke-linecap:round; stroke-linejoin:round; stroke-width:4; stroke-opacity:1; fill:none" points="
  218.754,1475.9 232.242,1475.9 356.966,1475.9 431.92,1475.9 495.293,1475.64 512.503,1474.86 529.713,1473.56 546.923,1471.74 564.133,1469.41 579.999,1466.74 
  595.866,1463.72 611.732,1460.27 627.598,1456.26 644.608,1451.64 661.618,1446.38 678.629,1440.6 695.639,1434.49 715.347,1426.65 735.055,1418.12 754.763,1408.92 
  774.471,1399.04 791.985,1389.59 809.499,1379.89 827.013,1369.36 844.528,1358.28 859.886,1348.35 875.244,1338.02 890.603,1326.93 905.961,1315.78 922.706,1303.05 
  939.45,1289.83 956.195,1276.13 972.94,1261.51 989.784,1246.82 1006.63,1231.95 1023.47,1217.97 1040.32,1204.58 1049.63,1197.91 1058.94,1191.19 1068.25,1185.11 
  1077.56,1179.33 1086.88,1173.54 1096.19,1168.35 1105.5,1163.18 1114.81,1158.59 1123.67,1154.29 1132.53,1150.49 1141.39,1146.75 1150.25,1143.48 1159.11,1140.3 
  1167.97,1137.57 1176.83,1134.95 1185.69,1132.75 1194.9,1130.7 1204.11,1128.85 1213.33,1127.39 1222.54,1126.22 1231.75,1125.35 1240.96,1124.76 1250.17,1124.45 
  1259.39,1124.46 1267.14,1124.69 1274.9,1125.12 1282.65,1125.8 1290.41,1126.64 1298.16,1127.69 1305.92,1129.03 1313.67,1130.49 1321.42,1132.15 1330.89,1134.55 
  1340.36,1137.26 1349.83,1140.3 1359.3,1143.48 1368.76,1147.15 1378.23,1151.14 1387.7,1155.22 1397.17,1159.84 1405.84,1164.24 1414.51,1168.91 1423.18,1174.13 
  1431.86,1179.33 1440.53,1184.78 1449.2,1190.5 1457.88,1196.47 1466.55,1202.7 1482.57,1215.13 1498.59,1228.47 1514.61,1242.27 1530.63,1256.66 1546.86,1270.6 
  1563.09,1284.08 1579.31,1297.1 1595.54,1309.67 1613.73,1323.25 1631.92,1336.26 1650.1,1348.69 1668.29,1360.54 1684.77,1370.9 1701.25,1380.47 1717.73,1389.87 
  1734.21,1398.77 1753.08,1408.18 1771.95,1416.98 1790.82,1425.17 1809.69,1432.94 1827.16,1439.34 1844.63,1445.39 1862.1,1450.75 1879.57,1455.73 1896.8,1460.03 
  1914.02,1463.82 1931.25,1467.1 1948.47,1469.86 1965.19,1472.04 1981.92,1473.74 1998.64,1474.95 2015.36,1475.67 2083.94,1475.9 2159.07,1475.9 2268.21,1475.9 
  2290.6,1475.9 
  "/>
<path clip-path="url(#clip520)" d="
M1846.69 1230.01 L2279.55 1230.01 L2279.55 1126.33 L1846.69 1126.33  Z
  " fill="#ffffff" fill-rule="evenodd" fill-opacity="1"/>
<polyline clip-path="url(#clip520)" style="stroke:#000000; stroke-linecap:round; stroke-linejoin:round; stroke-width:4; stroke-opacity:1; fill:none" points="
  1846.69,1230.01 2279.55,1230.01 2279.55,1126.33 1846.69,1126.33 1846.69,1230.01 
  "/>
<polyline clip-path="url(#clip520)" style="stroke:#009af9; stroke-linecap:round; stroke-linejoin:round; stroke-width:4; stroke-opacity:1; fill:none" points="
  1871.09,1178.17 2017.5,1178.17 
  "/>
<path clip-path="url(#clip520)" d="M2060.33 1170.29 L2060.33 1174.31 Q2058.53 1173.39 2056.58 1172.93 Q2054.64 1172.46 2052.55 1172.46 Q2049.38 1172.46 2047.79 1173.43 Q2046.21 1174.41 2046.21 1176.35 Q2046.21 1177.83 2047.35 1178.69 Q2048.48 1179.52 2051.91 1180.29 L2053.36 1180.61 Q2057.9 1181.58 2059.8 1183.37 Q2061.72 1185.12 2061.72 1188.3 Q2061.72 1191.91 2058.85 1194.01 Q2056 1196.12 2051 1196.12 Q2048.92 1196.12 2046.65 1195.7 Q2044.41 1195.31 2041.91 1194.5 L2041.91 1190.1 Q2044.27 1191.33 2046.56 1191.95 Q2048.85 1192.56 2051.1 1192.56 Q2054.1 1192.56 2055.72 1191.54 Q2057.35 1190.49 2057.35 1188.62 Q2057.35 1186.88 2056.16 1185.96 Q2055.01 1185.03 2051.05 1184.18 L2049.57 1183.83 Q2045.61 1183 2043.85 1181.28 Q2042.09 1179.55 2042.09 1176.54 Q2042.09 1172.88 2044.68 1170.89 Q2047.28 1168.9 2052.04 1168.9 Q2054.41 1168.9 2056.49 1169.25 Q2058.57 1169.59 2060.33 1170.29 Z" fill="#000000" fill-rule="evenodd" fill-opacity="1" /><path clip-path="url(#clip520)" d="M2084.87 1177.74 L2091.79 1177.74 L2093.94 1171.17 L2096.12 1177.74 L2103.02 1177.74 L2097.41 1181.81 L2099.59 1188.39 L2093.94 1184.31 L2088.32 1188.39 L2090.47 1181.81 L2084.87 1177.74 Z" fill="#000000" fill-rule="evenodd" fill-opacity="1" /><path clip-path="url(#clip520)" d="M2144.84 1170.29 L2144.84 1174.31 Q2143.04 1173.39 2141.09 1172.93 Q2139.15 1172.46 2137.07 1172.46 Q2133.9 1172.46 2132.3 1173.43 Q2130.72 1174.41 2130.72 1176.35 Q2130.72 1177.83 2131.86 1178.69 Q2132.99 1179.52 2136.42 1180.29 L2137.88 1180.61 Q2142.41 1181.58 2144.31 1183.37 Q2146.23 1185.12 2146.23 1188.3 Q2146.23 1191.91 2143.36 1194.01 Q2140.52 1196.12 2135.52 1196.12 Q2133.43 1196.12 2131.16 1195.7 Q2128.92 1195.31 2126.42 1194.5 L2126.42 1190.1 Q2128.78 1191.33 2131.07 1191.95 Q2133.36 1192.56 2135.61 1192.56 Q2138.62 1192.56 2140.24 1191.54 Q2141.86 1190.49 2141.86 1188.62 Q2141.86 1186.88 2140.68 1185.96 Q2139.52 1185.03 2135.56 1184.18 L2134.08 1183.83 Q2130.12 1183 2128.36 1181.28 Q2126.6 1179.55 2126.6 1176.54 Q2126.6 1172.88 2129.2 1170.89 Q2131.79 1168.9 2136.56 1168.9 Q2138.92 1168.9 2141 1169.25 Q2143.09 1169.59 2144.84 1170.29 Z" fill="#000000" fill-rule="evenodd" fill-opacity="1" /><path clip-path="url(#clip520)" d="M2169.38 1177.74 L2176.3 1177.74 L2178.46 1171.17 L2180.63 1177.74 L2187.53 1177.74 L2181.93 1181.81 L2184.1 1188.39 L2178.46 1184.31 L2172.83 1188.39 L2174.98 1181.81 L2169.38 1177.74 Z" fill="#000000" fill-rule="evenodd" fill-opacity="1" /><path clip-path="url(#clip520)" d="M2229.36 1170.29 L2229.36 1174.31 Q2227.55 1173.39 2225.61 1172.93 Q2223.66 1172.46 2221.58 1172.46 Q2218.41 1172.46 2216.81 1173.43 Q2215.24 1174.41 2215.24 1176.35 Q2215.24 1177.83 2216.37 1178.69 Q2217.51 1179.52 2220.93 1180.29 L2222.39 1180.61 Q2226.93 1181.58 2228.83 1183.37 Q2230.75 1185.12 2230.75 1188.3 Q2230.75 1191.91 2227.88 1194.01 Q2225.03 1196.12 2220.03 1196.12 Q2217.95 1196.12 2215.68 1195.7 Q2213.43 1195.31 2210.93 1194.5 L2210.93 1190.1 Q2213.29 1191.33 2215.59 1191.95 Q2217.88 1192.56 2220.12 1192.56 Q2223.13 1192.56 2224.75 1191.54 Q2226.37 1190.49 2226.37 1188.62 Q2226.37 1186.88 2225.19 1185.96 Q2224.03 1185.03 2220.08 1184.18 L2218.59 1183.83 Q2214.64 1183 2212.88 1181.28 Q2211.12 1179.55 2211.12 1176.54 Q2211.12 1172.88 2213.71 1170.89 Q2216.3 1168.9 2221.07 1168.9 Q2223.43 1168.9 2225.52 1169.25 Q2227.6 1169.59 2229.36 1170.29 Z" fill="#000000" fill-rule="evenodd" fill-opacity="1" /></svg>
