<?xml version="1.0" encoding="utf-8"?>
<svg xmlns="http://www.w3.org/2000/svg" xmlns:xlink="http://www.w3.org/1999/xlink" width="500" height="240" viewBox="0 0 2000 960">
<defs>
  <clipPath id="clip560">
    <rect x="0" y="0" width="2000" height="960"/>
  </clipPath>
</defs>
<path clip-path="url(#clip560)" d="
M0 960 L2000 960 L2000 0 L0 0  Z
  " fill="#ffffff" fill-rule="evenodd" fill-opacity="1"/>
<defs>
  <clipPath id="clip561">
    <rect x="400" y="0" width="1401" height="960"/>
  </clipPath>
</defs>
<path clip-path="url(#clip560)" d="
M182.274 862.525 L1952.76 862.525 L1952.76 47.2441 L182.274 47.2441  Z
  " fill="#ffffff" fill-rule="evenodd" fill-opacity="1"/>
<defs>
  <clipPath id="clip562">
    <rect x="182" y="47" width="1771" height="816"/>
  </clipPath>
</defs>
<polyline clip-path="url(#clip562)" style="stroke:#000000; stroke-linecap:butt; stroke-linejoin:round; stroke-width:2; stroke-opacity:0.1; fill:none" points="
  270.402,862.525 270.402,47.2441 
  "/>
<polyline clip-path="url(#clip562)" style="stroke:#000000; stroke-linecap:butt; stroke-linejoin:round; stroke-width:2; stroke-opacity:0.1; fill:none" points="
  538.918,862.525 538.918,47.2441 
  "/>
<polyline clip-path="url(#clip562)" style="stroke:#000000; stroke-linecap:butt; stroke-linejoin:round; stroke-width:2; stroke-opacity:0.1; fill:none" points="
  807.434,862.525 807.434,47.2441 
  "/>
<polyline clip-path="url(#clip562)" style="stroke:#000000; stroke-linecap:butt; stroke-linejoin:round; stroke-width:2; stroke-opacity:0.1; fill:none" points="
  1075.95,862.525 1075.95,47.2441 
  "/>
<polyline clip-path="url(#clip562)" style="stroke:#000000; stroke-linecap:butt; stroke-linejoin:round; stroke-width:2; stroke-opacity:0.1; fill:none" points="
  1344.47,862.525 1344.47,47.2441 
  "/>
<polyline clip-path="url(#clip562)" style="stroke:#000000; stroke-linecap:butt; stroke-linejoin:round; stroke-width:2; stroke-opacity:0.1; fill:none" points="
  1612.98,862.525 1612.98,47.2441 
  "/>
<polyline clip-path="url(#clip562)" style="stroke:#000000; stroke-linecap:butt; stroke-linejoin:round; stroke-width:2; stroke-opacity:0.1; fill:none" points="
  1881.5,862.525 1881.5,47.2441 
  "/>
<polyline clip-path="url(#clip560)" style="stroke:#000000; stroke-linecap:butt; stroke-linejoin:round; stroke-width:4; stroke-opacity:1; fill:none" points="
  182.274,862.525 1952.76,862.525 
  "/>
<polyline clip-path="url(#clip560)" style="stroke:#000000; stroke-linecap:butt; stroke-linejoin:round; stroke-width:4; stroke-opacity:1; fill:none" points="
  270.402,862.525 270.402,843.627 
  "/>
<polyline clip-path="url(#clip560)" style="stroke:#000000; stroke-linecap:butt; stroke-linejoin:round; stroke-width:4; stroke-opacity:1; fill:none" points="
  538.918,862.525 538.918,843.627 
  "/>
<polyline clip-path="url(#clip560)" style="stroke:#000000; stroke-linecap:butt; stroke-linejoin:round; stroke-width:4; stroke-opacity:1; fill:none" points="
  807.434,862.525 807.434,843.627 
  "/>
<polyline clip-path="url(#clip560)" style="stroke:#000000; stroke-linecap:butt; stroke-linejoin:round; stroke-width:4; stroke-opacity:1; fill:none" points="
  1075.95,862.525 1075.95,843.627 
  "/>
<polyline clip-path="url(#clip560)" style="stroke:#000000; stroke-linecap:butt; stroke-linejoin:round; stroke-width:4; stroke-opacity:1; fill:none" points="
  1344.47,862.525 1344.47,843.627 
  "/>
<polyline clip-path="url(#clip560)" style="stroke:#000000; stroke-linecap:butt; stroke-linejoin:round; stroke-width:4; stroke-opacity:1; fill:none" points="
  1612.98,862.525 1612.98,843.627 
  "/>
<polyline clip-path="url(#clip560)" style="stroke:#000000; stroke-linecap:butt; stroke-linejoin:round; stroke-width:4; stroke-opacity:1; fill:none" points="
  1881.5,862.525 1881.5,843.627 
  "/>
<path clip-path="url(#clip560)" d="M239.87 904.896 L269.545 904.896 L269.545 908.831 L239.87 908.831 L239.87 904.896 Z" fill="#000000" fill-rule="evenodd" fill-opacity="1" /><path clip-path="url(#clip560)" d="M293.805 903.091 Q297.161 903.808 299.036 906.077 Q300.934 908.345 300.934 911.678 Q300.934 916.794 297.416 919.595 Q293.897 922.396 287.416 922.396 Q285.24 922.396 282.925 921.956 Q280.633 921.539 278.18 920.683 L278.18 916.169 Q280.124 917.303 282.439 917.882 Q284.754 918.461 287.277 918.461 Q291.675 918.461 293.967 916.725 Q296.281 914.989 296.281 911.678 Q296.281 908.623 294.129 906.91 Q291.999 905.174 288.18 905.174 L284.152 905.174 L284.152 901.331 L288.365 901.331 Q291.814 901.331 293.643 899.966 Q295.471 898.577 295.471 895.984 Q295.471 893.322 293.573 891.91 Q291.698 890.475 288.18 890.475 Q286.258 890.475 284.059 890.892 Q281.86 891.308 279.221 892.188 L279.221 888.021 Q281.883 887.28 284.198 886.91 Q286.536 886.54 288.596 886.54 Q293.92 886.54 297.022 888.97 Q300.124 891.378 300.124 895.498 Q300.124 898.368 298.48 900.359 Q296.837 902.327 293.805 903.091 Z" fill="#000000" fill-rule="evenodd" fill-opacity="1" /><path clip-path="url(#clip560)" d="M508.86 904.896 L538.536 904.896 L538.536 908.831 L508.86 908.831 L508.86 904.896 Z" fill="#000000" fill-rule="evenodd" fill-opacity="1" /><path clip-path="url(#clip560)" d="M552.657 917.79 L568.976 917.79 L568.976 921.725 L547.032 921.725 L547.032 917.79 Q549.694 915.035 554.277 910.405 Q558.883 905.753 560.064 904.41 Q562.309 901.887 563.189 900.151 Q564.092 898.391 564.092 896.702 Q564.092 893.947 562.147 892.211 Q560.226 890.475 557.124 890.475 Q554.925 890.475 552.471 891.239 Q550.041 892.003 547.263 893.554 L547.263 888.831 Q550.087 887.697 552.541 887.118 Q554.994 886.54 557.031 886.54 Q562.402 886.54 565.596 889.225 Q568.791 891.91 568.791 896.401 Q568.791 898.53 567.98 900.452 Q567.193 902.35 565.087 904.942 Q564.508 905.614 561.406 908.831 Q558.305 912.026 552.657 917.79 Z" fill="#000000" fill-rule="evenodd" fill-opacity="1" /><path clip-path="url(#clip560)" d="M777.192 904.896 L806.867 904.896 L806.867 908.831 L777.192 908.831 L777.192 904.896 Z" fill="#000000" fill-rule="evenodd" fill-opacity="1" /><path clip-path="url(#clip560)" d="M817.77 917.79 L825.409 917.79 L825.409 891.424 L817.099 893.091 L817.099 888.831 L825.363 887.165 L830.038 887.165 L830.038 917.79 L837.677 917.79 L837.677 921.725 L817.77 921.725 L817.77 917.79 Z" fill="#000000" fill-rule="evenodd" fill-opacity="1" /><path clip-path="url(#clip560)" d="M1075.95 890.243 Q1072.34 890.243 1070.51 893.808 Q1068.71 897.35 1068.71 904.479 Q1068.71 911.586 1070.51 915.151 Q1072.34 918.692 1075.95 918.692 Q1079.58 918.692 1081.39 915.151 Q1083.22 911.586 1083.22 904.479 Q1083.22 897.35 1081.39 893.808 Q1079.58 890.243 1075.95 890.243 M1075.95 886.54 Q1081.76 886.54 1084.82 891.146 Q1087.9 895.729 1087.9 904.479 Q1087.9 913.206 1084.82 917.813 Q1081.76 922.396 1075.95 922.396 Q1070.14 922.396 1067.06 917.813 Q1064.01 913.206 1064.01 904.479 Q1064.01 895.729 1067.06 891.146 Q1070.14 886.54 1075.95 886.54 Z" fill="#000000" fill-rule="evenodd" fill-opacity="1" /><path clip-path="url(#clip560)" d="M1334.85 917.79 L1342.49 917.79 L1342.49 891.424 L1334.18 893.091 L1334.18 888.831 L1342.44 887.165 L1347.12 887.165 L1347.12 917.79 L1354.76 917.79 L1354.76 921.725 L1334.85 921.725 L1334.85 917.79 Z" fill="#000000" fill-rule="evenodd" fill-opacity="1" /><path clip-path="url(#clip560)" d="M1607.64 917.79 L1623.96 917.79 L1623.96 921.725 L1602.01 921.725 L1602.01 917.79 Q1604.67 915.035 1609.26 910.405 Q1613.86 905.753 1615.04 904.41 Q1617.29 901.887 1618.17 900.151 Q1619.07 898.391 1619.07 896.702 Q1619.07 893.947 1617.13 892.211 Q1615.21 890.475 1612.1 890.475 Q1609.9 890.475 1607.45 891.239 Q1605.02 892.003 1602.24 893.554 L1602.24 888.831 Q1605.07 887.697 1607.52 887.118 Q1609.97 886.54 1612.01 886.54 Q1617.38 886.54 1620.58 889.225 Q1623.77 891.91 1623.77 896.401 Q1623.77 898.53 1622.96 900.452 Q1622.17 902.35 1620.07 904.942 Q1619.49 905.614 1616.39 908.831 Q1613.28 912.026 1607.64 917.79 Z" fill="#000000" fill-rule="evenodd" fill-opacity="1" /><path clip-path="url(#clip560)" d="M1885.75 903.091 Q1889.1 903.808 1890.98 906.077 Q1892.88 908.345 1892.88 911.678 Q1892.88 916.794 1889.36 919.595 Q1885.84 922.396 1879.36 922.396 Q1877.18 922.396 1874.87 921.956 Q1872.58 921.539 1870.12 920.683 L1870.12 916.169 Q1872.07 917.303 1874.38 917.882 Q1876.7 918.461 1879.22 918.461 Q1883.62 918.461 1885.91 916.725 Q1888.22 914.989 1888.22 911.678 Q1888.22 908.623 1886.07 906.91 Q1883.94 905.174 1880.12 905.174 L1876.09 905.174 L1876.09 901.331 L1880.31 901.331 Q1883.76 901.331 1885.58 899.966 Q1887.41 898.577 1887.41 895.984 Q1887.41 893.322 1885.52 891.91 Q1883.64 890.475 1880.12 890.475 Q1878.2 890.475 1876 890.892 Q1873.8 891.308 1871.16 892.188 L1871.16 888.021 Q1873.83 887.28 1876.14 886.91 Q1878.48 886.54 1880.54 886.54 Q1885.86 886.54 1888.96 888.97 Q1892.07 891.378 1892.07 895.498 Q1892.07 898.368 1890.42 900.359 Q1888.78 902.327 1885.75 903.091 Z" fill="#000000" fill-rule="evenodd" fill-opacity="1" /><polyline clip-path="url(#clip562)" style="stroke:#000000; stroke-linecap:butt; stroke-linejoin:round; stroke-width:2; stroke-opacity:0.1; fill:none" points="
  182.274,839.451 1952.76,839.451 
  "/>
<polyline clip-path="url(#clip562)" style="stroke:#000000; stroke-linecap:butt; stroke-linejoin:round; stroke-width:2; stroke-opacity:0.1; fill:none" points="
  182.274,647.168 1952.76,647.168 
  "/>
<polyline clip-path="url(#clip562)" style="stroke:#000000; stroke-linecap:butt; stroke-linejoin:round; stroke-width:2; stroke-opacity:0.1; fill:none" points="
  182.274,454.884 1952.76,454.884 
  "/>
<polyline clip-path="url(#clip562)" style="stroke:#000000; stroke-linecap:butt; stroke-linejoin:round; stroke-width:2; stroke-opacity:0.1; fill:none" points="
  182.274,262.601 1952.76,262.601 
  "/>
<polyline clip-path="url(#clip562)" style="stroke:#000000; stroke-linecap:butt; stroke-linejoin:round; stroke-width:2; stroke-opacity:0.1; fill:none" points="
  182.274,70.3181 1952.76,70.3181 
  "/>
<polyline clip-path="url(#clip560)" style="stroke:#000000; stroke-linecap:butt; stroke-linejoin:round; stroke-width:4; stroke-opacity:1; fill:none" points="
  182.274,862.525 182.274,47.2441 
  "/>
<polyline clip-path="url(#clip560)" style="stroke:#000000; stroke-linecap:butt; stroke-linejoin:round; stroke-width:4; stroke-opacity:1; fill:none" points="
  182.274,839.451 201.172,839.451 
  "/>
<polyline clip-path="url(#clip560)" style="stroke:#000000; stroke-linecap:butt; stroke-linejoin:round; stroke-width:4; stroke-opacity:1; fill:none" points="
  182.274,647.168 201.172,647.168 
  "/>
<polyline clip-path="url(#clip560)" style="stroke:#000000; stroke-linecap:butt; stroke-linejoin:round; stroke-width:4; stroke-opacity:1; fill:none" points="
  182.274,454.884 201.172,454.884 
  "/>
<polyline clip-path="url(#clip560)" style="stroke:#000000; stroke-linecap:butt; stroke-linejoin:round; stroke-width:4; stroke-opacity:1; fill:none" points="
  182.274,262.601 201.172,262.601 
  "/>
<polyline clip-path="url(#clip560)" style="stroke:#000000; stroke-linecap:butt; stroke-linejoin:round; stroke-width:4; stroke-opacity:1; fill:none" points="
  182.274,70.3181 201.172,70.3181 
  "/>
<path clip-path="url(#clip560)" d="M64.9365 825.249 Q61.3254 825.249 59.4967 828.814 Q57.6912 832.356 57.6912 839.485 Q57.6912 846.592 59.4967 850.157 Q61.3254 853.698 64.9365 853.698 Q68.5707 853.698 70.3763 850.157 Q72.205 846.592 72.205 839.485 Q72.205 832.356 70.3763 828.814 Q68.5707 825.249 64.9365 825.249 M64.9365 821.546 Q70.7467 821.546 73.8022 826.152 Q76.8809 830.735 76.8809 839.485 Q76.8809 848.212 73.8022 852.819 Q70.7467 857.402 64.9365 857.402 Q59.1264 857.402 56.0477 852.819 Q52.9921 848.212 52.9921 839.485 Q52.9921 830.735 56.0477 826.152 Q59.1264 821.546 64.9365 821.546 Z" fill="#000000" fill-rule="evenodd" fill-opacity="1" /><path clip-path="url(#clip560)" d="M85.0984 850.851 L89.9827 850.851 L89.9827 856.731 L85.0984 856.731 L85.0984 850.851 Z" fill="#000000" fill-rule="evenodd" fill-opacity="1" /><path clip-path="url(#clip560)" d="M110.168 825.249 Q106.557 825.249 104.728 828.814 Q102.922 832.356 102.922 839.485 Q102.922 846.592 104.728 850.157 Q106.557 853.698 110.168 853.698 Q113.802 853.698 115.608 850.157 Q117.436 846.592 117.436 839.485 Q117.436 832.356 115.608 828.814 Q113.802 825.249 110.168 825.249 M110.168 821.546 Q115.978 821.546 119.033 826.152 Q122.112 830.735 122.112 839.485 Q122.112 848.212 119.033 852.819 Q115.978 857.402 110.168 857.402 Q104.358 857.402 101.279 852.819 Q98.2234 848.212 98.2234 839.485 Q98.2234 830.735 101.279 826.152 Q104.358 821.546 110.168 821.546 Z" fill="#000000" fill-rule="evenodd" fill-opacity="1" /><path clip-path="url(#clip560)" d="M140.33 825.249 Q136.719 825.249 134.89 828.814 Q133.084 832.356 133.084 839.485 Q133.084 846.592 134.89 850.157 Q136.719 853.698 140.33 853.698 Q143.964 853.698 145.769 850.157 Q147.598 846.592 147.598 839.485 Q147.598 832.356 145.769 828.814 Q143.964 825.249 140.33 825.249 M140.33 821.546 Q146.14 821.546 149.195 826.152 Q152.274 830.735 152.274 839.485 Q152.274 848.212 149.195 852.819 Q146.14 857.402 140.33 857.402 Q134.519 857.402 131.441 852.819 Q128.385 848.212 128.385 839.485 Q128.385 830.735 131.441 826.152 Q134.519 821.546 140.33 821.546 Z" fill="#000000" fill-rule="evenodd" fill-opacity="1" /><path clip-path="url(#clip560)" d="M65.9319 632.966 Q62.3208 632.966 60.4921 636.531 Q58.6865 640.073 58.6865 647.202 Q58.6865 654.309 60.4921 657.874 Q62.3208 661.415 65.9319 661.415 Q69.5661 661.415 71.3717 657.874 Q73.2004 654.309 73.2004 647.202 Q73.2004 640.073 71.3717 636.531 Q69.5661 632.966 65.9319 632.966 M65.9319 629.263 Q71.742 629.263 74.7976 633.869 Q77.8763 638.452 77.8763 647.202 Q77.8763 655.929 74.7976 660.536 Q71.742 665.119 65.9319 665.119 Q60.1217 665.119 57.043 660.536 Q53.9875 655.929 53.9875 647.202 Q53.9875 638.452 57.043 633.869 Q60.1217 629.263 65.9319 629.263 Z" fill="#000000" fill-rule="evenodd" fill-opacity="1" /><path clip-path="url(#clip560)" d="M86.0938 658.568 L90.978 658.568 L90.978 664.448 L86.0938 664.448 L86.0938 658.568 Z" fill="#000000" fill-rule="evenodd" fill-opacity="1" /><path clip-path="url(#clip560)" d="M105.191 660.512 L121.51 660.512 L121.51 664.448 L99.566 664.448 L99.566 660.512 Q102.228 657.758 106.811 653.128 Q111.418 648.475 112.598 647.133 Q114.844 644.61 115.723 642.874 Q116.626 641.114 116.626 639.425 Q116.626 636.67 114.682 634.934 Q112.76 633.198 109.658 633.198 Q107.459 633.198 105.006 633.962 Q102.575 634.725 99.7974 636.276 L99.7974 631.554 Q102.621 630.42 105.075 629.841 Q107.529 629.263 109.566 629.263 Q114.936 629.263 118.131 631.948 Q121.325 634.633 121.325 639.124 Q121.325 641.253 120.515 643.175 Q119.728 645.073 117.621 647.665 Q117.043 648.337 113.941 651.554 Q110.839 654.749 105.191 660.512 Z" fill="#000000" fill-rule="evenodd" fill-opacity="1" /><path clip-path="url(#clip560)" d="M131.371 629.888 L149.728 629.888 L149.728 633.823 L135.654 633.823 L135.654 642.295 Q136.672 641.948 137.691 641.786 Q138.709 641.6 139.728 641.6 Q145.515 641.6 148.894 644.772 Q152.274 647.943 152.274 653.36 Q152.274 658.938 148.802 662.04 Q145.33 665.119 139.01 665.119 Q136.834 665.119 134.566 664.748 Q132.32 664.378 129.913 663.637 L129.913 658.938 Q131.996 660.073 134.219 660.628 Q136.441 661.184 138.918 661.184 Q142.922 661.184 145.26 659.077 Q147.598 656.971 147.598 653.36 Q147.598 649.749 145.26 647.642 Q142.922 645.536 138.918 645.536 Q137.043 645.536 135.168 645.952 Q133.316 646.369 131.371 647.249 L131.371 629.888 Z" fill="#000000" fill-rule="evenodd" fill-opacity="1" /><path clip-path="url(#clip560)" d="M64.9365 440.683 Q61.3254 440.683 59.4967 444.248 Q57.6912 447.79 57.6912 454.919 Q57.6912 462.026 59.4967 465.59 Q61.3254 469.132 64.9365 469.132 Q68.5707 469.132 70.3763 465.59 Q72.205 462.026 72.205 454.919 Q72.205 447.79 70.3763 444.248 Q68.5707 440.683 64.9365 440.683 M64.9365 436.979 Q70.7467 436.979 73.8022 441.586 Q76.8809 446.169 76.8809 454.919 Q76.8809 463.646 73.8022 468.252 Q70.7467 472.836 64.9365 472.836 Q59.1264 472.836 56.0477 468.252 Q52.9921 463.646 52.9921 454.919 Q52.9921 446.169 56.0477 441.586 Q59.1264 436.979 64.9365 436.979 Z" fill="#000000" fill-rule="evenodd" fill-opacity="1" /><path clip-path="url(#clip560)" d="M85.0984 466.285 L89.9827 466.285 L89.9827 472.164 L85.0984 472.164 L85.0984 466.285 Z" fill="#000000" fill-rule="evenodd" fill-opacity="1" /><path clip-path="url(#clip560)" d="M100.214 437.604 L118.57 437.604 L118.57 441.54 L104.496 441.54 L104.496 450.012 Q105.515 449.665 106.534 449.502 Q107.552 449.317 108.571 449.317 Q114.358 449.317 117.737 452.489 Q121.117 455.66 121.117 461.076 Q121.117 466.655 117.645 469.757 Q114.172 472.836 107.853 472.836 Q105.677 472.836 103.409 472.465 Q101.163 472.095 98.7558 471.354 L98.7558 466.655 Q100.839 467.789 103.061 468.345 Q105.284 468.901 107.76 468.901 Q111.765 468.901 114.103 466.794 Q116.441 464.688 116.441 461.076 Q116.441 457.465 114.103 455.359 Q111.765 453.252 107.76 453.252 Q105.885 453.252 104.01 453.669 Q102.159 454.086 100.214 454.965 L100.214 437.604 Z" fill="#000000" fill-rule="evenodd" fill-opacity="1" /><path clip-path="url(#clip560)" d="M140.33 440.683 Q136.719 440.683 134.89 444.248 Q133.084 447.79 133.084 454.919 Q133.084 462.026 134.89 465.59 Q136.719 469.132 140.33 469.132 Q143.964 469.132 145.769 465.59 Q147.598 462.026 147.598 454.919 Q147.598 447.79 145.769 444.248 Q143.964 440.683 140.33 440.683 M140.33 436.979 Q146.14 436.979 149.195 441.586 Q152.274 446.169 152.274 454.919 Q152.274 463.646 149.195 468.252 Q146.14 472.836 140.33 472.836 Q134.519 472.836 131.441 468.252 Q128.385 463.646 128.385 454.919 Q128.385 446.169 131.441 441.586 Q134.519 436.979 140.33 436.979 Z" fill="#000000" fill-rule="evenodd" fill-opacity="1" /><path clip-path="url(#clip560)" d="M65.9319 248.4 Q62.3208 248.4 60.4921 251.965 Q58.6865 255.506 58.6865 262.636 Q58.6865 269.742 60.4921 273.307 Q62.3208 276.849 65.9319 276.849 Q69.5661 276.849 71.3717 273.307 Q73.2004 269.742 73.2004 262.636 Q73.2004 255.506 71.3717 251.965 Q69.5661 248.4 65.9319 248.4 M65.9319 244.696 Q71.742 244.696 74.7976 249.303 Q77.8763 253.886 77.8763 262.636 Q77.8763 271.363 74.7976 275.969 Q71.742 280.553 65.9319 280.553 Q60.1217 280.553 57.043 275.969 Q53.9875 271.363 53.9875 262.636 Q53.9875 253.886 57.043 249.303 Q60.1217 244.696 65.9319 244.696 Z" fill="#000000" fill-rule="evenodd" fill-opacity="1" /><path clip-path="url(#clip560)" d="M86.0938 274.002 L90.978 274.002 L90.978 279.881 L86.0938 279.881 L86.0938 274.002 Z" fill="#000000" fill-rule="evenodd" fill-opacity="1" /><path clip-path="url(#clip560)" d="M99.9826 245.321 L122.205 245.321 L122.205 247.312 L109.658 279.881 L104.774 279.881 L116.58 249.256 L99.9826 249.256 L99.9826 245.321 Z" fill="#000000" fill-rule="evenodd" fill-opacity="1" /><path clip-path="url(#clip560)" d="M131.371 245.321 L149.728 245.321 L149.728 249.256 L135.654 249.256 L135.654 257.729 Q136.672 257.381 137.691 257.219 Q138.709 257.034 139.728 257.034 Q145.515 257.034 148.894 260.205 Q152.274 263.377 152.274 268.793 Q152.274 274.372 148.802 277.474 Q145.33 280.553 139.01 280.553 Q136.834 280.553 134.566 280.182 Q132.32 279.812 129.913 279.071 L129.913 274.372 Q131.996 275.506 134.219 276.062 Q136.441 276.617 138.918 276.617 Q142.922 276.617 145.26 274.511 Q147.598 272.404 147.598 268.793 Q147.598 265.182 145.26 263.076 Q142.922 260.969 138.918 260.969 Q137.043 260.969 135.168 261.386 Q133.316 261.803 131.371 262.682 L131.371 245.321 Z" fill="#000000" fill-rule="evenodd" fill-opacity="1" /><path clip-path="url(#clip560)" d="M55.7467 83.6629 L63.3856 83.6629 L63.3856 57.2973 L55.0754 58.964 L55.0754 54.7047 L63.3393 53.0381 L68.0152 53.0381 L68.0152 83.6629 L75.654 83.6629 L75.654 87.5981 L55.7467 87.5981 L55.7467 83.6629 Z" fill="#000000" fill-rule="evenodd" fill-opacity="1" /><path clip-path="url(#clip560)" d="M85.0984 81.7185 L89.9827 81.7185 L89.9827 87.5981 L85.0984 87.5981 L85.0984 81.7185 Z" fill="#000000" fill-rule="evenodd" fill-opacity="1" /><path clip-path="url(#clip560)" d="M110.168 56.1168 Q106.557 56.1168 104.728 59.6816 Q102.922 63.2232 102.922 70.3528 Q102.922 77.4592 104.728 81.024 Q106.557 84.5657 110.168 84.5657 Q113.802 84.5657 115.608 81.024 Q117.436 77.4592 117.436 70.3528 Q117.436 63.2232 115.608 59.6816 Q113.802 56.1168 110.168 56.1168 M110.168 52.4131 Q115.978 52.4131 119.033 57.0195 Q122.112 61.6028 122.112 70.3528 Q122.112 79.0796 119.033 83.6861 Q115.978 88.2694 110.168 88.2694 Q104.358 88.2694 101.279 83.6861 Q98.2234 79.0796 98.2234 70.3528 Q98.2234 61.6028 101.279 57.0195 Q104.358 52.4131 110.168 52.4131 Z" fill="#000000" fill-rule="evenodd" fill-opacity="1" /><path clip-path="url(#clip560)" d="M140.33 56.1168 Q136.719 56.1168 134.89 59.6816 Q133.084 63.2232 133.084 70.3528 Q133.084 77.4592 134.89 81.024 Q136.719 84.5657 140.33 84.5657 Q143.964 84.5657 145.769 81.024 Q147.598 77.4592 147.598 70.3528 Q147.598 63.2232 145.769 59.6816 Q143.964 56.1168 140.33 56.1168 M140.33 52.4131 Q146.14 52.4131 149.195 57.0195 Q152.274 61.6028 152.274 70.3528 Q152.274 79.0796 149.195 83.6861 Q146.14 88.2694 140.33 88.2694 Q134.519 88.2694 131.441 83.6861 Q128.385 79.0796 128.385 70.3528 Q128.385 61.6028 131.441 57.0195 Q134.519 52.4131 140.33 52.4131 Z" fill="#000000" fill-rule="evenodd" fill-opacity="1" /><polyline clip-path="url(#clip562)" style="stroke:#009af9; stroke-linecap:butt; stroke-linejoin:round; stroke-width:4; stroke-opacity:1; fill:none" points="
  232.382,839.451 249.253,839.451 266.125,839.451 282.996,839.451 299.867,839.451 316.739,839.451 333.61,839.451 350.482,839.451 367.353,839.451 384.224,839.451 
  401.096,839.451 417.967,839.451 434.838,839.451 451.71,839.451 468.581,839.451 485.453,839.451 502.324,839.451 519.195,839.451 536.067,839.451 552.938,839.451 
  569.809,839.451 586.681,839.451 603.552,839.451 620.424,839.45 637.295,839.449 654.166,839.447 671.038,839.442 687.909,839.428 704.78,839.396 721.652,839.323 
  738.523,839.164 755.395,838.832 772.266,838.167 789.137,836.889 806.009,834.537 822.88,830.39 839.751,823.39 856.623,812.084 873.494,794.623 890.366,768.866 
  907.237,732.61 924.108,683.991 940.98,622.004 957.851,547.074 974.722,461.542 991.594,369.897 1008.47,278.61 1025.34,195.507 1042.21,128.711 1059.08,85.3513 
  1075.95,70.3181 1092.82,85.3513 1109.69,128.711 1126.56,195.507 1143.44,278.61 1160.31,369.897 1177.18,461.542 1194.05,547.074 1210.92,622.004 1227.79,683.991 
  1244.66,732.61 1261.54,768.866 1278.41,794.623 1295.28,812.084 1312.15,823.39 1329.02,830.39 1345.89,834.537 1362.76,836.889 1379.64,838.167 1396.51,838.832 
  1413.38,839.164 1430.25,839.323 1447.12,839.396 1463.99,839.428 1480.86,839.442 1497.73,839.447 1514.61,839.449 1531.48,839.45 1548.35,839.451 1565.22,839.451 
  1582.09,839.451 1598.96,839.451 1615.83,839.451 1632.71,839.451 1649.58,839.451 1666.45,839.451 1683.32,839.451 1700.19,839.451 1717.06,839.451 1733.93,839.451 
  1750.81,839.451 1767.68,839.451 1784.55,839.451 1801.42,839.451 1818.29,839.451 1835.16,839.451 1852.03,839.451 1868.91,839.451 1885.78,839.451 1902.65,839.451 
  
  "/>
</svg>
